%FSLAX24Y24*%
%MOIN*%
G70*
G01*
G75*
G04 Layer_Physical_Order=3*
G04 Layer_Color=12632256*
%ADD10C,0.0080*%
%ADD11C,0.0160*%
%ADD12C,0.0200*%
%ADD13C,0.0300*%
%ADD14C,0.0040*%
%ADD15C,0.0100*%
%ADD16C,0.0120*%
%ADD17C,0.0240*%
%ADD18C,0.0090*%
%ADD19R,0.0200X0.0200*%
%ADD20R,0.0200X0.0200*%
%ADD21C,0.0098*%
%ADD22C,0.0276*%
%ADD23R,0.0236X0.0413*%
%ADD24P,0.0283X4X90.0*%
%ADD25R,0.0940X0.0650*%
%ADD26R,0.0100X0.0270*%
%ADD27R,0.0550X0.0470*%
%ADD28R,0.0160X0.0440*%
G04:AMPARAMS|DCode=29|XSize=20mil|YSize=8mil|CornerRadius=3mil|HoleSize=0mil|Usage=FLASHONLY|Rotation=90.000|XOffset=0mil|YOffset=0mil|HoleType=Round|Shape=RoundedRectangle|*
%AMROUNDEDRECTD29*
21,1,0.0200,0.0020,0,0,90.0*
21,1,0.0140,0.0080,0,0,90.0*
1,1,0.0060,0.0010,0.0070*
1,1,0.0060,0.0010,-0.0070*
1,1,0.0060,-0.0010,-0.0070*
1,1,0.0060,-0.0010,0.0070*
%
%ADD29ROUNDEDRECTD29*%
G04:AMPARAMS|DCode=30|XSize=20mil|YSize=8mil|CornerRadius=3mil|HoleSize=0mil|Usage=FLASHONLY|Rotation=0.000|XOffset=0mil|YOffset=0mil|HoleType=Round|Shape=RoundedRectangle|*
%AMROUNDEDRECTD30*
21,1,0.0200,0.0020,0,0,0.0*
21,1,0.0140,0.0080,0,0,0.0*
1,1,0.0060,0.0070,-0.0010*
1,1,0.0060,-0.0070,-0.0010*
1,1,0.0060,-0.0070,0.0010*
1,1,0.0060,0.0070,0.0010*
%
%ADD30ROUNDEDRECTD30*%
%ADD31R,0.0360X0.0400*%
%ADD32R,0.0340X0.0310*%
%ADD33R,0.0320X0.0280*%
%ADD34R,0.0560X0.0560*%
%ADD35R,0.0480X0.0560*%
%ADD36R,0.0200X0.0400*%
G04:AMPARAMS|DCode=37|XSize=52mil|YSize=63mil|CornerRadius=5.2mil|HoleSize=0mil|Usage=FLASHONLY|Rotation=180.000|XOffset=0mil|YOffset=0mil|HoleType=Round|Shape=RoundedRectangle|*
%AMROUNDEDRECTD37*
21,1,0.0520,0.0526,0,0,180.0*
21,1,0.0416,0.0630,0,0,180.0*
1,1,0.0104,-0.0208,0.0263*
1,1,0.0104,0.0208,0.0263*
1,1,0.0104,0.0208,-0.0263*
1,1,0.0104,-0.0208,-0.0263*
%
%ADD37ROUNDEDRECTD37*%
%ADD38R,0.0400X0.0360*%
%ADD39R,0.0310X0.0340*%
%ADD40R,0.0400X0.0200*%
G04:AMPARAMS|DCode=41|XSize=52mil|YSize=63mil|CornerRadius=5.2mil|HoleSize=0mil|Usage=FLASHONLY|Rotation=315.000|XOffset=0mil|YOffset=0mil|HoleType=Round|Shape=RoundedRectangle|*
%AMROUNDEDRECTD41*
21,1,0.0520,0.0526,0,0,315.0*
21,1,0.0416,0.0630,0,0,315.0*
1,1,0.0104,-0.0039,-0.0333*
1,1,0.0104,-0.0333,-0.0039*
1,1,0.0104,0.0039,0.0333*
1,1,0.0104,0.0333,0.0039*
%
%ADD41ROUNDEDRECTD41*%
G04:AMPARAMS|DCode=42|XSize=52mil|YSize=63mil|CornerRadius=5.2mil|HoleSize=0mil|Usage=FLASHONLY|Rotation=270.000|XOffset=0mil|YOffset=0mil|HoleType=Round|Shape=RoundedRectangle|*
%AMROUNDEDRECTD42*
21,1,0.0520,0.0526,0,0,270.0*
21,1,0.0416,0.0630,0,0,270.0*
1,1,0.0104,-0.0263,-0.0208*
1,1,0.0104,-0.0263,0.0208*
1,1,0.0104,0.0263,0.0208*
1,1,0.0104,0.0263,-0.0208*
%
%ADD42ROUNDEDRECTD42*%
%ADD43R,0.0280X0.0320*%
%ADD44R,0.0100X0.0220*%
G04:AMPARAMS|DCode=45|XSize=22mil|YSize=10mil|CornerRadius=0mil|HoleSize=0mil|Usage=FLASHONLY|Rotation=45.000|XOffset=0mil|YOffset=0mil|HoleType=Round|Shape=Rectangle|*
%AMROTATEDRECTD45*
4,1,4,-0.0042,-0.0113,-0.0113,-0.0042,0.0042,0.0113,0.0113,0.0042,-0.0042,-0.0113,0.0*
%
%ADD45ROTATEDRECTD45*%

%ADD46R,0.1460X0.0480*%
%ADD47R,0.0560X0.0160*%
%ADD48R,0.0750X0.0910*%
%ADD49R,0.0750X0.0710*%
G04:AMPARAMS|DCode=50|XSize=8mil|YSize=28mil|CornerRadius=4mil|HoleSize=0mil|Usage=FLASHONLY|Rotation=270.000|XOffset=0mil|YOffset=0mil|HoleType=Round|Shape=RoundedRectangle|*
%AMROUNDEDRECTD50*
21,1,0.0080,0.0200,0,0,270.0*
21,1,0.0000,0.0280,0,0,270.0*
1,1,0.0080,-0.0100,0.0000*
1,1,0.0080,-0.0100,0.0000*
1,1,0.0080,0.0100,0.0000*
1,1,0.0080,0.0100,0.0000*
%
%ADD50ROUNDEDRECTD50*%
G04:AMPARAMS|DCode=51|XSize=8mil|YSize=28mil|CornerRadius=4mil|HoleSize=0mil|Usage=FLASHONLY|Rotation=180.000|XOffset=0mil|YOffset=0mil|HoleType=Round|Shape=RoundedRectangle|*
%AMROUNDEDRECTD51*
21,1,0.0080,0.0200,0,0,180.0*
21,1,0.0000,0.0280,0,0,180.0*
1,1,0.0080,0.0000,0.0100*
1,1,0.0080,0.0000,0.0100*
1,1,0.0080,0.0000,-0.0100*
1,1,0.0080,0.0000,-0.0100*
%
%ADD51ROUNDEDRECTD51*%
G04:AMPARAMS|DCode=52|XSize=182mil|YSize=182mil|CornerRadius=4.6mil|HoleSize=0mil|Usage=FLASHONLY|Rotation=180.000|XOffset=0mil|YOffset=0mil|HoleType=Round|Shape=RoundedRectangle|*
%AMROUNDEDRECTD52*
21,1,0.1820,0.1729,0,0,180.0*
21,1,0.1729,0.1820,0,0,180.0*
1,1,0.0091,-0.0865,0.0865*
1,1,0.0091,0.0865,0.0865*
1,1,0.0091,0.0865,-0.0865*
1,1,0.0091,-0.0865,-0.0865*
%
%ADD52ROUNDEDRECTD52*%
G04:AMPARAMS|DCode=53|XSize=182mil|YSize=182mil|CornerRadius=4.6mil|HoleSize=0mil|Usage=FLASHONLY|Rotation=135.000|XOffset=0mil|YOffset=0mil|HoleType=Round|Shape=RoundedRectangle|*
%AMROUNDEDRECTD53*
21,1,0.1820,0.1729,0,0,135.0*
21,1,0.1729,0.1820,0,0,135.0*
1,1,0.0091,0.0000,0.1223*
1,1,0.0091,0.1223,0.0000*
1,1,0.0091,0.0000,-0.1223*
1,1,0.0091,-0.1223,0.0000*
%
%ADD53ROUNDEDRECTD53*%
G04:AMPARAMS|DCode=54|XSize=8mil|YSize=28mil|CornerRadius=4mil|HoleSize=0mil|Usage=FLASHONLY|Rotation=135.000|XOffset=0mil|YOffset=0mil|HoleType=Round|Shape=RoundedRectangle|*
%AMROUNDEDRECTD54*
21,1,0.0080,0.0200,0,0,135.0*
21,1,0.0000,0.0280,0,0,135.0*
1,1,0.0080,0.0071,0.0071*
1,1,0.0080,0.0071,0.0071*
1,1,0.0080,-0.0071,-0.0071*
1,1,0.0080,-0.0071,-0.0071*
%
%ADD54ROUNDEDRECTD54*%
G04:AMPARAMS|DCode=55|XSize=8mil|YSize=28mil|CornerRadius=4mil|HoleSize=0mil|Usage=FLASHONLY|Rotation=225.000|XOffset=0mil|YOffset=0mil|HoleType=Round|Shape=RoundedRectangle|*
%AMROUNDEDRECTD55*
21,1,0.0080,0.0200,0,0,225.0*
21,1,0.0000,0.0280,0,0,225.0*
1,1,0.0080,-0.0071,0.0071*
1,1,0.0080,-0.0071,0.0071*
1,1,0.0080,0.0071,-0.0071*
1,1,0.0080,0.0071,-0.0071*
%
%ADD55ROUNDEDRECTD55*%
%ADD56P,0.0283X4X360.0*%
%ADD57R,0.0600X0.0950*%
%ADD58R,0.0240X0.0160*%
G04:AMPARAMS|DCode=59|XSize=14mil|YSize=14mil|CornerRadius=7mil|HoleSize=0mil|Usage=FLASHONLY|Rotation=0.000|XOffset=0mil|YOffset=0mil|HoleType=Round|Shape=RoundedRectangle|*
%AMROUNDEDRECTD59*
21,1,0.0140,0.0000,0,0,0.0*
21,1,0.0000,0.0140,0,0,0.0*
1,1,0.0140,0.0000,0.0000*
1,1,0.0140,0.0000,0.0000*
1,1,0.0140,0.0000,0.0000*
1,1,0.0140,0.0000,0.0000*
%
%ADD59ROUNDEDRECTD59*%
%ADD60R,0.0165X0.0400*%
%ADD61C,0.0236*%
%ADD62R,0.0120X0.0400*%
%ADD63R,0.0480X0.0400*%
%ADD64R,0.0400X0.0480*%
%ADD65R,0.0827X0.0206*%
%ADD66R,0.0394X0.0560*%
%ADD67R,0.0827X0.0354*%
%ADD68R,0.0560X0.0394*%
%ADD69R,0.0206X0.0827*%
%ADD70R,0.0354X0.0827*%
G04:AMPARAMS|DCode=71|XSize=100mil|YSize=35mil|CornerRadius=8.8mil|HoleSize=0mil|Usage=FLASHONLY|Rotation=180.000|XOffset=0mil|YOffset=0mil|HoleType=Round|Shape=RoundedRectangle|*
%AMROUNDEDRECTD71*
21,1,0.1000,0.0175,0,0,180.0*
21,1,0.0825,0.0350,0,0,180.0*
1,1,0.0175,-0.0413,0.0088*
1,1,0.0175,0.0413,0.0088*
1,1,0.0175,0.0413,-0.0088*
1,1,0.0175,-0.0413,-0.0088*
%
%ADD71ROUNDEDRECTD71*%
G04:AMPARAMS|DCode=72|XSize=100mil|YSize=35mil|CornerRadius=8.8mil|HoleSize=0mil|Usage=FLASHONLY|Rotation=90.000|XOffset=0mil|YOffset=0mil|HoleType=Round|Shape=RoundedRectangle|*
%AMROUNDEDRECTD72*
21,1,0.1000,0.0175,0,0,90.0*
21,1,0.0825,0.0350,0,0,90.0*
1,1,0.0175,0.0088,0.0413*
1,1,0.0175,0.0088,-0.0413*
1,1,0.0175,-0.0088,-0.0413*
1,1,0.0175,-0.0088,0.0413*
%
%ADD72ROUNDEDRECTD72*%
%ADD73R,0.0950X0.0300*%
%ADD74R,0.0512X0.0866*%
%ADD75R,0.0512X0.0551*%
%ADD76C,0.0160*%
%ADD77C,0.0630*%
%ADD78C,0.0360*%
%ADD79C,0.0070*%
%ADD80C,0.0060*%
%ADD81C,0.0400*%
%ADD82C,0.0280*%
%ADD83R,0.0520X0.0140*%
%ADD84R,0.0108X0.0250*%
%ADD85R,0.0247X0.0144*%
%ADD86R,0.0230X0.0158*%
%ADD87R,0.0095X0.0038*%
%ADD88R,0.0150X0.0200*%
%ADD89R,0.1410X0.0970*%
%ADD90R,0.0180X0.0170*%
%ADD91C,0.0551*%
%ADD92C,0.0660*%
%ADD93C,0.0160*%
%ADD94C,0.0240*%
%ADD95C,0.0140*%
%ADD96C,0.0480*%
%ADD97C,0.0210*%
%ADD98C,0.0410*%
%ADD99R,0.0250X0.0040*%
G36*
X29936Y5160D02*
Y5160D01*
X29936D01*
D01*
D01*
X29937Y5160D01*
X29937Y5160D01*
D01*
X29943Y5161D01*
X30008Y5153D01*
X30074Y5125D01*
X30131Y5081D01*
X30132Y5082D01*
X30191Y5036D01*
X30242Y5015D01*
Y4965D01*
X30191Y4944D01*
X30132Y4898D01*
X30086Y4839D01*
X30057Y4769D01*
X30047Y4695D01*
X30057Y4620D01*
X30086Y4551D01*
X30132Y4492D01*
X30191Y4446D01*
X30260Y4417D01*
X30265Y4417D01*
Y3247D01*
X30109Y3166D01*
X30069Y3196D01*
X30079Y3245D01*
X30063Y3323D01*
X30019Y3389D01*
X29953Y3433D01*
X29875Y3449D01*
X29797Y3433D01*
X29731Y3389D01*
X29686Y3323D01*
X29671Y3245D01*
X29686Y3167D01*
X29731Y3101D01*
X29797Y3056D01*
X29804Y3008D01*
X28840Y2511D01*
X28840Y2511D01*
X28840Y2511D01*
X28795Y2533D01*
X28783Y2593D01*
X28739Y2659D01*
X28673Y2703D01*
X28595Y2719D01*
X28517Y2703D01*
X28451Y2659D01*
X28406Y2593D01*
X28391Y2515D01*
X28406Y2437D01*
X28451Y2371D01*
X28517Y2326D01*
X28532Y2323D01*
X28546Y2275D01*
X27748Y1484D01*
X27704Y1507D01*
X27705Y1515D01*
X27690Y1593D01*
X27646Y1659D01*
X27579Y1703D01*
X27501Y1718D01*
X27423Y1703D01*
X27357Y1659D01*
X27313Y1593D01*
X27297Y1515D01*
X27313Y1437D01*
X27357Y1370D01*
X27423Y1326D01*
X27501Y1311D01*
X27505Y1311D01*
X27511Y1305D01*
X27537Y1272D01*
X27321Y835D01*
X27271Y841D01*
X27263Y883D01*
X27219Y949D01*
X27153Y993D01*
X27075Y1009D01*
X26997Y993D01*
X26931Y949D01*
X26886Y883D01*
X26871Y805D01*
X26886Y727D01*
X26931Y661D01*
X26997Y616D01*
X27075Y601D01*
X27153Y616D01*
X27163Y623D01*
X27200Y590D01*
X26891Y-36D01*
X26842Y-30D01*
X26833Y13D01*
X26789Y79D01*
X26723Y123D01*
X26645Y139D01*
X26567Y123D01*
X26501Y79D01*
X26456Y13D01*
X26441Y-65D01*
X26456Y-143D01*
X26501Y-209D01*
X26524Y-225D01*
X26510Y-273D01*
X18865D01*
Y4187D01*
X18869Y4187D01*
X18939Y4216D01*
X18998Y4262D01*
X19044Y4321D01*
X19072Y4390D01*
X19082Y4465D01*
X19072Y4539D01*
X19044Y4609D01*
X18998Y4668D01*
X18939Y4714D01*
X18900Y4730D01*
X18906Y4779D01*
X18943Y4784D01*
X19050Y4770D01*
X19149Y4729D01*
X19198Y4692D01*
Y1830D01*
X19198Y1830D01*
X19198D01*
X19207Y1783D01*
X19233Y1743D01*
X20501Y475D01*
X20506Y465D01*
X20514Y422D01*
X20549Y369D01*
X20602Y334D01*
X20665Y322D01*
X20727Y334D01*
X20764Y358D01*
X20773Y362D01*
X21025D01*
X21072Y372D01*
X21111Y398D01*
X21111Y398D01*
X21111Y398D01*
X21585Y872D01*
X25305D01*
X25352Y882D01*
X25391Y908D01*
X29004Y4521D01*
X29057Y4510D01*
X29069Y4448D01*
X29105Y4395D01*
X29158Y4359D01*
X29220Y4347D01*
X29282Y4359D01*
X29335Y4395D01*
X29371Y4448D01*
X29383Y4510D01*
X29371Y4572D01*
X29335Y4625D01*
X29282Y4661D01*
X29220Y4673D01*
X29209Y4726D01*
X29645Y5162D01*
X29934D01*
X29936Y5160D01*
D02*
G37*
G36*
X18396Y4930D02*
Y4930D01*
X18396D01*
D01*
D01*
X18397Y4930D01*
X18397Y4930D01*
D01*
X18403Y4931D01*
X18468Y4923D01*
X18534Y4895D01*
X18591Y4851D01*
X18592Y4852D01*
X18651Y4806D01*
X18702Y4785D01*
Y4735D01*
X18651Y4714D01*
X18592Y4668D01*
X18546Y4609D01*
X18517Y4539D01*
X18507Y4465D01*
X18517Y4390D01*
X18546Y4321D01*
X18592Y4262D01*
X18651Y4216D01*
X18720Y4187D01*
X18735Y4185D01*
Y3246D01*
X17195Y2457D01*
X17155Y2487D01*
X17169Y2555D01*
X17153Y2633D01*
X17109Y2699D01*
X17043Y2743D01*
X16965Y2759D01*
X16887Y2743D01*
X16821Y2699D01*
X16776Y2633D01*
X16761Y2555D01*
X16776Y2477D01*
X16821Y2411D01*
X16887Y2366D01*
X16965Y2351D01*
X17028Y2364D01*
X17052Y2319D01*
X16009Y1277D01*
X15763Y784D01*
X15714Y791D01*
X15703Y843D01*
X15659Y909D01*
X15593Y953D01*
X15515Y969D01*
X15437Y953D01*
X15371Y909D01*
X15326Y843D01*
X15311Y765D01*
X15326Y687D01*
X15371Y621D01*
X15437Y576D01*
X15515Y561D01*
X15593Y576D01*
X15611Y589D01*
X15649Y556D01*
X15234Y-273D01*
X7335D01*
Y407D01*
X7339Y407D01*
X7409Y436D01*
X7468Y482D01*
X7514Y541D01*
X7542Y610D01*
X7552Y685D01*
X7542Y759D01*
X7514Y829D01*
X7468Y888D01*
X7409Y934D01*
X7339Y962D01*
X7335Y963D01*
Y4417D01*
X7339Y4417D01*
X7365Y4428D01*
D01*
D01*
X7365D01*
X7365D01*
Y4428D01*
X7365Y4428D01*
X7366Y4428D01*
X7376Y4430D01*
X7376Y4430D01*
X7378Y4431D01*
X7377Y4432D01*
D01*
D01*
X7379Y4433D01*
X7466Y4450D01*
X7552Y4433D01*
X7588Y4409D01*
Y1750D01*
X7588Y1750D01*
X7588D01*
X7597Y1703D01*
X7623Y1663D01*
X8892Y394D01*
Y248D01*
X8892D01*
X8892Y243D01*
Y95D01*
X8896Y77D01*
X8892Y55D01*
X8904Y-8D01*
X8939Y-61D01*
X8992Y-96D01*
X9055Y-108D01*
X9117Y-96D01*
X9154Y-72D01*
X9163Y-68D01*
X9255D01*
X9302Y-58D01*
X9341Y-32D01*
X9691Y318D01*
X13260D01*
X13307Y327D01*
X13347Y353D01*
X15903Y2910D01*
X15941Y2878D01*
Y2878D01*
X15941D01*
X15914Y2837D01*
X15902Y2775D01*
X15914Y2712D01*
X15949Y2659D01*
X16002Y2624D01*
X16065Y2612D01*
X16127Y2624D01*
X16180Y2659D01*
X16216Y2712D01*
X16228Y2775D01*
X16216Y2837D01*
X16180Y2890D01*
X16127Y2926D01*
X16065Y2938D01*
X16002Y2926D01*
X15962Y2898D01*
X15936Y2930D01*
X15930Y2937D01*
X17487Y4494D01*
X17535Y4480D01*
X17539Y4458D01*
X17575Y4405D01*
X17628Y4369D01*
X17690Y4357D01*
X17752Y4369D01*
X17805Y4405D01*
X17841Y4458D01*
X17853Y4520D01*
X17841Y4582D01*
X17805Y4635D01*
X17752Y4671D01*
X17730Y4675D01*
X17716Y4723D01*
X17925Y4932D01*
X18394D01*
X18396Y4930D01*
D02*
G37*
G36*
X17872Y13744D02*
Y13514D01*
X17846Y13496D01*
X17828Y13487D01*
X17777Y13521D01*
X17715Y13533D01*
X17652Y13521D01*
X17599Y13485D01*
X17564Y13432D01*
X17556Y13390D01*
X17551Y13380D01*
X15229Y11057D01*
X11475D01*
X11428Y11048D01*
X11388Y11021D01*
X10057Y9690D01*
X10056Y9691D01*
X10049Y9682D01*
X9921Y9554D01*
X9921Y9554D01*
Y9554D01*
X9918Y9551D01*
X9914Y9545D01*
X9894Y9519D01*
X9874Y9526D01*
X9848Y9538D01*
X9864Y9621D01*
X9914Y9695D01*
X9920Y9699D01*
X9956Y9752D01*
X9968Y9815D01*
X9956Y9877D01*
X9920Y9930D01*
X9867Y9966D01*
X9805Y9978D01*
X9742Y9966D01*
X9689Y9930D01*
X9685Y9923D01*
X9642Y9868D01*
X9612Y9796D01*
X9608Y9764D01*
X9604Y9743D01*
X9602Y9735D01*
Y9720D01*
X9602Y9718D01*
X9602D01*
Y9539D01*
X9601Y9525D01*
X9602D01*
Y9305D01*
X9602Y9305D01*
X9602D01*
X9612Y9258D01*
X9638Y9218D01*
X9798Y9058D01*
X9838Y9032D01*
X9885Y9022D01*
X10615D01*
X10662Y9032D01*
X10701Y9058D01*
X11415Y9772D01*
X16794D01*
X17148Y9418D01*
X17148D01*
X17148Y9418D01*
X17148Y9418D01*
Y9418D01*
X17188Y9392D01*
X17235Y9382D01*
X17450D01*
X17492Y9354D01*
X17555Y9342D01*
X17617Y9354D01*
X17670Y9389D01*
X17706Y9442D01*
X17718Y9505D01*
X17706Y9567D01*
X17670Y9620D01*
X17617Y9656D01*
X17555Y9668D01*
X17492Y9656D01*
X17490Y9654D01*
X17455Y9690D01*
X17473Y9717D01*
X17489Y9795D01*
X17473Y9873D01*
X17472Y9875D01*
X17491Y9921D01*
X17507Y9924D01*
X17560Y9959D01*
X17596Y10012D01*
X17608Y10075D01*
X17596Y10137D01*
X17560Y10190D01*
X17507Y10226D01*
X17445Y10238D01*
X17382Y10226D01*
X17346Y10201D01*
X17336Y10197D01*
X11255D01*
X11254Y10197D01*
X11254Y10197D01*
X11254D01*
X11230Y10197D01*
X11220Y10248D01*
X11275Y10302D01*
X17526D01*
X17536Y10298D01*
X17572Y10274D01*
X17635Y10262D01*
X17697Y10274D01*
X17750Y10309D01*
X17786Y10362D01*
X17798Y10425D01*
X17786Y10487D01*
X17750Y10540D01*
X17697Y10576D01*
X17635Y10588D01*
X17572Y10576D01*
X17536Y10551D01*
X17526Y10547D01*
X11326D01*
X11306Y10593D01*
X11525Y10812D01*
X15280D01*
X15326Y10822D01*
X15366Y10848D01*
X17725Y13207D01*
X17734Y13211D01*
X17777Y13219D01*
X17828Y13253D01*
X17846Y13244D01*
X17872Y13226D01*
Y9105D01*
X17882Y9058D01*
X17908Y9018D01*
X18068Y8858D01*
X18066Y8857D01*
X18087Y8840D01*
X18205Y8722D01*
X18204Y8721D01*
X18217Y8710D01*
X18341Y8585D01*
X18341Y8585D01*
X18347Y8580D01*
X18478Y8449D01*
X18478Y8449D01*
X18477Y8448D01*
X18486Y8441D01*
X18498Y8428D01*
X18527Y8409D01*
X18528Y8409D01*
X18528Y8407D01*
X18531Y8406D01*
X18532Y8406D01*
X18546Y8371D01*
X18592Y8312D01*
X18651Y8266D01*
X18720Y8237D01*
X18735Y8235D01*
Y7932D01*
X7335D01*
Y8007D01*
X7339Y8007D01*
X7409Y8036D01*
X7468Y8082D01*
X7514Y8141D01*
X7524Y8166D01*
X7531Y8172D01*
X7532Y8172D01*
X7571Y8198D01*
X7590Y8217D01*
X7600Y8225D01*
X7599Y8226D01*
X7599Y8226D01*
X7729Y8356D01*
X7736Y8362D01*
X7735Y8362D01*
X7859Y8486D01*
X7873Y8498D01*
X7872Y8499D01*
X8001Y8627D01*
X8009Y8635D01*
X8009Y8636D01*
X9078Y9705D01*
X9131Y9695D01*
X9146Y9617D01*
X9191Y9551D01*
X9257Y9506D01*
X9335Y9491D01*
X9413Y9506D01*
X9479Y9551D01*
X9523Y9617D01*
X9539Y9695D01*
X9523Y9773D01*
X9479Y9839D01*
X9413Y9883D01*
X9335Y9899D01*
X9324Y9951D01*
X13355Y13982D01*
X15985D01*
X15986Y13983D01*
X15987Y13982D01*
X16009Y13987D01*
X16032Y13992D01*
X16032Y13992D01*
X16033Y13992D01*
X16052Y14005D01*
X16071Y14018D01*
X16072Y14019D01*
X16073Y14020D01*
X16386Y14342D01*
X17274D01*
X17872Y13744D01*
D02*
G37*
G36*
X30265Y10923D02*
X30260Y10922D01*
X30191Y10894D01*
X30132Y10848D01*
X30086Y10789D01*
X30057Y10719D01*
X30047Y10645D01*
X30057Y10570D01*
X30086Y10501D01*
X30132Y10442D01*
X30191Y10396D01*
X30260Y10367D01*
X30265Y10367D01*
Y9788D01*
X30228Y9754D01*
X30145Y9762D01*
X30023Y9799D01*
X29910Y9860D01*
X29847Y9911D01*
Y13245D01*
X29838Y13292D01*
X29811Y13331D01*
X28671Y14471D01*
X28632Y14498D01*
X28585Y14507D01*
X28422D01*
Y14507D01*
X28422Y14507D01*
X28399Y14516D01*
X28398Y14518D01*
X28337Y14559D01*
X28265Y14573D01*
X28193Y14559D01*
X28131Y14518D01*
X28130Y14516D01*
X28108Y14507D01*
X28108Y14507D01*
Y14507D01*
Y14507D01*
X27915D01*
X27868Y14498D01*
X27828Y14471D01*
X27434Y14077D01*
X23975D01*
X23975Y14077D01*
X23975Y14077D01*
X23951Y14072D01*
X23928Y14068D01*
X23928Y14068D01*
X23928Y14068D01*
X23908Y14054D01*
X23888Y14041D01*
X23888Y14041D01*
X23888Y14041D01*
X20076Y10220D01*
X20023Y10230D01*
X20011Y10292D01*
X19975Y10345D01*
X19922Y10381D01*
X19860Y10393D01*
X19798Y10381D01*
X19745Y10345D01*
X19709Y10292D01*
X19697Y10230D01*
X19709Y10168D01*
X19745Y10115D01*
X19798Y10079D01*
X19860Y10067D01*
X19871Y10014D01*
X19674Y9817D01*
X19193D01*
Y9819D01*
X19186Y9818D01*
X19122Y9827D01*
X19055Y9854D01*
X18998Y9898D01*
X18998Y9898D01*
X18939Y9944D01*
X18869Y9972D01*
X18865Y9973D01*
Y10597D01*
X18869Y10597D01*
X18939Y10626D01*
X18998Y10672D01*
X19044Y10731D01*
X19072Y10800D01*
X19082Y10875D01*
X19072Y10949D01*
X19044Y11019D01*
X18998Y11078D01*
X18939Y11124D01*
X18869Y11152D01*
X18865Y11153D01*
Y11513D01*
X20417Y12299D01*
X20433Y12316D01*
X20472Y12284D01*
X20461Y12267D01*
X20446Y12195D01*
X20461Y12123D01*
X20501Y12061D01*
X20563Y12021D01*
X20635Y12006D01*
X20707Y12021D01*
X20768Y12061D01*
X20809Y12123D01*
X20823Y12195D01*
X20809Y12267D01*
X20768Y12328D01*
X20707Y12369D01*
X20635Y12383D01*
X20563Y12369D01*
X20546Y12358D01*
X20514Y12396D01*
X21590Y13473D01*
X22365Y15023D01*
X30265D01*
Y10923D01*
D02*
G37*
G36*
X41703Y7932D02*
X39309D01*
X39290Y7978D01*
X39820Y8508D01*
X39855Y8560D01*
X39868Y8623D01*
Y10320D01*
X39855Y10383D01*
X39820Y10436D01*
X39591Y10664D01*
X39584Y10703D01*
X39539Y10769D01*
X39473Y10813D01*
X39435Y10821D01*
X39324Y10932D01*
X39330Y11847D01*
X39318Y11909D01*
X39283Y11963D01*
X39283Y11963D01*
X38992Y12257D01*
X38983Y12303D01*
X38939Y12369D01*
X38873Y12413D01*
X38795Y12429D01*
X38717Y12413D01*
X38651Y12369D01*
X38606Y12303D01*
X38591Y12225D01*
X38606Y12147D01*
X38651Y12081D01*
X38717Y12036D01*
X38760Y12028D01*
X39003Y11782D01*
X38997Y10866D01*
X38997Y10865D01*
X38997Y10865D01*
X39003Y10834D01*
X39009Y10803D01*
X39009Y10803D01*
X39009Y10802D01*
X39027Y10776D01*
X39044Y10750D01*
X39044Y10750D01*
X39045Y10749D01*
X39197Y10597D01*
X39207Y10547D01*
X39220Y10527D01*
X39211Y10478D01*
X39169Y10450D01*
X39134Y10397D01*
X39122Y10335D01*
X39134Y10272D01*
X39169Y10219D01*
X39222Y10184D01*
X39285Y10172D01*
X39347Y10184D01*
X39400Y10219D01*
X39436Y10272D01*
X39439Y10292D01*
X39487Y10307D01*
X39541Y10253D01*
Y8690D01*
X39072Y8221D01*
X38249D01*
X38211Y8246D01*
X38133Y8262D01*
X38055Y8246D01*
X37989Y8202D01*
X37945Y8136D01*
X37929Y8058D01*
X37945Y7980D01*
X37947Y7976D01*
X37924Y7932D01*
X35294D01*
X35274Y7962D01*
X35266Y7976D01*
X35301Y8028D01*
X35313Y8090D01*
X35301Y8152D01*
X35265Y8205D01*
X35212Y8241D01*
X35150Y8253D01*
X35088Y8241D01*
X35035Y8205D01*
X34999Y8152D01*
X34987Y8090D01*
X34999Y8028D01*
X35034Y7976D01*
X35026Y7962D01*
X35006Y7932D01*
X30405D01*
Y8597D01*
X30409Y8597D01*
X30479Y8626D01*
X30538Y8672D01*
X30584Y8731D01*
X30594Y8756D01*
X30601Y8762D01*
X30602Y8762D01*
X30641Y8788D01*
X30660Y8807D01*
X30670Y8815D01*
X30669Y8816D01*
X30669Y8816D01*
X30799Y8946D01*
X30806Y8952D01*
Y8952D01*
Y8953D01*
X30929Y9076D01*
X30943Y9088D01*
X30942Y9089D01*
X31071Y9217D01*
X31079Y9225D01*
Y9225D01*
Y9226D01*
X31291Y9438D01*
X31339Y9424D01*
X31346Y9387D01*
X31391Y9321D01*
X31457Y9276D01*
X31535Y9261D01*
X31613Y9276D01*
X31679Y9321D01*
X31723Y9387D01*
X31739Y9465D01*
X31723Y9543D01*
X31679Y9609D01*
X31613Y9653D01*
X31576Y9661D01*
X31561Y9708D01*
X34931Y13078D01*
X36179D01*
X36617Y12640D01*
X36621Y12630D01*
X36629Y12588D01*
X36665Y12535D01*
X36718Y12499D01*
X36780Y12487D01*
X36842Y12499D01*
X36895Y12535D01*
X36931Y12588D01*
X36943Y12650D01*
X36931Y12712D01*
X36895Y12765D01*
X36842Y12801D01*
X36800Y12809D01*
X36790Y12813D01*
X36372Y13231D01*
X36391Y13278D01*
X36534D01*
X36617Y13195D01*
X36621Y13185D01*
X36629Y13142D01*
X36665Y13089D01*
X36718Y13054D01*
X36780Y13042D01*
X36842Y13054D01*
X36895Y13089D01*
X36931Y13142D01*
X36943Y13205D01*
X36931Y13267D01*
X36895Y13320D01*
X36842Y13356D01*
X36800Y13364D01*
X36790Y13368D01*
X36671Y13487D01*
X36632Y13513D01*
X36585Y13522D01*
X34840D01*
X34793Y13513D01*
X34753Y13487D01*
X33253Y11986D01*
X33205Y12000D01*
X33196Y12047D01*
X33160Y12100D01*
X33107Y12136D01*
X33045Y12148D01*
X32982Y12136D01*
X32929Y12100D01*
X32894Y12047D01*
X32882Y11985D01*
X32894Y11922D01*
X32929Y11869D01*
X32982Y11834D01*
X33029Y11825D01*
X33044Y11777D01*
X31588Y10321D01*
X31538Y10326D01*
X31525Y10345D01*
X31472Y10381D01*
X31410Y10393D01*
X31348Y10381D01*
X31295Y10345D01*
X31259Y10292D01*
X31247Y10230D01*
X31259Y10168D01*
X31295Y10115D01*
X31314Y10102D01*
X31319Y10052D01*
X30854Y9587D01*
X30735D01*
X30733Y9589D01*
Y9589D01*
X30733D01*
D01*
D01*
X30733Y9589D01*
Y9589D01*
X30726Y9588D01*
X30662Y9597D01*
X30595Y9624D01*
X30538Y9668D01*
X30538Y9668D01*
X30479Y9714D01*
X30409Y9742D01*
X30405Y9743D01*
Y10367D01*
X30409Y10367D01*
X30479Y10396D01*
X30538Y10442D01*
X30584Y10501D01*
X30612Y10570D01*
X30622Y10645D01*
X30612Y10719D01*
X30584Y10789D01*
X30538Y10848D01*
X30479Y10894D01*
X30409Y10922D01*
X30405Y10923D01*
Y11372D01*
X30449Y11395D01*
X30458Y11389D01*
X30510Y11379D01*
X30501Y11335D01*
X30516Y11257D01*
X30561Y11191D01*
X30627Y11146D01*
X30705Y11131D01*
X30783Y11146D01*
X30849Y11191D01*
X30893Y11257D01*
X30909Y11335D01*
X30893Y11413D01*
X30849Y11479D01*
X30783Y11523D01*
X30705Y11539D01*
X30705D01*
X30683Y11540D01*
X30671Y11602D01*
X30669Y11606D01*
X30681Y11654D01*
X31935Y12293D01*
X31974Y12263D01*
X31961Y12195D01*
X31976Y12117D01*
X32021Y12051D01*
X32087Y12006D01*
X32165Y11991D01*
X32243Y12006D01*
X32309Y12051D01*
X32353Y12117D01*
X32369Y12195D01*
X32353Y12273D01*
X32309Y12339D01*
X32243Y12383D01*
X32165Y12399D01*
X32101Y12386D01*
X32078Y12430D01*
X33120Y13473D01*
X33895Y15023D01*
X41703D01*
Y7932D01*
D02*
G37*
G36*
X29442Y13114D02*
Y9624D01*
X29393Y9619D01*
X29389Y9637D01*
X29348Y9698D01*
X29287Y9739D01*
X29215Y9753D01*
X29143Y9739D01*
X29081Y9698D01*
X29041Y9637D01*
X29026Y9565D01*
X29041Y9493D01*
X29081Y9431D01*
X29143Y9391D01*
X29215Y9376D01*
X29287Y9391D01*
X29348Y9431D01*
X29389Y9493D01*
X29393Y9511D01*
X29442Y9506D01*
Y9425D01*
X29442Y9425D01*
X29442D01*
X29452Y9378D01*
X29478Y9338D01*
X29591Y9226D01*
X29590Y9225D01*
X29599Y9217D01*
X29728Y9089D01*
X29726Y9088D01*
X29740Y9076D01*
X29864Y8952D01*
X29864Y8952D01*
X29870Y8946D01*
X30001Y8816D01*
D01*
X30000Y8815D01*
X30010Y8807D01*
X30028Y8788D01*
X30068Y8762D01*
X30068Y8762D01*
X30068Y8762D01*
D01*
X30068Y8762D01*
X30068Y8762D01*
X30069Y8762D01*
X30075Y8756D01*
X30086Y8731D01*
X30132Y8672D01*
X30191Y8626D01*
X30260Y8597D01*
X30265Y8597D01*
Y7932D01*
X28757D01*
X28733Y7976D01*
X28761Y8018D01*
X28773Y8080D01*
X28761Y8142D01*
X28725Y8195D01*
X28672Y8231D01*
X28610Y8243D01*
X28548Y8231D01*
X28495Y8195D01*
X28459Y8142D01*
X28447Y8080D01*
X28459Y8018D01*
X28487Y7976D01*
X28463Y7932D01*
X28149D01*
X28145Y7974D01*
X28145D01*
X28144Y7982D01*
X28182Y7989D01*
X28235Y8025D01*
X28271Y8078D01*
X28283Y8140D01*
X28271Y8202D01*
X28235Y8255D01*
X28182Y8291D01*
X28120Y8303D01*
X28058Y8291D01*
X28005Y8255D01*
X27969Y8202D01*
X27957Y8140D01*
X27969Y8078D01*
X28005Y8025D01*
X28058Y7989D01*
X28096Y7982D01*
X28095Y7974D01*
X28095D01*
X28091Y7932D01*
X27639D01*
X27635Y7974D01*
X27635D01*
X27634Y7982D01*
X27672Y7989D01*
X27725Y8025D01*
X27761Y8078D01*
X27773Y8140D01*
X27761Y8202D01*
X27725Y8255D01*
X27672Y8291D01*
X27610Y8303D01*
X27548Y8291D01*
X27495Y8255D01*
X27459Y8202D01*
X27447Y8140D01*
X27459Y8078D01*
X27495Y8025D01*
X27548Y7989D01*
X27586Y7982D01*
X27585Y7974D01*
X27585D01*
X27581Y7932D01*
X18865D01*
Y8237D01*
X18869Y8237D01*
X18939Y8266D01*
X18998Y8312D01*
X19044Y8371D01*
X19054Y8396D01*
X19061Y8402D01*
X19062Y8402D01*
X19101Y8428D01*
X19120Y8447D01*
X19130Y8455D01*
X19129Y8456D01*
X19129Y8456D01*
X19259Y8586D01*
X19266Y8592D01*
Y8592D01*
Y8593D01*
X19389Y8716D01*
X19403Y8728D01*
Y8728D01*
Y8730D01*
X19531Y8857D01*
X19539Y8865D01*
Y8865D01*
Y8866D01*
X20463Y9790D01*
X20507Y9766D01*
X20501Y9735D01*
X20516Y9657D01*
X20561Y9591D01*
X20627Y9546D01*
X20705Y9531D01*
X20783Y9546D01*
X20849Y9591D01*
X20893Y9657D01*
X20909Y9735D01*
X20893Y9813D01*
X20849Y9879D01*
X20783Y9923D01*
X20705Y9939D01*
X20673Y9932D01*
X20650Y9977D01*
X24185Y13512D01*
X27195D01*
X27218Y13468D01*
X27204Y13447D01*
X27192Y13385D01*
X27199Y13346D01*
X27168Y13307D01*
X24255D01*
X24208Y13298D01*
X24168Y13271D01*
X21113Y10217D01*
X21087Y10177D01*
X21078Y10130D01*
Y9580D01*
X21087Y9533D01*
X21113Y9493D01*
X21214Y9392D01*
X21213Y9391D01*
X21223Y9384D01*
X21351Y9256D01*
Y9256D01*
X21351Y9256D01*
X21351Y9256D01*
X21351Y9256D01*
D01*
D01*
D01*
D01*
X21351Y9256D01*
X21353Y9253D01*
X21360Y9249D01*
X21366Y9245D01*
X21364Y9195D01*
X21335Y9175D01*
X21299Y9122D01*
X21287Y9060D01*
X21299Y8998D01*
X21335Y8945D01*
X21388Y8909D01*
X21450Y8897D01*
X21512Y8909D01*
X21565Y8945D01*
X21601Y8998D01*
X21613Y9060D01*
X21601Y9122D01*
X21587Y9142D01*
X21602Y9189D01*
X21602D01*
X21602Y9189D01*
X21602D01*
X21602D01*
D01*
X21655Y9225D01*
X21691Y9278D01*
X21703Y9340D01*
X21691Y9402D01*
X21685Y9412D01*
X21687Y9417D01*
X21727Y9443D01*
X21840Y9557D01*
X21850Y9561D01*
X21892Y9569D01*
X21945Y9605D01*
X21981Y9658D01*
X21993Y9720D01*
X21981Y9782D01*
X21945Y9835D01*
X21908Y9860D01*
X21903Y9910D01*
X22175Y10182D01*
X29106D01*
X29116Y10178D01*
X29152Y10154D01*
X29215Y10142D01*
X29277Y10154D01*
X29330Y10189D01*
X29366Y10242D01*
X29378Y10305D01*
X29366Y10367D01*
X29330Y10420D01*
Y10469D01*
X29366Y10522D01*
X29378Y10585D01*
X29366Y10647D01*
X29330Y10700D01*
X29277Y10736D01*
X29215Y10748D01*
X29152Y10736D01*
X29116Y10711D01*
X29106Y10707D01*
X27536D01*
X27521Y10755D01*
X27565Y10785D01*
X27601Y10838D01*
X27613Y10900D01*
X27601Y10962D01*
X27565Y11015D01*
X27512Y11051D01*
X27450Y11063D01*
X27388Y11051D01*
X27335Y11015D01*
X27299Y10962D01*
X27287Y10900D01*
X27299Y10838D01*
X27335Y10785D01*
X27379Y10755D01*
X27364Y10707D01*
X22145D01*
X22098Y10698D01*
X22058Y10671D01*
X21369Y9982D01*
X21322Y10001D01*
Y10079D01*
X24305Y13062D01*
X28468D01*
D01*
Y13062D01*
X28468Y13062D01*
X28468D01*
D01*
D01*
X28468Y13062D01*
X28490Y13053D01*
X28491Y13051D01*
X28553Y13011D01*
X28625Y12996D01*
X28697Y13011D01*
X28758Y13051D01*
X28799Y13113D01*
X28813Y13185D01*
X28799Y13257D01*
X28758Y13318D01*
X28697Y13359D01*
X28625Y13373D01*
X28565Y13362D01*
X28530Y13397D01*
X28533Y13415D01*
X28522Y13474D01*
X28553Y13512D01*
X29044D01*
X29442Y13114D01*
D02*
G37*
G36*
X7179Y11508D02*
X7121Y11484D01*
X7062Y11438D01*
X7016Y11379D01*
X6987Y11309D01*
X6977Y11235D01*
X6987Y11160D01*
X7016Y11091D01*
X7062Y11032D01*
X7121Y10986D01*
X7179Y10962D01*
Y10328D01*
X7121Y10304D01*
X7062Y10258D01*
X7016Y10199D01*
X6987Y10129D01*
X6980Y10072D01*
X6893Y9985D01*
X6886Y9980D01*
X6887Y9979D01*
X6794Y9887D01*
X6782Y9877D01*
X6783Y9876D01*
X6783Y9876D01*
X6757Y9836D01*
X6748Y9789D01*
Y8059D01*
X6744Y8049D01*
X6719Y8012D01*
X6674Y7999D01*
X6141Y8532D01*
X6101Y8559D01*
X6054Y8568D01*
X5826D01*
X5794Y8607D01*
X5798Y8625D01*
X5786Y8687D01*
X5750Y8740D01*
X5697Y8776D01*
X5635Y8788D01*
X5572Y8776D01*
X5536Y8751D01*
X5526Y8747D01*
X5496D01*
X5476Y8793D01*
X5645Y8961D01*
X5654Y8966D01*
X5697Y8974D01*
X5750Y9009D01*
X5786Y9062D01*
X5798Y9125D01*
X5786Y9187D01*
X5750Y9240D01*
X5697Y9276D01*
X5642Y9287D01*
X5634Y9314D01*
X5659Y9357D01*
X5697Y9364D01*
X5750Y9399D01*
X5786Y9452D01*
X5798Y9515D01*
X5786Y9577D01*
X5750Y9630D01*
X5697Y9666D01*
X5635Y9678D01*
X5572Y9666D01*
X5519Y9630D01*
X5484Y9577D01*
X5476Y9534D01*
X5471Y9525D01*
X4972Y9025D01*
X4228D01*
X4167Y9087D01*
X4127Y9113D01*
X4080Y9122D01*
X4033Y9113D01*
X4017Y9102D01*
X3504D01*
X3485Y9148D01*
X3585Y9248D01*
X3747D01*
X3763Y9237D01*
X3810Y9228D01*
X4550D01*
X4597Y9237D01*
X4637Y9263D01*
X4774Y9401D01*
X4819Y9388D01*
X4855Y9335D01*
X4908Y9299D01*
X4970Y9287D01*
X5032Y9299D01*
X5085Y9335D01*
X5121Y9388D01*
X5133Y9450D01*
X5133Y9450D01*
X5133Y9450D01*
D01*
X5130Y9467D01*
D01*
X5192Y9479D01*
X5245Y9515D01*
X5281Y9568D01*
X5293Y9630D01*
D01*
D01*
X5332Y9659D01*
X5332D01*
X5385Y9695D01*
X5421Y9748D01*
X5433Y9810D01*
X5421Y9872D01*
X5385Y9925D01*
X5366Y9938D01*
X5361Y9988D01*
X5475Y10102D01*
X5526D01*
X5536Y10098D01*
X5572Y10074D01*
X5635Y10062D01*
X5697Y10074D01*
X5750Y10109D01*
X5786Y10162D01*
X5798Y10225D01*
X5786Y10287D01*
X5750Y10340D01*
X5697Y10376D01*
X5635Y10388D01*
X5631Y10387D01*
X5608Y10431D01*
X5635Y10459D01*
X5644Y10463D01*
X5644Y10463D01*
X5645Y10464D01*
X5697Y10474D01*
X5750Y10509D01*
X5786Y10562D01*
X5798Y10625D01*
X5786Y10687D01*
X5750Y10740D01*
X5725Y10757D01*
X5720Y10807D01*
X5721Y10808D01*
X5737Y10832D01*
X5748Y10848D01*
X5757Y10895D01*
Y11016D01*
X5761Y11026D01*
X5786Y11062D01*
X5798Y11125D01*
X5786Y11187D01*
X5750Y11240D01*
X5736Y11250D01*
X5726Y11299D01*
X5737Y11315D01*
X5748Y11331D01*
X5757Y11378D01*
Y11546D01*
X5761Y11556D01*
X5786Y11592D01*
X5798Y11655D01*
X5786Y11717D01*
X5750Y11770D01*
X5697Y11806D01*
X5647Y11815D01*
Y12016D01*
X5651Y12026D01*
X5676Y12062D01*
X5688Y12125D01*
X5676Y12187D01*
X5640Y12240D01*
X5640Y12240D01*
X5640D01*
X5627Y12279D01*
D01*
X5627Y12279D01*
X5680Y12315D01*
X5716Y12368D01*
X5728Y12430D01*
X5716Y12492D01*
X5680Y12545D01*
X5680Y12545D01*
X5680D01*
X5670Y12569D01*
X5670Y12569D01*
X5706Y12622D01*
X5718Y12685D01*
X5706Y12747D01*
X5670Y12800D01*
Y12819D01*
X5706Y12872D01*
X5718Y12935D01*
X5706Y12997D01*
X5670Y13050D01*
Y13050D01*
D01*
X5680Y13064D01*
X5680Y13064D01*
X5680D01*
X5698Y13091D01*
X5701Y13093D01*
X5728Y13133D01*
X5737Y13180D01*
X5728Y13226D01*
X5701Y13266D01*
X5698Y13268D01*
X5680Y13295D01*
Y13319D01*
X5716Y13372D01*
X5728Y13435D01*
X5716Y13497D01*
X5680Y13550D01*
Y13569D01*
X5716Y13622D01*
X5728Y13685D01*
X5716Y13747D01*
X5680Y13800D01*
X5627Y13836D01*
X5565Y13848D01*
X5502Y13836D01*
X5466Y13811D01*
X5456Y13807D01*
X5051D01*
X5004Y13798D01*
X4964Y13771D01*
X1768Y10575D01*
X1758Y10571D01*
X1715Y10563D01*
X1662Y10527D01*
X1627Y10474D01*
X1615Y10412D01*
X1627Y10349D01*
X1662Y10296D01*
X1715Y10261D01*
X1778Y10249D01*
X1840Y10261D01*
X1893Y10296D01*
X1918D01*
X1971Y10261D01*
X2034Y10249D01*
X2096Y10261D01*
X2149Y10296D01*
X2174D01*
X2227Y10261D01*
X2290Y10249D01*
X2352Y10261D01*
X2372Y10274D01*
X2421Y10264D01*
X2430Y10250D01*
X2483Y10215D01*
X2545Y10202D01*
X2608Y10215D01*
X2661Y10250D01*
X2696Y10303D01*
X2709Y10365D01*
X2696Y10428D01*
X2661Y10481D01*
X2616Y10511D01*
X2611Y10560D01*
X4613Y12562D01*
X5408D01*
X5431Y12518D01*
X5414Y12492D01*
X5402Y12430D01*
X5414Y12368D01*
X5449Y12315D01*
X5449Y12315D01*
X5449D01*
X5462Y12276D01*
X5409Y12240D01*
X5374Y12187D01*
X5362Y12125D01*
X5374Y12062D01*
X5398Y12026D01*
X5402Y12016D01*
Y11877D01*
X5355Y11845D01*
Y11845D01*
X5302Y11881D01*
X5240Y11893D01*
X5178Y11881D01*
X5125Y11845D01*
X5089Y11792D01*
X5077Y11730D01*
X5089Y11668D01*
X5125Y11615D01*
X5125Y11615D01*
X5094Y11537D01*
X5094Y11537D01*
X5094Y11537D01*
X5082Y11475D01*
X5094Y11412D01*
X5129Y11359D01*
X5155Y11343D01*
X5160Y11293D01*
X4119Y10252D01*
X3540D01*
X3493Y10243D01*
X3491Y10241D01*
X3442Y10251D01*
X3425Y10275D01*
X3372Y10311D01*
X3310Y10323D01*
X3248Y10311D01*
X3195Y10275D01*
X3159Y10222D01*
X3147Y10160D01*
X3159Y10098D01*
X3195Y10045D01*
X3231Y10020D01*
X3236Y9970D01*
X3065Y9800D01*
X3043Y9766D01*
X3035Y9727D01*
Y9514D01*
X2944Y9423D01*
X2941Y9423D01*
Y9423D01*
X2935Y9420D01*
X2929Y9418D01*
Y9417D01*
X2871Y9405D01*
X2821Y9372D01*
X2788Y9322D01*
X2776Y9264D01*
X2779Y9253D01*
X2747Y9214D01*
X2600D01*
X2568Y9253D01*
X2571Y9264D01*
X2559Y9323D01*
X2526Y9372D01*
X2476Y9405D01*
X2418Y9417D01*
X2359Y9405D01*
X2310Y9372D01*
X2276Y9323D01*
X2265Y9264D01*
X2267Y9253D01*
X2235Y9214D01*
X1586D01*
X1464Y9336D01*
X1431Y9358D01*
X1392Y9366D01*
X1005D01*
X1003Y9368D01*
X1003Y9368D01*
D01*
D01*
X1003Y9368D01*
X1003Y9368D01*
X1003Y9368D01*
X1003D01*
D01*
X1003Y9368D01*
X1002Y9368D01*
X991Y9373D01*
D01*
D01*
D01*
X991Y9372D01*
X990Y9372D01*
X941Y9405D01*
X882Y9417D01*
X824Y9405D01*
X774Y9372D01*
X741Y9322D01*
X729Y9264D01*
X741Y9205D01*
X774Y9156D01*
X774Y9156D01*
Y9116D01*
X741Y9066D01*
X729Y9008D01*
X741Y8949D01*
X774Y8900D01*
X773Y8899D01*
X776Y8893D01*
X778Y8887D01*
X778D01*
X778Y8887D01*
X778D01*
Y8887D01*
X778D01*
X778D01*
D01*
X780Y8887D01*
Y8635D01*
X734Y8604D01*
X685Y8637D01*
X626Y8649D01*
X568Y8637D01*
X518Y8604D01*
X487Y8557D01*
X440Y8576D01*
X443Y8590D01*
X431Y8652D01*
X395Y8705D01*
X342Y8741D01*
X280Y8753D01*
X218Y8741D01*
X181Y8716D01*
X171Y8712D01*
X-99D01*
X-345Y8958D01*
X-340Y9008D01*
X-315Y9025D01*
X-279Y9078D01*
X-267Y9140D01*
X-279Y9202D01*
X-315Y9255D01*
X-368Y9291D01*
X-430Y9303D01*
X-492Y9291D01*
X-545Y9255D01*
X-562Y9230D01*
X-612Y9225D01*
X-1006Y9619D01*
X-1046Y9646D01*
X-1093Y9655D01*
X-2025D01*
X-2039Y9703D01*
X-2000Y9729D01*
X-1964Y9782D01*
X-1952Y9845D01*
X-1964Y9907D01*
X-2000Y9960D01*
X-2053Y9996D01*
X-2115Y10008D01*
X-2178Y9996D01*
X-2231Y9960D01*
X-2266Y9907D01*
X-2278Y9845D01*
X-2266Y9782D01*
X-2231Y9729D01*
X-2191Y9703D01*
X-2205Y9655D01*
X-2770D01*
X-3195Y10080D01*
X-3199Y10090D01*
X-3207Y10133D01*
X-3243Y10186D01*
X-3296Y10221D01*
X-3358Y10234D01*
X-3420Y10221D01*
X-3473Y10186D01*
X-3509Y10133D01*
X-3521Y10070D01*
X-3509Y10008D01*
X-3473Y9955D01*
X-3420Y9920D01*
X-3378Y9911D01*
X-3368Y9907D01*
X-2907Y9446D01*
X-2867Y9420D01*
X-2820Y9410D01*
X-1143D01*
X-237Y8503D01*
X-197Y8477D01*
X-150Y8468D01*
X171D01*
X181Y8464D01*
X218Y8439D01*
X280Y8427D01*
X342Y8439D01*
X395Y8475D01*
X429Y8525D01*
X475Y8506D01*
X473Y8496D01*
X485Y8438D01*
X515Y8393D01*
X501Y8366D01*
X474Y8352D01*
X429Y8382D01*
X370Y8394D01*
X312Y8382D01*
X262Y8349D01*
X229Y8299D01*
X217Y8241D01*
X229Y8182D01*
X262Y8133D01*
X312Y8099D01*
X370Y8088D01*
X429Y8099D01*
X479Y8133D01*
X518D01*
X518Y8132D01*
X568Y8099D01*
X626Y8087D01*
X685Y8099D01*
X734Y8132D01*
X735Y8134D01*
X784Y8124D01*
X788Y8106D01*
X810Y8073D01*
X1065Y7818D01*
X1098Y7796D01*
X1137Y7788D01*
X2240D01*
X2272Y7749D01*
X2269Y7734D01*
X2281Y7675D01*
X2314Y7625D01*
X2363Y7592D01*
X2422Y7581D01*
X2480Y7592D01*
X2530Y7625D01*
X2563Y7675D01*
X2575Y7734D01*
X2572Y7749D01*
X2603Y7788D01*
X2749D01*
X2781Y7749D01*
X2777Y7729D01*
X2788Y7670D01*
X2821Y7620D01*
X2871Y7587D01*
X2929Y7576D01*
X2988Y7587D01*
X3038Y7620D01*
X3071Y7670D01*
X3082Y7729D01*
X3078Y7749D01*
X3090Y7764D01*
X3140Y7766D01*
X3167Y7739D01*
X3200Y7717D01*
X3239Y7709D01*
X3417D01*
X3433Y7698D01*
X3480Y7689D01*
X5398D01*
X5471Y7615D01*
X5476Y7605D01*
X5484Y7562D01*
X5519Y7509D01*
X5572Y7474D01*
X5635Y7462D01*
X5697Y7474D01*
X5750Y7509D01*
X5786Y7562D01*
X5798Y7625D01*
X5786Y7687D01*
X5750Y7740D01*
X5728Y7755D01*
X5721Y7804D01*
X5745Y7835D01*
X5745Y7835D01*
X5745D01*
X5781Y7888D01*
X5793Y7950D01*
X5781Y8012D01*
X5745Y8065D01*
X5692Y8101D01*
X5630Y8113D01*
X5568Y8101D01*
X5531Y8076D01*
X5521Y8072D01*
X3797D01*
X3773Y8116D01*
X3781Y8128D01*
X3793Y8190D01*
X3827Y8220D01*
Y8220D01*
X3827Y8220D01*
X3851Y8204D01*
X3866Y8194D01*
X3913Y8184D01*
X5946D01*
X6518Y7613D01*
Y6910D01*
X6527Y6863D01*
X6553Y6823D01*
X6657Y6720D01*
X6661Y6710D01*
X6669Y6668D01*
X6705Y6615D01*
X6758Y6579D01*
X6820Y6567D01*
X6882Y6579D01*
X6935Y6615D01*
X6971Y6668D01*
X6983Y6730D01*
X6971Y6792D01*
X6935Y6845D01*
X6882Y6881D01*
X6842Y6889D01*
X6814Y6930D01*
X6814Y6934D01*
X6823Y6962D01*
X6882Y6974D01*
X6935Y7009D01*
X6971Y7062D01*
X6983Y7125D01*
X6971Y7187D01*
X6946Y7224D01*
X6942Y7233D01*
Y7680D01*
X6933Y7727D01*
X6907Y7767D01*
X6932Y7799D01*
X6932D01*
X6932Y7799D01*
X6985Y7835D01*
X7021Y7888D01*
X7033Y7950D01*
X7021Y8012D01*
X6996Y8049D01*
X6994Y8056D01*
X7014Y8101D01*
X7040Y8110D01*
X7062Y8082D01*
X7121Y8036D01*
X7179Y8012D01*
Y7889D01*
X7161Y7863D01*
X7153Y7820D01*
Y6930D01*
X7161Y6887D01*
X7179Y6860D01*
Y6748D01*
X7121Y6724D01*
X7062Y6678D01*
X7016Y6619D01*
X7008Y6600D01*
X6954Y6559D01*
X6952Y6556D01*
X6952Y6556D01*
X6952Y6556D01*
X6952Y6555D01*
X6856Y6457D01*
X6844Y6448D01*
X6841Y6444D01*
X6841Y6444D01*
X6841Y6444D01*
X6841Y6442D01*
X6741Y6339D01*
X6736Y6336D01*
X6732Y6331D01*
X6732Y6331D01*
X6660Y6257D01*
X5742Y6248D01*
X5731Y6253D01*
X5697Y6276D01*
X5635Y6288D01*
X5572Y6276D01*
X5519Y6240D01*
X5484Y6187D01*
X5472Y6125D01*
X5484Y6062D01*
X5519Y6009D01*
X5572Y5974D01*
X5635Y5962D01*
X5697Y5974D01*
X5736Y6000D01*
X5745Y6004D01*
X6676Y6013D01*
X6687Y6000D01*
X6699Y5938D01*
X6735Y5885D01*
X6766Y5864D01*
X6771Y5814D01*
X6704Y5747D01*
X5743D01*
X5734Y5751D01*
X5697Y5776D01*
X5635Y5788D01*
X5572Y5776D01*
X5519Y5740D01*
X5484Y5687D01*
X5472Y5625D01*
X5484Y5562D01*
X5519Y5509D01*
X5572Y5474D01*
X5635Y5462D01*
X5697Y5474D01*
X5734Y5498D01*
X5743Y5502D01*
X6755D01*
X6802Y5512D01*
X6841Y5538D01*
X6841Y5538D01*
X6841Y5538D01*
X6997Y5694D01*
X7047Y5691D01*
X7062Y5672D01*
X7121Y5626D01*
X7172Y5605D01*
Y5555D01*
X7121Y5534D01*
X7062Y5488D01*
X7061Y5488D01*
X7004Y5444D01*
X6938Y5417D01*
X6873Y5408D01*
X6867Y5409D01*
Y5409D01*
X6866Y5409D01*
D01*
D01*
X6866D01*
Y5409D01*
X6864Y5407D01*
X5795D01*
X5748Y5398D01*
X5708Y5371D01*
X5625Y5288D01*
X5615Y5284D01*
X5572Y5276D01*
X5519Y5240D01*
X5491Y5197D01*
X5441Y5192D01*
X4967Y5667D01*
X4927Y5693D01*
X4880Y5702D01*
X3489D01*
X3479Y5706D01*
X3442Y5731D01*
X3380Y5743D01*
X3318Y5731D01*
X3281Y5706D01*
X3271Y5702D01*
X1440D01*
X1393Y5693D01*
X1353Y5667D01*
X1327Y5627D01*
X1318Y5581D01*
X699Y4962D01*
X429D01*
X397Y5001D01*
X403Y5030D01*
X399Y5049D01*
X431Y5088D01*
X470D01*
X517Y5097D01*
X557Y5123D01*
X853Y5420D01*
X895Y5412D01*
X957Y5424D01*
X1010Y5459D01*
X1046Y5512D01*
X1058Y5575D01*
X1046Y5637D01*
X1010Y5690D01*
X957Y5726D01*
X895Y5738D01*
X832Y5726D01*
X779Y5690D01*
X770Y5676D01*
X756Y5667D01*
X748Y5661D01*
X419Y5332D01*
X-510D01*
X-557Y5323D01*
X-573Y5312D01*
X-597Y5297D01*
X-751Y5142D01*
X-2027D01*
X-2036Y5146D01*
X-2073Y5171D01*
X-2135Y5183D01*
X-2198Y5171D01*
X-2251Y5135D01*
X-2286Y5082D01*
X-2298Y5020D01*
X-2286Y4958D01*
X-2251Y4905D01*
X-2198Y4869D01*
X-2135Y4857D01*
X-2131Y4858D01*
X-2113Y4840D01*
X-2101Y4778D01*
X-2065Y4725D01*
X-2012Y4689D01*
X-1950Y4677D01*
X-1888Y4689D01*
X-1851Y4714D01*
X-1841Y4718D01*
X750D01*
X797Y4727D01*
X837Y4753D01*
X993Y4910D01*
X1042Y4900D01*
X1056Y4868D01*
X1083Y4833D01*
X1093Y4817D01*
X1100Y4810D01*
X1101Y4810D01*
X1101D01*
X1101D01*
X1228Y4682D01*
X1236Y4672D01*
X1237Y4673D01*
X1397Y4513D01*
X1437Y4487D01*
X1483Y4478D01*
X4623D01*
X5177Y3924D01*
X5181Y3914D01*
X5189Y3871D01*
X5225Y3818D01*
X5278Y3783D01*
X5340Y3770D01*
X5402Y3783D01*
X5455Y3818D01*
X5491Y3871D01*
X5491Y3873D01*
X5539Y3888D01*
X5662Y3765D01*
Y3010D01*
X5618Y2987D01*
X5582Y3011D01*
X5520Y3023D01*
X5458Y3011D01*
X5405Y2975D01*
X5369Y2922D01*
X5357Y2860D01*
X5369Y2798D01*
X5405Y2745D01*
X5458Y2709D01*
X5520Y2697D01*
X5582Y2709D01*
X5618Y2733D01*
X5662Y2710D01*
Y2520D01*
X5618Y2497D01*
X5582Y2521D01*
X5520Y2533D01*
X5458Y2521D01*
X5405Y2485D01*
X5369Y2432D01*
X5357Y2370D01*
X5369Y2308D01*
X5405Y2255D01*
X5458Y2219D01*
X5520Y2207D01*
X5582Y2219D01*
X5635Y2255D01*
X5639Y2259D01*
X5669D01*
X5722Y2224D01*
X5785Y2212D01*
X5829Y2220D01*
X5868Y2189D01*
Y2131D01*
X5775Y2038D01*
X5765Y2034D01*
X5722Y2026D01*
X5669Y1990D01*
X5634Y1937D01*
X5622Y1875D01*
X5634Y1812D01*
X5669Y1759D01*
X5722Y1724D01*
X5785Y1712D01*
X5847Y1724D01*
X5900Y1759D01*
X5936Y1812D01*
X5944Y1855D01*
X5948Y1865D01*
X6077Y1993D01*
X6103Y2033D01*
X6112Y2080D01*
Y3903D01*
X6103Y3950D01*
X6097Y3958D01*
X6107Y4007D01*
X6141Y4030D01*
X6176Y4082D01*
X6188Y4145D01*
X6176Y4207D01*
X6141Y4260D01*
X6088Y4296D01*
X6045Y4304D01*
X6035Y4308D01*
X5817Y4526D01*
X5836Y4572D01*
X6864D01*
X6866Y4570D01*
Y4570D01*
X6866D01*
D01*
D01*
X6867Y4570D01*
X6867Y4570D01*
D01*
X6873Y4571D01*
X6938Y4563D01*
X7004Y4535D01*
X7061Y4491D01*
X7062Y4492D01*
X7121Y4446D01*
X7179Y4422D01*
Y958D01*
X7121Y934D01*
X7062Y888D01*
X7016Y829D01*
X6987Y759D01*
X6977Y685D01*
X6987Y610D01*
X7016Y541D01*
X7062Y482D01*
X7121Y436D01*
X7179Y412D01*
Y-273D01*
X-1826D01*
X-1858Y-234D01*
X-1852Y-205D01*
X-1864Y-143D01*
X-1886Y-111D01*
X-1864Y-79D01*
X-1852Y-17D01*
X-1864Y46D01*
X-1886Y77D01*
X-1864Y109D01*
X-1852Y171D01*
X-1864Y234D01*
X-1886Y266D01*
X-1864Y297D01*
X-1852Y360D01*
X-1864Y422D01*
X-1886Y454D01*
X-1864Y486D01*
X-1852Y548D01*
X-1864Y611D01*
X-1886Y642D01*
X-1864Y674D01*
X-1852Y736D01*
X-1864Y799D01*
X-1886Y831D01*
X-1864Y862D01*
X-1852Y925D01*
X-1864Y987D01*
X-1900Y1040D01*
X-1953Y1076D01*
X-2015Y1088D01*
X-2077Y1076D01*
X-2115Y1107D01*
Y2792D01*
D01*
D01*
X-2115Y2792D01*
D01*
D01*
X-2050Y2859D01*
X-2050Y2859D01*
X-2014Y2912D01*
X-2002Y2975D01*
X-2014Y3037D01*
X-2050Y3090D01*
X-2103Y3126D01*
X-2165Y3138D01*
X-2228Y3126D01*
X-2281Y3090D01*
X-2316Y3037D01*
X-2328Y2975D01*
X-2328Y2973D01*
X-2360Y2935D01*
X-2966D01*
X-2998Y2973D01*
X-2985Y3035D01*
X-2998Y3097D01*
X-3033Y3150D01*
X-3086Y3186D01*
X-3149Y3198D01*
X-3211Y3186D01*
X-3259Y3154D01*
X-3306Y3186D01*
X-3368Y3198D01*
X-3431Y3186D01*
X-3483Y3150D01*
X-3536Y3186D01*
X-3598Y3198D01*
X-3633Y3226D01*
Y15023D01*
X7179D01*
Y11508D01*
D02*
G37*
G36*
X18735Y6514D02*
X18720Y6512D01*
X18651Y6484D01*
X18592Y6438D01*
X18546Y6379D01*
X18532Y6344D01*
X18531Y6344D01*
X18528Y6342D01*
X18528Y6341D01*
X18527Y6341D01*
X18498Y6321D01*
X18486Y6309D01*
X18477Y6302D01*
X18478Y6301D01*
X18478Y6301D01*
X18347Y6170D01*
X18341Y6165D01*
X18341Y6164D01*
X18217Y6040D01*
X18204Y6029D01*
X18205Y6028D01*
X18087Y5910D01*
X18066Y5893D01*
X18068Y5891D01*
X13294Y1117D01*
X9486D01*
X9463Y1161D01*
X9473Y1177D01*
X9489Y1255D01*
X9473Y1333D01*
X9429Y1399D01*
X9363Y1443D01*
X9285Y1459D01*
X9207Y1443D01*
X9172Y1495D01*
X9174Y1505D01*
X9178Y1515D01*
X12491Y4828D01*
X15901D01*
X15911Y4824D01*
X15948Y4799D01*
X16010Y4787D01*
X16072Y4799D01*
X16125Y4835D01*
X16161Y4888D01*
X16173Y4950D01*
X16161Y5012D01*
X16125Y5065D01*
X16072Y5101D01*
X16010Y5113D01*
X16010Y5113D01*
X16010Y5113D01*
X15973Y5130D01*
Y5130D01*
X15961Y5192D01*
X15925Y5245D01*
X15872Y5281D01*
X15810Y5293D01*
X15748Y5281D01*
X15711Y5256D01*
X15701Y5252D01*
X14141D01*
X13947Y5447D01*
X13907Y5473D01*
X13860Y5482D01*
X9380D01*
X9333Y5473D01*
X9293Y5447D01*
X8845Y4998D01*
X8835Y4994D01*
X8792Y4986D01*
X8739Y4950D01*
X8704Y4897D01*
X8692Y4835D01*
X8704Y4772D01*
X8739Y4719D01*
X8792Y4684D01*
X8855Y4672D01*
X8917Y4684D01*
X8970Y4719D01*
X9006Y4772D01*
X9014Y4815D01*
X9018Y4825D01*
X9431Y5238D01*
X13809D01*
X13928Y5119D01*
X13909Y5072D01*
X12440D01*
X12393Y5063D01*
X12353Y5037D01*
X9005Y1688D01*
X8995Y1684D01*
X8952Y1676D01*
X8899Y1640D01*
X8864Y1587D01*
X8856Y1549D01*
X8809Y1534D01*
X8342Y2000D01*
Y5740D01*
X8333Y5786D01*
X8322Y5802D01*
X8307Y5826D01*
X8009Y6123D01*
Y6125D01*
Y6125D01*
X8001Y6132D01*
X7873Y6259D01*
Y6262D01*
Y6262D01*
X7859Y6274D01*
X7736Y6397D01*
Y6398D01*
Y6398D01*
X7729Y6403D01*
X7599Y6534D01*
X7599Y6534D01*
X7600Y6535D01*
X7590Y6543D01*
X7571Y6561D01*
X7532Y6588D01*
X7531Y6588D01*
X7524Y6593D01*
X7514Y6619D01*
X7468Y6678D01*
X7409Y6724D01*
X7339Y6752D01*
X7335Y6753D01*
Y6818D01*
X18735D01*
Y6514D01*
D02*
G37*
G36*
Y11154D02*
X18720Y11152D01*
X18651Y11124D01*
X18592Y11078D01*
X18546Y11019D01*
X18517Y10949D01*
X18507Y10875D01*
X18517Y10800D01*
X18546Y10731D01*
X18592Y10672D01*
X18651Y10626D01*
X18720Y10597D01*
X18735Y10595D01*
Y9974D01*
X18720Y9972D01*
X18720Y9972D01*
X18633Y9961D01*
X18545Y9972D01*
X18462Y10007D01*
X18427Y10033D01*
Y13955D01*
X18418Y14002D01*
X18391Y14041D01*
X17571Y14861D01*
X17532Y14888D01*
X17485Y14897D01*
X15623D01*
X15614Y14901D01*
X15577Y14926D01*
X15515Y14938D01*
X15452Y14926D01*
X15416Y14901D01*
X15406Y14897D01*
X13265D01*
X13218Y14888D01*
X13178Y14861D01*
X8563Y10246D01*
X8515Y10260D01*
X8511Y10282D01*
X8475Y10335D01*
X8422Y10371D01*
X8360Y10383D01*
X8298Y10371D01*
X8245Y10335D01*
X8209Y10282D01*
X8197Y10220D01*
X8209Y10158D01*
X8217Y10146D01*
X8193Y10102D01*
X7829D01*
X7706Y10119D01*
X7577Y10172D01*
X7473Y10252D01*
X7468Y10258D01*
X7409Y10304D01*
X7339Y10332D01*
X7335Y10333D01*
Y10957D01*
X7339Y10957D01*
X7409Y10986D01*
X7468Y11032D01*
X7514Y11091D01*
X7542Y11160D01*
X7552Y11230D01*
X7592Y11259D01*
X7635Y11251D01*
X7713Y11266D01*
X7779Y11311D01*
X7823Y11377D01*
X7839Y11455D01*
X7823Y11533D01*
X7779Y11599D01*
X7713Y11643D01*
X7699Y11646D01*
X7692Y11695D01*
X8865Y12293D01*
X8904Y12263D01*
X8891Y12195D01*
X8906Y12117D01*
X8951Y12051D01*
X9017Y12006D01*
X9095Y11991D01*
X9173Y12006D01*
X9239Y12051D01*
X9283Y12117D01*
X9299Y12195D01*
X9283Y12273D01*
X9239Y12339D01*
X9173Y12383D01*
X9095Y12399D01*
X9031Y12386D01*
X9008Y12430D01*
X10050Y13473D01*
X10825Y15023D01*
X18735D01*
Y11154D01*
D02*
G37*
G36*
X41703Y3226D02*
X41658Y3203D01*
X41620Y3231D01*
X41622Y3241D01*
X41606Y3319D01*
X41562Y3385D01*
X41496Y3430D01*
X41418Y3445D01*
X41340Y3430D01*
X41274Y3385D01*
X41230Y3319D01*
X41214Y3241D01*
X41230Y3163D01*
X41274Y3097D01*
X41318Y3068D01*
X41315Y3018D01*
X40381Y2519D01*
X40336Y2540D01*
X40326Y2589D01*
X40282Y2655D01*
X40216Y2700D01*
X40138Y2715D01*
X40060Y2700D01*
X39994Y2655D01*
X39950Y2589D01*
X39934Y2511D01*
X39950Y2433D01*
X39994Y2367D01*
X40060Y2323D01*
X40062Y2322D01*
X40077Y2274D01*
X39188Y1385D01*
X39149Y1417D01*
X39173Y1453D01*
X39189Y1531D01*
X39173Y1609D01*
X39129Y1675D01*
X39063Y1719D01*
X38985Y1735D01*
X38907Y1719D01*
X38840Y1675D01*
X38796Y1609D01*
X38781Y1531D01*
X38796Y1453D01*
X38840Y1387D01*
X38907Y1343D01*
X38985Y1327D01*
X39063Y1343D01*
X39099Y1367D01*
X39130Y1328D01*
X39079Y1277D01*
X38833Y784D01*
X38786Y801D01*
X38792Y831D01*
X38776Y909D01*
X38732Y975D01*
X38666Y1020D01*
X38588Y1035D01*
X38510Y1020D01*
X38444Y975D01*
X38400Y909D01*
X38384Y831D01*
X38400Y753D01*
X38444Y687D01*
X38510Y643D01*
X38588Y627D01*
X38666Y643D01*
X38730Y685D01*
X38767Y652D01*
X38431Y-21D01*
X38381Y-14D01*
X38376Y9D01*
X38332Y75D01*
X38266Y120D01*
X38188Y135D01*
X38110Y120D01*
X38044Y75D01*
X38000Y9D01*
X37984Y-69D01*
X38000Y-147D01*
X38044Y-213D01*
X38062Y-225D01*
X38048Y-273D01*
X30405D01*
Y2103D01*
X30449Y2126D01*
X30482Y2104D01*
X30545Y2092D01*
X30607Y2104D01*
X30660Y2139D01*
X30696Y2192D01*
X30708Y2255D01*
X30696Y2317D01*
X30660Y2370D01*
X30607Y2406D01*
X30545Y2418D01*
X30482Y2406D01*
X30449Y2383D01*
X30405Y2407D01*
Y4417D01*
X30409Y4417D01*
X30479Y4446D01*
X30538Y4492D01*
X30584Y4551D01*
X30612Y4620D01*
X30622Y4695D01*
X30612Y4769D01*
X30584Y4839D01*
X30538Y4898D01*
X30495Y4931D01*
X30518Y4975D01*
X30644Y4937D01*
X30784Y4862D01*
X30897Y4770D01*
X31258Y4409D01*
Y2090D01*
X31258Y2090D01*
X31258D01*
X31267Y2043D01*
X31293Y2003D01*
X32233Y1063D01*
X32273Y1037D01*
X32320Y1028D01*
X32411D01*
X32421Y1024D01*
X32458Y999D01*
X32520Y987D01*
X32582Y999D01*
X32635Y1035D01*
X32671Y1088D01*
X32683Y1150D01*
X32671Y1212D01*
X32635Y1265D01*
X32582Y1301D01*
X32546Y1308D01*
X32553Y1345D01*
X32541Y1407D01*
X32505Y1460D01*
X32452Y1496D01*
X32410Y1504D01*
X32400Y1508D01*
X31772Y2136D01*
Y3267D01*
X31811Y3299D01*
X31870Y3287D01*
X31932Y3299D01*
X31985Y3335D01*
X32021Y3388D01*
X32033Y3450D01*
X32021Y3512D01*
X31985Y3565D01*
X31932Y3601D01*
X31870Y3613D01*
X31811Y3601D01*
X31772Y3633D01*
Y4670D01*
X31763Y4717D01*
X31737Y4757D01*
X30891Y5602D01*
X30892Y5603D01*
X30881Y5612D01*
X30755Y5738D01*
X30755Y5738D01*
X30755Y5739D01*
X30751Y5742D01*
X30626Y5867D01*
X30626Y5870D01*
X30626Y5870D01*
X30625Y5874D01*
X30624Y5875D01*
X30624D01*
D01*
D01*
X30622Y5875D01*
X30612Y5949D01*
X30584Y6019D01*
X30538Y6078D01*
X30479Y6124D01*
X30409Y6152D01*
X30405Y6153D01*
Y6818D01*
X33536D01*
X33541Y6768D01*
X33503Y6761D01*
X33450Y6725D01*
X33415Y6672D01*
X33403Y6610D01*
X33415Y6548D01*
X33450Y6495D01*
X33503Y6459D01*
X33566Y6447D01*
X33628Y6459D01*
X33681Y6495D01*
X33716Y6548D01*
X33729Y6610D01*
X33716Y6672D01*
X33681Y6725D01*
X33628Y6761D01*
X33591Y6768D01*
X33596Y6818D01*
X37043D01*
X37067Y6774D01*
X37059Y6762D01*
X37047Y6700D01*
X37059Y6638D01*
X37095Y6585D01*
X37148Y6549D01*
X37210Y6537D01*
X37272Y6549D01*
X37325Y6585D01*
X37361Y6638D01*
X37373Y6700D01*
X37361Y6762D01*
X37353Y6774D01*
X37377Y6818D01*
X41703D01*
Y3226D01*
D02*
G37*
G36*
X30265Y6153D02*
X30260Y6152D01*
X30191Y6124D01*
X30132Y6078D01*
X30131Y6078D01*
X30074Y6034D01*
X30008Y6007D01*
X29943Y5998D01*
X29937Y5999D01*
Y5999D01*
X29936Y5999D01*
D01*
D01*
X29936D01*
Y5999D01*
X29934Y5997D01*
X29875D01*
X29828Y5988D01*
X29788Y5961D01*
X25104Y1277D01*
X21645D01*
X21641Y1327D01*
X21652Y1329D01*
X21705Y1365D01*
X21741Y1418D01*
X21753Y1480D01*
X21741Y1542D01*
X21705Y1595D01*
X21652Y1631D01*
X21590Y1643D01*
X21528Y1631D01*
X21475Y1595D01*
X21439Y1542D01*
X21427Y1480D01*
X21439Y1418D01*
X21475Y1365D01*
X21528Y1329D01*
X21539Y1327D01*
X21535Y1277D01*
X21305D01*
X19812Y2770D01*
Y4850D01*
X19803Y4896D01*
X19777Y4936D01*
X19647Y5065D01*
Y5765D01*
X19638Y5812D01*
X19611Y5851D01*
X19141Y6321D01*
X19102Y6348D01*
X19057Y6357D01*
X19057Y6358D01*
D01*
D01*
X19057D01*
Y6358D01*
D01*
X19057Y6358D01*
X19057Y6359D01*
X19057Y6359D01*
X19057Y6359D01*
X19055Y6360D01*
Y6360D01*
X19052Y6360D01*
X19051Y6361D01*
X19044Y6379D01*
X18998Y6438D01*
X18939Y6484D01*
X18869Y6512D01*
X18865Y6513D01*
Y6818D01*
X30265D01*
Y6153D01*
D02*
G37*
%LPC*%
G36*
X28185Y5179D02*
X28107Y5163D01*
X28041Y5119D01*
X27996Y5053D01*
X27981Y4975D01*
X27996Y4897D01*
X28041Y4831D01*
X28107Y4786D01*
X28185Y4771D01*
X28263Y4786D01*
X28329Y4831D01*
X28373Y4897D01*
X28389Y4975D01*
X28373Y5053D01*
X28329Y5119D01*
X28263Y5163D01*
X28185Y5179D01*
D02*
G37*
G36*
X20355Y5038D02*
X20292Y5026D01*
X20239Y4990D01*
X20204Y4937D01*
X20192Y4875D01*
X20204Y4812D01*
X20239Y4759D01*
X20292Y4724D01*
X20355Y4712D01*
X20417Y4724D01*
X20454Y4748D01*
X20463Y4752D01*
X27203D01*
X27212Y4749D01*
Y4749D01*
X27213Y4749D01*
X27258Y4719D01*
X27320Y4707D01*
X27382Y4719D01*
X27435Y4755D01*
X27471Y4808D01*
X27483Y4870D01*
X27471Y4932D01*
X27435Y4985D01*
X27382Y5021D01*
X27320Y5033D01*
X27258Y5021D01*
X27227Y5000D01*
X27221Y4998D01*
X27212Y4999D01*
Y4997D01*
X20463D01*
X20454Y5001D01*
X20417Y5026D01*
X20355Y5038D01*
D02*
G37*
G36*
X16655Y5179D02*
X16577Y5163D01*
X16511Y5119D01*
X16466Y5053D01*
X16451Y4975D01*
X16466Y4897D01*
X16511Y4831D01*
X16577Y4786D01*
X16655Y4771D01*
X16733Y4786D01*
X16799Y4831D01*
X16843Y4897D01*
X16859Y4975D01*
X16843Y5053D01*
X16799Y5119D01*
X16733Y5163D01*
X16655Y5179D01*
D02*
G37*
G36*
X39750Y5143D02*
X39688Y5131D01*
X39635Y5095D01*
X39599Y5042D01*
X39587Y4980D01*
X39599Y4918D01*
X39635Y4865D01*
X39688Y4829D01*
X39750Y4817D01*
X39812Y4829D01*
X39865Y4865D01*
X39901Y4918D01*
X39913Y4980D01*
X39901Y5042D01*
X39865Y5095D01*
X39812Y5131D01*
X39750Y5143D01*
D02*
G37*
G36*
X24410Y3643D02*
X24348Y3631D01*
X24295Y3595D01*
X24259Y3542D01*
X24247Y3480D01*
X24259Y3418D01*
X24295Y3365D01*
X24348Y3329D01*
X24410Y3317D01*
X24472Y3329D01*
X24525Y3365D01*
X24561Y3418D01*
X24573Y3480D01*
X24561Y3542D01*
X24525Y3595D01*
X24472Y3631D01*
X24410Y3643D01*
D02*
G37*
G36*
X4680Y3833D02*
X4618Y3821D01*
X4565Y3785D01*
X4529Y3732D01*
X4517Y3670D01*
X4529Y3608D01*
X4565Y3555D01*
X4618Y3519D01*
X4680Y3507D01*
X4742Y3519D01*
X4795Y3555D01*
X4831Y3608D01*
X4843Y3670D01*
X4831Y3732D01*
X4795Y3785D01*
X4742Y3821D01*
X4680Y3833D01*
D02*
G37*
G36*
X33330Y3823D02*
X33268Y3811D01*
X33215Y3775D01*
X33179Y3722D01*
X33167Y3660D01*
X33179Y3598D01*
X33215Y3545D01*
X33268Y3509D01*
X33330Y3497D01*
X33392Y3509D01*
X33445Y3545D01*
X33481Y3598D01*
X33493Y3660D01*
X33481Y3722D01*
X33445Y3775D01*
X33392Y3811D01*
X33330Y3823D01*
D02*
G37*
G36*
X6528Y4479D02*
X6450Y4464D01*
X6384Y4420D01*
X6340Y4354D01*
X6324Y4276D01*
X6340Y4198D01*
X6384Y4131D01*
X6450Y4087D01*
X6528Y4072D01*
X6606Y4087D01*
X6672Y4131D01*
X6717Y4198D01*
X6732Y4276D01*
X6717Y4354D01*
X6672Y4420D01*
X6606Y4464D01*
X6528Y4479D01*
D02*
G37*
G36*
X40770Y4618D02*
X40708Y4606D01*
X40655Y4570D01*
X40619Y4517D01*
X40607Y4455D01*
X40619Y4392D01*
X40655Y4339D01*
X40708Y4304D01*
X40770Y4292D01*
X40832Y4304D01*
X40885Y4339D01*
X40921Y4392D01*
X40933Y4455D01*
X40921Y4517D01*
X40885Y4570D01*
X40832Y4606D01*
X40770Y4618D01*
D02*
G37*
G36*
X8625Y4329D02*
X8547Y4313D01*
X8481Y4269D01*
X8436Y4203D01*
X8421Y4125D01*
X8436Y4047D01*
X8481Y3981D01*
X8547Y3936D01*
X8625Y3921D01*
X8703Y3936D01*
X8769Y3981D01*
X8813Y4047D01*
X8829Y4125D01*
X8813Y4203D01*
X8769Y4269D01*
X8703Y4313D01*
X8625Y4329D01*
D02*
G37*
G36*
X35370Y4193D02*
X35308Y4181D01*
X35255Y4145D01*
X35219Y4092D01*
X35207Y4030D01*
X35219Y3968D01*
X35255Y3915D01*
X35308Y3879D01*
X35370Y3867D01*
X35432Y3879D01*
X35485Y3915D01*
X35521Y3968D01*
X35533Y4030D01*
X35521Y4092D01*
X35485Y4145D01*
X35432Y4181D01*
X35370Y4193D01*
D02*
G37*
G36*
X21780Y3833D02*
X21718Y3821D01*
X21665Y3785D01*
X21629Y3732D01*
X21617Y3670D01*
X21629Y3608D01*
X21665Y3555D01*
X21718Y3519D01*
X21780Y3507D01*
X21842Y3519D01*
X21895Y3555D01*
X21931Y3608D01*
X21943Y3670D01*
X21931Y3732D01*
X21895Y3785D01*
X21842Y3821D01*
X21780Y3833D01*
D02*
G37*
G36*
X41470Y4803D02*
X41408Y4791D01*
X41355Y4755D01*
X41319Y4702D01*
X41307Y4640D01*
X41319Y4578D01*
X41355Y4525D01*
X41408Y4489D01*
X41470Y4477D01*
X41532Y4489D01*
X41585Y4525D01*
X41621Y4578D01*
X41633Y4640D01*
X41621Y4702D01*
X41585Y4755D01*
X41532Y4791D01*
X41470Y4803D01*
D02*
G37*
G36*
X40810Y3613D02*
X40748Y3601D01*
X40705Y3572D01*
X40662Y3601D01*
X40600Y3613D01*
X40538Y3601D01*
X40485Y3565D01*
X40449Y3512D01*
X40437Y3450D01*
X40449Y3388D01*
X40485Y3335D01*
X40538Y3299D01*
X40600Y3287D01*
X40662Y3299D01*
X40705Y3328D01*
X40748Y3299D01*
X40810Y3287D01*
X40872Y3299D01*
X40925Y3335D01*
X40961Y3388D01*
X40973Y3450D01*
X40961Y3512D01*
X40925Y3565D01*
X40872Y3601D01*
X40810Y3613D01*
D02*
G37*
G36*
X29790Y4673D02*
X29728Y4661D01*
X29675Y4625D01*
X29639Y4572D01*
X29627Y4510D01*
X29639Y4448D01*
X29675Y4395D01*
X29728Y4359D01*
X29790Y4347D01*
X29852Y4359D01*
X29905Y4395D01*
X29941Y4448D01*
X29953Y4510D01*
X29941Y4572D01*
X29905Y4625D01*
X29852Y4661D01*
X29790Y4673D01*
D02*
G37*
G36*
X34150Y5373D02*
X34088Y5361D01*
X34035Y5325D01*
X33999Y5272D01*
X33987Y5210D01*
X33999Y5148D01*
X34035Y5095D01*
X34088Y5059D01*
X34150Y5047D01*
X34212Y5059D01*
X34265Y5095D01*
X34301Y5148D01*
X34313Y5210D01*
X34301Y5272D01*
X34265Y5325D01*
X34212Y5361D01*
X34150Y5373D01*
D02*
G37*
G36*
X26775Y6519D02*
X26697Y6503D01*
X26631Y6459D01*
X26586Y6393D01*
X26571Y6315D01*
X26586Y6237D01*
X26631Y6171D01*
X26697Y6126D01*
X26775Y6111D01*
X26853Y6126D01*
X26919Y6171D01*
X26963Y6237D01*
X26979Y6315D01*
X26963Y6393D01*
X26919Y6459D01*
X26853Y6503D01*
X26775Y6519D01*
D02*
G37*
G36*
X28470Y6523D02*
X28408Y6511D01*
X28355Y6475D01*
X28319Y6422D01*
X28307Y6360D01*
X28319Y6298D01*
X28355Y6245D01*
X28408Y6209D01*
X28470Y6197D01*
X28532Y6209D01*
X28585Y6245D01*
X28621Y6298D01*
X28633Y6360D01*
X28621Y6422D01*
X28585Y6475D01*
X28532Y6511D01*
X28470Y6523D01*
D02*
G37*
G36*
X15275Y6519D02*
X15197Y6503D01*
X15131Y6459D01*
X15086Y6393D01*
X15071Y6315D01*
X15086Y6237D01*
X15131Y6171D01*
X15197Y6126D01*
X15275Y6111D01*
X15353Y6126D01*
X15419Y6171D01*
X15463Y6237D01*
X15479Y6315D01*
X15463Y6393D01*
X15419Y6459D01*
X15353Y6503D01*
X15275Y6519D01*
D02*
G37*
G36*
X17405Y6259D02*
X17327Y6243D01*
X17261Y6199D01*
X17216Y6133D01*
X17201Y6055D01*
X17216Y5977D01*
X17261Y5911D01*
X17327Y5866D01*
X17405Y5851D01*
X17483Y5866D01*
X17549Y5911D01*
X17593Y5977D01*
X17609Y6055D01*
X17593Y6133D01*
X17549Y6199D01*
X17483Y6243D01*
X17405Y6259D01*
D02*
G37*
G36*
X-1555Y6269D02*
X-1633Y6253D01*
X-1699Y6209D01*
X-1744Y6143D01*
X-1759Y6065D01*
X-1744Y5987D01*
X-1699Y5921D01*
X-1633Y5876D01*
X-1555Y5861D01*
X-1477Y5876D01*
X-1411Y5921D01*
X-1367Y5987D01*
X-1351Y6065D01*
X-1367Y6143D01*
X-1411Y6209D01*
X-1477Y6253D01*
X-1555Y6269D01*
D02*
G37*
G36*
X29410Y6523D02*
X29348Y6511D01*
X29295Y6475D01*
X29259Y6422D01*
X29247Y6360D01*
X29259Y6298D01*
X29295Y6245D01*
X29348Y6209D01*
X29410Y6197D01*
X29472Y6209D01*
X29525Y6245D01*
X29561Y6298D01*
X29573Y6360D01*
X29561Y6422D01*
X29525Y6475D01*
X29472Y6511D01*
X29410Y6523D01*
D02*
G37*
G36*
X9495Y6763D02*
X9432Y6751D01*
X9379Y6715D01*
X9344Y6662D01*
X9332Y6600D01*
X9344Y6538D01*
X9379Y6485D01*
X9432Y6449D01*
X9495Y6437D01*
X9557Y6449D01*
X9610Y6485D01*
X9646Y6538D01*
X9658Y6600D01*
X9646Y6662D01*
X9610Y6715D01*
X9557Y6751D01*
X9495Y6763D01*
D02*
G37*
G36*
X9995D02*
X9932Y6751D01*
X9879Y6715D01*
X9844Y6662D01*
X9832Y6600D01*
X9844Y6538D01*
X9879Y6485D01*
X9932Y6449D01*
X9995Y6437D01*
X10057Y6449D01*
X10110Y6485D01*
X10146Y6538D01*
X10158Y6600D01*
X10146Y6662D01*
X10110Y6715D01*
X10057Y6751D01*
X9995Y6763D01*
D02*
G37*
G36*
X9000D02*
X8938Y6751D01*
X8885Y6715D01*
X8849Y6662D01*
X8837Y6600D01*
X8849Y6538D01*
X8885Y6485D01*
X8938Y6449D01*
X9000Y6437D01*
X9062Y6449D01*
X9115Y6485D01*
X9151Y6538D01*
X9163Y6600D01*
X9151Y6662D01*
X9115Y6715D01*
X9062Y6751D01*
X9000Y6763D01*
D02*
G37*
G36*
X40890Y6523D02*
X40828Y6511D01*
X40775Y6475D01*
X40739Y6422D01*
X40727Y6360D01*
X40739Y6298D01*
X40775Y6245D01*
X40828Y6209D01*
X40890Y6197D01*
X40952Y6209D01*
X41005Y6245D01*
X41041Y6298D01*
X41053Y6360D01*
X41041Y6422D01*
X41005Y6475D01*
X40952Y6511D01*
X40890Y6523D01*
D02*
G37*
G36*
X39940Y6533D02*
X39878Y6521D01*
X39825Y6485D01*
X39789Y6432D01*
X39777Y6370D01*
X39789Y6308D01*
X39825Y6255D01*
X39878Y6219D01*
X39940Y6207D01*
X40002Y6219D01*
X40055Y6255D01*
X40091Y6308D01*
X40103Y6370D01*
X40091Y6432D01*
X40055Y6485D01*
X40002Y6521D01*
X39940Y6533D01*
D02*
G37*
G36*
X37190Y5588D02*
X37128Y5575D01*
X37075Y5540D01*
X37039Y5487D01*
X37027Y5425D01*
X37039Y5362D01*
X37075Y5309D01*
X37128Y5274D01*
X37190Y5261D01*
X37252Y5274D01*
X37305Y5309D01*
X37341Y5362D01*
X37353Y5425D01*
X37341Y5487D01*
X37305Y5540D01*
X37252Y5575D01*
X37190Y5588D01*
D02*
G37*
G36*
X14635Y5658D02*
X14572Y5646D01*
X14519Y5610D01*
X14484Y5557D01*
X14472Y5495D01*
X14484Y5432D01*
X14519Y5379D01*
X14572Y5344D01*
X14635Y5332D01*
X14697Y5344D01*
X14750Y5379D01*
X14786Y5432D01*
X14798Y5495D01*
X14786Y5557D01*
X14750Y5610D01*
X14697Y5646D01*
X14635Y5658D01*
D02*
G37*
G36*
X25661Y5549D02*
X25599Y5536D01*
X25546Y5501D01*
X25511Y5448D01*
X25498Y5386D01*
X25511Y5323D01*
X25546Y5270D01*
X25599Y5235D01*
X25661Y5223D01*
X25724Y5235D01*
X25777Y5270D01*
X25812Y5323D01*
X25825Y5386D01*
X25812Y5448D01*
X25777Y5501D01*
X25724Y5536D01*
X25661Y5549D01*
D02*
G37*
G36*
X32070Y5474D02*
X31992Y5458D01*
X31926Y5414D01*
X31882Y5348D01*
X31866Y5270D01*
X31882Y5192D01*
X31926Y5126D01*
X31992Y5082D01*
X32070Y5066D01*
X32148Y5082D01*
X32214Y5126D01*
X32258Y5192D01*
X32274Y5270D01*
X32258Y5348D01*
X32214Y5414D01*
X32148Y5458D01*
X32070Y5474D01*
D02*
G37*
G36*
X20515Y5539D02*
X20437Y5523D01*
X20371Y5479D01*
X20326Y5413D01*
X20311Y5335D01*
X20326Y5257D01*
X20371Y5191D01*
X20437Y5146D01*
X20515Y5131D01*
X20593Y5146D01*
X20659Y5191D01*
X20703Y5257D01*
X20719Y5335D01*
X20703Y5413D01*
X20659Y5479D01*
X20593Y5523D01*
X20515Y5539D01*
D02*
G37*
G36*
X26095Y5658D02*
X26032Y5646D01*
X25979Y5610D01*
X25944Y5557D01*
X25932Y5495D01*
X25944Y5432D01*
X25979Y5379D01*
X26032Y5344D01*
X26095Y5332D01*
X26157Y5344D01*
X26210Y5379D01*
X26246Y5432D01*
X26258Y5495D01*
X26246Y5557D01*
X26210Y5610D01*
X26157Y5646D01*
X26095Y5658D01*
D02*
G37*
G36*
X-1250Y5823D02*
X-1312Y5811D01*
X-1365Y5775D01*
X-1401Y5722D01*
X-1413Y5660D01*
X-1401Y5598D01*
X-1365Y5545D01*
X-1312Y5509D01*
X-1250Y5497D01*
X-1188Y5509D01*
X-1135Y5545D01*
X-1099Y5598D01*
X-1087Y5660D01*
X-1099Y5722D01*
X-1135Y5775D01*
X-1188Y5811D01*
X-1250Y5823D01*
D02*
G37*
G36*
X37570Y6003D02*
X37508Y5991D01*
X37455Y5955D01*
X37419Y5902D01*
X37407Y5840D01*
X37419Y5778D01*
X37455Y5725D01*
X37508Y5689D01*
X37570Y5677D01*
X37632Y5689D01*
X37685Y5725D01*
X37721Y5778D01*
X37733Y5840D01*
X37721Y5902D01*
X37685Y5955D01*
X37632Y5991D01*
X37570Y6003D01*
D02*
G37*
G36*
X39100Y5813D02*
X39038Y5801D01*
X38985Y5765D01*
X38949Y5712D01*
X38937Y5650D01*
X38949Y5588D01*
X38985Y5535D01*
X39038Y5499D01*
X39100Y5487D01*
X39162Y5499D01*
X39215Y5535D01*
X39251Y5588D01*
X39263Y5650D01*
X39251Y5712D01*
X39215Y5765D01*
X39162Y5801D01*
X39100Y5813D01*
D02*
G37*
G36*
X14170Y5713D02*
X14108Y5701D01*
X14055Y5665D01*
X14019Y5612D01*
X14007Y5550D01*
X14019Y5488D01*
X14055Y5435D01*
X14108Y5399D01*
X14170Y5387D01*
X14232Y5399D01*
X14285Y5435D01*
X14321Y5488D01*
X14333Y5550D01*
X14321Y5612D01*
X14285Y5665D01*
X14232Y5701D01*
X14170Y5713D01*
D02*
G37*
G36*
X27630Y5813D02*
X27568Y5801D01*
X27515Y5765D01*
X27479Y5712D01*
X27467Y5650D01*
X27479Y5588D01*
X27515Y5535D01*
X27568Y5499D01*
X27630Y5487D01*
X27692Y5499D01*
X27745Y5535D01*
X27781Y5588D01*
X27793Y5650D01*
X27781Y5712D01*
X27745Y5765D01*
X27692Y5801D01*
X27630Y5813D01*
D02*
G37*
G36*
X-155Y999D02*
X-233Y983D01*
X-299Y939D01*
X-344Y873D01*
X-359Y795D01*
X-344Y717D01*
X-299Y651D01*
X-233Y606D01*
X-155Y591D01*
X-77Y606D01*
X-11Y651D01*
X33Y717D01*
X49Y795D01*
X33Y873D01*
X-11Y939D01*
X-77Y983D01*
X-155Y999D01*
D02*
G37*
G36*
X25820Y973D02*
X25758Y961D01*
X25705Y925D01*
X25669Y872D01*
X25657Y810D01*
X25669Y748D01*
X25705Y695D01*
X25758Y659D01*
X25820Y647D01*
X25882Y659D01*
X25935Y695D01*
X25971Y748D01*
X25983Y810D01*
X25971Y872D01*
X25935Y925D01*
X25882Y961D01*
X25820Y973D01*
D02*
G37*
G36*
X37330Y944D02*
X37252Y928D01*
X37186Y884D01*
X37142Y818D01*
X37126Y740D01*
X37142Y662D01*
X37186Y596D01*
X37252Y552D01*
X37330Y536D01*
X37408Y552D01*
X37474Y596D01*
X37518Y662D01*
X37534Y740D01*
X37518Y818D01*
X37474Y884D01*
X37408Y928D01*
X37330Y944D01*
D02*
G37*
G36*
X35160Y763D02*
X35098Y751D01*
X35045Y715D01*
X35009Y662D01*
X34997Y600D01*
X35009Y538D01*
X35045Y485D01*
X35098Y449D01*
X35160Y437D01*
X35222Y449D01*
X35275Y485D01*
X35311Y538D01*
X35323Y600D01*
X35311Y662D01*
X35275Y715D01*
X35222Y751D01*
X35160Y763D01*
D02*
G37*
G36*
X-771Y833D02*
X-833Y821D01*
X-886Y785D01*
X-921Y732D01*
X-934Y670D01*
X-921Y608D01*
X-886Y555D01*
X-833Y519D01*
X-771Y507D01*
X-708Y519D01*
X-655Y555D01*
X-620Y608D01*
X-607Y670D01*
X-620Y732D01*
X-655Y785D01*
X-708Y821D01*
X-771Y833D01*
D02*
G37*
G36*
X30850Y1129D02*
X30772Y1113D01*
X30706Y1069D01*
X30662Y1003D01*
X30646Y925D01*
X30662Y847D01*
X30706Y781D01*
X30772Y737D01*
X30850Y721D01*
X30928Y737D01*
X30994Y781D01*
X31038Y847D01*
X31039Y850D01*
X31089Y850D01*
X31089Y848D01*
X31125Y795D01*
X31178Y759D01*
X31240Y747D01*
X31302Y759D01*
X31355Y795D01*
X31391Y848D01*
X31403Y910D01*
X31391Y972D01*
X31355Y1025D01*
X31302Y1061D01*
X31240Y1073D01*
X31178Y1061D01*
X31125Y1025D01*
X31091Y975D01*
X31042Y985D01*
X31038Y1003D01*
X30994Y1069D01*
X30928Y1113D01*
X30850Y1129D01*
D02*
G37*
G36*
X15040Y1363D02*
X14978Y1351D01*
X14925Y1315D01*
X14889Y1262D01*
X14877Y1200D01*
X14889Y1138D01*
X14925Y1085D01*
X14978Y1049D01*
X15040Y1037D01*
X15102Y1049D01*
X15155Y1085D01*
X15191Y1138D01*
X15203Y1200D01*
X15191Y1262D01*
X15155Y1315D01*
X15102Y1351D01*
X15040Y1363D01*
D02*
G37*
G36*
X26550Y1413D02*
X26488Y1401D01*
X26435Y1365D01*
X26399Y1312D01*
X26387Y1250D01*
X26399Y1188D01*
X26435Y1135D01*
X26488Y1099D01*
X26550Y1087D01*
X26612Y1099D01*
X26665Y1135D01*
X26701Y1188D01*
X26713Y1250D01*
X26701Y1312D01*
X26665Y1365D01*
X26612Y1401D01*
X26550Y1413D01*
D02*
G37*
G36*
X33880Y1263D02*
X33818Y1251D01*
X33765Y1215D01*
X33729Y1162D01*
X33717Y1100D01*
X33729Y1038D01*
X33765Y985D01*
X33818Y949D01*
X33880Y937D01*
X33942Y949D01*
X33995Y985D01*
X34031Y1038D01*
X34043Y1100D01*
X34031Y1162D01*
X33995Y1215D01*
X33942Y1251D01*
X33880Y1263D01*
D02*
G37*
G36*
X6185Y1239D02*
X6107Y1223D01*
X6041Y1179D01*
X5996Y1113D01*
X5981Y1035D01*
X5996Y957D01*
X6041Y891D01*
X6107Y846D01*
X6185Y831D01*
X6263Y846D01*
X6329Y891D01*
X6373Y957D01*
X6389Y1035D01*
X6373Y1113D01*
X6329Y1179D01*
X6263Y1223D01*
X6185Y1239D01*
D02*
G37*
G36*
X35050Y1253D02*
X34988Y1241D01*
X34935Y1205D01*
X34899Y1152D01*
X34887Y1090D01*
X34899Y1028D01*
X34935Y975D01*
X34988Y939D01*
X35050Y927D01*
X35112Y939D01*
X35165Y975D01*
X35201Y1028D01*
X35213Y1090D01*
X35201Y1152D01*
X35165Y1205D01*
X35112Y1241D01*
X35050Y1253D01*
D02*
G37*
G36*
X7715Y319D02*
X7637Y303D01*
X7571Y259D01*
X7526Y193D01*
X7511Y115D01*
X7526Y37D01*
X7571Y-29D01*
X7637Y-74D01*
X7715Y-89D01*
X7793Y-74D01*
X7859Y-29D01*
X7903Y37D01*
X7919Y115D01*
X7903Y193D01*
X7859Y259D01*
X7793Y303D01*
X7715Y319D01*
D02*
G37*
G36*
X19255D02*
X19177Y303D01*
X19111Y259D01*
X19066Y193D01*
X19051Y115D01*
X19066Y37D01*
X19111Y-29D01*
X19177Y-74D01*
X19255Y-89D01*
X19333Y-74D01*
X19399Y-29D01*
X19443Y37D01*
X19459Y115D01*
X19443Y193D01*
X19399Y259D01*
X19333Y303D01*
X19255Y319D01*
D02*
G37*
G36*
X31438Y180D02*
X31376Y168D01*
X31323Y132D01*
X31288Y79D01*
X31275Y17D01*
X31288Y-46D01*
X31323Y-99D01*
X31376Y-134D01*
X31438Y-146D01*
X31501Y-134D01*
X31554Y-99D01*
X31589Y-46D01*
X31602Y17D01*
X31589Y79D01*
X31554Y132D01*
X31501Y168D01*
X31438Y180D01*
D02*
G37*
G36*
X15075Y199D02*
X14997Y183D01*
X14931Y139D01*
X14886Y73D01*
X14871Y-5D01*
X14886Y-83D01*
X14931Y-149D01*
X14997Y-194D01*
X15075Y-209D01*
X15153Y-194D01*
X15219Y-149D01*
X15263Y-83D01*
X15279Y-5D01*
X15263Y73D01*
X15219Y139D01*
X15153Y183D01*
X15075Y199D01*
D02*
G37*
G36*
X30850Y153D02*
X30788Y141D01*
X30735Y105D01*
X30699Y52D01*
X30687Y-10D01*
X30699Y-72D01*
X30735Y-125D01*
X30788Y-161D01*
X30850Y-173D01*
X30912Y-161D01*
X30965Y-125D01*
X31001Y-72D01*
X31013Y-10D01*
X31001Y52D01*
X30965Y105D01*
X30912Y141D01*
X30850Y153D01*
D02*
G37*
G36*
X33870Y253D02*
X33808Y241D01*
X33755Y205D01*
X33719Y152D01*
X33707Y90D01*
X33719Y28D01*
X33755Y-25D01*
X33808Y-61D01*
X33870Y-73D01*
X33932Y-61D01*
X33985Y-25D01*
X34021Y28D01*
X34033Y90D01*
X34021Y152D01*
X33985Y205D01*
X33932Y241D01*
X33870Y253D01*
D02*
G37*
G36*
X2436Y814D02*
X2358Y798D01*
X2292Y754D01*
X2248Y688D01*
X2232Y610D01*
X2248Y532D01*
X2292Y466D01*
X2358Y421D01*
X2436Y406D01*
X2514Y421D01*
X2580Y466D01*
X2625Y532D01*
X2640Y610D01*
X2625Y688D01*
X2580Y754D01*
X2514Y798D01*
X2436Y814D01*
D02*
G37*
G36*
X23630Y763D02*
X23568Y751D01*
X23515Y715D01*
X23479Y662D01*
X23467Y600D01*
X23479Y538D01*
X23515Y485D01*
X23568Y449D01*
X23630Y437D01*
X23692Y449D01*
X23745Y485D01*
X23781Y538D01*
X23793Y600D01*
X23781Y662D01*
X23745Y715D01*
X23692Y751D01*
X23630Y763D01*
D02*
G37*
G36*
X4900Y653D02*
X4838Y641D01*
X4785Y605D01*
X4749Y552D01*
X4737Y490D01*
X4749Y428D01*
X4785Y375D01*
X4838Y339D01*
X4900Y327D01*
X4962Y339D01*
X5015Y375D01*
X5051Y428D01*
X5063Y490D01*
X5051Y552D01*
X5015Y605D01*
X4962Y641D01*
X4900Y653D01*
D02*
G37*
G36*
X23630Y263D02*
X23568Y251D01*
X23515Y215D01*
X23479Y162D01*
X23467Y100D01*
X23479Y38D01*
X23515Y-15D01*
X23568Y-51D01*
X23630Y-63D01*
X23692Y-51D01*
X23745Y-15D01*
X23781Y38D01*
X23793Y100D01*
X23781Y162D01*
X23745Y215D01*
X23692Y251D01*
X23630Y263D01*
D02*
G37*
G36*
X32070Y393D02*
X32008Y381D01*
X31955Y345D01*
X31919Y292D01*
X31907Y230D01*
X31919Y168D01*
X31955Y115D01*
X32008Y79D01*
X32070Y67D01*
X32132Y79D01*
X32185Y115D01*
X32221Y168D01*
X32233Y230D01*
X32221Y292D01*
X32185Y345D01*
X32132Y381D01*
X32070Y393D01*
D02*
G37*
G36*
X38090Y1423D02*
X38028Y1411D01*
X37975Y1375D01*
X37939Y1322D01*
X37927Y1260D01*
X37939Y1198D01*
X37975Y1145D01*
X38028Y1109D01*
X38090Y1097D01*
X38152Y1109D01*
X38205Y1145D01*
X38241Y1198D01*
X38253Y1260D01*
X38241Y1322D01*
X38205Y1375D01*
X38152Y1411D01*
X38090Y1423D01*
D02*
G37*
G36*
X27595Y2938D02*
X27532Y2926D01*
X27479Y2890D01*
X27444Y2837D01*
X27432Y2775D01*
X27444Y2712D01*
X27479Y2659D01*
X27532Y2624D01*
X27595Y2612D01*
X27657Y2624D01*
X27710Y2659D01*
X27746Y2712D01*
X27758Y2775D01*
X27746Y2837D01*
X27710Y2890D01*
X27657Y2926D01*
X27595Y2938D01*
D02*
G37*
G36*
X4215Y3038D02*
X4152Y3026D01*
X4099Y2990D01*
X4064Y2937D01*
X4052Y2875D01*
X4064Y2812D01*
X4099Y2759D01*
X4152Y2724D01*
X4215Y2712D01*
X4277Y2724D01*
X4330Y2759D01*
X4366Y2812D01*
X4378Y2875D01*
X4366Y2937D01*
X4330Y2990D01*
X4277Y3026D01*
X4215Y3038D01*
D02*
G37*
G36*
X39055Y2969D02*
X38977Y2953D01*
X38911Y2909D01*
X38866Y2843D01*
X38851Y2765D01*
X38866Y2687D01*
X38911Y2621D01*
X38977Y2576D01*
X39055Y2561D01*
X39133Y2576D01*
X39199Y2621D01*
X39243Y2687D01*
X39259Y2765D01*
X39243Y2843D01*
X39199Y2909D01*
X39133Y2953D01*
X39055Y2969D01*
D02*
G37*
G36*
X23660Y2793D02*
X23598Y2781D01*
X23545Y2745D01*
X23509Y2692D01*
X23497Y2630D01*
X23509Y2568D01*
X23545Y2515D01*
X23598Y2479D01*
X23660Y2467D01*
X23722Y2479D01*
X23775Y2515D01*
X23811Y2568D01*
X23823Y2630D01*
X23811Y2692D01*
X23775Y2745D01*
X23722Y2781D01*
X23660Y2793D01*
D02*
G37*
G36*
X12190Y2853D02*
X12128Y2841D01*
X12075Y2805D01*
X12039Y2752D01*
X12027Y2690D01*
X12039Y2628D01*
X12075Y2575D01*
X12128Y2539D01*
X12190Y2527D01*
X12252Y2539D01*
X12305Y2575D01*
X12341Y2628D01*
X12353Y2690D01*
X12341Y2752D01*
X12305Y2805D01*
X12252Y2841D01*
X12190Y2853D01*
D02*
G37*
G36*
X33140Y3103D02*
X33078Y3091D01*
X33025Y3055D01*
X32989Y3002D01*
X32977Y2940D01*
X32989Y2878D01*
X33025Y2825D01*
X33078Y2789D01*
X33140Y2777D01*
X33202Y2789D01*
X33255Y2825D01*
X33291Y2878D01*
X33303Y2940D01*
X33291Y3002D01*
X33255Y3055D01*
X33202Y3091D01*
X33140Y3103D01*
D02*
G37*
G36*
X-3075Y3679D02*
X-3153Y3663D01*
X-3219Y3619D01*
X-3264Y3553D01*
X-3279Y3475D01*
X-3264Y3397D01*
X-3219Y3331D01*
X-3153Y3286D01*
X-3075Y3271D01*
X-2997Y3286D01*
X-2931Y3331D01*
X-2887Y3397D01*
X-2871Y3475D01*
X-2887Y3553D01*
X-2931Y3619D01*
X-2997Y3663D01*
X-3075Y3679D01*
D02*
G37*
G36*
X22970Y3623D02*
X22908Y3611D01*
X22855Y3575D01*
X22819Y3522D01*
X22807Y3460D01*
X22819Y3398D01*
X22855Y3345D01*
X22908Y3309D01*
X22970Y3297D01*
X23032Y3309D01*
X23085Y3345D01*
X23121Y3398D01*
X23133Y3460D01*
X23121Y3522D01*
X23085Y3575D01*
X23032Y3611D01*
X22970Y3623D01*
D02*
G37*
G36*
X10350Y3543D02*
X10288Y3531D01*
X10235Y3495D01*
X10199Y3442D01*
X10187Y3380D01*
X10199Y3318D01*
X10235Y3265D01*
X10288Y3229D01*
X10350Y3217D01*
X10412Y3229D01*
X10465Y3265D01*
X10501Y3318D01*
X10513Y3380D01*
X10501Y3442D01*
X10465Y3495D01*
X10412Y3531D01*
X10350Y3543D01*
D02*
G37*
G36*
X34490Y3213D02*
X34428Y3201D01*
X34375Y3165D01*
X34339Y3112D01*
X34327Y3050D01*
X34339Y2988D01*
X34375Y2935D01*
X34428Y2899D01*
X34490Y2887D01*
X34552Y2899D01*
X34605Y2935D01*
X34641Y2988D01*
X34653Y3050D01*
X34641Y3112D01*
X34605Y3165D01*
X34552Y3201D01*
X34490Y3213D01*
D02*
G37*
G36*
X18425Y3619D02*
X18347Y3603D01*
X18281Y3559D01*
X18236Y3493D01*
X18221Y3415D01*
X18236Y3337D01*
X18281Y3271D01*
X18347Y3226D01*
X18425Y3211D01*
X18503Y3226D01*
X18569Y3271D01*
X18613Y3337D01*
X18629Y3415D01*
X18613Y3493D01*
X18569Y3559D01*
X18503Y3603D01*
X18425Y3619D01*
D02*
G37*
G36*
X15915Y1749D02*
X15837Y1733D01*
X15771Y1689D01*
X15726Y1623D01*
X15711Y1545D01*
X15726Y1467D01*
X15771Y1401D01*
X15837Y1356D01*
X15915Y1341D01*
X15993Y1356D01*
X16059Y1401D01*
X16103Y1467D01*
X16119Y1545D01*
X16103Y1623D01*
X16059Y1689D01*
X15993Y1733D01*
X15915Y1749D01*
D02*
G37*
G36*
X33030Y1773D02*
X32968Y1761D01*
X32915Y1725D01*
X32879Y1672D01*
X32867Y1610D01*
X32879Y1548D01*
X32915Y1495D01*
X32968Y1459D01*
X33030Y1447D01*
X33092Y1459D01*
X33145Y1495D01*
X33181Y1548D01*
X33193Y1610D01*
X33181Y1672D01*
X33145Y1725D01*
X33092Y1761D01*
X33030Y1773D01*
D02*
G37*
G36*
X2445Y1749D02*
X2367Y1733D01*
X2301Y1689D01*
X2256Y1623D01*
X2241Y1545D01*
X2256Y1467D01*
X2301Y1401D01*
X2367Y1356D01*
X2445Y1341D01*
X2523Y1356D01*
X2589Y1401D01*
X2633Y1467D01*
X2649Y1545D01*
X2633Y1623D01*
X2589Y1689D01*
X2523Y1733D01*
X2445Y1749D01*
D02*
G37*
G36*
X4275Y1558D02*
X4212Y1546D01*
X4159Y1510D01*
X4124Y1457D01*
X4112Y1395D01*
X4124Y1332D01*
X4159Y1279D01*
X4212Y1244D01*
X4275Y1232D01*
X4337Y1244D01*
X4390Y1279D01*
X4426Y1332D01*
X4438Y1395D01*
X4426Y1457D01*
X4390Y1510D01*
X4337Y1546D01*
X4275Y1558D01*
D02*
G37*
G36*
X31340Y1653D02*
X31278Y1641D01*
X31225Y1605D01*
X31189Y1552D01*
X31177Y1490D01*
X31189Y1428D01*
X31225Y1375D01*
X31278Y1339D01*
X31340Y1327D01*
X31402Y1339D01*
X31455Y1375D01*
X31491Y1428D01*
X31503Y1490D01*
X31491Y1552D01*
X31455Y1605D01*
X31402Y1641D01*
X31340Y1653D01*
D02*
G37*
G36*
X37640Y1843D02*
X37578Y1831D01*
X37525Y1795D01*
X37489Y1742D01*
X37477Y1680D01*
X37489Y1618D01*
X37525Y1565D01*
X37578Y1529D01*
X37640Y1517D01*
X37702Y1529D01*
X37755Y1565D01*
X37791Y1618D01*
X37803Y1680D01*
X37791Y1742D01*
X37755Y1795D01*
X37702Y1831D01*
X37640Y1843D01*
D02*
G37*
G36*
X35180Y2113D02*
X35118Y2101D01*
X35065Y2065D01*
X35029Y2012D01*
X35017Y1950D01*
X35029Y1888D01*
X35065Y1835D01*
X35118Y1799D01*
X35180Y1787D01*
X35242Y1799D01*
X35295Y1835D01*
X35331Y1888D01*
X35343Y1950D01*
X35331Y2012D01*
X35295Y2065D01*
X35242Y2101D01*
X35180Y2113D01*
D02*
G37*
G36*
X4275Y2538D02*
X4212Y2526D01*
X4159Y2490D01*
X4124Y2437D01*
X4112Y2375D01*
X4124Y2312D01*
X4159Y2259D01*
X4212Y2224D01*
X4275Y2212D01*
X4337Y2224D01*
X4390Y2259D01*
X4426Y2312D01*
X4438Y2375D01*
X4426Y2437D01*
X4390Y2490D01*
X4337Y2526D01*
X4275Y2538D01*
D02*
G37*
G36*
X33470Y2113D02*
X33408Y2101D01*
X33355Y2065D01*
X33319Y2012D01*
X33307Y1950D01*
X33319Y1888D01*
X33355Y1835D01*
X33408Y1799D01*
X33470Y1787D01*
X33532Y1799D01*
X33585Y1835D01*
X33621Y1888D01*
X33633Y1950D01*
X33621Y2012D01*
X33585Y2065D01*
X33532Y2101D01*
X33470Y2113D01*
D02*
G37*
G36*
X3810Y1893D02*
X3748Y1881D01*
X3695Y1845D01*
X3659Y1792D01*
X3647Y1730D01*
X3659Y1668D01*
X3695Y1615D01*
X3748Y1579D01*
X3810Y1567D01*
X3872Y1579D01*
X3925Y1615D01*
X3961Y1668D01*
X3973Y1730D01*
X3961Y1792D01*
X3925Y1845D01*
X3872Y1881D01*
X3810Y1893D01*
D02*
G37*
G36*
X4275Y2038D02*
X4212Y2026D01*
X4159Y1990D01*
X4124Y1937D01*
X4112Y1875D01*
X4124Y1812D01*
X4159Y1759D01*
X4212Y1724D01*
X4275Y1712D01*
X4337Y1724D01*
X4390Y1759D01*
X4426Y1812D01*
X4438Y1875D01*
X4426Y1937D01*
X4390Y1990D01*
X4337Y2026D01*
X4275Y2038D01*
D02*
G37*
G36*
X25400Y12763D02*
X25338Y12751D01*
X25285Y12715D01*
X25249Y12662D01*
X25237Y12600D01*
X25249Y12538D01*
X25285Y12485D01*
X25338Y12449D01*
X25400Y12437D01*
X25462Y12449D01*
X25515Y12485D01*
X25551Y12538D01*
X25563Y12600D01*
X25551Y12662D01*
X25515Y12715D01*
X25462Y12751D01*
X25400Y12763D01*
D02*
G37*
G36*
X15910Y12883D02*
X15848Y12871D01*
X15795Y12835D01*
X15759Y12782D01*
X15747Y12720D01*
X15759Y12658D01*
X15795Y12605D01*
X15848Y12569D01*
X15910Y12557D01*
X15972Y12569D01*
X16025Y12605D01*
X16061Y12658D01*
X16073Y12720D01*
X16061Y12782D01*
X16025Y12835D01*
X15972Y12871D01*
X15910Y12883D01*
D02*
G37*
G36*
X-1225Y12329D02*
X-1303Y12313D01*
X-1369Y12269D01*
X-1394Y12232D01*
X-1444D01*
X-1466Y12264D01*
X-1532Y12308D01*
X-1610Y12324D01*
X-1688Y12308D01*
X-1754Y12264D01*
X-1798Y12198D01*
X-1814Y12120D01*
X-1798Y12042D01*
X-1754Y11976D01*
X-1688Y11932D01*
X-1610Y11916D01*
X-1532Y11932D01*
X-1466Y11976D01*
X-1441Y12013D01*
X-1391D01*
X-1369Y11981D01*
X-1303Y11936D01*
X-1259Y11928D01*
X-737Y11405D01*
X-751Y11358D01*
X-773Y11353D01*
X-839Y11309D01*
X-884Y11243D01*
X-899Y11165D01*
X-884Y11087D01*
X-839Y11021D01*
X-773Y10976D01*
X-695Y10961D01*
X-617Y10976D01*
X-551Y11021D01*
X-507Y11087D01*
X-502Y11109D01*
X-484Y11136D01*
X-457Y11154D01*
X-408Y11145D01*
X-408Y11145D01*
X83D01*
X88Y11095D01*
X68Y11091D01*
X15Y11055D01*
X-21Y11002D01*
X-33Y10940D01*
X-21Y10878D01*
X15Y10825D01*
X68Y10789D01*
X130Y10777D01*
X192Y10789D01*
X245Y10825D01*
X281Y10878D01*
X293Y10940D01*
X281Y11002D01*
X245Y11055D01*
X192Y11091D01*
X172Y11095D01*
X177Y11145D01*
X518D01*
X580Y11157D01*
X633Y11192D01*
X865Y11425D01*
X901Y11478D01*
X913Y11540D01*
X901Y11602D01*
X865Y11655D01*
X812Y11691D01*
X750Y11703D01*
X688Y11691D01*
X635Y11655D01*
X450Y11471D01*
X-341D01*
X-841Y11971D01*
X-836Y12021D01*
X-815Y12035D01*
X-779Y12088D01*
X-767Y12150D01*
X-779Y12212D01*
X-815Y12265D01*
X-868Y12301D01*
X-930Y12313D01*
X-992Y12301D01*
X-1045Y12265D01*
X-1079D01*
X-1081Y12269D01*
X-1147Y12313D01*
X-1225Y12329D01*
D02*
G37*
G36*
X13050Y12393D02*
X12988Y12381D01*
X12935Y12345D01*
X12899Y12292D01*
X12887Y12230D01*
X12899Y12168D01*
X12935Y12115D01*
X12988Y12079D01*
X13050Y12067D01*
X13112Y12079D01*
X13165Y12115D01*
X13201Y12168D01*
X13213Y12230D01*
X13201Y12292D01*
X13165Y12345D01*
X13112Y12381D01*
X13050Y12393D01*
D02*
G37*
G36*
X40536Y12795D02*
X40443Y12782D01*
X40356Y12747D01*
X40282Y12690D01*
X40225Y12615D01*
X40189Y12529D01*
X40177Y12436D01*
X40189Y12343D01*
X40225Y12257D01*
X40282Y12182D01*
X40356Y12125D01*
X40443Y12089D01*
X40536Y12077D01*
X40629Y12089D01*
X40715Y12125D01*
X40789Y12182D01*
X40846Y12257D01*
X40882Y12343D01*
X40894Y12436D01*
X40882Y12529D01*
X40846Y12615D01*
X40789Y12690D01*
X40715Y12747D01*
X40629Y12782D01*
X40536Y12795D01*
D02*
G37*
G36*
X33215Y13409D02*
X33137Y13393D01*
X33071Y13349D01*
X33026Y13283D01*
X33011Y13205D01*
X33026Y13127D01*
X33071Y13061D01*
X33137Y13016D01*
X33215Y13001D01*
X33293Y13016D01*
X33359Y13061D01*
X33403Y13127D01*
X33419Y13205D01*
X33403Y13283D01*
X33359Y13349D01*
X33293Y13393D01*
X33215Y13409D01*
D02*
G37*
G36*
X21685Y13393D02*
X21613Y13379D01*
X21551Y13338D01*
X21511Y13277D01*
X21496Y13205D01*
X21511Y13133D01*
X21551Y13071D01*
X21613Y13031D01*
X21685Y13016D01*
X21757Y13031D01*
X21818Y13071D01*
X21859Y13133D01*
X21873Y13205D01*
X21859Y13277D01*
X21818Y13338D01*
X21757Y13379D01*
X21685Y13393D01*
D02*
G37*
G36*
X10145Y13409D02*
X10067Y13393D01*
X10001Y13349D01*
X9956Y13283D01*
X9941Y13205D01*
X9956Y13127D01*
X10001Y13061D01*
X10067Y13016D01*
X10145Y13001D01*
X10223Y13016D01*
X10289Y13061D01*
X10333Y13127D01*
X10349Y13205D01*
X10333Y13283D01*
X10289Y13349D01*
X10223Y13393D01*
X10145Y13409D01*
D02*
G37*
G36*
X-2035Y13189D02*
X-2113Y13173D01*
X-2179Y13129D01*
X-2224Y13063D01*
X-2239Y12985D01*
X-2224Y12907D01*
X-2179Y12841D01*
X-2113Y12796D01*
X-2035Y12781D01*
X-1957Y12796D01*
X-1891Y12841D01*
X-1847Y12907D01*
X-1831Y12985D01*
X-1847Y13063D01*
X-1891Y13129D01*
X-1957Y13173D01*
X-2035Y13189D01*
D02*
G37*
G36*
X2515Y13209D02*
X2437Y13193D01*
X2371Y13149D01*
X2326Y13083D01*
X2311Y13005D01*
X2326Y12927D01*
X2371Y12861D01*
X2437Y12816D01*
X2515Y12801D01*
X2593Y12816D01*
X2659Y12861D01*
X2703Y12927D01*
X2719Y13005D01*
X2703Y13083D01*
X2659Y13149D01*
X2593Y13193D01*
X2515Y13209D01*
D02*
G37*
G36*
X-341Y12373D02*
X-403Y12360D01*
X-456Y12325D01*
X-491Y12272D01*
X-504Y12209D01*
X-491Y12147D01*
X-456Y12094D01*
X-403Y12059D01*
X-341Y12046D01*
X-278Y12059D01*
X-225Y12094D01*
X-190Y12147D01*
X-178Y12209D01*
X-190Y12272D01*
X-225Y12325D01*
X-278Y12360D01*
X-341Y12373D01*
D02*
G37*
G36*
X-3350Y11693D02*
X-3413Y11681D01*
X-3465Y11645D01*
X-3501Y11592D01*
X-3513Y11530D01*
X-3501Y11468D01*
X-3465Y11415D01*
X-3413Y11379D01*
X-3350Y11367D01*
X-3288Y11379D01*
X-3235Y11415D01*
X-3199Y11468D01*
X-3187Y11530D01*
X-3199Y11592D01*
X-3235Y11645D01*
X-3288Y11681D01*
X-3350Y11693D01*
D02*
G37*
G36*
X26920Y11733D02*
X26858Y11721D01*
X26805Y11685D01*
X26769Y11632D01*
X26757Y11570D01*
X26769Y11508D01*
X26805Y11455D01*
X26858Y11419D01*
X26920Y11407D01*
X26982Y11419D01*
X27035Y11455D01*
X27071Y11508D01*
X27083Y11570D01*
X27071Y11632D01*
X27035Y11685D01*
X26982Y11721D01*
X26920Y11733D01*
D02*
G37*
G36*
X40536Y12007D02*
X40443Y11995D01*
X40356Y11959D01*
X40282Y11902D01*
X40225Y11828D01*
X40189Y11741D01*
X40177Y11648D01*
X40189Y11556D01*
X40225Y11469D01*
X40282Y11395D01*
X40356Y11338D01*
X40443Y11302D01*
X40536Y11290D01*
X40629Y11302D01*
X40715Y11338D01*
X40789Y11395D01*
X40846Y11469D01*
X40882Y11556D01*
X40894Y11648D01*
X40882Y11741D01*
X40846Y11828D01*
X40789Y11902D01*
X40715Y11959D01*
X40629Y11995D01*
X40536Y12007D01*
D02*
G37*
G36*
X19175Y11523D02*
X19103Y11509D01*
X19041Y11468D01*
X19001Y11407D01*
X18986Y11335D01*
X19001Y11263D01*
X19041Y11201D01*
X19103Y11161D01*
X19175Y11146D01*
X19247Y11161D01*
X19308Y11201D01*
X19349Y11263D01*
X19363Y11335D01*
X19349Y11407D01*
X19308Y11468D01*
X19247Y11509D01*
X19175Y11523D01*
D02*
G37*
G36*
X13145Y11561D02*
X13082Y11549D01*
X13029Y11513D01*
X12994Y11460D01*
X12982Y11398D01*
X12994Y11336D01*
X13029Y11283D01*
X13082Y11247D01*
X13145Y11235D01*
X13207Y11247D01*
X13260Y11283D01*
X13296Y11336D01*
X13308Y11398D01*
X13296Y11460D01*
X13260Y11513D01*
X13207Y11549D01*
X13145Y11561D01*
D02*
G37*
G36*
X9995Y12168D02*
X9932Y12156D01*
X9879Y12120D01*
X9844Y12067D01*
X9832Y12005D01*
X9844Y11942D01*
X9879Y11889D01*
X9932Y11854D01*
X9995Y11842D01*
X10057Y11854D01*
X10110Y11889D01*
X10146Y11942D01*
X10158Y12005D01*
X10146Y12067D01*
X10110Y12120D01*
X10057Y12156D01*
X9995Y12168D01*
D02*
G37*
G36*
X36540Y11993D02*
X36478Y11981D01*
X36425Y11945D01*
X36385D01*
X36332Y11981D01*
X36270Y11993D01*
X36208Y11981D01*
X36155Y11945D01*
X36119Y11892D01*
X36107Y11830D01*
X36119Y11768D01*
X36155Y11715D01*
X36208Y11679D01*
X36270Y11667D01*
X36332Y11679D01*
X36385Y11715D01*
X36425D01*
X36478Y11679D01*
X36540Y11667D01*
X36602Y11679D01*
X36655Y11715D01*
X36691Y11768D01*
X36703Y11830D01*
X36691Y11892D01*
X36655Y11945D01*
X36602Y11981D01*
X36540Y11993D01*
D02*
G37*
G36*
X21525Y12158D02*
X21462Y12146D01*
X21409Y12110D01*
X21374Y12057D01*
X21362Y11995D01*
X21374Y11932D01*
X21409Y11879D01*
X21462Y11844D01*
X21525Y11832D01*
X21587Y11844D01*
X21640Y11879D01*
X21676Y11932D01*
X21688Y11995D01*
X21676Y12057D01*
X21640Y12110D01*
X21587Y12146D01*
X21525Y12158D01*
D02*
G37*
G36*
X31455Y11949D02*
X31377Y11933D01*
X31311Y11889D01*
X31266Y11823D01*
X31251Y11745D01*
X31266Y11667D01*
X31311Y11601D01*
X31377Y11556D01*
X31455Y11541D01*
X31533Y11556D01*
X31599Y11601D01*
X31643Y11667D01*
X31659Y11745D01*
X31643Y11823D01*
X31599Y11889D01*
X31533Y11933D01*
X31455Y11949D01*
D02*
G37*
G36*
X1170Y12048D02*
X1108Y12036D01*
X1055Y12000D01*
X1019Y11947D01*
X1007Y11885D01*
X1019Y11822D01*
X1055Y11769D01*
X1108Y11734D01*
X1170Y11722D01*
X1232Y11734D01*
X1285Y11769D01*
X1321Y11822D01*
X1333Y11885D01*
X1321Y11947D01*
X1285Y12000D01*
X1232Y12036D01*
X1170Y12048D01*
D02*
G37*
G36*
X14623Y13649D02*
X14544Y13633D01*
X14478Y13589D01*
X14434Y13523D01*
X14419Y13445D01*
X14434Y13367D01*
X14478Y13301D01*
X14544Y13256D01*
X14623Y13241D01*
X14701Y13256D01*
X14767Y13301D01*
X14811Y13367D01*
X14826Y13445D01*
X14811Y13523D01*
X14767Y13589D01*
X14701Y13633D01*
X14623Y13649D01*
D02*
G37*
G36*
X29885Y14823D02*
X29813Y14809D01*
X29751Y14768D01*
X29711Y14707D01*
X29696Y14635D01*
X29711Y14563D01*
X29751Y14501D01*
X29813Y14461D01*
X29885Y14446D01*
X29957Y14461D01*
X30018Y14501D01*
X30059Y14563D01*
X30073Y14635D01*
X30059Y14707D01*
X30018Y14768D01*
X29957Y14809D01*
X29885Y14823D01*
D02*
G37*
G36*
X25400Y14803D02*
X25338Y14791D01*
X25285Y14755D01*
X25249Y14702D01*
X25237Y14640D01*
X25249Y14578D01*
X25285Y14525D01*
X25338Y14489D01*
X25400Y14477D01*
X25462Y14489D01*
X25515Y14525D01*
X25551Y14578D01*
X25563Y14640D01*
X25551Y14702D01*
X25515Y14755D01*
X25462Y14791D01*
X25400Y14803D01*
D02*
G37*
G36*
X5515Y14819D02*
X5437Y14803D01*
X5371Y14759D01*
X5326Y14693D01*
X5311Y14615D01*
X5326Y14537D01*
X5371Y14471D01*
X5437Y14426D01*
X5515Y14411D01*
X5593Y14426D01*
X5659Y14471D01*
X5703Y14537D01*
X5719Y14615D01*
X5703Y14693D01*
X5659Y14759D01*
X5593Y14803D01*
X5515Y14819D01*
D02*
G37*
G36*
X39905Y14918D02*
X39798Y14904D01*
X39698Y14863D01*
X39612Y14797D01*
X39547Y14712D01*
X39505Y14612D01*
X39491Y14505D01*
X39505Y14398D01*
X39547Y14298D01*
X39612Y14212D01*
X39698Y14147D01*
X39798Y14105D01*
X39905Y14091D01*
X40012Y14105D01*
X40112Y14147D01*
X40197Y14212D01*
X40263Y14298D01*
X40304Y14398D01*
X40318Y14505D01*
X40304Y14612D01*
X40263Y14712D01*
X40197Y14797D01*
X40112Y14863D01*
X40012Y14904D01*
X39905Y14918D01*
D02*
G37*
G36*
X38905D02*
X38798Y14904D01*
X38698Y14863D01*
X38612Y14797D01*
X38547Y14712D01*
X38505Y14612D01*
X38491Y14505D01*
X38505Y14398D01*
X38547Y14298D01*
X38564Y14276D01*
X38530Y14239D01*
X38482Y14271D01*
X38420Y14283D01*
X38358Y14271D01*
X38305Y14235D01*
X38269Y14182D01*
X38257Y14120D01*
X38269Y14058D01*
X38305Y14005D01*
X38358Y13969D01*
X38420Y13957D01*
X38482Y13969D01*
X38535Y14005D01*
X38571Y14058D01*
X38583Y14120D01*
X38571Y14182D01*
X38559Y14199D01*
X38600Y14228D01*
X38612Y14212D01*
X38698Y14147D01*
X38798Y14105D01*
X38905Y14091D01*
X39012Y14105D01*
X39112Y14147D01*
X39197Y14212D01*
X39263Y14298D01*
X39304Y14398D01*
X39318Y14505D01*
X39304Y14612D01*
X39263Y14712D01*
X39197Y14797D01*
X39112Y14863D01*
X39012Y14904D01*
X38905Y14918D01*
D02*
G37*
G36*
X34055Y14959D02*
X33977Y14943D01*
X33911Y14899D01*
X33866Y14833D01*
X33851Y14755D01*
X33866Y14677D01*
X33911Y14611D01*
X33977Y14566D01*
X34055Y14551D01*
X34133Y14566D01*
X34199Y14611D01*
X34243Y14677D01*
X34259Y14755D01*
X34243Y14833D01*
X34199Y14899D01*
X34133Y14943D01*
X34055Y14959D01*
D02*
G37*
G36*
X22515Y14943D02*
X22443Y14929D01*
X22381Y14888D01*
X22341Y14827D01*
X22326Y14755D01*
X22341Y14683D01*
X22381Y14621D01*
X22443Y14581D01*
X22515Y14566D01*
X22587Y14581D01*
X22648Y14621D01*
X22689Y14683D01*
X22703Y14755D01*
X22689Y14827D01*
X22648Y14888D01*
X22587Y14929D01*
X22515Y14943D01*
D02*
G37*
G36*
X18225Y14959D02*
X18147Y14943D01*
X18081Y14899D01*
X18036Y14833D01*
X18021Y14755D01*
X18036Y14677D01*
X18081Y14611D01*
X18147Y14566D01*
X18225Y14551D01*
X18303Y14566D01*
X18369Y14611D01*
X18413Y14677D01*
X18429Y14755D01*
X18413Y14833D01*
X18369Y14899D01*
X18303Y14943D01*
X18225Y14959D01*
D02*
G37*
G36*
X36980Y14813D02*
X36918Y14801D01*
X36865Y14765D01*
X36829Y14712D01*
X36817Y14650D01*
X36829Y14588D01*
X36865Y14535D01*
X36918Y14499D01*
X36980Y14487D01*
X37042Y14499D01*
X37095Y14535D01*
X37131Y14588D01*
X37143Y14650D01*
X37131Y14712D01*
X37095Y14765D01*
X37042Y14801D01*
X36980Y14813D01*
D02*
G37*
G36*
X10985Y14959D02*
X10907Y14943D01*
X10841Y14899D01*
X10796Y14833D01*
X10781Y14755D01*
X10796Y14677D01*
X10841Y14611D01*
X10907Y14566D01*
X10985Y14551D01*
X11063Y14566D01*
X11129Y14611D01*
X11173Y14677D01*
X11189Y14755D01*
X11173Y14833D01*
X11129Y14899D01*
X11063Y14943D01*
X10985Y14959D01*
D02*
G37*
G36*
X35350Y14203D02*
X35288Y14191D01*
X35235Y14155D01*
X35199Y14102D01*
X35187Y14040D01*
X35199Y13978D01*
X35235Y13925D01*
X35288Y13889D01*
X35350Y13877D01*
X35412Y13889D01*
X35465Y13925D01*
X35501Y13978D01*
X35513Y14040D01*
X35501Y14102D01*
X35465Y14155D01*
X35412Y14191D01*
X35350Y14203D01*
D02*
G37*
G36*
X36960Y13803D02*
X36898Y13791D01*
X36845Y13755D01*
X36809Y13702D01*
X36797Y13640D01*
X36809Y13578D01*
X36845Y13525D01*
X36898Y13489D01*
X36960Y13477D01*
X37022Y13489D01*
X37075Y13525D01*
X37111Y13578D01*
X37123Y13640D01*
X37111Y13702D01*
X37075Y13755D01*
X37022Y13791D01*
X36960Y13803D01*
D02*
G37*
G36*
X17485Y13939D02*
X17407Y13923D01*
X17341Y13879D01*
X17296Y13813D01*
X17281Y13735D01*
X17296Y13657D01*
X17341Y13591D01*
X17407Y13546D01*
X17485Y13531D01*
X17563Y13546D01*
X17629Y13591D01*
X17673Y13657D01*
X17689Y13735D01*
X17673Y13813D01*
X17629Y13879D01*
X17563Y13923D01*
X17485Y13939D01*
D02*
G37*
G36*
X34110Y13693D02*
X34048Y13681D01*
X33995Y13645D01*
X33959Y13592D01*
X33947Y13530D01*
X33959Y13468D01*
X33995Y13415D01*
X34048Y13379D01*
X34110Y13367D01*
X34172Y13379D01*
X34225Y13415D01*
X34261Y13468D01*
X34273Y13530D01*
X34261Y13592D01*
X34225Y13645D01*
X34172Y13681D01*
X34110Y13693D01*
D02*
G37*
G36*
X22570Y13663D02*
X22508Y13651D01*
X22455Y13615D01*
X22419Y13562D01*
X22407Y13500D01*
X22419Y13438D01*
X22455Y13385D01*
X22508Y13349D01*
X22570Y13337D01*
X22632Y13349D01*
X22685Y13385D01*
X22721Y13438D01*
X22733Y13500D01*
X22721Y13562D01*
X22685Y13615D01*
X22632Y13651D01*
X22570Y13663D01*
D02*
G37*
G36*
X11060Y13693D02*
X10998Y13681D01*
X10945Y13645D01*
X10909Y13592D01*
X10897Y13530D01*
X10909Y13468D01*
X10945Y13415D01*
X10998Y13379D01*
X11060Y13367D01*
X11122Y13379D01*
X11175Y13415D01*
X11211Y13468D01*
X11223Y13530D01*
X11211Y13592D01*
X11175Y13645D01*
X11122Y13681D01*
X11060Y13693D01*
D02*
G37*
G36*
X33665Y14159D02*
X33587Y14143D01*
X33521Y14099D01*
X33476Y14033D01*
X33461Y13955D01*
X33476Y13877D01*
X33521Y13811D01*
X33587Y13766D01*
X33665Y13751D01*
X33743Y13766D01*
X33809Y13811D01*
X33853Y13877D01*
X33869Y13955D01*
X33853Y14033D01*
X33809Y14099D01*
X33743Y14143D01*
X33665Y14159D01*
D02*
G37*
G36*
X22125Y14163D02*
X22053Y14149D01*
X21991Y14108D01*
X21951Y14047D01*
X21936Y13975D01*
X21951Y13903D01*
X21991Y13841D01*
X22053Y13801D01*
X22125Y13786D01*
X22197Y13801D01*
X22258Y13841D01*
X22299Y13903D01*
X22313Y13975D01*
X22299Y14047D01*
X22258Y14108D01*
X22197Y14149D01*
X22125Y14163D01*
D02*
G37*
G36*
X10595Y14159D02*
X10517Y14143D01*
X10451Y14099D01*
X10406Y14033D01*
X10391Y13955D01*
X10406Y13877D01*
X10451Y13811D01*
X10517Y13766D01*
X10595Y13751D01*
X10673Y13766D01*
X10739Y13811D01*
X10783Y13877D01*
X10799Y13955D01*
X10783Y14033D01*
X10739Y14099D01*
X10673Y14143D01*
X10595Y14159D01*
D02*
G37*
G36*
X39845Y14019D02*
X39767Y14003D01*
X39701Y13959D01*
X39656Y13893D01*
X39641Y13815D01*
X39656Y13737D01*
X39701Y13671D01*
X39767Y13626D01*
X39845Y13611D01*
X39923Y13626D01*
X39989Y13671D01*
X40033Y13737D01*
X40049Y13815D01*
X40033Y13893D01*
X39989Y13959D01*
X39923Y14003D01*
X39845Y14019D01*
D02*
G37*
G36*
X-1225Y13958D02*
X-1288Y13946D01*
X-1341Y13910D01*
X-1376Y13857D01*
X-1388Y13795D01*
X-1376Y13732D01*
X-1341Y13679D01*
X-1288Y13644D01*
X-1225Y13632D01*
X-1163Y13644D01*
X-1110Y13679D01*
X-1074Y13732D01*
X-1062Y13795D01*
X-1074Y13857D01*
X-1110Y13910D01*
X-1163Y13946D01*
X-1225Y13958D01*
D02*
G37*
G36*
X36225Y11479D02*
X36147Y11463D01*
X36081Y11419D01*
X36036Y11353D01*
X36021Y11275D01*
X36036Y11197D01*
X36081Y11131D01*
X36147Y11086D01*
X36225Y11071D01*
X36303Y11086D01*
X36369Y11131D01*
X36413Y11197D01*
X36429Y11275D01*
X36413Y11353D01*
X36369Y11419D01*
X36303Y11463D01*
X36225Y11479D01*
D02*
G37*
G36*
X16075Y8323D02*
X16012Y8311D01*
X15959Y8275D01*
X15924Y8222D01*
X15912Y8160D01*
X15924Y8098D01*
X15959Y8045D01*
X16012Y8009D01*
X16075Y7997D01*
X16137Y8009D01*
X16190Y8045D01*
X16226Y8098D01*
X16238Y8160D01*
X16226Y8222D01*
X16190Y8275D01*
X16137Y8311D01*
X16075Y8323D01*
D02*
G37*
G36*
X16575D02*
X16512Y8311D01*
X16459Y8275D01*
X16424Y8222D01*
X16412Y8160D01*
X16424Y8098D01*
X16459Y8045D01*
X16512Y8009D01*
X16575Y7997D01*
X16637Y8009D01*
X16690Y8045D01*
X16726Y8098D01*
X16738Y8160D01*
X16726Y8222D01*
X16690Y8275D01*
X16637Y8311D01*
X16575Y8323D01*
D02*
G37*
G36*
X17075Y8312D02*
X17013Y8300D01*
X16960Y8264D01*
X16924Y8211D01*
X16912Y8149D01*
X16924Y8086D01*
X16960Y8034D01*
X17013Y7998D01*
X17075Y7986D01*
X17138Y7998D01*
X17191Y8034D01*
X17226Y8086D01*
X17238Y8149D01*
X17226Y8211D01*
X17191Y8264D01*
X17138Y8300D01*
X17075Y8312D01*
D02*
G37*
G36*
X370Y7882D02*
X312Y7870D01*
X262Y7837D01*
X229Y7788D01*
X217Y7729D01*
X229Y7671D01*
X262Y7621D01*
X312Y7588D01*
X370Y7576D01*
X429Y7588D01*
X478Y7621D01*
X518D01*
X518Y7621D01*
X568Y7588D01*
X626Y7576D01*
X685Y7588D01*
X734Y7621D01*
X767Y7670D01*
X779Y7729D01*
X767Y7787D01*
X734Y7837D01*
X685Y7870D01*
X626Y7882D01*
X568Y7870D01*
X518Y7837D01*
X479D01*
X478Y7837D01*
X429Y7870D01*
X370Y7882D01*
D02*
G37*
G36*
X-610Y8223D02*
X-672Y8211D01*
X-725Y8175D01*
X-761Y8122D01*
X-773Y8060D01*
X-761Y7998D01*
X-725Y7945D01*
X-672Y7909D01*
X-610Y7897D01*
X-548Y7909D01*
X-495Y7945D01*
X-459Y7998D01*
X-447Y8060D01*
X-459Y8122D01*
X-495Y8175D01*
X-548Y8211D01*
X-610Y8223D01*
D02*
G37*
G36*
X33870Y8773D02*
X33808Y8761D01*
X33755Y8725D01*
X33719Y8672D01*
X33707Y8610D01*
X33719Y8548D01*
X33755Y8495D01*
X33808Y8459D01*
X33870Y8447D01*
X33932Y8459D01*
X33985Y8495D01*
X34021Y8548D01*
X34033Y8610D01*
X34021Y8672D01*
X33985Y8725D01*
X33932Y8761D01*
X33870Y8773D01*
D02*
G37*
G36*
X31925Y8859D02*
X31847Y8843D01*
X31781Y8799D01*
X31736Y8733D01*
X31721Y8655D01*
X31736Y8577D01*
X31781Y8511D01*
X31847Y8466D01*
X31925Y8451D01*
X32003Y8466D01*
X32069Y8511D01*
X32113Y8577D01*
X32129Y8655D01*
X32113Y8733D01*
X32069Y8799D01*
X32003Y8843D01*
X31925Y8859D01*
D02*
G37*
G36*
X22325Y8639D02*
X22247Y8623D01*
X22181Y8579D01*
X22136Y8513D01*
X22121Y8435D01*
X22136Y8357D01*
X22181Y8291D01*
X22247Y8246D01*
X22325Y8231D01*
X22403Y8246D01*
X22469Y8291D01*
X22513Y8357D01*
X22529Y8435D01*
X22513Y8513D01*
X22469Y8579D01*
X22403Y8623D01*
X22325Y8639D01*
D02*
G37*
G36*
X18185Y8449D02*
X18107Y8433D01*
X18041Y8389D01*
X17996Y8323D01*
X17981Y8245D01*
X17996Y8167D01*
X18041Y8101D01*
X18107Y8056D01*
X18185Y8041D01*
X18263Y8056D01*
X18329Y8101D01*
X18373Y8167D01*
X18389Y8245D01*
X18373Y8323D01*
X18329Y8389D01*
X18263Y8433D01*
X18185Y8449D01*
D02*
G37*
G36*
X10785Y8639D02*
X10707Y8623D01*
X10641Y8579D01*
X10596Y8513D01*
X10581Y8435D01*
X10596Y8357D01*
X10641Y8291D01*
X10707Y8246D01*
X10785Y8231D01*
X10863Y8246D01*
X10929Y8291D01*
X10973Y8357D01*
X10989Y8435D01*
X10973Y8513D01*
X10929Y8579D01*
X10863Y8623D01*
X10785Y8639D01*
D02*
G37*
G36*
X1906Y7626D02*
X1847Y7614D01*
X1798Y7581D01*
X1764Y7531D01*
X1753Y7473D01*
Y7473D01*
X1730Y7463D01*
X1730Y7463D01*
Y7463D01*
X1668Y7451D01*
X1615Y7415D01*
X1579Y7362D01*
X1567Y7300D01*
X1579Y7238D01*
X1615Y7185D01*
X1668Y7149D01*
X1730Y7137D01*
X1792Y7149D01*
X1845Y7185D01*
X1881Y7238D01*
X1893Y7300D01*
D01*
D01*
X1964Y7331D01*
X1964D01*
X2014Y7365D01*
X2047Y7414D01*
X2059Y7473D01*
X2047Y7531D01*
X2014Y7581D01*
X1964Y7614D01*
X1906Y7626D01*
D02*
G37*
G36*
X32070Y6763D02*
X32008Y6751D01*
X31955Y6715D01*
X31919Y6662D01*
X31907Y6600D01*
X31919Y6538D01*
X31955Y6485D01*
X32008Y6449D01*
X32070Y6437D01*
X32132Y6449D01*
X32185Y6485D01*
X32221Y6538D01*
X32233Y6600D01*
X32221Y6662D01*
X32185Y6715D01*
X32132Y6751D01*
X32070Y6763D01*
D02*
G37*
G36*
X32565D02*
X32503Y6751D01*
X32450Y6715D01*
X32415Y6662D01*
X32402Y6600D01*
X32415Y6538D01*
X32450Y6485D01*
X32503Y6449D01*
X32565Y6437D01*
X32628Y6449D01*
X32681Y6485D01*
X32716Y6538D01*
X32728Y6600D01*
X32716Y6662D01*
X32681Y6715D01*
X32628Y6751D01*
X32565Y6763D01*
D02*
G37*
G36*
X21525D02*
X21462Y6751D01*
X21409Y6715D01*
X21374Y6662D01*
X21362Y6600D01*
X21374Y6538D01*
X21409Y6485D01*
X21462Y6449D01*
X21525Y6437D01*
X21587Y6449D01*
X21640Y6485D01*
X21676Y6538D01*
X21688Y6600D01*
X21676Y6662D01*
X21640Y6715D01*
X21587Y6751D01*
X21525Y6763D01*
D02*
G37*
G36*
X20530D02*
X20468Y6751D01*
X20415Y6715D01*
X20379Y6662D01*
X20367Y6600D01*
X20379Y6538D01*
X20415Y6485D01*
X20468Y6449D01*
X20530Y6437D01*
X20592Y6449D01*
X20645Y6485D01*
X20681Y6538D01*
X20693Y6600D01*
X20681Y6662D01*
X20645Y6715D01*
X20592Y6751D01*
X20530Y6763D01*
D02*
G37*
G36*
X21025D02*
X20962Y6751D01*
X20909Y6715D01*
X20874Y6662D01*
X20862Y6600D01*
X20874Y6538D01*
X20909Y6485D01*
X20962Y6449D01*
X21025Y6437D01*
X21087Y6449D01*
X21140Y6485D01*
X21176Y6538D01*
X21188Y6600D01*
X21176Y6662D01*
X21140Y6715D01*
X21087Y6751D01*
X21025Y6763D01*
D02*
G37*
G36*
X2610Y7373D02*
X2548Y7361D01*
X2495Y7325D01*
X2460Y7273D01*
X2410D01*
X2375Y7325D01*
X2322Y7361D01*
X2260Y7373D01*
X2198Y7361D01*
X2145Y7325D01*
X2109Y7272D01*
X2097Y7210D01*
X2070Y7183D01*
X2008Y7171D01*
X1955Y7135D01*
X1919Y7082D01*
X1907Y7020D01*
X1919Y6958D01*
X1955Y6905D01*
X2008Y6869D01*
X2070Y6857D01*
X2132Y6869D01*
X2185Y6905D01*
X2221Y6958D01*
X2233Y7020D01*
X2260Y7047D01*
X2322Y7059D01*
X2375Y7095D01*
X2410Y7146D01*
X2460D01*
X2495Y7095D01*
X2548Y7059D01*
X2610Y7047D01*
X2672Y7059D01*
X2725Y7095D01*
X2761Y7148D01*
X2773Y7210D01*
X2761Y7272D01*
X2725Y7325D01*
X2672Y7361D01*
X2610Y7373D01*
D02*
G37*
G36*
X-659Y7702D02*
X-721Y7689D01*
X-774Y7654D01*
X-810Y7601D01*
X-822Y7538D01*
X-810Y7476D01*
X-774Y7423D01*
X-721Y7388D01*
X-659Y7375D01*
X-596Y7388D01*
X-544Y7423D01*
X-508Y7476D01*
X-496Y7538D01*
X-508Y7601D01*
X-544Y7654D01*
X-596Y7689D01*
X-659Y7702D01*
D02*
G37*
G36*
X-2015Y7519D02*
X-2093Y7503D01*
X-2159Y7459D01*
X-2204Y7393D01*
X-2219Y7315D01*
X-2204Y7237D01*
X-2159Y7171D01*
X-2093Y7126D01*
X-2015Y7111D01*
X-1937Y7126D01*
X-1871Y7171D01*
X-1827Y7237D01*
X-1811Y7315D01*
X-1827Y7393D01*
X-1871Y7459D01*
X-1937Y7503D01*
X-2015Y7519D01*
D02*
G37*
G36*
X33066Y6763D02*
X33003Y6751D01*
X32950Y6715D01*
X32915Y6662D01*
X32902Y6600D01*
X32915Y6538D01*
X32950Y6485D01*
X33003Y6449D01*
X33066Y6437D01*
X33128Y6449D01*
X33181Y6485D01*
X33216Y6538D01*
X33229Y6600D01*
X33216Y6662D01*
X33181Y6715D01*
X33128Y6751D01*
X33066Y6763D01*
D02*
G37*
G36*
X3020Y7243D02*
X2958Y7231D01*
X2905Y7195D01*
X2869Y7142D01*
X2857Y7080D01*
X2869Y7018D01*
X2905Y6965D01*
X2958Y6929D01*
X3020Y6917D01*
X3082Y6929D01*
X3135Y6965D01*
X3171Y7018D01*
X3183Y7080D01*
X3171Y7142D01*
X3135Y7195D01*
X3082Y7231D01*
X3020Y7243D01*
D02*
G37*
G36*
X8665Y8899D02*
X8587Y8883D01*
X8521Y8839D01*
X8476Y8773D01*
X8461Y8695D01*
X8476Y8617D01*
X8521Y8551D01*
X8587Y8506D01*
X8665Y8491D01*
X8743Y8506D01*
X8809Y8551D01*
X8853Y8617D01*
X8869Y8695D01*
X8853Y8773D01*
X8809Y8839D01*
X8743Y8883D01*
X8665Y8899D01*
D02*
G37*
G36*
X-1700Y10384D02*
X-1762Y10372D01*
X-1815Y10336D01*
X-1851Y10284D01*
X-1863Y10221D01*
X-1851Y10159D01*
X-1815Y10106D01*
X-1762Y10070D01*
X-1700Y10058D01*
X-1638Y10070D01*
X-1585Y10106D01*
X-1549Y10159D01*
X-1537Y10221D01*
X-1549Y10284D01*
X-1585Y10336D01*
X-1638Y10372D01*
X-1700Y10384D01*
D02*
G37*
G36*
X35315Y12968D02*
X35252Y12956D01*
X35199Y12920D01*
X35164Y12867D01*
X35152Y12805D01*
X35164Y12742D01*
X35188Y12706D01*
X35192Y12696D01*
Y10855D01*
X35192Y10855D01*
X35192D01*
X35202Y10808D01*
X35228Y10769D01*
X35847Y10150D01*
X35832Y10102D01*
X35799Y10095D01*
X35746Y10060D01*
X35700D01*
X35647Y10095D01*
X35585Y10108D01*
X35522Y10095D01*
X35469Y10060D01*
X35434Y10007D01*
X35422Y9945D01*
X35434Y9882D01*
X35469Y9829D01*
X35522Y9794D01*
X35585Y9782D01*
X35647Y9794D01*
X35700Y9829D01*
X35746D01*
X35799Y9794D01*
X35861Y9782D01*
X35924Y9794D01*
X35976Y9829D01*
X36023D01*
X36076Y9794D01*
X36138Y9782D01*
X36201Y9794D01*
X36254Y9829D01*
X36293D01*
X36346Y9794D01*
X36408Y9782D01*
X36471Y9794D01*
X36524Y9829D01*
X36573D01*
X36626Y9794D01*
X36688Y9782D01*
X36751Y9794D01*
X36804Y9829D01*
X36853D01*
X36906Y9794D01*
X36968Y9782D01*
X37031Y9794D01*
X37084Y9829D01*
X37119Y9882D01*
X37132Y9945D01*
X37120Y10001D01*
X37152Y10040D01*
X37847D01*
X38568Y9319D01*
X38607Y9292D01*
X38654Y9283D01*
X38987D01*
X38997Y9279D01*
X39033Y9255D01*
X39096Y9242D01*
X39158Y9255D01*
X39211Y9290D01*
X39246Y9343D01*
X39259Y9406D01*
X39246Y9468D01*
X39211Y9521D01*
X39158Y9556D01*
X39096Y9569D01*
X39033Y9556D01*
X38997Y9532D01*
X38991Y9529D01*
X38969Y9547D01*
X38953Y9567D01*
X38958Y9590D01*
X38946Y9652D01*
X38910Y9705D01*
X38857Y9741D01*
X38814Y9749D01*
X38805Y9753D01*
X38405Y10153D01*
X38410Y10202D01*
X38443Y10224D01*
X38478Y10277D01*
X38491Y10340D01*
X38478Y10402D01*
X38443Y10455D01*
X38390Y10490D01*
X38327Y10503D01*
X38265Y10490D01*
X38212Y10455D01*
X38190Y10422D01*
X38140Y10417D01*
X38116Y10442D01*
X38076Y10468D01*
X38029Y10478D01*
X36165D01*
X35637Y11005D01*
Y12466D01*
X35641Y12476D01*
X35666Y12512D01*
X35678Y12575D01*
X35666Y12637D01*
X35630Y12690D01*
X35577Y12726D01*
X35515Y12738D01*
X35507Y12736D01*
X35471Y12772D01*
X35478Y12805D01*
X35466Y12867D01*
X35430Y12920D01*
X35377Y12956D01*
X35315Y12968D01*
D02*
G37*
G36*
X220Y10598D02*
X158Y10586D01*
X105Y10550D01*
X69Y10497D01*
X57Y10435D01*
X69Y10372D01*
X105Y10319D01*
Y10275D01*
X69Y10222D01*
X57Y10160D01*
X69Y10098D01*
X105Y10045D01*
Y10019D01*
X69Y9966D01*
X57Y9904D01*
X67Y9853D01*
X26Y9825D01*
X25Y9825D01*
X-28Y9861D01*
X-90Y9873D01*
X-152Y9861D01*
X-205Y9825D01*
X-241Y9772D01*
X-253Y9710D01*
X-241Y9648D01*
X-205Y9595D01*
X-152Y9559D01*
X-90Y9547D01*
X-49Y9555D01*
X-23Y9550D01*
X-11Y9488D01*
X25Y9435D01*
X78Y9399D01*
X140Y9387D01*
X140Y9387D01*
X140Y9387D01*
D01*
X157Y9390D01*
D01*
X157Y9390D01*
X169Y9328D01*
X205Y9275D01*
X258Y9239D01*
X320Y9227D01*
X382Y9239D01*
X435Y9275D01*
X471Y9328D01*
X483Y9390D01*
X471Y9452D01*
X435Y9505D01*
X382Y9541D01*
X320Y9553D01*
X320Y9553D01*
X320Y9553D01*
D01*
X303Y9550D01*
X303D01*
X303Y9550D01*
X303Y9550D01*
X291Y9612D01*
X255Y9665D01*
X215Y9692D01*
X225Y9741D01*
X282Y9753D01*
X335Y9788D01*
X371Y9841D01*
X383Y9904D01*
X371Y9966D01*
X335Y10019D01*
Y10045D01*
X371Y10098D01*
X383Y10160D01*
X371Y10222D01*
X335Y10275D01*
Y10319D01*
X371Y10372D01*
X383Y10435D01*
X371Y10497D01*
X335Y10550D01*
X282Y10586D01*
X220Y10598D01*
D02*
G37*
G36*
X40536Y10432D02*
X40443Y10420D01*
X40356Y10384D01*
X40282Y10327D01*
X40225Y10253D01*
X40189Y10167D01*
X40177Y10074D01*
X40189Y9981D01*
X40225Y9894D01*
X40282Y9820D01*
X40356Y9763D01*
X40443Y9727D01*
X40536Y9715D01*
X40629Y9727D01*
X40715Y9763D01*
X40789Y9820D01*
X40846Y9894D01*
X40882Y9981D01*
X40894Y10074D01*
X40882Y10167D01*
X40846Y10253D01*
X40789Y10327D01*
X40715Y10384D01*
X40629Y10420D01*
X40536Y10432D01*
D02*
G37*
G36*
X32650Y10133D02*
X32588Y10121D01*
X32535Y10085D01*
X32499Y10032D01*
X32487Y9970D01*
X32499Y9908D01*
X32535Y9855D01*
X32588Y9819D01*
X32650Y9807D01*
X32712Y9819D01*
X32765Y9855D01*
X32801Y9908D01*
X32813Y9970D01*
X32801Y10032D01*
X32765Y10085D01*
X32712Y10121D01*
X32650Y10133D01*
D02*
G37*
G36*
X-1225Y10968D02*
X-1288Y10956D01*
X-1341Y10920D01*
X-1376Y10867D01*
X-1388Y10805D01*
X-1376Y10742D01*
X-1341Y10689D01*
X-1288Y10654D01*
X-1225Y10642D01*
X-1163Y10654D01*
X-1110Y10689D01*
X-1074Y10742D01*
X-1062Y10805D01*
X-1074Y10867D01*
X-1110Y10920D01*
X-1163Y10956D01*
X-1225Y10968D01*
D02*
G37*
G36*
X3870Y11083D02*
X3808Y11071D01*
X3755Y11035D01*
X3719Y10982D01*
X3707Y10920D01*
X3719Y10858D01*
X3755Y10805D01*
X3808Y10769D01*
X3870Y10757D01*
X3932Y10769D01*
X3985Y10805D01*
X4021Y10858D01*
X4033Y10920D01*
X4021Y10982D01*
X3985Y11035D01*
X3932Y11071D01*
X3870Y11083D01*
D02*
G37*
G36*
X17285Y11009D02*
X17207Y10993D01*
X17141Y10949D01*
X17096Y10883D01*
X17081Y10805D01*
X17096Y10727D01*
X17141Y10661D01*
X17207Y10616D01*
X17285Y10601D01*
X17363Y10616D01*
X17429Y10661D01*
X17473Y10727D01*
X17489Y10805D01*
X17473Y10883D01*
X17429Y10949D01*
X17363Y10993D01*
X17285Y11009D01*
D02*
G37*
G36*
X40536Y11220D02*
X40443Y11208D01*
X40356Y11172D01*
X40282Y11115D01*
X40225Y11040D01*
X40189Y10954D01*
X40177Y10861D01*
X40189Y10768D01*
X40225Y10682D01*
X40282Y10607D01*
X40356Y10551D01*
X40443Y10515D01*
X40536Y10502D01*
X40629Y10515D01*
X40715Y10551D01*
X40789Y10607D01*
X40846Y10682D01*
X40882Y10768D01*
X40894Y10861D01*
X40882Y10954D01*
X40846Y11040D01*
X40789Y11115D01*
X40715Y11172D01*
X40629Y11208D01*
X40536Y11220D01*
D02*
G37*
G36*
X38640Y13588D02*
X38578Y13576D01*
X38525Y13540D01*
X38489Y13487D01*
X38477Y13425D01*
X38489Y13362D01*
X38514Y13326D01*
X38518Y13316D01*
Y13151D01*
X36270Y10903D01*
X36260Y10899D01*
X36218Y10891D01*
X36165Y10855D01*
X36129Y10802D01*
X36117Y10740D01*
X36129Y10678D01*
X36165Y10625D01*
X36218Y10589D01*
X36280Y10577D01*
X36342Y10589D01*
X36395Y10625D01*
X36431Y10678D01*
X36439Y10720D01*
X36443Y10730D01*
X38727Y13013D01*
X38753Y13053D01*
X38762Y13100D01*
Y13316D01*
X38766Y13326D01*
X38791Y13362D01*
X38803Y13425D01*
X38791Y13487D01*
X38755Y13540D01*
X38702Y13576D01*
X38640Y13588D01*
D02*
G37*
G36*
X-690Y9983D02*
X-752Y9971D01*
X-805Y9935D01*
X-841Y9882D01*
X-853Y9820D01*
X-841Y9758D01*
X-805Y9705D01*
X-752Y9669D01*
X-690Y9657D01*
X-628Y9669D01*
X-575Y9705D01*
X-539Y9758D01*
X-527Y9820D01*
X-539Y9882D01*
X-575Y9935D01*
X-628Y9971D01*
X-690Y9983D01*
D02*
G37*
G36*
X35320Y9153D02*
X35258Y9141D01*
X35205Y9105D01*
X35169Y9052D01*
X35157Y8990D01*
X35169Y8928D01*
X35205Y8875D01*
X35258Y8839D01*
X35320Y8827D01*
X35382Y8839D01*
X35435Y8875D01*
X35471Y8928D01*
X35483Y8990D01*
X35471Y9052D01*
X35435Y9105D01*
X35382Y9141D01*
X35320Y9153D01*
D02*
G37*
G36*
X11870Y9303D02*
X11808Y9291D01*
X11755Y9255D01*
X11719Y9202D01*
X11707Y9140D01*
X11719Y9078D01*
X11755Y9025D01*
X11808Y8989D01*
X11870Y8977D01*
X11932Y8989D01*
X11985Y9025D01*
X12021Y9078D01*
X12033Y9140D01*
X12021Y9202D01*
X11985Y9255D01*
X11932Y9291D01*
X11870Y9303D01*
D02*
G37*
G36*
X34105Y9068D02*
X34042Y9056D01*
X33989Y9020D01*
X33954Y8967D01*
X33942Y8905D01*
X33954Y8842D01*
X33989Y8789D01*
X34042Y8754D01*
X34105Y8742D01*
X34167Y8754D01*
X34220Y8789D01*
X34256Y8842D01*
X34268Y8905D01*
X34256Y8967D01*
X34220Y9020D01*
X34167Y9056D01*
X34105Y9068D01*
D02*
G37*
G36*
X20195Y8899D02*
X20117Y8883D01*
X20051Y8839D01*
X20006Y8773D01*
X19991Y8695D01*
X20006Y8617D01*
X20051Y8551D01*
X20117Y8506D01*
X20195Y8491D01*
X20273Y8506D01*
X20339Y8551D01*
X20383Y8617D01*
X20399Y8695D01*
X20383Y8773D01*
X20339Y8839D01*
X20273Y8883D01*
X20195Y8899D01*
D02*
G37*
G36*
X-2214Y8909D02*
X-2276Y8897D01*
X-2329Y8861D01*
X-2365Y8809D01*
X-2377Y8746D01*
X-2365Y8684D01*
X-2329Y8631D01*
X-2276Y8595D01*
X-2214Y8583D01*
X-2151Y8595D01*
X-2099Y8631D01*
X-2063Y8684D01*
X-2051Y8746D01*
X-2063Y8809D01*
X-2099Y8861D01*
X-2151Y8897D01*
X-2214Y8909D01*
D02*
G37*
G36*
X33330Y9493D02*
X33268Y9481D01*
X33215Y9445D01*
X33179Y9392D01*
X33167Y9330D01*
X33179Y9268D01*
X33215Y9215D01*
X33268Y9179D01*
X33330Y9167D01*
X33392Y9179D01*
X33445Y9215D01*
X33481Y9268D01*
X33493Y9330D01*
X33481Y9392D01*
X33445Y9445D01*
X33392Y9481D01*
X33330Y9493D01*
D02*
G37*
G36*
X11340Y9513D02*
X11278Y9501D01*
X11225Y9465D01*
X11189Y9412D01*
X11177Y9350D01*
X11189Y9288D01*
X11225Y9235D01*
X11278Y9199D01*
X11340Y9187D01*
X11402Y9199D01*
X11455Y9235D01*
X11491Y9288D01*
X11503Y9350D01*
X11491Y9412D01*
X11455Y9465D01*
X11402Y9501D01*
X11340Y9513D01*
D02*
G37*
G36*
X23000Y9413D02*
X22938Y9401D01*
X22885Y9365D01*
X22849Y9312D01*
X22837Y9250D01*
X22849Y9188D01*
X22885Y9135D01*
X22938Y9099D01*
X23000Y9087D01*
X23062Y9099D01*
X23115Y9135D01*
X23151Y9188D01*
X23163Y9250D01*
X23151Y9312D01*
X23115Y9365D01*
X23062Y9401D01*
X23000Y9413D01*
D02*
G37*
G36*
X23420Y9303D02*
X23358Y9291D01*
X23305Y9255D01*
X23269Y9202D01*
X23257Y9140D01*
X23269Y9078D01*
X23305Y9025D01*
X23358Y8989D01*
X23420Y8977D01*
X23482Y8989D01*
X23535Y9025D01*
X23571Y9078D01*
X23583Y9140D01*
X23571Y9202D01*
X23535Y9255D01*
X23482Y9291D01*
X23420Y9303D01*
D02*
G37*
G36*
X35865Y9389D02*
X35787Y9373D01*
X35721Y9329D01*
X35676Y9263D01*
X35661Y9185D01*
X35676Y9107D01*
X35721Y9041D01*
X35787Y8996D01*
X35865Y8981D01*
X35943Y8996D01*
X36009Y9041D01*
X36053Y9107D01*
X36069Y9185D01*
X36053Y9263D01*
X36009Y9329D01*
X35943Y9373D01*
X35865Y9389D01*
D02*
G37*
%LPD*%
D10*
X6870Y8047D02*
G03*
X6898Y7978I97J0D01*
G01*
X6842D02*
G03*
X6870Y8047I-68J68D01*
G01*
X-3290Y10002D02*
G03*
X-3358Y10030I-68J-68D01*
G01*
X-3318Y10070D02*
G03*
X-3290Y10002I97J0D01*
G01*
X2358Y10480D02*
G03*
X2330Y10412I68J-68D01*
G01*
X2290Y10452D02*
G03*
X2358Y10480I0J97D01*
G01*
X2102Y10480D02*
G03*
X2074Y10412I68J-68D01*
G01*
X2034Y10452D02*
G03*
X2102Y10480I0J97D01*
G01*
X1846Y10480D02*
G03*
X1818Y10412I68J-68D01*
G01*
X1778Y10452D02*
G03*
X1846Y10480I0J97D01*
G01*
X5458Y12685D02*
G03*
X5527Y12713I0J97D01*
G01*
Y12657D02*
G03*
X5458Y12685I-68J-68D01*
G01*
X3477Y5580D02*
G03*
X3408Y5552I0J-97D01*
G01*
Y5608D02*
G03*
X3477Y5580I68J68D01*
G01*
X3283D02*
G03*
X3352Y5608I0J97D01*
G01*
Y5552D02*
G03*
X3283Y5580I-68J-68D01*
G01*
X3287Y5400D02*
G03*
X3218Y5372I0J-97D01*
G01*
Y5428D02*
G03*
X3287Y5400I68J68D01*
G01*
X2658Y5048D02*
G03*
X2871Y4960I213J213D01*
G01*
X7485Y4695D02*
G03*
X7423Y4649I0J-64D01*
G01*
Y4741D02*
G03*
X7485Y4695I62J18D01*
G01*
X7710Y4470D02*
G03*
X7330Y4543I-244J-244D01*
G01*
X7626Y4553D02*
G03*
X7298Y4617I-211J-211D01*
G01*
X7543Y4637D02*
G03*
X7267Y4690I-177J-177D01*
G01*
X6866Y4695D02*
G03*
X7148Y4811I0J398D01*
G01*
X7060Y4695D02*
G03*
X7205Y4755I0J205D01*
G01*
X7148Y4578D02*
G03*
X6866Y4695I-282J-282D01*
G01*
X7205Y4635D02*
G03*
X7060Y4695I-145J-145D01*
G01*
X38640Y13328D02*
G03*
X38612Y13397I-97J0D01*
G01*
X38668D02*
G03*
X38640Y13328I68J-68D01*
G01*
X36348Y10808D02*
G03*
X36320Y10740I68J-68D01*
G01*
X36280Y10780D02*
G03*
X36348Y10808I0J97D01*
G01*
X1180Y4914D02*
G03*
X1152Y4982I-97J0D01*
G01*
X1208D02*
G03*
X1180Y4914I68J-68D01*
G01*
X1220Y5010D02*
G03*
X1324Y4760I354J0D01*
G01*
X1140Y5010D02*
G03*
X1187Y4896I161J0D01*
G01*
X1360Y5053D02*
G03*
X1332Y5122I-97J0D01*
G01*
X1388D02*
G03*
X1360Y5053I68J-68D01*
G01*
X-1853Y4840D02*
G03*
X-1922Y4812I0J-97D01*
G01*
Y4868D02*
G03*
X-1853Y4840I68J68D01*
G01*
X7229Y9894D02*
G03*
X6870Y9789I-84J-380D01*
G01*
X7246Y9972D02*
G03*
X6973Y9892I-64J-289D01*
G01*
X7483Y9980D02*
G03*
X7381Y9938I0J-143D01*
G01*
Y10171D02*
G03*
X7844Y9980I462J462D01*
G01*
X7325Y10115D02*
G03*
X7651Y9980I326J326D01*
G01*
X7268Y10058D02*
G03*
X7457Y9980I189J189D01*
G01*
X18585Y9695D02*
G03*
X18634Y9734I0J51D01*
G01*
Y9656D02*
G03*
X18585Y9695I-50J-12D01*
G01*
X18305Y9975D02*
G03*
X18752Y9854I328J328D01*
G01*
X18403Y9877D02*
G03*
X18773Y9777I271J271D01*
G01*
X18501Y9778D02*
G03*
X18794Y9700I214J214D01*
G01*
X19193Y9695D02*
G03*
X18911Y9578I0J-398D01*
G01*
X19000Y9695D02*
G03*
X18855Y9635I0J-205D01*
G01*
X18911Y9811D02*
G03*
X19193Y9695I282J282D01*
G01*
X18855Y9755D02*
G03*
X19000Y9695I145J145D01*
G01*
X15611Y14775D02*
G03*
X15543Y14747I0J-97D01*
G01*
Y14803D02*
G03*
X15611Y14775I68J68D01*
G01*
X15418D02*
G03*
X15487Y14803I0J97D01*
G01*
Y14747D02*
G03*
X15418Y14775I-68J-68D01*
G01*
X30733Y9465D02*
G03*
X30451Y9348I0J-398D01*
G01*
X30540Y9465D02*
G03*
X30395Y9405I0J-205D01*
G01*
X30451Y9581D02*
G03*
X30733Y9465I282J282D01*
G01*
X30395Y9525D02*
G03*
X30540Y9465I145J145D01*
G01*
X29725Y9855D02*
G03*
X30324Y9629I548J548D01*
G01*
X29850Y9730D02*
G03*
X30329Y9550I439J439D01*
G01*
X29974Y9605D02*
G03*
X30334Y9470I329J329D01*
G01*
X30099Y9480D02*
G03*
X30340Y9390I220J220D01*
G01*
X30115Y9465D02*
G03*
X30176Y9511I0J64D01*
G01*
Y9419D02*
G03*
X30115Y9465I-62J-18D01*
G01*
X36712Y13273D02*
G03*
X36780Y13245I68J68D01*
G01*
X36740Y13205D02*
G03*
X36712Y13273I-97J0D01*
G01*
X28422Y14385D02*
G03*
X28311Y14339I0J-157D01*
G01*
Y14431D02*
G03*
X28422Y14385I111J111D01*
G01*
X28108D02*
G03*
X28219Y14431I0J157D01*
G01*
Y14339D02*
G03*
X28108Y14385I-111J-111D01*
G01*
X19015Y5055D02*
G03*
X18953Y5009I0J-64D01*
G01*
Y5101D02*
G03*
X19015Y5055I62J18D01*
G01*
X18396D02*
G03*
X18678Y5171I0J398D01*
G01*
X18590Y5055D02*
G03*
X18735Y5115I0J205D01*
G01*
X18678Y4938D02*
G03*
X18396Y5055I-282J-282D01*
G01*
X18735Y4995D02*
G03*
X18590Y5055I-145J-145D01*
G01*
X19320Y4750D02*
G03*
X18830Y4894I-377J-377D01*
G01*
X19216Y4853D02*
G03*
X18813Y4972I-310J-310D01*
G01*
X19113Y4957D02*
G03*
X18796Y5050I-244J-244D01*
G01*
X19009Y5060D02*
G03*
X18779Y5128I-177J-177D01*
G01*
X30555Y5285D02*
G03*
X30493Y5239I0J-64D01*
G01*
Y5331D02*
G03*
X30555Y5285I62J18D01*
G01*
X30992Y4848D02*
G03*
X30335Y5120I-657J-657D01*
G01*
X30855Y4984D02*
G03*
X30335Y5200I-521J-521D01*
G01*
X30719Y5121D02*
G03*
X30335Y5280I-384J-384D01*
G01*
X30582Y5257D02*
G03*
X30335Y5360I-248J-248D01*
G01*
X29936Y5285D02*
G03*
X30218Y5401I0J398D01*
G01*
X30130Y5285D02*
G03*
X30275Y5345I0J205D01*
G01*
X30218Y5168D02*
G03*
X29936Y5285I-282J-282D01*
G01*
X30275Y5225D02*
G03*
X30130Y5285I-145J-145D01*
G01*
X20761Y485D02*
G03*
X20693Y457I0J-97D01*
G01*
Y513D02*
G03*
X20761Y485I68J68D01*
G01*
X20597Y553D02*
G03*
X20665Y525I68J68D01*
G01*
X20625Y485D02*
G03*
X20597Y553I-97J0D01*
G01*
X9015Y248D02*
G03*
X9083Y83I233J0D01*
G01*
X9151Y55D02*
G03*
X9083Y27I0J-97D01*
G01*
Y83D02*
G03*
X9151Y55I68J68D01*
G01*
X5957Y4213D02*
G03*
X6025Y4185I68J68D01*
G01*
X5985Y4145D02*
G03*
X5957Y4213I-97J0D01*
G01*
X5272Y4002D02*
G03*
X5340Y3973I68J68D01*
G01*
X5300Y3933D02*
G03*
X5272Y4002I-97J0D01*
G01*
X6752Y6798D02*
G03*
X6820Y6770I68J68D01*
G01*
X6780Y6730D02*
G03*
X6752Y6798I-97J0D01*
G01*
X6820Y7221D02*
G03*
X6848Y7153I97J0D01*
G01*
X6792D02*
G03*
X6820Y7221I-68J68D01*
G01*
X-2039Y5020D02*
G03*
X-2107Y4992I0J-97D01*
G01*
Y5048D02*
G03*
X-2039Y5020I68J68D01*
G01*
X5571Y10568D02*
G03*
X5595Y10625I-57J57D01*
G01*
X5635Y10585D02*
G03*
X5555Y10552I0J-113D01*
G01*
X5635Y11028D02*
G03*
X5607Y11097I-97J0D01*
G01*
X5663D02*
G03*
X5635Y11028I68J-68D01*
G01*
Y11558D02*
G03*
X5607Y11627I-97J0D01*
G01*
X5663D02*
G03*
X5635Y11558I68J-68D01*
G01*
X5525Y12028D02*
G03*
X5497Y12097I-97J0D01*
G01*
X5553D02*
G03*
X5525Y12028I68J-68D01*
G01*
X5785Y2471D02*
G03*
X5813Y2403I97J0D01*
G01*
X5757D02*
G03*
X5785Y2471I-68J68D01*
G01*
X5853Y1943D02*
G03*
X5825Y1875I68J-68D01*
G01*
X5785Y1915D02*
G03*
X5853Y1943I0J97D01*
G01*
X5538Y10225D02*
G03*
X5607Y10253I0J97D01*
G01*
Y10197D02*
G03*
X5538Y10225I-68J-68D01*
G01*
X5567Y9447D02*
G03*
X5595Y9515I-68J68D01*
G01*
X5635Y9475D02*
G03*
X5567Y9447I0J-97D01*
G01*
Y7693D02*
G03*
X5635Y7665I68J68D01*
G01*
X5595Y7625D02*
G03*
X5567Y7693I-97J0D01*
G01*
X5533Y7950D02*
G03*
X5602Y7978I0J97D01*
G01*
Y7922D02*
G03*
X5533Y7950I-68J-68D01*
G01*
X5538Y8625D02*
G03*
X5607Y8653I0J97D01*
G01*
Y8597D02*
G03*
X5538Y8625I-68J-68D01*
G01*
X5567Y9057D02*
G03*
X5595Y9125I-68J68D01*
G01*
X5635Y9085D02*
G03*
X5567Y9057I0J-97D01*
G01*
X5468Y13685D02*
G03*
X5537Y13713I0J97D01*
G01*
Y13657D02*
G03*
X5468Y13685I-68J-68D01*
G01*
X7663Y9465D02*
G03*
X7381Y9348I0J-398D01*
G01*
X7470Y9465D02*
G03*
X7325Y9405I0J-205D01*
G01*
X7381Y9581D02*
G03*
X7663Y9465I282J282D01*
G01*
X7325Y9525D02*
G03*
X7470Y9465I145J145D01*
G01*
X15728Y14505D02*
G03*
X15797Y14533I0J97D01*
G01*
Y14477D02*
G03*
X15728Y14505I-68J-68D01*
G01*
X17647Y13302D02*
G03*
X17675Y13370I-68J68D01*
G01*
X17715Y13330D02*
G03*
X17647Y13302I0J-97D01*
G01*
X10005Y9461D02*
G03*
X10033Y9393I97J0D01*
G01*
X9977D02*
G03*
X10005Y9461I-68J68D01*
G01*
X10144Y9604D02*
G03*
X10045Y9365I239J-239D01*
G01*
X10007Y9467D02*
G03*
X9965Y9365I102J-102D01*
G01*
X17348Y10075D02*
G03*
X17417Y10103I0J97D01*
G01*
Y10047D02*
G03*
X17348Y10075I-68J-68D01*
G01*
X10623Y9434D02*
G03*
X10595Y9365I69J-68D01*
G01*
X10555Y9405D02*
G03*
X10623Y9434I-1J97D01*
G01*
X17538Y10425D02*
G03*
X17607Y10453I0J97D01*
G01*
Y10397D02*
G03*
X17538Y10425I-68J-68D01*
G01*
X10275Y9461D02*
G03*
X10303Y9393I97J0D01*
G01*
X10247D02*
G03*
X10275Y9461I-68J68D01*
G01*
X10430Y9638D02*
G03*
X10315Y9365I273J-276D01*
G01*
X10293Y9502D02*
G03*
X10235Y9365I137J-138D01*
G01*
X5468Y13180D02*
G03*
X5537Y13208I0J97D01*
G01*
Y13151D02*
G03*
X5468Y13180I-68J-68D01*
G01*
X7663Y8875D02*
G03*
X7381Y8758I0J-398D01*
G01*
X7470Y8875D02*
G03*
X7325Y8815I0J-205D01*
G01*
X7381Y8991D02*
G03*
X7663Y8875I282J282D01*
G01*
X7325Y8935D02*
G03*
X7470Y8875I145J145D01*
G01*
X18585Y9105D02*
G03*
X18634Y9144I0J51D01*
G01*
Y9066D02*
G03*
X18585Y9105I-50J-12D01*
G01*
X18155Y9535D02*
G03*
X18795Y9270I640J640D01*
G01*
X18291Y9398D02*
G03*
X18795Y9190I504J504D01*
G01*
X18428Y9262D02*
G03*
X18795Y9110I367J367D01*
G01*
X18564Y9125D02*
G03*
X18795Y9030I230J230D01*
G01*
X19193Y9105D02*
G03*
X18911Y8988I0J-398D01*
G01*
X19000Y9105D02*
G03*
X18855Y9045I0J-205D01*
G01*
X18911Y9221D02*
G03*
X19193Y9105I282J282D01*
G01*
X18855Y9165D02*
G03*
X19000Y9105I145J145D01*
G01*
X27884Y13884D02*
G03*
X27930Y13995I-111J111D01*
G01*
X27995Y13930D02*
G03*
X27884Y13884I0J-157D01*
G01*
X29118Y10305D02*
G03*
X29187Y10333I0J97D01*
G01*
Y10277D02*
G03*
X29118Y10305I-68J-68D01*
G01*
Y10585D02*
G03*
X29187Y10613I0J97D01*
G01*
Y10557D02*
G03*
X29118Y10585I-68J-68D01*
G01*
X21762Y9652D02*
G03*
X21790Y9720I-68J68D01*
G01*
X21830Y9680D02*
G03*
X21762Y9652I0J-97D01*
G01*
X28468Y13185D02*
G03*
X28579Y13231I0J157D01*
G01*
Y13139D02*
G03*
X28468Y13185I-111J-111D01*
G01*
X21443Y9340D02*
G03*
X21512Y9368I0J97D01*
G01*
Y9312D02*
G03*
X21443Y9340I-68J-68D01*
G01*
X21301Y9479D02*
G03*
X21540Y9380I239J239D01*
G01*
X21438Y9342D02*
G03*
X21540Y9300I102J102D01*
G01*
X7485Y5285D02*
G03*
X7423Y5239I0J-64D01*
G01*
Y5331D02*
G03*
X7485Y5285I62J18D01*
G01*
X6866D02*
G03*
X7148Y5401I0J398D01*
G01*
X7060Y5285D02*
G03*
X7205Y5345I0J205D01*
G01*
X7148Y5168D02*
G03*
X6866Y5285I-282J-282D01*
G01*
X7205Y5225D02*
G03*
X7060Y5285I-145J-145D01*
G01*
X7890Y4880D02*
G03*
X7272Y5120I-582J-582D01*
G01*
X7761Y5008D02*
G03*
X7269Y5200I-464J-464D01*
G01*
X7633Y5137D02*
G03*
X7265Y5280I-346J-346D01*
G01*
X7504Y5265D02*
G03*
X7262Y5360I-229J-229D01*
G01*
X9187Y513D02*
G03*
X9255Y485I68J68D01*
G01*
X9215Y445D02*
G03*
X9187Y513I-97J0D01*
G01*
X5703Y5193D02*
G03*
X5675Y5125I68J-68D01*
G01*
X5635Y5165D02*
G03*
X5703Y5193I0J97D01*
G01*
X9083Y1593D02*
G03*
X9055Y1525I68J-68D01*
G01*
X9015Y1565D02*
G03*
X9083Y1593I0J97D01*
G01*
X15913Y4950D02*
G03*
X15982Y4978I0J97D01*
G01*
Y4922D02*
G03*
X15913Y4950I-68J-68D01*
G01*
X8923Y4903D02*
G03*
X8895Y4835I68J-68D01*
G01*
X8855Y4875D02*
G03*
X8923Y4903I0J97D01*
G01*
X15713Y5130D02*
G03*
X15782Y5158I0J97D01*
G01*
Y5102D02*
G03*
X15713Y5130I-68J-68D01*
G01*
X19055Y5645D02*
G03*
X18944Y5575I0J-122D01*
G01*
Y5715D02*
G03*
X19055Y5645I111J52D01*
G01*
X18396D02*
G03*
X18678Y5761I0J398D01*
G01*
X18590Y5645D02*
G03*
X18735Y5705I0J205D01*
G01*
X18678Y5528D02*
G03*
X18396Y5645I-282J-282D01*
G01*
X18735Y5585D02*
G03*
X18590Y5645I-145J-145D01*
G01*
X7485Y5875D02*
G03*
X7423Y5829I0J-64D01*
G01*
Y5921D02*
G03*
X7485Y5875I62J18D01*
G01*
X7005D02*
G03*
X7115Y5945I0J122D01*
G01*
Y5805D02*
G03*
X7005Y5875I-111J-52D01*
G01*
X7922Y5438D02*
G03*
X7265Y5710I-657J-657D01*
G01*
X7785Y5574D02*
G03*
X7265Y5790I-521J-521D01*
G01*
X7649Y5711D02*
G03*
X7265Y5870I-384J-384D01*
G01*
X7512Y5847D02*
G03*
X7265Y5950I-248J-248D01*
G01*
X20837Y943D02*
G03*
X20905Y915I68J68D01*
G01*
X20865Y875D02*
G03*
X20837Y943I-97J0D01*
G01*
X5731Y5625D02*
G03*
X5663Y5597I0J-97D01*
G01*
Y5653D02*
G03*
X5731Y5625I68J68D01*
G01*
X20451Y4875D02*
G03*
X20383Y4847I0J-97D01*
G01*
Y4903D02*
G03*
X20451Y4875I68J68D01*
G01*
X27235D02*
G03*
X27292Y4898I0J80D01*
G01*
Y4842D02*
G03*
X27212Y4875I-80J-80D01*
G01*
X7485Y8285D02*
G03*
X7423Y8239I0J-64D01*
G01*
Y8331D02*
G03*
X7485Y8285I62J18D01*
G01*
X7265Y8450D02*
G03*
X7922Y8722I0J929D01*
G01*
X7265Y8370D02*
G03*
X7785Y8585I0J736D01*
G01*
X7265Y8290D02*
G03*
X7649Y8449I0J543D01*
G01*
X7265Y8210D02*
G03*
X7512Y8312I0J350D01*
G01*
X19015Y8515D02*
G03*
X18953Y8469I0J-64D01*
G01*
Y8561D02*
G03*
X19015Y8515I62J18D01*
G01*
X18585D02*
G03*
X18634Y8554I0J51D01*
G01*
Y8476D02*
G03*
X18585Y8515I-50J-12D01*
G01*
X18155Y8945D02*
G03*
X18795Y8680I640J640D01*
G01*
X18291Y8808D02*
G03*
X18795Y8600I504J504D01*
G01*
X18428Y8672D02*
G03*
X18795Y8520I367J367D01*
G01*
X18564Y8535D02*
G03*
X18795Y8440I230J230D01*
G01*
Y8680D02*
G03*
X19452Y8952I0J929D01*
G01*
X18795Y8600D02*
G03*
X19315Y8815I0J736D01*
G01*
X18795Y8520D02*
G03*
X19179Y8679I0J543D01*
G01*
X18795Y8440D02*
G03*
X19042Y8542I0J350D01*
G01*
X29678Y9312D02*
G03*
X30335Y9040I657J657D01*
G01*
X29814Y9175D02*
G03*
X30335Y8960I521J521D01*
G01*
X29951Y9039D02*
G03*
X30335Y8880I384J384D01*
G01*
X30087Y8902D02*
G03*
X30335Y8800I248J248D01*
G01*
X30555Y8875D02*
G03*
X30493Y8829I0J-64D01*
G01*
Y8921D02*
G03*
X30555Y8875I62J18D01*
G01*
X30115D02*
G03*
X30176Y8921I0J64D01*
G01*
Y8829D02*
G03*
X30115Y8875I-62J-18D01*
G01*
X30335Y9040D02*
G03*
X30992Y9312I0J929D01*
G01*
X30335Y8960D02*
G03*
X30855Y9175I0J736D01*
G01*
X30335Y8880D02*
G03*
X30719Y9039I0J543D01*
G01*
X30335Y8800D02*
G03*
X30582Y8902I0J350D01*
G01*
X36712Y12718D02*
G03*
X36780Y12690I68J68D01*
G01*
X36740Y12650D02*
G03*
X36712Y12718I-97J0D01*
G01*
X30805Y5515D02*
G03*
X30335Y5710I-470J-470D01*
G01*
X30668Y5652D02*
G03*
X30335Y5790I-334J-334D01*
G01*
X30532Y5788D02*
G03*
X30335Y5870I-197J-197D01*
G01*
X30500Y5875D02*
G03*
X30538Y5782I132J0D01*
G01*
X29936Y5875D02*
G03*
X30218Y5991I0J398D01*
G01*
X30130Y5875D02*
G03*
X30275Y5935I0J205D01*
G01*
X30218Y5758D02*
G03*
X29936Y5875I-282J-282D01*
G01*
X30275Y5815D02*
G03*
X30130Y5875I-145J-145D01*
G01*
X18585Y6235D02*
G03*
X18634Y6274I0J51D01*
G01*
Y6196D02*
G03*
X18585Y6235I-50J-12D01*
G01*
X19055D02*
G03*
X18944Y6165I0J-122D01*
G01*
Y6305D02*
G03*
X19055Y6235I111J52D01*
G01*
X18795Y6070D02*
G03*
X18155Y5805I0J-905D01*
G01*
X18795Y6150D02*
G03*
X18291Y5941I0J-712D01*
G01*
X18795Y6230D02*
G03*
X18428Y6078I0J-519D01*
G01*
X18795Y6310D02*
G03*
X18564Y6214I0J-326D01*
G01*
X7485Y6475D02*
G03*
X7423Y6429I0J-64D01*
G01*
Y6521D02*
G03*
X7485Y6475I62J18D01*
G01*
X7241Y6312D02*
G03*
X6710Y6133I-90J-611D01*
G01*
X7252Y6391D02*
G03*
X6820Y6245I-74J-498D01*
G01*
X7264Y6470D02*
G03*
X6930Y6357I-57J-385D01*
G01*
X7276Y6549D02*
G03*
X7040Y6470I-40J-271D01*
G01*
X7045Y6475D02*
G03*
X7106Y6521I0J64D01*
G01*
Y6429D02*
G03*
X7045Y6475I-62J-18D01*
G01*
X7922Y6038D02*
G03*
X7265Y6310I-657J-657D01*
G01*
X7785Y6174D02*
G03*
X7265Y6390I-521J-521D01*
G01*
X7649Y6311D02*
G03*
X7265Y6470I-384J-384D01*
G01*
X7512Y6447D02*
G03*
X7265Y6550I-248J-248D01*
G01*
X5731Y6126D02*
G03*
X5663Y6097I1J-97D01*
G01*
X5663Y6153D02*
G03*
X5731Y6126I68J69D01*
G01*
X35515Y12478D02*
G03*
X35487Y12547I-97J0D01*
G01*
X35543D02*
G03*
X35515Y12478I68J-68D01*
G01*
X38727Y9658D02*
G03*
X38795Y9630I68J68D01*
G01*
X38755Y9590D02*
G03*
X38727Y9658I-97J0D01*
G01*
X35315Y12708D02*
G03*
X35287Y12777I-97J0D01*
G01*
X35343D02*
G03*
X35315Y12708I68J-68D01*
G01*
X38999Y9406D02*
G03*
X39067Y9434I0J97D01*
G01*
Y9377D02*
G03*
X38999Y9406I-68J-68D01*
G01*
X9833Y9787D02*
G03*
X9725Y9525I261J-261D01*
G01*
X9777Y9843D02*
G03*
X9725Y9718I125J-125D01*
G01*
X3597Y8625D02*
G03*
X3518Y8592I0J-112D01*
G01*
Y8648D02*
G03*
X3576Y8625I57J57D01*
G01*
X3518Y9588D02*
G03*
X3490Y9520I68J-68D01*
G01*
X3450Y9560D02*
G03*
X3518Y9588I0J97D01*
G01*
X3756Y9809D02*
G03*
X3687Y9781I0J-97D01*
G01*
Y9837D02*
G03*
X3756Y9809I68J68D01*
G01*
X32322Y1413D02*
G03*
X32390Y1385I68J68D01*
G01*
X32350Y1345D02*
G03*
X32322Y1413I-97J0D01*
G01*
X32423Y1150D02*
G03*
X32492Y1178I0J97D01*
G01*
Y1122D02*
G03*
X32423Y1150I-68J-68D01*
G01*
X21603Y9783D02*
G03*
X21575Y9715I68J-68D01*
G01*
X21535Y9755D02*
G03*
X21603Y9783I0J97D01*
G01*
X183Y8590D02*
G03*
X252Y8618I0J97D01*
G01*
Y8562D02*
G03*
X183Y8590I-68J-68D01*
G01*
X17235Y9505D02*
X17555D01*
X16845Y9895D02*
X17235Y9505D01*
X11365Y9895D02*
X16845D01*
X10615Y9145D02*
X11365Y9895D01*
X9885Y9145D02*
X10615D01*
X835Y5575D02*
X895D01*
X1258Y9145D02*
X1394Y9009D01*
X37897Y10162D02*
X38654Y9406D01*
X39096D01*
X36008Y10162D02*
X37897D01*
X35315Y10855D02*
X36008Y10162D01*
X38029Y10355D02*
X38795Y9590D01*
X36114Y10355D02*
X38029D01*
X35515Y10954D02*
X36114Y10355D01*
X35315Y10855D02*
Y12805D01*
X35515Y10954D02*
Y12575D01*
X5990Y2080D02*
Y3903D01*
X15280Y10935D02*
X17715Y13370D01*
X28265Y14385D02*
X28585D01*
X29725Y13245D01*
X24135Y13635D02*
X29095D01*
X29565Y13165D01*
X21440Y9340D02*
X21540D01*
X21200Y9580D02*
X21440Y9340D01*
X21200Y9580D02*
Y10130D01*
X21640Y9530D02*
X21830Y9720D01*
X21455Y9530D02*
X21640D01*
X21340Y9645D02*
X21455Y9530D01*
X21340Y9645D02*
Y9780D01*
X22145Y10585D01*
X5525Y11805D02*
Y12125D01*
X5450Y11730D02*
X5525Y11805D01*
X4450Y9990D02*
X5452Y10992D01*
Y11195D01*
X4170Y10130D02*
X5450Y11410D01*
Y11730D01*
X4549Y9809D02*
X5635Y10895D01*
Y11125D01*
X5452Y11195D02*
X5635Y11378D01*
Y11655D01*
Y6125D02*
X6712Y6135D01*
X5635Y5625D02*
X6755D01*
X5635Y5125D02*
X5795Y5285D01*
X9725Y9305D02*
X9885Y9145D01*
X9725Y9305D02*
Y9735D01*
X9805Y9815D01*
X13345Y995D02*
X18585Y6235D01*
X18795D01*
X19055D02*
X19525Y5765D01*
X7265Y6475D02*
X7485D01*
X6712Y6135D02*
X7045Y6475D01*
X7265D01*
X9175Y995D02*
X13345D01*
X18795Y6235D02*
X19055D01*
X19525Y5015D02*
Y5765D01*
X13305Y14105D02*
X15985D01*
X16335Y14465D01*
X17325D01*
X17995Y13795D01*
X7485Y8285D02*
X13305Y14105D01*
X7265Y8285D02*
X7485D01*
X19015Y8515D02*
X24135Y13635D01*
X18795Y8515D02*
X19015D01*
X29565Y9425D02*
X30115Y8875D01*
X30335D01*
X17995Y9105D02*
X18585Y8515D01*
X18795D01*
X30335Y8875D02*
X30555D01*
X29565Y9425D02*
Y13165D01*
X17995Y9105D02*
Y13795D01*
X20355Y4875D02*
X27320D01*
X19055Y5645D02*
X19375Y5325D01*
X18795Y5645D02*
X19055D01*
X7265Y5875D02*
X7485D01*
X6755Y5625D02*
X7005Y5875D01*
X7265D01*
X18225Y5645D02*
X18795D01*
X13425Y845D02*
X18225Y5645D01*
X9095Y845D02*
X13425D01*
X19375Y4935D02*
Y5325D01*
X8855Y4835D02*
X9380Y5360D01*
X5795Y5285D02*
X7265D01*
X7485D01*
X21200Y10130D02*
X24255Y13185D01*
X28625D01*
X22145Y10585D02*
X29215D01*
X21535Y9715D02*
X22125Y10305D01*
X29215D01*
X13225Y14265D02*
X15905D01*
X16255Y14615D01*
X17405D01*
X7835Y8875D02*
X13225Y14265D01*
X18145Y9545D02*
X18585Y9105D01*
X18795D01*
X27795Y13795D02*
X27995Y13995D01*
X24055Y13795D02*
X27795D01*
X19375Y9105D02*
X24055Y13795D01*
X7205Y8875D02*
X7265D01*
X18795Y9105D02*
X19375D01*
X18145Y9545D02*
Y13875D01*
X17405Y14615D02*
X18145Y13875D01*
X7265Y8875D02*
X7835D01*
X10275Y9365D02*
Y9485D01*
X11225Y10425D01*
X17635D01*
X10555Y9365D02*
X11255Y10075D01*
X17445D01*
X10005Y9465D02*
X11475Y10935D01*
X10005Y9365D02*
Y9465D01*
X11475Y10935D02*
X15280D01*
X8185Y9465D02*
X13225Y14505D01*
X15825D01*
X7265Y9465D02*
X8185D01*
X15515Y14775D02*
X17485D01*
X30335Y5285D02*
X30555D01*
X18795Y5055D02*
X19015D01*
X29725Y9855D02*
X30115Y9465D01*
X30335D01*
X18305Y9975D02*
X18585Y9695D01*
X18795D01*
X19725D02*
X23975Y13955D01*
X27485D01*
X27915Y14385D01*
X28265D01*
X13265Y14775D02*
X15515D01*
X21025Y485D02*
X21535Y995D01*
X20665Y485D02*
X21025D01*
X9055Y55D02*
X9255D01*
X9015Y95D02*
X9055Y55D01*
X9015Y95D02*
Y445D01*
X7265Y4695D02*
X7485D01*
X17875Y5055D02*
X18795D01*
X30335Y9465D02*
X30905D01*
X29725Y9855D02*
Y13245D01*
X18795Y9695D02*
X19725D01*
X17485Y14775D02*
X18305Y13955D01*
Y9975D02*
Y13955D01*
X1360Y4920D02*
Y5150D01*
X1180Y4903D02*
Y5010D01*
X5785Y2375D02*
Y3815D01*
X32320Y1150D02*
X32520D01*
X30335Y5875D02*
X30445D01*
X31650Y2085D02*
X32390Y1345D01*
X31650Y2085D02*
Y4670D01*
X30445Y5875D02*
X31650Y4670D01*
X31380Y2090D02*
X32320Y1150D01*
X31380Y2090D02*
Y4460D01*
X30555Y5285D02*
X31380Y4460D01*
X21255Y1155D02*
X25155D01*
X29875Y5875D01*
X30335D01*
X21535Y995D02*
X25305D01*
X29595Y5285D01*
X30335D01*
X19015Y5055D02*
X19320Y4750D01*
Y1830D02*
Y4750D01*
Y1830D02*
X20665Y485D01*
X19375Y4935D02*
X19491Y4819D01*
Y2289D02*
Y4819D01*
Y2289D02*
X20905Y875D01*
X19690Y2720D02*
X21255Y1155D01*
X19690Y2720D02*
Y4850D01*
X19525Y5015D02*
X19690Y4850D01*
X8220Y1950D02*
X9175Y995D01*
X8220Y1950D02*
Y5740D01*
X7485Y6475D02*
X8220Y5740D01*
X8060Y1880D02*
X9095Y845D01*
X8060Y1880D02*
Y5300D01*
X7485Y5875D02*
X8060Y5300D01*
X7890Y1810D02*
X9255Y445D01*
X7485Y5285D02*
X7890Y4880D01*
X7710Y1750D02*
X9015Y445D01*
X7710Y1750D02*
Y4470D01*
X7485Y4695D02*
X7710Y4470D01*
X9015Y1525D02*
X12440Y4950D01*
X16010D01*
X9380Y5360D02*
X13860D01*
X14090Y5130D01*
X15810D01*
X36280Y10740D02*
X38640Y13100D01*
Y13425D01*
X30905Y9465D02*
X34840Y13400D01*
X36585D01*
X36780Y13205D01*
X30555Y8875D02*
X34880Y13200D01*
X36230D01*
X36780Y12650D01*
X7890Y1810D02*
Y4880D01*
X2630Y5020D02*
X2690Y4960D01*
X4933D01*
X5990Y3903D01*
X4770Y5400D02*
X6025Y4145D01*
X1360Y4920D02*
X1500Y4780D01*
X4820D01*
X5785Y3815D01*
X1180Y4903D02*
X1483Y4600D01*
X4673D01*
X5340Y3933D01*
X5765Y4695D02*
X7265D01*
X-1950Y4840D02*
X750D01*
X-2135Y5020D02*
X-700D01*
X-510Y5210D01*
X470D01*
X835Y5575D01*
X3490Y8625D02*
X3805D01*
X3984Y8446D01*
X6054D01*
X6820Y7680D01*
Y7125D02*
Y7680D01*
X6640Y6910D02*
X6820Y6730D01*
X6640Y6910D02*
Y7663D01*
X5997Y8307D02*
X6640Y7663D01*
X3913Y8307D02*
X5997D01*
X3780Y8440D02*
X3913Y8307D01*
X3410Y8440D02*
X3780D01*
X3350Y8500D02*
X3410Y8440D01*
X3480Y7950D02*
X5630D01*
X5449Y7811D02*
X5635Y7625D01*
X3480Y7811D02*
X5449D01*
X4055Y8625D02*
X5635D01*
X3900Y8780D02*
X4055Y8625D01*
X5274Y8764D02*
X5635Y9125D01*
X4113Y8764D02*
X5274D01*
X3996Y8881D02*
X4113Y8764D01*
X5023Y8903D02*
X5635Y9515D01*
X4177Y8903D02*
X5023D01*
X4080Y9000D02*
X4177Y8903D01*
X3659Y9809D02*
X4549D01*
X3450Y9520D02*
X3560Y9630D01*
X3570Y9990D02*
X4450D01*
X3540Y10130D02*
X4170D01*
X3810Y9350D02*
X4550D01*
X5425Y10225D01*
X5635D01*
X3560Y9630D02*
X4633D01*
X5628Y10625D02*
X5635D01*
X4633Y9630D02*
X5628Y10625D01*
X5785Y1875D02*
X5990Y2080D01*
X4801Y13180D02*
X5615D01*
X5051Y13685D02*
X5565D01*
X4563Y12685D02*
X5555D01*
X1778Y10412D02*
X5051Y13685D01*
X2034Y10412D02*
X4801Y13180D01*
X2290Y10412D02*
X4563Y12685D01*
X-150Y8590D02*
X280D01*
X-1093Y9533D02*
X-150Y8590D01*
X-2820Y9533D02*
X-1093D01*
X-3358Y10070D02*
X-2820Y9533D01*
X6870Y7950D02*
Y9789D01*
X7136Y10055D01*
X7265D02*
X7340Y9980D01*
X8470D01*
X13265Y14775D01*
X9255Y55D02*
X9640Y440D01*
X13260D01*
X17875Y5055D01*
X750Y4840D02*
X1440Y5530D01*
Y5580D02*
X4880D01*
X5765Y4695D01*
X3190Y5400D02*
X4770D01*
D11*
X39704Y8623D02*
Y10320D01*
X39139Y8058D02*
X39704Y8623D01*
X39160Y10865D02*
X39704Y10320D01*
X39160Y10865D02*
X39167Y11848D01*
X-1220Y12120D02*
X-408Y11308D01*
X-225D01*
X518D02*
X750Y11540D01*
X-225Y11308D02*
X518D01*
X38795Y12225D02*
X39167Y11848D01*
D14*
X1259Y8497D02*
G03*
X1173Y8461I0J-121D01*
G01*
Y8532D02*
G03*
X1259Y8497I85J85D01*
G01*
Y8752D02*
G03*
X1173Y8717I0J-121D01*
G01*
Y8788D02*
G03*
X1259Y8752I85J85D01*
G01*
X3047Y8500D02*
G03*
X2962Y8464I0J-121D01*
G01*
Y8535D02*
G03*
X3047Y8500I85J85D01*
G01*
X3236Y9385D02*
G03*
X3272Y9299I121J0D01*
G01*
X3201D02*
G03*
X3236Y9385I-85J85D01*
G01*
X3015Y9349D02*
G03*
X2979Y9264I85J-85D01*
G01*
X2929Y9314D02*
G03*
X3015Y9349I0J121D01*
G01*
X2247Y8582D02*
G03*
X2212Y8497I85J-85D01*
G01*
X2162Y8547D02*
G03*
X2247Y8582I0J121D01*
G01*
X1003Y9264D02*
G03*
X917Y9229I0J-121D01*
G01*
Y9299D02*
G03*
X1003Y9264I85J85D01*
G01*
X882Y8887D02*
G03*
X847Y8973I-121J0D01*
G01*
X918D02*
G03*
X882Y8887I85J-85D01*
G01*
X1053Y8922D02*
G03*
X1088Y9008I-85J85D01*
G01*
X1138Y8958D02*
G03*
X1053Y8922I0J-121D01*
G01*
X965Y9136D02*
X996D01*
X1017Y9157D01*
X1246D01*
X1258Y9145D01*
X1138Y8497D02*
X1949D01*
X2162Y8497D02*
X2415Y8750D01*
X1949Y8497D02*
X2099Y8347D01*
X2224D01*
X1138Y8752D02*
X1691D01*
X2926Y8500D02*
X3350D01*
X2224Y8347D02*
X2527Y8650D01*
X3290D01*
X3420Y8780D01*
X3900D01*
X2415Y8750D02*
X3250D01*
X3400Y8900D01*
X3990D01*
X2280Y8850D02*
X3200D01*
X3350Y9000D01*
X4080D01*
X3543Y9350D02*
X3810D01*
X3236Y9656D02*
X3570Y9990D01*
X3236Y9264D02*
Y9656D01*
X2929Y9264D02*
X3137Y9472D01*
Y9727D01*
X3540Y10130D01*
X1691Y8752D02*
X1849Y8910D01*
X2220D01*
X2280Y8850D01*
X882Y9264D02*
X1392D01*
X1544Y9112D01*
X3305D01*
X3543Y9350D01*
X981Y8851D02*
X1138Y9008D01*
X981Y8186D02*
Y8851D01*
X882Y8145D02*
Y9008D01*
Y8145D02*
X1137Y7890D01*
X981Y8186D02*
X1157Y8010D01*
X3239Y7811D02*
X3480D01*
X3241Y7950D02*
X3480D01*
X1137Y7890D02*
X3160D01*
X3239Y7811D01*
X1157Y8010D02*
X3181D01*
X3241Y7950D01*
D76*
X38133Y8058D02*
X39139D01*
D93*
X280Y8590D02*
D03*
X750Y11540D02*
D03*
X320Y11550D02*
D03*
X21535Y9715D02*
D03*
X32520Y1150D02*
D03*
X32390Y1345D02*
D03*
X3659Y9809D02*
D03*
X3450Y9520D02*
D03*
X3490Y8620D02*
D03*
X2800Y7080D02*
D03*
X17555Y9505D02*
D03*
X9805Y9815D02*
D03*
X39096Y9406D02*
D03*
X35315Y12805D02*
D03*
X38795Y9590D02*
D03*
X35515Y12575D02*
D03*
X5635Y6125D02*
D03*
X36780Y12650D02*
D03*
X27320Y4870D02*
D03*
X20355Y4875D02*
D03*
X5635Y5625D02*
D03*
X20905Y875D02*
D03*
X15810Y5130D02*
D03*
X8855Y4835D02*
D03*
X16010Y4950D02*
D03*
X9015Y1525D02*
D03*
X5635Y5125D02*
D03*
X9255Y445D02*
D03*
X21540Y9340D02*
D03*
X21830Y9720D02*
D03*
X29215Y10585D02*
D03*
Y10305D02*
D03*
X5565Y13180D02*
D03*
X10275Y9365D02*
D03*
X17635Y10425D02*
D03*
X10555Y9365D02*
D03*
X17445Y10075D02*
D03*
X10005Y9365D02*
D03*
X17715Y13370D02*
D03*
X15825Y14505D02*
D03*
X5565Y13685D02*
D03*
X5635Y9125D02*
D03*
Y8625D02*
D03*
X5630Y7950D02*
D03*
X5635Y7625D02*
D03*
Y9515D02*
D03*
Y10225D02*
D03*
X5785Y1875D02*
D03*
Y2375D02*
D03*
X5525Y12125D02*
D03*
X5635Y11655D02*
D03*
Y11125D02*
D03*
Y10625D02*
D03*
X-2135Y5020D02*
D03*
X6820Y7125D02*
D03*
Y6730D02*
D03*
X-225Y11308D02*
D03*
X5340Y3933D02*
D03*
X6025Y4145D02*
D03*
X9055Y55D02*
D03*
X20665Y485D02*
D03*
X36780Y13205D02*
D03*
X15515Y14775D02*
D03*
X-1950Y4840D02*
D03*
X25505Y6690D02*
D03*
X14055Y6585D02*
D03*
X5520Y3460D02*
D03*
X1360Y5150D02*
D03*
X1180Y5010D02*
D03*
X-300Y9575D02*
D03*
X3680Y9185D02*
D03*
X3420Y6413D02*
D03*
X36280Y10740D02*
D03*
X38640Y13425D02*
D03*
X2630Y5020D02*
D03*
X3190Y5400D02*
D03*
X3380Y5580D02*
D03*
X-1475Y5200D02*
D03*
X895Y5575D02*
D03*
X5950Y275D02*
D03*
X5470D02*
D03*
X5520Y3295D02*
D03*
X4420Y3670D02*
D03*
X5555Y12685D02*
D03*
X1778Y10412D02*
D03*
X2034D02*
D03*
X2290D02*
D03*
X-3358Y10070D02*
D03*
X6870Y7950D02*
D03*
X-2035Y2515D02*
D03*
D94*
X41345Y8735D02*
D03*
X38133Y8058D02*
D03*
X32320Y650D02*
D03*
X32070D02*
D03*
X-3520Y11830D02*
D03*
X-3310Y11950D02*
D03*
X-3520Y12070D02*
D03*
X16625Y14123D02*
D03*
X27430Y14615D02*
D03*
X22085Y9398D02*
D03*
X29139Y3061D02*
D03*
X36810Y6700D02*
D03*
X5555Y9935D02*
D03*
X39395Y10625D02*
D03*
X38795Y12225D02*
D03*
X-1225Y12125D02*
D03*
X20395Y9545D02*
D03*
X9015Y9505D02*
D03*
X18225Y14385D02*
D03*
X17205Y5175D02*
D03*
X8185Y485D02*
D03*
X28545Y5175D02*
D03*
X37115Y12615D02*
D03*
X38095Y9445D02*
D03*
X39215Y3395D02*
D03*
X35885Y8085D02*
D03*
X32635Y11525D02*
D03*
X19295Y1295D02*
D03*
X40561Y3069D02*
D03*
X17595Y3065D02*
D03*
X7875Y895D02*
D03*
X8075Y6215D02*
D03*
X23725Y8075D02*
D03*
X12140Y8090D02*
D03*
X8465Y11685D02*
D03*
X17405Y14045D02*
D03*
X17955Y8735D02*
D03*
X-3345Y4395D02*
D03*
X5525Y14125D02*
D03*
X325Y13605D02*
D03*
X1365Y2605D02*
D03*
X886Y5316D02*
D03*
X1600Y10940D02*
D03*
X1960D02*
D03*
X38780Y5140D02*
D03*
X31219Y6020D02*
D03*
X40040Y5120D02*
D03*
X30630Y1520D02*
D03*
X30730Y3847D02*
D03*
X27210Y5120D02*
D03*
X21720Y200D02*
D03*
X20220Y4390D02*
D03*
X19980D02*
D03*
X8450Y4520D02*
D03*
X8690D02*
D03*
X16113Y5380D02*
D03*
X10250Y200D02*
D03*
X36709Y10858D02*
D03*
X35349Y9488D02*
D03*
X6720Y3723D02*
D03*
X2605Y11558D02*
D03*
D95*
X1138Y9008D02*
D03*
X882Y9008D02*
D03*
X882Y9264D02*
D03*
X2162Y8497D02*
D03*
X2929Y9264D02*
D03*
X3236D02*
D03*
X2926Y8500D02*
D03*
X1138Y8752D02*
D03*
Y8497D02*
D03*
X1650Y9264D02*
D03*
X1906D02*
D03*
X1394Y9009D02*
D03*
X1906Y7728D02*
D03*
D97*
X28625Y13185D02*
D03*
X27995Y13995D02*
D03*
X28265Y14385D02*
D03*
X29175Y13165D02*
D03*
X19645Y6015D02*
D03*
X29885Y13675D02*
D03*
X20005Y11685D02*
D03*
X29485Y8735D02*
D03*
D98*
X7265Y6475D02*
D03*
X18795Y6235D02*
D03*
X30335Y5875D02*
D03*
Y8875D02*
D03*
X18795Y8515D02*
D03*
X7265Y8285D02*
D03*
Y5875D02*
D03*
X18795Y5645D02*
D03*
X7265Y5285D02*
D03*
X18795Y9105D02*
D03*
X7265Y8875D02*
D03*
Y9465D02*
D03*
X30335Y5285D02*
D03*
X18795Y5055D02*
D03*
X30335Y9465D02*
D03*
X18795Y9695D02*
D03*
X7265Y10055D02*
D03*
X18795Y10285D02*
D03*
X30335Y10055D02*
D03*
Y4105D02*
D03*
X18795Y3875D02*
D03*
X7265Y4105D02*
D03*
Y4695D02*
D03*
Y10645D02*
D03*
D99*
X840Y9136D02*
D03*
M02*
