%FSLAX24Y24*%
%MOIN*%
G70*
G01*
G75*
G04 Layer_Physical_Order=2*
G04 Layer_Color=128*
%ADD10C,0.0080*%
%ADD11C,0.0160*%
%ADD12C,0.0200*%
%ADD13C,0.0300*%
%ADD14C,0.0040*%
%ADD15C,0.0100*%
%ADD16C,0.0120*%
%ADD17C,0.0240*%
%ADD18C,0.0090*%
%ADD19R,0.0200X0.0200*%
%ADD20R,0.0200X0.0200*%
%ADD21C,0.0098*%
%ADD22C,0.0276*%
%ADD23R,0.0236X0.0413*%
%ADD24P,0.0283X4X90.0*%
%ADD25R,0.0940X0.0650*%
%ADD26R,0.0100X0.0270*%
%ADD27R,0.0550X0.0470*%
%ADD28R,0.0160X0.0440*%
G04:AMPARAMS|DCode=29|XSize=20mil|YSize=8mil|CornerRadius=3mil|HoleSize=0mil|Usage=FLASHONLY|Rotation=90.000|XOffset=0mil|YOffset=0mil|HoleType=Round|Shape=RoundedRectangle|*
%AMROUNDEDRECTD29*
21,1,0.0200,0.0020,0,0,90.0*
21,1,0.0140,0.0080,0,0,90.0*
1,1,0.0060,0.0010,0.0070*
1,1,0.0060,0.0010,-0.0070*
1,1,0.0060,-0.0010,-0.0070*
1,1,0.0060,-0.0010,0.0070*
%
%ADD29ROUNDEDRECTD29*%
G04:AMPARAMS|DCode=30|XSize=20mil|YSize=8mil|CornerRadius=3mil|HoleSize=0mil|Usage=FLASHONLY|Rotation=0.000|XOffset=0mil|YOffset=0mil|HoleType=Round|Shape=RoundedRectangle|*
%AMROUNDEDRECTD30*
21,1,0.0200,0.0020,0,0,0.0*
21,1,0.0140,0.0080,0,0,0.0*
1,1,0.0060,0.0070,-0.0010*
1,1,0.0060,-0.0070,-0.0010*
1,1,0.0060,-0.0070,0.0010*
1,1,0.0060,0.0070,0.0010*
%
%ADD30ROUNDEDRECTD30*%
%ADD31R,0.0360X0.0400*%
%ADD32R,0.0340X0.0310*%
%ADD33R,0.0320X0.0280*%
%ADD34R,0.0560X0.0560*%
%ADD35R,0.0480X0.0560*%
%ADD36R,0.0200X0.0400*%
G04:AMPARAMS|DCode=37|XSize=52mil|YSize=63mil|CornerRadius=5.2mil|HoleSize=0mil|Usage=FLASHONLY|Rotation=180.000|XOffset=0mil|YOffset=0mil|HoleType=Round|Shape=RoundedRectangle|*
%AMROUNDEDRECTD37*
21,1,0.0520,0.0526,0,0,180.0*
21,1,0.0416,0.0630,0,0,180.0*
1,1,0.0104,-0.0208,0.0263*
1,1,0.0104,0.0208,0.0263*
1,1,0.0104,0.0208,-0.0263*
1,1,0.0104,-0.0208,-0.0263*
%
%ADD37ROUNDEDRECTD37*%
%ADD38R,0.0400X0.0360*%
%ADD39R,0.0310X0.0340*%
%ADD40R,0.0400X0.0200*%
G04:AMPARAMS|DCode=41|XSize=52mil|YSize=63mil|CornerRadius=5.2mil|HoleSize=0mil|Usage=FLASHONLY|Rotation=315.000|XOffset=0mil|YOffset=0mil|HoleType=Round|Shape=RoundedRectangle|*
%AMROUNDEDRECTD41*
21,1,0.0520,0.0526,0,0,315.0*
21,1,0.0416,0.0630,0,0,315.0*
1,1,0.0104,-0.0039,-0.0333*
1,1,0.0104,-0.0333,-0.0039*
1,1,0.0104,0.0039,0.0333*
1,1,0.0104,0.0333,0.0039*
%
%ADD41ROUNDEDRECTD41*%
G04:AMPARAMS|DCode=42|XSize=52mil|YSize=63mil|CornerRadius=5.2mil|HoleSize=0mil|Usage=FLASHONLY|Rotation=270.000|XOffset=0mil|YOffset=0mil|HoleType=Round|Shape=RoundedRectangle|*
%AMROUNDEDRECTD42*
21,1,0.0520,0.0526,0,0,270.0*
21,1,0.0416,0.0630,0,0,270.0*
1,1,0.0104,-0.0263,-0.0208*
1,1,0.0104,-0.0263,0.0208*
1,1,0.0104,0.0263,0.0208*
1,1,0.0104,0.0263,-0.0208*
%
%ADD42ROUNDEDRECTD42*%
%ADD43R,0.0280X0.0320*%
%ADD44R,0.0100X0.0220*%
G04:AMPARAMS|DCode=45|XSize=22mil|YSize=10mil|CornerRadius=0mil|HoleSize=0mil|Usage=FLASHONLY|Rotation=45.000|XOffset=0mil|YOffset=0mil|HoleType=Round|Shape=Rectangle|*
%AMROTATEDRECTD45*
4,1,4,-0.0042,-0.0113,-0.0113,-0.0042,0.0042,0.0113,0.0113,0.0042,-0.0042,-0.0113,0.0*
%
%ADD45ROTATEDRECTD45*%

%ADD46R,0.1460X0.0480*%
%ADD47R,0.0560X0.0160*%
%ADD48R,0.0750X0.0910*%
%ADD49R,0.0750X0.0710*%
G04:AMPARAMS|DCode=50|XSize=8mil|YSize=28mil|CornerRadius=4mil|HoleSize=0mil|Usage=FLASHONLY|Rotation=270.000|XOffset=0mil|YOffset=0mil|HoleType=Round|Shape=RoundedRectangle|*
%AMROUNDEDRECTD50*
21,1,0.0080,0.0200,0,0,270.0*
21,1,0.0000,0.0280,0,0,270.0*
1,1,0.0080,-0.0100,0.0000*
1,1,0.0080,-0.0100,0.0000*
1,1,0.0080,0.0100,0.0000*
1,1,0.0080,0.0100,0.0000*
%
%ADD50ROUNDEDRECTD50*%
G04:AMPARAMS|DCode=51|XSize=8mil|YSize=28mil|CornerRadius=4mil|HoleSize=0mil|Usage=FLASHONLY|Rotation=180.000|XOffset=0mil|YOffset=0mil|HoleType=Round|Shape=RoundedRectangle|*
%AMROUNDEDRECTD51*
21,1,0.0080,0.0200,0,0,180.0*
21,1,0.0000,0.0280,0,0,180.0*
1,1,0.0080,0.0000,0.0100*
1,1,0.0080,0.0000,0.0100*
1,1,0.0080,0.0000,-0.0100*
1,1,0.0080,0.0000,-0.0100*
%
%ADD51ROUNDEDRECTD51*%
G04:AMPARAMS|DCode=52|XSize=182mil|YSize=182mil|CornerRadius=4.6mil|HoleSize=0mil|Usage=FLASHONLY|Rotation=180.000|XOffset=0mil|YOffset=0mil|HoleType=Round|Shape=RoundedRectangle|*
%AMROUNDEDRECTD52*
21,1,0.1820,0.1729,0,0,180.0*
21,1,0.1729,0.1820,0,0,180.0*
1,1,0.0091,-0.0865,0.0865*
1,1,0.0091,0.0865,0.0865*
1,1,0.0091,0.0865,-0.0865*
1,1,0.0091,-0.0865,-0.0865*
%
%ADD52ROUNDEDRECTD52*%
G04:AMPARAMS|DCode=53|XSize=182mil|YSize=182mil|CornerRadius=4.6mil|HoleSize=0mil|Usage=FLASHONLY|Rotation=135.000|XOffset=0mil|YOffset=0mil|HoleType=Round|Shape=RoundedRectangle|*
%AMROUNDEDRECTD53*
21,1,0.1820,0.1729,0,0,135.0*
21,1,0.1729,0.1820,0,0,135.0*
1,1,0.0091,0.0000,0.1223*
1,1,0.0091,0.1223,0.0000*
1,1,0.0091,0.0000,-0.1223*
1,1,0.0091,-0.1223,0.0000*
%
%ADD53ROUNDEDRECTD53*%
G04:AMPARAMS|DCode=54|XSize=8mil|YSize=28mil|CornerRadius=4mil|HoleSize=0mil|Usage=FLASHONLY|Rotation=135.000|XOffset=0mil|YOffset=0mil|HoleType=Round|Shape=RoundedRectangle|*
%AMROUNDEDRECTD54*
21,1,0.0080,0.0200,0,0,135.0*
21,1,0.0000,0.0280,0,0,135.0*
1,1,0.0080,0.0071,0.0071*
1,1,0.0080,0.0071,0.0071*
1,1,0.0080,-0.0071,-0.0071*
1,1,0.0080,-0.0071,-0.0071*
%
%ADD54ROUNDEDRECTD54*%
G04:AMPARAMS|DCode=55|XSize=8mil|YSize=28mil|CornerRadius=4mil|HoleSize=0mil|Usage=FLASHONLY|Rotation=225.000|XOffset=0mil|YOffset=0mil|HoleType=Round|Shape=RoundedRectangle|*
%AMROUNDEDRECTD55*
21,1,0.0080,0.0200,0,0,225.0*
21,1,0.0000,0.0280,0,0,225.0*
1,1,0.0080,-0.0071,0.0071*
1,1,0.0080,-0.0071,0.0071*
1,1,0.0080,0.0071,-0.0071*
1,1,0.0080,0.0071,-0.0071*
%
%ADD55ROUNDEDRECTD55*%
%ADD56P,0.0283X4X360.0*%
%ADD57R,0.0600X0.0950*%
%ADD58R,0.0240X0.0160*%
G04:AMPARAMS|DCode=59|XSize=14mil|YSize=14mil|CornerRadius=7mil|HoleSize=0mil|Usage=FLASHONLY|Rotation=0.000|XOffset=0mil|YOffset=0mil|HoleType=Round|Shape=RoundedRectangle|*
%AMROUNDEDRECTD59*
21,1,0.0140,0.0000,0,0,0.0*
21,1,0.0000,0.0140,0,0,0.0*
1,1,0.0140,0.0000,0.0000*
1,1,0.0140,0.0000,0.0000*
1,1,0.0140,0.0000,0.0000*
1,1,0.0140,0.0000,0.0000*
%
%ADD59ROUNDEDRECTD59*%
%ADD60R,0.0165X0.0400*%
%ADD61C,0.0236*%
%ADD62R,0.0120X0.0400*%
%ADD63R,0.0480X0.0400*%
%ADD64R,0.0400X0.0480*%
%ADD65R,0.0827X0.0206*%
%ADD66R,0.0394X0.0560*%
%ADD67R,0.0827X0.0354*%
%ADD68R,0.0560X0.0394*%
%ADD69R,0.0206X0.0827*%
%ADD70R,0.0354X0.0827*%
G04:AMPARAMS|DCode=71|XSize=100mil|YSize=35mil|CornerRadius=8.8mil|HoleSize=0mil|Usage=FLASHONLY|Rotation=180.000|XOffset=0mil|YOffset=0mil|HoleType=Round|Shape=RoundedRectangle|*
%AMROUNDEDRECTD71*
21,1,0.1000,0.0175,0,0,180.0*
21,1,0.0825,0.0350,0,0,180.0*
1,1,0.0175,-0.0413,0.0088*
1,1,0.0175,0.0413,0.0088*
1,1,0.0175,0.0413,-0.0088*
1,1,0.0175,-0.0413,-0.0088*
%
%ADD71ROUNDEDRECTD71*%
G04:AMPARAMS|DCode=72|XSize=100mil|YSize=35mil|CornerRadius=8.8mil|HoleSize=0mil|Usage=FLASHONLY|Rotation=90.000|XOffset=0mil|YOffset=0mil|HoleType=Round|Shape=RoundedRectangle|*
%AMROUNDEDRECTD72*
21,1,0.1000,0.0175,0,0,90.0*
21,1,0.0825,0.0350,0,0,90.0*
1,1,0.0175,0.0088,0.0413*
1,1,0.0175,0.0088,-0.0413*
1,1,0.0175,-0.0088,-0.0413*
1,1,0.0175,-0.0088,0.0413*
%
%ADD72ROUNDEDRECTD72*%
%ADD73R,0.0950X0.0300*%
%ADD74R,0.0512X0.0866*%
%ADD75R,0.0512X0.0551*%
%ADD76C,0.0160*%
%ADD77C,0.0630*%
%ADD78C,0.0360*%
%ADD79C,0.0070*%
%ADD80C,0.0060*%
%ADD81C,0.0400*%
%ADD82C,0.0280*%
%ADD83R,0.0520X0.0140*%
%ADD84R,0.0108X0.0250*%
%ADD85R,0.0247X0.0144*%
%ADD86R,0.0230X0.0158*%
%ADD87R,0.0095X0.0038*%
%ADD88R,0.0150X0.0200*%
%ADD89R,0.1410X0.0970*%
%ADD90R,0.0180X0.0170*%
%ADD91C,0.0551*%
%ADD92C,0.0660*%
%ADD93C,0.0160*%
%ADD94C,0.0240*%
%ADD95C,0.0140*%
%ADD96C,0.0480*%
%ADD97C,0.0210*%
%ADD98C,0.0410*%
G36*
X30265Y6153D02*
X30260Y6152D01*
X30191Y6124D01*
X30132Y6078D01*
X30086Y6019D01*
X30057Y5949D01*
X30047Y5875D01*
X30057Y5800D01*
X30086Y5731D01*
X30132Y5672D01*
X30191Y5626D01*
X30242Y5605D01*
Y5555D01*
X30191Y5534D01*
X30132Y5488D01*
X30086Y5429D01*
X30057Y5359D01*
X30047Y5285D01*
X30057Y5210D01*
X30086Y5141D01*
X30132Y5082D01*
X30191Y5036D01*
X30260Y5007D01*
X30265Y5007D01*
Y4383D01*
X30260Y4382D01*
X30191Y4354D01*
X30132Y4308D01*
X30086Y4249D01*
X30057Y4179D01*
X30047Y4105D01*
X30057Y4030D01*
X30086Y3961D01*
X30132Y3902D01*
X30191Y3856D01*
X30260Y3827D01*
X30265Y3827D01*
Y3247D01*
X28723Y2450D01*
X27539Y1277D01*
X26774Y-273D01*
X18865D01*
Y3597D01*
X18869Y3597D01*
X18939Y3626D01*
X18981Y3658D01*
X18998Y3670D01*
X19000Y3670D01*
X19000Y3670D01*
D01*
X19000D01*
X19000Y3670D01*
D01*
D01*
D01*
Y3670D01*
X19001Y3671D01*
X19465D01*
X19543Y3686D01*
X19609Y3731D01*
X19954Y4076D01*
X19954D01*
D01*
X19954Y4076D01*
X19954Y4076D01*
D01*
D01*
D01*
D01*
X19954Y4076D01*
X19966Y4088D01*
X20031Y4138D01*
X20122Y4175D01*
X20204Y4186D01*
X20220D01*
X20298Y4202D01*
X20364Y4246D01*
X20408Y4312D01*
X20424Y4390D01*
X20408Y4468D01*
X20364Y4534D01*
X20298Y4578D01*
X20220Y4594D01*
X19980D01*
X19980Y4594D01*
X19902Y4578D01*
X19836Y4534D01*
X19380Y4079D01*
X19000D01*
X19000Y4080D01*
D01*
Y4080D01*
X19000D01*
D01*
D01*
X19000Y4080D01*
X19000Y4080D01*
D01*
X19000D01*
D01*
X18999Y4079D01*
X18981Y4091D01*
X18939Y4124D01*
X18869Y4152D01*
X18865Y4153D01*
Y4777D01*
X18869Y4777D01*
X18939Y4806D01*
X18998Y4852D01*
X19044Y4911D01*
X19072Y4980D01*
X19082Y5055D01*
X19072Y5129D01*
X19044Y5199D01*
X18998Y5258D01*
X18939Y5304D01*
X18888Y5325D01*
Y5375D01*
X18939Y5396D01*
X18998Y5442D01*
X19044Y5501D01*
X19072Y5570D01*
X19082Y5645D01*
X19072Y5719D01*
X19044Y5789D01*
X18998Y5848D01*
X18939Y5894D01*
X18888Y5915D01*
Y5965D01*
X18939Y5986D01*
X18998Y6032D01*
X19044Y6091D01*
X19072Y6160D01*
X19082Y6235D01*
X19072Y6309D01*
X19044Y6379D01*
X18998Y6438D01*
X18939Y6484D01*
X18869Y6512D01*
X18865Y6513D01*
Y6818D01*
X25345D01*
X25368Y6774D01*
X25354Y6752D01*
X25342Y6690D01*
X25354Y6628D01*
X25389Y6575D01*
X25442Y6539D01*
X25505Y6527D01*
X25567Y6539D01*
X25620Y6575D01*
X25656Y6628D01*
X25668Y6690D01*
X25656Y6752D01*
X25641Y6774D01*
X25665Y6818D01*
X30265D01*
Y6153D01*
D02*
G37*
G36*
X18735Y10564D02*
X18720Y10562D01*
X18651Y10534D01*
X18592Y10488D01*
X18546Y10429D01*
X18517Y10359D01*
X18507Y10285D01*
X18517Y10210D01*
X18546Y10141D01*
X18592Y10082D01*
X18651Y10036D01*
X18702Y10015D01*
Y9965D01*
X18651Y9944D01*
X18592Y9898D01*
X18546Y9839D01*
X18517Y9769D01*
X18507Y9695D01*
X18517Y9620D01*
X18546Y9551D01*
X18592Y9492D01*
X18651Y9446D01*
X18702Y9425D01*
Y9375D01*
X18651Y9354D01*
X18592Y9308D01*
X18546Y9249D01*
X18517Y9179D01*
X18507Y9105D01*
X18517Y9030D01*
X18546Y8961D01*
X18592Y8902D01*
X18651Y8856D01*
X18702Y8835D01*
Y8785D01*
X18651Y8764D01*
X18592Y8718D01*
X18546Y8659D01*
X18517Y8589D01*
X18507Y8515D01*
X18517Y8440D01*
X18546Y8371D01*
X18592Y8312D01*
X18651Y8266D01*
X18720Y8237D01*
X18735Y8235D01*
Y7932D01*
X12328D01*
X12304Y7976D01*
X12328Y8012D01*
X12330Y8021D01*
X12390Y8080D01*
X12430Y8140D01*
X12444Y8210D01*
Y9494D01*
X12448Y9501D01*
X12464Y9579D01*
X12448Y9658D01*
X12404Y9724D01*
X12338Y9768D01*
X12260Y9783D01*
X12182Y9768D01*
X12116Y9724D01*
X12072Y9658D01*
X12056Y9579D01*
X12072Y9501D01*
X12076Y9494D01*
Y8421D01*
X12068Y8357D01*
X12040Y8290D01*
X11999Y8236D01*
X11996Y8234D01*
X11952Y8168D01*
X11936Y8090D01*
X11952Y8012D01*
X11976Y7976D01*
X11952Y7932D01*
X7335D01*
Y8007D01*
X7339Y8007D01*
X7409Y8036D01*
X7468Y8082D01*
X7514Y8141D01*
X7542Y8210D01*
X7552Y8285D01*
X7542Y8359D01*
X7514Y8429D01*
X7468Y8488D01*
X7409Y8534D01*
X7358Y8555D01*
Y8605D01*
X7409Y8626D01*
X7468Y8672D01*
X7514Y8731D01*
X7542Y8800D01*
X7552Y8875D01*
X7542Y8949D01*
X7514Y9019D01*
X7468Y9078D01*
X7409Y9124D01*
X7358Y9145D01*
Y9195D01*
X7409Y9216D01*
X7468Y9262D01*
X7514Y9321D01*
X7542Y9390D01*
X7552Y9465D01*
X7542Y9539D01*
X7514Y9609D01*
X7468Y9668D01*
X7409Y9714D01*
X7358Y9735D01*
Y9785D01*
X7409Y9806D01*
X7468Y9852D01*
X7514Y9911D01*
X7542Y9980D01*
X7552Y10055D01*
X7542Y10129D01*
X7514Y10199D01*
X7468Y10258D01*
X7409Y10304D01*
X7358Y10325D01*
Y10375D01*
X7409Y10396D01*
X7468Y10442D01*
X7514Y10501D01*
X7542Y10570D01*
X7552Y10645D01*
X7542Y10719D01*
X7514Y10789D01*
X7468Y10848D01*
X7409Y10894D01*
X7339Y10922D01*
X7335Y10923D01*
Y11513D01*
X8877Y12299D01*
X10050Y13473D01*
X10825Y15023D01*
X18735D01*
Y10564D01*
D02*
G37*
G36*
X30265Y10333D02*
X30260Y10332D01*
X30191Y10304D01*
X30132Y10258D01*
X30086Y10199D01*
X30057Y10129D01*
X30047Y10055D01*
X30057Y9980D01*
X30086Y9911D01*
X30132Y9852D01*
X30191Y9806D01*
X30242Y9785D01*
Y9735D01*
X30191Y9714D01*
X30132Y9668D01*
X30086Y9609D01*
X30057Y9539D01*
X30047Y9465D01*
X30057Y9390D01*
X30086Y9321D01*
X30132Y9262D01*
X30191Y9216D01*
X30242Y9195D01*
Y9145D01*
X30191Y9124D01*
X30132Y9078D01*
X30086Y9019D01*
X30057Y8949D01*
X30047Y8875D01*
X30057Y8800D01*
X30086Y8731D01*
X30132Y8672D01*
X30191Y8626D01*
X30260Y8597D01*
X30265Y8597D01*
Y7932D01*
X28149D01*
X28144Y7982D01*
X28182Y7989D01*
X28235Y8025D01*
X28271Y8078D01*
X28283Y8140D01*
X28271Y8202D01*
X28235Y8255D01*
X28182Y8291D01*
X28140Y8299D01*
X28130Y8303D01*
X27972Y8461D01*
Y8898D01*
X27963Y8945D01*
X27937Y8985D01*
X25042Y11879D01*
X25038Y11889D01*
X25030Y11931D01*
X24994Y11984D01*
X24941Y12020D01*
X24879Y12032D01*
X24817Y12020D01*
X24764Y11984D01*
X24728Y11931D01*
X24716Y11869D01*
D01*
X24710Y11853D01*
X24648Y11841D01*
X24595Y11805D01*
X24559Y11752D01*
X24547Y11690D01*
X24559Y11628D01*
X24595Y11575D01*
X24648Y11539D01*
X24690Y11531D01*
X24700Y11527D01*
X27488Y8739D01*
Y8249D01*
X27484Y8239D01*
X27459Y8202D01*
X27447Y8140D01*
X27459Y8078D01*
X27495Y8025D01*
X27548Y7989D01*
X27586Y7982D01*
X27581Y7932D01*
X23923D01*
X23899Y7976D01*
X23913Y7997D01*
X23929Y8075D01*
X23913Y8153D01*
X23869Y8219D01*
X23803Y8263D01*
X23725Y8279D01*
X23647Y8263D01*
X23581Y8219D01*
X23536Y8153D01*
X23521Y8075D01*
X23536Y7997D01*
X23550Y7976D01*
X23527Y7932D01*
X18865D01*
Y8237D01*
X18869Y8237D01*
X18939Y8266D01*
X18998Y8312D01*
X19044Y8371D01*
X19072Y8440D01*
X19082Y8515D01*
X19072Y8589D01*
X19044Y8659D01*
X18998Y8718D01*
X18939Y8764D01*
X18888Y8785D01*
Y8835D01*
X18939Y8856D01*
X18998Y8902D01*
X19044Y8961D01*
X19072Y9030D01*
X19082Y9105D01*
X19072Y9179D01*
X19044Y9249D01*
X18998Y9308D01*
X18939Y9354D01*
X18888Y9375D01*
Y9425D01*
X18939Y9446D01*
X18998Y9492D01*
X19044Y9551D01*
X19072Y9620D01*
X19082Y9695D01*
X19072Y9769D01*
X19044Y9839D01*
X18998Y9898D01*
X18939Y9944D01*
X18888Y9965D01*
Y10015D01*
X18939Y10036D01*
X18998Y10082D01*
X19044Y10141D01*
X19072Y10210D01*
X19082Y10285D01*
X19072Y10359D01*
X19044Y10429D01*
X18998Y10488D01*
X18939Y10534D01*
X18869Y10562D01*
X18865Y10563D01*
Y11513D01*
X20417Y12299D01*
X21590Y13473D01*
X22365Y15023D01*
X30265D01*
Y10333D01*
D02*
G37*
G36*
X41703Y3224D02*
X40253Y2450D01*
X39079Y1277D01*
X38304Y-273D01*
X30405D01*
Y1411D01*
X30453Y1425D01*
X30486Y1376D01*
X30552Y1332D01*
X30630Y1316D01*
X30707Y1331D01*
X30746Y1300D01*
Y1158D01*
X30737Y1113D01*
X30711Y1075D01*
X30706Y1069D01*
X30662Y1003D01*
X30646Y925D01*
X30662Y847D01*
X30706Y781D01*
X30772Y737D01*
X30850Y721D01*
X30928Y737D01*
X30994Y781D01*
X30995Y780D01*
X30998Y785D01*
X31094Y881D01*
X31138Y947D01*
X31154Y1025D01*
X31154Y1025D01*
X31154Y1025D01*
Y1025D01*
Y1161D01*
X31155Y1166D01*
X31154D01*
Y2077D01*
X32835D01*
X33007Y1905D01*
X33060Y1869D01*
X33123Y1857D01*
X33185Y1869D01*
X33238Y1905D01*
X33273Y1957D01*
X33286Y2020D01*
X33273Y2082D01*
X33238Y2135D01*
X33018Y2355D01*
X32965Y2391D01*
X32902Y2403D01*
X31154D01*
Y3106D01*
X31954Y3906D01*
X32830D01*
X32908Y3922D01*
X32974Y3966D01*
X33088Y4080D01*
X33132Y4146D01*
X33148Y4224D01*
X33132Y4302D01*
X33088Y4368D01*
X33022Y4412D01*
X32944Y4428D01*
X32866Y4412D01*
X32800Y4368D01*
X32791Y4359D01*
X32741Y4326D01*
X32682Y4314D01*
X31900D01*
X31850Y4324D01*
X31772Y4308D01*
X31706Y4264D01*
X31662Y4198D01*
X31660Y4188D01*
X30806Y3334D01*
X30762Y3268D01*
X30746Y3190D01*
Y1740D01*
X30707Y1709D01*
X30630Y1724D01*
X30552Y1708D01*
X30486Y1664D01*
X30453Y1615D01*
X30405Y1629D01*
Y3827D01*
X30409Y3827D01*
X30479Y3856D01*
X30481Y3858D01*
X30527Y3840D01*
X30542Y3769D01*
X30586Y3703D01*
X30652Y3659D01*
X30730Y3643D01*
X30808Y3659D01*
X30874Y3703D01*
X30918Y3769D01*
X30934Y3847D01*
X30918Y3925D01*
X30874Y3991D01*
X30808Y4035D01*
X30730Y4051D01*
X30654Y4036D01*
X30647Y4042D01*
X30620Y4084D01*
X30622Y4105D01*
X30612Y4179D01*
X30584Y4249D01*
X30538Y4308D01*
X30479Y4354D01*
X30409Y4382D01*
X30405Y4383D01*
Y5007D01*
X30409Y5007D01*
X30479Y5036D01*
X30538Y5082D01*
X30584Y5141D01*
X30612Y5210D01*
X30622Y5285D01*
X30612Y5359D01*
X30584Y5429D01*
X30538Y5488D01*
X30479Y5534D01*
X30428Y5555D01*
Y5605D01*
X30479Y5626D01*
X30538Y5672D01*
X30584Y5731D01*
X30612Y5800D01*
X30622Y5875D01*
X30612Y5949D01*
X30584Y6019D01*
X30538Y6078D01*
X30479Y6124D01*
X30409Y6152D01*
X30405Y6153D01*
Y6818D01*
X33536D01*
X33541Y6768D01*
X33503Y6761D01*
X33450Y6725D01*
X33415Y6672D01*
X33403Y6610D01*
X33415Y6548D01*
X33439Y6511D01*
X33443Y6501D01*
Y6456D01*
X33437Y6451D01*
X33396Y6439D01*
X33387Y6452D01*
X33229Y6610D01*
X33225Y6620D01*
X33216Y6662D01*
X33181Y6715D01*
X33128Y6751D01*
X33066Y6763D01*
X33003Y6751D01*
X32950Y6715D01*
X32915Y6662D01*
X32902Y6600D01*
X32915Y6538D01*
X32950Y6485D01*
X33003Y6449D01*
X33046Y6441D01*
X33056Y6437D01*
X33178Y6315D01*
Y6188D01*
X33128Y6183D01*
X33123Y6207D01*
X33097Y6247D01*
X32729Y6615D01*
X32730Y6616D01*
X32726Y6619D01*
X32724Y6624D01*
X32716Y6662D01*
X32681Y6715D01*
X32628Y6751D01*
X32565Y6763D01*
X32503Y6751D01*
X32450Y6715D01*
X32415Y6662D01*
X32402Y6600D01*
X32415Y6538D01*
X32450Y6485D01*
X32503Y6449D01*
X32553Y6439D01*
X32553Y6439D01*
X32553Y6439D01*
X32562Y6435D01*
X32888Y6110D01*
Y5290D01*
X32897Y5243D01*
X32923Y5203D01*
X33286Y4841D01*
X33263Y4797D01*
X33230Y4803D01*
X33168Y4791D01*
X33115Y4755D01*
X33079Y4702D01*
X33067Y4640D01*
X33079Y4578D01*
X33115Y4525D01*
X33168Y4489D01*
X33230Y4477D01*
X33232Y4477D01*
X33285Y4467D01*
X33331Y4436D01*
X33331Y4436D01*
Y4436D01*
D01*
Y4436D01*
X33331Y4436D01*
Y4436D01*
X35222Y2545D01*
X35208Y2497D01*
X35178Y2491D01*
X35149Y2471D01*
X35134D01*
X35122Y2474D01*
Y2471D01*
X34052D01*
X32987Y3537D01*
X32947Y3563D01*
X32900Y3572D01*
X31979D01*
X31969Y3576D01*
X31932Y3601D01*
X31870Y3613D01*
X31808Y3601D01*
X31755Y3565D01*
X31719Y3512D01*
X31707Y3450D01*
X31719Y3388D01*
X31755Y3335D01*
X31808Y3299D01*
X31870Y3287D01*
X31932Y3299D01*
X31969Y3324D01*
X31979Y3328D01*
X32849D01*
X33898Y2279D01*
X33884Y2231D01*
X33822Y2218D01*
X33756Y2174D01*
X33712Y2108D01*
X33696Y2030D01*
X33712Y1952D01*
X33716Y1945D01*
Y1836D01*
X32714Y834D01*
X32405D01*
X32398Y838D01*
X32320Y854D01*
X32242Y838D01*
X32195Y807D01*
X32148Y838D01*
X32070Y854D01*
X31992Y838D01*
X31926Y794D01*
X31882Y728D01*
X31866Y650D01*
X31882Y572D01*
X31926Y506D01*
X31992Y462D01*
X32070Y446D01*
X32148Y462D01*
X32195Y493D01*
X32242Y462D01*
X32320Y446D01*
X32398Y462D01*
X32405Y466D01*
X32790D01*
X32849Y478D01*
X32860Y480D01*
X32920Y520D01*
X34030Y1630D01*
X34070Y1690D01*
X34072Y1701D01*
X34084Y1760D01*
Y1945D01*
X34088Y1952D01*
X34104Y2030D01*
X34088Y2108D01*
X34044Y2174D01*
X34037Y2179D01*
X34052Y2227D01*
X35119D01*
X35122Y2224D01*
D01*
X35122Y2224D01*
X35122Y2224D01*
X35123Y2224D01*
X35123Y2223D01*
X35125Y2225D01*
X35178Y2189D01*
X35240Y2177D01*
X35302Y2189D01*
X35355Y2225D01*
X35391Y2278D01*
X35403Y2340D01*
X35420Y2357D01*
X35482Y2369D01*
X35535Y2405D01*
X35571Y2458D01*
X35583Y2520D01*
X35600Y2537D01*
X35662Y2549D01*
X35715Y2585D01*
X35751Y2638D01*
X35763Y2700D01*
D01*
D01*
X35800Y2717D01*
X35800Y2717D01*
Y2717D01*
X35862Y2729D01*
X35915Y2765D01*
X35951Y2818D01*
X35963Y2880D01*
D01*
D01*
X36032Y2909D01*
X36032D01*
X36085Y2945D01*
X36121Y2998D01*
X36133Y3060D01*
X36121Y3122D01*
X36085Y3175D01*
X36032Y3211D01*
X35974Y3222D01*
X35973Y3224D01*
Y3224D01*
X35970Y3225D01*
X35970Y3225D01*
D01*
D01*
D01*
X35968Y3225D01*
X33688Y5505D01*
Y6501D01*
X33692Y6511D01*
X33716Y6548D01*
X33729Y6610D01*
X33716Y6672D01*
X33681Y6725D01*
X33628Y6761D01*
X33591Y6768D01*
X33596Y6818D01*
X36600D01*
X36622Y6778D01*
X36606Y6700D01*
X36622Y6622D01*
X36666Y6556D01*
X36732Y6512D01*
X36810Y6496D01*
X36888Y6512D01*
X36954Y6556D01*
X36998Y6622D01*
X37014Y6700D01*
X36998Y6778D01*
X37020Y6818D01*
X41703D01*
Y3224D01*
D02*
G37*
G36*
X41703Y7932D02*
X38343D01*
X38319Y7976D01*
X38322Y7980D01*
X38337Y8058D01*
X38322Y8136D01*
X38277Y8202D01*
X38211Y8246D01*
X38133Y8262D01*
X38055Y8246D01*
X37989Y8202D01*
X37945Y8136D01*
X37929Y8058D01*
X37945Y7980D01*
X37947Y7976D01*
X37924Y7932D01*
X36076D01*
X36053Y7976D01*
X36073Y8007D01*
X36089Y8085D01*
X36073Y8163D01*
X36029Y8229D01*
X35963Y8273D01*
X35885Y8289D01*
X35807Y8273D01*
X35741Y8229D01*
X35696Y8163D01*
X35681Y8085D01*
X35696Y8007D01*
X35717Y7976D01*
X35693Y7932D01*
X30405D01*
Y8597D01*
X30409Y8597D01*
X30479Y8626D01*
X30538Y8672D01*
X30584Y8731D01*
X30612Y8800D01*
X30622Y8875D01*
X30612Y8949D01*
X30584Y9019D01*
X30538Y9078D01*
X30479Y9124D01*
X30428Y9145D01*
Y9195D01*
X30479Y9216D01*
X30538Y9262D01*
X30584Y9321D01*
X30612Y9390D01*
X30622Y9465D01*
X30612Y9539D01*
X30584Y9609D01*
X30538Y9668D01*
X30479Y9714D01*
X30428Y9735D01*
Y9785D01*
X30479Y9806D01*
X30538Y9852D01*
X30584Y9911D01*
X30612Y9980D01*
X30622Y10055D01*
X30612Y10129D01*
X30584Y10199D01*
X30538Y10258D01*
X30479Y10304D01*
X30409Y10332D01*
X30405Y10333D01*
Y11372D01*
X30449Y11395D01*
X30458Y11389D01*
X30520Y11377D01*
X30582Y11389D01*
X30635Y11425D01*
X30671Y11478D01*
X30683Y11540D01*
X30671Y11602D01*
X30669Y11606D01*
X30681Y11654D01*
X31947Y12299D01*
X33120Y13473D01*
X33895Y15023D01*
X41703D01*
Y7932D01*
D02*
G37*
G36*
X18735Y6514D02*
X18720Y6512D01*
X18651Y6484D01*
X18592Y6438D01*
X18546Y6379D01*
X18517Y6309D01*
X18507Y6235D01*
X18517Y6160D01*
X18546Y6091D01*
X18592Y6032D01*
X18651Y5986D01*
X18702Y5965D01*
Y5915D01*
X18651Y5894D01*
X18592Y5848D01*
X18546Y5789D01*
X18517Y5719D01*
X18507Y5645D01*
X18517Y5570D01*
X18546Y5501D01*
X18592Y5442D01*
X18651Y5396D01*
X18702Y5375D01*
Y5325D01*
X18651Y5304D01*
X18592Y5258D01*
X18546Y5199D01*
X18517Y5129D01*
X18507Y5055D01*
X18517Y4980D01*
X18546Y4911D01*
X18592Y4852D01*
X18651Y4806D01*
X18720Y4777D01*
X18735Y4775D01*
Y4154D01*
X18720Y4152D01*
X18651Y4124D01*
X18592Y4078D01*
X18546Y4019D01*
X18517Y3949D01*
X18507Y3875D01*
X18517Y3800D01*
X18546Y3731D01*
X18592Y3672D01*
X18651Y3626D01*
X18720Y3597D01*
X18735Y3595D01*
Y3222D01*
X17183Y2425D01*
X16009Y1252D01*
X15247Y-273D01*
X7335D01*
Y3827D01*
X7339Y3827D01*
X7409Y3856D01*
X7451Y3888D01*
X7468Y3900D01*
X7470Y3900D01*
X7470Y3900D01*
D01*
X7470D01*
X7470Y3900D01*
D01*
D01*
D01*
Y3900D01*
X7471Y3901D01*
X7935D01*
X8013Y3916D01*
X8079Y3961D01*
X8423Y4305D01*
X8423Y4305D01*
Y4305D01*
X8427Y4308D01*
X8445Y4316D01*
X8690D01*
X8768Y4332D01*
X8834Y4376D01*
X8878Y4442D01*
X8894Y4520D01*
X8878Y4598D01*
X8857Y4630D01*
X8876Y4676D01*
X8917Y4684D01*
X8970Y4719D01*
X9006Y4772D01*
X9018Y4835D01*
X9006Y4897D01*
X8970Y4950D01*
X8917Y4986D01*
X8855Y4998D01*
X8792Y4986D01*
X8739Y4950D01*
X8704Y4897D01*
X8692Y4835D01*
X8704Y4772D01*
X8707Y4768D01*
X8683Y4724D01*
X8350D01*
X8272Y4708D01*
X8206Y4664D01*
X7850Y4309D01*
X7470D01*
X7470Y4310D01*
D01*
Y4310D01*
X7470D01*
D01*
D01*
X7470Y4310D01*
X7470Y4310D01*
D01*
X7470D01*
D01*
X7469Y4309D01*
X7451Y4321D01*
X7409Y4354D01*
X7358Y4375D01*
Y4425D01*
X7409Y4446D01*
X7468Y4492D01*
X7514Y4551D01*
X7542Y4620D01*
X7552Y4695D01*
X7542Y4769D01*
X7514Y4839D01*
X7468Y4898D01*
X7409Y4944D01*
X7358Y4965D01*
Y5015D01*
X7409Y5036D01*
X7468Y5082D01*
X7514Y5141D01*
X7542Y5210D01*
X7552Y5285D01*
X7542Y5359D01*
X7514Y5429D01*
X7468Y5488D01*
X7409Y5534D01*
X7358Y5555D01*
Y5605D01*
X7409Y5626D01*
X7468Y5672D01*
X7514Y5731D01*
X7542Y5800D01*
X7552Y5875D01*
X7542Y5949D01*
X7514Y6019D01*
X7468Y6078D01*
X7409Y6124D01*
X7346Y6150D01*
Y6200D01*
X7409Y6226D01*
X7468Y6272D01*
X7514Y6331D01*
X7542Y6400D01*
X7552Y6475D01*
X7542Y6549D01*
X7514Y6619D01*
X7468Y6678D01*
X7409Y6724D01*
X7339Y6752D01*
X7335Y6753D01*
Y6810D01*
X9475D01*
X9480Y6760D01*
X9432Y6751D01*
X9379Y6715D01*
X9344Y6662D01*
X9332Y6600D01*
X9344Y6538D01*
X9379Y6485D01*
X9432Y6449D01*
X9475Y6441D01*
X9485Y6437D01*
X9628Y6294D01*
Y5860D01*
X9628Y5860D01*
X9628D01*
X9637Y5813D01*
X9663Y5773D01*
X12567Y2870D01*
X12571Y2860D01*
X12579Y2818D01*
X12615Y2765D01*
X12668Y2729D01*
X12730Y2717D01*
X12792Y2729D01*
X12845Y2765D01*
X12881Y2818D01*
X12893Y2880D01*
D01*
D01*
X12962Y2909D01*
X12962D01*
X13015Y2945D01*
X13051Y2998D01*
X13063Y3060D01*
X13051Y3122D01*
X13015Y3175D01*
X12962Y3211D01*
X12920Y3219D01*
X12910Y3223D01*
X10117Y6016D01*
Y6491D01*
X10121Y6501D01*
X10146Y6538D01*
X10158Y6600D01*
X10146Y6662D01*
X10110Y6715D01*
X10057Y6751D01*
X10009Y6760D01*
X10014Y6810D01*
X18735D01*
Y6514D01*
D02*
G37*
G36*
X7178Y10917D02*
X7121Y10894D01*
X7062Y10848D01*
X7016Y10789D01*
X6987Y10719D01*
X6978Y10649D01*
X6928Y10652D01*
Y12470D01*
X6919Y12516D01*
X6892Y12556D01*
X5763Y13685D01*
X5763Y13685D01*
X5763Y13685D01*
X5719Y13729D01*
X5716Y13747D01*
X5680Y13800D01*
X5627Y13836D01*
X5565Y13848D01*
X5502Y13836D01*
X5449Y13800D01*
X5414Y13747D01*
X5402Y13685D01*
X5414Y13622D01*
X5449Y13569D01*
Y13550D01*
X5414Y13497D01*
X5406Y13454D01*
X5401Y13445D01*
X4343Y12387D01*
X4317Y12347D01*
X4308Y12300D01*
Y10121D01*
X3943Y9756D01*
X3917Y9717D01*
X3908Y9670D01*
Y7750D01*
X3861Y7731D01*
X3470Y8122D01*
X3466Y8132D01*
X3457Y8175D01*
X3433Y8211D01*
X3429Y8221D01*
Y8430D01*
X3467Y8461D01*
X3490Y8457D01*
X3552Y8469D01*
X3605Y8505D01*
X3641Y8558D01*
X3653Y8620D01*
X3641Y8682D01*
X3605Y8735D01*
X3552Y8771D01*
X3490Y8783D01*
X3428Y8771D01*
X3375Y8735D01*
X3360Y8734D01*
X3006Y9088D01*
X3011Y9138D01*
X3038Y9156D01*
X3058Y9186D01*
X3108D01*
X3128Y9156D01*
X3178Y9123D01*
X3236Y9111D01*
X3295Y9123D01*
X3345Y9156D01*
X3378Y9205D01*
X3389Y9264D01*
X3378Y9322D01*
X3377Y9324D01*
X3404Y9366D01*
X3450Y9357D01*
X3512Y9369D01*
X3565Y9405D01*
X3601Y9458D01*
X3613Y9520D01*
X3601Y9582D01*
X3579Y9615D01*
X3607Y9656D01*
X3659Y9646D01*
X3721Y9658D01*
X3774Y9694D01*
X3810Y9747D01*
X3822Y9809D01*
X3810Y9871D01*
X3774Y9924D01*
X3721Y9960D01*
X3659Y9972D01*
X3597Y9960D01*
X3544Y9924D01*
X3508Y9871D01*
X3496Y9809D01*
X3508Y9747D01*
X3530Y9714D01*
X3502Y9673D01*
X3450Y9683D01*
X3388Y9671D01*
X3335Y9635D01*
X3299Y9582D01*
X3287Y9520D01*
X3299Y9458D01*
X3304Y9451D01*
X3276Y9409D01*
X3236Y9417D01*
X3178Y9405D01*
X3128Y9372D01*
X3108Y9342D01*
X3058D01*
X3038Y9372D01*
X2988Y9405D01*
X2929Y9417D01*
X2871Y9405D01*
X2821Y9372D01*
X2803Y9345D01*
X2754Y9340D01*
X1864Y10230D01*
X1869Y10280D01*
X1893Y10296D01*
X1918D01*
X1971Y10261D01*
X2034Y10249D01*
X2096Y10261D01*
X2149Y10296D01*
X2174D01*
X2227Y10261D01*
X2290Y10249D01*
X2352Y10261D01*
X2401Y10294D01*
X2430Y10250D01*
X2483Y10215D01*
X2545Y10202D01*
X2608Y10215D01*
X2661Y10250D01*
X2696Y10303D01*
X2709Y10365D01*
X2696Y10428D01*
X2661Y10481D01*
X2608Y10516D01*
X2545Y10529D01*
X2483Y10516D01*
X2434Y10484D01*
X2405Y10527D01*
X2352Y10563D01*
X2290Y10575D01*
X2227Y10563D01*
X2174Y10527D01*
X2149D01*
X2096Y10563D01*
X2034Y10575D01*
X1971Y10563D01*
X1918Y10527D01*
X1893D01*
X1840Y10563D01*
X1778Y10575D01*
X1715Y10563D01*
X1662Y10527D01*
X1646Y10503D01*
X1596Y10498D01*
X1292Y10802D01*
Y11650D01*
Y11776D01*
X1296Y11786D01*
X1321Y11822D01*
X1333Y11885D01*
X1321Y11947D01*
X1285Y12000D01*
X1232Y12036D01*
X1170Y12048D01*
X1108Y12036D01*
X1055Y12000D01*
X1019Y11947D01*
X1007Y11885D01*
X1019Y11822D01*
X1044Y11786D01*
X1048Y11776D01*
Y11650D01*
Y10751D01*
X1048Y10751D01*
X1048D01*
X1057Y10704D01*
X1083Y10664D01*
X2321Y9427D01*
X2316Y9377D01*
X2310Y9372D01*
X2276Y9323D01*
X2265Y9264D01*
X2276Y9206D01*
X2310Y9156D01*
X2359Y9123D01*
X2418Y9111D01*
Y9111D01*
Y9110D01*
D01*
D01*
D01*
X2429Y9106D01*
X2429Y9105D01*
X2429Y9105D01*
D01*
D01*
D01*
X2429Y9105D01*
D01*
D01*
D01*
D01*
D01*
D01*
D01*
D01*
D01*
X2429Y9105D01*
X2429Y9105D01*
X2432Y9105D01*
X2857Y8680D01*
X2852Y8630D01*
X2818Y8608D01*
X2816Y8604D01*
X2782D01*
X2732Y8638D01*
X2673Y8649D01*
X2615Y8638D01*
X2565Y8604D01*
X2565Y8605D01*
X2565Y8605D01*
D01*
D01*
D01*
X2554Y8600D01*
X2553Y8601D01*
X2553Y8601D01*
D01*
X2553D01*
X2553Y8601D01*
X2553Y8600D01*
X2553Y8600D01*
D01*
D01*
X2553Y8600D01*
X2551Y8598D01*
X2436D01*
X2397Y8590D01*
X2364Y8568D01*
X2350Y8554D01*
X2300Y8559D01*
X2270Y8605D01*
X2220Y8638D01*
X2162Y8649D01*
X2103Y8638D01*
X2053Y8605D01*
X2020Y8555D01*
X2009Y8497D01*
X2020Y8438D01*
X2053Y8388D01*
X2103Y8355D01*
X2154Y8345D01*
X2147Y8310D01*
Y8167D01*
X2155Y8128D01*
X2177Y8095D01*
X2356Y7916D01*
X2351Y7867D01*
X2314Y7842D01*
X2281Y7792D01*
X2269Y7734D01*
X2281Y7675D01*
X2314Y7625D01*
X2313Y7624D01*
Y7624D01*
Y7624D01*
X2316Y7618D01*
X2316Y7609D01*
X2316Y7608D01*
X2318D01*
Y7401D01*
X2279Y7369D01*
X2260Y7373D01*
X2198Y7361D01*
X2145Y7325D01*
X2109Y7272D01*
X2097Y7210D01*
X2070Y7183D01*
X2008Y7171D01*
X1955Y7135D01*
X1919Y7082D01*
X1907Y7020D01*
Y7020D01*
X1902Y6987D01*
X1852Y6992D01*
Y7191D01*
X1856Y7201D01*
X1881Y7238D01*
X1893Y7300D01*
X1881Y7362D01*
X1845Y7415D01*
X1826Y7429D01*
X1816Y7478D01*
X1820Y7483D01*
X1827Y7522D01*
Y7552D01*
X1866Y7583D01*
X1906Y7575D01*
X1964Y7587D01*
X2014Y7620D01*
X2047Y7670D01*
X2059Y7728D01*
X2047Y7787D01*
X2014Y7837D01*
X1964Y7870D01*
X1906Y7881D01*
X1866Y7873D01*
X1827Y7905D01*
Y8018D01*
X1891Y8081D01*
X1894Y8081D01*
X1894Y8081D01*
X1894Y8081D01*
D01*
D01*
D01*
D01*
D01*
D01*
D01*
D01*
D01*
X1894Y8081D01*
D01*
D01*
D01*
X1894Y8081D01*
X1895Y8082D01*
X1906Y8087D01*
D01*
D01*
D01*
Y8087D01*
Y8087D01*
X1964Y8099D01*
X2014Y8132D01*
X2047Y8182D01*
X2059Y8240D01*
X2047Y8299D01*
X2014Y8348D01*
X1964Y8382D01*
X1906Y8393D01*
X1847Y8382D01*
X1798Y8348D01*
X1765Y8299D01*
X1753Y8240D01*
X1752D01*
X1752D01*
D01*
D01*
X1752D01*
D01*
D01*
D01*
X1748Y8229D01*
X1747Y8229D01*
X1747Y8229D01*
D01*
D01*
D01*
X1747Y8229D01*
D01*
D01*
D01*
D01*
D01*
D01*
X1747Y8229D01*
X1747Y8229D01*
X1747Y8225D01*
X1653Y8132D01*
X1631Y8099D01*
X1623Y8060D01*
Y7564D01*
X1542Y7483D01*
X1496Y7502D01*
Y8120D01*
X1498Y8120D01*
Y8120D01*
D01*
X1498Y8120D01*
X1498D01*
X1500Y8126D01*
X1503Y8132D01*
X1502Y8133D01*
X1535Y8182D01*
X1547Y8241D01*
X1535Y8299D01*
X1502Y8349D01*
X1452Y8382D01*
X1394Y8394D01*
X1335Y8382D01*
X1290Y8352D01*
X1263Y8366D01*
X1249Y8393D01*
X1279Y8438D01*
X1291Y8497D01*
X1279Y8555D01*
X1246Y8605D01*
Y8644D01*
X1279Y8694D01*
X1291Y8752D01*
X1279Y8811D01*
X1249Y8856D01*
X1263Y8883D01*
X1290Y8898D01*
X1335Y8867D01*
X1394Y8856D01*
X1453Y8867D01*
X1502Y8900D01*
X1535Y8950D01*
X1547Y9009D01*
X1535Y9067D01*
X1502Y9117D01*
X1453Y9150D01*
X1394Y9161D01*
X1335Y9150D01*
X1286Y9117D01*
X1285Y9116D01*
X1246D01*
X1197Y9149D01*
X1138Y9161D01*
X1080Y9149D01*
X1034Y9119D01*
X1007Y9133D01*
X993Y9160D01*
X1023Y9205D01*
X1035Y9264D01*
X1023Y9322D01*
X990Y9372D01*
X941Y9405D01*
X882Y9417D01*
X824Y9405D01*
X774Y9372D01*
X741Y9322D01*
X729Y9264D01*
X741Y9205D01*
X774Y9156D01*
X774Y9156D01*
Y9116D01*
X741Y9066D01*
X729Y9008D01*
X741Y8949D01*
X774Y8900D01*
X824Y8867D01*
X882Y8855D01*
X941Y8867D01*
X986Y8897D01*
X1012Y8883D01*
X1026Y8856D01*
X997Y8811D01*
X985Y8752D01*
X997Y8694D01*
X1030Y8644D01*
Y8605D01*
X1007Y8570D01*
X957Y8565D01*
X772Y8750D01*
X739Y8772D01*
X700Y8780D01*
X368D01*
X329Y8772D01*
X302Y8754D01*
X298Y8754D01*
X298Y8754D01*
X298Y8754D01*
Y8754D01*
X294Y8753D01*
X294D01*
X292Y8751D01*
X280Y8753D01*
X231Y8743D01*
X192Y8775D01*
Y9089D01*
X330Y9227D01*
X340Y9231D01*
X382Y9239D01*
X435Y9275D01*
X471Y9328D01*
X483Y9390D01*
X471Y9452D01*
X435Y9505D01*
X382Y9541D01*
X320Y9553D01*
X320Y9553D01*
X320Y9553D01*
D01*
X303Y9550D01*
X303D01*
X303Y9550D01*
X303Y9550D01*
X291Y9612D01*
X255Y9665D01*
X215Y9692D01*
X225Y9741D01*
X282Y9753D01*
X335Y9788D01*
X371Y9841D01*
X383Y9904D01*
X371Y9966D01*
X335Y10019D01*
Y10045D01*
X371Y10098D01*
X383Y10160D01*
X371Y10222D01*
X335Y10275D01*
Y10319D01*
X371Y10372D01*
X383Y10435D01*
X371Y10497D01*
X335Y10550D01*
X282Y10586D01*
X220Y10598D01*
X158Y10586D01*
X105Y10550D01*
X69Y10497D01*
X57Y10435D01*
X69Y10372D01*
X105Y10319D01*
Y10275D01*
X69Y10222D01*
X57Y10160D01*
X69Y10098D01*
X105Y10045D01*
Y10019D01*
X69Y9966D01*
X57Y9904D01*
X67Y9853D01*
X25Y9825D01*
X-28Y9861D01*
X-90Y9873D01*
X-152Y9861D01*
X-205Y9825D01*
X-241Y9772D01*
X-249Y9728D01*
X-300Y9738D01*
X-362Y9726D01*
X-415Y9691D01*
X-451Y9638D01*
X-463Y9575D01*
X-451Y9513D01*
X-415Y9460D01*
X-362Y9424D01*
X-364Y9418D01*
Y9418D01*
X-373Y9371D01*
Y9331D01*
X-412Y9300D01*
X-430Y9303D01*
X-492Y9291D01*
X-545Y9255D01*
X-581Y9202D01*
X-593Y9140D01*
X-581Y9078D01*
X-556Y9041D01*
X-552Y9031D01*
Y8251D01*
X-591Y8219D01*
X-610Y8223D01*
X-672Y8211D01*
X-725Y8175D01*
X-761Y8122D01*
X-773Y8060D01*
X-761Y7998D01*
X-725Y7945D01*
X-672Y7909D01*
X-610Y7897D01*
X-591Y7901D01*
X-552Y7869D01*
Y7713D01*
X-596Y7689D01*
X-596Y7689D01*
X-659Y7702D01*
X-721Y7689D01*
X-774Y7654D01*
X-810Y7601D01*
X-822Y7538D01*
X-810Y7476D01*
X-774Y7423D01*
X-721Y7388D01*
X-659Y7375D01*
X-596Y7388D01*
X-596Y7388D01*
X-552Y7364D01*
Y5139D01*
X-556Y5129D01*
X-581Y5092D01*
X-593Y5030D01*
X-581Y4968D01*
X-545Y4915D01*
X-492Y4879D01*
X-430Y4867D01*
X-368Y4879D01*
X-318Y4913D01*
X-268Y4879D01*
X-205Y4867D01*
X-143Y4879D01*
X-93Y4913D01*
X-42Y4879D01*
X20Y4867D01*
X82Y4879D01*
X130Y4911D01*
X178Y4879D01*
X240Y4867D01*
X302Y4879D01*
X355Y4915D01*
X391Y4968D01*
X403Y5030D01*
X391Y5092D01*
X355Y5145D01*
X355Y5145D01*
X353Y5157D01*
X327Y5197D01*
X208Y5315D01*
X203Y5322D01*
X202Y5321D01*
X192Y5331D01*
Y8405D01*
X231Y8437D01*
X280Y8427D01*
X342Y8439D01*
X395Y8475D01*
X431Y8528D01*
X440Y8576D01*
X658D01*
X979Y8255D01*
X979Y8252D01*
X979Y8252D01*
X979Y8252D01*
D01*
D01*
X979Y8252D01*
D01*
D01*
D01*
X979Y8252D01*
X979Y8252D01*
X984Y8241D01*
D01*
Y8241D01*
D01*
D01*
D01*
X984D01*
X985D01*
X996Y8182D01*
X1029Y8132D01*
X1079Y8099D01*
X1138Y8088D01*
X1196Y8099D01*
X1246Y8132D01*
D01*
X1292Y8102D01*
Y7281D01*
X1281Y7265D01*
X1272Y7218D01*
Y6895D01*
X913Y6536D01*
X887Y6497D01*
X878Y6450D01*
Y5735D01*
X832Y5726D01*
X779Y5690D01*
X744Y5637D01*
X732Y5575D01*
X744Y5512D01*
X768Y5477D01*
X742Y5460D01*
X698Y5394D01*
X682Y5316D01*
X698Y5238D01*
X742Y5172D01*
X808Y5128D01*
X886Y5112D01*
X964Y5128D01*
X1014Y5160D01*
X1036Y5149D01*
X1048Y5100D01*
X1029Y5073D01*
X1017Y5010D01*
X1029Y4948D01*
X1065Y4895D01*
X1118Y4859D01*
X1180Y4847D01*
X1242Y4859D01*
X1295Y4895D01*
X1331Y4948D01*
X1335Y4969D01*
X1385D01*
X1389Y4948D01*
X1425Y4895D01*
X1478Y4859D01*
X1540Y4847D01*
X1602Y4859D01*
X1655Y4895D01*
X1691Y4948D01*
X1692Y4955D01*
X1725Y4969D01*
X1752Y4958D01*
X1752Y4958D01*
X1787Y4905D01*
X1840Y4869D01*
X1902Y4857D01*
X1965Y4869D01*
X2018Y4905D01*
X2053Y4958D01*
X2054Y4963D01*
X2090Y4987D01*
Y4987D01*
X2119Y4958D01*
D01*
X2155Y4905D01*
X2208Y4869D01*
X2270Y4857D01*
X2332Y4869D01*
X2385Y4905D01*
X2421Y4958D01*
X2425Y4979D01*
X2475D01*
X2479Y4958D01*
X2515Y4905D01*
X2568Y4869D01*
X2630Y4857D01*
X2692Y4869D01*
X2745Y4905D01*
X2781Y4958D01*
X2793Y5020D01*
X2781Y5082D01*
X2756Y5119D01*
X2752Y5129D01*
Y6119D01*
X3021Y6388D01*
X3068Y6369D01*
Y5509D01*
X3064Y5499D01*
X3039Y5462D01*
X3027Y5400D01*
X3039Y5338D01*
X3075Y5285D01*
X3128Y5249D01*
X3190Y5237D01*
X3252Y5249D01*
X3305Y5285D01*
X3341Y5338D01*
X3353Y5400D01*
D01*
D01*
X3380Y5417D01*
X3380Y5417D01*
Y5417D01*
X3442Y5429D01*
X3495Y5465D01*
X3531Y5518D01*
X3543Y5580D01*
X3531Y5642D01*
X3506Y5679D01*
X3502Y5689D01*
Y6069D01*
X3707Y6273D01*
X3721Y6295D01*
X3769Y6280D01*
Y4160D01*
X3704Y4096D01*
X3678Y4056D01*
X3669Y4010D01*
Y3102D01*
X3678Y3055D01*
X3704Y3015D01*
X3913Y2807D01*
Y1381D01*
X3913Y1381D01*
X3913D01*
X3923Y1334D01*
X3949Y1294D01*
X4275Y969D01*
X4288Y948D01*
X4328Y922D01*
X4375Y912D01*
X5992D01*
Y912D01*
Y911D01*
X6018Y906D01*
X6040Y891D01*
X6041Y891D01*
X6107Y846D01*
X6185Y831D01*
X6263Y846D01*
X6329Y891D01*
X6373Y957D01*
X6389Y1035D01*
X6373Y1113D01*
X6329Y1179D01*
X6263Y1223D01*
X6185Y1239D01*
X6107Y1223D01*
X6041Y1179D01*
X6040Y1178D01*
X6018Y1164D01*
X5992Y1158D01*
Y1157D01*
X4432D01*
X4370Y1219D01*
X4375Y1269D01*
X4390Y1279D01*
X4426Y1332D01*
X4434Y1375D01*
X4438Y1385D01*
X4786Y1733D01*
X4812Y1772D01*
X4821Y1819D01*
Y3335D01*
X4946Y3459D01*
X4972Y3499D01*
X4981Y3546D01*
Y3744D01*
X4972Y3791D01*
X4946Y3831D01*
X4852Y3924D01*
Y5669D01*
X4899Y5688D01*
X5471Y5115D01*
X5476Y5105D01*
X5484Y5062D01*
X5519Y5009D01*
X5572Y4974D01*
X5635Y4962D01*
X5697Y4974D01*
X5750Y5009D01*
X5786Y5062D01*
X5798Y5125D01*
X5786Y5187D01*
X5750Y5240D01*
X5697Y5276D01*
X5654Y5284D01*
X5645Y5288D01*
X5092Y5840D01*
Y5929D01*
X5139Y5948D01*
X5471Y5615D01*
X5476Y5605D01*
X5484Y5562D01*
X5519Y5509D01*
X5572Y5474D01*
X5635Y5462D01*
X5697Y5474D01*
X5750Y5509D01*
X5786Y5562D01*
X5798Y5625D01*
X5786Y5687D01*
X5750Y5740D01*
X5697Y5776D01*
X5654Y5784D01*
X5645Y5788D01*
X5272Y6160D01*
Y6249D01*
X5319Y6268D01*
X5471Y6115D01*
X5476Y6105D01*
X5484Y6062D01*
X5519Y6009D01*
X5572Y5974D01*
X5635Y5962D01*
X5697Y5974D01*
X5750Y6009D01*
X5786Y6062D01*
X5798Y6125D01*
X5786Y6187D01*
X5750Y6240D01*
X5697Y6276D01*
X5654Y6284D01*
X5645Y6288D01*
X5432Y6500D01*
Y7567D01*
X5482Y7572D01*
X5484Y7562D01*
X5519Y7509D01*
X5572Y7474D01*
X5635Y7462D01*
X5697Y7474D01*
X5750Y7509D01*
X5786Y7562D01*
X5798Y7625D01*
X5786Y7687D01*
X5750Y7740D01*
X5728Y7755D01*
X5721Y7804D01*
X5745Y7835D01*
X5745Y7835D01*
X5745D01*
X5781Y7888D01*
X5793Y7950D01*
X5781Y8012D01*
X5745Y8065D01*
X5692Y8101D01*
X5630Y8113D01*
X5568Y8101D01*
X5515Y8065D01*
X5480Y8014D01*
X5432Y8028D01*
Y8567D01*
X5482Y8572D01*
X5484Y8562D01*
X5519Y8509D01*
X5572Y8474D01*
X5635Y8462D01*
X5697Y8474D01*
X5750Y8509D01*
X5786Y8562D01*
X5798Y8625D01*
X5786Y8687D01*
X5750Y8740D01*
X5697Y8776D01*
X5635Y8788D01*
X5572Y8776D01*
X5519Y8740D01*
X5484Y8687D01*
X5482Y8677D01*
X5432Y8682D01*
Y9067D01*
X5482Y9072D01*
X5484Y9062D01*
X5519Y9009D01*
X5572Y8974D01*
X5635Y8962D01*
X5697Y8974D01*
X5750Y9009D01*
X5786Y9062D01*
X5798Y9125D01*
X5786Y9187D01*
X5750Y9240D01*
X5697Y9276D01*
X5635Y9288D01*
X5572Y9276D01*
X5519Y9240D01*
X5484Y9187D01*
X5482Y9177D01*
X5432Y9182D01*
Y9457D01*
X5482Y9462D01*
X5484Y9452D01*
X5519Y9399D01*
X5572Y9364D01*
X5635Y9352D01*
X5697Y9364D01*
X5750Y9399D01*
X5786Y9452D01*
X5798Y9515D01*
X5786Y9577D01*
X5750Y9630D01*
X5697Y9666D01*
X5635Y9678D01*
X5572Y9666D01*
X5519Y9630D01*
X5484Y9577D01*
X5482Y9567D01*
X5432Y9572D01*
Y9617D01*
X5433D01*
X5432Y9622D01*
Y9723D01*
X5476Y9747D01*
X5477Y9746D01*
X5555Y9731D01*
X5633Y9746D01*
X5699Y9791D01*
X5743Y9857D01*
X5759Y9935D01*
X5743Y10013D01*
X5720Y10047D01*
X5730Y10096D01*
X5750Y10109D01*
X5786Y10162D01*
X5798Y10225D01*
X5786Y10287D01*
X5750Y10340D01*
X5697Y10376D01*
X5635Y10388D01*
X5572Y10376D01*
X5519Y10340D01*
X5484Y10287D01*
X5472Y10225D01*
X5484Y10162D01*
D01*
X5477Y10123D01*
X5477Y10123D01*
D01*
X5411Y10079D01*
X5405Y10083D01*
X5367Y10108D01*
Y11366D01*
X5371Y11376D01*
X5396Y11412D01*
X5408Y11475D01*
X5396Y11537D01*
X5360Y11590D01*
Y11590D01*
D01*
X5391Y11668D01*
X5391Y11668D01*
X5391Y11668D01*
X5403Y11730D01*
X5391Y11792D01*
X5355Y11845D01*
X5302Y11881D01*
X5259Y11889D01*
X5245Y11937D01*
X5345Y12037D01*
X5394Y12032D01*
X5409Y12009D01*
X5462Y11974D01*
X5525Y11962D01*
X5587Y11974D01*
X5640Y12009D01*
X5676Y12062D01*
X5688Y12125D01*
X5676Y12187D01*
X5640Y12240D01*
X5640Y12240D01*
X5640D01*
X5627Y12279D01*
D01*
X5627Y12279D01*
X5680Y12315D01*
X5716Y12368D01*
X5727Y12427D01*
X5742Y12432D01*
X5753Y12435D01*
X5759Y12436D01*
D01*
X5776Y12440D01*
D01*
X5777Y12440D01*
X5775Y12442D01*
D01*
X6368Y11849D01*
Y9350D01*
X6368Y9350D01*
X6368D01*
X6377Y9303D01*
X6404Y9263D01*
X6761Y8906D01*
Y8667D01*
X6761Y8667D01*
X6761D01*
X6770Y8620D01*
X6796Y8580D01*
X6897Y8480D01*
D01*
X6895Y8479D01*
X6895Y8478D01*
D01*
D01*
X6895D01*
X6895Y8478D01*
X6895Y8478D01*
X6895Y8478D01*
X6895Y8478D01*
X6895Y8478D01*
X6895Y8478D01*
D01*
Y8478D01*
X6901Y8474D01*
X6940Y8423D01*
X6968Y8356D01*
X6977Y8285D01*
X6977D01*
X6987Y8210D01*
X7016Y8141D01*
X7062Y8082D01*
X7121Y8036D01*
X7178Y8012D01*
Y7888D01*
X7163Y7865D01*
X7161Y7863D01*
X7153Y7820D01*
Y6930D01*
X7161Y6887D01*
X7178Y6862D01*
Y6747D01*
X7121Y6724D01*
X7062Y6678D01*
X7016Y6619D01*
X6987Y6549D01*
X6977Y6475D01*
X6987Y6400D01*
X7016Y6331D01*
X7062Y6272D01*
X7121Y6226D01*
X7178Y6202D01*
Y6147D01*
X7121Y6124D01*
X7062Y6078D01*
X7016Y6019D01*
X6987Y5949D01*
X6977Y5875D01*
X6987Y5800D01*
X7016Y5731D01*
X7062Y5672D01*
X7121Y5626D01*
X7172Y5605D01*
Y5555D01*
X7121Y5534D01*
X7062Y5488D01*
X7016Y5429D01*
X6987Y5359D01*
X6977Y5285D01*
X6987Y5210D01*
X7016Y5141D01*
X7062Y5082D01*
X7121Y5036D01*
X7172Y5015D01*
Y4965D01*
X7121Y4944D01*
X7062Y4898D01*
X7061Y4898D01*
X7004Y4854D01*
X6938Y4827D01*
X6873Y4818D01*
X6867Y4819D01*
Y4819D01*
X6866Y4819D01*
D01*
D01*
X6866D01*
Y4819D01*
X6864Y4817D01*
X6785D01*
X6577Y5025D01*
Y7484D01*
X6880Y7787D01*
X6890Y7791D01*
X6932Y7799D01*
X6985Y7835D01*
X7021Y7888D01*
X7033Y7950D01*
X7021Y8012D01*
X6985Y8065D01*
X6932Y8101D01*
X6870Y8113D01*
X6808Y8101D01*
X6755Y8065D01*
X6719Y8012D01*
X6711Y7970D01*
X6707Y7960D01*
X6368Y7621D01*
X6342Y7582D01*
X6332Y7535D01*
Y4975D01*
X6332Y4975D01*
X6332D01*
X6342Y4928D01*
X6368Y4888D01*
X6648Y4608D01*
X6688Y4582D01*
X6735Y4572D01*
X6864D01*
X6866Y4570D01*
Y4570D01*
X6866D01*
D01*
D01*
X6867Y4570D01*
X6867Y4570D01*
D01*
X6873Y4571D01*
X6938Y4563D01*
X7004Y4535D01*
X7061Y4491D01*
X7062Y4492D01*
X7121Y4446D01*
X7172Y4425D01*
Y4375D01*
X7121Y4354D01*
X7062Y4308D01*
X7016Y4249D01*
X6987Y4179D01*
X6977Y4105D01*
X6987Y4030D01*
X7016Y3961D01*
X7062Y3902D01*
X7121Y3856D01*
X7178Y3832D01*
Y-273D01*
X-2115D01*
Y2328D01*
X-2077Y2360D01*
X-2035Y2352D01*
X-1973Y2364D01*
X-1920Y2399D01*
X-1884Y2452D01*
X-1872Y2515D01*
X-1884Y2577D01*
X-1920Y2630D01*
X-1973Y2666D01*
X-2035Y2678D01*
X-2077Y2670D01*
X-2115Y2701D01*
Y2792D01*
X-2224Y2901D01*
X-2225D01*
X-2258Y2935D01*
X-2259Y2935D01*
X-2328D01*
X-2329Y2935D01*
X-2329Y2935D01*
X-3633D01*
Y11609D01*
X-3594Y11641D01*
X-3530Y11628D01*
X-3502Y11586D01*
X-3513Y11530D01*
X-3501Y11468D01*
X-3465Y11415D01*
X-3413Y11379D01*
X-3350Y11367D01*
X-3288Y11379D01*
X-3235Y11415D01*
X-3199Y11468D01*
X-3187Y11530D01*
X-3199Y11592D01*
X-3235Y11645D01*
X-3288Y11681D01*
X-3324Y11688D01*
X-3330Y11703D01*
X-3307Y11747D01*
X-3232Y11762D01*
X-3166Y11806D01*
X-3122Y11872D01*
X-3106Y11950D01*
X-3122Y12028D01*
X-3166Y12094D01*
X-3232Y12138D01*
X-3310Y12154D01*
X-3333Y12149D01*
X-3376Y12214D01*
X-3442Y12258D01*
X-3520Y12274D01*
X-3594Y12259D01*
X-3633Y12291D01*
Y15023D01*
X7178D01*
Y10917D01*
D02*
G37*
%LPC*%
G36*
X19645Y6203D02*
X19573Y6189D01*
X19511Y6148D01*
X19471Y6087D01*
X19456Y6015D01*
X19471Y5943D01*
X19511Y5881D01*
X19573Y5841D01*
X19645Y5826D01*
X19717Y5841D01*
X19778Y5881D01*
X19819Y5943D01*
X19833Y6015D01*
X19819Y6087D01*
X19778Y6148D01*
X19717Y6189D01*
X19645Y6203D01*
D02*
G37*
G36*
X31219Y6224D02*
X31141Y6208D01*
X31074Y6164D01*
X31030Y6098D01*
X31015Y6020D01*
X31030Y5942D01*
X31074Y5876D01*
X31141Y5832D01*
X31219Y5816D01*
X31297Y5832D01*
X31363Y5876D01*
X31407Y5942D01*
X31422Y6020D01*
X31407Y6098D01*
X31363Y6164D01*
X31297Y6208D01*
X31219Y6224D01*
D02*
G37*
G36*
X27210Y5324D02*
X27132Y5309D01*
X27124Y5304D01*
X25360D01*
X25353Y5309D01*
X25275Y5324D01*
X25197Y5309D01*
X25131Y5264D01*
X25086Y5198D01*
X25071Y5120D01*
X25086Y5042D01*
X25131Y4976D01*
X25197Y4932D01*
X25275Y4916D01*
X25353Y4932D01*
X25360Y4937D01*
X27124D01*
X27132Y4932D01*
X27133Y4932D01*
X27161Y4890D01*
X27157Y4870D01*
X27169Y4808D01*
X27205Y4755D01*
X27258Y4719D01*
X27320Y4707D01*
X27382Y4719D01*
X27435Y4755D01*
X27471Y4808D01*
X27483Y4870D01*
X27471Y4932D01*
X27435Y4985D01*
X27406Y5005D01*
X27398Y5042D01*
X27398D01*
X27398Y5042D01*
X27414Y5120D01*
X27398Y5198D01*
X27354Y5264D01*
X27288Y5309D01*
X27210Y5324D01*
D02*
G37*
G36*
X35349Y9692D02*
X35271Y9676D01*
X35205Y9632D01*
X35160Y9566D01*
X35145Y9488D01*
X35160Y9410D01*
X35205Y9344D01*
X35271Y9299D01*
X35349Y9284D01*
X35427Y9299D01*
X35493Y9344D01*
X35537Y9410D01*
X35553Y9488D01*
X35537Y9566D01*
X35493Y9632D01*
X35427Y9676D01*
X35349Y9692D01*
D02*
G37*
G36*
X9015Y9709D02*
X8937Y9693D01*
X8871Y9649D01*
X8826Y9583D01*
X8811Y9505D01*
X8826Y9427D01*
X8871Y9361D01*
X8937Y9316D01*
X9015Y9301D01*
X9093Y9316D01*
X9159Y9361D01*
X9203Y9427D01*
X9219Y9505D01*
X9203Y9583D01*
X9159Y9649D01*
X9093Y9693D01*
X9015Y9709D01*
D02*
G37*
G36*
X8075Y6419D02*
X7997Y6403D01*
X7931Y6359D01*
X7886Y6293D01*
X7871Y6215D01*
X7886Y6137D01*
X7931Y6071D01*
X7997Y6026D01*
X8075Y6011D01*
X8153Y6026D01*
X8219Y6071D01*
X8263Y6137D01*
X8279Y6215D01*
X8263Y6293D01*
X8219Y6359D01*
X8153Y6403D01*
X8075Y6419D01*
D02*
G37*
G36*
X17205Y5379D02*
X17127Y5363D01*
X17061Y5319D01*
X17016Y5253D01*
X17001Y5175D01*
X17016Y5097D01*
X17061Y5031D01*
X17127Y4986D01*
X17205Y4971D01*
X17283Y4986D01*
X17349Y5031D01*
X17393Y5097D01*
X17409Y5175D01*
X17393Y5253D01*
X17349Y5319D01*
X17283Y5363D01*
X17205Y5379D01*
D02*
G37*
G36*
X38780Y5344D02*
X38776Y5343D01*
X36810D01*
X36732Y5328D01*
X36666Y5283D01*
X36622Y5217D01*
X36606Y5139D01*
X36622Y5061D01*
X36666Y4995D01*
X36732Y4951D01*
X36810Y4935D01*
X38780D01*
X38858Y4951D01*
X38924Y4995D01*
X38968Y5061D01*
X38984Y5139D01*
X38984Y5140D01*
X38984Y5140D01*
X38968Y5218D01*
X38924Y5284D01*
X38858Y5328D01*
X38780Y5344D01*
D02*
G37*
G36*
X20395Y9749D02*
X20317Y9733D01*
X20251Y9689D01*
X20206Y9623D01*
X20191Y9545D01*
X20206Y9467D01*
X20251Y9401D01*
X20317Y9356D01*
X20395Y9341D01*
X20473Y9356D01*
X20539Y9401D01*
X20583Y9467D01*
X20599Y9545D01*
X20583Y9623D01*
X20539Y9689D01*
X20473Y9733D01*
X20395Y9749D01*
D02*
G37*
G36*
X16113Y5584D02*
X16035Y5568D01*
X16027Y5564D01*
X15624D01*
X15565Y5552D01*
X15554Y5550D01*
X15494Y5510D01*
X15287Y5302D01*
X13843D01*
X13836Y5307D01*
X13758Y5323D01*
X13680Y5307D01*
X13614Y5263D01*
X13569Y5197D01*
X13554Y5119D01*
X13569Y5041D01*
X13614Y4975D01*
X13680Y4930D01*
X13758Y4915D01*
X13836Y4930D01*
X13843Y4935D01*
X15363D01*
X15421Y4947D01*
X15433Y4949D01*
X15493Y4989D01*
X15607Y5104D01*
X15655Y5089D01*
X15659Y5068D01*
X15695Y5015D01*
X15748Y4979D01*
X15810Y4967D01*
X15810Y4967D01*
X15810Y4967D01*
X15847Y4950D01*
D01*
D01*
X15859Y4888D01*
X15895Y4835D01*
X15948Y4799D01*
X16010Y4787D01*
X16072Y4799D01*
X16125Y4835D01*
X16161Y4888D01*
X16173Y4950D01*
X16161Y5012D01*
X16125Y5065D01*
X16072Y5101D01*
X16010Y5113D01*
X16010Y5113D01*
X16010Y5113D01*
X15990Y5122D01*
X15978Y5171D01*
X15999Y5196D01*
X16027D01*
X16035Y5192D01*
X16113Y5176D01*
X16191Y5192D01*
X16257Y5236D01*
X16301Y5302D01*
X16317Y5380D01*
X16301Y5458D01*
X16257Y5524D01*
X16191Y5568D01*
X16113Y5584D01*
D02*
G37*
G36*
X-1475Y5363D02*
X-1538Y5351D01*
X-1591Y5315D01*
X-1626Y5262D01*
X-1638Y5200D01*
X-1626Y5138D01*
X-1591Y5085D01*
X-1538Y5049D01*
X-1475Y5037D01*
X-1413Y5049D01*
X-1360Y5085D01*
X-1324Y5138D01*
X-1312Y5200D01*
X-1324Y5262D01*
X-1360Y5315D01*
X-1413Y5351D01*
X-1475Y5363D01*
D02*
G37*
G36*
X28545Y5379D02*
X28467Y5363D01*
X28401Y5319D01*
X28356Y5253D01*
X28341Y5175D01*
X28356Y5097D01*
X28401Y5031D01*
X28467Y4986D01*
X28545Y4971D01*
X28623Y4986D01*
X28689Y5031D01*
X28733Y5097D01*
X28749Y5175D01*
X28733Y5253D01*
X28689Y5319D01*
X28623Y5363D01*
X28545Y5379D01*
D02*
G37*
G36*
X-2214Y8909D02*
X-2276Y8897D01*
X-2329Y8861D01*
X-2365Y8809D01*
X-2377Y8746D01*
X-2365Y8684D01*
X-2329Y8631D01*
X-2276Y8595D01*
X-2214Y8583D01*
X-2151Y8595D01*
X-2099Y8631D01*
X-2063Y8684D01*
X-2051Y8746D01*
X-2063Y8809D01*
X-2099Y8861D01*
X-2151Y8897D01*
X-2214Y8909D01*
D02*
G37*
G36*
X3680Y9348D02*
X3618Y9336D01*
X3565Y9301D01*
X3529Y9248D01*
X3517Y9185D01*
X3529Y9123D01*
X3565Y9070D01*
X3618Y9034D01*
X3680Y9022D01*
X3742Y9034D01*
X3795Y9070D01*
X3831Y9123D01*
X3843Y9185D01*
X3831Y9248D01*
X3795Y9301D01*
X3742Y9336D01*
X3680Y9348D01*
D02*
G37*
G36*
X-1225Y13978D02*
X-1295Y13964D01*
X-1355Y13925D01*
X-1395Y13865D01*
X-1409Y13795D01*
Y13201D01*
X-2245Y12365D01*
X-2285Y12305D01*
X-2287Y12293D01*
X-2299Y12235D01*
Y9845D01*
X-2285Y9775D01*
X-2245Y9715D01*
X-2185Y9675D01*
X-2115Y9661D01*
X-2045Y9675D01*
X-1989Y9713D01*
X-1957Y9696D01*
X-1945Y9688D01*
Y8447D01*
X-3001Y7391D01*
X-3052Y7315D01*
X-3070Y7225D01*
Y4975D01*
X-3052Y4885D01*
X-3001Y4809D01*
X-3001Y4809D01*
X-3001Y4809D01*
D01*
X-3001D01*
Y4809D01*
D01*
X429Y1379D01*
X429Y1379D01*
X480Y1345D01*
X505Y1328D01*
X595Y1310D01*
X595Y1310D01*
X2445D01*
X2535Y1328D01*
X2611Y1379D01*
X2661Y1455D01*
X2679Y1545D01*
X2661Y1635D01*
X2611Y1711D01*
X2535Y1761D01*
X2445Y1779D01*
X692D01*
X-2601Y5072D01*
Y7128D01*
X-2227Y7501D01*
X-2188Y7470D01*
X-2232Y7405D01*
X-2250Y7315D01*
X-2232Y7225D01*
X-2181Y7149D01*
X-2105Y7098D01*
X-2015Y7080D01*
X-1925Y7098D01*
X-1849Y7149D01*
X-1055Y7944D01*
X-1004Y8020D01*
X-986Y8110D01*
Y12125D01*
X-1004Y12215D01*
X-1055Y12291D01*
X-1131Y12341D01*
X-1220Y12359D01*
X-1310Y12341D01*
X-1386Y12291D01*
X-1392Y12282D01*
X-1442D01*
X-1444Y12286D01*
X-1457Y12294D01*
X-1465Y12307D01*
X-1541Y12358D01*
X-1631Y12376D01*
X-1651Y12372D01*
X-1675Y12416D01*
X-1095Y12995D01*
X-1056Y13055D01*
X-1053Y13066D01*
X-1042Y13125D01*
Y13795D01*
X-1056Y13865D01*
X-1095Y13925D01*
X-1155Y13964D01*
X-1225Y13978D01*
D02*
G37*
G36*
X29485Y8923D02*
X29413Y8909D01*
X29351Y8868D01*
X29311Y8807D01*
X29296Y8735D01*
X29311Y8663D01*
X29351Y8601D01*
X29413Y8561D01*
X29485Y8546D01*
X29557Y8561D01*
X29618Y8601D01*
X29659Y8663D01*
X29673Y8735D01*
X29659Y8807D01*
X29618Y8868D01*
X29557Y8909D01*
X29485Y8923D01*
D02*
G37*
G36*
X41345Y8939D02*
X41267Y8923D01*
X41201Y8879D01*
X41156Y8813D01*
X41141Y8735D01*
X41156Y8657D01*
X41201Y8591D01*
X41267Y8546D01*
X41345Y8531D01*
X41423Y8546D01*
X41489Y8591D01*
X41533Y8657D01*
X41549Y8735D01*
X41533Y8813D01*
X41489Y8879D01*
X41423Y8923D01*
X41345Y8939D01*
D02*
G37*
G36*
X17955D02*
X17877Y8923D01*
X17811Y8879D01*
X17766Y8813D01*
X17751Y8735D01*
X17766Y8657D01*
X17811Y8591D01*
X17877Y8546D01*
X17955Y8531D01*
X18033Y8546D01*
X18099Y8591D01*
X18143Y8657D01*
X18159Y8735D01*
X18143Y8813D01*
X18099Y8879D01*
X18033Y8923D01*
X17955Y8939D01*
D02*
G37*
G36*
X38795Y9753D02*
X38732Y9741D01*
X38679Y9705D01*
X38644Y9652D01*
X38632Y9590D01*
X38644Y9527D01*
X38679Y9474D01*
X38732Y9439D01*
X38795Y9427D01*
X38857Y9439D01*
X38898Y9466D01*
X38939Y9438D01*
X38933Y9406D01*
X38945Y9343D01*
X38980Y9290D01*
X39033Y9255D01*
X39096Y9242D01*
X39158Y9255D01*
X39211Y9290D01*
X39246Y9343D01*
X39259Y9406D01*
X39246Y9468D01*
X39211Y9521D01*
X39158Y9556D01*
X39096Y9569D01*
X39033Y9556D01*
X38993Y9529D01*
X38951Y9557D01*
X38958Y9590D01*
X38946Y9652D01*
X38910Y9705D01*
X38857Y9741D01*
X38795Y9753D01*
D02*
G37*
G36*
X21525Y6763D02*
X21462Y6751D01*
X21409Y6715D01*
X21374Y6662D01*
X21362Y6600D01*
X21374Y6538D01*
X21398Y6501D01*
X21402Y6491D01*
Y6461D01*
X21356Y6442D01*
X21188Y6610D01*
X21184Y6620D01*
X21176Y6662D01*
X21140Y6715D01*
X21087Y6751D01*
X21025Y6763D01*
X20962Y6751D01*
X20909Y6715D01*
X20874Y6662D01*
X20862Y6600D01*
X20874Y6538D01*
X20909Y6485D01*
X20962Y6449D01*
X21005Y6441D01*
X21015Y6437D01*
X21178Y6274D01*
Y5840D01*
X21178Y5840D01*
X21178D01*
X21187Y5793D01*
X21213Y5753D01*
X24097Y2870D01*
X24101Y2860D01*
X24109Y2818D01*
X24145Y2765D01*
X24198Y2729D01*
X24260Y2717D01*
X24322Y2729D01*
X24375Y2765D01*
X24411Y2818D01*
X24423Y2880D01*
D01*
D01*
X24492Y2909D01*
X24492D01*
X24545Y2945D01*
X24581Y2998D01*
X24593Y3060D01*
X24581Y3122D01*
X24545Y3175D01*
X24492Y3211D01*
X24450Y3219D01*
X24440Y3223D01*
X21647Y6016D01*
Y6491D01*
X21651Y6501D01*
X21676Y6538D01*
X21688Y6600D01*
X21676Y6662D01*
X21640Y6715D01*
X21587Y6751D01*
X21525Y6763D01*
D02*
G37*
G36*
X14055Y6748D02*
X13992Y6736D01*
X13939Y6700D01*
X13904Y6647D01*
X13892Y6585D01*
X13904Y6522D01*
X13939Y6469D01*
X13992Y6434D01*
X14055Y6422D01*
X14117Y6434D01*
X14170Y6469D01*
X14206Y6522D01*
X14218Y6585D01*
X14206Y6647D01*
X14170Y6700D01*
X14117Y6736D01*
X14055Y6748D01*
D02*
G37*
G36*
X6820Y7288D02*
X6758Y7276D01*
X6705Y7240D01*
X6669Y7187D01*
X6657Y7125D01*
X6669Y7062D01*
X6705Y7009D01*
X6758Y6974D01*
X6820Y6962D01*
X6882Y6974D01*
X6935Y7009D01*
X6971Y7062D01*
X6983Y7125D01*
X6971Y7187D01*
X6935Y7240D01*
X6882Y7276D01*
X6820Y7288D01*
D02*
G37*
G36*
Y6893D02*
X6758Y6881D01*
X6705Y6845D01*
X6669Y6792D01*
X6657Y6730D01*
X6669Y6668D01*
X6705Y6615D01*
X6758Y6579D01*
X6820Y6567D01*
X6882Y6579D01*
X6935Y6615D01*
X6971Y6668D01*
X6983Y6730D01*
X6971Y6792D01*
X6935Y6845D01*
X6882Y6881D01*
X6820Y6893D01*
D02*
G37*
G36*
X38095Y9649D02*
X38017Y9633D01*
X37951Y9589D01*
X37906Y9523D01*
X37891Y9445D01*
X37906Y9367D01*
X37951Y9301D01*
X38017Y9256D01*
X38095Y9241D01*
X38173Y9256D01*
X38239Y9301D01*
X38283Y9367D01*
X38299Y9445D01*
X38283Y9523D01*
X38239Y9589D01*
X38173Y9633D01*
X38095Y9649D01*
D02*
G37*
G36*
X20905Y1038D02*
X20842Y1026D01*
X20789Y990D01*
X20754Y937D01*
X20742Y875D01*
X20754Y812D01*
X20789Y759D01*
X20842Y724D01*
X20905Y712D01*
X20967Y724D01*
X21020Y759D01*
X21056Y812D01*
X21068Y875D01*
X21056Y937D01*
X21020Y990D01*
X20967Y1026D01*
X20905Y1038D01*
D02*
G37*
G36*
X7875Y1099D02*
X7797Y1083D01*
X7731Y1039D01*
X7686Y973D01*
X7671Y895D01*
X7686Y817D01*
X7731Y751D01*
X7797Y706D01*
X7875Y691D01*
X7953Y706D01*
X8019Y751D01*
X8063Y817D01*
X8079Y895D01*
X8063Y973D01*
X8019Y1039D01*
X7953Y1083D01*
X7875Y1099D01*
D02*
G37*
G36*
X20665Y648D02*
X20602Y636D01*
X20549Y600D01*
X20514Y547D01*
X20502Y485D01*
X20514Y422D01*
X20549Y369D01*
X20602Y334D01*
X20665Y322D01*
X20727Y334D01*
X20780Y369D01*
X20816Y422D01*
X20828Y485D01*
X20816Y547D01*
X20780Y600D01*
X20727Y636D01*
X20665Y648D01*
D02*
G37*
G36*
X32390Y1508D02*
X32328Y1496D01*
X32275Y1460D01*
X32239Y1407D01*
X32227Y1345D01*
X32239Y1283D01*
X32275Y1230D01*
X32328Y1194D01*
X32364Y1187D01*
X32357Y1150D01*
X32369Y1088D01*
X32405Y1035D01*
X32458Y999D01*
X32520Y987D01*
X32582Y999D01*
X32635Y1035D01*
X32671Y1088D01*
X32683Y1150D01*
X32671Y1212D01*
X32635Y1265D01*
X32582Y1301D01*
X32546Y1308D01*
X32553Y1345D01*
X32541Y1407D01*
X32505Y1460D01*
X32452Y1496D01*
X32390Y1508D01*
D02*
G37*
G36*
X5785Y2038D02*
X5722Y2026D01*
X5669Y1990D01*
X5634Y1937D01*
X5622Y1875D01*
X5634Y1812D01*
X5669Y1759D01*
X5722Y1724D01*
X5785Y1712D01*
X5847Y1724D01*
X5900Y1759D01*
X5936Y1812D01*
X5948Y1875D01*
X5936Y1937D01*
X5900Y1990D01*
X5847Y2026D01*
X5785Y2038D01*
D02*
G37*
G36*
X9015Y1688D02*
X8952Y1676D01*
X8899Y1640D01*
X8864Y1587D01*
X8852Y1525D01*
X8864Y1462D01*
X8899Y1409D01*
X8952Y1374D01*
X9015Y1362D01*
X9077Y1374D01*
X9130Y1409D01*
X9166Y1462D01*
X9178Y1525D01*
X9166Y1587D01*
X9130Y1640D01*
X9077Y1676D01*
X9015Y1688D01*
D02*
G37*
G36*
X19295Y1499D02*
X19217Y1483D01*
X19151Y1439D01*
X19106Y1373D01*
X19091Y1295D01*
X19106Y1217D01*
X19151Y1151D01*
X19217Y1106D01*
X19295Y1091D01*
X19373Y1106D01*
X19439Y1151D01*
X19483Y1217D01*
X19499Y1295D01*
X19483Y1373D01*
X19439Y1439D01*
X19373Y1483D01*
X19295Y1499D01*
D02*
G37*
G36*
X9255Y608D02*
X9192Y596D01*
X9139Y560D01*
X9104Y507D01*
X9092Y445D01*
X9104Y382D01*
X9139Y329D01*
X9192Y294D01*
X9255Y282D01*
X9317Y294D01*
X9370Y329D01*
X9406Y382D01*
X9418Y445D01*
X9406Y507D01*
X9370Y560D01*
X9317Y596D01*
X9255Y608D01*
D02*
G37*
G36*
X22300Y2304D02*
X22222Y2288D01*
X22156Y2244D01*
X22112Y2178D01*
X22096Y2100D01*
X22112Y2022D01*
X22137Y1984D01*
Y1628D01*
X21605Y1095D01*
X21569Y1042D01*
X21557Y980D01*
Y316D01*
X21532Y278D01*
X21516Y200D01*
X21532Y122D01*
X21576Y56D01*
X21642Y12D01*
X21720Y-4D01*
X21798Y12D01*
X21864Y56D01*
X21908Y122D01*
X21924Y200D01*
X21908Y278D01*
X21883Y316D01*
Y912D01*
X22415Y1445D01*
X22451Y1498D01*
X22463Y1560D01*
X22463Y1560D01*
X22463Y1560D01*
Y1560D01*
Y1984D01*
X22488Y2022D01*
X22504Y2100D01*
X22488Y2178D01*
X22444Y2244D01*
X22378Y2288D01*
X22300Y2304D01*
D02*
G37*
G36*
X10830D02*
X10752Y2288D01*
X10686Y2244D01*
X10642Y2178D01*
X10626Y2100D01*
X10642Y2022D01*
X10667Y1984D01*
Y1628D01*
X10135Y1095D01*
X10099Y1042D01*
X10087Y980D01*
Y316D01*
X10062Y278D01*
X10046Y200D01*
X10062Y122D01*
X10106Y56D01*
X10172Y12D01*
X10250Y-4D01*
X10328Y12D01*
X10394Y56D01*
X10438Y122D01*
X10454Y200D01*
X10438Y278D01*
X10413Y316D01*
Y912D01*
X10945Y1445D01*
X10981Y1498D01*
X10993Y1560D01*
X10993Y1560D01*
X10993Y1560D01*
Y1560D01*
Y1984D01*
X11018Y2022D01*
X11034Y2100D01*
X11018Y2178D01*
X10974Y2244D01*
X10908Y2288D01*
X10830Y2304D01*
D02*
G37*
G36*
X9055Y218D02*
X8992Y206D01*
X8939Y170D01*
X8904Y117D01*
X8892Y55D01*
X8904Y-8D01*
X8939Y-61D01*
X8992Y-96D01*
X9055Y-108D01*
X9117Y-96D01*
X9170Y-61D01*
X9206Y-8D01*
X9218Y55D01*
X9206Y117D01*
X9170Y170D01*
X9117Y206D01*
X9055Y218D01*
D02*
G37*
G36*
X5470Y438D02*
X5408Y426D01*
X5355Y390D01*
X5319Y337D01*
X5307Y275D01*
X5319Y212D01*
X5355Y159D01*
X5408Y124D01*
X5470Y112D01*
X5532Y124D01*
X5585Y159D01*
X5621Y212D01*
X5633Y275D01*
X5621Y337D01*
X5585Y390D01*
X5532Y426D01*
X5470Y438D01*
D02*
G37*
G36*
X8185Y689D02*
X8107Y673D01*
X8041Y629D01*
X7996Y563D01*
X7981Y485D01*
X7996Y407D01*
X8041Y341D01*
X8107Y296D01*
X8185Y281D01*
X8263Y296D01*
X8329Y341D01*
X8373Y407D01*
X8389Y485D01*
X8373Y563D01*
X8329Y629D01*
X8263Y673D01*
X8185Y689D01*
D02*
G37*
G36*
X36680Y2493D02*
X36618Y2481D01*
X36565Y2445D01*
X36529Y2392D01*
X36521Y2350D01*
X36517Y2340D01*
X35699Y1522D01*
X34720D01*
X34673Y1513D01*
X34633Y1487D01*
X33286Y139D01*
X31547D01*
X31537Y143D01*
X31501Y168D01*
X31438Y180D01*
X31376Y168D01*
X31323Y132D01*
X31288Y79D01*
X31275Y17D01*
X31288Y-46D01*
X31323Y-99D01*
X31376Y-134D01*
X31438Y-146D01*
X31501Y-134D01*
X31537Y-110D01*
X31547Y-105D01*
X33337D01*
X33384Y-96D01*
X33423Y-70D01*
X33423Y-70D01*
X33423Y-70D01*
X34771Y1278D01*
X35750D01*
X35797Y1287D01*
X35837Y1313D01*
X36690Y2167D01*
X36700Y2171D01*
X36742Y2179D01*
X36795Y2215D01*
X36831Y2268D01*
X36843Y2330D01*
X36831Y2392D01*
X36795Y2445D01*
X36742Y2481D01*
X36680Y2493D01*
D02*
G37*
G36*
X5950Y438D02*
X5888Y426D01*
X5835Y390D01*
X5799Y337D01*
X5787Y275D01*
X5799Y212D01*
X5835Y159D01*
X5888Y124D01*
X5950Y112D01*
X6012Y124D01*
X6065Y159D01*
X6101Y212D01*
X6113Y275D01*
X6101Y337D01*
X6065Y390D01*
X6012Y426D01*
X5950Y438D01*
D02*
G37*
G36*
X6025Y4308D02*
X5963Y4296D01*
X5910Y4260D01*
X5875Y4207D01*
X5862Y4145D01*
X5875Y4082D01*
X5910Y4030D01*
X5963Y3994D01*
X6025Y3982D01*
X6088Y3994D01*
X6141Y4030D01*
X6176Y4082D01*
X6188Y4145D01*
X6176Y4207D01*
X6141Y4260D01*
X6088Y4296D01*
X6025Y4308D01*
D02*
G37*
G36*
X34295Y5618D02*
X34232Y5606D01*
X34179Y5570D01*
X34144Y5517D01*
X34132Y5455D01*
X34144Y5392D01*
X34179Y5339D01*
X34232Y5304D01*
X34295Y5292D01*
X34357Y5304D01*
X34394Y5328D01*
X34403Y5332D01*
X34514D01*
X35861Y3985D01*
X35866Y3975D01*
X35874Y3932D01*
X35909Y3879D01*
X35962Y3844D01*
X36025Y3832D01*
X36087Y3844D01*
X36140Y3879D01*
X36176Y3932D01*
X36188Y3995D01*
X36176Y4057D01*
X36140Y4110D01*
X36087Y4146D01*
X36044Y4154D01*
X36035Y4158D01*
X34651Y5541D01*
X34612Y5568D01*
X34565Y5577D01*
X34403D01*
X34394Y5581D01*
X34357Y5606D01*
X34295Y5618D01*
D02*
G37*
G36*
X5340Y4096D02*
X5278Y4084D01*
X5225Y4049D01*
X5189Y3996D01*
X5177Y3933D01*
X5189Y3871D01*
X5225Y3818D01*
X5278Y3783D01*
X5340Y3770D01*
X5402Y3783D01*
X5455Y3818D01*
X5491Y3871D01*
X5503Y3933D01*
X5491Y3996D01*
X5455Y4049D01*
X5402Y4084D01*
X5340Y4096D01*
D02*
G37*
G36*
X-3345Y4599D02*
X-3423Y4583D01*
X-3489Y4539D01*
X-3534Y4473D01*
X-3549Y4395D01*
X-3534Y4317D01*
X-3489Y4251D01*
X-3423Y4206D01*
X-3345Y4191D01*
X-3267Y4206D01*
X-3201Y4251D01*
X-3157Y4317D01*
X-3141Y4395D01*
X-3157Y4473D01*
X-3201Y4539D01*
X-3267Y4583D01*
X-3345Y4599D01*
D02*
G37*
G36*
X40040Y5324D02*
X39962Y5308D01*
X39896Y5264D01*
X39852Y5198D01*
X39836Y5120D01*
X39852Y5042D01*
X39896Y4976D01*
X39962Y4932D01*
X40040Y4916D01*
X40118Y4932D01*
X40184Y4976D01*
X40228Y5042D01*
X40244Y5120D01*
X40228Y5198D01*
X40184Y5264D01*
X40118Y5308D01*
X40040Y5324D01*
D02*
G37*
G36*
X20355Y5038D02*
X20292Y5026D01*
X20239Y4990D01*
X20204Y4937D01*
X20192Y4875D01*
X20204Y4812D01*
X20239Y4759D01*
X20292Y4724D01*
X20355Y4712D01*
X20417Y4724D01*
X20470Y4759D01*
X20506Y4812D01*
X20518Y4875D01*
X20506Y4937D01*
X20470Y4990D01*
X20417Y5026D01*
X20355Y5038D01*
D02*
G37*
G36*
X-2135Y5183D02*
X-2198Y5171D01*
X-2251Y5135D01*
X-2286Y5082D01*
X-2298Y5020D01*
X-2286Y4958D01*
X-2251Y4905D01*
X-2198Y4869D01*
X-2135Y4857D01*
X-2131Y4858D01*
X-2113Y4840D01*
X-2101Y4778D01*
X-2065Y4725D01*
X-2012Y4689D01*
X-1950Y4677D01*
X-1888Y4689D01*
X-1835Y4725D01*
X-1799Y4778D01*
X-1787Y4840D01*
X-1799Y4902D01*
X-1835Y4955D01*
X-1888Y4991D01*
X-1950Y5003D01*
X-1954Y5002D01*
X-1972Y5020D01*
X-1984Y5082D01*
X-2020Y5135D01*
X-2073Y5171D01*
X-2135Y5183D01*
D02*
G37*
G36*
X6720Y3927D02*
X6642Y3912D01*
X6576Y3868D01*
X6532Y3801D01*
X6516Y3723D01*
X6532Y3645D01*
X6576Y3579D01*
X6642Y3535D01*
X6720Y3519D01*
X6798Y3535D01*
X6865Y3579D01*
X6909Y3645D01*
X6924Y3723D01*
X6909Y3801D01*
X6865Y3868D01*
X6798Y3912D01*
X6720Y3927D01*
D02*
G37*
G36*
X29139Y3265D02*
X29061Y3249D01*
X28994Y3205D01*
X28950Y3139D01*
X28935Y3061D01*
X28950Y2983D01*
X28994Y2917D01*
X29061Y2873D01*
X29139Y2857D01*
X29217Y2873D01*
X29283Y2917D01*
X29327Y2983D01*
X29343Y3061D01*
X29327Y3139D01*
X29283Y3205D01*
X29217Y3249D01*
X29139Y3265D01*
D02*
G37*
G36*
X1365Y2809D02*
X1287Y2793D01*
X1221Y2749D01*
X1176Y2683D01*
X1161Y2605D01*
X1176Y2527D01*
X1221Y2461D01*
X1287Y2416D01*
X1365Y2401D01*
X1443Y2416D01*
X1509Y2461D01*
X1553Y2527D01*
X1569Y2605D01*
X1553Y2683D01*
X1509Y2749D01*
X1443Y2793D01*
X1365Y2809D01*
D02*
G37*
G36*
X5785Y2538D02*
X5722Y2526D01*
X5669Y2490D01*
X5634Y2437D01*
X5622Y2375D01*
X5634Y2312D01*
X5669Y2259D01*
X5722Y2224D01*
X5785Y2212D01*
X5847Y2224D01*
X5900Y2259D01*
X5936Y2312D01*
X5948Y2375D01*
X5936Y2437D01*
X5900Y2490D01*
X5847Y2526D01*
X5785Y2538D01*
D02*
G37*
G36*
X17595Y3269D02*
X17517Y3253D01*
X17451Y3209D01*
X17406Y3143D01*
X17391Y3065D01*
X17406Y2987D01*
X17451Y2921D01*
X17517Y2876D01*
X17595Y2861D01*
X17673Y2876D01*
X17739Y2921D01*
X17783Y2987D01*
X17799Y3065D01*
X17783Y3143D01*
X17739Y3209D01*
X17673Y3253D01*
X17595Y3269D01*
D02*
G37*
G36*
X39215Y3599D02*
X39137Y3583D01*
X39071Y3539D01*
X39026Y3473D01*
X39011Y3395D01*
X39026Y3317D01*
X39071Y3251D01*
X39137Y3206D01*
X39215Y3191D01*
X39293Y3206D01*
X39359Y3251D01*
X39403Y3317D01*
X39419Y3395D01*
X39403Y3473D01*
X39359Y3539D01*
X39293Y3583D01*
X39215Y3599D01*
D02*
G37*
G36*
X5520Y3623D02*
X5458Y3611D01*
X5405Y3575D01*
X5369Y3522D01*
X5357Y3460D01*
X5369Y3398D01*
X5383Y3378D01*
X5369Y3358D01*
X5357Y3295D01*
X5369Y3233D01*
X5405Y3180D01*
X5458Y3144D01*
X5520Y3132D01*
X5582Y3144D01*
X5635Y3180D01*
X5671Y3233D01*
X5683Y3295D01*
X5671Y3358D01*
X5657Y3378D01*
X5671Y3398D01*
X5683Y3460D01*
X5671Y3522D01*
X5635Y3575D01*
X5582Y3611D01*
X5520Y3623D01*
D02*
G37*
G36*
X40561Y3273D02*
X40483Y3257D01*
X40417Y3213D01*
X40373Y3147D01*
X40357Y3069D01*
X40373Y2991D01*
X40417Y2924D01*
X40483Y2880D01*
X40561Y2865D01*
X40639Y2880D01*
X40705Y2924D01*
X40749Y2991D01*
X40765Y3069D01*
X40749Y3147D01*
X40705Y3213D01*
X40639Y3257D01*
X40561Y3273D01*
D02*
G37*
G36*
X29175Y13353D02*
X29103Y13339D01*
X29041Y13298D01*
X29001Y13237D01*
X28986Y13165D01*
X29001Y13093D01*
X29041Y13031D01*
X29103Y12991D01*
X29175Y12976D01*
X29247Y12991D01*
X29308Y13031D01*
X29349Y13093D01*
X29363Y13165D01*
X29349Y13237D01*
X29308Y13298D01*
X29247Y13339D01*
X29175Y13353D01*
D02*
G37*
G36*
X37115Y12819D02*
X37037Y12803D01*
X36971Y12759D01*
X36960Y12743D01*
X36910D01*
X36895Y12765D01*
X36842Y12801D01*
X36780Y12813D01*
X36718Y12801D01*
X36665Y12765D01*
X36629Y12712D01*
X36617Y12650D01*
X36629Y12588D01*
X36665Y12535D01*
X36718Y12499D01*
X36780Y12487D01*
X36842Y12499D01*
X36895Y12535D01*
X36954Y12495D01*
X36971Y12471D01*
X37037Y12426D01*
X37115Y12411D01*
X37193Y12426D01*
X37259Y12471D01*
X37303Y12537D01*
X37319Y12615D01*
X37303Y12693D01*
X37259Y12759D01*
X37193Y12803D01*
X37115Y12819D01*
D02*
G37*
G36*
X27430Y14819D02*
X27352Y14803D01*
X27286Y14759D01*
X27242Y14693D01*
X27226Y14615D01*
X27242Y14537D01*
X27267Y14499D01*
Y13842D01*
X26735Y13310D01*
X26699Y13257D01*
X26687Y13195D01*
Y12771D01*
X26662Y12733D01*
X26646Y12655D01*
X26662Y12577D01*
X26706Y12511D01*
X26772Y12466D01*
X26850Y12451D01*
X26928Y12466D01*
X26994Y12511D01*
X27038Y12577D01*
X27054Y12655D01*
X27038Y12733D01*
X27013Y12771D01*
Y13127D01*
X27545Y13659D01*
X27545Y13659D01*
X27581Y13712D01*
X27593Y13775D01*
Y14499D01*
X27618Y14537D01*
X27634Y14615D01*
X27618Y14693D01*
X27574Y14759D01*
X27508Y14803D01*
X27430Y14819D01*
D02*
G37*
G36*
X28625Y13373D02*
X28553Y13359D01*
X28491Y13318D01*
X28451Y13257D01*
X28436Y13185D01*
X28451Y13113D01*
X28491Y13051D01*
X28553Y13011D01*
X28625Y12996D01*
X28697Y13011D01*
X28758Y13051D01*
X28799Y13113D01*
X28813Y13185D01*
X28799Y13257D01*
X28758Y13318D01*
X28697Y13359D01*
X28625Y13373D01*
D02*
G37*
G36*
X38640Y13588D02*
X38578Y13576D01*
X38525Y13540D01*
X38489Y13487D01*
X38477Y13425D01*
X38489Y13362D01*
X38525Y13309D01*
X38578Y13274D01*
X38640Y13262D01*
X38702Y13274D01*
X38755Y13309D01*
X38791Y13362D01*
X38803Y13425D01*
X38791Y13487D01*
X38755Y13540D01*
X38702Y13576D01*
X38640Y13588D01*
D02*
G37*
G36*
X17715Y13533D02*
X17652Y13521D01*
X17599Y13485D01*
X17564Y13432D01*
X17552Y13370D01*
X17564Y13308D01*
X17599Y13255D01*
X17652Y13219D01*
X17715Y13207D01*
X17777Y13219D01*
X17830Y13255D01*
X17866Y13308D01*
X17878Y13370D01*
X17866Y13432D01*
X17830Y13485D01*
X17777Y13521D01*
X17715Y13533D01*
D02*
G37*
G36*
X36780Y13368D02*
X36718Y13356D01*
X36665Y13320D01*
X36629Y13267D01*
X36617Y13205D01*
X36629Y13142D01*
X36665Y13089D01*
X36718Y13054D01*
X36780Y13042D01*
X36842Y13054D01*
X36895Y13089D01*
X36931Y13142D01*
X36943Y13205D01*
X36931Y13267D01*
X36895Y13320D01*
X36842Y13356D01*
X36780Y13368D01*
D02*
G37*
G36*
X13349Y12032D02*
X13287Y12020D01*
X13234Y11984D01*
X13198Y11931D01*
X13186Y11869D01*
D01*
X13180Y11853D01*
X13118Y11841D01*
X13065Y11805D01*
X13029Y11752D01*
X13017Y11690D01*
X13029Y11628D01*
X13065Y11575D01*
X13118Y11539D01*
X13160Y11531D01*
X13170Y11527D01*
X15952Y8745D01*
Y8269D01*
X15948Y8259D01*
X15924Y8222D01*
X15912Y8160D01*
X15924Y8098D01*
X15959Y8045D01*
X16012Y8009D01*
X16075Y7997D01*
X16137Y8009D01*
X16190Y8045D01*
X16226Y8098D01*
X16238Y8160D01*
X16226Y8222D01*
X16203Y8256D01*
X16218Y8303D01*
X16243Y8314D01*
X16413Y8145D01*
X16411Y8143D01*
X16414Y8141D01*
X16416Y8136D01*
X16424Y8098D01*
X16459Y8045D01*
X16512Y8009D01*
X16575Y7997D01*
X16637Y8009D01*
X16690Y8045D01*
X16726Y8098D01*
X16738Y8160D01*
X16726Y8222D01*
X16690Y8275D01*
X16637Y8311D01*
X16589Y8320D01*
X16588Y8321D01*
X16588Y8321D01*
X16579Y8325D01*
X16432Y8471D01*
Y8908D01*
X16423Y8955D01*
X16412Y8971D01*
X16397Y8995D01*
X13512Y11879D01*
X13508Y11889D01*
X13500Y11931D01*
X13464Y11984D01*
X13411Y12020D01*
X13349Y12032D01*
D02*
G37*
G36*
X20005Y11873D02*
X19933Y11859D01*
X19871Y11818D01*
X19831Y11757D01*
X19816Y11685D01*
X19831Y11613D01*
X19871Y11551D01*
X19933Y11511D01*
X20005Y11496D01*
X20077Y11511D01*
X20138Y11551D01*
X20179Y11613D01*
X20193Y11685D01*
X20179Y11757D01*
X20138Y11818D01*
X20077Y11859D01*
X20005Y11873D01*
D02*
G37*
G36*
X5635Y11818D02*
X5572Y11806D01*
X5519Y11770D01*
X5484Y11717D01*
X5472Y11655D01*
X5484Y11592D01*
X5519Y11539D01*
X5572Y11504D01*
X5635Y11492D01*
X5697Y11504D01*
X5750Y11539D01*
X5786Y11592D01*
X5798Y11655D01*
X5786Y11717D01*
X5750Y11770D01*
X5697Y11806D01*
X5635Y11818D01*
D02*
G37*
G36*
X36540Y11993D02*
X36478Y11981D01*
X36425Y11945D01*
X36385D01*
X36332Y11981D01*
X36270Y11993D01*
X36208Y11981D01*
X36155Y11945D01*
X36119Y11892D01*
X36107Y11830D01*
X36119Y11768D01*
X36155Y11715D01*
X36208Y11679D01*
X36270Y11667D01*
X36332Y11679D01*
X36385Y11715D01*
X36425D01*
X36478Y11679D01*
X36540Y11667D01*
X36602Y11679D01*
X36655Y11715D01*
X36691Y11768D01*
X36703Y11830D01*
X36691Y11892D01*
X36655Y11945D01*
X36602Y11981D01*
X36540Y11993D01*
D02*
G37*
G36*
X35315Y12968D02*
X35252Y12956D01*
X35199Y12920D01*
X35164Y12867D01*
X35152Y12805D01*
X35164Y12742D01*
X35199Y12689D01*
X35252Y12654D01*
X35315Y12642D01*
X35323Y12643D01*
X35358Y12608D01*
X35352Y12575D01*
X35364Y12512D01*
X35399Y12459D01*
X35452Y12424D01*
X35515Y12412D01*
X35577Y12424D01*
X35630Y12459D01*
X35666Y12512D01*
X35678Y12575D01*
X35666Y12637D01*
X35630Y12690D01*
X35577Y12726D01*
X35515Y12738D01*
X35507Y12736D01*
X35471Y12772D01*
X35478Y12805D01*
X35466Y12867D01*
X35430Y12920D01*
X35377Y12956D01*
X35315Y12968D01*
D02*
G37*
G36*
X40536Y12795D02*
X40443Y12782D01*
X40356Y12747D01*
X40282Y12690D01*
X40225Y12615D01*
X40189Y12529D01*
X40177Y12436D01*
X40189Y12343D01*
X40225Y12257D01*
X40282Y12182D01*
X40356Y12125D01*
X40443Y12089D01*
X40536Y12077D01*
X40629Y12089D01*
X40715Y12125D01*
X40789Y12182D01*
X40846Y12257D01*
X40882Y12343D01*
X40894Y12436D01*
X40882Y12529D01*
X40846Y12615D01*
X40789Y12690D01*
X40715Y12747D01*
X40629Y12782D01*
X40536Y12795D01*
D02*
G37*
G36*
X38795Y12429D02*
X38717Y12413D01*
X38651Y12369D01*
X38606Y12303D01*
X38591Y12225D01*
X38606Y12147D01*
X38651Y12081D01*
X38717Y12036D01*
X38795Y12021D01*
X38873Y12036D01*
X38939Y12081D01*
X38983Y12147D01*
X38999Y12225D01*
X38983Y12303D01*
X38939Y12369D01*
X38873Y12413D01*
X38795Y12429D01*
D02*
G37*
G36*
X325Y13809D02*
X247Y13793D01*
X181Y13749D01*
X136Y13683D01*
X121Y13605D01*
X136Y13527D01*
X181Y13461D01*
X247Y13416D01*
X325Y13401D01*
X403Y13416D01*
X469Y13461D01*
X513Y13527D01*
X529Y13605D01*
X513Y13683D01*
X469Y13749D01*
X403Y13793D01*
X325Y13809D01*
D02*
G37*
G36*
X28265Y14573D02*
X28193Y14559D01*
X28131Y14518D01*
X28091Y14457D01*
X28076Y14385D01*
X28091Y14313D01*
X28131Y14251D01*
X28193Y14211D01*
X28265Y14196D01*
X28337Y14211D01*
X28398Y14251D01*
X28439Y14313D01*
X28453Y14385D01*
X28439Y14457D01*
X28398Y14518D01*
X28337Y14559D01*
X28265Y14573D01*
D02*
G37*
G36*
X18225Y14589D02*
X18147Y14573D01*
X18081Y14529D01*
X18036Y14463D01*
X18021Y14385D01*
X18036Y14307D01*
X18081Y14241D01*
X18147Y14196D01*
X18225Y14181D01*
X18303Y14196D01*
X18369Y14241D01*
X18413Y14307D01*
X18429Y14385D01*
X18413Y14463D01*
X18369Y14529D01*
X18303Y14573D01*
X18225Y14589D01*
D02*
G37*
G36*
X39905Y14918D02*
X39798Y14904D01*
X39698Y14863D01*
X39612Y14797D01*
X39547Y14712D01*
X39505Y14612D01*
X39491Y14505D01*
X39505Y14398D01*
X39547Y14298D01*
X39612Y14212D01*
X39698Y14147D01*
X39798Y14105D01*
X39905Y14091D01*
X40012Y14105D01*
X40112Y14147D01*
X40197Y14212D01*
X40263Y14298D01*
X40304Y14398D01*
X40318Y14505D01*
X40304Y14612D01*
X40263Y14712D01*
X40197Y14797D01*
X40112Y14863D01*
X40012Y14904D01*
X39905Y14918D01*
D02*
G37*
G36*
X15825Y14668D02*
X15762Y14656D01*
X15709Y14620D01*
X15674Y14567D01*
X15662Y14505D01*
X15674Y14442D01*
X15709Y14389D01*
X15762Y14354D01*
X15825Y14342D01*
X15887Y14354D01*
X15940Y14389D01*
X15976Y14442D01*
X15988Y14505D01*
X15976Y14567D01*
X15940Y14620D01*
X15887Y14656D01*
X15825Y14668D01*
D02*
G37*
G36*
X15515Y14938D02*
X15452Y14926D01*
X15399Y14890D01*
X15364Y14837D01*
X15352Y14775D01*
X15364Y14712D01*
X15399Y14659D01*
X15452Y14624D01*
X15515Y14612D01*
X15577Y14624D01*
X15630Y14659D01*
X15666Y14712D01*
X15678Y14775D01*
X15666Y14837D01*
X15630Y14890D01*
X15577Y14926D01*
X15515Y14938D01*
D02*
G37*
G36*
X38955Y14932D02*
Y14555D01*
X39332D01*
X39324Y14617D01*
X39280Y14722D01*
X39211Y14811D01*
X39122Y14880D01*
X39017Y14924D01*
X38955Y14932D01*
D02*
G37*
G36*
X38855D02*
X38793Y14924D01*
X38688Y14880D01*
X38598Y14811D01*
X38529Y14722D01*
X38486Y14617D01*
X38478Y14555D01*
X38855D01*
Y14932D01*
D02*
G37*
G36*
X17405Y14249D02*
X17327Y14233D01*
X17261Y14189D01*
X17216Y14123D01*
X17201Y14045D01*
X17216Y13967D01*
X17261Y13901D01*
X17327Y13856D01*
X17405Y13841D01*
X17483Y13856D01*
X17549Y13901D01*
X17593Y13967D01*
X17609Y14045D01*
X17593Y14123D01*
X17549Y14189D01*
X17483Y14233D01*
X17405Y14249D01*
D02*
G37*
G36*
X27995Y14183D02*
X27923Y14169D01*
X27861Y14128D01*
X27821Y14067D01*
X27806Y13995D01*
X27821Y13923D01*
X27861Y13861D01*
X27923Y13821D01*
X27995Y13806D01*
X28067Y13821D01*
X28128Y13861D01*
X28169Y13923D01*
X28183Y13995D01*
X28169Y14067D01*
X28128Y14128D01*
X28067Y14169D01*
X27995Y14183D01*
D02*
G37*
G36*
X29885Y13863D02*
X29813Y13849D01*
X29751Y13808D01*
X29711Y13747D01*
X29696Y13675D01*
X29711Y13603D01*
X29751Y13541D01*
X29813Y13501D01*
X29885Y13486D01*
X29957Y13501D01*
X30018Y13541D01*
X30059Y13603D01*
X30073Y13675D01*
X30059Y13747D01*
X30018Y13808D01*
X29957Y13849D01*
X29885Y13863D01*
D02*
G37*
G36*
X16625Y14327D02*
X16547Y14312D01*
X16480Y14268D01*
X16436Y14201D01*
X16421Y14123D01*
X16436Y14045D01*
X16480Y13979D01*
X16547Y13935D01*
X16625Y13919D01*
X16703Y13935D01*
X16769Y13979D01*
X16813Y14045D01*
X16829Y14123D01*
X16813Y14201D01*
X16769Y14268D01*
X16703Y14312D01*
X16625Y14327D01*
D02*
G37*
G36*
X39332Y14455D02*
X38955D01*
Y14078D01*
X39017Y14086D01*
X39122Y14129D01*
X39211Y14198D01*
X39280Y14288D01*
X39324Y14393D01*
X39332Y14455D01*
D02*
G37*
G36*
X38855D02*
X38478D01*
X38486Y14393D01*
X38529Y14288D01*
X38598Y14198D01*
X38688Y14129D01*
X38793Y14086D01*
X38855Y14078D01*
Y14455D01*
D02*
G37*
G36*
X5525Y14329D02*
X5447Y14313D01*
X5381Y14269D01*
X5336Y14203D01*
X5321Y14125D01*
X5336Y14047D01*
X5381Y13981D01*
X5447Y13936D01*
X5525Y13921D01*
X5603Y13936D01*
X5669Y13981D01*
X5713Y14047D01*
X5729Y14125D01*
X5713Y14203D01*
X5669Y14269D01*
X5603Y14313D01*
X5525Y14329D01*
D02*
G37*
G36*
X8465Y11889D02*
X8387Y11873D01*
X8321Y11829D01*
X8276Y11763D01*
X8261Y11685D01*
X8276Y11607D01*
X8321Y11541D01*
X8387Y11496D01*
X8465Y11481D01*
X8543Y11496D01*
X8609Y11541D01*
X8653Y11607D01*
X8669Y11685D01*
X8653Y11763D01*
X8609Y11829D01*
X8543Y11873D01*
X8465Y11889D01*
D02*
G37*
G36*
X3310Y10323D02*
X3248Y10311D01*
X3195Y10275D01*
X3159Y10222D01*
X3147Y10160D01*
X3159Y10098D01*
X3195Y10045D01*
X3248Y10009D01*
X3310Y9997D01*
X3372Y10009D01*
X3425Y10045D01*
X3461Y10098D01*
X3473Y10160D01*
X3461Y10222D01*
X3425Y10275D01*
X3372Y10311D01*
X3310Y10323D01*
D02*
G37*
G36*
X17445Y10238D02*
X17382Y10226D01*
X17329Y10190D01*
X17294Y10137D01*
X17282Y10075D01*
X17294Y10012D01*
X17329Y9959D01*
X17382Y9924D01*
X17445Y9912D01*
X17507Y9924D01*
X17560Y9959D01*
X17596Y10012D01*
X17608Y10075D01*
X17596Y10137D01*
X17560Y10190D01*
X17507Y10226D01*
X17445Y10238D01*
D02*
G37*
G36*
X-3358Y10234D02*
X-3420Y10221D01*
X-3473Y10186D01*
X-3509Y10133D01*
X-3521Y10070D01*
X-3509Y10008D01*
X-3473Y9955D01*
X-3420Y9920D01*
X-3358Y9907D01*
X-3296Y9920D01*
X-3243Y9955D01*
X-3207Y10008D01*
X-3195Y10070D01*
X-3207Y10133D01*
X-3243Y10186D01*
X-3296Y10221D01*
X-3358Y10234D01*
D02*
G37*
G36*
X36968Y10108D02*
X36906Y10095D01*
X36853Y10060D01*
X36804D01*
X36751Y10095D01*
X36688Y10108D01*
X36626Y10095D01*
X36573Y10060D01*
X36524D01*
X36471Y10095D01*
X36408Y10108D01*
X36346Y10095D01*
X36293Y10060D01*
X36254D01*
X36201Y10095D01*
X36138Y10108D01*
X36076Y10095D01*
X36023Y10060D01*
X35976D01*
X35924Y10095D01*
X35861Y10108D01*
X35799Y10095D01*
X35746Y10060D01*
X35700D01*
X35647Y10095D01*
X35585Y10108D01*
X35522Y10095D01*
X35469Y10060D01*
X35434Y10007D01*
X35422Y9945D01*
X35434Y9882D01*
X35469Y9829D01*
X35522Y9794D01*
X35585Y9782D01*
X35647Y9794D01*
X35700Y9829D01*
X35746D01*
X35799Y9794D01*
X35861Y9782D01*
X35924Y9794D01*
X35976Y9829D01*
X36023D01*
X36076Y9794D01*
X36138Y9782D01*
X36201Y9794D01*
X36254Y9829D01*
X36293D01*
X36346Y9794D01*
X36408Y9782D01*
X36471Y9794D01*
X36524Y9829D01*
X36573D01*
X36626Y9794D01*
X36688Y9782D01*
X36751Y9794D01*
X36804Y9829D01*
X36853D01*
X36906Y9794D01*
X36968Y9782D01*
X37031Y9794D01*
X37084Y9829D01*
X37119Y9882D01*
X37132Y9945D01*
X37119Y10007D01*
X37084Y10060D01*
X37031Y10095D01*
X36968Y10108D01*
D02*
G37*
G36*
X29215Y10748D02*
X29152Y10736D01*
X29099Y10700D01*
X29064Y10647D01*
X29052Y10585D01*
X29064Y10522D01*
X29099Y10469D01*
Y10420D01*
X29064Y10367D01*
X29052Y10305D01*
X29064Y10242D01*
X29099Y10189D01*
X29152Y10154D01*
X29215Y10142D01*
X29277Y10154D01*
X29330Y10189D01*
X29366Y10242D01*
X29378Y10305D01*
X29366Y10367D01*
X29330Y10420D01*
Y10469D01*
X29366Y10522D01*
X29378Y10585D01*
X29366Y10647D01*
X29330Y10700D01*
X29277Y10736D01*
X29215Y10748D01*
D02*
G37*
G36*
X40586Y10446D02*
Y10124D01*
X40908D01*
X40902Y10172D01*
X40864Y10263D01*
X40804Y10342D01*
X40725Y10402D01*
X40634Y10440D01*
X40586Y10446D01*
D02*
G37*
G36*
X40486D02*
X40438Y10440D01*
X40346Y10402D01*
X40268Y10342D01*
X40208Y10263D01*
X40170Y10172D01*
X40164Y10124D01*
X40486D01*
Y10446D01*
D02*
G37*
G36*
X10555Y9528D02*
X10492Y9516D01*
X10439Y9480D01*
X10390D01*
X10337Y9516D01*
X10275Y9528D01*
X10212Y9516D01*
X10159Y9480D01*
X10120D01*
X10067Y9516D01*
X10005Y9528D01*
X9942Y9516D01*
X9889Y9480D01*
X9854Y9427D01*
X9842Y9365D01*
X9854Y9302D01*
X9889Y9249D01*
X9942Y9214D01*
X10005Y9202D01*
X10067Y9214D01*
X10120Y9249D01*
X10159D01*
X10212Y9214D01*
X10275Y9202D01*
X10337Y9214D01*
X10390Y9249D01*
X10439D01*
X10492Y9214D01*
X10555Y9202D01*
X10617Y9214D01*
X10670Y9249D01*
X10706Y9302D01*
X10718Y9365D01*
X10706Y9427D01*
X10670Y9480D01*
X10617Y9516D01*
X10555Y9528D01*
D02*
G37*
G36*
X1906Y9417D02*
X1848Y9405D01*
X1798Y9372D01*
X1758D01*
X1709Y9405D01*
X1650Y9417D01*
X1592Y9405D01*
X1542Y9372D01*
X1509Y9322D01*
X1497Y9264D01*
X1509Y9205D01*
X1542Y9156D01*
X1592Y9122D01*
X1650Y9111D01*
X1709Y9122D01*
X1758Y9156D01*
X1798D01*
X1848Y9122D01*
X1906Y9111D01*
X1965Y9122D01*
X2014Y9156D01*
X2047Y9205D01*
X2059Y9264D01*
X2047Y9322D01*
X2014Y9372D01*
X1965Y9405D01*
X1906Y9417D01*
D02*
G37*
G36*
X17555Y9668D02*
X17492Y9656D01*
X17439Y9620D01*
X17404Y9567D01*
X17392Y9505D01*
X17404Y9442D01*
X17439Y9389D01*
X17492Y9354D01*
X17555Y9342D01*
X17617Y9354D01*
X17670Y9389D01*
X17706Y9442D01*
X17718Y9505D01*
X17706Y9567D01*
X17670Y9620D01*
X17617Y9656D01*
X17555Y9668D01*
D02*
G37*
G36*
X9805Y9978D02*
X9742Y9966D01*
X9689Y9930D01*
X9654Y9877D01*
X9642Y9815D01*
X9654Y9752D01*
X9689Y9699D01*
X9742Y9664D01*
X9805Y9652D01*
X9867Y9664D01*
X9920Y9699D01*
X9956Y9752D01*
X9968Y9815D01*
X9956Y9877D01*
X9920Y9930D01*
X9867Y9966D01*
X9805Y9978D01*
D02*
G37*
G36*
X21830Y9883D02*
X21768Y9871D01*
X21715Y9835D01*
X21706Y9822D01*
X21656D01*
X21650Y9830D01*
X21597Y9866D01*
X21535Y9878D01*
X21472Y9866D01*
X21419Y9830D01*
X21384Y9777D01*
X21372Y9715D01*
X21384Y9652D01*
X21419Y9599D01*
X21472Y9564D01*
X21534Y9552D01*
Y9503D01*
X21534D01*
Y9502D01*
X21478Y9491D01*
X21425Y9455D01*
X21389Y9402D01*
X21377Y9340D01*
X21389Y9278D01*
X21425Y9225D01*
X21478Y9189D01*
X21540Y9177D01*
X21602Y9189D01*
X21655Y9225D01*
X21691Y9278D01*
X21703Y9340D01*
X21691Y9402D01*
X21655Y9455D01*
X21602Y9491D01*
X21541Y9503D01*
Y9552D01*
X21541D01*
Y9553D01*
X21597Y9564D01*
X21650Y9599D01*
X21659Y9613D01*
X21709D01*
X21715Y9605D01*
X21768Y9569D01*
X21830Y9557D01*
X21892Y9569D01*
X21913Y9583D01*
X21941Y9542D01*
X21897Y9476D01*
X21881Y9398D01*
X21897Y9320D01*
X21941Y9253D01*
X22007Y9209D01*
X22085Y9194D01*
X22163Y9209D01*
X22229Y9253D01*
X22273Y9320D01*
X22275Y9328D01*
X22341Y9394D01*
X23755D01*
X23762Y9389D01*
X23840Y9374D01*
X23918Y9389D01*
X23984Y9433D01*
X24028Y9500D01*
X24044Y9578D01*
X24028Y9656D01*
X23984Y9722D01*
X23918Y9766D01*
X23840Y9782D01*
X23762Y9766D01*
X23755Y9761D01*
X22265D01*
X22195Y9747D01*
X22175Y9734D01*
X22135Y9707D01*
X22016Y9588D01*
X22007Y9586D01*
X21973Y9563D01*
X21945Y9605D01*
X21981Y9658D01*
X21993Y9720D01*
X21981Y9782D01*
X21945Y9835D01*
X21892Y9871D01*
X21830Y9883D01*
D02*
G37*
G36*
X40908Y10024D02*
X40586D01*
Y9701D01*
X40634Y9708D01*
X40725Y9746D01*
X40804Y9806D01*
X40864Y9884D01*
X40902Y9976D01*
X40908Y10024D01*
D02*
G37*
G36*
X40486D02*
X40164D01*
X40170Y9976D01*
X40208Y9884D01*
X40268Y9806D01*
X40346Y9746D01*
X40438Y9708D01*
X40486Y9701D01*
Y10024D01*
D02*
G37*
G36*
X17635Y10588D02*
X17572Y10576D01*
X17519Y10540D01*
X17484Y10487D01*
X17472Y10425D01*
X17484Y10362D01*
X17519Y10309D01*
X17572Y10274D01*
X17635Y10262D01*
X17697Y10274D01*
X17750Y10309D01*
X17786Y10362D01*
X17798Y10425D01*
X17786Y10487D01*
X17750Y10540D01*
X17697Y10576D01*
X17635Y10588D01*
D02*
G37*
G36*
X40536Y12007D02*
X40443Y11995D01*
X40356Y11959D01*
X40282Y11902D01*
X40225Y11828D01*
X40189Y11741D01*
X40177Y11648D01*
X40189Y11556D01*
X40225Y11469D01*
X40282Y11395D01*
X40356Y11338D01*
X40443Y11302D01*
X40536Y11290D01*
X40629Y11302D01*
X40715Y11338D01*
X40789Y11395D01*
X40846Y11469D01*
X40882Y11556D01*
X40894Y11648D01*
X40882Y11741D01*
X40846Y11828D01*
X40789Y11902D01*
X40715Y11959D01*
X40629Y11995D01*
X40536Y12007D01*
D02*
G37*
G36*
X-225Y11471D02*
X-288Y11458D01*
X-341Y11423D01*
X-376Y11370D01*
X-388Y11308D01*
X-376Y11245D01*
X-341Y11192D01*
X-288Y11157D01*
X-225Y11145D01*
X-163Y11157D01*
X-110Y11192D01*
X-74Y11245D01*
X-62Y11308D01*
X-74Y11370D01*
X-110Y11423D01*
X-163Y11458D01*
X-225Y11471D01*
D02*
G37*
G36*
X1960Y11144D02*
X1882Y11128D01*
X1816Y11084D01*
X1805Y11068D01*
X1755D01*
X1744Y11084D01*
X1678Y11128D01*
X1600Y11144D01*
X1522Y11128D01*
X1456Y11084D01*
X1412Y11018D01*
X1396Y10940D01*
X1412Y10862D01*
X1456Y10796D01*
X1522Y10752D01*
X1600Y10736D01*
X1678Y10752D01*
X1744Y10796D01*
X1755Y10812D01*
X1805D01*
X1816Y10796D01*
X1882Y10752D01*
X1960Y10736D01*
X2038Y10752D01*
X2104Y10796D01*
X2148Y10862D01*
X2164Y10940D01*
X2148Y11018D01*
X2104Y11084D01*
X2038Y11128D01*
X1960Y11144D01*
D02*
G37*
G36*
X32635Y11729D02*
X32557Y11713D01*
X32491Y11669D01*
X32446Y11603D01*
X32431Y11525D01*
X32446Y11447D01*
X32491Y11381D01*
X32557Y11336D01*
X32635Y11321D01*
X32713Y11336D01*
X32779Y11381D01*
X32823Y11447D01*
X32839Y11525D01*
X32823Y11603D01*
X32779Y11669D01*
X32713Y11713D01*
X32635Y11729D01*
D02*
G37*
G36*
X320Y11713D02*
X258Y11701D01*
X205Y11665D01*
X169Y11612D01*
X157Y11550D01*
X169Y11488D01*
X205Y11435D01*
X258Y11399D01*
X320Y11387D01*
X382Y11399D01*
X435Y11435D01*
X471Y11488D01*
X483Y11550D01*
X471Y11612D01*
X435Y11665D01*
X382Y11701D01*
X320Y11713D01*
D02*
G37*
G36*
X750Y11703D02*
X688Y11691D01*
X635Y11655D01*
X599Y11602D01*
X587Y11540D01*
X599Y11478D01*
X635Y11425D01*
X688Y11389D01*
X750Y11377D01*
X812Y11389D01*
X865Y11425D01*
X901Y11478D01*
X913Y11540D01*
X901Y11602D01*
X865Y11655D01*
X812Y11691D01*
X750Y11703D01*
D02*
G37*
G36*
X2605Y11762D02*
X2527Y11747D01*
X2461Y11702D01*
X2417Y11636D01*
X2401Y11558D01*
X2417Y11480D01*
X2461Y11414D01*
X2527Y11370D01*
X2605Y11354D01*
X2683Y11370D01*
X2749Y11414D01*
X2793Y11480D01*
X2809Y11558D01*
X2793Y11636D01*
X2749Y11702D01*
X2683Y11747D01*
X2605Y11762D01*
D02*
G37*
G36*
X40536Y11220D02*
X40443Y11208D01*
X40356Y11172D01*
X40282Y11115D01*
X40225Y11040D01*
X40189Y10954D01*
X40177Y10861D01*
X40189Y10768D01*
X40225Y10682D01*
X40282Y10607D01*
X40356Y10551D01*
X40443Y10515D01*
X40535Y10502D01*
Y10496D01*
X40536D01*
Y10502D01*
X40629Y10515D01*
X40715Y10551D01*
X40789Y10607D01*
X40846Y10682D01*
X40882Y10768D01*
X40894Y10861D01*
X40882Y10954D01*
X40846Y11040D01*
X40789Y11115D01*
X40715Y11172D01*
X40629Y11208D01*
X40536Y11220D01*
D02*
G37*
G36*
X5635Y10788D02*
X5572Y10776D01*
X5519Y10740D01*
X5484Y10687D01*
X5472Y10625D01*
X5484Y10562D01*
X5519Y10509D01*
X5572Y10474D01*
X5635Y10462D01*
X5697Y10474D01*
X5750Y10509D01*
X5786Y10562D01*
X5798Y10625D01*
X5786Y10687D01*
X5750Y10740D01*
X5697Y10776D01*
X5635Y10788D01*
D02*
G37*
G36*
X39395Y10829D02*
X39317Y10813D01*
X39251Y10769D01*
X39207Y10703D01*
X39191Y10625D01*
X39207Y10547D01*
X39251Y10481D01*
X39317Y10436D01*
X39395Y10421D01*
X39473Y10436D01*
X39539Y10481D01*
X39584Y10547D01*
X39599Y10625D01*
X39584Y10703D01*
X39539Y10769D01*
X39473Y10813D01*
X39395Y10829D01*
D02*
G37*
G36*
X36280Y10903D02*
X36218Y10891D01*
X36165Y10855D01*
X36129Y10802D01*
X36117Y10740D01*
X36129Y10678D01*
X36165Y10625D01*
X36218Y10589D01*
X36280Y10577D01*
X36342Y10589D01*
X36395Y10625D01*
X36431Y10678D01*
X36443Y10740D01*
X36431Y10802D01*
X36395Y10855D01*
X36342Y10891D01*
X36280Y10903D01*
D02*
G37*
G36*
X5635Y11288D02*
X5572Y11276D01*
X5519Y11240D01*
X5484Y11187D01*
X5472Y11125D01*
X5484Y11062D01*
X5519Y11009D01*
X5572Y10974D01*
X5635Y10962D01*
X5697Y10974D01*
X5750Y11009D01*
X5786Y11062D01*
X5798Y11125D01*
X5786Y11187D01*
X5750Y11240D01*
X5697Y11276D01*
X5635Y11288D01*
D02*
G37*
G36*
X130Y11103D02*
X68Y11091D01*
X15Y11055D01*
X-21Y11002D01*
X-33Y10940D01*
X-21Y10878D01*
X15Y10825D01*
X68Y10789D01*
X130Y10777D01*
X192Y10789D01*
X245Y10825D01*
X281Y10878D01*
X293Y10940D01*
X281Y11002D01*
X245Y11055D01*
X192Y11091D01*
X130Y11103D01*
D02*
G37*
G36*
X36709Y11062D02*
X36631Y11047D01*
X36565Y11002D01*
X36521Y10936D01*
X36505Y10858D01*
X36521Y10780D01*
X36565Y10714D01*
X36631Y10670D01*
X36709Y10654D01*
X36787Y10670D01*
X36853Y10714D01*
X36897Y10780D01*
X36913Y10858D01*
X36897Y10936D01*
X36853Y11002D01*
X36787Y11047D01*
X36709Y11062D01*
D02*
G37*
%LPD*%
D10*
X34391Y5455D02*
G03*
X34323Y5427I0J-97D01*
G01*
Y5483D02*
G03*
X34391Y5455I68J68D01*
G01*
X35957Y4063D02*
G03*
X36025Y4035I68J68D01*
G01*
X35985Y3995D02*
G03*
X35957Y4063I-97J0D01*
G01*
X3306Y8209D02*
G03*
X3335Y8141I97J0D01*
G01*
X3278D02*
G03*
X3306Y8209I-68J68D01*
G01*
X3375Y8044D02*
G03*
X3306Y8072I-68J-68D01*
G01*
X3346Y8112D02*
G03*
X3375Y8044I97J0D01*
G01*
X6802Y7882D02*
G03*
X6830Y7950I-68J68D01*
G01*
X6870Y7910D02*
G03*
X6802Y7882I0J-97D01*
G01*
X5651Y12685D02*
G03*
X5583Y12657I0J-97D01*
G01*
Y12713D02*
G03*
X5651Y12685I68J68D01*
G01*
X2610Y7113D02*
G03*
X2582Y7182I-97J0D01*
G01*
X2638D02*
G03*
X2610Y7113I68J-68D01*
G01*
X2909Y6909D02*
G03*
X2980Y7080I-171J171D01*
G01*
X3380Y5677D02*
G03*
X3408Y5608I97J0D01*
G01*
X3352D02*
G03*
X3380Y5677I-68J68D01*
G01*
X3190Y5497D02*
G03*
X3218Y5428I97J0D01*
G01*
X3162D02*
G03*
X3190Y5497I-68J68D01*
G01*
X2630Y5117D02*
G03*
X2658Y5048I97J0D01*
G01*
X2602D02*
G03*
X2630Y5117I-68J68D01*
G01*
X6866Y4695D02*
G03*
X7148Y4811I0J398D01*
G01*
X7060Y4695D02*
G03*
X7205Y4755I0J205D01*
G01*
X7148Y4578D02*
G03*
X6866Y4695I-282J-282D01*
G01*
X7205Y4635D02*
G03*
X7060Y4695I-145J-145D01*
G01*
X9563Y6532D02*
G03*
X9495Y6560I-68J-68D01*
G01*
X9535Y6600D02*
G03*
X9563Y6532I97J0D01*
G01*
X9995Y6503D02*
G03*
X9967Y6572I-97J0D01*
G01*
X10023D02*
G03*
X9995Y6503I68J-68D01*
G01*
X21093Y6532D02*
G03*
X21025Y6560I-68J-68D01*
G01*
X21065Y6600D02*
G03*
X21093Y6532I97J0D01*
G01*
X21525Y6503D02*
G03*
X21497Y6572I-97J0D01*
G01*
X21553D02*
G03*
X21525Y6503I68J-68D01*
G01*
X12832Y3128D02*
G03*
X12900Y3100I68J68D01*
G01*
X12860Y3060D02*
G03*
X12832Y3128I-97J0D01*
G01*
X12662Y2948D02*
G03*
X12730Y2920I68J68D01*
G01*
X12690Y2880D02*
G03*
X12662Y2948I-97J0D01*
G01*
X32642Y6528D02*
G03*
X32565Y6560I-77J-77D01*
G01*
X32605Y6600D02*
G03*
X32630Y6540I85J0D01*
G01*
X33134Y6532D02*
G03*
X33066Y6560I-68J-68D01*
G01*
X33106Y6600D02*
G03*
X33134Y6532I97J0D01*
G01*
X33566Y6513D02*
G03*
X33537Y6582I-97J0D01*
G01*
X33594D02*
G03*
X33566Y6513I68J-68D01*
G01*
X35352Y2588D02*
G03*
X35420Y2560I68J68D01*
G01*
X35380Y2520D02*
G03*
X35352Y2588I-97J0D01*
G01*
X35532Y2768D02*
G03*
X35600Y2740I68J68D01*
G01*
X35560Y2700D02*
G03*
X35532Y2768I-97J0D01*
G01*
X35698Y2962D02*
G03*
X35800Y2920I102J102D01*
G01*
X35885Y3135D02*
G03*
X35970Y3100I85J85D01*
G01*
X1180Y5107D02*
G03*
X1208Y5038I97J0D01*
G01*
X1152D02*
G03*
X1180Y5107I-68J68D01*
G01*
X1360Y5247D02*
G03*
X1388Y5178I97J0D01*
G01*
X1332D02*
G03*
X1360Y5247I-68J68D01*
G01*
X1730Y7203D02*
G03*
X1702Y7272I-97J0D01*
G01*
X1758D02*
G03*
X1730Y7203I68J-68D01*
G01*
X2450Y5247D02*
G03*
X2478Y5178I97J0D01*
G01*
X2422D02*
G03*
X2450Y5247I-68J68D01*
G01*
X2270Y5117D02*
G03*
X2298Y5048I97J0D01*
G01*
X2242D02*
G03*
X2270Y5117I-68J68D01*
G01*
X2090Y5247D02*
G03*
X2118Y5178I97J0D01*
G01*
X2062D02*
G03*
X2090Y5247I-68J68D01*
G01*
X1902Y5117D02*
G03*
X1931Y5048I97J0D01*
G01*
X1874D02*
G03*
X1902Y5117I-68J68D01*
G01*
X1720Y5247D02*
G03*
X1748Y5178I97J0D01*
G01*
X1692D02*
G03*
X1720Y5247I-68J68D01*
G01*
X1540Y5107D02*
G03*
X1568Y5038I97J0D01*
G01*
X1512D02*
G03*
X1540Y5107I-68J68D01*
G01*
X2070Y6930D02*
G03*
X2043Y6990I-81J0D01*
G01*
X2097D02*
G03*
X2070Y6930I54J-60D01*
G01*
X1938Y6798D02*
G03*
X2030Y7020I-222J222D01*
G01*
X2075Y6935D02*
G03*
X2110Y7020I-85J85D01*
G01*
X2260Y7113D02*
G03*
X2232Y7182I-97J0D01*
G01*
X2288D02*
G03*
X2260Y7113I68J-68D01*
G01*
X4147Y2943D02*
G03*
X4215Y2915I68J68D01*
G01*
X4175Y2875D02*
G03*
X4147Y2943I-97J0D01*
G01*
X5497Y13367D02*
G03*
X5525Y13435I-68J68D01*
G01*
X5565Y13395D02*
G03*
X5497Y13367I0J-97D01*
G01*
X5555Y12895D02*
G03*
X5469Y12859I0J-121D01*
G01*
X4343Y2443D02*
G03*
X4315Y2375I68J-68D01*
G01*
X4275Y2415D02*
G03*
X4343Y2443I0J97D01*
G01*
X5497Y12362D02*
G03*
X5525Y12430I-68J68D01*
G01*
X5565Y12390D02*
G03*
X5497Y12362I0J-97D01*
G01*
X4343Y1943D02*
G03*
X4315Y1875I68J-68D01*
G01*
X4275Y1915D02*
G03*
X4343Y1943I0J97D01*
G01*
X5172Y11662D02*
G03*
X5200Y11730I-68J68D01*
G01*
X5240Y11690D02*
G03*
X5172Y11662I0J-97D01*
G01*
X5245Y11378D02*
G03*
X5217Y11447I-97J0D01*
G01*
X5273D02*
G03*
X5245Y11378I68J-68D01*
G01*
X4343Y1463D02*
G03*
X4315Y1395I68J-68D01*
G01*
X4275Y1435D02*
G03*
X4343Y1463I0J97D01*
G01*
X1170Y11788D02*
G03*
X1142Y11857I-97J0D01*
G01*
X1198D02*
G03*
X1170Y11788I68J-68D01*
G01*
X5992Y1035D02*
G03*
X6128Y1091I0J193D01*
G01*
Y978D02*
G03*
X5992Y1035I-137J-137D01*
G01*
X5677Y13598D02*
G03*
X5565Y13645I-112J-112D01*
G01*
X6983Y9746D02*
G03*
X7265Y9630I282J282D01*
G01*
X7120Y9610D02*
G03*
X7265Y9550I145J145D01*
G01*
X7100Y9465D02*
G03*
X6983Y9746I-398J0D01*
G01*
X7180Y9465D02*
G03*
X7120Y9610I-205J0D01*
G01*
X5633Y13111D02*
G03*
X5565Y13140I-68J-68D01*
G01*
X5605Y13180D02*
G03*
X5633Y13111I97J0D01*
G01*
X6881Y9199D02*
G03*
X7265Y9040I384J384D01*
G01*
X7017Y9062D02*
G03*
X7265Y8960I248J248D01*
G01*
X7100Y8875D02*
G03*
X7026Y9054I-253J0D01*
G01*
X5567Y5193D02*
G03*
X5635Y5165I68J68D01*
G01*
X5595Y5125D02*
G03*
X5567Y5193I-97J0D01*
G01*
X5567Y5693D02*
G03*
X5635Y5665I68J68D01*
G01*
X5595Y5625D02*
G03*
X5567Y5693I-97J0D01*
G01*
X6983Y8566D02*
G03*
X7265Y8450I282J282D01*
G01*
X7120Y8430D02*
G03*
X7265Y8370I145J145D01*
G01*
X7100Y8285D02*
G03*
X6983Y8566I-398J0D01*
G01*
X7180Y8285D02*
G03*
X7120Y8430I-205J0D01*
G01*
X5567Y6193D02*
G03*
X5635Y6165I68J68D01*
G01*
X5595Y6125D02*
G03*
X5567Y6193I-97J0D01*
G01*
X4970Y9353D02*
G03*
X4942Y9422I-97J0D01*
G01*
X4998D02*
G03*
X4970Y9353I68J-68D01*
G01*
X5150Y9485D02*
G03*
X5102Y9602I-165J0D01*
G01*
X5310Y9617D02*
G03*
X5242Y9782I-233J0D01*
G01*
X4612Y3738D02*
G03*
X4680Y3710I68J68D01*
G01*
X4640Y3670D02*
G03*
X4612Y3738I-97J0D01*
G01*
X24362Y3128D02*
G03*
X24430Y3100I68J68D01*
G01*
X24390Y3060D02*
G03*
X24362Y3128I-97J0D01*
G01*
X24192Y2948D02*
G03*
X24260Y2920I68J68D01*
G01*
X24220Y2880D02*
G03*
X24192Y2948I-97J0D01*
G01*
X24778Y11622D02*
G03*
X24710Y11650I-68J-68D01*
G01*
X24750Y11690D02*
G03*
X24778Y11622I97J0D01*
G01*
X24947Y11801D02*
G03*
X24879Y11829I-68J-68D01*
G01*
X24919Y11869D02*
G03*
X24947Y11801I97J0D01*
G01*
X27610Y8237D02*
G03*
X27638Y8168I97J0D01*
G01*
X27582D02*
G03*
X27610Y8237I-68J68D01*
G01*
X28052Y8208D02*
G03*
X28120Y8180I68J68D01*
G01*
X28080Y8140D02*
G03*
X28052Y8208I-97J0D01*
G01*
X13417Y11801D02*
G03*
X13349Y11829I-68J-68D01*
G01*
X13389Y11869D02*
G03*
X13417Y11801I97J0D01*
G01*
X13248Y11622D02*
G03*
X13180Y11650I-68J-68D01*
G01*
X13220Y11690D02*
G03*
X13248Y11622I97J0D01*
G01*
X16075Y8257D02*
G03*
X16103Y8188I97J0D01*
G01*
X16047D02*
G03*
X16075Y8257I-68J68D01*
G01*
X16499Y8231D02*
G03*
X16575Y8200I76J76D01*
G01*
X16535Y8160D02*
G03*
X16510Y8221I-86J0D01*
G01*
X252Y9322D02*
G03*
X280Y9390I-68J68D01*
G01*
X320Y9350D02*
G03*
X252Y9322I0J-97D01*
G01*
X72Y9482D02*
G03*
X100Y9550I-68J68D01*
G01*
X140Y9510D02*
G03*
X72Y9482I0J-97D01*
G01*
X-90Y9613D02*
G03*
X-118Y9682I-97J0D01*
G01*
X-62D02*
G03*
X-90Y9613I68J-68D01*
G01*
X-251Y5237D02*
G03*
X-177Y5058I253J0D01*
G01*
X-430Y5127D02*
G03*
X-402Y5058I97J0D01*
G01*
X-458D02*
G03*
X-430Y5127I-68J68D01*
G01*
X200Y5030D02*
G03*
X115Y5235I-290J0D01*
G01*
X-20Y5033D02*
G03*
X-90Y5220I-241J17D01*
G01*
X-430Y9043D02*
G03*
X-458Y9112I-97J0D01*
G01*
X-402D02*
G03*
X-430Y9043I68J-68D01*
G01*
X35212Y2312D02*
G03*
X35122Y2349I-90J-90D01*
G01*
X36612Y2262D02*
G03*
X36640Y2330I-68J68D01*
G01*
X36680Y2290D02*
G03*
X36612Y2262I0J-97D01*
G01*
X31535Y17D02*
G03*
X31467Y-11I0J-97D01*
G01*
Y45D02*
G03*
X31535Y17I68J68D01*
G01*
X33418Y4522D02*
G03*
X33230Y4600I-188J-188D01*
G01*
X31967Y3450D02*
G03*
X31898Y3422I0J-97D01*
G01*
Y3478D02*
G03*
X31967Y3450I68J68D01*
G01*
X895Y5575D02*
X1000Y5680D01*
X34001Y2349D02*
X35231D01*
X32900Y3450D02*
X34001Y2349D01*
X31870Y3450D02*
X32900D01*
X35231Y2349D02*
X35240Y2340D01*
X35750Y1400D02*
X36680Y2330D01*
X34720Y1400D02*
X35750D01*
X33337Y17D02*
X34720Y1400D01*
X31438Y17D02*
X33337D01*
X33230Y4640D02*
X33300D01*
X35420Y2520D01*
X70Y9140D02*
X320Y9390D01*
X70Y5280D02*
Y9140D01*
Y5280D02*
X240Y5110D01*
X-90Y9320D02*
X140Y9550D01*
X-90Y5220D02*
Y9320D01*
Y5220D02*
X20Y5110D01*
X-251Y5076D02*
X-205Y5030D01*
X-251Y5076D02*
Y9371D01*
X-90Y9532D01*
X240Y5030D02*
Y5110D01*
X20Y5030D02*
Y5110D01*
X-90Y9532D02*
Y9710D01*
X-430Y5030D02*
Y9150D01*
X16075Y8160D02*
Y8795D01*
X13180Y11690D02*
X16075Y8795D01*
X27850Y8410D02*
X28120Y8140D01*
X27850Y8410D02*
Y8898D01*
X24879Y11869D02*
X27850Y8898D01*
X27610Y8140D02*
Y8790D01*
X24710Y11690D02*
X27610Y8790D01*
X4570Y9620D02*
X5060Y10110D01*
X4730Y9570D02*
X5245Y10085D01*
X4560Y2160D02*
Y3070D01*
X4419Y2519D02*
Y2931D01*
X5245Y10085D02*
Y11475D01*
X4275Y2375D02*
X4419Y2519D01*
X4699Y3386D02*
X4859Y3546D01*
X4699Y1819D02*
Y3386D01*
X4275Y1395D02*
X4699Y1819D01*
X4275Y1875D02*
X4560Y2160D01*
X4970Y5790D02*
Y9450D01*
Y5790D02*
X5635Y5125D01*
X2270Y6270D02*
X3020Y7020D01*
X2450Y5150D02*
Y6200D01*
X2270Y5020D02*
Y6270D01*
X4375Y1035D02*
X6185D01*
X6735Y4695D02*
X7265D01*
X6455Y4975D02*
X6735Y4695D01*
X6455Y4975D02*
Y7535D01*
X2090Y6290D02*
X2610Y6810D01*
Y7210D01*
X1540Y6400D02*
X2070Y6930D01*
X2090Y5150D02*
Y6290D01*
X1720Y5150D02*
Y6320D01*
X1540Y5010D02*
Y6400D01*
X1360Y5150D02*
Y6417D01*
X1730Y6787D01*
Y7300D01*
X1180Y5010D02*
Y6433D01*
X1562Y6815D01*
X33566Y5454D02*
Y6610D01*
Y5454D02*
X35965Y3055D01*
X33010Y5290D02*
X35600Y2700D01*
X33300Y5360D02*
X35780Y2880D01*
X21525Y5965D02*
X24430Y3060D01*
X21525Y5965D02*
Y6600D01*
X21300Y5840D02*
X24260Y2880D01*
X9995Y5965D02*
Y6600D01*
Y5965D02*
X12900Y3060D01*
X9750Y5860D02*
X12730Y2880D01*
X6883Y8667D02*
X7265Y8285D01*
X6883Y8667D02*
Y8957D01*
X6806Y9924D02*
Y12470D01*
Y9924D02*
X7265Y9465D01*
X6643Y9437D02*
X7135Y8945D01*
X6643Y9437D02*
Y12102D01*
X6490Y9350D02*
X6883Y8957D01*
X6490Y9350D02*
Y11900D01*
X3020Y7020D02*
Y7080D01*
X3137Y7280D02*
X3200Y7217D01*
X2630Y5020D02*
Y6180D01*
X3380Y6120D02*
X3620Y6360D01*
X1000Y5680D02*
Y6450D01*
X4230Y3400D02*
X4560Y3070D01*
X4080Y3270D02*
X4419Y2931D01*
X3930Y3160D02*
X4215Y2875D01*
X5150Y6110D02*
X5635Y5625D01*
X5150Y6110D02*
Y9610D01*
X5130Y9630D02*
X5150Y9610D01*
X5310Y6450D02*
X5635Y6125D01*
X5270Y9810D02*
X5310Y9770D01*
Y6450D02*
Y9770D01*
X3620Y6360D02*
Y7530D01*
X3190Y6530D02*
X3479Y6819D01*
Y7435D01*
X2640Y6180D02*
X3340Y6880D01*
Y7318D01*
X2450Y6200D02*
X3200Y6950D01*
Y7217D01*
X1720Y6320D02*
X2260Y6860D01*
Y7210D01*
X1902Y5020D02*
Y6306D01*
X2420Y6823D01*
Y7120D01*
X2070Y6930D02*
Y7020D01*
X1562Y6815D02*
Y7220D01*
X1000Y6450D02*
X1394Y6844D01*
Y7218D01*
X4230Y3400D02*
Y3756D01*
X4390Y3916D01*
X4080Y3270D02*
Y3849D01*
X4220Y3989D01*
X3930Y3160D02*
Y3952D01*
X4030Y4052D01*
X4570Y3780D02*
Y9620D01*
Y3780D02*
X4680Y3670D01*
X4730Y3873D02*
Y9570D01*
Y3873D02*
X4859Y3744D01*
Y3546D02*
Y3744D01*
X4390Y3916D02*
Y9637D01*
X5705Y12685D02*
X6490Y11900D01*
X5555Y12685D02*
X5705D01*
X4220Y3989D02*
Y9663D01*
X4030Y4052D02*
Y9670D01*
X4430Y10070D01*
Y12300D01*
X5565Y13435D01*
X5060Y10110D02*
Y11550D01*
X5240Y11730D01*
X4390Y9637D02*
X4860Y10107D01*
Y11725D02*
X5565Y12430D01*
X4860Y10107D02*
Y11725D01*
X4220Y9663D02*
X4650Y10093D01*
Y11780D01*
X5370Y12500D01*
Y12760D01*
X5550Y12940D01*
X5565Y13180D02*
X6643Y12102D01*
X5584Y13691D02*
X6806Y12470D01*
X6455Y7535D02*
X6870Y7950D01*
X7060Y9020D02*
X7205Y8875D01*
X1170Y11650D02*
Y11885D01*
X4375Y1035D02*
Y1042D01*
X4036Y1381D02*
X4375Y1042D01*
X4036Y1381D02*
Y2857D01*
X3791Y3102D02*
X4036Y2857D01*
X3791Y3102D02*
Y4010D01*
X3891Y4110D01*
Y7528D01*
X3306Y8112D02*
X3891Y7528D01*
X3306Y8112D02*
Y8614D01*
X1170Y10751D02*
X3306Y8614D01*
X1170Y10751D02*
Y11650D01*
X3190Y5400D02*
Y6530D01*
X3380Y5580D02*
Y6120D01*
X9750Y5860D02*
Y6345D01*
X9495Y6600D02*
X9750Y6345D01*
X21300Y5840D02*
Y6325D01*
X21025Y6600D02*
X21300Y6325D01*
X33010Y5290D02*
Y6160D01*
X32568Y6603D02*
X33010Y6160D01*
X33300Y5360D02*
Y6366D01*
X33066Y6600D02*
X33300Y6366D01*
X16310Y8420D02*
X16575Y8156D01*
X16310Y8420D02*
Y8908D01*
X13349Y11869D02*
X16310Y8908D01*
X34295Y5455D02*
X34565D01*
X36025Y3995D01*
D11*
X30950Y2240D02*
X32902D01*
X26850Y12655D02*
Y13195D01*
X27430Y13775D01*
Y14615D01*
X21720Y200D02*
Y980D01*
X22300Y1560D01*
Y2100D01*
X10830Y1560D02*
Y2100D01*
X10250Y980D02*
X10830Y1560D01*
X10250Y200D02*
Y980D01*
X32902Y2240D02*
X33123Y2020D01*
D12*
X12126Y8104D02*
G03*
X12260Y8428I-324J324D01*
G01*
X33900Y1760D02*
Y2030D01*
X32790Y650D02*
X33900Y1760D01*
X32320Y650D02*
X32790D01*
X12140Y8090D02*
X12260Y8210D01*
Y9579D01*
X22085Y9398D02*
X22265Y9578D01*
X23840D01*
X25275Y5120D02*
X27210D01*
X13758Y5119D02*
X15363D01*
X15624Y5380D01*
X16113D01*
X-2115Y9845D02*
Y12235D01*
X-1225Y13125D01*
Y13795D01*
D13*
X-1631Y12141D02*
G03*
X-1710Y11951I190J-190D01*
G01*
Y12020D02*
X-1610Y12120D01*
X-2835Y7225D02*
X-1710Y8350D01*
X-2835Y4975D02*
Y7225D01*
X595Y1545D02*
X2445D01*
X-2835Y4975D02*
X595Y1545D01*
X-2015Y7315D02*
X-1220Y8110D01*
X-1710Y8350D02*
Y12020D01*
X-1220Y8110D02*
Y12125D01*
D14*
X1052Y8326D02*
G03*
X1138Y8291I85J85D01*
G01*
X1088Y8241D02*
G03*
X1052Y8326I-121J0D01*
G01*
X1821Y8155D02*
G03*
X1856Y8240I-85J85D01*
G01*
X1906Y8190D02*
G03*
X1821Y8155I0J-121D01*
G01*
X2553Y8496D02*
G03*
X2638Y8532I0J121D01*
G01*
Y8461D02*
G03*
X2553Y8496I-85J-85D01*
G01*
X2420Y7618D02*
G03*
X2387Y7698I-114J0D01*
G01*
X2457D02*
G03*
X2420Y7608I90J-90D01*
G01*
X1394Y8120D02*
G03*
X1359Y8205I-121J0D01*
G01*
X1429D02*
G03*
X1394Y8120I85J-85D01*
G01*
X368Y8678D02*
G03*
X340Y8597I71J-71D01*
G01*
X287Y8650D02*
G03*
X368Y8678I11J99D01*
G01*
X2504Y8154D02*
G03*
X2418Y8190I-85J-85D01*
G01*
X2468Y8240D02*
G03*
X2504Y8154I121J0D01*
G01*
X2760Y8154D02*
G03*
X2674Y8190I-85J-85D01*
G01*
X2724Y8240D02*
G03*
X2760Y8154I121J0D01*
G01*
X2503Y9179D02*
G03*
X2418Y9214I-85J-85D01*
G01*
X2468Y9264D02*
G03*
X2503Y9179I121J0D01*
G01*
X2436Y8496D02*
X2673D01*
X2249Y8310D02*
X2436Y8496D01*
X2249Y8167D02*
Y8310D01*
X2420Y7120D02*
Y7731D01*
X1725Y8060D02*
X1906Y8240D01*
X1725Y7522D02*
Y8060D01*
X1562Y7359D02*
X1725Y7522D01*
X1562Y7220D02*
Y7359D01*
X1394Y7218D02*
Y8241D01*
X280Y8590D02*
X368Y8678D01*
X700D01*
X1138Y8241D01*
X2674Y8240D02*
X3479Y7435D01*
X2249Y8167D02*
X2571Y7846D01*
X2418Y8240D02*
X2670Y7988D01*
X3250Y7408D02*
X3340Y7318D01*
X2670Y7777D02*
X3039Y7408D01*
X2670Y7777D02*
Y7988D01*
X3039Y7408D02*
X3250D01*
X2571Y7726D02*
Y7846D01*
Y7726D02*
X3017Y7280D01*
X3137D01*
X3079Y8071D02*
X3620Y7530D01*
X3079Y8071D02*
Y8603D01*
X2418Y9264D02*
X3079Y8603D01*
D17*
X8450Y4520D02*
G03*
X8279Y4449I0J-241D01*
G01*
X20220Y4390D02*
G03*
X19810Y4220I0J-579D01*
G01*
X7470Y4105D02*
G03*
X7325Y4045I0J-205D01*
G01*
Y4165D02*
G03*
X7470Y4105I145J145D01*
G01*
X19000Y3875D02*
G03*
X18855Y3815I0J-205D01*
G01*
Y3935D02*
G03*
X19000Y3875I145J145D01*
G01*
X30850Y925D02*
G03*
X30950Y1166I-241J241D01*
G01*
X32669Y4110D02*
G03*
X32944Y4224I0J389D01*
G01*
X32830Y4110D02*
X32944Y4224D01*
X30850Y925D02*
X30950Y1025D01*
X36810Y5139D02*
X38780D01*
X18795Y3875D02*
X19465D01*
X19980Y4390D01*
X20220D01*
X7935Y4105D02*
X8350Y4520D01*
X7265Y4105D02*
X7935D01*
X8350Y4520D02*
X8690D01*
X31870Y4110D02*
X32830D01*
X30950Y1025D02*
Y2240D01*
Y3190D01*
X31865Y4105D01*
D91*
X40536Y10074D02*
D03*
D92*
X38905Y14505D02*
D03*
D93*
X33045Y11985D02*
D03*
X21525Y11995D02*
D03*
X9995Y12005D02*
D03*
X16065Y2775D02*
D03*
X27595D02*
D03*
X-2165Y2975D02*
D03*
X34105Y8905D02*
D03*
X26095Y5495D02*
D03*
X14635D02*
D03*
X27355Y13385D02*
D03*
X27505Y13455D02*
D03*
X39285Y10335D02*
D03*
X35050Y1090D02*
D03*
X33030Y1610D02*
D03*
X31870Y3450D02*
D03*
X34490Y3050D02*
D03*
X30850Y-10D02*
D03*
X32070Y230D02*
D03*
X33123Y2020D02*
D03*
X34150Y5210D02*
D03*
X33230Y4640D02*
D03*
X31340Y1490D02*
D03*
X31438Y17D02*
D03*
X36680Y2330D02*
D03*
X35240Y2340D02*
D03*
X33330Y3660D02*
D03*
X33140Y2940D02*
D03*
X33880Y1100D02*
D03*
X35160Y600D02*
D03*
X35180Y1950D02*
D03*
X33470D02*
D03*
X3810Y1730D02*
D03*
X4900Y490D02*
D03*
X-1250Y5660D02*
D03*
X-690Y9820D02*
D03*
X3870Y10920D02*
D03*
X-430Y9140D02*
D03*
X280Y8590D02*
D03*
X20Y5030D02*
D03*
X240D02*
D03*
X-430D02*
D03*
X-205D02*
D03*
X-90Y9710D02*
D03*
X140Y9550D02*
D03*
X320Y9390D02*
D03*
X-1700Y10221D02*
D03*
X-930Y12150D02*
D03*
X8360Y10220D02*
D03*
X13145Y11398D02*
D03*
X15910Y12720D02*
D03*
X17075Y8149D02*
D03*
X11870Y9140D02*
D03*
X11340Y9350D02*
D03*
X11060Y13530D02*
D03*
X13050Y12230D02*
D03*
X16575Y8160D02*
D03*
X16075D02*
D03*
X13180Y11690D02*
D03*
X13349Y11869D02*
D03*
X19860Y10230D02*
D03*
X21450Y9060D02*
D03*
X28610Y8080D02*
D03*
X27450Y10900D02*
D03*
X25400Y12600D02*
D03*
Y14640D02*
D03*
X26920Y11570D02*
D03*
X22570Y13500D02*
D03*
X23000Y9250D02*
D03*
X23420Y9140D02*
D03*
X28120Y8140D02*
D03*
X27610D02*
D03*
X24879Y11869D02*
D03*
X24710Y11690D02*
D03*
X24260Y2880D02*
D03*
X24430Y3060D02*
D03*
X4680Y3670D02*
D03*
X5270Y9810D02*
D03*
X5130Y9630D02*
D03*
X4970Y9450D02*
D03*
X5635Y6125D02*
D03*
Y5625D02*
D03*
Y5125D02*
D03*
X5565Y13180D02*
D03*
Y13685D02*
D03*
X-341Y12209D02*
D03*
X1170Y11885D02*
D03*
X4275Y1395D02*
D03*
X5245Y11475D02*
D03*
X5240Y11730D02*
D03*
X4275Y1875D02*
D03*
X5565Y12430D02*
D03*
X4275Y2375D02*
D03*
X5555Y12935D02*
D03*
X5565Y13435D02*
D03*
X4215Y2875D02*
D03*
X2260Y7210D02*
D03*
X2070Y7020D02*
D03*
X1540Y5010D02*
D03*
X1720Y5150D02*
D03*
X1902Y5020D02*
D03*
X2090Y5150D02*
D03*
X2270Y5020D02*
D03*
X2450Y5150D02*
D03*
X1730Y7300D02*
D03*
X1360Y5150D02*
D03*
X1180Y5010D02*
D03*
X35970Y3060D02*
D03*
X35800Y2880D02*
D03*
X35600Y2700D02*
D03*
X35420Y2520D02*
D03*
X33566Y6610D02*
D03*
X33066Y6600D02*
D03*
X32565D02*
D03*
X31240Y910D02*
D03*
X33870Y90D02*
D03*
X38090Y1260D02*
D03*
X41470Y4640D02*
D03*
X40600Y3450D02*
D03*
X40770Y4455D02*
D03*
X40890Y6360D02*
D03*
X39940Y6370D02*
D03*
X39750Y4980D02*
D03*
X39100Y5650D02*
D03*
X37570Y5840D02*
D03*
X37210Y6700D02*
D03*
X32070Y6600D02*
D03*
X37190Y5425D02*
D03*
X35370Y4030D02*
D03*
X37640Y1680D02*
D03*
X40810Y3450D02*
D03*
X12730Y2880D02*
D03*
X12900Y3060D02*
D03*
X21525Y6600D02*
D03*
X21025D02*
D03*
X24410Y3480D02*
D03*
X23660Y2630D02*
D03*
X23630Y600D02*
D03*
Y100D02*
D03*
X26550Y1250D02*
D03*
X29790Y4510D02*
D03*
X29410Y6360D02*
D03*
X28470D02*
D03*
X27630Y5650D02*
D03*
X29220Y4510D02*
D03*
X20530Y6600D02*
D03*
X21590Y1480D02*
D03*
X21780Y3670D02*
D03*
X25820Y810D02*
D03*
X22970Y3460D02*
D03*
X25661Y5386D02*
D03*
X9995Y6600D02*
D03*
X9495D02*
D03*
X14170Y5550D02*
D03*
X17690Y4520D02*
D03*
X15040Y1200D02*
D03*
X10810Y620D02*
D03*
X12190Y2690D02*
D03*
X9000Y6600D02*
D03*
X10350Y3380D02*
D03*
X31410Y10230D02*
D03*
X32650Y9970D02*
D03*
X33330Y9330D02*
D03*
X33870Y8610D02*
D03*
X35320Y8990D02*
D03*
X35150Y8090D02*
D03*
X38327Y10340D02*
D03*
X36980Y14650D02*
D03*
X36960Y13640D02*
D03*
X38420Y14120D02*
D03*
X34110Y13530D02*
D03*
X35350Y14040D02*
D03*
X2630Y5020D02*
D03*
X3190Y5400D02*
D03*
X3380Y5580D02*
D03*
X895Y5575D02*
D03*
X3020Y7080D02*
D03*
X2610Y7210D02*
D03*
X5520Y2860D02*
D03*
Y2370D02*
D03*
X5555Y12685D02*
D03*
X6870Y7950D02*
D03*
X12010Y640D02*
D03*
X-771Y670D02*
D03*
X3306Y8112D02*
D03*
X3630Y8190D02*
D03*
X6850Y6000D02*
D03*
X-2015Y-205D02*
D03*
Y171D02*
D03*
Y548D02*
D03*
Y925D02*
D03*
Y736D02*
D03*
X-3598Y3035D02*
D03*
X-3149D02*
D03*
X-3368D02*
D03*
X-2015Y-17D02*
D03*
Y360D02*
D03*
X36025Y3995D02*
D03*
X34295Y5455D02*
D03*
X-1225Y10805D02*
D03*
X-2115Y9845D02*
D03*
X-1225Y13795D02*
D03*
X30545Y2255D02*
D03*
D94*
X14623Y13445D02*
D03*
X33900Y2030D02*
D03*
X32944Y4224D02*
D03*
X31850Y4120D02*
D03*
X30950Y3190D02*
D03*
X30850Y925D02*
D03*
X32320Y650D02*
D03*
X32070Y5270D02*
D03*
X18425Y3415D02*
D03*
X-3520Y11830D02*
D03*
Y12070D02*
D03*
X12260Y9579D02*
D03*
X27430Y14615D02*
D03*
X26850Y12655D02*
D03*
X22085Y9398D02*
D03*
X23840Y9578D02*
D03*
X17285Y10805D02*
D03*
X15275Y6315D02*
D03*
X26775D02*
D03*
X28185Y4975D02*
D03*
X16655D02*
D03*
X22325Y8435D02*
D03*
X20705Y9735D02*
D03*
X10785Y8435D02*
D03*
X18185Y8245D02*
D03*
X9335Y9695D02*
D03*
X31455Y11745D02*
D03*
X33665Y13955D02*
D03*
X27075Y805D02*
D03*
X15515Y765D02*
D03*
X10595Y13955D02*
D03*
X35865Y9185D02*
D03*
X31535Y9465D02*
D03*
X36225Y11275D02*
D03*
X39055Y2765D02*
D03*
X31925Y8655D02*
D03*
X34055Y14755D02*
D03*
X32165Y12195D02*
D03*
X39845Y13815D02*
D03*
X33215Y13205D02*
D03*
X30705Y11335D02*
D03*
X26645Y-65D02*
D03*
X28595Y2515D02*
D03*
X20515Y5335D02*
D03*
X19255Y115D02*
D03*
X27501Y1515D02*
D03*
X29875Y3245D02*
D03*
X17405Y6055D02*
D03*
X15075Y-5D02*
D03*
X16965Y2555D02*
D03*
X8625Y4125D02*
D03*
X9285Y1255D02*
D03*
X7715Y115D02*
D03*
X15915Y1545D02*
D03*
X20195Y8695D02*
D03*
X8665D02*
D03*
X10985Y14755D02*
D03*
X9095Y12195D02*
D03*
X17285Y9795D02*
D03*
X17485Y13735D02*
D03*
X18225Y14755D02*
D03*
X10145Y13205D02*
D03*
X7635Y11455D02*
D03*
X6528Y4276D02*
D03*
X5515Y14615D02*
D03*
X2515Y13005D02*
D03*
X-3075Y3475D02*
D03*
X2436Y610D02*
D03*
X-695Y11165D02*
D03*
X-1555Y6065D02*
D03*
X-155Y795D02*
D03*
X-2035Y12985D02*
D03*
X-2015Y7315D02*
D03*
X-1225Y12125D02*
D03*
X6185Y1035D02*
D03*
X2445Y1545D02*
D03*
X-1610Y12120D02*
D03*
X12140Y8090D02*
D03*
X36810Y5139D02*
D03*
X38780Y5140D02*
D03*
X37330Y740D02*
D03*
X25275Y5120D02*
D03*
X27210D02*
D03*
X22300Y2100D02*
D03*
X21720Y200D02*
D03*
X20220Y4390D02*
D03*
X19980D02*
D03*
X41418Y3241D02*
D03*
X38985Y1531D02*
D03*
X40138Y2511D02*
D03*
X38188Y-69D02*
D03*
X38588Y831D02*
D03*
X8450Y4520D02*
D03*
X8690D02*
D03*
X13758Y5119D02*
D03*
X16113Y5380D02*
D03*
X10250Y200D02*
D03*
X10830Y2100D02*
D03*
D95*
X2418Y9264D02*
D03*
X2674Y8240D02*
D03*
X2418D02*
D03*
X1394Y8241D02*
D03*
X1906Y8753D02*
D03*
X2422Y7734D02*
D03*
X2673Y8496D02*
D03*
X2162Y8753D02*
D03*
X370Y7729D02*
D03*
X626Y7729D02*
D03*
X626Y8240D02*
D03*
X370Y8241D02*
D03*
X1906Y7473D02*
D03*
X1650Y8241D02*
D03*
X1906Y8240D02*
D03*
X1138Y8241D02*
D03*
X626Y8496D02*
D03*
D97*
X28345Y13415D02*
D03*
X22515Y14755D02*
D03*
X20635Y12195D02*
D03*
X29215Y9565D02*
D03*
X22125Y13975D02*
D03*
X29885Y14635D02*
D03*
X21685Y13205D02*
D03*
X19175Y11335D02*
D03*
D98*
X7265Y8285D02*
D03*
Y8875D02*
D03*
Y9465D02*
D03*
X18795Y10875D02*
D03*
X7265Y11235D02*
D03*
X30335Y10645D02*
D03*
Y4695D02*
D03*
X18795Y4465D02*
D03*
X7265Y685D02*
D03*
X18795Y3875D02*
D03*
X7265Y4105D02*
D03*
Y4695D02*
D03*
M02*
