M48
;Layer_Color=9474304
;FILE_FORMAT=2:4
INCH,LZ
;TYPE=PLATED
T2F00S00C0.0080
T3F00S00C0.0120
%
T02
X01273Y00288
X0129Y00306
X02443
X02426Y00288
X033123Y00202
X03524Y00234
X03542Y00252
X0356Y0027
X0358Y00288
X03597Y00306
X03668Y00233
X036025Y003995
X034295Y005455
X03323Y00464
X02471Y01169
X024879Y011869
X013349
X01318Y01169
T03
X01083Y0021
X0223
X03095Y00319
X0339Y00203
X032944Y004224
X03185Y00412
X03681Y005139
X025275Y00512
X02384Y009578
X02685Y012655
X01226Y009579
X013758Y005119
M30
