%FSLAX24Y24*%
%MOIN*%
G70*
G01*
G75*
G04 Layer_Color=32896*
%ADD10C,0.0080*%
%ADD11C,0.0160*%
%ADD12C,0.0200*%
%ADD13C,0.0300*%
%ADD14C,0.0040*%
%ADD15C,0.0100*%
%ADD16C,0.0120*%
%ADD17C,0.0240*%
%ADD18C,0.0090*%
%ADD19R,0.0200X0.0200*%
%ADD20R,0.0200X0.0200*%
%ADD21C,0.0098*%
%ADD22C,0.0276*%
%ADD23R,0.0236X0.0413*%
%ADD24P,0.0283X4X90.0*%
%ADD25R,0.0940X0.0650*%
%ADD26R,0.0100X0.0270*%
%ADD27R,0.0550X0.0470*%
%ADD28R,0.0160X0.0440*%
G04:AMPARAMS|DCode=29|XSize=20mil|YSize=8mil|CornerRadius=3mil|HoleSize=0mil|Usage=FLASHONLY|Rotation=90.000|XOffset=0mil|YOffset=0mil|HoleType=Round|Shape=RoundedRectangle|*
%AMROUNDEDRECTD29*
21,1,0.0200,0.0020,0,0,90.0*
21,1,0.0140,0.0080,0,0,90.0*
1,1,0.0060,0.0010,0.0070*
1,1,0.0060,0.0010,-0.0070*
1,1,0.0060,-0.0010,-0.0070*
1,1,0.0060,-0.0010,0.0070*
%
%ADD29ROUNDEDRECTD29*%
G04:AMPARAMS|DCode=30|XSize=20mil|YSize=8mil|CornerRadius=3mil|HoleSize=0mil|Usage=FLASHONLY|Rotation=0.000|XOffset=0mil|YOffset=0mil|HoleType=Round|Shape=RoundedRectangle|*
%AMROUNDEDRECTD30*
21,1,0.0200,0.0020,0,0,0.0*
21,1,0.0140,0.0080,0,0,0.0*
1,1,0.0060,0.0070,-0.0010*
1,1,0.0060,-0.0070,-0.0010*
1,1,0.0060,-0.0070,0.0010*
1,1,0.0060,0.0070,0.0010*
%
%ADD30ROUNDEDRECTD30*%
%ADD31R,0.0360X0.0400*%
%ADD32R,0.0340X0.0310*%
%ADD33R,0.0320X0.0280*%
%ADD34R,0.0560X0.0560*%
%ADD35R,0.0480X0.0560*%
%ADD36R,0.0200X0.0400*%
G04:AMPARAMS|DCode=37|XSize=52mil|YSize=63mil|CornerRadius=5.2mil|HoleSize=0mil|Usage=FLASHONLY|Rotation=180.000|XOffset=0mil|YOffset=0mil|HoleType=Round|Shape=RoundedRectangle|*
%AMROUNDEDRECTD37*
21,1,0.0520,0.0526,0,0,180.0*
21,1,0.0416,0.0630,0,0,180.0*
1,1,0.0104,-0.0208,0.0263*
1,1,0.0104,0.0208,0.0263*
1,1,0.0104,0.0208,-0.0263*
1,1,0.0104,-0.0208,-0.0263*
%
%ADD37ROUNDEDRECTD37*%
%ADD38R,0.0400X0.0360*%
%ADD39R,0.0310X0.0340*%
%ADD40R,0.0400X0.0200*%
G04:AMPARAMS|DCode=41|XSize=52mil|YSize=63mil|CornerRadius=5.2mil|HoleSize=0mil|Usage=FLASHONLY|Rotation=315.000|XOffset=0mil|YOffset=0mil|HoleType=Round|Shape=RoundedRectangle|*
%AMROUNDEDRECTD41*
21,1,0.0520,0.0526,0,0,315.0*
21,1,0.0416,0.0630,0,0,315.0*
1,1,0.0104,-0.0039,-0.0333*
1,1,0.0104,-0.0333,-0.0039*
1,1,0.0104,0.0039,0.0333*
1,1,0.0104,0.0333,0.0039*
%
%ADD41ROUNDEDRECTD41*%
G04:AMPARAMS|DCode=42|XSize=52mil|YSize=63mil|CornerRadius=5.2mil|HoleSize=0mil|Usage=FLASHONLY|Rotation=270.000|XOffset=0mil|YOffset=0mil|HoleType=Round|Shape=RoundedRectangle|*
%AMROUNDEDRECTD42*
21,1,0.0520,0.0526,0,0,270.0*
21,1,0.0416,0.0630,0,0,270.0*
1,1,0.0104,-0.0263,-0.0208*
1,1,0.0104,-0.0263,0.0208*
1,1,0.0104,0.0263,0.0208*
1,1,0.0104,0.0263,-0.0208*
%
%ADD42ROUNDEDRECTD42*%
%ADD43R,0.0280X0.0320*%
%ADD44R,0.0100X0.0220*%
G04:AMPARAMS|DCode=45|XSize=22mil|YSize=10mil|CornerRadius=0mil|HoleSize=0mil|Usage=FLASHONLY|Rotation=45.000|XOffset=0mil|YOffset=0mil|HoleType=Round|Shape=Rectangle|*
%AMROTATEDRECTD45*
4,1,4,-0.0042,-0.0113,-0.0113,-0.0042,0.0042,0.0113,0.0113,0.0042,-0.0042,-0.0113,0.0*
%
%ADD45ROTATEDRECTD45*%

%ADD46R,0.1460X0.0480*%
%ADD47R,0.0560X0.0160*%
%ADD48R,0.0750X0.0910*%
%ADD49R,0.0750X0.0710*%
G04:AMPARAMS|DCode=50|XSize=8mil|YSize=28mil|CornerRadius=4mil|HoleSize=0mil|Usage=FLASHONLY|Rotation=270.000|XOffset=0mil|YOffset=0mil|HoleType=Round|Shape=RoundedRectangle|*
%AMROUNDEDRECTD50*
21,1,0.0080,0.0200,0,0,270.0*
21,1,0.0000,0.0280,0,0,270.0*
1,1,0.0080,-0.0100,0.0000*
1,1,0.0080,-0.0100,0.0000*
1,1,0.0080,0.0100,0.0000*
1,1,0.0080,0.0100,0.0000*
%
%ADD50ROUNDEDRECTD50*%
G04:AMPARAMS|DCode=51|XSize=8mil|YSize=28mil|CornerRadius=4mil|HoleSize=0mil|Usage=FLASHONLY|Rotation=180.000|XOffset=0mil|YOffset=0mil|HoleType=Round|Shape=RoundedRectangle|*
%AMROUNDEDRECTD51*
21,1,0.0080,0.0200,0,0,180.0*
21,1,0.0000,0.0280,0,0,180.0*
1,1,0.0080,0.0000,0.0100*
1,1,0.0080,0.0000,0.0100*
1,1,0.0080,0.0000,-0.0100*
1,1,0.0080,0.0000,-0.0100*
%
%ADD51ROUNDEDRECTD51*%
G04:AMPARAMS|DCode=52|XSize=182mil|YSize=182mil|CornerRadius=4.6mil|HoleSize=0mil|Usage=FLASHONLY|Rotation=180.000|XOffset=0mil|YOffset=0mil|HoleType=Round|Shape=RoundedRectangle|*
%AMROUNDEDRECTD52*
21,1,0.1820,0.1729,0,0,180.0*
21,1,0.1729,0.1820,0,0,180.0*
1,1,0.0091,-0.0865,0.0865*
1,1,0.0091,0.0865,0.0865*
1,1,0.0091,0.0865,-0.0865*
1,1,0.0091,-0.0865,-0.0865*
%
%ADD52ROUNDEDRECTD52*%
G04:AMPARAMS|DCode=53|XSize=182mil|YSize=182mil|CornerRadius=4.6mil|HoleSize=0mil|Usage=FLASHONLY|Rotation=135.000|XOffset=0mil|YOffset=0mil|HoleType=Round|Shape=RoundedRectangle|*
%AMROUNDEDRECTD53*
21,1,0.1820,0.1729,0,0,135.0*
21,1,0.1729,0.1820,0,0,135.0*
1,1,0.0091,0.0000,0.1223*
1,1,0.0091,0.1223,0.0000*
1,1,0.0091,0.0000,-0.1223*
1,1,0.0091,-0.1223,0.0000*
%
%ADD53ROUNDEDRECTD53*%
G04:AMPARAMS|DCode=54|XSize=8mil|YSize=28mil|CornerRadius=4mil|HoleSize=0mil|Usage=FLASHONLY|Rotation=135.000|XOffset=0mil|YOffset=0mil|HoleType=Round|Shape=RoundedRectangle|*
%AMROUNDEDRECTD54*
21,1,0.0080,0.0200,0,0,135.0*
21,1,0.0000,0.0280,0,0,135.0*
1,1,0.0080,0.0071,0.0071*
1,1,0.0080,0.0071,0.0071*
1,1,0.0080,-0.0071,-0.0071*
1,1,0.0080,-0.0071,-0.0071*
%
%ADD54ROUNDEDRECTD54*%
G04:AMPARAMS|DCode=55|XSize=8mil|YSize=28mil|CornerRadius=4mil|HoleSize=0mil|Usage=FLASHONLY|Rotation=225.000|XOffset=0mil|YOffset=0mil|HoleType=Round|Shape=RoundedRectangle|*
%AMROUNDEDRECTD55*
21,1,0.0080,0.0200,0,0,225.0*
21,1,0.0000,0.0280,0,0,225.0*
1,1,0.0080,-0.0071,0.0071*
1,1,0.0080,-0.0071,0.0071*
1,1,0.0080,0.0071,-0.0071*
1,1,0.0080,0.0071,-0.0071*
%
%ADD55ROUNDEDRECTD55*%
%ADD56P,0.0283X4X360.0*%
%ADD57R,0.0600X0.0950*%
%ADD58R,0.0240X0.0160*%
G04:AMPARAMS|DCode=59|XSize=14mil|YSize=14mil|CornerRadius=7mil|HoleSize=0mil|Usage=FLASHONLY|Rotation=0.000|XOffset=0mil|YOffset=0mil|HoleType=Round|Shape=RoundedRectangle|*
%AMROUNDEDRECTD59*
21,1,0.0140,0.0000,0,0,0.0*
21,1,0.0000,0.0140,0,0,0.0*
1,1,0.0140,0.0000,0.0000*
1,1,0.0140,0.0000,0.0000*
1,1,0.0140,0.0000,0.0000*
1,1,0.0140,0.0000,0.0000*
%
%ADD59ROUNDEDRECTD59*%
%ADD60R,0.0165X0.0400*%
%ADD61C,0.0236*%
%ADD62R,0.0120X0.0400*%
%ADD63R,0.0480X0.0400*%
%ADD64R,0.0400X0.0480*%
%ADD65R,0.0827X0.0206*%
%ADD66R,0.0394X0.0560*%
%ADD67R,0.0827X0.0354*%
%ADD68R,0.0560X0.0394*%
%ADD69R,0.0206X0.0827*%
%ADD70R,0.0354X0.0827*%
G04:AMPARAMS|DCode=71|XSize=100mil|YSize=35mil|CornerRadius=8.8mil|HoleSize=0mil|Usage=FLASHONLY|Rotation=180.000|XOffset=0mil|YOffset=0mil|HoleType=Round|Shape=RoundedRectangle|*
%AMROUNDEDRECTD71*
21,1,0.1000,0.0175,0,0,180.0*
21,1,0.0825,0.0350,0,0,180.0*
1,1,0.0175,-0.0413,0.0088*
1,1,0.0175,0.0413,0.0088*
1,1,0.0175,0.0413,-0.0088*
1,1,0.0175,-0.0413,-0.0088*
%
%ADD71ROUNDEDRECTD71*%
G04:AMPARAMS|DCode=72|XSize=100mil|YSize=35mil|CornerRadius=8.8mil|HoleSize=0mil|Usage=FLASHONLY|Rotation=90.000|XOffset=0mil|YOffset=0mil|HoleType=Round|Shape=RoundedRectangle|*
%AMROUNDEDRECTD72*
21,1,0.1000,0.0175,0,0,90.0*
21,1,0.0825,0.0350,0,0,90.0*
1,1,0.0175,0.0088,0.0413*
1,1,0.0175,0.0088,-0.0413*
1,1,0.0175,-0.0088,-0.0413*
1,1,0.0175,-0.0088,0.0413*
%
%ADD72ROUNDEDRECTD72*%
%ADD73R,0.0950X0.0300*%
%ADD74R,0.0512X0.0866*%
%ADD75R,0.0512X0.0551*%
%ADD76C,0.0160*%
%ADD77C,0.0630*%
%ADD78C,0.0360*%
%ADD79C,0.0070*%
%ADD80C,0.0060*%
%ADD81C,0.0400*%
%ADD82C,0.0280*%
%ADD83R,0.0520X0.0140*%
%ADD84R,0.0108X0.0250*%
%ADD85R,0.0247X0.0144*%
%ADD86R,0.0230X0.0158*%
%ADD87R,0.0095X0.0038*%
%ADD88R,0.0150X0.0200*%
%ADD89R,0.1410X0.0970*%
%ADD90R,0.0180X0.0170*%
%ADD91C,0.0551*%
%ADD92C,0.0660*%
%ADD93C,0.0160*%
%ADD94C,0.0240*%
%ADD95C,0.0140*%
%ADD96C,0.0480*%
%ADD97C,0.0210*%
%ADD98C,0.0410*%
%ADD99R,0.0250X0.0040*%
G04:AMPARAMS|DCode=100|XSize=700mil|YSize=700mil|CornerRadius=350mil|HoleSize=0mil|Usage=FLASHONLY|Rotation=277.000|XOffset=0mil|YOffset=0mil|HoleType=Round|Shape=RoundedRectangle|*
%AMROUNDEDRECTD100*
21,1,0.7000,0.0000,0,0,277.0*
21,1,0.0000,0.7000,0,0,277.0*
1,1,0.7000,0.0000,0.0000*
1,1,0.7000,0.0000,0.0000*
1,1,0.7000,0.0000,0.0000*
1,1,0.7000,0.0000,0.0000*
%
%ADD100ROUNDEDRECTD100*%
G04:AMPARAMS|DCode=101|XSize=200mil|YSize=110mil|CornerRadius=0mil|HoleSize=0mil|Usage=FLASHONLY|Rotation=277.000|XOffset=0mil|YOffset=0mil|HoleType=Round|Shape=Rectangle|*
%AMROTATEDRECTD101*
4,1,4,-0.0668,0.0926,0.0424,0.1060,0.0668,-0.0926,-0.0424,-0.1060,-0.0668,0.0926,0.0*
%
%ADD101ROTATEDRECTD101*%

%ADD102R,0.0600X0.1340*%
%ADD103R,0.0400X0.1380*%
%ADD104R,0.0750X0.0360*%
%ADD105R,0.0360X0.0750*%
%ADD106R,0.0250X0.0580*%
%ADD107C,0.0050*%
%ADD108R,0.0190X0.0130*%
%ADD109C,0.0003*%
%ADD110C,0.0011*%
%ADD111R,0.0280X0.0280*%
%ADD112R,0.0280X0.0280*%
%ADD113C,0.0178*%
%ADD114C,0.0356*%
%ADD115R,0.0316X0.0493*%
%ADD116P,0.0396X4X90.0*%
%ADD117R,0.1020X0.0730*%
%ADD118R,0.0180X0.0350*%
%ADD119R,0.0630X0.0550*%
%ADD120R,0.0240X0.0520*%
G04:AMPARAMS|DCode=121|XSize=28mil|YSize=16mil|CornerRadius=7mil|HoleSize=0mil|Usage=FLASHONLY|Rotation=90.000|XOffset=0mil|YOffset=0mil|HoleType=Round|Shape=RoundedRectangle|*
%AMROUNDEDRECTD121*
21,1,0.0280,0.0020,0,0,90.0*
21,1,0.0140,0.0160,0,0,90.0*
1,1,0.0140,0.0010,0.0070*
1,1,0.0140,0.0010,-0.0070*
1,1,0.0140,-0.0010,-0.0070*
1,1,0.0140,-0.0010,0.0070*
%
%ADD121ROUNDEDRECTD121*%
G04:AMPARAMS|DCode=122|XSize=28mil|YSize=16mil|CornerRadius=7mil|HoleSize=0mil|Usage=FLASHONLY|Rotation=0.000|XOffset=0mil|YOffset=0mil|HoleType=Round|Shape=RoundedRectangle|*
%AMROUNDEDRECTD122*
21,1,0.0280,0.0020,0,0,0.0*
21,1,0.0140,0.0160,0,0,0.0*
1,1,0.0140,0.0070,-0.0010*
1,1,0.0140,-0.0070,-0.0010*
1,1,0.0140,-0.0070,0.0010*
1,1,0.0140,0.0070,0.0010*
%
%ADD122ROUNDEDRECTD122*%
%ADD123R,0.0440X0.0480*%
%ADD124R,0.0420X0.0390*%
%ADD125R,0.0400X0.0360*%
%ADD126R,0.0640X0.0640*%
%ADD127R,0.0560X0.0640*%
%ADD128R,0.0280X0.0480*%
G04:AMPARAMS|DCode=129|XSize=60mil|YSize=71mil|CornerRadius=9.2mil|HoleSize=0mil|Usage=FLASHONLY|Rotation=180.000|XOffset=0mil|YOffset=0mil|HoleType=Round|Shape=RoundedRectangle|*
%AMROUNDEDRECTD129*
21,1,0.0600,0.0526,0,0,180.0*
21,1,0.0416,0.0710,0,0,180.0*
1,1,0.0184,-0.0208,0.0263*
1,1,0.0184,0.0208,0.0263*
1,1,0.0184,0.0208,-0.0263*
1,1,0.0184,-0.0208,-0.0263*
%
%ADD129ROUNDEDRECTD129*%
%ADD130R,0.0480X0.0440*%
%ADD131R,0.0390X0.0420*%
%ADD132R,0.0480X0.0280*%
G04:AMPARAMS|DCode=133|XSize=60mil|YSize=71mil|CornerRadius=9.2mil|HoleSize=0mil|Usage=FLASHONLY|Rotation=315.000|XOffset=0mil|YOffset=0mil|HoleType=Round|Shape=RoundedRectangle|*
%AMROUNDEDRECTD133*
21,1,0.0600,0.0526,0,0,315.0*
21,1,0.0416,0.0710,0,0,315.0*
1,1,0.0184,-0.0039,-0.0333*
1,1,0.0184,-0.0333,-0.0039*
1,1,0.0184,0.0039,0.0333*
1,1,0.0184,0.0333,0.0039*
%
%ADD133ROUNDEDRECTD133*%
G04:AMPARAMS|DCode=134|XSize=60mil|YSize=71mil|CornerRadius=9.2mil|HoleSize=0mil|Usage=FLASHONLY|Rotation=270.000|XOffset=0mil|YOffset=0mil|HoleType=Round|Shape=RoundedRectangle|*
%AMROUNDEDRECTD134*
21,1,0.0600,0.0526,0,0,270.0*
21,1,0.0416,0.0710,0,0,270.0*
1,1,0.0184,-0.0263,-0.0208*
1,1,0.0184,-0.0263,0.0208*
1,1,0.0184,0.0263,0.0208*
1,1,0.0184,0.0263,-0.0208*
%
%ADD134ROUNDEDRECTD134*%
%ADD135R,0.0360X0.0400*%
%ADD136R,0.0180X0.0300*%
G04:AMPARAMS|DCode=137|XSize=30mil|YSize=18mil|CornerRadius=0mil|HoleSize=0mil|Usage=FLASHONLY|Rotation=45.000|XOffset=0mil|YOffset=0mil|HoleType=Round|Shape=Rectangle|*
%AMROTATEDRECTD137*
4,1,4,-0.0042,-0.0170,-0.0170,-0.0042,0.0042,0.0170,0.0170,0.0042,-0.0042,-0.0170,0.0*
%
%ADD137ROTATEDRECTD137*%

%ADD138R,0.1540X0.0560*%
%ADD139R,0.0640X0.0240*%
%ADD140R,0.0830X0.0990*%
%ADD141R,0.0830X0.0790*%
G04:AMPARAMS|DCode=142|XSize=16mil|YSize=36mil|CornerRadius=8mil|HoleSize=0mil|Usage=FLASHONLY|Rotation=270.000|XOffset=0mil|YOffset=0mil|HoleType=Round|Shape=RoundedRectangle|*
%AMROUNDEDRECTD142*
21,1,0.0160,0.0200,0,0,270.0*
21,1,0.0000,0.0360,0,0,270.0*
1,1,0.0160,-0.0100,0.0000*
1,1,0.0160,-0.0100,0.0000*
1,1,0.0160,0.0100,0.0000*
1,1,0.0160,0.0100,0.0000*
%
%ADD142ROUNDEDRECTD142*%
G04:AMPARAMS|DCode=143|XSize=16mil|YSize=36mil|CornerRadius=8mil|HoleSize=0mil|Usage=FLASHONLY|Rotation=180.000|XOffset=0mil|YOffset=0mil|HoleType=Round|Shape=RoundedRectangle|*
%AMROUNDEDRECTD143*
21,1,0.0160,0.0200,0,0,180.0*
21,1,0.0000,0.0360,0,0,180.0*
1,1,0.0160,0.0000,0.0100*
1,1,0.0160,0.0000,0.0100*
1,1,0.0160,0.0000,-0.0100*
1,1,0.0160,0.0000,-0.0100*
%
%ADD143ROUNDEDRECTD143*%
G04:AMPARAMS|DCode=144|XSize=190mil|YSize=190mil|CornerRadius=8.6mil|HoleSize=0mil|Usage=FLASHONLY|Rotation=180.000|XOffset=0mil|YOffset=0mil|HoleType=Round|Shape=RoundedRectangle|*
%AMROUNDEDRECTD144*
21,1,0.1900,0.1729,0,0,180.0*
21,1,0.1729,0.1900,0,0,180.0*
1,1,0.0171,-0.0865,0.0865*
1,1,0.0171,0.0865,0.0865*
1,1,0.0171,0.0865,-0.0865*
1,1,0.0171,-0.0865,-0.0865*
%
%ADD144ROUNDEDRECTD144*%
G04:AMPARAMS|DCode=145|XSize=190mil|YSize=190mil|CornerRadius=8.6mil|HoleSize=0mil|Usage=FLASHONLY|Rotation=135.000|XOffset=0mil|YOffset=0mil|HoleType=Round|Shape=RoundedRectangle|*
%AMROUNDEDRECTD145*
21,1,0.1900,0.1729,0,0,135.0*
21,1,0.1729,0.1900,0,0,135.0*
1,1,0.0171,0.0000,0.1223*
1,1,0.0171,0.1223,0.0000*
1,1,0.0171,0.0000,-0.1223*
1,1,0.0171,-0.1223,0.0000*
%
%ADD145ROUNDEDRECTD145*%
G04:AMPARAMS|DCode=146|XSize=16mil|YSize=36mil|CornerRadius=8mil|HoleSize=0mil|Usage=FLASHONLY|Rotation=135.000|XOffset=0mil|YOffset=0mil|HoleType=Round|Shape=RoundedRectangle|*
%AMROUNDEDRECTD146*
21,1,0.0160,0.0200,0,0,135.0*
21,1,0.0000,0.0360,0,0,135.0*
1,1,0.0160,0.0071,0.0071*
1,1,0.0160,0.0071,0.0071*
1,1,0.0160,-0.0071,-0.0071*
1,1,0.0160,-0.0071,-0.0071*
%
%ADD146ROUNDEDRECTD146*%
G04:AMPARAMS|DCode=147|XSize=16mil|YSize=36mil|CornerRadius=8mil|HoleSize=0mil|Usage=FLASHONLY|Rotation=225.000|XOffset=0mil|YOffset=0mil|HoleType=Round|Shape=RoundedRectangle|*
%AMROUNDEDRECTD147*
21,1,0.0160,0.0200,0,0,225.0*
21,1,0.0000,0.0360,0,0,225.0*
1,1,0.0160,-0.0071,0.0071*
1,1,0.0160,-0.0071,0.0071*
1,1,0.0160,0.0071,-0.0071*
1,1,0.0160,0.0071,-0.0071*
%
%ADD147ROUNDEDRECTD147*%
%ADD148P,0.0396X4X360.0*%
%ADD149R,0.0680X0.1030*%
%ADD150R,0.0320X0.0240*%
G04:AMPARAMS|DCode=151|XSize=22mil|YSize=22mil|CornerRadius=11mil|HoleSize=0mil|Usage=FLASHONLY|Rotation=0.000|XOffset=0mil|YOffset=0mil|HoleType=Round|Shape=RoundedRectangle|*
%AMROUNDEDRECTD151*
21,1,0.0220,0.0000,0,0,0.0*
21,1,0.0000,0.0220,0,0,0.0*
1,1,0.0220,0.0000,0.0000*
1,1,0.0220,0.0000,0.0000*
1,1,0.0220,0.0000,0.0000*
1,1,0.0220,0.0000,0.0000*
%
%ADD151ROUNDEDRECTD151*%
%ADD152R,0.0245X0.0480*%
%ADD153C,0.0551*%
%ADD154R,0.0200X0.0480*%
%ADD155R,0.0560X0.0480*%
%ADD156R,0.0480X0.0560*%
%ADD157R,0.0907X0.0434*%
%ADD158R,0.0434X0.0907*%
G04:AMPARAMS|DCode=159|XSize=108mil|YSize=43mil|CornerRadius=12.8mil|HoleSize=0mil|Usage=FLASHONLY|Rotation=180.000|XOffset=0mil|YOffset=0mil|HoleType=Round|Shape=RoundedRectangle|*
%AMROUNDEDRECTD159*
21,1,0.1080,0.0175,0,0,180.0*
21,1,0.0825,0.0430,0,0,180.0*
1,1,0.0255,-0.0413,0.0088*
1,1,0.0255,0.0413,0.0088*
1,1,0.0255,0.0413,-0.0088*
1,1,0.0255,-0.0413,-0.0088*
%
%ADD159ROUNDEDRECTD159*%
G04:AMPARAMS|DCode=160|XSize=108mil|YSize=43mil|CornerRadius=12.8mil|HoleSize=0mil|Usage=FLASHONLY|Rotation=90.000|XOffset=0mil|YOffset=0mil|HoleType=Round|Shape=RoundedRectangle|*
%AMROUNDEDRECTD160*
21,1,0.1080,0.0175,0,0,90.0*
21,1,0.0825,0.0430,0,0,90.0*
1,1,0.0255,0.0088,0.0413*
1,1,0.0255,0.0088,-0.0413*
1,1,0.0255,-0.0088,-0.0413*
1,1,0.0255,-0.0088,0.0413*
%
%ADD160ROUNDEDRECTD160*%
%ADD161R,0.1030X0.0380*%
%ADD162R,0.0592X0.0946*%
%ADD163R,0.0592X0.0631*%
%ADD164C,0.0631*%
%ADD165C,0.0740*%
%ADD166C,0.0560*%
%ADD167C,0.0290*%
G04:AMPARAMS|DCode=168|XSize=708mil|YSize=708mil|CornerRadius=354mil|HoleSize=0mil|Usage=FLASHONLY|Rotation=277.000|XOffset=0mil|YOffset=0mil|HoleType=Round|Shape=RoundedRectangle|*
%AMROUNDEDRECTD168*
21,1,0.7080,0.0000,0,0,277.0*
21,1,0.0000,0.7080,0,0,277.0*
1,1,0.7080,0.0000,0.0000*
1,1,0.7080,0.0000,0.0000*
1,1,0.7080,0.0000,0.0000*
1,1,0.7080,0.0000,0.0000*
%
%ADD168ROUNDEDRECTD168*%
G04:AMPARAMS|DCode=169|XSize=208mil|YSize=118mil|CornerRadius=0mil|HoleSize=0mil|Usage=FLASHONLY|Rotation=277.000|XOffset=0mil|YOffset=0mil|HoleType=Round|Shape=Rectangle|*
%AMROTATEDRECTD169*
4,1,4,-0.0712,0.0960,0.0459,0.1104,0.0712,-0.0960,-0.0459,-0.1104,-0.0712,0.0960,0.0*
%
%ADD169ROTATEDRECTD169*%

%ADD170R,0.0680X0.1420*%
%ADD171R,0.0480X0.1460*%
%ADD172R,0.0830X0.0440*%
%ADD173R,0.0440X0.0830*%
G36*
X41114Y6208D02*
X41068D01*
X41018Y6394D01*
X40968Y6208D01*
X40921D01*
X40835Y6506D01*
X40894D01*
X40943Y6313D01*
X40998Y6506D01*
X41038D01*
X41092Y6313D01*
X41141Y6506D01*
X41200D01*
X41114Y6208D01*
D02*
G37*
G36*
X41431D02*
X41372D01*
Y6329D01*
X41277D01*
Y6208D01*
X41218D01*
Y6506D01*
X41277D01*
Y6386D01*
X41372D01*
Y6506D01*
X41431D01*
Y6208D01*
D02*
G37*
G36*
X40694D02*
X40636D01*
Y6347D01*
X40559Y6208D01*
X40490D01*
X40564Y6324D01*
X40558Y6325D01*
X40552Y6327D01*
X40542Y6332D01*
X40533Y6337D01*
X40526Y6342D01*
X40520Y6347D01*
X40515Y6351D01*
X40514Y6352D01*
X40513Y6354D01*
X40513Y6354D01*
X40512Y6354D01*
X40509Y6359D01*
X40506Y6364D01*
X40501Y6374D01*
X40498Y6384D01*
X40495Y6393D01*
X40494Y6401D01*
X40493Y6404D01*
Y6407D01*
X40493Y6410D01*
Y6411D01*
Y6413D01*
Y6413D01*
X40493Y6424D01*
X40495Y6433D01*
X40497Y6441D01*
X40500Y6449D01*
X40502Y6455D01*
X40503Y6457D01*
X40504Y6459D01*
X40505Y6461D01*
X40506Y6462D01*
X40506Y6463D01*
Y6463D01*
X40512Y6471D01*
X40518Y6477D01*
X40524Y6483D01*
X40530Y6488D01*
X40536Y6491D01*
X40541Y6494D01*
X40542Y6495D01*
X40544Y6495D01*
X40545Y6496D01*
X40545D01*
X40550Y6498D01*
X40554Y6499D01*
X40559Y6501D01*
X40563Y6502D01*
X40567Y6503D01*
X40570Y6503D01*
X40572Y6504D01*
X40573D01*
X40577Y6504D01*
X40580Y6505D01*
X40588Y6505D01*
X40596Y6506D01*
X40604D01*
X40612Y6506D01*
X40694D01*
Y6208D01*
D02*
G37*
G36*
X40173D02*
X40132D01*
X40025Y6506D01*
X40088D01*
X40153Y6307D01*
X40218Y6506D01*
X40280D01*
X40173Y6208D01*
D02*
G37*
G36*
X27972Y6218D02*
X27919D01*
Y6275D01*
X27972D01*
Y6218D01*
D02*
G37*
G36*
X28199Y6472D02*
X28147D01*
Y6218D01*
X28091D01*
Y6516D01*
X28199D01*
Y6472D01*
D02*
G37*
G36*
X39066Y6511D02*
X39074Y6510D01*
X39081Y6509D01*
X39087Y6507D01*
X39094Y6505D01*
X39099Y6503D01*
X39105Y6500D01*
X39110Y6498D01*
X39114Y6495D01*
X39118Y6493D01*
X39121Y6490D01*
X39123Y6488D01*
X39126Y6486D01*
X39127Y6485D01*
X39128Y6484D01*
X39128Y6483D01*
X39133Y6478D01*
X39137Y6472D01*
X39141Y6466D01*
X39144Y6460D01*
X39146Y6454D01*
X39148Y6448D01*
X39152Y6436D01*
X39153Y6431D01*
X39154Y6426D01*
X39154Y6421D01*
X39155Y6417D01*
X39155Y6414D01*
Y6411D01*
Y6410D01*
Y6409D01*
Y6409D01*
X39096D01*
Y6414D01*
X39096Y6421D01*
X39095Y6428D01*
X39094Y6433D01*
X39091Y6438D01*
X39090Y6442D01*
X39089Y6444D01*
X39087Y6446D01*
X39087Y6446D01*
X39083Y6451D01*
X39078Y6453D01*
X39074Y6456D01*
X39069Y6457D01*
X39065Y6458D01*
X39062Y6458D01*
X39059D01*
X39053Y6458D01*
X39047Y6457D01*
X39043Y6455D01*
X39039Y6453D01*
X39035Y6451D01*
X39033Y6449D01*
X39032Y6448D01*
X39031Y6447D01*
X39027Y6443D01*
X39025Y6438D01*
X39023Y6434D01*
X39022Y6429D01*
X39021Y6426D01*
X39020Y6423D01*
Y6421D01*
Y6420D01*
X39021Y6415D01*
X39022Y6410D01*
X39023Y6406D01*
X39024Y6401D01*
X39026Y6398D01*
X39027Y6395D01*
X39028Y6394D01*
X39028Y6393D01*
X39032Y6388D01*
X39035Y6383D01*
X39039Y6378D01*
X39043Y6374D01*
X39046Y6370D01*
X39049Y6367D01*
X39051Y6366D01*
X39052Y6365D01*
X39159Y6264D01*
Y6208D01*
X38963D01*
Y6262D01*
X39089D01*
X39006Y6337D01*
X38998Y6345D01*
X38992Y6352D01*
X38986Y6359D01*
X38981Y6365D01*
X38977Y6370D01*
X38975Y6374D01*
X38974Y6376D01*
X38973Y6377D01*
X38973Y6377D01*
Y6378D01*
X38969Y6385D01*
X38966Y6393D01*
X38965Y6400D01*
X38963Y6406D01*
X38962Y6411D01*
X38962Y6416D01*
Y6417D01*
Y6419D01*
Y6419D01*
Y6419D01*
X38962Y6426D01*
X38963Y6433D01*
X38964Y6440D01*
X38966Y6446D01*
X38970Y6457D01*
X38973Y6462D01*
X38975Y6466D01*
X38978Y6471D01*
X38981Y6474D01*
X38983Y6477D01*
X38985Y6480D01*
X38987Y6482D01*
X38988Y6483D01*
X38989Y6484D01*
X38990Y6485D01*
X38995Y6489D01*
X39000Y6493D01*
X39006Y6497D01*
X39012Y6500D01*
X39017Y6503D01*
X39023Y6505D01*
X39034Y6508D01*
X39039Y6510D01*
X39043Y6510D01*
X39047Y6511D01*
X39051Y6511D01*
X39054Y6512D01*
X39058D01*
X39066Y6511D01*
D02*
G37*
G36*
X27773Y6522D02*
X27783Y6520D01*
X27791Y6519D01*
X27798Y6517D01*
X27804Y6515D01*
X27809Y6514D01*
X27810Y6513D01*
X27811Y6513D01*
X27812Y6512D01*
X27812D01*
X27820Y6508D01*
X27827Y6503D01*
X27833Y6498D01*
X27838Y6493D01*
X27843Y6489D01*
X27846Y6485D01*
X27848Y6483D01*
X27849Y6483D01*
Y6482D01*
X27852Y6478D01*
X27855Y6473D01*
X27858Y6468D01*
X27860Y6463D01*
X27861Y6460D01*
X27862Y6457D01*
X27863Y6455D01*
X27863Y6454D01*
X27864Y6448D01*
X27866Y6441D01*
X27866Y6434D01*
X27867Y6428D01*
Y6421D01*
X27867Y6416D01*
Y6414D01*
Y6413D01*
Y6412D01*
Y6412D01*
Y6323D01*
Y6314D01*
X27866Y6305D01*
X27866Y6298D01*
X27865Y6292D01*
X27864Y6287D01*
X27864Y6284D01*
X27863Y6282D01*
Y6281D01*
X27861Y6275D01*
X27859Y6270D01*
X27857Y6265D01*
X27855Y6261D01*
X27853Y6258D01*
X27851Y6255D01*
X27850Y6253D01*
X27850Y6253D01*
X27843Y6246D01*
X27837Y6240D01*
X27831Y6235D01*
X27824Y6230D01*
X27819Y6227D01*
X27815Y6225D01*
X27814Y6224D01*
X27812Y6223D01*
X27812Y6223D01*
X27811D01*
X27803Y6219D01*
X27794Y6217D01*
X27787Y6215D01*
X27779Y6214D01*
X27773Y6213D01*
X27770D01*
X27768Y6213D01*
X27763D01*
X27753Y6213D01*
X27744Y6214D01*
X27735Y6216D01*
X27728Y6218D01*
X27722Y6219D01*
X27718Y6221D01*
X27716Y6221D01*
X27715Y6222D01*
X27715Y6222D01*
X27714D01*
X27707Y6226D01*
X27700Y6231D01*
X27693Y6236D01*
X27688Y6240D01*
X27683Y6245D01*
X27680Y6248D01*
X27678Y6251D01*
X27678Y6251D01*
Y6252D01*
X27674Y6257D01*
X27671Y6261D01*
X27669Y6266D01*
X27667Y6270D01*
X27665Y6274D01*
X27664Y6277D01*
X27663Y6279D01*
Y6280D01*
X27662Y6286D01*
X27661Y6293D01*
X27660Y6300D01*
X27659Y6307D01*
Y6313D01*
X27659Y6318D01*
Y6320D01*
Y6321D01*
Y6322D01*
Y6322D01*
Y6411D01*
Y6420D01*
X27660Y6429D01*
X27660Y6436D01*
X27661Y6442D01*
X27662Y6446D01*
X27663Y6450D01*
X27663Y6452D01*
X27663Y6453D01*
X27665Y6459D01*
X27667Y6465D01*
X27669Y6469D01*
X27672Y6473D01*
X27673Y6477D01*
X27675Y6479D01*
X27676Y6481D01*
X27677Y6481D01*
X27683Y6488D01*
X27690Y6495D01*
X27696Y6500D01*
X27702Y6504D01*
X27707Y6508D01*
X27711Y6510D01*
X27713Y6510D01*
X27714Y6511D01*
X27715Y6512D01*
X27715D01*
X27723Y6515D01*
X27732Y6518D01*
X27740Y6520D01*
X27747Y6521D01*
X27754Y6522D01*
X27757D01*
X27759Y6522D01*
X27763D01*
X27773Y6522D01*
D02*
G37*
G36*
X40456Y6208D02*
X40295D01*
Y6261D01*
X40398D01*
Y6334D01*
X40295D01*
Y6386D01*
X40398D01*
Y6454D01*
X40295D01*
Y6506D01*
X40456D01*
Y6208D01*
D02*
G37*
G36*
X9253Y8465D02*
X9201D01*
Y8521D01*
X9253D01*
Y8465D01*
D02*
G37*
G36*
X9740D02*
X9688D01*
Y8521D01*
X9740D01*
Y8465D01*
D02*
G37*
G36*
X8636Y8406D02*
X8642Y8404D01*
X8648Y8403D01*
X8658Y8398D01*
X8667Y8393D01*
X8674Y8388D01*
X8680Y8383D01*
X8684Y8379D01*
X8685Y8377D01*
X8687Y8376D01*
X8687Y8376D01*
X8688Y8375D01*
X8691Y8371D01*
X8694Y8366D01*
X8699Y8356D01*
X8702Y8346D01*
X8704Y8337D01*
X8706Y8329D01*
X8706Y8325D01*
Y8322D01*
X8707Y8320D01*
Y8318D01*
Y8317D01*
Y8317D01*
X8706Y8306D01*
X8705Y8297D01*
X8702Y8288D01*
X8700Y8281D01*
X8697Y8275D01*
X8696Y8272D01*
X8695Y8270D01*
X8695Y8269D01*
X8694Y8267D01*
X8693Y8267D01*
Y8267D01*
X8688Y8259D01*
X8682Y8252D01*
X8675Y8247D01*
X8669Y8242D01*
X8663Y8239D01*
X8659Y8236D01*
X8657Y8235D01*
X8656Y8234D01*
X8655Y8234D01*
X8655D01*
X8650Y8232D01*
X8645Y8230D01*
X8640Y8229D01*
X8636Y8228D01*
X8632Y8227D01*
X8629Y8226D01*
X8627Y8226D01*
X8626D01*
X8623Y8225D01*
X8620Y8225D01*
X8612Y8224D01*
X8603Y8224D01*
X8595D01*
X8588Y8223D01*
X8506D01*
Y8521D01*
X8564D01*
Y8383D01*
X8640Y8521D01*
X8710D01*
X8636Y8406D01*
D02*
G37*
G36*
X7981Y8223D02*
X7923D01*
Y8344D01*
X7827D01*
Y8223D01*
X7769D01*
Y8521D01*
X7827D01*
Y8400D01*
X7923D01*
Y8521D01*
X7981D01*
Y8223D01*
D02*
G37*
G36*
X39739Y6462D02*
X39687D01*
Y6208D01*
X39631D01*
Y6506D01*
X39739D01*
Y6462D01*
D02*
G37*
G36*
X39999Y6208D02*
X39946D01*
Y6265D01*
X39999D01*
Y6208D01*
D02*
G37*
G36*
X39313Y6512D02*
X39323Y6510D01*
X39331Y6509D01*
X39338Y6507D01*
X39344Y6505D01*
X39349Y6504D01*
X39350Y6503D01*
X39351Y6503D01*
X39352Y6502D01*
X39352D01*
X39360Y6498D01*
X39367Y6493D01*
X39373Y6488D01*
X39378Y6483D01*
X39383Y6479D01*
X39386Y6475D01*
X39388Y6473D01*
X39389Y6473D01*
Y6472D01*
X39392Y6468D01*
X39395Y6463D01*
X39398Y6458D01*
X39400Y6453D01*
X39401Y6450D01*
X39402Y6447D01*
X39403Y6445D01*
X39403Y6444D01*
X39404Y6438D01*
X39406Y6431D01*
X39406Y6424D01*
X39407Y6418D01*
Y6411D01*
X39407Y6406D01*
Y6404D01*
Y6403D01*
Y6402D01*
Y6402D01*
Y6313D01*
Y6304D01*
X39406Y6295D01*
X39406Y6288D01*
X39405Y6282D01*
X39404Y6277D01*
X39404Y6274D01*
X39403Y6272D01*
Y6271D01*
X39401Y6265D01*
X39399Y6260D01*
X39397Y6255D01*
X39395Y6251D01*
X39393Y6248D01*
X39391Y6245D01*
X39390Y6243D01*
X39390Y6243D01*
X39383Y6236D01*
X39377Y6230D01*
X39371Y6225D01*
X39364Y6220D01*
X39359Y6217D01*
X39355Y6215D01*
X39354Y6214D01*
X39352Y6213D01*
X39352Y6213D01*
X39351D01*
X39343Y6209D01*
X39334Y6207D01*
X39327Y6205D01*
X39319Y6204D01*
X39313Y6203D01*
X39310D01*
X39308Y6203D01*
X39303D01*
X39293Y6203D01*
X39284Y6204D01*
X39275Y6206D01*
X39268Y6208D01*
X39262Y6209D01*
X39258Y6211D01*
X39256Y6211D01*
X39255Y6212D01*
X39255Y6212D01*
X39254D01*
X39247Y6216D01*
X39240Y6221D01*
X39233Y6226D01*
X39228Y6230D01*
X39223Y6235D01*
X39220Y6238D01*
X39218Y6241D01*
X39218Y6241D01*
Y6242D01*
X39214Y6247D01*
X39211Y6251D01*
X39209Y6256D01*
X39207Y6260D01*
X39205Y6264D01*
X39204Y6267D01*
X39203Y6269D01*
Y6270D01*
X39202Y6276D01*
X39201Y6283D01*
X39200Y6290D01*
X39199Y6297D01*
Y6303D01*
X39199Y6308D01*
Y6310D01*
Y6311D01*
Y6312D01*
Y6312D01*
Y6401D01*
Y6410D01*
X39200Y6419D01*
X39200Y6426D01*
X39201Y6432D01*
X39202Y6436D01*
X39203Y6440D01*
X39203Y6442D01*
X39203Y6443D01*
X39205Y6449D01*
X39207Y6455D01*
X39209Y6459D01*
X39212Y6463D01*
X39213Y6467D01*
X39215Y6469D01*
X39216Y6471D01*
X39217Y6471D01*
X39223Y6478D01*
X39230Y6485D01*
X39236Y6490D01*
X39242Y6494D01*
X39247Y6498D01*
X39251Y6500D01*
X39253Y6500D01*
X39254Y6501D01*
X39255Y6502D01*
X39255D01*
X39263Y6505D01*
X39272Y6508D01*
X39280Y6510D01*
X39287Y6511D01*
X39294Y6512D01*
X39297D01*
X39299Y6512D01*
X39303D01*
X39313Y6512D01*
D02*
G37*
G36*
X39512Y6208D02*
X39459D01*
Y6265D01*
X39512D01*
Y6208D01*
D02*
G37*
G36*
X28459Y6218D02*
X28406D01*
Y6275D01*
X28459D01*
Y6218D01*
D02*
G37*
G36*
X17644Y6208D02*
X17586D01*
Y6347D01*
X17509Y6208D01*
X17440D01*
X17514Y6324D01*
X17508Y6325D01*
X17502Y6327D01*
X17492Y6332D01*
X17483Y6337D01*
X17476Y6342D01*
X17470Y6347D01*
X17465Y6351D01*
X17464Y6352D01*
X17463Y6354D01*
X17463Y6354D01*
X17462Y6354D01*
X17459Y6359D01*
X17456Y6364D01*
X17451Y6374D01*
X17448Y6384D01*
X17445Y6393D01*
X17444Y6401D01*
X17443Y6404D01*
Y6407D01*
X17443Y6410D01*
Y6411D01*
Y6413D01*
Y6413D01*
X17443Y6424D01*
X17445Y6433D01*
X17447Y6441D01*
X17450Y6449D01*
X17452Y6455D01*
X17453Y6457D01*
X17454Y6459D01*
X17455Y6461D01*
X17456Y6462D01*
X17456Y6463D01*
Y6463D01*
X17462Y6471D01*
X17468Y6477D01*
X17474Y6483D01*
X17480Y6488D01*
X17486Y6491D01*
X17491Y6494D01*
X17492Y6495D01*
X17494Y6495D01*
X17495Y6496D01*
X17495D01*
X17500Y6498D01*
X17504Y6499D01*
X17509Y6501D01*
X17513Y6502D01*
X17517Y6503D01*
X17520Y6503D01*
X17522Y6504D01*
X17523D01*
X17527Y6504D01*
X17530Y6505D01*
X17538Y6505D01*
X17546Y6506D01*
X17554D01*
X17562Y6506D01*
X17644D01*
Y6208D01*
D02*
G37*
G36*
X17123D02*
X17082D01*
X16975Y6506D01*
X17038D01*
X17103Y6307D01*
X17168Y6506D01*
X17230D01*
X17123Y6208D01*
D02*
G37*
G36*
X16949D02*
X16896D01*
Y6265D01*
X16949D01*
Y6208D01*
D02*
G37*
G36*
X17406D02*
X17245D01*
Y6261D01*
X17348D01*
Y6334D01*
X17245D01*
Y6386D01*
X17348D01*
Y6454D01*
X17245D01*
Y6506D01*
X17406D01*
Y6208D01*
D02*
G37*
G36*
X16016Y6511D02*
X16024Y6510D01*
X16031Y6509D01*
X16037Y6507D01*
X16044Y6505D01*
X16049Y6503D01*
X16055Y6500D01*
X16060Y6498D01*
X16064Y6495D01*
X16068Y6493D01*
X16071Y6490D01*
X16073Y6488D01*
X16076Y6486D01*
X16077Y6485D01*
X16078Y6484D01*
X16078Y6483D01*
X16083Y6478D01*
X16087Y6472D01*
X16091Y6466D01*
X16094Y6460D01*
X16096Y6454D01*
X16098Y6448D01*
X16102Y6436D01*
X16103Y6431D01*
X16104Y6426D01*
X16104Y6421D01*
X16105Y6417D01*
X16105Y6414D01*
Y6411D01*
Y6410D01*
Y6409D01*
Y6409D01*
X16046D01*
Y6414D01*
X16046Y6421D01*
X16045Y6428D01*
X16044Y6433D01*
X16041Y6438D01*
X16040Y6442D01*
X16039Y6444D01*
X16037Y6446D01*
X16037Y6446D01*
X16033Y6451D01*
X16028Y6453D01*
X16024Y6456D01*
X16019Y6457D01*
X16015Y6458D01*
X16012Y6458D01*
X16009D01*
X16003Y6458D01*
X15997Y6457D01*
X15993Y6455D01*
X15989Y6453D01*
X15985Y6451D01*
X15983Y6449D01*
X15982Y6448D01*
X15981Y6447D01*
X15977Y6443D01*
X15975Y6438D01*
X15973Y6434D01*
X15972Y6429D01*
X15971Y6426D01*
X15970Y6423D01*
Y6421D01*
Y6420D01*
X15971Y6415D01*
X15972Y6410D01*
X15973Y6406D01*
X15974Y6401D01*
X15976Y6398D01*
X15977Y6395D01*
X15978Y6394D01*
X15978Y6393D01*
X15982Y6388D01*
X15985Y6383D01*
X15989Y6378D01*
X15993Y6374D01*
X15996Y6370D01*
X15999Y6367D01*
X16001Y6366D01*
X16002Y6365D01*
X16109Y6264D01*
Y6208D01*
X15913D01*
Y6262D01*
X16039D01*
X15956Y6337D01*
X15948Y6345D01*
X15942Y6352D01*
X15936Y6359D01*
X15931Y6365D01*
X15927Y6370D01*
X15925Y6374D01*
X15924Y6376D01*
X15923Y6377D01*
X15923Y6377D01*
Y6378D01*
X15919Y6385D01*
X15916Y6393D01*
X15915Y6400D01*
X15913Y6406D01*
X15912Y6411D01*
X15912Y6416D01*
Y6417D01*
Y6419D01*
Y6419D01*
Y6419D01*
X15912Y6426D01*
X15913Y6433D01*
X15914Y6440D01*
X15916Y6446D01*
X15920Y6457D01*
X15923Y6462D01*
X15925Y6466D01*
X15928Y6471D01*
X15931Y6474D01*
X15933Y6477D01*
X15935Y6480D01*
X15937Y6482D01*
X15938Y6483D01*
X15939Y6484D01*
X15940Y6485D01*
X15945Y6489D01*
X15950Y6493D01*
X15956Y6497D01*
X15962Y6500D01*
X15967Y6503D01*
X15973Y6505D01*
X15984Y6508D01*
X15989Y6510D01*
X15993Y6510D01*
X15997Y6511D01*
X16001Y6511D01*
X16004Y6512D01*
X16008D01*
X16016Y6511D01*
D02*
G37*
G36*
X39970Y8050D02*
X40010D01*
X40016Y8050D01*
X40022Y8049D01*
X40027Y8049D01*
X40032Y8048D01*
X40036Y8047D01*
X40040Y8045D01*
X40043Y8044D01*
X40046Y8043D01*
X40049Y8042D01*
X40051Y8040D01*
X40053Y8039D01*
X40055Y8038D01*
X40056Y8037D01*
X40056Y8036D01*
X40057Y8036D01*
X40057Y8036D01*
X40059Y8033D01*
X40061Y8030D01*
X40063Y8027D01*
X40065Y8024D01*
X40066Y8021D01*
X40067Y8019D01*
X40069Y8013D01*
X40069Y8011D01*
X40070Y8009D01*
X40070Y8006D01*
X40070Y8005D01*
X40070Y8003D01*
Y8002D01*
Y8001D01*
Y8001D01*
X40070Y7997D01*
X40069Y7993D01*
X40069Y7989D01*
X40068Y7986D01*
X40067Y7983D01*
X40066Y7981D01*
X40066Y7980D01*
X40065Y7980D01*
X40065Y7980D01*
Y7979D01*
X40063Y7976D01*
X40061Y7973D01*
X40059Y7970D01*
X40057Y7968D01*
X40055Y7966D01*
X40054Y7965D01*
X40053Y7964D01*
X40052Y7964D01*
X40049Y7962D01*
X40046Y7961D01*
X40043Y7959D01*
X40040Y7958D01*
X40037Y7957D01*
X40035Y7957D01*
X40034Y7957D01*
X40033Y7957D01*
X40033D01*
X40029Y7956D01*
X40025Y7956D01*
X40021Y7955D01*
X40018Y7955D01*
X40014Y7955D01*
X39948D01*
Y8115D01*
X39970D01*
Y8050D01*
D02*
G37*
G36*
X18064Y6208D02*
X18018D01*
X17968Y6394D01*
X17918Y6208D01*
X17871D01*
X17785Y6506D01*
X17844D01*
X17893Y6313D01*
X17948Y6506D01*
X17988D01*
X18042Y6313D01*
X18091Y6506D01*
X18150D01*
X18064Y6208D01*
D02*
G37*
G36*
X18381D02*
X18322D01*
Y6329D01*
X18227D01*
Y6208D01*
X18168D01*
Y6506D01*
X18227D01*
Y6386D01*
X18322D01*
Y6506D01*
X18381D01*
Y6208D01*
D02*
G37*
G36*
X16689Y6462D02*
X16637D01*
Y6208D01*
X16581D01*
Y6506D01*
X16689D01*
Y6462D01*
D02*
G37*
G36*
X28633Y6218D02*
X28592D01*
X28485Y6516D01*
X28548D01*
X28613Y6317D01*
X28678Y6516D01*
X28740D01*
X28633Y6218D01*
D02*
G37*
G36*
X29574D02*
X29528D01*
X29478Y6404D01*
X29428Y6218D01*
X29381D01*
X29295Y6516D01*
X29354D01*
X29403Y6323D01*
X29458Y6516D01*
X29498D01*
X29552Y6323D01*
X29601Y6516D01*
X29660D01*
X29574Y6218D01*
D02*
G37*
G36*
X28916D02*
X28755D01*
Y6271D01*
X28858D01*
Y6344D01*
X28755D01*
Y6396D01*
X28858D01*
Y6464D01*
X28755D01*
Y6516D01*
X28916D01*
Y6218D01*
D02*
G37*
G36*
X29154D02*
X29096D01*
Y6357D01*
X29019Y6218D01*
X28950D01*
X29024Y6334D01*
X29018Y6335D01*
X29012Y6337D01*
X29002Y6342D01*
X28993Y6347D01*
X28986Y6352D01*
X28980Y6357D01*
X28975Y6361D01*
X28974Y6362D01*
X28973Y6364D01*
X28973Y6364D01*
X28972Y6364D01*
X28969Y6369D01*
X28966Y6374D01*
X28961Y6384D01*
X28958Y6394D01*
X28955Y6403D01*
X28954Y6411D01*
X28953Y6414D01*
Y6417D01*
X28953Y6420D01*
Y6421D01*
Y6423D01*
Y6423D01*
X28953Y6434D01*
X28955Y6443D01*
X28957Y6451D01*
X28960Y6459D01*
X28962Y6465D01*
X28963Y6467D01*
X28964Y6469D01*
X28965Y6471D01*
X28966Y6472D01*
X28966Y6473D01*
Y6473D01*
X28972Y6481D01*
X28978Y6487D01*
X28984Y6493D01*
X28990Y6498D01*
X28996Y6501D01*
X29001Y6504D01*
X29002Y6505D01*
X29004Y6505D01*
X29005Y6506D01*
X29005D01*
X29010Y6508D01*
X29014Y6509D01*
X29019Y6511D01*
X29023Y6512D01*
X29027Y6513D01*
X29030Y6513D01*
X29032Y6514D01*
X29033D01*
X29037Y6514D01*
X29040Y6515D01*
X29048Y6515D01*
X29056Y6516D01*
X29064D01*
X29072Y6516D01*
X29154D01*
Y6218D01*
D02*
G37*
G36*
X16263Y6512D02*
X16273Y6510D01*
X16281Y6509D01*
X16288Y6507D01*
X16294Y6505D01*
X16299Y6504D01*
X16300Y6503D01*
X16301Y6503D01*
X16302Y6502D01*
X16302D01*
X16310Y6498D01*
X16317Y6493D01*
X16323Y6488D01*
X16329Y6483D01*
X16333Y6479D01*
X16336Y6475D01*
X16338Y6473D01*
X16339Y6473D01*
Y6472D01*
X16342Y6468D01*
X16345Y6463D01*
X16348Y6458D01*
X16350Y6453D01*
X16351Y6450D01*
X16352Y6447D01*
X16353Y6445D01*
X16353Y6444D01*
X16354Y6438D01*
X16356Y6431D01*
X16356Y6424D01*
X16357Y6418D01*
Y6411D01*
X16357Y6406D01*
Y6404D01*
Y6403D01*
Y6402D01*
Y6402D01*
Y6313D01*
Y6304D01*
X16356Y6295D01*
X16356Y6288D01*
X16355Y6282D01*
X16354Y6277D01*
X16354Y6274D01*
X16353Y6272D01*
Y6271D01*
X16351Y6265D01*
X16349Y6260D01*
X16347Y6255D01*
X16345Y6251D01*
X16343Y6248D01*
X16341Y6245D01*
X16340Y6243D01*
X16340Y6243D01*
X16333Y6236D01*
X16327Y6230D01*
X16321Y6225D01*
X16314Y6220D01*
X16309Y6217D01*
X16305Y6215D01*
X16304Y6214D01*
X16302Y6213D01*
X16302Y6213D01*
X16301D01*
X16293Y6209D01*
X16284Y6207D01*
X16277Y6205D01*
X16269Y6204D01*
X16263Y6203D01*
X16260D01*
X16258Y6203D01*
X16253D01*
X16243Y6203D01*
X16234Y6204D01*
X16225Y6206D01*
X16218Y6208D01*
X16212Y6209D01*
X16208Y6211D01*
X16206Y6211D01*
X16205Y6212D01*
X16205Y6212D01*
X16204D01*
X16197Y6216D01*
X16190Y6221D01*
X16183Y6226D01*
X16178Y6230D01*
X16173Y6235D01*
X16170Y6238D01*
X16168Y6241D01*
X16168Y6241D01*
Y6242D01*
X16164Y6247D01*
X16161Y6251D01*
X16159Y6256D01*
X16157Y6260D01*
X16155Y6264D01*
X16154Y6267D01*
X16153Y6269D01*
Y6270D01*
X16152Y6276D01*
X16151Y6283D01*
X16150Y6290D01*
X16149Y6297D01*
Y6303D01*
X16149Y6308D01*
Y6310D01*
Y6311D01*
Y6312D01*
Y6312D01*
Y6401D01*
Y6410D01*
X16150Y6419D01*
X16150Y6426D01*
X16151Y6432D01*
X16152Y6436D01*
X16153Y6440D01*
X16153Y6442D01*
X16153Y6443D01*
X16155Y6449D01*
X16157Y6455D01*
X16159Y6459D01*
X16162Y6463D01*
X16163Y6467D01*
X16165Y6469D01*
X16166Y6471D01*
X16167Y6471D01*
X16173Y6478D01*
X16180Y6485D01*
X16186Y6490D01*
X16192Y6494D01*
X16197Y6498D01*
X16201Y6500D01*
X16203Y6500D01*
X16204Y6501D01*
X16205Y6502D01*
X16205D01*
X16213Y6505D01*
X16222Y6508D01*
X16230Y6510D01*
X16237Y6511D01*
X16244Y6512D01*
X16247D01*
X16249Y6512D01*
X16253D01*
X16263Y6512D01*
D02*
G37*
G36*
X16462Y6208D02*
X16409D01*
Y6265D01*
X16462D01*
Y6208D01*
D02*
G37*
G36*
X29891Y6218D02*
X29832D01*
Y6339D01*
X29737D01*
Y6218D01*
X29678D01*
Y6516D01*
X29737D01*
Y6396D01*
X29832D01*
Y6516D01*
X29891D01*
Y6218D01*
D02*
G37*
G36*
X27526Y6521D02*
X27534Y6520D01*
X27541Y6519D01*
X27547Y6517D01*
X27554Y6515D01*
X27559Y6513D01*
X27565Y6510D01*
X27570Y6508D01*
X27574Y6505D01*
X27578Y6503D01*
X27581Y6500D01*
X27583Y6498D01*
X27586Y6496D01*
X27587Y6495D01*
X27588Y6494D01*
X27588Y6493D01*
X27593Y6488D01*
X27597Y6482D01*
X27601Y6476D01*
X27604Y6470D01*
X27606Y6464D01*
X27608Y6458D01*
X27612Y6446D01*
X27613Y6441D01*
X27614Y6436D01*
X27614Y6431D01*
X27615Y6427D01*
X27615Y6424D01*
Y6421D01*
Y6420D01*
Y6419D01*
Y6419D01*
X27556D01*
Y6424D01*
X27556Y6431D01*
X27555Y6438D01*
X27554Y6443D01*
X27551Y6448D01*
X27550Y6452D01*
X27549Y6454D01*
X27547Y6456D01*
X27547Y6456D01*
X27543Y6461D01*
X27538Y6463D01*
X27534Y6466D01*
X27529Y6467D01*
X27525Y6468D01*
X27522Y6468D01*
X27519D01*
X27513Y6468D01*
X27507Y6467D01*
X27503Y6465D01*
X27499Y6463D01*
X27495Y6461D01*
X27493Y6459D01*
X27492Y6458D01*
X27491Y6457D01*
X27487Y6453D01*
X27485Y6448D01*
X27483Y6444D01*
X27482Y6439D01*
X27481Y6436D01*
X27480Y6433D01*
Y6431D01*
Y6430D01*
X27481Y6425D01*
X27482Y6420D01*
X27483Y6416D01*
X27484Y6411D01*
X27486Y6408D01*
X27487Y6405D01*
X27488Y6404D01*
X27488Y6403D01*
X27492Y6398D01*
X27495Y6393D01*
X27499Y6388D01*
X27503Y6384D01*
X27506Y6380D01*
X27509Y6377D01*
X27511Y6376D01*
X27512Y6375D01*
X27619Y6274D01*
Y6218D01*
X27423D01*
Y6272D01*
X27549D01*
X27466Y6347D01*
X27458Y6355D01*
X27452Y6362D01*
X27446Y6369D01*
X27441Y6375D01*
X27437Y6380D01*
X27435Y6384D01*
X27434Y6386D01*
X27433Y6387D01*
X27433Y6387D01*
Y6388D01*
X27429Y6395D01*
X27426Y6403D01*
X27425Y6410D01*
X27423Y6416D01*
X27422Y6421D01*
X27422Y6426D01*
Y6427D01*
Y6429D01*
Y6429D01*
Y6429D01*
X27422Y6436D01*
X27423Y6443D01*
X27424Y6450D01*
X27426Y6456D01*
X27430Y6467D01*
X27433Y6472D01*
X27435Y6476D01*
X27438Y6481D01*
X27441Y6484D01*
X27443Y6487D01*
X27445Y6490D01*
X27447Y6492D01*
X27448Y6493D01*
X27449Y6494D01*
X27450Y6495D01*
X27455Y6499D01*
X27460Y6503D01*
X27466Y6507D01*
X27472Y6510D01*
X27477Y6513D01*
X27483Y6515D01*
X27494Y6518D01*
X27499Y6520D01*
X27503Y6520D01*
X27507Y6521D01*
X27511Y6521D01*
X27514Y6522D01*
X27518D01*
X27526Y6521D01*
D02*
G37*
G36*
X8365Y8223D02*
X8305D01*
X8256Y8417D01*
X8202Y8223D01*
X8162D01*
X8108Y8417D01*
X8059Y8223D01*
X7999D01*
X8086Y8521D01*
X8132D01*
X8182Y8335D01*
X8232Y8521D01*
X8279D01*
X8365Y8223D01*
D02*
G37*
G36*
X31935Y8429D02*
X31832D01*
Y8355D01*
X31935D01*
Y8304D01*
X31832D01*
Y8236D01*
X31935D01*
Y8183D01*
X31774D01*
Y8481D01*
X31935D01*
Y8429D01*
D02*
G37*
G36*
X32204Y8183D02*
X32142D01*
X32077Y8382D01*
X32012Y8183D01*
X31950D01*
X32056Y8481D01*
X32098D01*
X32204Y8183D01*
D02*
G37*
G36*
X4656Y151D02*
X4664Y150D01*
X4671Y149D01*
X4677Y147D01*
X4684Y145D01*
X4689Y143D01*
X4695Y140D01*
X4700Y138D01*
X4704Y135D01*
X4708Y133D01*
X4711Y130D01*
X4713Y128D01*
X4716Y126D01*
X4717Y125D01*
X4718Y124D01*
X4718Y123D01*
X4723Y118D01*
X4727Y112D01*
X4731Y106D01*
X4734Y100D01*
X4736Y94D01*
X4738Y88D01*
X4742Y76D01*
X4743Y71D01*
X4744Y66D01*
X4744Y61D01*
X4745Y57D01*
X4745Y54D01*
Y51D01*
Y50D01*
Y49D01*
Y49D01*
X4686D01*
Y54D01*
X4686Y61D01*
X4685Y68D01*
X4684Y73D01*
X4681Y78D01*
X4680Y82D01*
X4679Y84D01*
X4677Y86D01*
X4677Y86D01*
X4673Y91D01*
X4668Y93D01*
X4664Y96D01*
X4659Y97D01*
X4655Y98D01*
X4652Y98D01*
X4649D01*
X4643Y98D01*
X4637Y97D01*
X4633Y95D01*
X4629Y93D01*
X4625Y91D01*
X4623Y89D01*
X4622Y88D01*
X4621Y87D01*
X4617Y83D01*
X4615Y78D01*
X4613Y74D01*
X4612Y69D01*
X4611Y66D01*
X4610Y63D01*
Y61D01*
Y60D01*
X4611Y55D01*
X4612Y50D01*
X4613Y46D01*
X4614Y41D01*
X4616Y38D01*
X4617Y35D01*
X4618Y34D01*
X4618Y33D01*
X4622Y28D01*
X4625Y23D01*
X4629Y18D01*
X4633Y14D01*
X4636Y10D01*
X4639Y7D01*
X4641Y6D01*
X4642Y5D01*
X4749Y-96D01*
Y-152D01*
X4553D01*
Y-98D01*
X4679D01*
X4596Y-23D01*
X4588Y-15D01*
X4582Y-8D01*
X4576Y-1D01*
X4571Y5D01*
X4567Y10D01*
X4565Y14D01*
X4564Y16D01*
X4563Y17D01*
X4563Y17D01*
Y18D01*
X4559Y25D01*
X4556Y33D01*
X4555Y40D01*
X4553Y46D01*
X4552Y51D01*
X4552Y56D01*
Y57D01*
Y59D01*
Y59D01*
Y59D01*
X4552Y66D01*
X4553Y73D01*
X4554Y80D01*
X4556Y86D01*
X4560Y97D01*
X4563Y102D01*
X4565Y106D01*
X4568Y111D01*
X4571Y114D01*
X4573Y117D01*
X4575Y120D01*
X4577Y122D01*
X4578Y123D01*
X4579Y124D01*
X4580Y125D01*
X4585Y129D01*
X4590Y133D01*
X4596Y137D01*
X4602Y140D01*
X4607Y143D01*
X4613Y145D01*
X4624Y148D01*
X4629Y150D01*
X4633Y150D01*
X4637Y151D01*
X4641Y151D01*
X4644Y152D01*
X4648D01*
X4656Y151D01*
D02*
G37*
G36*
X32936Y8487D02*
X32946Y8485D01*
X32954Y8484D01*
X32961Y8482D01*
X32967Y8480D01*
X32972Y8479D01*
X32973Y8478D01*
X32975Y8478D01*
X32975Y8477D01*
X32975D01*
X32983Y8473D01*
X32990Y8469D01*
X32996Y8464D01*
X33002Y8459D01*
X33006Y8455D01*
X33009Y8451D01*
X33011Y8449D01*
X33012Y8448D01*
Y8448D01*
X33015Y8443D01*
X33018Y8438D01*
X33021Y8434D01*
X33023Y8429D01*
X33025Y8425D01*
X33025Y8423D01*
X33026Y8421D01*
Y8420D01*
X33028Y8414D01*
X33029Y8407D01*
X33030Y8400D01*
X33030Y8393D01*
Y8387D01*
X33031Y8382D01*
Y8380D01*
Y8378D01*
Y8378D01*
Y8377D01*
Y8289D01*
Y8279D01*
X33030Y8271D01*
X33030Y8264D01*
X33029Y8258D01*
X33028Y8253D01*
X33027Y8249D01*
X33027Y8247D01*
X33026Y8247D01*
X33025Y8241D01*
X33022Y8235D01*
X33020Y8230D01*
X33018Y8226D01*
X33016Y8223D01*
X33015Y8220D01*
X33013Y8219D01*
X33013Y8218D01*
X33007Y8211D01*
X33000Y8205D01*
X32994Y8200D01*
X32988Y8195D01*
X32983Y8192D01*
X32978Y8190D01*
X32977Y8189D01*
X32975Y8188D01*
X32975Y8188D01*
X32975D01*
X32966Y8185D01*
X32958Y8182D01*
X32950Y8180D01*
X32942Y8179D01*
X32936Y8178D01*
X32933D01*
X32931Y8177D01*
X32926D01*
X32916Y8178D01*
X32907Y8179D01*
X32899Y8181D01*
X32891Y8182D01*
X32886Y8184D01*
X32881Y8186D01*
X32879Y8187D01*
X32878Y8187D01*
X32878Y8187D01*
X32877D01*
X32870Y8192D01*
X32863Y8196D01*
X32857Y8201D01*
X32851Y8206D01*
X32847Y8211D01*
X32844Y8214D01*
X32842Y8217D01*
X32841Y8217D01*
Y8217D01*
X32837Y8222D01*
X32834Y8227D01*
X32832Y8232D01*
X32830Y8236D01*
X32828Y8240D01*
X32827Y8243D01*
X32827Y8244D01*
X32827Y8245D01*
X32825Y8252D01*
X32824Y8258D01*
X32823Y8265D01*
X32823Y8272D01*
Y8278D01*
X32822Y8283D01*
Y8285D01*
Y8286D01*
Y8287D01*
Y8288D01*
Y8377D01*
Y8386D01*
X32823Y8394D01*
X32824Y8401D01*
X32824Y8408D01*
X32825Y8412D01*
X32826Y8416D01*
X32827Y8418D01*
Y8419D01*
X32828Y8425D01*
X32830Y8430D01*
X32833Y8435D01*
X32835Y8439D01*
X32837Y8442D01*
X32838Y8445D01*
X32839Y8446D01*
X32840Y8447D01*
X32846Y8454D01*
X32853Y8460D01*
X32859Y8465D01*
X32865Y8469D01*
X32870Y8473D01*
X32874Y8475D01*
X32876Y8476D01*
X32877Y8477D01*
X32878Y8477D01*
X32878D01*
X32886Y8480D01*
X32895Y8483D01*
X32903Y8485D01*
X32911Y8486D01*
X32917Y8487D01*
X32920D01*
X32922Y8487D01*
X32926D01*
X32936Y8487D01*
D02*
G37*
G36*
X31395Y8183D02*
X31335D01*
X31286Y8377D01*
X31232Y8183D01*
X31192D01*
X31138Y8377D01*
X31089Y8183D01*
X31029D01*
X31116Y8481D01*
X31162D01*
X31212Y8295D01*
X31262Y8481D01*
X31309D01*
X31395Y8183D01*
D02*
G37*
G36*
X31666Y8366D02*
X31672Y8364D01*
X31678Y8363D01*
X31688Y8358D01*
X31697Y8353D01*
X31704Y8348D01*
X31710Y8343D01*
X31714Y8339D01*
X31715Y8337D01*
X31717Y8336D01*
X31717Y8336D01*
X31718Y8335D01*
X31721Y8331D01*
X31724Y8326D01*
X31729Y8316D01*
X31732Y8306D01*
X31734Y8297D01*
X31736Y8289D01*
X31736Y8285D01*
Y8282D01*
X31737Y8280D01*
Y8278D01*
Y8277D01*
Y8277D01*
X31736Y8266D01*
X31735Y8257D01*
X31732Y8248D01*
X31730Y8241D01*
X31727Y8235D01*
X31726Y8232D01*
X31725Y8230D01*
X31725Y8229D01*
X31724Y8227D01*
X31723Y8227D01*
Y8227D01*
X31718Y8219D01*
X31712Y8212D01*
X31705Y8207D01*
X31699Y8202D01*
X31693Y8199D01*
X31689Y8196D01*
X31687Y8195D01*
X31686Y8194D01*
X31685Y8194D01*
X31685D01*
X31680Y8192D01*
X31675Y8190D01*
X31670Y8189D01*
X31666Y8188D01*
X31662Y8187D01*
X31659Y8186D01*
X31657Y8186D01*
X31656D01*
X31653Y8185D01*
X31650Y8185D01*
X31642Y8184D01*
X31633Y8184D01*
X31625D01*
X31618Y8183D01*
X31536D01*
Y8481D01*
X31594D01*
Y8343D01*
X31670Y8481D01*
X31740D01*
X31666Y8366D01*
D02*
G37*
G36*
X32599Y8183D02*
X32491D01*
Y8227D01*
X32543D01*
Y8481D01*
X32599D01*
Y8183D01*
D02*
G37*
G36*
X33267Y8428D02*
X33140D01*
X33223Y8352D01*
X33231Y8345D01*
X33238Y8338D01*
X33244Y8331D01*
X33248Y8324D01*
X33252Y8319D01*
X33255Y8315D01*
X33255Y8314D01*
X33256Y8313D01*
X33257Y8312D01*
Y8312D01*
X33260Y8304D01*
X33263Y8297D01*
X33265Y8290D01*
X33267Y8284D01*
X33268Y8278D01*
X33268Y8274D01*
Y8272D01*
Y8271D01*
Y8271D01*
Y8270D01*
X33268Y8263D01*
X33267Y8257D01*
X33265Y8250D01*
X33264Y8244D01*
X33259Y8232D01*
X33257Y8227D01*
X33254Y8223D01*
X33251Y8219D01*
X33249Y8215D01*
X33247Y8212D01*
X33245Y8210D01*
X33243Y8207D01*
X33241Y8206D01*
X33240Y8205D01*
X33240Y8205D01*
X33235Y8200D01*
X33229Y8196D01*
X33223Y8192D01*
X33218Y8189D01*
X33212Y8187D01*
X33206Y8185D01*
X33196Y8181D01*
X33191Y8180D01*
X33186Y8179D01*
X33182Y8179D01*
X33179Y8178D01*
X33176Y8178D01*
X33172D01*
X33164Y8178D01*
X33156Y8179D01*
X33149Y8180D01*
X33142Y8182D01*
X33136Y8185D01*
X33130Y8187D01*
X33125Y8190D01*
X33120Y8192D01*
X33116Y8195D01*
X33112Y8197D01*
X33109Y8200D01*
X33106Y8202D01*
X33104Y8204D01*
X33102Y8205D01*
X33102Y8206D01*
X33101Y8206D01*
X33097Y8212D01*
X33092Y8217D01*
X33089Y8223D01*
X33086Y8230D01*
X33083Y8236D01*
X33081Y8242D01*
X33078Y8254D01*
X33077Y8259D01*
X33076Y8264D01*
X33075Y8269D01*
X33075Y8273D01*
X33075Y8276D01*
Y8278D01*
Y8280D01*
Y8280D01*
Y8281D01*
X33133D01*
Y8276D01*
X33134Y8268D01*
X33135Y8262D01*
X33136Y8256D01*
X33138Y8252D01*
X33140Y8248D01*
X33141Y8245D01*
X33142Y8244D01*
X33143Y8243D01*
X33147Y8239D01*
X33151Y8236D01*
X33156Y8234D01*
X33161Y8233D01*
X33164Y8232D01*
X33168Y8231D01*
X33171D01*
X33177Y8232D01*
X33182Y8233D01*
X33187Y8235D01*
X33191Y8237D01*
X33194Y8239D01*
X33196Y8241D01*
X33198Y8242D01*
X33198Y8242D01*
X33202Y8247D01*
X33205Y8251D01*
X33207Y8256D01*
X33208Y8260D01*
X33209Y8264D01*
X33209Y8267D01*
Y8269D01*
Y8270D01*
X33209Y8275D01*
X33208Y8279D01*
X33207Y8284D01*
X33206Y8288D01*
X33204Y8292D01*
X33203Y8294D01*
X33202Y8296D01*
X33201Y8297D01*
X33198Y8302D01*
X33194Y8307D01*
X33191Y8312D01*
X33187Y8316D01*
X33183Y8319D01*
X33181Y8322D01*
X33179Y8324D01*
X33178Y8325D01*
X33070Y8425D01*
Y8481D01*
X33267D01*
Y8428D01*
D02*
G37*
G36*
X7021Y-152D02*
X6962D01*
Y-31D01*
X6867D01*
Y-152D01*
X6808D01*
Y146D01*
X6867D01*
Y26D01*
X6962D01*
Y146D01*
X7021D01*
Y-152D01*
D02*
G37*
G36*
X5329Y102D02*
X5277D01*
Y-152D01*
X5221D01*
Y146D01*
X5329D01*
Y102D01*
D02*
G37*
G36*
X5589Y-152D02*
X5536D01*
Y-95D01*
X5589D01*
Y-152D01*
D02*
G37*
G36*
X4903Y152D02*
X4913Y150D01*
X4921Y149D01*
X4928Y147D01*
X4934Y145D01*
X4939Y144D01*
X4940Y143D01*
X4941Y143D01*
X4942Y142D01*
X4942D01*
X4950Y138D01*
X4957Y133D01*
X4963Y128D01*
X4969Y123D01*
X4973Y119D01*
X4976Y115D01*
X4978Y113D01*
X4979Y113D01*
Y112D01*
X4982Y108D01*
X4985Y103D01*
X4988Y98D01*
X4990Y93D01*
X4991Y90D01*
X4992Y87D01*
X4993Y85D01*
X4993Y84D01*
X4994Y78D01*
X4996Y71D01*
X4996Y64D01*
X4997Y58D01*
Y51D01*
X4997Y46D01*
Y44D01*
Y43D01*
Y42D01*
Y42D01*
Y-47D01*
Y-56D01*
X4996Y-65D01*
X4996Y-72D01*
X4995Y-78D01*
X4994Y-83D01*
X4994Y-86D01*
X4993Y-88D01*
Y-89D01*
X4991Y-95D01*
X4989Y-100D01*
X4987Y-105D01*
X4985Y-109D01*
X4983Y-112D01*
X4981Y-115D01*
X4980Y-117D01*
X4980Y-117D01*
X4973Y-124D01*
X4967Y-130D01*
X4961Y-135D01*
X4954Y-140D01*
X4949Y-143D01*
X4945Y-145D01*
X4944Y-146D01*
X4942Y-147D01*
X4942Y-147D01*
X4941D01*
X4933Y-151D01*
X4924Y-153D01*
X4916Y-155D01*
X4909Y-156D01*
X4903Y-157D01*
X4900D01*
X4898Y-157D01*
X4893D01*
X4883Y-157D01*
X4874Y-156D01*
X4865Y-154D01*
X4858Y-152D01*
X4852Y-151D01*
X4848Y-149D01*
X4846Y-149D01*
X4845Y-148D01*
X4845Y-148D01*
X4844D01*
X4837Y-144D01*
X4830Y-139D01*
X4823Y-134D01*
X4818Y-130D01*
X4813Y-125D01*
X4810Y-122D01*
X4808Y-119D01*
X4808Y-119D01*
Y-118D01*
X4804Y-113D01*
X4801Y-109D01*
X4799Y-104D01*
X4797Y-100D01*
X4795Y-96D01*
X4794Y-93D01*
X4793Y-91D01*
Y-90D01*
X4792Y-84D01*
X4791Y-77D01*
X4790Y-70D01*
X4789Y-63D01*
Y-57D01*
X4789Y-52D01*
Y-50D01*
Y-49D01*
Y-48D01*
Y-48D01*
Y41D01*
Y50D01*
X4790Y59D01*
X4790Y66D01*
X4791Y72D01*
X4792Y76D01*
X4793Y80D01*
X4793Y82D01*
X4793Y83D01*
X4795Y89D01*
X4797Y95D01*
X4799Y99D01*
X4802Y103D01*
X4803Y107D01*
X4805Y109D01*
X4806Y111D01*
X4807Y111D01*
X4813Y118D01*
X4820Y125D01*
X4826Y130D01*
X4832Y134D01*
X4837Y138D01*
X4841Y140D01*
X4843Y140D01*
X4844Y141D01*
X4845Y142D01*
X4845D01*
X4853Y145D01*
X4862Y148D01*
X4870Y150D01*
X4877Y151D01*
X4884Y152D01*
X4887D01*
X4889Y152D01*
X4893D01*
X4903Y152D01*
D02*
G37*
G36*
X5102Y-152D02*
X5049D01*
Y-95D01*
X5102D01*
Y-152D01*
D02*
G37*
G36*
X5763D02*
X5722D01*
X5615Y146D01*
X5678D01*
X5743Y-53D01*
X5808Y146D01*
X5870D01*
X5763Y-152D01*
D02*
G37*
G36*
X6704D02*
X6658D01*
X6608Y34D01*
X6558Y-152D01*
X6511D01*
X6425Y146D01*
X6484D01*
X6533Y-47D01*
X6588Y146D01*
X6628D01*
X6682Y-47D01*
X6731Y146D01*
X6790D01*
X6704Y-152D01*
D02*
G37*
G36*
X6046D02*
X5885D01*
Y-99D01*
X5988D01*
Y-26D01*
X5885D01*
Y26D01*
X5988D01*
Y94D01*
X5885D01*
Y146D01*
X6046D01*
Y-152D01*
D02*
G37*
G36*
X6284D02*
X6226D01*
Y-13D01*
X6149Y-152D01*
X6080D01*
X6154Y-36D01*
X6148Y-35D01*
X6142Y-33D01*
X6132Y-28D01*
X6123Y-23D01*
X6116Y-18D01*
X6110Y-13D01*
X6105Y-9D01*
X6104Y-8D01*
X6103Y-6D01*
X6103Y-6D01*
X6102Y-6D01*
X6099Y-1D01*
X6096Y4D01*
X6091Y14D01*
X6088Y24D01*
X6085Y33D01*
X6084Y41D01*
X6083Y44D01*
Y47D01*
X6083Y50D01*
Y51D01*
Y53D01*
Y53D01*
X6083Y63D01*
X6085Y73D01*
X6087Y81D01*
X6090Y89D01*
X6092Y95D01*
X6093Y97D01*
X6094Y99D01*
X6095Y101D01*
X6096Y102D01*
X6096Y103D01*
Y103D01*
X6102Y111D01*
X6108Y117D01*
X6114Y123D01*
X6120Y128D01*
X6126Y131D01*
X6131Y134D01*
X6132Y135D01*
X6134Y135D01*
X6135Y136D01*
X6135D01*
X6140Y138D01*
X6144Y139D01*
X6149Y141D01*
X6153Y142D01*
X6157Y143D01*
X6160Y143D01*
X6162Y144D01*
X6163D01*
X6167Y144D01*
X6170Y145D01*
X6178Y145D01*
X6186Y146D01*
X6194D01*
X6202Y146D01*
X6284D01*
Y-152D01*
D02*
G37*
G36*
X31011Y8183D02*
X30953D01*
Y8304D01*
X30857D01*
Y8183D01*
X30799D01*
Y8481D01*
X30857D01*
Y8360D01*
X30953D01*
Y8481D01*
X31011D01*
Y8183D01*
D02*
G37*
G36*
X21280Y8455D02*
X21228D01*
Y8511D01*
X21280D01*
Y8455D01*
D02*
G37*
G36*
X9906Y8527D02*
X9916Y8525D01*
X9924Y8524D01*
X9931Y8522D01*
X9937Y8520D01*
X9942Y8519D01*
X9943Y8518D01*
X9945Y8518D01*
X9945Y8517D01*
X9945D01*
X9953Y8513D01*
X9960Y8509D01*
X9966Y8504D01*
X9972Y8499D01*
X9976Y8495D01*
X9979Y8491D01*
X9981Y8489D01*
X9982Y8488D01*
Y8488D01*
X9985Y8483D01*
X9988Y8478D01*
X9991Y8474D01*
X9993Y8469D01*
X9995Y8465D01*
X9995Y8463D01*
X9996Y8461D01*
Y8460D01*
X9998Y8454D01*
X9999Y8447D01*
X10000Y8440D01*
X10000Y8433D01*
Y8427D01*
X10001Y8422D01*
Y8420D01*
Y8418D01*
Y8418D01*
Y8417D01*
Y8329D01*
Y8319D01*
X10000Y8311D01*
X10000Y8304D01*
X9999Y8298D01*
X9998Y8293D01*
X9997Y8289D01*
X9997Y8287D01*
X9996Y8287D01*
X9995Y8281D01*
X9992Y8275D01*
X9990Y8270D01*
X9988Y8266D01*
X9986Y8263D01*
X9985Y8260D01*
X9983Y8259D01*
X9983Y8258D01*
X9977Y8251D01*
X9970Y8245D01*
X9964Y8240D01*
X9958Y8235D01*
X9953Y8232D01*
X9948Y8230D01*
X9947Y8229D01*
X9945Y8228D01*
X9945Y8228D01*
X9945D01*
X9936Y8225D01*
X9928Y8222D01*
X9920Y8220D01*
X9912Y8219D01*
X9906Y8218D01*
X9903D01*
X9901Y8217D01*
X9896D01*
X9886Y8218D01*
X9877Y8219D01*
X9869Y8221D01*
X9861Y8222D01*
X9856Y8224D01*
X9851Y8226D01*
X9849Y8227D01*
X9848Y8227D01*
X9848Y8227D01*
X9847D01*
X9840Y8232D01*
X9833Y8236D01*
X9827Y8241D01*
X9821Y8246D01*
X9817Y8251D01*
X9814Y8254D01*
X9812Y8257D01*
X9811Y8257D01*
Y8257D01*
X9807Y8262D01*
X9804Y8267D01*
X9802Y8272D01*
X9800Y8276D01*
X9798Y8280D01*
X9797Y8283D01*
X9797Y8284D01*
X9797Y8285D01*
X9795Y8292D01*
X9794Y8298D01*
X9793Y8305D01*
X9793Y8312D01*
Y8318D01*
X9792Y8323D01*
Y8325D01*
Y8326D01*
Y8327D01*
Y8328D01*
Y8417D01*
Y8426D01*
X9793Y8434D01*
X9794Y8441D01*
X9794Y8448D01*
X9795Y8452D01*
X9796Y8456D01*
X9797Y8458D01*
Y8459D01*
X9798Y8465D01*
X9800Y8470D01*
X9803Y8475D01*
X9805Y8479D01*
X9807Y8482D01*
X9808Y8485D01*
X9809Y8486D01*
X9810Y8487D01*
X9816Y8494D01*
X9823Y8500D01*
X9829Y8505D01*
X9835Y8509D01*
X9840Y8513D01*
X9844Y8515D01*
X9846Y8516D01*
X9847Y8517D01*
X9848Y8517D01*
X9848D01*
X9856Y8520D01*
X9865Y8523D01*
X9873Y8525D01*
X9881Y8526D01*
X9887Y8527D01*
X9890D01*
X9892Y8527D01*
X9896D01*
X9906Y8527D01*
D02*
G37*
G36*
X19521Y8213D02*
X19463D01*
Y8334D01*
X19367D01*
Y8213D01*
X19309D01*
Y8511D01*
X19367D01*
Y8390D01*
X19463D01*
Y8511D01*
X19521D01*
Y8213D01*
D02*
G37*
G36*
X20793Y8455D02*
X20741D01*
Y8511D01*
X20793D01*
Y8455D01*
D02*
G37*
G36*
X9569Y8223D02*
X9461D01*
Y8267D01*
X9513D01*
Y8521D01*
X9569D01*
Y8223D01*
D02*
G37*
G36*
X10237Y8468D02*
X10110D01*
X10193Y8392D01*
X10201Y8385D01*
X10208Y8378D01*
X10214Y8371D01*
X10218Y8364D01*
X10222Y8359D01*
X10225Y8355D01*
X10225Y8354D01*
X10226Y8353D01*
X10227Y8352D01*
Y8352D01*
X10230Y8344D01*
X10233Y8337D01*
X10235Y8330D01*
X10237Y8324D01*
X10238Y8318D01*
X10238Y8314D01*
Y8312D01*
Y8311D01*
Y8311D01*
Y8310D01*
X10238Y8303D01*
X10237Y8297D01*
X10235Y8290D01*
X10234Y8284D01*
X10229Y8272D01*
X10227Y8267D01*
X10224Y8263D01*
X10221Y8259D01*
X10219Y8255D01*
X10217Y8252D01*
X10215Y8250D01*
X10213Y8247D01*
X10211Y8246D01*
X10210Y8245D01*
X10210Y8245D01*
X10205Y8240D01*
X10199Y8236D01*
X10193Y8232D01*
X10188Y8229D01*
X10182Y8227D01*
X10176Y8225D01*
X10166Y8221D01*
X10161Y8220D01*
X10156Y8219D01*
X10152Y8219D01*
X10149Y8218D01*
X10146Y8218D01*
X10142D01*
X10134Y8218D01*
X10126Y8219D01*
X10119Y8220D01*
X10112Y8222D01*
X10106Y8225D01*
X10100Y8227D01*
X10095Y8230D01*
X10090Y8232D01*
X10086Y8235D01*
X10082Y8237D01*
X10079Y8240D01*
X10076Y8242D01*
X10074Y8244D01*
X10072Y8245D01*
X10072Y8246D01*
X10071Y8246D01*
X10067Y8252D01*
X10062Y8257D01*
X10059Y8263D01*
X10056Y8270D01*
X10053Y8276D01*
X10051Y8282D01*
X10048Y8294D01*
X10047Y8299D01*
X10046Y8304D01*
X10045Y8309D01*
X10045Y8313D01*
X10044Y8316D01*
Y8318D01*
Y8320D01*
Y8320D01*
Y8321D01*
X10103D01*
Y8316D01*
X10104Y8308D01*
X10105Y8302D01*
X10106Y8296D01*
X10108Y8292D01*
X10110Y8288D01*
X10111Y8285D01*
X10112Y8284D01*
X10113Y8283D01*
X10117Y8279D01*
X10121Y8276D01*
X10126Y8274D01*
X10131Y8273D01*
X10134Y8272D01*
X10138Y8271D01*
X10141D01*
X10147Y8272D01*
X10152Y8273D01*
X10157Y8275D01*
X10161Y8277D01*
X10164Y8279D01*
X10166Y8281D01*
X10168Y8282D01*
X10168Y8282D01*
X10172Y8287D01*
X10175Y8291D01*
X10177Y8296D01*
X10178Y8300D01*
X10179Y8304D01*
X10179Y8307D01*
Y8309D01*
Y8310D01*
X10179Y8315D01*
X10178Y8319D01*
X10177Y8324D01*
X10176Y8328D01*
X10174Y8332D01*
X10173Y8334D01*
X10172Y8336D01*
X10171Y8337D01*
X10168Y8342D01*
X10164Y8347D01*
X10161Y8352D01*
X10157Y8356D01*
X10153Y8359D01*
X10151Y8362D01*
X10149Y8364D01*
X10148Y8365D01*
X10040Y8465D01*
Y8521D01*
X10237D01*
Y8468D01*
D02*
G37*
G36*
X8905Y8469D02*
X8802D01*
Y8395D01*
X8905D01*
Y8344D01*
X8802D01*
Y8276D01*
X8905D01*
Y8223D01*
X8744D01*
Y8521D01*
X8905D01*
Y8469D01*
D02*
G37*
G36*
X9174Y8223D02*
X9112D01*
X9047Y8422D01*
X8982Y8223D01*
X8920D01*
X9026Y8521D01*
X9068D01*
X9174Y8223D01*
D02*
G37*
G36*
X20176Y8396D02*
X20182Y8394D01*
X20188Y8393D01*
X20198Y8388D01*
X20207Y8383D01*
X20214Y8378D01*
X20220Y8373D01*
X20224Y8369D01*
X20225Y8367D01*
X20227Y8366D01*
X20227Y8366D01*
X20228Y8365D01*
X20231Y8361D01*
X20234Y8356D01*
X20239Y8346D01*
X20242Y8336D01*
X20244Y8327D01*
X20246Y8319D01*
X20246Y8315D01*
Y8312D01*
X20247Y8310D01*
Y8308D01*
Y8307D01*
Y8307D01*
X20246Y8296D01*
X20245Y8287D01*
X20242Y8278D01*
X20240Y8271D01*
X20237Y8265D01*
X20236Y8262D01*
X20235Y8260D01*
X20235Y8259D01*
X20234Y8257D01*
X20233Y8257D01*
Y8257D01*
X20228Y8249D01*
X20222Y8242D01*
X20215Y8237D01*
X20209Y8232D01*
X20203Y8229D01*
X20199Y8226D01*
X20197Y8225D01*
X20196Y8224D01*
X20195Y8224D01*
X20195D01*
X20190Y8222D01*
X20185Y8220D01*
X20180Y8219D01*
X20176Y8218D01*
X20172Y8217D01*
X20169Y8216D01*
X20167Y8216D01*
X20166D01*
X20163Y8215D01*
X20160Y8215D01*
X20152Y8214D01*
X20143Y8214D01*
X20135D01*
X20128Y8213D01*
X20046D01*
Y8511D01*
X20104D01*
Y8373D01*
X20180Y8511D01*
X20250D01*
X20176Y8396D01*
D02*
G37*
G36*
X21446Y8517D02*
X21456Y8515D01*
X21464Y8514D01*
X21471Y8512D01*
X21477Y8510D01*
X21482Y8509D01*
X21483Y8508D01*
X21485Y8508D01*
X21485Y8507D01*
X21485D01*
X21493Y8503D01*
X21500Y8499D01*
X21506Y8494D01*
X21512Y8489D01*
X21516Y8485D01*
X21519Y8481D01*
X21521Y8479D01*
X21522Y8478D01*
Y8478D01*
X21525Y8473D01*
X21528Y8468D01*
X21531Y8464D01*
X21533Y8459D01*
X21535Y8455D01*
X21535Y8453D01*
X21536Y8451D01*
Y8450D01*
X21538Y8444D01*
X21539Y8437D01*
X21540Y8430D01*
X21540Y8423D01*
Y8417D01*
X21541Y8412D01*
Y8410D01*
Y8408D01*
Y8408D01*
Y8407D01*
Y8319D01*
Y8309D01*
X21540Y8301D01*
X21540Y8294D01*
X21539Y8288D01*
X21538Y8283D01*
X21537Y8279D01*
X21537Y8277D01*
X21536Y8277D01*
X21535Y8271D01*
X21532Y8265D01*
X21530Y8260D01*
X21528Y8256D01*
X21526Y8253D01*
X21525Y8250D01*
X21523Y8249D01*
X21523Y8248D01*
X21517Y8241D01*
X21510Y8235D01*
X21504Y8230D01*
X21498Y8225D01*
X21493Y8222D01*
X21488Y8220D01*
X21487Y8219D01*
X21485Y8218D01*
X21485Y8218D01*
X21485D01*
X21476Y8215D01*
X21468Y8212D01*
X21460Y8210D01*
X21452Y8209D01*
X21446Y8208D01*
X21443D01*
X21441Y8207D01*
X21436D01*
X21426Y8208D01*
X21417Y8209D01*
X21409Y8211D01*
X21401Y8212D01*
X21396Y8214D01*
X21391Y8216D01*
X21389Y8217D01*
X21388Y8217D01*
X21388Y8217D01*
X21387D01*
X21380Y8222D01*
X21373Y8226D01*
X21367Y8231D01*
X21361Y8236D01*
X21357Y8241D01*
X21354Y8244D01*
X21352Y8247D01*
X21351Y8247D01*
Y8247D01*
X21347Y8252D01*
X21344Y8257D01*
X21342Y8262D01*
X21340Y8266D01*
X21338Y8270D01*
X21337Y8273D01*
X21337Y8274D01*
X21337Y8275D01*
X21335Y8282D01*
X21334Y8288D01*
X21333Y8295D01*
X21333Y8302D01*
Y8308D01*
X21332Y8313D01*
Y8315D01*
Y8316D01*
Y8317D01*
Y8318D01*
Y8407D01*
Y8416D01*
X21333Y8424D01*
X21334Y8431D01*
X21334Y8438D01*
X21335Y8442D01*
X21336Y8446D01*
X21337Y8448D01*
Y8449D01*
X21338Y8455D01*
X21340Y8460D01*
X21343Y8465D01*
X21345Y8469D01*
X21347Y8472D01*
X21348Y8475D01*
X21349Y8476D01*
X21350Y8477D01*
X21356Y8484D01*
X21363Y8490D01*
X21369Y8495D01*
X21375Y8499D01*
X21380Y8503D01*
X21384Y8505D01*
X21386Y8506D01*
X21387Y8507D01*
X21388Y8507D01*
X21388D01*
X21396Y8510D01*
X21405Y8513D01*
X21413Y8515D01*
X21421Y8516D01*
X21427Y8517D01*
X21430D01*
X21432Y8517D01*
X21436D01*
X21446Y8517D01*
D02*
G37*
G36*
X20445Y8459D02*
X20342D01*
Y8385D01*
X20445D01*
Y8334D01*
X20342D01*
Y8266D01*
X20445D01*
Y8213D01*
X20284D01*
Y8511D01*
X20445D01*
Y8459D01*
D02*
G37*
G36*
X32283Y8425D02*
X32231D01*
Y8481D01*
X32283D01*
Y8425D01*
D02*
G37*
G36*
X32770D02*
X32718D01*
Y8481D01*
X32770D01*
Y8425D01*
D02*
G37*
G36*
X21777Y8458D02*
X21650D01*
X21733Y8382D01*
X21741Y8375D01*
X21748Y8368D01*
X21754Y8361D01*
X21758Y8354D01*
X21762Y8349D01*
X21765Y8345D01*
X21765Y8344D01*
X21766Y8343D01*
X21767Y8342D01*
Y8342D01*
X21770Y8334D01*
X21773Y8327D01*
X21775Y8320D01*
X21777Y8314D01*
X21778Y8308D01*
X21778Y8304D01*
Y8302D01*
Y8301D01*
Y8301D01*
Y8300D01*
X21778Y8293D01*
X21777Y8287D01*
X21775Y8280D01*
X21774Y8274D01*
X21769Y8262D01*
X21767Y8257D01*
X21764Y8253D01*
X21761Y8249D01*
X21759Y8245D01*
X21757Y8242D01*
X21755Y8240D01*
X21753Y8237D01*
X21751Y8236D01*
X21750Y8235D01*
X21750Y8235D01*
X21745Y8230D01*
X21739Y8226D01*
X21733Y8222D01*
X21728Y8219D01*
X21722Y8217D01*
X21716Y8215D01*
X21706Y8211D01*
X21701Y8210D01*
X21696Y8209D01*
X21692Y8209D01*
X21688Y8208D01*
X21686Y8208D01*
X21682D01*
X21674Y8208D01*
X21666Y8209D01*
X21659Y8210D01*
X21652Y8212D01*
X21646Y8215D01*
X21640Y8217D01*
X21635Y8220D01*
X21630Y8222D01*
X21626Y8225D01*
X21622Y8227D01*
X21619Y8230D01*
X21616Y8232D01*
X21614Y8234D01*
X21612Y8235D01*
X21612Y8236D01*
X21611Y8236D01*
X21607Y8242D01*
X21602Y8247D01*
X21599Y8253D01*
X21596Y8260D01*
X21593Y8266D01*
X21591Y8272D01*
X21588Y8284D01*
X21587Y8289D01*
X21586Y8294D01*
X21585Y8299D01*
X21585Y8303D01*
X21584Y8306D01*
Y8308D01*
Y8310D01*
Y8310D01*
Y8311D01*
X21643D01*
Y8306D01*
X21644Y8298D01*
X21645Y8292D01*
X21646Y8286D01*
X21648Y8282D01*
X21650Y8278D01*
X21651Y8275D01*
X21652Y8274D01*
X21653Y8273D01*
X21657Y8269D01*
X21661Y8266D01*
X21666Y8264D01*
X21671Y8263D01*
X21674Y8262D01*
X21678Y8261D01*
X21681D01*
X21687Y8262D01*
X21692Y8263D01*
X21697Y8265D01*
X21701Y8267D01*
X21704Y8269D01*
X21706Y8271D01*
X21708Y8272D01*
X21708Y8272D01*
X21712Y8277D01*
X21715Y8281D01*
X21717Y8286D01*
X21718Y8290D01*
X21719Y8294D01*
X21719Y8297D01*
Y8299D01*
Y8300D01*
X21719Y8305D01*
X21718Y8309D01*
X21717Y8314D01*
X21716Y8318D01*
X21714Y8322D01*
X21713Y8324D01*
X21712Y8326D01*
X21711Y8327D01*
X21708Y8332D01*
X21704Y8337D01*
X21701Y8342D01*
X21697Y8346D01*
X21693Y8349D01*
X21691Y8352D01*
X21689Y8354D01*
X21688Y8355D01*
X21580Y8455D01*
Y8511D01*
X21777D01*
Y8458D01*
D02*
G37*
G36*
X19905Y8213D02*
X19845D01*
X19796Y8407D01*
X19742Y8213D01*
X19702D01*
X19648Y8407D01*
X19599Y8213D01*
X19539D01*
X19626Y8511D01*
X19672D01*
X19722Y8325D01*
X19772Y8511D01*
X19819D01*
X19905Y8213D01*
D02*
G37*
G36*
X20714D02*
X20652D01*
X20587Y8412D01*
X20522Y8213D01*
X20460D01*
X20566Y8511D01*
X20608D01*
X20714Y8213D01*
D02*
G37*
G36*
X21109D02*
X21001D01*
Y8257D01*
X21053D01*
Y8511D01*
X21109D01*
Y8213D01*
D02*
G37*
G36*
X6300Y4117D02*
X6269D01*
X6222Y4288D01*
X6220Y4292D01*
X6219Y4296D01*
X6218Y4301D01*
X6217Y4305D01*
X6216Y4309D01*
X6215Y4312D01*
X6215Y4313D01*
Y4314D01*
X6215Y4314D01*
Y4314D01*
X6215Y4313D01*
X6214Y4312D01*
X6213Y4308D01*
X6212Y4304D01*
X6211Y4299D01*
X6210Y4295D01*
X6208Y4291D01*
X6208Y4290D01*
X6208Y4289D01*
X6208Y4288D01*
Y4288D01*
X6161Y4117D01*
X6132D01*
X6070Y4341D01*
X6100D01*
X6136Y4197D01*
X6138Y4187D01*
X6140Y4178D01*
X6142Y4170D01*
X6143Y4166D01*
X6144Y4163D01*
X6144Y4160D01*
X6145Y4157D01*
X6146Y4154D01*
X6146Y4152D01*
X6146Y4151D01*
X6146Y4149D01*
X6147Y4149D01*
Y4149D01*
X6149Y4163D01*
X6152Y4177D01*
X6153Y4183D01*
X6155Y4190D01*
X6156Y4196D01*
X6158Y4202D01*
X6159Y4207D01*
X6160Y4212D01*
X6162Y4217D01*
X6162Y4220D01*
X6163Y4224D01*
X6164Y4226D01*
X6164Y4227D01*
X6164Y4228D01*
X6196Y4341D01*
X6232D01*
X6274Y4190D01*
X6275Y4188D01*
X6275Y4186D01*
X6276Y4184D01*
X6277Y4181D01*
X6277Y4178D01*
X6278Y4174D01*
X6280Y4167D01*
X6282Y4160D01*
X6283Y4157D01*
X6283Y4154D01*
X6284Y4152D01*
X6284Y4150D01*
X6285Y4149D01*
Y4149D01*
X6286Y4157D01*
X6288Y4165D01*
X6289Y4173D01*
X6291Y4180D01*
X6291Y4183D01*
X6292Y4186D01*
X6292Y4188D01*
X6293Y4190D01*
X6293Y4192D01*
X6294Y4193D01*
X6294Y4194D01*
Y4194D01*
X6328Y4341D01*
X6358D01*
X6300Y4117D01*
D02*
G37*
G36*
X6038D02*
X6008D01*
Y4341D01*
X6038D01*
Y4117D01*
D02*
G37*
G36*
X5955D02*
X5925D01*
Y4219D01*
X5820D01*
Y4245D01*
X5925D01*
Y4315D01*
X5804D01*
Y4341D01*
X5955D01*
Y4117D01*
D02*
G37*
G36*
X5925Y3777D02*
X5840D01*
X5832Y3778D01*
X5825Y3778D01*
X5819Y3779D01*
X5814Y3779D01*
X5810Y3780D01*
X5808Y3780D01*
X5807Y3780D01*
X5806Y3781D01*
X5805Y3781D01*
X5804D01*
X5799Y3782D01*
X5794Y3784D01*
X5790Y3786D01*
X5786Y3788D01*
X5784Y3789D01*
X5782Y3791D01*
X5780Y3792D01*
X5780Y3792D01*
X5776Y3795D01*
X5773Y3798D01*
X5770Y3802D01*
X5768Y3805D01*
X5766Y3808D01*
X5764Y3811D01*
X5763Y3812D01*
X5763Y3813D01*
X5761Y3818D01*
X5759Y3823D01*
X5758Y3828D01*
X5757Y3832D01*
X5757Y3837D01*
X5756Y3839D01*
Y3841D01*
Y3841D01*
Y3842D01*
Y3842D01*
X5757Y3849D01*
X5758Y3855D01*
X5760Y3861D01*
X5762Y3866D01*
X5764Y3870D01*
X5766Y3873D01*
X5766Y3874D01*
X5767Y3875D01*
X5768Y3876D01*
Y3876D01*
X5772Y3881D01*
X5777Y3885D01*
X5782Y3889D01*
X5787Y3892D01*
X5792Y3894D01*
X5794Y3895D01*
X5795Y3895D01*
X5797Y3896D01*
X5798Y3896D01*
X5798Y3896D01*
X5799D01*
X5793Y3899D01*
X5788Y3903D01*
X5784Y3906D01*
X5781Y3909D01*
X5778Y3912D01*
X5777Y3914D01*
X5775Y3916D01*
X5775Y3917D01*
X5772Y3921D01*
X5770Y3926D01*
X5769Y3931D01*
X5768Y3935D01*
X5768Y3939D01*
X5767Y3942D01*
Y3942D01*
Y3943D01*
Y3944D01*
Y3944D01*
X5768Y3950D01*
X5769Y3955D01*
X5770Y3960D01*
X5772Y3964D01*
X5773Y3968D01*
X5775Y3971D01*
X5776Y3973D01*
X5776Y3973D01*
Y3973D01*
X5780Y3978D01*
X5784Y3983D01*
X5788Y3986D01*
X5792Y3989D01*
X5795Y3991D01*
X5798Y3993D01*
X5799Y3994D01*
X5800Y3994D01*
X5800Y3994D01*
X5800D01*
X5807Y3997D01*
X5813Y3998D01*
X5820Y3999D01*
X5827Y4000D01*
X5832Y4001D01*
X5835D01*
X5837Y4001D01*
X5925D01*
Y3777D01*
D02*
G37*
G36*
X5392Y4005D02*
X5398Y4004D01*
X5409Y4003D01*
X5414Y4002D01*
X5419Y4001D01*
X5424Y3999D01*
X5428Y3998D01*
X5431Y3997D01*
X5435Y3995D01*
X5438Y3994D01*
X5440Y3993D01*
X5442Y3992D01*
X5444Y3992D01*
X5445Y3991D01*
X5445Y3991D01*
X5449Y3988D01*
X5454Y3985D01*
X5462Y3979D01*
X5465Y3975D01*
X5468Y3972D01*
X5471Y3968D01*
X5474Y3965D01*
X5476Y3962D01*
X5478Y3959D01*
X5480Y3956D01*
X5481Y3954D01*
X5483Y3952D01*
X5484Y3950D01*
X5484Y3949D01*
X5484Y3949D01*
X5486Y3944D01*
X5488Y3938D01*
X5492Y3928D01*
X5494Y3917D01*
X5495Y3912D01*
X5496Y3908D01*
X5496Y3904D01*
X5497Y3900D01*
X5497Y3896D01*
Y3894D01*
X5497Y3891D01*
Y3889D01*
Y3888D01*
Y3888D01*
X5497Y3882D01*
X5497Y3876D01*
X5495Y3865D01*
X5494Y3859D01*
X5493Y3855D01*
X5492Y3850D01*
X5491Y3846D01*
X5489Y3842D01*
X5488Y3839D01*
X5487Y3836D01*
X5486Y3833D01*
X5485Y3831D01*
X5484Y3830D01*
X5484Y3829D01*
Y3828D01*
X5481Y3823D01*
X5478Y3819D01*
X5475Y3815D01*
X5472Y3811D01*
X5468Y3807D01*
X5465Y3804D01*
X5462Y3801D01*
X5458Y3798D01*
X5455Y3796D01*
X5453Y3793D01*
X5450Y3792D01*
X5448Y3790D01*
X5446Y3789D01*
X5445Y3788D01*
X5444Y3788D01*
X5443Y3788D01*
X5438Y3785D01*
X5433Y3783D01*
X5423Y3779D01*
X5413Y3777D01*
X5408Y3776D01*
X5403Y3775D01*
X5399Y3775D01*
X5395Y3775D01*
X5392Y3774D01*
X5389D01*
X5387Y3774D01*
X5383D01*
X5374Y3774D01*
X5366Y3775D01*
X5358Y3777D01*
X5350Y3778D01*
X5347Y3779D01*
X5344Y3780D01*
X5342Y3780D01*
X5340Y3781D01*
X5338Y3782D01*
X5337Y3782D01*
X5336Y3782D01*
X5336D01*
X5327Y3786D01*
X5319Y3790D01*
X5311Y3794D01*
X5304Y3799D01*
X5301Y3801D01*
X5299Y3802D01*
X5296Y3804D01*
X5294Y3805D01*
X5293Y3807D01*
X5291Y3807D01*
X5291Y3808D01*
X5291Y3808D01*
Y3892D01*
X5385D01*
Y3865D01*
X5320D01*
Y3823D01*
X5324Y3820D01*
X5328Y3817D01*
X5333Y3814D01*
X5337Y3812D01*
X5341Y3810D01*
X5345Y3809D01*
X5346Y3808D01*
X5347Y3808D01*
X5347Y3807D01*
X5348D01*
X5355Y3805D01*
X5361Y3803D01*
X5367Y3802D01*
X5373Y3801D01*
X5378Y3800D01*
X5380D01*
X5382Y3800D01*
X5385D01*
X5393Y3800D01*
X5401Y3802D01*
X5408Y3803D01*
X5414Y3805D01*
X5417Y3806D01*
X5419Y3807D01*
X5422Y3807D01*
X5424Y3808D01*
X5425Y3809D01*
X5426Y3809D01*
X5427Y3810D01*
X5427D01*
X5434Y3814D01*
X5440Y3818D01*
X5445Y3824D01*
X5449Y3828D01*
X5452Y3833D01*
X5454Y3835D01*
X5455Y3837D01*
X5456Y3838D01*
X5456Y3839D01*
X5457Y3839D01*
Y3840D01*
X5460Y3848D01*
X5463Y3856D01*
X5464Y3864D01*
X5466Y3872D01*
X5466Y3876D01*
X5466Y3879D01*
X5467Y3882D01*
Y3885D01*
X5467Y3887D01*
Y3888D01*
Y3889D01*
Y3890D01*
X5467Y3899D01*
X5465Y3907D01*
X5464Y3915D01*
X5463Y3921D01*
X5462Y3924D01*
X5461Y3927D01*
X5461Y3929D01*
X5460Y3931D01*
X5459Y3933D01*
X5459Y3934D01*
X5458Y3935D01*
Y3935D01*
X5456Y3939D01*
X5454Y3944D01*
X5452Y3947D01*
X5450Y3951D01*
X5448Y3953D01*
X5446Y3955D01*
X5445Y3956D01*
X5445Y3957D01*
X5441Y3960D01*
X5437Y3964D01*
X5433Y3967D01*
X5429Y3969D01*
X5426Y3971D01*
X5423Y3972D01*
X5421Y3973D01*
X5421Y3973D01*
X5421D01*
X5415Y3975D01*
X5409Y3977D01*
X5403Y3978D01*
X5397Y3979D01*
X5393Y3979D01*
X5391D01*
X5389Y3980D01*
X5385D01*
X5379Y3979D01*
X5374Y3979D01*
X5368Y3978D01*
X5364Y3977D01*
X5360Y3976D01*
X5357Y3974D01*
X5355Y3974D01*
X5355Y3974D01*
X5355D01*
X5350Y3971D01*
X5346Y3969D01*
X5342Y3966D01*
X5339Y3964D01*
X5337Y3961D01*
X5335Y3960D01*
X5334Y3958D01*
X5333Y3958D01*
X5331Y3954D01*
X5328Y3950D01*
X5326Y3945D01*
X5324Y3941D01*
X5323Y3937D01*
X5322Y3934D01*
X5321Y3933D01*
X5321Y3932D01*
X5321Y3931D01*
Y3931D01*
X5294Y3938D01*
X5296Y3947D01*
X5299Y3954D01*
X5302Y3960D01*
X5305Y3965D01*
X5307Y3970D01*
X5308Y3971D01*
X5310Y3972D01*
X5310Y3974D01*
X5311Y3974D01*
X5311Y3975D01*
Y3975D01*
X5316Y3980D01*
X5321Y3984D01*
X5326Y3988D01*
X5331Y3991D01*
X5335Y3994D01*
X5337Y3995D01*
X5339Y3995D01*
X5340Y3996D01*
X5341Y3997D01*
X5342Y3997D01*
X5342D01*
X5349Y3999D01*
X5357Y4002D01*
X5364Y4003D01*
X5371Y4004D01*
X5374Y4004D01*
X5377Y4005D01*
X5379D01*
X5382Y4005D01*
X5386D01*
X5392Y4005D01*
D02*
G37*
G36*
X6358Y3777D02*
X6278D01*
X6270Y3778D01*
X6263Y3778D01*
X6257Y3779D01*
X6252Y3779D01*
X6248Y3780D01*
X6246Y3780D01*
X6244Y3781D01*
X6243Y3781D01*
X6242D01*
X6242Y3781D01*
X6242D01*
X6236Y3783D01*
X6231Y3784D01*
X6226Y3786D01*
X6223Y3788D01*
X6219Y3790D01*
X6217Y3791D01*
X6216Y3792D01*
X6215Y3792D01*
X6211Y3795D01*
X6207Y3799D01*
X6203Y3802D01*
X6201Y3805D01*
X6198Y3808D01*
X6196Y3811D01*
X6195Y3812D01*
X6194Y3813D01*
X6191Y3818D01*
X6188Y3823D01*
X6185Y3829D01*
X6183Y3834D01*
X6182Y3838D01*
X6181Y3840D01*
X6180Y3842D01*
X6180Y3843D01*
X6180Y3844D01*
X6179Y3845D01*
Y3845D01*
X6177Y3853D01*
X6176Y3861D01*
X6175Y3868D01*
X6174Y3875D01*
X6174Y3878D01*
X6173Y3881D01*
Y3884D01*
X6173Y3886D01*
Y3888D01*
Y3889D01*
Y3890D01*
Y3890D01*
X6173Y3901D01*
X6175Y3911D01*
X6175Y3916D01*
X6176Y3920D01*
X6177Y3924D01*
X6178Y3928D01*
X6178Y3932D01*
X6179Y3935D01*
X6180Y3937D01*
X6181Y3940D01*
X6181Y3941D01*
X6182Y3942D01*
X6182Y3943D01*
Y3944D01*
X6186Y3952D01*
X6190Y3959D01*
X6194Y3966D01*
X6199Y3972D01*
X6201Y3974D01*
X6203Y3976D01*
X6204Y3978D01*
X6206Y3979D01*
X6207Y3980D01*
X6208Y3981D01*
X6208Y3981D01*
X6209Y3982D01*
X6214Y3986D01*
X6219Y3989D01*
X6225Y3992D01*
X6230Y3994D01*
X6235Y3996D01*
X6237Y3996D01*
X6238Y3997D01*
X6240Y3997D01*
X6241Y3997D01*
X6241Y3998D01*
X6242D01*
X6247Y3999D01*
X6254Y4000D01*
X6260Y4000D01*
X6267Y4001D01*
X6272D01*
X6275Y4001D01*
X6358D01*
Y3777D01*
D02*
G37*
G36*
X6132D02*
X5965D01*
Y3804D01*
X6102D01*
Y3880D01*
X5979D01*
Y3907D01*
X6102D01*
Y3975D01*
X5970D01*
Y4001D01*
X6132D01*
Y3777D01*
D02*
G37*
G36*
X5760Y4117D02*
X5731D01*
Y4341D01*
X5760D01*
Y4117D01*
D02*
G37*
G36*
X41005Y7972D02*
X40988D01*
X40953Y8065D01*
X40952Y8069D01*
X40951Y8073D01*
X40949Y8076D01*
X40948Y8079D01*
X40948Y8082D01*
X40947Y8083D01*
X40947Y8084D01*
X40947Y8085D01*
X40947Y8085D01*
X40946Y8086D01*
Y8086D01*
X40945Y8082D01*
X40944Y8078D01*
X40943Y8075D01*
X40942Y8072D01*
X40941Y8069D01*
X40941Y8068D01*
X40940Y8067D01*
X40940Y8066D01*
X40940Y8065D01*
X40940Y8065D01*
Y8065D01*
X40907Y7972D01*
X40888D01*
X40938Y8100D01*
X40955D01*
X41005Y7972D01*
D02*
G37*
G36*
X40453Y8104D02*
X40458Y8103D01*
X40463Y8102D01*
X40467Y8102D01*
X40468Y8101D01*
X40470Y8101D01*
X40471Y8100D01*
X40473Y8100D01*
X40474Y8100D01*
X40474Y8099D01*
X40475Y8099D01*
X40475D01*
X40480Y8097D01*
X40485Y8095D01*
X40489Y8092D01*
X40493Y8090D01*
X40495Y8089D01*
X40496Y8088D01*
X40497Y8087D01*
X40499Y8086D01*
X40500Y8085D01*
X40500Y8085D01*
X40501Y8084D01*
X40501Y8084D01*
Y8037D01*
X40447D01*
Y8052D01*
X40484D01*
Y8076D01*
X40482Y8078D01*
X40479Y8079D01*
X40477Y8081D01*
X40474Y8082D01*
X40472Y8083D01*
X40470Y8084D01*
X40469Y8084D01*
X40469Y8085D01*
X40468Y8085D01*
X40468D01*
X40464Y8086D01*
X40460Y8087D01*
X40457Y8088D01*
X40454Y8088D01*
X40451Y8089D01*
X40450D01*
X40449Y8089D01*
X40447D01*
X40442Y8089D01*
X40438Y8088D01*
X40434Y8087D01*
X40430Y8086D01*
X40428Y8086D01*
X40427Y8085D01*
X40426Y8085D01*
X40425Y8084D01*
X40424Y8084D01*
X40423Y8084D01*
X40423Y8083D01*
X40423D01*
X40419Y8081D01*
X40416Y8078D01*
X40413Y8075D01*
X40410Y8073D01*
X40408Y8070D01*
X40408Y8069D01*
X40407Y8068D01*
X40407Y8068D01*
X40406Y8067D01*
X40406Y8067D01*
Y8066D01*
X40404Y8062D01*
X40403Y8057D01*
X40402Y8052D01*
X40401Y8048D01*
X40401Y8046D01*
X40400Y8044D01*
X40400Y8042D01*
Y8041D01*
X40400Y8039D01*
Y8039D01*
Y8038D01*
Y8038D01*
X40400Y8033D01*
X40401Y8028D01*
X40402Y8024D01*
X40403Y8020D01*
X40403Y8018D01*
X40403Y8017D01*
X40404Y8015D01*
X40404Y8014D01*
X40404Y8013D01*
X40405Y8013D01*
X40405Y8012D01*
Y8012D01*
X40406Y8010D01*
X40407Y8007D01*
X40409Y8005D01*
X40410Y8003D01*
X40411Y8002D01*
X40412Y8000D01*
X40413Y8000D01*
X40413Y7999D01*
X40415Y7997D01*
X40417Y7995D01*
X40420Y7994D01*
X40422Y7993D01*
X40424Y7991D01*
X40425Y7991D01*
X40426Y7990D01*
X40426Y7990D01*
X40427D01*
X40430Y7989D01*
X40433Y7988D01*
X40437Y7987D01*
X40440Y7987D01*
X40442Y7987D01*
X40444D01*
X40445Y7987D01*
X40447D01*
X40450Y7987D01*
X40453Y7987D01*
X40456Y7988D01*
X40459Y7988D01*
X40461Y7989D01*
X40463Y7990D01*
X40464Y7990D01*
X40464Y7990D01*
X40464D01*
X40467Y7991D01*
X40469Y7993D01*
X40471Y7994D01*
X40473Y7996D01*
X40474Y7997D01*
X40475Y7998D01*
X40476Y7999D01*
X40476Y7999D01*
X40478Y8001D01*
X40479Y8004D01*
X40480Y8006D01*
X40481Y8009D01*
X40482Y8011D01*
X40483Y8013D01*
X40483Y8013D01*
X40483Y8014D01*
X40483Y8014D01*
Y8014D01*
X40499Y8010D01*
X40497Y8005D01*
X40496Y8001D01*
X40494Y7998D01*
X40493Y7995D01*
X40491Y7992D01*
X40491Y7991D01*
X40490Y7991D01*
X40490Y7990D01*
X40489Y7990D01*
X40489Y7989D01*
Y7989D01*
X40486Y7986D01*
X40484Y7984D01*
X40481Y7982D01*
X40478Y7980D01*
X40475Y7979D01*
X40474Y7978D01*
X40473Y7978D01*
X40472Y7977D01*
X40472Y7977D01*
X40472Y7977D01*
X40471D01*
X40467Y7975D01*
X40463Y7974D01*
X40459Y7973D01*
X40455Y7973D01*
X40453Y7972D01*
X40451Y7972D01*
X40450D01*
X40449Y7972D01*
X40446D01*
X40443Y7972D01*
X40440Y7972D01*
X40433Y7973D01*
X40430Y7974D01*
X40427Y7975D01*
X40425Y7975D01*
X40423Y7976D01*
X40420Y7977D01*
X40418Y7978D01*
X40417Y7978D01*
X40415Y7979D01*
X40414Y7979D01*
X40413Y7980D01*
X40413Y7980D01*
X40413Y7980D01*
X40410Y7982D01*
X40408Y7983D01*
X40403Y7987D01*
X40401Y7989D01*
X40399Y7991D01*
X40398Y7993D01*
X40396Y7995D01*
X40395Y7997D01*
X40394Y7998D01*
X40393Y8000D01*
X40392Y8001D01*
X40391Y8002D01*
X40391Y8003D01*
X40390Y8004D01*
X40390Y8004D01*
X40389Y8007D01*
X40388Y8010D01*
X40386Y8016D01*
X40384Y8022D01*
X40384Y8025D01*
X40384Y8027D01*
X40383Y8030D01*
X40383Y8032D01*
X40383Y8034D01*
Y8036D01*
X40383Y8037D01*
Y8038D01*
Y8039D01*
Y8039D01*
X40383Y8042D01*
X40383Y8046D01*
X40384Y8052D01*
X40384Y8055D01*
X40385Y8058D01*
X40386Y8060D01*
X40387Y8063D01*
X40387Y8065D01*
X40388Y8067D01*
X40389Y8069D01*
X40389Y8070D01*
X40390Y8071D01*
X40390Y8072D01*
X40390Y8073D01*
Y8073D01*
X40392Y8076D01*
X40394Y8078D01*
X40395Y8081D01*
X40397Y8083D01*
X40399Y8085D01*
X40401Y8087D01*
X40403Y8089D01*
X40405Y8090D01*
X40407Y8091D01*
X40408Y8093D01*
X40410Y8094D01*
X40411Y8095D01*
X40412Y8095D01*
X40413Y8096D01*
X40413Y8096D01*
X40414Y8096D01*
X40417Y8097D01*
X40420Y8099D01*
X40425Y8101D01*
X40431Y8102D01*
X40434Y8103D01*
X40436Y8103D01*
X40439Y8103D01*
X40441Y8104D01*
X40443Y8104D01*
X40445D01*
X40446Y8104D01*
X40448D01*
X40453Y8104D01*
D02*
G37*
G36*
X40626Y7974D02*
X40610D01*
Y8074D01*
X40543Y7974D01*
X40525D01*
Y8102D01*
X40542D01*
Y8002D01*
X40609Y8102D01*
X40626D01*
Y7974D01*
D02*
G37*
G36*
X41070Y8100D02*
X41074Y8099D01*
X41078Y8099D01*
X41081Y8099D01*
X41083Y8098D01*
X41084Y8098D01*
X41085Y8098D01*
X41086Y8098D01*
X41086D01*
X41086Y8098D01*
X41087D01*
X41090Y8097D01*
X41093Y8096D01*
X41095Y8095D01*
X41097Y8094D01*
X41099Y8093D01*
X41101Y8092D01*
X41101Y8091D01*
X41102Y8091D01*
X41104Y8089D01*
X41106Y8088D01*
X41108Y8086D01*
X41110Y8084D01*
X41112Y8082D01*
X41113Y8081D01*
X41113Y8080D01*
X41114Y8080D01*
X41115Y8077D01*
X41117Y8074D01*
X41119Y8071D01*
X41120Y8068D01*
X41121Y8065D01*
X41121Y8064D01*
X41122Y8063D01*
X41122Y8062D01*
X41122Y8062D01*
X41122Y8061D01*
Y8061D01*
X41123Y8057D01*
X41124Y8052D01*
X41125Y8048D01*
X41125Y8044D01*
X41125Y8042D01*
X41126Y8040D01*
Y8039D01*
X41126Y8038D01*
Y8037D01*
Y8036D01*
Y8035D01*
Y8035D01*
X41126Y8029D01*
X41125Y8023D01*
X41125Y8021D01*
X41124Y8018D01*
X41124Y8016D01*
X41123Y8014D01*
X41123Y8012D01*
X41122Y8010D01*
X41122Y8009D01*
X41121Y8007D01*
X41121Y8006D01*
X41121Y8006D01*
X41121Y8005D01*
Y8005D01*
X41119Y8000D01*
X41116Y7996D01*
X41114Y7992D01*
X41111Y7989D01*
X41110Y7988D01*
X41109Y7987D01*
X41108Y7986D01*
X41107Y7985D01*
X41106Y7984D01*
X41106Y7984D01*
X41106Y7983D01*
X41105Y7983D01*
X41102Y7981D01*
X41099Y7979D01*
X41096Y7977D01*
X41093Y7976D01*
X41091Y7975D01*
X41090Y7975D01*
X41089Y7975D01*
X41088Y7974D01*
X41087Y7974D01*
X41087Y7974D01*
X41087D01*
X41084Y7973D01*
X41080Y7973D01*
X41076Y7973D01*
X41072Y7972D01*
X41069D01*
X41068Y7972D01*
X41020D01*
Y8100D01*
X41066D01*
X41070Y8100D01*
D02*
G37*
G36*
X36679Y7954D02*
X36666D01*
X36664Y7958D01*
X36661Y7962D01*
X36658Y7966D01*
X36655Y7969D01*
X36653Y7972D01*
X36651Y7974D01*
X36650Y7975D01*
X36649Y7975D01*
X36649Y7975D01*
X36649Y7976D01*
X36644Y7980D01*
X36639Y7983D01*
X36634Y7987D01*
X36630Y7989D01*
X36626Y7991D01*
X36624Y7992D01*
X36623Y7993D01*
X36622Y7994D01*
X36621Y7994D01*
X36620Y7994D01*
X36620D01*
Y8014D01*
X36623Y8012D01*
X36627Y8010D01*
X36631Y8009D01*
X36634Y8007D01*
X36636Y8006D01*
X36639Y8004D01*
X36639Y8004D01*
X36640Y8004D01*
X36640Y8003D01*
X36641D01*
X36645Y8001D01*
X36648Y7998D01*
X36652Y7996D01*
X36654Y7994D01*
X36656Y7992D01*
X36658Y7991D01*
X36659Y7990D01*
X36659Y7990D01*
Y8115D01*
X36679D01*
Y7954D01*
D02*
G37*
G36*
X36485Y8050D02*
X36526D01*
X36532Y8050D01*
X36538Y8049D01*
X36543Y8049D01*
X36548Y8048D01*
X36552Y8047D01*
X36556Y8045D01*
X36559Y8044D01*
X36562Y8043D01*
X36565Y8042D01*
X36567Y8040D01*
X36569Y8039D01*
X36570Y8038D01*
X36571Y8037D01*
X36572Y8036D01*
X36572Y8036D01*
X36573Y8036D01*
X36575Y8033D01*
X36577Y8030D01*
X36579Y8027D01*
X36580Y8024D01*
X36582Y8021D01*
X36583Y8019D01*
X36584Y8013D01*
X36585Y8011D01*
X36585Y8009D01*
X36585Y8006D01*
X36586Y8005D01*
X36586Y8003D01*
Y8002D01*
Y8001D01*
Y8001D01*
X36586Y7997D01*
X36585Y7993D01*
X36584Y7989D01*
X36583Y7986D01*
X36582Y7983D01*
X36582Y7981D01*
X36581Y7980D01*
X36581Y7980D01*
X36581Y7980D01*
Y7979D01*
X36579Y7976D01*
X36577Y7973D01*
X36575Y7970D01*
X36572Y7968D01*
X36571Y7966D01*
X36569Y7965D01*
X36568Y7964D01*
X36568Y7964D01*
X36565Y7962D01*
X36561Y7961D01*
X36558Y7959D01*
X36555Y7958D01*
X36553Y7957D01*
X36550Y7957D01*
X36549Y7957D01*
X36549Y7957D01*
X36548D01*
X36545Y7956D01*
X36541Y7956D01*
X36537Y7955D01*
X36533Y7955D01*
X36530Y7955D01*
X36464D01*
Y8115D01*
X36485D01*
Y8050D01*
D02*
G37*
G36*
X41199Y8100D02*
X41203Y8099D01*
X41207Y8099D01*
X41210Y8099D01*
X41212Y8098D01*
X41213Y8098D01*
X41214Y8098D01*
X41215Y8098D01*
X41215D01*
X41215Y8098D01*
X41215D01*
X41219Y8097D01*
X41221Y8096D01*
X41224Y8095D01*
X41226Y8094D01*
X41228Y8093D01*
X41229Y8092D01*
X41230Y8091D01*
X41231Y8091D01*
X41233Y8089D01*
X41235Y8088D01*
X41237Y8086D01*
X41239Y8084D01*
X41240Y8082D01*
X41241Y8081D01*
X41242Y8080D01*
X41242Y8080D01*
X41244Y8077D01*
X41246Y8074D01*
X41248Y8071D01*
X41249Y8068D01*
X41250Y8065D01*
X41250Y8064D01*
X41250Y8063D01*
X41251Y8062D01*
X41251Y8062D01*
X41251Y8061D01*
Y8061D01*
X41252Y8057D01*
X41253Y8052D01*
X41254Y8048D01*
X41254Y8044D01*
X41254Y8042D01*
X41254Y8040D01*
Y8039D01*
X41255Y8038D01*
Y8037D01*
Y8036D01*
Y8035D01*
Y8035D01*
X41254Y8029D01*
X41254Y8023D01*
X41253Y8021D01*
X41253Y8018D01*
X41252Y8016D01*
X41252Y8014D01*
X41252Y8012D01*
X41251Y8010D01*
X41251Y8009D01*
X41250Y8007D01*
X41250Y8006D01*
X41250Y8006D01*
X41249Y8005D01*
Y8005D01*
X41247Y8000D01*
X41245Y7996D01*
X41242Y7992D01*
X41240Y7989D01*
X41239Y7988D01*
X41238Y7987D01*
X41237Y7986D01*
X41236Y7985D01*
X41235Y7984D01*
X41235Y7984D01*
X41234Y7983D01*
X41234Y7983D01*
X41231Y7981D01*
X41228Y7979D01*
X41225Y7977D01*
X41222Y7976D01*
X41219Y7975D01*
X41218Y7975D01*
X41217Y7975D01*
X41217Y7974D01*
X41216Y7974D01*
X41216Y7974D01*
X41216D01*
X41212Y7973D01*
X41209Y7973D01*
X41205Y7973D01*
X41201Y7972D01*
X41198D01*
X41197Y7972D01*
X41149D01*
Y8100D01*
X41195D01*
X41199Y8100D01*
D02*
G37*
G36*
X5715Y3872D02*
Y3865D01*
X5715Y3859D01*
X5715Y3853D01*
X5714Y3848D01*
X5713Y3843D01*
X5713Y3838D01*
X5712Y3834D01*
X5711Y3830D01*
X5710Y3827D01*
X5710Y3824D01*
X5709Y3821D01*
X5708Y3819D01*
X5708Y3818D01*
X5707Y3816D01*
X5707Y3816D01*
Y3816D01*
X5703Y3808D01*
X5699Y3802D01*
X5694Y3797D01*
X5690Y3792D01*
X5685Y3789D01*
X5682Y3786D01*
X5681Y3786D01*
X5679Y3785D01*
X5679Y3784D01*
X5678D01*
X5671Y3781D01*
X5662Y3778D01*
X5653Y3776D01*
X5645Y3775D01*
X5642Y3775D01*
X5638Y3774D01*
X5635Y3774D01*
X5632D01*
X5630Y3774D01*
X5627D01*
X5621Y3774D01*
X5615Y3774D01*
X5610Y3775D01*
X5605Y3776D01*
X5601Y3777D01*
X5596Y3777D01*
X5592Y3779D01*
X5589Y3780D01*
X5586Y3781D01*
X5583Y3782D01*
X5580Y3783D01*
X5578Y3784D01*
X5577Y3785D01*
X5576Y3785D01*
X5575Y3786D01*
X5575D01*
X5571Y3788D01*
X5568Y3791D01*
X5562Y3796D01*
X5557Y3802D01*
X5554Y3807D01*
X5551Y3811D01*
X5550Y3813D01*
X5549Y3815D01*
X5548Y3816D01*
X5548Y3817D01*
X5547Y3818D01*
Y3818D01*
X5546Y3822D01*
X5545Y3826D01*
X5543Y3835D01*
X5541Y3844D01*
X5540Y3853D01*
X5540Y3856D01*
X5540Y3860D01*
Y3863D01*
X5539Y3866D01*
Y3869D01*
Y3870D01*
Y3871D01*
Y3872D01*
Y4001D01*
X5569D01*
Y3872D01*
X5569Y3864D01*
X5570Y3857D01*
X5570Y3851D01*
X5571Y3845D01*
X5572Y3840D01*
X5573Y3835D01*
X5575Y3831D01*
X5576Y3828D01*
X5577Y3825D01*
X5579Y3822D01*
X5580Y3820D01*
X5581Y3818D01*
X5582Y3817D01*
X5582Y3816D01*
X5583Y3815D01*
X5583Y3815D01*
X5586Y3812D01*
X5589Y3810D01*
X5593Y3808D01*
X5596Y3807D01*
X5604Y3804D01*
X5612Y3802D01*
X5615Y3802D01*
X5619Y3801D01*
X5622Y3801D01*
X5624Y3801D01*
X5626Y3800D01*
X5630D01*
X5637Y3801D01*
X5643Y3802D01*
X5648Y3803D01*
X5653Y3804D01*
X5657Y3805D01*
X5660Y3807D01*
X5661Y3807D01*
X5662Y3808D01*
X5662D01*
X5667Y3811D01*
X5670Y3814D01*
X5674Y3818D01*
X5676Y3821D01*
X5678Y3824D01*
X5679Y3827D01*
X5680Y3828D01*
X5681Y3829D01*
Y3829D01*
X5681Y3832D01*
X5682Y3835D01*
X5683Y3841D01*
X5685Y3849D01*
X5685Y3856D01*
Y3859D01*
X5685Y3862D01*
Y3865D01*
X5686Y3867D01*
Y3869D01*
Y3871D01*
Y3872D01*
Y3872D01*
Y4001D01*
X5715D01*
Y3872D01*
D02*
G37*
G36*
X3335Y3657D02*
X3304D01*
X3279Y3724D01*
X3185D01*
X3159Y3657D01*
X3126D01*
X3217Y3880D01*
X3249D01*
X3335Y3657D01*
D02*
G37*
G36*
X3119Y3854D02*
X3045D01*
Y3657D01*
X3015D01*
Y3854D01*
X2942D01*
Y3880D01*
X3119D01*
Y3854D01*
D02*
G37*
G36*
X2928D02*
X2854D01*
Y3657D01*
X2825D01*
Y3854D01*
X2751D01*
Y3880D01*
X2928D01*
Y3854D01*
D02*
G37*
G36*
X3520Y3657D02*
X3435D01*
X3427Y3657D01*
X3420Y3657D01*
X3414Y3658D01*
X3409Y3658D01*
X3404Y3659D01*
X3403Y3659D01*
X3401Y3659D01*
X3400Y3660D01*
X3399Y3660D01*
X3399D01*
X3393Y3662D01*
X3388Y3663D01*
X3384Y3665D01*
X3381Y3667D01*
X3378Y3669D01*
X3376Y3670D01*
X3375Y3671D01*
X3374Y3671D01*
X3371Y3674D01*
X3368Y3678D01*
X3365Y3681D01*
X3362Y3685D01*
X3360Y3687D01*
X3359Y3690D01*
X3358Y3692D01*
X3358Y3692D01*
X3355Y3697D01*
X3354Y3702D01*
X3353Y3707D01*
X3352Y3712D01*
X3351Y3716D01*
X3351Y3719D01*
Y3720D01*
Y3721D01*
Y3721D01*
Y3721D01*
X3352Y3728D01*
X3353Y3735D01*
X3354Y3740D01*
X3356Y3745D01*
X3359Y3749D01*
X3360Y3752D01*
X3361Y3753D01*
X3361Y3754D01*
X3362Y3755D01*
Y3755D01*
X3366Y3760D01*
X3371Y3764D01*
X3377Y3768D01*
X3382Y3771D01*
X3386Y3773D01*
X3388Y3774D01*
X3390Y3774D01*
X3391Y3775D01*
X3392Y3775D01*
X3393Y3776D01*
X3393D01*
X3388Y3779D01*
X3383Y3782D01*
X3379Y3785D01*
X3375Y3788D01*
X3373Y3791D01*
X3371Y3794D01*
X3370Y3795D01*
X3370Y3796D01*
X3367Y3801D01*
X3365Y3805D01*
X3364Y3810D01*
X3363Y3814D01*
X3362Y3818D01*
X3362Y3821D01*
Y3822D01*
Y3822D01*
Y3823D01*
Y3823D01*
X3362Y3829D01*
X3363Y3834D01*
X3365Y3839D01*
X3366Y3843D01*
X3368Y3847D01*
X3369Y3850D01*
X3370Y3852D01*
X3371Y3852D01*
Y3852D01*
X3374Y3857D01*
X3378Y3862D01*
X3382Y3865D01*
X3386Y3868D01*
X3390Y3870D01*
X3392Y3872D01*
X3393Y3873D01*
X3394Y3873D01*
X3395Y3873D01*
X3395D01*
X3401Y3876D01*
X3408Y3877D01*
X3415Y3879D01*
X3421Y3880D01*
X3427Y3880D01*
X3430D01*
X3432Y3880D01*
X3520D01*
Y3657D01*
D02*
G37*
G36*
X2165D02*
X2136D01*
Y3832D01*
X2019Y3657D01*
X1989D01*
Y3880D01*
X2017D01*
Y3705D01*
X2135Y3880D01*
X2165D01*
Y3657D01*
D02*
G37*
G36*
X1939D02*
X1911D01*
Y3832D01*
X1793Y3657D01*
X1763D01*
Y3880D01*
X1791D01*
Y3705D01*
X1909Y3880D01*
X1939D01*
Y3657D01*
D02*
G37*
G36*
X2547Y3884D02*
X2557Y3882D01*
X2567Y3880D01*
X2571Y3879D01*
X2575Y3877D01*
X2578Y3876D01*
X2582Y3875D01*
X2584Y3874D01*
X2587Y3873D01*
X2588Y3872D01*
X2590Y3871D01*
X2591Y3871D01*
X2591Y3870D01*
X2595Y3868D01*
X2600Y3865D01*
X2607Y3859D01*
X2614Y3852D01*
X2619Y3846D01*
X2621Y3843D01*
X2623Y3840D01*
X2625Y3837D01*
X2626Y3835D01*
X2628Y3834D01*
X2628Y3832D01*
X2629Y3831D01*
X2629Y3831D01*
X2631Y3826D01*
X2633Y3821D01*
X2637Y3811D01*
X2639Y3800D01*
X2640Y3795D01*
X2640Y3791D01*
X2641Y3786D01*
X2641Y3783D01*
X2642Y3779D01*
Y3776D01*
X2642Y3774D01*
Y3772D01*
Y3770D01*
Y3770D01*
X2641Y3758D01*
X2640Y3747D01*
X2639Y3742D01*
X2638Y3737D01*
X2637Y3733D01*
X2636Y3728D01*
X2635Y3724D01*
X2634Y3721D01*
X2633Y3718D01*
X2632Y3715D01*
X2632Y3713D01*
X2631Y3711D01*
X2630Y3710D01*
Y3710D01*
X2628Y3705D01*
X2625Y3700D01*
X2623Y3696D01*
X2620Y3692D01*
X2617Y3688D01*
X2614Y3684D01*
X2612Y3681D01*
X2609Y3678D01*
X2606Y3676D01*
X2604Y3673D01*
X2601Y3672D01*
X2600Y3670D01*
X2598Y3669D01*
X2597Y3668D01*
X2596Y3668D01*
X2596Y3667D01*
X2591Y3665D01*
X2587Y3663D01*
X2582Y3661D01*
X2577Y3659D01*
X2567Y3656D01*
X2558Y3655D01*
X2553Y3654D01*
X2550Y3654D01*
X2546Y3653D01*
X2543Y3653D01*
X2540Y3653D01*
X2537D01*
X2530Y3653D01*
X2524Y3654D01*
X2518Y3655D01*
X2513Y3656D01*
X2508Y3657D01*
X2503Y3659D01*
X2498Y3660D01*
X2494Y3662D01*
X2490Y3664D01*
X2487Y3666D01*
X2484Y3667D01*
X2482Y3669D01*
X2480Y3670D01*
X2479Y3671D01*
X2478Y3671D01*
X2478Y3672D01*
X2473Y3676D01*
X2469Y3680D01*
X2465Y3684D01*
X2462Y3689D01*
X2459Y3693D01*
X2456Y3698D01*
X2454Y3702D01*
X2452Y3707D01*
X2450Y3711D01*
X2448Y3715D01*
X2447Y3718D01*
X2446Y3721D01*
X2445Y3724D01*
X2445Y3726D01*
X2444Y3727D01*
Y3727D01*
X2474Y3735D01*
X2475Y3730D01*
X2476Y3725D01*
X2478Y3721D01*
X2480Y3716D01*
X2482Y3712D01*
X2484Y3709D01*
X2486Y3706D01*
X2488Y3703D01*
X2490Y3701D01*
X2491Y3698D01*
X2493Y3696D01*
X2494Y3695D01*
X2495Y3694D01*
X2496Y3693D01*
X2497Y3693D01*
X2497Y3692D01*
X2500Y3690D01*
X2504Y3688D01*
X2507Y3686D01*
X2511Y3684D01*
X2518Y3682D01*
X2525Y3680D01*
X2528Y3679D01*
X2531Y3679D01*
X2533Y3679D01*
X2535Y3678D01*
X2537Y3678D01*
X2539D01*
X2547Y3679D01*
X2554Y3680D01*
X2560Y3681D01*
X2566Y3683D01*
X2571Y3685D01*
X2573Y3686D01*
X2574Y3687D01*
X2576Y3688D01*
X2577Y3688D01*
X2577Y3689D01*
X2577D01*
X2584Y3693D01*
X2589Y3698D01*
X2593Y3703D01*
X2597Y3708D01*
X2600Y3713D01*
X2601Y3715D01*
X2602Y3717D01*
X2603Y3718D01*
X2603Y3719D01*
X2603Y3720D01*
Y3720D01*
X2606Y3728D01*
X2608Y3737D01*
X2609Y3745D01*
X2610Y3753D01*
X2611Y3757D01*
Y3760D01*
X2611Y3763D01*
X2612Y3765D01*
Y3767D01*
Y3769D01*
Y3770D01*
Y3770D01*
X2611Y3778D01*
X2610Y3786D01*
X2609Y3793D01*
X2608Y3800D01*
X2607Y3803D01*
X2607Y3805D01*
X2606Y3808D01*
X2606Y3810D01*
X2605Y3811D01*
X2605Y3812D01*
X2605Y3813D01*
Y3813D01*
X2602Y3821D01*
X2598Y3827D01*
X2594Y3833D01*
X2590Y3838D01*
X2586Y3841D01*
X2583Y3844D01*
X2582Y3845D01*
X2581Y3846D01*
X2581Y3846D01*
X2580D01*
X2577Y3849D01*
X2573Y3850D01*
X2566Y3854D01*
X2559Y3856D01*
X2552Y3857D01*
X2549Y3858D01*
X2546Y3858D01*
X2543Y3859D01*
X2541D01*
X2540Y3859D01*
X2537D01*
X2529Y3858D01*
X2522Y3857D01*
X2515Y3855D01*
X2510Y3853D01*
X2505Y3851D01*
X2504Y3850D01*
X2502Y3849D01*
X2501Y3849D01*
X2500Y3848D01*
X2500Y3847D01*
X2499D01*
X2497Y3845D01*
X2494Y3843D01*
X2490Y3837D01*
X2486Y3831D01*
X2483Y3826D01*
X2480Y3820D01*
X2479Y3818D01*
X2478Y3816D01*
X2478Y3814D01*
X2477Y3813D01*
X2477Y3812D01*
Y3812D01*
X2448Y3819D01*
X2449Y3825D01*
X2452Y3830D01*
X2454Y3835D01*
X2457Y3840D01*
X2459Y3844D01*
X2462Y3848D01*
X2465Y3851D01*
X2467Y3854D01*
X2470Y3857D01*
X2472Y3860D01*
X2474Y3862D01*
X2476Y3864D01*
X2478Y3865D01*
X2479Y3866D01*
X2480Y3867D01*
X2480Y3867D01*
X2484Y3870D01*
X2489Y3873D01*
X2494Y3875D01*
X2498Y3877D01*
X2503Y3879D01*
X2508Y3880D01*
X2517Y3882D01*
X2521Y3883D01*
X2525Y3883D01*
X2528Y3884D01*
X2531Y3884D01*
X2533Y3884D01*
X2542D01*
X2547Y3884D01*
D02*
G37*
G36*
X2318Y3884D02*
X2326Y3883D01*
X2334Y3881D01*
X2341Y3879D01*
X2348Y3877D01*
X2355Y3874D01*
X2361Y3871D01*
X2366Y3868D01*
X2371Y3865D01*
X2375Y3863D01*
X2378Y3860D01*
X2381Y3857D01*
X2384Y3855D01*
X2385Y3854D01*
X2387Y3853D01*
X2387Y3852D01*
X2392Y3846D01*
X2397Y3840D01*
X2401Y3833D01*
X2404Y3826D01*
X2407Y3818D01*
X2409Y3811D01*
X2411Y3804D01*
X2413Y3797D01*
X2414Y3791D01*
X2415Y3785D01*
X2416Y3779D01*
X2416Y3775D01*
X2416Y3771D01*
X2417Y3768D01*
Y3767D01*
Y3766D01*
Y3766D01*
Y3765D01*
X2416Y3760D01*
X2416Y3755D01*
X2415Y3744D01*
X2412Y3735D01*
X2411Y3731D01*
X2410Y3726D01*
X2409Y3723D01*
X2408Y3719D01*
X2407Y3717D01*
X2406Y3714D01*
X2405Y3712D01*
X2404Y3711D01*
X2404Y3710D01*
Y3710D01*
X2399Y3700D01*
X2392Y3692D01*
X2389Y3688D01*
X2386Y3685D01*
X2383Y3682D01*
X2380Y3679D01*
X2377Y3676D01*
X2375Y3674D01*
X2372Y3672D01*
X2370Y3671D01*
X2369Y3669D01*
X2367Y3669D01*
X2367Y3668D01*
X2366Y3668D01*
X2362Y3665D01*
X2357Y3663D01*
X2352Y3661D01*
X2347Y3659D01*
X2337Y3657D01*
X2329Y3655D01*
X2325Y3654D01*
X2321Y3654D01*
X2318Y3653D01*
X2315Y3653D01*
X2313Y3653D01*
X2310D01*
X2304Y3653D01*
X2299Y3653D01*
X2289Y3655D01*
X2280Y3657D01*
X2276Y3658D01*
X2272Y3660D01*
X2268Y3661D01*
X2265Y3662D01*
X2262Y3663D01*
X2260Y3664D01*
X2258Y3665D01*
X2257Y3666D01*
X2256Y3666D01*
X2256D01*
X2251Y3669D01*
X2247Y3672D01*
X2239Y3679D01*
X2232Y3685D01*
X2229Y3689D01*
X2227Y3692D01*
X2224Y3695D01*
X2222Y3698D01*
X2221Y3700D01*
X2219Y3703D01*
X2218Y3704D01*
X2217Y3706D01*
X2217Y3707D01*
X2217Y3707D01*
X2214Y3712D01*
X2212Y3717D01*
X2208Y3728D01*
X2206Y3738D01*
X2205Y3743D01*
X2204Y3748D01*
X2204Y3752D01*
X2203Y3756D01*
X2203Y3759D01*
Y3762D01*
X2203Y3765D01*
Y3767D01*
Y3768D01*
Y3768D01*
Y3774D01*
X2203Y3780D01*
X2205Y3792D01*
X2206Y3797D01*
X2207Y3802D01*
X2208Y3806D01*
X2209Y3811D01*
X2211Y3814D01*
X2212Y3818D01*
X2213Y3821D01*
X2214Y3823D01*
X2215Y3825D01*
X2215Y3827D01*
X2215Y3828D01*
X2216Y3828D01*
X2221Y3837D01*
X2224Y3842D01*
X2227Y3846D01*
X2230Y3849D01*
X2234Y3853D01*
X2237Y3856D01*
X2240Y3859D01*
X2243Y3861D01*
X2245Y3863D01*
X2248Y3865D01*
X2250Y3867D01*
X2252Y3868D01*
X2253Y3869D01*
X2254Y3869D01*
X2254Y3869D01*
X2259Y3872D01*
X2263Y3874D01*
X2268Y3876D01*
X2273Y3878D01*
X2282Y3881D01*
X2291Y3882D01*
X2295Y3883D01*
X2298Y3883D01*
X2302Y3884D01*
X2304Y3884D01*
X2307Y3884D01*
X2309D01*
X2318Y3884D01*
D02*
G37*
G36*
X-95Y3660D02*
X-176D01*
X-183Y3661D01*
X-190Y3661D01*
X-196Y3662D01*
X-202Y3662D01*
X-206Y3663D01*
X-208Y3663D01*
X-209Y3664D01*
X-210Y3664D01*
X-211D01*
X-212Y3664D01*
X-212D01*
X-217Y3666D01*
X-223Y3667D01*
X-227Y3669D01*
X-231Y3671D01*
X-234Y3673D01*
X-237Y3674D01*
X-238Y3675D01*
X-239Y3675D01*
X-243Y3678D01*
X-247Y3682D01*
X-250Y3685D01*
X-253Y3688D01*
X-256Y3691D01*
X-258Y3694D01*
X-259Y3695D01*
X-259Y3696D01*
X-262Y3701D01*
X-266Y3706D01*
X-268Y3712D01*
X-270Y3717D01*
X-272Y3721D01*
X-273Y3723D01*
X-273Y3725D01*
X-274Y3726D01*
X-274Y3727D01*
X-274Y3728D01*
Y3728D01*
X-276Y3736D01*
X-278Y3744D01*
X-279Y3751D01*
X-280Y3758D01*
X-280Y3761D01*
X-280Y3764D01*
Y3767D01*
X-281Y3769D01*
Y3771D01*
Y3772D01*
Y3773D01*
Y3773D01*
X-280Y3784D01*
X-279Y3794D01*
X-279Y3799D01*
X-278Y3803D01*
X-277Y3807D01*
X-276Y3811D01*
X-275Y3815D01*
X-274Y3818D01*
X-274Y3820D01*
X-273Y3822D01*
X-272Y3824D01*
X-272Y3825D01*
X-272Y3826D01*
Y3827D01*
X-268Y3835D01*
X-264Y3842D01*
X-259Y3849D01*
X-255Y3854D01*
X-253Y3857D01*
X-251Y3859D01*
X-249Y3861D01*
X-248Y3862D01*
X-247Y3863D01*
X-246Y3864D01*
X-245Y3864D01*
X-245Y3865D01*
X-240Y3869D01*
X-234Y3872D01*
X-229Y3875D01*
X-224Y3877D01*
X-219Y3879D01*
X-217Y3879D01*
X-215Y3880D01*
X-214Y3880D01*
X-213Y3880D01*
X-212Y3881D01*
X-212D01*
X-207Y3882D01*
X-200Y3883D01*
X-194Y3883D01*
X-187Y3884D01*
X-182D01*
X-179Y3884D01*
X-95D01*
Y3660D01*
D02*
G37*
G36*
X-322D02*
X-489D01*
Y3687D01*
X-352D01*
Y3763D01*
X-475D01*
Y3790D01*
X-352D01*
Y3858D01*
X-483D01*
Y3884D01*
X-322D01*
Y3660D01*
D02*
G37*
G36*
X-528D02*
X-613D01*
X-621Y3661D01*
X-628Y3661D01*
X-634Y3662D01*
X-640Y3662D01*
X-644Y3663D01*
X-645Y3663D01*
X-647Y3663D01*
X-648Y3664D01*
X-649Y3664D01*
X-650D01*
X-655Y3665D01*
X-660Y3667D01*
X-664Y3669D01*
X-667Y3671D01*
X-670Y3672D01*
X-672Y3674D01*
X-674Y3675D01*
X-674Y3675D01*
X-677Y3678D01*
X-681Y3681D01*
X-684Y3685D01*
X-686Y3688D01*
X-688Y3691D01*
X-689Y3694D01*
X-690Y3695D01*
X-691Y3696D01*
X-693Y3701D01*
X-694Y3706D01*
X-696Y3711D01*
X-696Y3715D01*
X-697Y3719D01*
X-697Y3722D01*
Y3724D01*
Y3724D01*
Y3725D01*
Y3725D01*
X-697Y3732D01*
X-696Y3738D01*
X-694Y3744D01*
X-692Y3749D01*
X-690Y3753D01*
X-688Y3756D01*
X-687Y3757D01*
X-687Y3758D01*
X-686Y3758D01*
Y3759D01*
X-682Y3764D01*
X-677Y3768D01*
X-672Y3772D01*
X-667Y3774D01*
X-662Y3777D01*
X-660Y3778D01*
X-659Y3778D01*
X-657Y3779D01*
X-656Y3779D01*
X-655Y3779D01*
X-655D01*
X-661Y3782D01*
X-665Y3786D01*
X-669Y3789D01*
X-673Y3792D01*
X-675Y3795D01*
X-677Y3797D01*
X-678Y3799D01*
X-679Y3799D01*
X-681Y3804D01*
X-683Y3809D01*
X-684Y3814D01*
X-686Y3818D01*
X-686Y3822D01*
X-686Y3825D01*
Y3825D01*
Y3826D01*
Y3827D01*
Y3827D01*
X-686Y3833D01*
X-685Y3838D01*
X-684Y3843D01*
X-682Y3847D01*
X-680Y3851D01*
X-679Y3854D01*
X-678Y3856D01*
X-677Y3856D01*
Y3856D01*
X-674Y3861D01*
X-670Y3866D01*
X-666Y3869D01*
X-662Y3872D01*
X-659Y3874D01*
X-656Y3876D01*
X-655Y3877D01*
X-654Y3877D01*
X-654Y3877D01*
X-653D01*
X-647Y3880D01*
X-640Y3881D01*
X-634Y3882D01*
X-627Y3883D01*
X-621Y3884D01*
X-619D01*
X-617Y3884D01*
X-528D01*
Y3660D01*
D02*
G37*
G36*
X-1062Y3888D02*
X-1056Y3887D01*
X-1045Y3886D01*
X-1039Y3885D01*
X-1035Y3884D01*
X-1030Y3882D01*
X-1026Y3881D01*
X-1022Y3880D01*
X-1019Y3878D01*
X-1016Y3877D01*
X-1014Y3876D01*
X-1012Y3875D01*
X-1010Y3875D01*
X-1009Y3874D01*
X-1009Y3874D01*
X-1004Y3871D01*
X-1000Y3868D01*
X-992Y3862D01*
X-989Y3858D01*
X-985Y3855D01*
X-982Y3851D01*
X-980Y3848D01*
X-977Y3845D01*
X-975Y3842D01*
X-974Y3839D01*
X-972Y3837D01*
X-971Y3835D01*
X-970Y3833D01*
X-970Y3832D01*
X-970Y3832D01*
X-967Y3827D01*
X-965Y3821D01*
X-962Y3811D01*
X-959Y3800D01*
X-959Y3795D01*
X-958Y3791D01*
X-957Y3787D01*
X-957Y3783D01*
X-957Y3779D01*
Y3776D01*
X-956Y3774D01*
Y3772D01*
Y3771D01*
Y3771D01*
X-957Y3765D01*
X-957Y3759D01*
X-958Y3748D01*
X-959Y3742D01*
X-961Y3738D01*
X-962Y3733D01*
X-963Y3729D01*
X-964Y3725D01*
X-966Y3721D01*
X-967Y3719D01*
X-968Y3716D01*
X-969Y3714D01*
X-969Y3712D01*
X-970Y3712D01*
Y3711D01*
X-973Y3706D01*
X-975Y3702D01*
X-979Y3698D01*
X-982Y3694D01*
X-985Y3690D01*
X-989Y3687D01*
X-992Y3684D01*
X-995Y3681D01*
X-998Y3679D01*
X-1001Y3676D01*
X-1004Y3675D01*
X-1006Y3673D01*
X-1008Y3672D01*
X-1009Y3671D01*
X-1010Y3671D01*
X-1010Y3671D01*
X-1016Y3668D01*
X-1021Y3666D01*
X-1031Y3662D01*
X-1041Y3660D01*
X-1046Y3659D01*
X-1051Y3658D01*
X-1055Y3658D01*
X-1058Y3657D01*
X-1062Y3657D01*
X-1065D01*
X-1067Y3657D01*
X-1070D01*
X-1079Y3657D01*
X-1088Y3658D01*
X-1096Y3659D01*
X-1103Y3661D01*
X-1106Y3662D01*
X-1109Y3663D01*
X-1112Y3663D01*
X-1114Y3664D01*
X-1116Y3664D01*
X-1117Y3665D01*
X-1118Y3665D01*
X-1118D01*
X-1127Y3669D01*
X-1135Y3673D01*
X-1142Y3677D01*
X-1149Y3682D01*
X-1152Y3684D01*
X-1155Y3685D01*
X-1157Y3687D01*
X-1159Y3688D01*
X-1161Y3689D01*
X-1162Y3690D01*
X-1163Y3691D01*
X-1163Y3691D01*
Y3774D01*
X-1068D01*
Y3748D01*
X-1134D01*
Y3706D01*
X-1130Y3703D01*
X-1126Y3700D01*
X-1121Y3697D01*
X-1117Y3695D01*
X-1112Y3693D01*
X-1109Y3692D01*
X-1108Y3691D01*
X-1107Y3691D01*
X-1106Y3690D01*
X-1106D01*
X-1099Y3688D01*
X-1092Y3686D01*
X-1086Y3685D01*
X-1080Y3684D01*
X-1076Y3683D01*
X-1074D01*
X-1072Y3683D01*
X-1069D01*
X-1060Y3683D01*
X-1053Y3685D01*
X-1046Y3686D01*
X-1039Y3688D01*
X-1037Y3689D01*
X-1034Y3690D01*
X-1032Y3690D01*
X-1030Y3691D01*
X-1029Y3692D01*
X-1028Y3692D01*
X-1027Y3693D01*
X-1027D01*
X-1020Y3697D01*
X-1014Y3701D01*
X-1009Y3707D01*
X-1005Y3711D01*
X-1001Y3716D01*
X-1000Y3718D01*
X-999Y3719D01*
X-998Y3721D01*
X-998Y3722D01*
X-997Y3722D01*
Y3723D01*
X-993Y3731D01*
X-991Y3739D01*
X-989Y3747D01*
X-988Y3755D01*
X-988Y3759D01*
X-987Y3762D01*
X-987Y3765D01*
Y3768D01*
X-987Y3770D01*
Y3771D01*
Y3772D01*
Y3773D01*
X-987Y3782D01*
X-988Y3790D01*
X-989Y3798D01*
X-991Y3804D01*
X-992Y3807D01*
X-993Y3810D01*
X-993Y3812D01*
X-994Y3814D01*
X-994Y3816D01*
X-995Y3817D01*
X-995Y3818D01*
Y3818D01*
X-997Y3822D01*
X-1000Y3827D01*
X-1002Y3830D01*
X-1004Y3834D01*
X-1006Y3836D01*
X-1008Y3838D01*
X-1009Y3839D01*
X-1009Y3840D01*
X-1013Y3843D01*
X-1017Y3847D01*
X-1021Y3850D01*
X-1025Y3852D01*
X-1028Y3854D01*
X-1031Y3855D01*
X-1032Y3856D01*
X-1033Y3856D01*
X-1033D01*
X-1039Y3858D01*
X-1045Y3860D01*
X-1051Y3861D01*
X-1056Y3862D01*
X-1061Y3862D01*
X-1063D01*
X-1065Y3863D01*
X-1068D01*
X-1074Y3862D01*
X-1080Y3862D01*
X-1085Y3861D01*
X-1090Y3860D01*
X-1094Y3859D01*
X-1097Y3857D01*
X-1098Y3857D01*
X-1099Y3857D01*
X-1099D01*
X-1104Y3854D01*
X-1108Y3852D01*
X-1112Y3849D01*
X-1115Y3847D01*
X-1117Y3844D01*
X-1119Y3843D01*
X-1120Y3841D01*
X-1120Y3841D01*
X-1123Y3837D01*
X-1126Y3833D01*
X-1128Y3828D01*
X-1129Y3824D01*
X-1131Y3820D01*
X-1132Y3817D01*
X-1132Y3816D01*
X-1133Y3815D01*
X-1133Y3814D01*
Y3814D01*
X-1160Y3821D01*
X-1157Y3829D01*
X-1154Y3837D01*
X-1152Y3843D01*
X-1149Y3848D01*
X-1146Y3852D01*
X-1145Y3854D01*
X-1144Y3855D01*
X-1144Y3857D01*
X-1143Y3857D01*
X-1142Y3858D01*
Y3858D01*
X-1138Y3863D01*
X-1133Y3867D01*
X-1128Y3871D01*
X-1123Y3874D01*
X-1119Y3877D01*
X-1117Y3877D01*
X-1115Y3878D01*
X-1114Y3879D01*
X-1113Y3880D01*
X-1112Y3880D01*
X-1112D01*
X-1104Y3882D01*
X-1097Y3884D01*
X-1090Y3886D01*
X-1083Y3887D01*
X-1080Y3887D01*
X-1077Y3888D01*
X-1074D01*
X-1072Y3888D01*
X-1068D01*
X-1062Y3888D01*
D02*
G37*
G36*
X435Y3657D02*
X350D01*
X342Y3657D01*
X335Y3657D01*
X329Y3658D01*
X323Y3658D01*
X319Y3659D01*
X318Y3659D01*
X316Y3659D01*
X315Y3660D01*
X314Y3660D01*
X313D01*
X308Y3662D01*
X303Y3663D01*
X299Y3665D01*
X296Y3667D01*
X293Y3669D01*
X291Y3670D01*
X289Y3671D01*
X289Y3671D01*
X286Y3674D01*
X282Y3678D01*
X279Y3681D01*
X277Y3685D01*
X275Y3687D01*
X274Y3690D01*
X273Y3692D01*
X272Y3692D01*
X270Y3697D01*
X269Y3702D01*
X268Y3707D01*
X267Y3712D01*
X266Y3716D01*
X266Y3719D01*
Y3720D01*
Y3721D01*
Y3721D01*
Y3721D01*
X266Y3728D01*
X268Y3735D01*
X269Y3740D01*
X271Y3745D01*
X273Y3749D01*
X275Y3752D01*
X276Y3753D01*
X276Y3754D01*
X277Y3755D01*
Y3755D01*
X281Y3760D01*
X286Y3764D01*
X291Y3768D01*
X296Y3771D01*
X301Y3773D01*
X303Y3774D01*
X304Y3774D01*
X306Y3775D01*
X307Y3775D01*
X308Y3776D01*
X308D01*
X302Y3779D01*
X298Y3782D01*
X294Y3785D01*
X290Y3788D01*
X288Y3791D01*
X286Y3794D01*
X285Y3795D01*
X284Y3796D01*
X282Y3801D01*
X280Y3805D01*
X279Y3810D01*
X277Y3814D01*
X277Y3818D01*
X277Y3821D01*
Y3822D01*
Y3822D01*
Y3823D01*
Y3823D01*
X277Y3829D01*
X278Y3834D01*
X279Y3839D01*
X281Y3843D01*
X283Y3847D01*
X284Y3850D01*
X285Y3852D01*
X286Y3852D01*
Y3852D01*
X289Y3857D01*
X293Y3862D01*
X297Y3865D01*
X301Y3868D01*
X304Y3870D01*
X307Y3872D01*
X308Y3873D01*
X309Y3873D01*
X309Y3873D01*
X310D01*
X316Y3876D01*
X323Y3877D01*
X329Y3879D01*
X336Y3880D01*
X342Y3880D01*
X344D01*
X346Y3880D01*
X435D01*
Y3657D01*
D02*
G37*
G36*
X242Y3854D02*
X168D01*
Y3657D01*
X139D01*
Y3854D01*
X65D01*
Y3880D01*
X242D01*
Y3854D01*
D02*
G37*
G36*
X-738Y3755D02*
Y3748D01*
X-739Y3742D01*
X-739Y3736D01*
X-740Y3731D01*
X-740Y3726D01*
X-741Y3721D01*
X-742Y3717D01*
X-743Y3713D01*
X-743Y3710D01*
X-744Y3707D01*
X-745Y3704D01*
X-746Y3702D01*
X-746Y3701D01*
X-746Y3699D01*
X-747Y3699D01*
Y3698D01*
X-750Y3691D01*
X-755Y3685D01*
X-760Y3680D01*
X-764Y3675D01*
X-769Y3672D01*
X-772Y3669D01*
X-773Y3669D01*
X-774Y3668D01*
X-775Y3667D01*
X-775D01*
X-783Y3664D01*
X-792Y3661D01*
X-800Y3659D01*
X-808Y3658D01*
X-812Y3657D01*
X-816Y3657D01*
X-819Y3657D01*
X-821D01*
X-824Y3657D01*
X-827D01*
X-833Y3657D01*
X-838Y3657D01*
X-844Y3658D01*
X-849Y3659D01*
X-853Y3659D01*
X-857Y3660D01*
X-861Y3662D01*
X-865Y3663D01*
X-868Y3664D01*
X-871Y3665D01*
X-873Y3666D01*
X-875Y3667D01*
X-877Y3668D01*
X-878Y3668D01*
X-879Y3669D01*
X-879D01*
X-882Y3671D01*
X-886Y3674D01*
X-892Y3679D01*
X-896Y3685D01*
X-900Y3690D01*
X-903Y3694D01*
X-904Y3696D01*
X-905Y3698D01*
X-906Y3699D01*
X-906Y3700D01*
X-906Y3701D01*
Y3701D01*
X-908Y3705D01*
X-909Y3709D01*
X-911Y3718D01*
X-912Y3727D01*
X-913Y3735D01*
X-914Y3739D01*
X-914Y3743D01*
Y3746D01*
X-914Y3749D01*
Y3751D01*
Y3753D01*
Y3754D01*
Y3755D01*
Y3884D01*
X-885D01*
Y3755D01*
X-884Y3747D01*
X-884Y3740D01*
X-883Y3734D01*
X-883Y3728D01*
X-881Y3723D01*
X-880Y3718D01*
X-879Y3714D01*
X-878Y3711D01*
X-877Y3708D01*
X-875Y3705D01*
X-874Y3703D01*
X-873Y3701D01*
X-872Y3700D01*
X-871Y3699D01*
X-871Y3698D01*
X-871Y3698D01*
X-868Y3695D01*
X-865Y3693D01*
X-861Y3691D01*
X-858Y3689D01*
X-850Y3687D01*
X-842Y3685D01*
X-839Y3685D01*
X-835Y3684D01*
X-832Y3684D01*
X-829Y3684D01*
X-827Y3683D01*
X-824D01*
X-817Y3684D01*
X-811Y3685D01*
X-806Y3686D01*
X-801Y3687D01*
X-797Y3688D01*
X-794Y3689D01*
X-792Y3690D01*
X-792Y3691D01*
X-792D01*
X-787Y3694D01*
X-783Y3697D01*
X-780Y3701D01*
X-778Y3704D01*
X-776Y3707D01*
X-774Y3710D01*
X-773Y3711D01*
X-773Y3712D01*
Y3712D01*
X-772Y3715D01*
X-771Y3718D01*
X-770Y3724D01*
X-769Y3732D01*
X-769Y3739D01*
Y3742D01*
X-768Y3745D01*
Y3748D01*
X-768Y3750D01*
Y3752D01*
Y3754D01*
Y3755D01*
Y3755D01*
Y3884D01*
X-738D01*
Y3755D01*
D02*
G37*
G36*
X39149Y8117D02*
X39154Y8117D01*
X39158Y8115D01*
X39162Y8114D01*
X39165Y8113D01*
X39167Y8112D01*
X39168Y8112D01*
X39169Y8111D01*
X39169Y8111D01*
X39169Y8111D01*
X39170D01*
X39174Y8108D01*
X39177Y8105D01*
X39180Y8101D01*
X39183Y8098D01*
X39185Y8095D01*
X39186Y8093D01*
X39187Y8092D01*
X39187Y8092D01*
X39188Y8091D01*
Y8091D01*
X39190Y8086D01*
X39191Y8081D01*
X39193Y8076D01*
X39193Y8072D01*
X39194Y8068D01*
X39194Y8067D01*
X39194Y8066D01*
Y8065D01*
Y8064D01*
Y8063D01*
Y8063D01*
X39194Y8059D01*
X39194Y8055D01*
X39193Y8051D01*
X39192Y8047D01*
X39191Y8044D01*
X39190Y8041D01*
X39189Y8038D01*
X39187Y8036D01*
X39186Y8034D01*
X39185Y8031D01*
X39184Y8030D01*
X39183Y8028D01*
X39181Y8027D01*
X39181Y8026D01*
X39180Y8026D01*
X39180Y8026D01*
X39178Y8023D01*
X39175Y8021D01*
X39172Y8019D01*
X39169Y8017D01*
X39166Y8016D01*
X39164Y8015D01*
X39161Y8014D01*
X39158Y8013D01*
X39156Y8012D01*
X39154Y8012D01*
X39152Y8011D01*
X39150Y8011D01*
X39149Y8011D01*
X39147D01*
X39143Y8011D01*
X39139Y8012D01*
X39135Y8013D01*
X39132Y8014D01*
X39129Y8015D01*
X39127Y8016D01*
X39126Y8016D01*
X39126Y8016D01*
X39126Y8016D01*
X39125D01*
X39122Y8019D01*
X39118Y8021D01*
X39115Y8024D01*
X39113Y8026D01*
X39111Y8029D01*
X39109Y8031D01*
X39108Y8032D01*
X39108Y8032D01*
Y8028D01*
X39108Y8024D01*
X39109Y8020D01*
X39109Y8016D01*
X39109Y8013D01*
X39110Y8010D01*
X39110Y8007D01*
X39111Y8005D01*
X39111Y8003D01*
X39112Y8001D01*
X39112Y7999D01*
X39113Y7998D01*
X39113Y7997D01*
X39113Y7996D01*
X39113Y7996D01*
Y7995D01*
X39116Y7991D01*
X39118Y7987D01*
X39121Y7984D01*
X39123Y7981D01*
X39125Y7979D01*
X39127Y7977D01*
X39128Y7976D01*
X39128Y7976D01*
X39131Y7974D01*
X39134Y7973D01*
X39137Y7972D01*
X39139Y7971D01*
X39141Y7971D01*
X39143Y7970D01*
X39145D01*
X39149Y7971D01*
X39153Y7972D01*
X39156Y7973D01*
X39159Y7975D01*
X39161Y7976D01*
X39163Y7978D01*
X39164Y7978D01*
X39164Y7979D01*
X39166Y7981D01*
X39168Y7984D01*
X39169Y7986D01*
X39170Y7989D01*
X39171Y7991D01*
X39171Y7994D01*
X39172Y7994D01*
Y7995D01*
X39172Y7995D01*
Y7995D01*
X39191Y7994D01*
X39191Y7991D01*
X39190Y7987D01*
X39188Y7982D01*
X39187Y7979D01*
X39186Y7977D01*
X39185Y7974D01*
X39183Y7973D01*
X39182Y7971D01*
X39181Y7969D01*
X39180Y7968D01*
X39179Y7967D01*
X39178Y7966D01*
X39178Y7965D01*
X39177Y7965D01*
X39177Y7965D01*
X39175Y7963D01*
X39172Y7961D01*
X39170Y7960D01*
X39167Y7959D01*
X39162Y7957D01*
X39157Y7956D01*
X39155Y7955D01*
X39153Y7955D01*
X39151Y7955D01*
X39149Y7954D01*
X39148Y7954D01*
X39146D01*
X39141Y7954D01*
X39137Y7955D01*
X39133Y7956D01*
X39129Y7957D01*
X39125Y7959D01*
X39122Y7960D01*
X39119Y7962D01*
X39116Y7963D01*
X39114Y7965D01*
X39112Y7967D01*
X39110Y7968D01*
X39108Y7970D01*
X39107Y7971D01*
X39106Y7972D01*
X39106Y7973D01*
X39106Y7973D01*
X39103Y7977D01*
X39100Y7982D01*
X39098Y7987D01*
X39096Y7992D01*
X39094Y7998D01*
X39093Y8003D01*
X39092Y8009D01*
X39091Y8014D01*
X39090Y8020D01*
X39089Y8024D01*
X39089Y8029D01*
X39089Y8033D01*
Y8036D01*
X39088Y8037D01*
Y8038D01*
Y8039D01*
Y8040D01*
Y8040D01*
Y8040D01*
X39089Y8048D01*
X39089Y8055D01*
X39090Y8061D01*
X39091Y8067D01*
X39092Y8072D01*
X39093Y8077D01*
X39095Y8082D01*
X39096Y8086D01*
X39098Y8089D01*
X39099Y8092D01*
X39100Y8094D01*
X39101Y8096D01*
X39102Y8098D01*
X39103Y8099D01*
X39104Y8099D01*
X39104Y8100D01*
X39107Y8103D01*
X39110Y8105D01*
X39113Y8108D01*
X39117Y8110D01*
X39120Y8112D01*
X39123Y8113D01*
X39127Y8114D01*
X39130Y8115D01*
X39133Y8116D01*
X39135Y8117D01*
X39138Y8117D01*
X39140Y8117D01*
X39142D01*
X39143Y8118D01*
X39144D01*
X39149Y8117D01*
D02*
G37*
G36*
X37645Y8117D02*
X37649Y8117D01*
X37653Y8116D01*
X37656Y8115D01*
X37660Y8114D01*
X37663Y8113D01*
X37666Y8112D01*
X37668Y8110D01*
X37671Y8109D01*
X37673Y8108D01*
X37675Y8107D01*
X37676Y8105D01*
X37677Y8104D01*
X37678Y8104D01*
X37679Y8103D01*
X37679Y8103D01*
X37681Y8101D01*
X37684Y8098D01*
X37686Y8094D01*
X37688Y8092D01*
X37689Y8088D01*
X37690Y8086D01*
X37691Y8083D01*
X37692Y8080D01*
X37693Y8077D01*
X37693Y8075D01*
X37694Y8073D01*
X37694Y8071D01*
X37694Y8070D01*
Y8068D01*
Y8068D01*
Y8068D01*
X37694Y8062D01*
X37693Y8057D01*
X37692Y8053D01*
X37690Y8049D01*
X37689Y8046D01*
X37688Y8045D01*
X37688Y8044D01*
X37687Y8043D01*
X37687Y8042D01*
X37686Y8042D01*
Y8042D01*
X37683Y8039D01*
X37679Y8036D01*
X37676Y8033D01*
X37672Y8031D01*
X37669Y8030D01*
X37668Y8029D01*
X37666Y8029D01*
X37666Y8029D01*
X37665Y8029D01*
X37664Y8028D01*
X37664D01*
X37668Y8026D01*
X37671Y8024D01*
X37674Y8022D01*
X37676Y8020D01*
X37678Y8018D01*
X37680Y8016D01*
X37680Y8015D01*
X37681Y8015D01*
X37683Y8011D01*
X37684Y8008D01*
X37685Y8005D01*
X37686Y8002D01*
X37686Y8000D01*
X37686Y7998D01*
Y7996D01*
Y7996D01*
Y7996D01*
X37686Y7992D01*
X37685Y7988D01*
X37684Y7985D01*
X37683Y7982D01*
X37682Y7979D01*
X37681Y7977D01*
X37680Y7976D01*
X37680Y7975D01*
Y7975D01*
X37678Y7972D01*
X37675Y7969D01*
X37672Y7966D01*
X37670Y7964D01*
X37667Y7962D01*
X37665Y7961D01*
X37664Y7961D01*
X37664Y7960D01*
X37664Y7960D01*
X37663D01*
X37659Y7958D01*
X37655Y7957D01*
X37651Y7956D01*
X37647Y7955D01*
X37644Y7954D01*
X37643D01*
X37642Y7954D01*
X37639D01*
X37636Y7954D01*
X37633Y7955D01*
X37626Y7956D01*
X37621Y7958D01*
X37619Y7959D01*
X37616Y7960D01*
X37615Y7961D01*
X37613Y7962D01*
X37611Y7963D01*
X37610Y7964D01*
X37609Y7964D01*
X37608Y7965D01*
X37608Y7965D01*
X37608Y7965D01*
X37605Y7967D01*
X37603Y7970D01*
X37600Y7975D01*
X37597Y7980D01*
X37595Y7984D01*
X37594Y7987D01*
X37593Y7989D01*
X37593Y7991D01*
X37592Y7992D01*
X37592Y7994D01*
X37592Y7995D01*
X37591Y7995D01*
Y7996D01*
X37611Y7999D01*
X37612Y7994D01*
X37613Y7990D01*
X37615Y7986D01*
X37617Y7983D01*
X37618Y7981D01*
X37619Y7979D01*
X37620Y7978D01*
X37621Y7978D01*
X37624Y7975D01*
X37627Y7974D01*
X37630Y7972D01*
X37633Y7971D01*
X37636Y7971D01*
X37638Y7971D01*
X37639Y7970D01*
X37640D01*
X37644Y7971D01*
X37648Y7972D01*
X37651Y7973D01*
X37654Y7974D01*
X37656Y7975D01*
X37657Y7977D01*
X37658Y7977D01*
X37659Y7978D01*
X37661Y7980D01*
X37663Y7984D01*
X37664Y7987D01*
X37665Y7989D01*
X37666Y7992D01*
X37666Y7994D01*
X37666Y7995D01*
Y7995D01*
Y7995D01*
X37666Y7998D01*
X37666Y8000D01*
X37664Y8004D01*
X37663Y8008D01*
X37661Y8011D01*
X37659Y8013D01*
X37658Y8015D01*
X37656Y8015D01*
X37656Y8016D01*
X37656D01*
X37652Y8018D01*
X37648Y8020D01*
X37644Y8021D01*
X37641Y8021D01*
X37638Y8022D01*
X37636Y8022D01*
X37635Y8022D01*
X37632D01*
X37631Y8022D01*
X37631Y8022D01*
X37630D01*
X37628Y8039D01*
X37631Y8039D01*
X37634Y8038D01*
X37636Y8037D01*
X37638Y8037D01*
X37640Y8037D01*
X37642D01*
X37647Y8037D01*
X37651Y8039D01*
X37655Y8040D01*
X37658Y8041D01*
X37661Y8043D01*
X37663Y8044D01*
X37664Y8045D01*
X37664Y8046D01*
X37666Y8047D01*
X37667Y8049D01*
X37670Y8053D01*
X37671Y8057D01*
X37672Y8060D01*
X37673Y8063D01*
X37673Y8065D01*
Y8066D01*
X37673Y8067D01*
Y8067D01*
Y8068D01*
Y8068D01*
Y8071D01*
X37673Y8073D01*
X37672Y8078D01*
X37670Y8082D01*
X37669Y8085D01*
X37667Y8088D01*
X37665Y8090D01*
X37665Y8091D01*
X37664Y8091D01*
X37664Y8092D01*
X37664Y8092D01*
X37662Y8093D01*
X37660Y8095D01*
X37656Y8097D01*
X37652Y8099D01*
X37648Y8100D01*
X37645Y8101D01*
X37644Y8101D01*
X37643D01*
X37642Y8101D01*
X37640D01*
X37636Y8101D01*
X37632Y8100D01*
X37629Y8099D01*
X37626Y8098D01*
X37623Y8096D01*
X37622Y8095D01*
X37621Y8094D01*
X37620Y8094D01*
X37619Y8093D01*
X37618Y8091D01*
X37615Y8087D01*
X37613Y8083D01*
X37612Y8079D01*
X37611Y8075D01*
X37610Y8074D01*
X37610Y8072D01*
X37610Y8071D01*
X37609Y8071D01*
X37609Y8070D01*
Y8070D01*
X37590Y8072D01*
X37590Y8076D01*
X37591Y8080D01*
X37592Y8083D01*
X37593Y8086D01*
X37594Y8089D01*
X37595Y8092D01*
X37597Y8094D01*
X37598Y8096D01*
X37600Y8098D01*
X37601Y8100D01*
X37602Y8102D01*
X37603Y8103D01*
X37604Y8104D01*
X37605Y8104D01*
X37605Y8105D01*
X37605Y8105D01*
X37608Y8107D01*
X37611Y8109D01*
X37614Y8111D01*
X37617Y8112D01*
X37620Y8113D01*
X37623Y8114D01*
X37628Y8116D01*
X37631Y8117D01*
X37633Y8117D01*
X37635Y8117D01*
X37637Y8117D01*
X37638Y8118D01*
X37640D01*
X37645Y8117D01*
D02*
G37*
G36*
X36971Y8050D02*
X37011D01*
X37017Y8050D01*
X37023Y8049D01*
X37028Y8049D01*
X37033Y8048D01*
X37037Y8047D01*
X37041Y8045D01*
X37044Y8044D01*
X37048Y8043D01*
X37050Y8042D01*
X37052Y8040D01*
X37054Y8039D01*
X37056Y8038D01*
X37057Y8037D01*
X37057Y8036D01*
X37058Y8036D01*
X37058Y8036D01*
X37060Y8033D01*
X37062Y8030D01*
X37064Y8027D01*
X37066Y8024D01*
X37067Y8021D01*
X37068Y8019D01*
X37070Y8013D01*
X37070Y8011D01*
X37071Y8009D01*
X37071Y8006D01*
X37071Y8005D01*
X37071Y8003D01*
Y8002D01*
Y8001D01*
Y8001D01*
X37071Y7997D01*
X37070Y7993D01*
X37070Y7989D01*
X37069Y7986D01*
X37068Y7983D01*
X37067Y7981D01*
X37067Y7980D01*
X37066Y7980D01*
X37066Y7980D01*
Y7979D01*
X37064Y7976D01*
X37062Y7973D01*
X37060Y7970D01*
X37058Y7968D01*
X37056Y7966D01*
X37055Y7965D01*
X37054Y7964D01*
X37053Y7964D01*
X37050Y7962D01*
X37047Y7961D01*
X37044Y7959D01*
X37041Y7958D01*
X37038Y7957D01*
X37036Y7957D01*
X37035Y7957D01*
X37034Y7957D01*
X37034D01*
X37030Y7956D01*
X37027Y7956D01*
X37022Y7955D01*
X37019Y7955D01*
X37015Y7955D01*
X36949D01*
Y8115D01*
X36971D01*
Y8050D01*
D02*
G37*
G36*
X39646Y8117D02*
X39650Y8117D01*
X39654Y8116D01*
X39658Y8115D01*
X39661Y8114D01*
X39664Y8113D01*
X39667Y8112D01*
X39670Y8110D01*
X39672Y8109D01*
X39674Y8108D01*
X39676Y8107D01*
X39677Y8106D01*
X39678Y8105D01*
X39679Y8104D01*
X39680Y8104D01*
X39680Y8104D01*
X39682Y8101D01*
X39685Y8098D01*
X39686Y8095D01*
X39688Y8092D01*
X39690Y8089D01*
X39691Y8087D01*
X39692Y8084D01*
X39692Y8081D01*
X39693Y8079D01*
X39694Y8077D01*
X39694Y8074D01*
X39694Y8073D01*
X39694Y8071D01*
Y8070D01*
Y8069D01*
Y8069D01*
X39694Y8064D01*
X39693Y8059D01*
X39692Y8055D01*
X39691Y8051D01*
X39689Y8048D01*
X39689Y8047D01*
X39688Y8046D01*
X39687Y8045D01*
X39687Y8044D01*
X39687Y8044D01*
Y8044D01*
X39684Y8040D01*
X39680Y8037D01*
X39676Y8034D01*
X39673Y8032D01*
X39669Y8030D01*
X39668Y8030D01*
X39667Y8029D01*
X39666Y8029D01*
X39665Y8029D01*
X39664Y8028D01*
X39664D01*
X39668Y8026D01*
X39672Y8024D01*
X39675Y8022D01*
X39678Y8020D01*
X39679Y8018D01*
X39681Y8017D01*
X39682Y8016D01*
X39682Y8016D01*
X39684Y8012D01*
X39685Y8009D01*
X39686Y8006D01*
X39687Y8003D01*
X39688Y8000D01*
X39688Y7998D01*
Y7997D01*
Y7996D01*
Y7996D01*
Y7996D01*
X39688Y7993D01*
X39687Y7990D01*
X39687Y7987D01*
X39686Y7984D01*
X39684Y7979D01*
X39681Y7975D01*
X39680Y7973D01*
X39679Y7971D01*
X39678Y7970D01*
X39677Y7969D01*
X39676Y7968D01*
X39676Y7967D01*
X39675Y7967D01*
X39675Y7967D01*
X39673Y7964D01*
X39670Y7962D01*
X39667Y7961D01*
X39664Y7959D01*
X39662Y7958D01*
X39659Y7957D01*
X39653Y7956D01*
X39651Y7955D01*
X39649Y7955D01*
X39647Y7955D01*
X39645Y7954D01*
X39643Y7954D01*
X39641D01*
X39638Y7954D01*
X39634Y7955D01*
X39631Y7955D01*
X39627Y7956D01*
X39624Y7957D01*
X39622Y7958D01*
X39619Y7959D01*
X39617Y7960D01*
X39615Y7961D01*
X39613Y7963D01*
X39612Y7964D01*
X39610Y7964D01*
X39609Y7965D01*
X39609Y7966D01*
X39608Y7966D01*
X39608Y7966D01*
X39606Y7969D01*
X39604Y7971D01*
X39602Y7973D01*
X39601Y7976D01*
X39600Y7978D01*
X39599Y7981D01*
X39597Y7985D01*
X39596Y7989D01*
X39596Y7991D01*
X39596Y7993D01*
X39596Y7994D01*
Y7995D01*
Y7995D01*
Y7996D01*
X39596Y8000D01*
X39596Y8004D01*
X39597Y8007D01*
X39598Y8010D01*
X39600Y8012D01*
X39601Y8014D01*
X39601Y8015D01*
X39601Y8015D01*
X39604Y8018D01*
X39607Y8021D01*
X39610Y8023D01*
X39613Y8025D01*
X39615Y8026D01*
X39617Y8027D01*
X39618Y8028D01*
X39619Y8028D01*
X39619Y8028D01*
X39619D01*
X39614Y8030D01*
X39610Y8032D01*
X39606Y8035D01*
X39603Y8037D01*
X39600Y8039D01*
X39598Y8041D01*
X39597Y8042D01*
X39597Y8042D01*
Y8043D01*
X39594Y8047D01*
X39592Y8051D01*
X39591Y8055D01*
X39590Y8060D01*
X39590Y8063D01*
X39589Y8065D01*
Y8066D01*
X39589Y8067D01*
Y8068D01*
Y8068D01*
Y8069D01*
X39589Y8072D01*
X39590Y8076D01*
X39590Y8080D01*
X39591Y8083D01*
X39592Y8086D01*
X39594Y8089D01*
X39595Y8092D01*
X39596Y8094D01*
X39598Y8096D01*
X39599Y8098D01*
X39600Y8100D01*
X39601Y8101D01*
X39602Y8102D01*
X39603Y8103D01*
X39603Y8103D01*
X39603Y8104D01*
X39606Y8106D01*
X39609Y8108D01*
X39612Y8110D01*
X39616Y8112D01*
X39619Y8113D01*
X39622Y8114D01*
X39628Y8116D01*
X39631Y8116D01*
X39633Y8117D01*
X39636Y8117D01*
X39638Y8117D01*
X39639Y8118D01*
X39642D01*
X39646Y8117D01*
D02*
G37*
G36*
X37193Y8096D02*
X37115D01*
X37117Y8092D01*
X37119Y8090D01*
X37120Y8089D01*
X37121Y8087D01*
X37122Y8086D01*
X37123Y8086D01*
X37123Y8086D01*
X37124Y8084D01*
X37126Y8083D01*
X37127Y8082D01*
X37129Y8080D01*
X37132Y8077D01*
X37136Y8073D01*
X37140Y8070D01*
X37142Y8069D01*
X37143Y8068D01*
X37144Y8067D01*
X37145Y8066D01*
X37145Y8066D01*
X37146Y8065D01*
X37149Y8062D01*
X37153Y8059D01*
X37156Y8056D01*
X37159Y8053D01*
X37162Y8051D01*
X37165Y8048D01*
X37167Y8046D01*
X37169Y8045D01*
X37171Y8043D01*
X37172Y8041D01*
X37173Y8040D01*
X37174Y8039D01*
X37175Y8038D01*
X37176Y8038D01*
X37176Y8037D01*
Y8037D01*
X37179Y8034D01*
X37182Y8030D01*
X37184Y8026D01*
X37186Y8024D01*
X37188Y8021D01*
X37188Y8019D01*
X37189Y8018D01*
X37189Y8018D01*
X37190Y8014D01*
X37191Y8011D01*
X37192Y8008D01*
X37193Y8005D01*
X37193Y8002D01*
X37193Y8000D01*
Y7999D01*
Y7999D01*
X37193Y7995D01*
X37192Y7992D01*
X37192Y7989D01*
X37191Y7986D01*
X37189Y7980D01*
X37188Y7978D01*
X37186Y7976D01*
X37185Y7974D01*
X37184Y7972D01*
X37183Y7971D01*
X37182Y7969D01*
X37181Y7968D01*
X37180Y7968D01*
X37180Y7967D01*
X37180Y7967D01*
X37177Y7965D01*
X37174Y7963D01*
X37171Y7961D01*
X37168Y7960D01*
X37165Y7958D01*
X37162Y7957D01*
X37156Y7956D01*
X37154Y7955D01*
X37151Y7955D01*
X37149Y7955D01*
X37147Y7954D01*
X37145Y7954D01*
X37143D01*
X37139Y7954D01*
X37135Y7955D01*
X37131Y7955D01*
X37128Y7956D01*
X37124Y7957D01*
X37122Y7958D01*
X37119Y7959D01*
X37116Y7960D01*
X37114Y7961D01*
X37112Y7962D01*
X37111Y7963D01*
X37109Y7964D01*
X37108Y7965D01*
X37107Y7966D01*
X37107Y7966D01*
X37107Y7966D01*
X37104Y7968D01*
X37102Y7971D01*
X37100Y7974D01*
X37098Y7977D01*
X37097Y7979D01*
X37096Y7982D01*
X37094Y7988D01*
X37093Y7990D01*
X37092Y7993D01*
X37092Y7995D01*
X37092Y7997D01*
X37091Y7998D01*
Y7999D01*
X37091Y8000D01*
Y8000D01*
X37111Y8003D01*
X37112Y7997D01*
X37113Y7993D01*
X37114Y7989D01*
X37116Y7985D01*
X37117Y7983D01*
X37119Y7980D01*
X37119Y7979D01*
X37120Y7979D01*
X37123Y7976D01*
X37127Y7974D01*
X37131Y7973D01*
X37134Y7972D01*
X37138Y7971D01*
X37139Y7971D01*
X37140D01*
X37141Y7970D01*
X37143D01*
X37147Y7971D01*
X37152Y7972D01*
X37155Y7973D01*
X37159Y7974D01*
X37161Y7976D01*
X37163Y7977D01*
X37164Y7978D01*
X37164Y7979D01*
X37167Y7982D01*
X37169Y7985D01*
X37171Y7988D01*
X37172Y7991D01*
X37173Y7994D01*
X37173Y7996D01*
X37173Y7997D01*
Y7998D01*
Y7998D01*
Y7998D01*
Y8000D01*
X37173Y8002D01*
X37171Y8007D01*
X37170Y8011D01*
X37168Y8014D01*
X37167Y8017D01*
X37166Y8019D01*
X37165Y8020D01*
X37164Y8021D01*
X37164Y8021D01*
X37164Y8022D01*
X37164Y8022D01*
X37162Y8024D01*
X37159Y8027D01*
X37157Y8030D01*
X37154Y8032D01*
X37148Y8038D01*
X37143Y8044D01*
X37140Y8046D01*
X37137Y8048D01*
X37135Y8050D01*
X37133Y8052D01*
X37131Y8054D01*
X37129Y8055D01*
X37129Y8056D01*
X37128Y8056D01*
X37122Y8061D01*
X37117Y8065D01*
X37113Y8070D01*
X37109Y8073D01*
X37106Y8076D01*
X37104Y8078D01*
X37104Y8079D01*
X37103Y8080D01*
X37103Y8080D01*
X37103Y8080D01*
X37100Y8084D01*
X37097Y8088D01*
X37095Y8091D01*
X37093Y8095D01*
X37091Y8097D01*
X37091Y8099D01*
X37090Y8100D01*
X37090Y8101D01*
X37090Y8101D01*
Y8101D01*
X37089Y8104D01*
X37088Y8106D01*
X37088Y8108D01*
X37088Y8110D01*
X37087Y8112D01*
Y8114D01*
Y8114D01*
Y8115D01*
X37193D01*
Y8096D01*
D02*
G37*
G36*
X37970Y8049D02*
X38011D01*
X38017Y8049D01*
X38022Y8049D01*
X38028Y8048D01*
X38032Y8047D01*
X38037Y8046D01*
X38041Y8045D01*
X38044Y8044D01*
X38047Y8042D01*
X38049Y8041D01*
X38052Y8040D01*
X38054Y8039D01*
X38055Y8037D01*
X38056Y8036D01*
X38057Y8036D01*
X38057Y8035D01*
X38058Y8035D01*
X38060Y8032D01*
X38062Y8030D01*
X38064Y8027D01*
X38065Y8024D01*
X38067Y8021D01*
X38068Y8018D01*
X38069Y8013D01*
X38070Y8010D01*
X38070Y8008D01*
X38070Y8006D01*
X38071Y8004D01*
X38071Y8003D01*
Y8001D01*
Y8001D01*
Y8001D01*
X38071Y7996D01*
X38070Y7992D01*
X38069Y7989D01*
X38068Y7985D01*
X38067Y7983D01*
X38067Y7980D01*
X38066Y7980D01*
X38066Y7979D01*
X38066Y7979D01*
Y7979D01*
X38064Y7975D01*
X38062Y7972D01*
X38059Y7969D01*
X38057Y7967D01*
X38056Y7966D01*
X38054Y7964D01*
X38053Y7964D01*
X38053Y7963D01*
X38050Y7962D01*
X38046Y7960D01*
X38043Y7959D01*
X38040Y7958D01*
X38037Y7957D01*
X38035Y7956D01*
X38034Y7956D01*
X38034Y7956D01*
X38033D01*
X38030Y7955D01*
X38026Y7955D01*
X38022Y7955D01*
X38018Y7954D01*
X38015Y7954D01*
X37949D01*
Y8114D01*
X37970D01*
Y8049D01*
D02*
G37*
G36*
X38645Y8117D02*
X38649Y8116D01*
X38654Y8115D01*
X38658Y8114D01*
X38662Y8112D01*
X38665Y8111D01*
X38668Y8109D01*
X38671Y8107D01*
X38674Y8105D01*
X38676Y8104D01*
X38678Y8102D01*
X38679Y8100D01*
X38680Y8099D01*
X38681Y8098D01*
X38682Y8098D01*
X38682Y8098D01*
X38684Y8094D01*
X38686Y8091D01*
X38688Y8088D01*
X38689Y8085D01*
X38691Y8082D01*
X38692Y8079D01*
X38693Y8073D01*
X38694Y8070D01*
X38694Y8068D01*
X38694Y8066D01*
X38695Y8064D01*
X38695Y8062D01*
Y8061D01*
Y8060D01*
Y8060D01*
X38695Y8056D01*
X38694Y8052D01*
X38694Y8048D01*
X38693Y8045D01*
X38691Y8041D01*
X38690Y8038D01*
X38689Y8035D01*
X38688Y8033D01*
X38686Y8031D01*
X38685Y8029D01*
X38684Y8027D01*
X38683Y8025D01*
X38681Y8024D01*
X38681Y8023D01*
X38680Y8023D01*
X38680Y8023D01*
X38678Y8020D01*
X38675Y8018D01*
X38672Y8016D01*
X38669Y8014D01*
X38666Y8013D01*
X38663Y8012D01*
X38660Y8011D01*
X38657Y8010D01*
X38655Y8009D01*
X38652Y8009D01*
X38650Y8009D01*
X38649Y8008D01*
X38647Y8008D01*
X38645D01*
X38642Y8008D01*
X38639Y8009D01*
X38634Y8010D01*
X38629Y8011D01*
X38624Y8013D01*
X38622Y8014D01*
X38620Y8015D01*
X38619Y8016D01*
X38617Y8017D01*
X38616Y8017D01*
X38616Y8018D01*
X38615Y8018D01*
X38615Y8018D01*
X38623Y7975D01*
X38687D01*
Y7956D01*
X38608D01*
X38592Y8039D01*
X38611Y8041D01*
X38613Y8039D01*
X38614Y8037D01*
X38617Y8035D01*
X38618Y8033D01*
X38620Y8032D01*
X38621Y8031D01*
X38622Y8030D01*
X38623Y8030D01*
X38626Y8029D01*
X38629Y8027D01*
X38632Y8026D01*
X38634Y8026D01*
X38637Y8026D01*
X38638Y8025D01*
X38643D01*
X38645Y8026D01*
X38650Y8027D01*
X38654Y8029D01*
X38658Y8030D01*
X38661Y8032D01*
X38663Y8034D01*
X38664Y8034D01*
X38664Y8035D01*
X38665Y8035D01*
Y8035D01*
X38666Y8037D01*
X38668Y8039D01*
X38670Y8044D01*
X38672Y8048D01*
X38673Y8052D01*
X38674Y8056D01*
X38674Y8058D01*
Y8059D01*
X38674Y8060D01*
Y8061D01*
Y8062D01*
Y8062D01*
Y8065D01*
X38674Y8068D01*
X38673Y8074D01*
X38671Y8078D01*
X38669Y8083D01*
X38668Y8084D01*
X38667Y8086D01*
X38667Y8087D01*
X38666Y8088D01*
X38665Y8089D01*
X38665Y8090D01*
X38664Y8090D01*
X38664Y8090D01*
X38662Y8092D01*
X38660Y8094D01*
X38658Y8095D01*
X38656Y8096D01*
X38652Y8098D01*
X38648Y8099D01*
X38645Y8100D01*
X38644Y8100D01*
X38643Y8100D01*
X38642Y8101D01*
X38640D01*
X38636Y8100D01*
X38632Y8099D01*
X38628Y8098D01*
X38626Y8097D01*
X38623Y8096D01*
X38621Y8094D01*
X38620Y8094D01*
X38620Y8093D01*
X38617Y8090D01*
X38615Y8087D01*
X38613Y8083D01*
X38612Y8079D01*
X38611Y8076D01*
X38610Y8075D01*
X38610Y8073D01*
X38610Y8072D01*
Y8072D01*
X38609Y8071D01*
Y8071D01*
X38589Y8072D01*
X38589Y8076D01*
X38590Y8080D01*
X38591Y8083D01*
X38592Y8086D01*
X38593Y8089D01*
X38595Y8092D01*
X38596Y8094D01*
X38597Y8096D01*
X38599Y8098D01*
X38600Y8100D01*
X38601Y8101D01*
X38602Y8103D01*
X38603Y8104D01*
X38604Y8104D01*
X38604Y8105D01*
X38605Y8105D01*
X38607Y8107D01*
X38610Y8109D01*
X38613Y8110D01*
X38616Y8112D01*
X38619Y8113D01*
X38622Y8114D01*
X38627Y8115D01*
X38630Y8116D01*
X38632Y8116D01*
X38635Y8117D01*
X38637Y8117D01*
X38638Y8117D01*
X38640D01*
X38645Y8117D01*
D02*
G37*
G36*
X38172Y8076D02*
X38194D01*
Y8058D01*
X38172D01*
Y7954D01*
X38156D01*
X38083Y8058D01*
Y8076D01*
X38153D01*
Y8114D01*
X38172D01*
Y8076D01*
D02*
G37*
G36*
X37470Y8050D02*
X37510D01*
X37517Y8050D01*
X37522Y8049D01*
X37527Y8049D01*
X37532Y8048D01*
X37536Y8047D01*
X37540Y8045D01*
X37544Y8044D01*
X37547Y8043D01*
X37549Y8042D01*
X37551Y8040D01*
X37553Y8039D01*
X37555Y8038D01*
X37556Y8037D01*
X37557Y8036D01*
X37557Y8036D01*
X37557Y8036D01*
X37560Y8033D01*
X37562Y8030D01*
X37563Y8027D01*
X37565Y8024D01*
X37566Y8021D01*
X37567Y8019D01*
X37569Y8013D01*
X37569Y8011D01*
X37570Y8009D01*
X37570Y8006D01*
X37570Y8005D01*
X37570Y8003D01*
Y8002D01*
Y8001D01*
Y8001D01*
X37570Y7997D01*
X37570Y7993D01*
X37569Y7989D01*
X37568Y7986D01*
X37567Y7983D01*
X37566Y7981D01*
X37566Y7980D01*
X37566Y7980D01*
X37565Y7980D01*
Y7979D01*
X37564Y7976D01*
X37561Y7973D01*
X37559Y7970D01*
X37557Y7968D01*
X37555Y7966D01*
X37554Y7965D01*
X37553Y7964D01*
X37553Y7964D01*
X37549Y7962D01*
X37546Y7961D01*
X37543Y7959D01*
X37540Y7958D01*
X37537Y7957D01*
X37535Y7957D01*
X37534Y7957D01*
X37534Y7957D01*
X37533D01*
X37530Y7956D01*
X37526Y7956D01*
X37522Y7955D01*
X37518Y7955D01*
X37514Y7955D01*
X37449D01*
Y8115D01*
X37470D01*
Y8050D01*
D02*
G37*
G36*
X38469Y8049D02*
X38510D01*
X38516Y8049D01*
X38522Y8049D01*
X38527Y8048D01*
X38531Y8047D01*
X38536Y8046D01*
X38540Y8045D01*
X38543Y8044D01*
X38546Y8042D01*
X38549Y8041D01*
X38551Y8040D01*
X38553Y8039D01*
X38554Y8037D01*
X38555Y8036D01*
X38556Y8036D01*
X38556Y8035D01*
X38557Y8035D01*
X38559Y8032D01*
X38561Y8030D01*
X38563Y8027D01*
X38564Y8024D01*
X38566Y8021D01*
X38567Y8018D01*
X38568Y8013D01*
X38569Y8010D01*
X38569Y8008D01*
X38569Y8006D01*
X38570Y8004D01*
X38570Y8003D01*
Y8001D01*
Y8001D01*
Y8001D01*
X38570Y7996D01*
X38569Y7992D01*
X38568Y7989D01*
X38567Y7985D01*
X38566Y7983D01*
X38566Y7980D01*
X38565Y7980D01*
X38565Y7979D01*
X38565Y7979D01*
Y7979D01*
X38563Y7975D01*
X38561Y7972D01*
X38559Y7969D01*
X38556Y7967D01*
X38555Y7966D01*
X38553Y7964D01*
X38552Y7964D01*
X38552Y7963D01*
X38549Y7962D01*
X38545Y7960D01*
X38542Y7959D01*
X38539Y7958D01*
X38537Y7957D01*
X38534Y7956D01*
X38533Y7956D01*
X38533Y7956D01*
X38532D01*
X38529Y7955D01*
X38525Y7955D01*
X38521Y7955D01*
X38517Y7954D01*
X38514Y7954D01*
X38448D01*
Y8114D01*
X38469D01*
Y8049D01*
D02*
G37*
G36*
X38970Y8050D02*
X39011D01*
X39017Y8050D01*
X39022Y8049D01*
X39027Y8049D01*
X39032Y8048D01*
X39036Y8047D01*
X39040Y8045D01*
X39044Y8044D01*
X39047Y8043D01*
X39049Y8042D01*
X39051Y8040D01*
X39053Y8039D01*
X39055Y8038D01*
X39056Y8037D01*
X39057Y8036D01*
X39057Y8036D01*
X39057Y8036D01*
X39060Y8033D01*
X39062Y8030D01*
X39063Y8027D01*
X39065Y8024D01*
X39066Y8021D01*
X39067Y8019D01*
X39069Y8013D01*
X39069Y8011D01*
X39070Y8009D01*
X39070Y8006D01*
X39070Y8005D01*
X39070Y8003D01*
Y8002D01*
Y8001D01*
Y8001D01*
X39070Y7997D01*
X39070Y7993D01*
X39069Y7989D01*
X39068Y7986D01*
X39067Y7983D01*
X39066Y7981D01*
X39066Y7980D01*
X39066Y7980D01*
X39065Y7980D01*
Y7979D01*
X39064Y7976D01*
X39061Y7973D01*
X39059Y7970D01*
X39057Y7968D01*
X39055Y7966D01*
X39054Y7965D01*
X39053Y7964D01*
X39053Y7964D01*
X39049Y7962D01*
X39046Y7961D01*
X39043Y7959D01*
X39040Y7958D01*
X39037Y7957D01*
X39035Y7957D01*
X39034Y7957D01*
X39034Y7957D01*
X39033D01*
X39030Y7956D01*
X39026Y7956D01*
X39022Y7955D01*
X39018Y7955D01*
X39014Y7955D01*
X38949D01*
Y8115D01*
X38970D01*
Y8050D01*
D02*
G37*
G36*
X40705Y8102D02*
X40709Y8102D01*
X40712Y8101D01*
X40715Y8101D01*
X40718Y8100D01*
X40718Y8100D01*
X40719Y8100D01*
X40720Y8100D01*
X40720D01*
X40721Y8100D01*
X40721D01*
X40724Y8099D01*
X40727Y8098D01*
X40730Y8097D01*
X40732Y8096D01*
X40734Y8095D01*
X40735Y8094D01*
X40736Y8094D01*
X40736Y8093D01*
X40738Y8092D01*
X40741Y8090D01*
X40743Y8088D01*
X40744Y8086D01*
X40746Y8084D01*
X40747Y8083D01*
X40748Y8082D01*
X40748Y8082D01*
X40750Y8079D01*
X40752Y8076D01*
X40753Y8073D01*
X40754Y8070D01*
X40755Y8067D01*
X40756Y8066D01*
X40756Y8065D01*
X40756Y8064D01*
X40756Y8064D01*
X40757Y8063D01*
Y8063D01*
X40758Y8059D01*
X40759Y8054D01*
X40759Y8050D01*
X40760Y8046D01*
X40760Y8044D01*
X40760Y8043D01*
Y8041D01*
X40760Y8040D01*
Y8039D01*
Y8038D01*
Y8038D01*
Y8037D01*
X40760Y8031D01*
X40759Y8026D01*
X40759Y8023D01*
X40758Y8020D01*
X40758Y8018D01*
X40758Y8016D01*
X40757Y8014D01*
X40757Y8012D01*
X40756Y8011D01*
X40756Y8009D01*
X40755Y8008D01*
X40755Y8008D01*
X40755Y8007D01*
Y8007D01*
X40753Y8002D01*
X40750Y7998D01*
X40748Y7994D01*
X40745Y7991D01*
X40744Y7990D01*
X40743Y7989D01*
X40742Y7988D01*
X40741Y7987D01*
X40741Y7986D01*
X40740Y7986D01*
X40740Y7986D01*
X40740Y7985D01*
X40737Y7983D01*
X40734Y7981D01*
X40730Y7980D01*
X40727Y7978D01*
X40725Y7977D01*
X40724Y7977D01*
X40723Y7977D01*
X40722Y7977D01*
X40721Y7976D01*
X40721Y7976D01*
X40721D01*
X40718Y7976D01*
X40714Y7975D01*
X40710Y7975D01*
X40707Y7974D01*
X40704D01*
X40702Y7974D01*
X40654D01*
Y8102D01*
X40700D01*
X40705Y8102D01*
D02*
G37*
G36*
X40140Y8117D02*
X40143Y8117D01*
X40149Y8116D01*
X40154Y8115D01*
X40159Y8113D01*
X40161Y8112D01*
X40163Y8111D01*
X40164Y8110D01*
X40165Y8110D01*
X40167Y8109D01*
X40167Y8109D01*
X40168Y8108D01*
X40168D01*
X40173Y8104D01*
X40176Y8100D01*
X40180Y8095D01*
X40183Y8091D01*
X40185Y8087D01*
X40186Y8085D01*
X40186Y8083D01*
X40187Y8082D01*
X40188Y8081D01*
X40188Y8081D01*
Y8081D01*
X40189Y8077D01*
X40190Y8073D01*
X40192Y8065D01*
X40193Y8057D01*
X40193Y8053D01*
X40194Y8049D01*
X40194Y8046D01*
X40194Y8042D01*
X40194Y8039D01*
X40194Y8037D01*
Y8035D01*
Y8033D01*
Y8032D01*
Y8032D01*
Y8026D01*
X40194Y8021D01*
X40194Y8017D01*
X40193Y8012D01*
X40193Y8008D01*
X40192Y8005D01*
X40192Y8001D01*
X40191Y7998D01*
X40190Y7995D01*
X40190Y7993D01*
X40189Y7991D01*
X40189Y7990D01*
X40188Y7988D01*
X40188Y7987D01*
X40188Y7987D01*
Y7987D01*
X40185Y7981D01*
X40182Y7976D01*
X40178Y7972D01*
X40175Y7969D01*
X40172Y7966D01*
X40170Y7964D01*
X40169Y7964D01*
X40169Y7963D01*
X40168Y7963D01*
X40168D01*
X40163Y7960D01*
X40158Y7958D01*
X40153Y7956D01*
X40149Y7955D01*
X40145Y7955D01*
X40143Y7954D01*
X40142D01*
X40141Y7954D01*
X40139D01*
X40135Y7954D01*
X40132Y7955D01*
X40128Y7956D01*
X40125Y7957D01*
X40122Y7958D01*
X40119Y7959D01*
X40116Y7960D01*
X40113Y7962D01*
X40111Y7963D01*
X40109Y7964D01*
X40107Y7966D01*
X40106Y7967D01*
X40105Y7968D01*
X40104Y7969D01*
X40104Y7969D01*
X40103Y7969D01*
X40101Y7972D01*
X40099Y7975D01*
X40097Y7978D01*
X40095Y7982D01*
X40094Y7985D01*
X40093Y7988D01*
X40091Y7994D01*
X40091Y7997D01*
X40090Y8000D01*
X40090Y8002D01*
X40090Y8004D01*
X40089Y8006D01*
Y8007D01*
Y8008D01*
Y8008D01*
X40090Y8013D01*
X40090Y8017D01*
X40091Y8021D01*
X40091Y8024D01*
X40092Y8027D01*
X40094Y8031D01*
X40095Y8034D01*
X40096Y8036D01*
X40097Y8038D01*
X40099Y8040D01*
X40100Y8042D01*
X40101Y8044D01*
X40102Y8045D01*
X40102Y8046D01*
X40103Y8046D01*
X40103Y8046D01*
X40106Y8049D01*
X40108Y8051D01*
X40111Y8053D01*
X40114Y8055D01*
X40117Y8056D01*
X40120Y8057D01*
X40122Y8058D01*
X40125Y8059D01*
X40127Y8059D01*
X40129Y8060D01*
X40132Y8060D01*
X40133Y8060D01*
X40135Y8061D01*
X40137D01*
X40141Y8060D01*
X40145Y8060D01*
X40149Y8059D01*
X40152Y8058D01*
X40155Y8057D01*
X40157Y8056D01*
X40158Y8055D01*
X40158Y8055D01*
X40158Y8055D01*
X40159D01*
X40162Y8052D01*
X40165Y8050D01*
X40168Y8047D01*
X40170Y8045D01*
X40172Y8043D01*
X40174Y8041D01*
X40175Y8040D01*
X40175Y8040D01*
Y8041D01*
Y8042D01*
Y8043D01*
Y8044D01*
X40175Y8048D01*
X40174Y8052D01*
X40174Y8057D01*
X40173Y8060D01*
X40173Y8063D01*
X40173Y8065D01*
X40172Y8066D01*
X40172Y8066D01*
Y8067D01*
X40172Y8067D01*
Y8068D01*
X40171Y8072D01*
X40170Y8076D01*
X40168Y8079D01*
X40167Y8081D01*
X40166Y8083D01*
X40165Y8085D01*
X40165Y8086D01*
X40165Y8086D01*
X40163Y8089D01*
X40161Y8091D01*
X40159Y8093D01*
X40157Y8094D01*
X40156Y8096D01*
X40155Y8097D01*
X40154Y8097D01*
X40153Y8097D01*
X40151Y8099D01*
X40148Y8100D01*
X40145Y8100D01*
X40143Y8101D01*
X40141Y8101D01*
X40139Y8101D01*
X40138D01*
X40134Y8101D01*
X40130Y8100D01*
X40127Y8099D01*
X40125Y8098D01*
X40123Y8097D01*
X40121Y8096D01*
X40121Y8096D01*
X40120Y8095D01*
X40118Y8093D01*
X40116Y8090D01*
X40114Y8087D01*
X40113Y8084D01*
X40112Y8081D01*
X40112Y8078D01*
X40111Y8078D01*
Y8077D01*
X40111Y8077D01*
Y8076D01*
X40092Y8078D01*
X40093Y8081D01*
X40093Y8084D01*
X40094Y8088D01*
X40095Y8090D01*
X40097Y8093D01*
X40098Y8095D01*
X40099Y8098D01*
X40100Y8100D01*
X40101Y8101D01*
X40102Y8103D01*
X40103Y8104D01*
X40105Y8105D01*
X40105Y8106D01*
X40106Y8107D01*
X40106Y8107D01*
X40106Y8107D01*
X40109Y8109D01*
X40111Y8110D01*
X40114Y8112D01*
X40116Y8113D01*
X40121Y8115D01*
X40126Y8116D01*
X40128Y8117D01*
X40131Y8117D01*
X40132Y8117D01*
X40134Y8117D01*
X40135Y8118D01*
X40137D01*
X40140Y8117D01*
D02*
G37*
G36*
X39470Y8050D02*
X39510D01*
X39516Y8050D01*
X39522Y8049D01*
X39527Y8049D01*
X39532Y8048D01*
X39536Y8047D01*
X39540Y8045D01*
X39543Y8044D01*
X39546Y8043D01*
X39549Y8042D01*
X39551Y8040D01*
X39553Y8039D01*
X39555Y8038D01*
X39556Y8037D01*
X39556Y8036D01*
X39557Y8036D01*
X39557Y8036D01*
X39559Y8033D01*
X39561Y8030D01*
X39563Y8027D01*
X39565Y8024D01*
X39566Y8021D01*
X39567Y8019D01*
X39569Y8013D01*
X39569Y8011D01*
X39570Y8009D01*
X39570Y8006D01*
X39570Y8005D01*
X39570Y8003D01*
Y8002D01*
Y8001D01*
Y8001D01*
X39570Y7997D01*
X39569Y7993D01*
X39569Y7989D01*
X39568Y7986D01*
X39567Y7983D01*
X39566Y7981D01*
X39566Y7980D01*
X39565Y7980D01*
X39565Y7980D01*
Y7979D01*
X39563Y7976D01*
X39561Y7973D01*
X39559Y7970D01*
X39557Y7968D01*
X39555Y7966D01*
X39554Y7965D01*
X39553Y7964D01*
X39552Y7964D01*
X39549Y7962D01*
X39546Y7961D01*
X39543Y7959D01*
X39540Y7958D01*
X39537Y7957D01*
X39535Y7957D01*
X39534Y7957D01*
X39533Y7957D01*
X39533D01*
X39529Y7956D01*
X39525Y7956D01*
X39521Y7955D01*
X39518Y7955D01*
X39514Y7955D01*
X39448D01*
Y8115D01*
X39470D01*
Y8050D01*
D02*
G37*
%LPC*%
G36*
X40013Y8031D02*
X39970D01*
Y7974D01*
X40015D01*
X40019Y7974D01*
X40023Y7974D01*
X40025Y7974D01*
X40027Y7975D01*
X40029Y7975D01*
X40030Y7975D01*
X40030D01*
X40033Y7976D01*
X40035Y7978D01*
X40038Y7979D01*
X40040Y7981D01*
X40041Y7982D01*
X40042Y7984D01*
X40043Y7984D01*
X40043Y7985D01*
X40045Y7988D01*
X40046Y7990D01*
X40047Y7993D01*
X40048Y7996D01*
X40048Y7998D01*
X40048Y8000D01*
Y8001D01*
Y8002D01*
Y8002D01*
X40048Y8007D01*
X40047Y8011D01*
X40046Y8015D01*
X40044Y8018D01*
X40042Y8020D01*
X40041Y8022D01*
X40040Y8023D01*
X40040Y8024D01*
X40038Y8025D01*
X40036Y8026D01*
X40031Y8028D01*
X40027Y8029D01*
X40022Y8030D01*
X40018Y8031D01*
X40016Y8031D01*
X40014D01*
X40013Y8031D01*
D02*
G37*
G36*
X32928Y8434D02*
X32926D01*
X32918Y8433D01*
X32911Y8432D01*
X32905Y8430D01*
X32900Y8427D01*
X32896Y8424D01*
X32894Y8422D01*
X32892Y8420D01*
X32891Y8420D01*
X32888Y8414D01*
X32885Y8408D01*
X32883Y8400D01*
X32882Y8393D01*
X32881Y8387D01*
Y8384D01*
X32881Y8382D01*
Y8380D01*
Y8378D01*
Y8378D01*
Y8377D01*
Y8287D01*
X32881Y8277D01*
X32882Y8269D01*
X32884Y8262D01*
X32886Y8256D01*
X32888Y8251D01*
X32890Y8248D01*
X32891Y8246D01*
X32892Y8245D01*
X32897Y8240D01*
X32902Y8237D01*
X32908Y8234D01*
X32914Y8232D01*
X32919Y8232D01*
X32923Y8231D01*
X32925Y8231D01*
X32927D01*
X32932Y8231D01*
X32936Y8232D01*
X32940Y8232D01*
X32944Y8234D01*
X32946Y8235D01*
X32949Y8236D01*
X32950Y8236D01*
X32951Y8237D01*
X32954Y8239D01*
X32958Y8242D01*
X32961Y8244D01*
X32963Y8247D01*
X32965Y8249D01*
X32966Y8252D01*
X32967Y8253D01*
X32968Y8253D01*
X32969Y8257D01*
X32970Y8261D01*
X32971Y8262D01*
Y8263D01*
X32971Y8264D01*
Y8264D01*
X32972Y8267D01*
X32972Y8270D01*
X32973Y8276D01*
Y8279D01*
Y8281D01*
Y8283D01*
Y8283D01*
Y8376D01*
X32972Y8386D01*
X32971Y8395D01*
X32969Y8403D01*
X32967Y8409D01*
X32965Y8413D01*
X32963Y8417D01*
X32961Y8419D01*
X32961Y8420D01*
X32956Y8424D01*
X32951Y8428D01*
X32945Y8430D01*
X32939Y8432D01*
X32934Y8433D01*
X32930Y8433D01*
X32928Y8434D01*
D02*
G37*
G36*
X16255Y6459D02*
X16253D01*
X16248Y6458D01*
X16244Y6458D01*
X16239Y6457D01*
X16236Y6456D01*
X16233Y6455D01*
X16231Y6454D01*
X16229Y6453D01*
X16229Y6453D01*
X16225Y6451D01*
X16222Y6448D01*
X16219Y6445D01*
X16217Y6443D01*
X16215Y6440D01*
X16213Y6438D01*
X16212Y6437D01*
X16212Y6436D01*
X16210Y6433D01*
X16209Y6429D01*
X16209Y6428D01*
Y6426D01*
X16208Y6426D01*
Y6425D01*
X16208Y6423D01*
X16207Y6420D01*
X16207Y6414D01*
Y6411D01*
Y6409D01*
Y6407D01*
Y6406D01*
Y6314D01*
X16207Y6304D01*
X16209Y6295D01*
X16211Y6287D01*
X16213Y6281D01*
X16215Y6276D01*
X16217Y6272D01*
X16218Y6271D01*
X16219Y6270D01*
X16223Y6265D01*
X16229Y6262D01*
X16234Y6259D01*
X16240Y6258D01*
X16245Y6257D01*
X16249Y6256D01*
X16251Y6256D01*
X16253D01*
X16262Y6256D01*
X16269Y6258D01*
X16275Y6260D01*
X16279Y6263D01*
X16283Y6265D01*
X16286Y6267D01*
X16288Y6269D01*
X16288Y6270D01*
X16292Y6275D01*
X16294Y6282D01*
X16296Y6290D01*
X16298Y6296D01*
X16299Y6302D01*
Y6305D01*
X16299Y6308D01*
Y6310D01*
Y6311D01*
Y6312D01*
Y6312D01*
Y6402D01*
X16299Y6412D01*
X16297Y6421D01*
X16295Y6428D01*
X16293Y6434D01*
X16291Y6438D01*
X16289Y6442D01*
X16288Y6443D01*
X16288Y6444D01*
X16283Y6449D01*
X16277Y6453D01*
X16272Y6455D01*
X16266Y6457D01*
X16261Y6458D01*
X16257Y6458D01*
X16255Y6459D01*
D02*
G37*
G36*
X31610Y8328D02*
X31594D01*
Y8232D01*
X31616D01*
X31627Y8232D01*
X31637Y8234D01*
X31645Y8236D01*
X31652Y8237D01*
X31657Y8239D01*
X31661Y8242D01*
X31663Y8243D01*
X31663Y8243D01*
X31668Y8248D01*
X31672Y8253D01*
X31675Y8259D01*
X31677Y8265D01*
X31678Y8270D01*
X31678Y8274D01*
X31679Y8276D01*
Y8277D01*
Y8278D01*
Y8278D01*
Y8283D01*
X31678Y8287D01*
X31676Y8294D01*
X31673Y8301D01*
X31670Y8306D01*
X31666Y8310D01*
X31663Y8313D01*
X31661Y8315D01*
X31661Y8316D01*
X31661D01*
X31653Y8320D01*
X31644Y8323D01*
X31636Y8325D01*
X31627Y8326D01*
X31619Y8327D01*
X31615Y8328D01*
X31612D01*
X31610Y8328D01*
D02*
G37*
G36*
X-558Y3858D02*
X-611D01*
X-615Y3857D01*
X-618Y3857D01*
X-621Y3857D01*
X-624D01*
X-627Y3857D01*
X-629Y3856D01*
X-632Y3856D01*
X-635Y3855D01*
X-636Y3855D01*
X-637Y3854D01*
X-640Y3853D01*
X-643Y3851D01*
X-646Y3850D01*
X-648Y3847D01*
X-650Y3846D01*
X-651Y3844D01*
X-652Y3843D01*
X-652Y3843D01*
X-654Y3840D01*
X-655Y3836D01*
X-656Y3833D01*
X-657Y3830D01*
X-657Y3827D01*
X-657Y3825D01*
Y3824D01*
Y3823D01*
X-657Y3819D01*
X-657Y3815D01*
X-656Y3812D01*
X-654Y3809D01*
X-653Y3807D01*
X-652Y3805D01*
X-652Y3804D01*
X-652Y3804D01*
X-649Y3801D01*
X-646Y3799D01*
X-644Y3797D01*
X-641Y3795D01*
X-638Y3794D01*
X-636Y3793D01*
X-635Y3793D01*
X-634Y3792D01*
X-631Y3792D01*
X-627Y3791D01*
X-622Y3791D01*
X-617Y3790D01*
X-613Y3790D01*
X-558D01*
Y3858D01*
D02*
G37*
G36*
X3490Y3854D02*
X3437D01*
X3433Y3854D01*
X3430Y3853D01*
X3427Y3853D01*
X3424D01*
X3422Y3853D01*
X3419Y3852D01*
X3416Y3852D01*
X3414Y3851D01*
X3412Y3851D01*
X3411Y3851D01*
X3408Y3849D01*
X3405Y3847D01*
X3402Y3846D01*
X3400Y3844D01*
X3398Y3842D01*
X3397Y3841D01*
X3397Y3839D01*
X3396Y3839D01*
X3395Y3836D01*
X3393Y3832D01*
X3392Y3829D01*
X3391Y3826D01*
X3391Y3824D01*
X3391Y3821D01*
Y3820D01*
Y3820D01*
X3391Y3815D01*
X3392Y3811D01*
X3393Y3808D01*
X3394Y3805D01*
X3395Y3803D01*
X3396Y3801D01*
X3396Y3800D01*
X3397Y3800D01*
X3399Y3797D01*
X3402Y3795D01*
X3404Y3793D01*
X3407Y3791D01*
X3410Y3790D01*
X3412Y3789D01*
X3413Y3789D01*
X3414Y3789D01*
X3417Y3788D01*
X3422Y3787D01*
X3426Y3787D01*
X3431Y3787D01*
X3435Y3786D01*
X3490D01*
Y3854D01*
D02*
G37*
G36*
X-558Y3764D02*
X-610D01*
X-617Y3763D01*
X-624Y3763D01*
X-629Y3763D01*
X-634Y3762D01*
X-638Y3761D01*
X-640Y3760D01*
X-642Y3760D01*
X-642Y3760D01*
X-646Y3758D01*
X-650Y3756D01*
X-653Y3754D01*
X-655Y3752D01*
X-657Y3750D01*
X-659Y3748D01*
X-660Y3747D01*
X-660Y3747D01*
X-662Y3743D01*
X-664Y3740D01*
X-665Y3736D01*
X-666Y3733D01*
X-666Y3730D01*
X-667Y3727D01*
Y3726D01*
Y3725D01*
X-666Y3721D01*
X-666Y3718D01*
X-665Y3715D01*
X-664Y3712D01*
X-663Y3710D01*
X-663Y3708D01*
X-662Y3707D01*
X-662Y3706D01*
X-660Y3703D01*
X-659Y3701D01*
X-657Y3699D01*
X-655Y3697D01*
X-653Y3696D01*
X-652Y3695D01*
X-651Y3694D01*
X-651Y3694D01*
X-648Y3692D01*
X-645Y3691D01*
X-643Y3690D01*
X-640Y3689D01*
X-637Y3689D01*
X-636Y3688D01*
X-634Y3688D01*
X-634D01*
X-631Y3687D01*
X-628Y3687D01*
X-622Y3687D01*
X-558D01*
Y3764D01*
D02*
G37*
G36*
X-125Y3858D02*
X-177D01*
X-181Y3857D01*
X-185D01*
X-189Y3857D01*
X-193Y3857D01*
X-196Y3856D01*
X-199Y3856D01*
X-201Y3855D01*
X-203Y3855D01*
X-205Y3854D01*
X-207Y3854D01*
X-208Y3854D01*
X-209Y3854D01*
X-210Y3853D01*
X-210Y3853D01*
X-213Y3852D01*
X-216Y3850D01*
X-222Y3846D01*
X-226Y3842D01*
X-230Y3838D01*
X-234Y3834D01*
X-236Y3831D01*
X-237Y3829D01*
X-238Y3829D01*
X-238Y3828D01*
Y3828D01*
X-240Y3824D01*
X-242Y3820D01*
X-245Y3811D01*
X-247Y3802D01*
X-249Y3794D01*
X-249Y3790D01*
X-249Y3786D01*
X-250Y3783D01*
Y3780D01*
X-250Y3777D01*
Y3775D01*
Y3774D01*
Y3774D01*
X-250Y3765D01*
X-249Y3756D01*
X-248Y3749D01*
X-247Y3746D01*
X-247Y3743D01*
X-246Y3740D01*
X-246Y3738D01*
X-245Y3736D01*
X-245Y3734D01*
X-244Y3733D01*
X-244Y3732D01*
X-244Y3731D01*
Y3731D01*
X-242Y3724D01*
X-239Y3719D01*
X-236Y3714D01*
X-234Y3710D01*
X-231Y3707D01*
X-229Y3704D01*
X-228Y3703D01*
X-228Y3702D01*
X-225Y3700D01*
X-221Y3697D01*
X-218Y3696D01*
X-215Y3694D01*
X-212Y3693D01*
X-210Y3692D01*
X-208Y3691D01*
X-208Y3691D01*
X-207D01*
X-203Y3689D01*
X-197Y3689D01*
X-191Y3688D01*
X-185Y3687D01*
X-180Y3687D01*
X-178Y3687D01*
X-125D01*
Y3858D01*
D02*
G37*
G36*
X3234Y3857D02*
X3232Y3850D01*
X3229Y3842D01*
X3227Y3834D01*
X3224Y3827D01*
X3223Y3823D01*
X3222Y3820D01*
X3221Y3817D01*
X3220Y3815D01*
X3219Y3813D01*
X3219Y3811D01*
X3218Y3811D01*
Y3810D01*
X3195Y3749D01*
X3271D01*
X3246Y3814D01*
X3243Y3822D01*
X3241Y3830D01*
X3239Y3837D01*
X3237Y3843D01*
X3236Y3846D01*
X3236Y3849D01*
X3235Y3851D01*
X3235Y3853D01*
X3235Y3855D01*
X3234Y3856D01*
X3234Y3857D01*
Y3857D01*
D02*
G37*
G36*
X17586Y6458D02*
X17564D01*
X17553Y6457D01*
X17543Y6456D01*
X17534Y6454D01*
X17528Y6452D01*
X17523Y6450D01*
X17519Y6448D01*
X17517Y6447D01*
X17516Y6446D01*
X17511Y6442D01*
X17507Y6436D01*
X17505Y6431D01*
X17503Y6425D01*
X17502Y6419D01*
X17501Y6415D01*
X17501Y6414D01*
Y6413D01*
Y6412D01*
Y6411D01*
Y6407D01*
X17502Y6403D01*
X17504Y6395D01*
X17507Y6389D01*
X17510Y6384D01*
X17513Y6379D01*
X17516Y6376D01*
X17518Y6374D01*
X17519Y6374D01*
X17519D01*
X17527Y6370D01*
X17535Y6367D01*
X17544Y6364D01*
X17553Y6363D01*
X17561Y6362D01*
X17564Y6362D01*
X17567D01*
X17570Y6362D01*
X17586D01*
Y6458D01*
D02*
G37*
G36*
X4895Y99D02*
X4893D01*
X4888Y98D01*
X4884Y98D01*
X4879Y97D01*
X4876Y96D01*
X4873Y95D01*
X4871Y94D01*
X4869Y93D01*
X4869Y93D01*
X4865Y91D01*
X4862Y88D01*
X4859Y85D01*
X4857Y83D01*
X4855Y80D01*
X4853Y78D01*
X4852Y77D01*
X4852Y76D01*
X4850Y73D01*
X4849Y69D01*
X4849Y68D01*
Y66D01*
X4848Y66D01*
Y65D01*
X4848Y63D01*
X4847Y60D01*
X4847Y54D01*
Y51D01*
Y49D01*
Y47D01*
Y46D01*
Y-46D01*
X4847Y-56D01*
X4849Y-65D01*
X4851Y-73D01*
X4853Y-79D01*
X4855Y-84D01*
X4857Y-88D01*
X4858Y-89D01*
X4859Y-90D01*
X4863Y-95D01*
X4869Y-98D01*
X4874Y-101D01*
X4880Y-102D01*
X4885Y-103D01*
X4889Y-104D01*
X4891Y-104D01*
X4893D01*
X4902Y-104D01*
X4909Y-102D01*
X4915Y-100D01*
X4919Y-97D01*
X4923Y-95D01*
X4926Y-93D01*
X4928Y-91D01*
X4928Y-90D01*
X4932Y-85D01*
X4934Y-78D01*
X4936Y-70D01*
X4938Y-64D01*
X4939Y-58D01*
Y-55D01*
X4939Y-52D01*
Y-50D01*
Y-49D01*
Y-48D01*
Y-48D01*
Y42D01*
X4939Y52D01*
X4937Y61D01*
X4935Y68D01*
X4933Y74D01*
X4931Y78D01*
X4929Y82D01*
X4928Y83D01*
X4928Y84D01*
X4923Y89D01*
X4917Y93D01*
X4912Y95D01*
X4906Y97D01*
X4901Y98D01*
X4897Y98D01*
X4895Y99D01*
D02*
G37*
G36*
X2312Y3859D02*
X2309D01*
X2301Y3858D01*
X2294Y3857D01*
X2287Y3855D01*
X2281Y3853D01*
X2279Y3852D01*
X2276Y3851D01*
X2274Y3850D01*
X2273Y3849D01*
X2271Y3848D01*
X2270Y3848D01*
X2270Y3847D01*
X2270D01*
X2263Y3843D01*
X2258Y3838D01*
X2253Y3832D01*
X2250Y3827D01*
X2246Y3823D01*
X2245Y3821D01*
X2244Y3819D01*
X2243Y3818D01*
X2243Y3817D01*
X2243Y3816D01*
Y3816D01*
X2239Y3808D01*
X2237Y3800D01*
X2236Y3792D01*
X2234Y3784D01*
X2234Y3781D01*
X2234Y3778D01*
X2234Y3775D01*
X2233Y3773D01*
Y3771D01*
Y3769D01*
Y3768D01*
Y3768D01*
X2234Y3760D01*
X2234Y3753D01*
X2235Y3746D01*
X2237Y3740D01*
X2238Y3733D01*
X2240Y3728D01*
X2242Y3723D01*
X2244Y3719D01*
X2246Y3715D01*
X2248Y3711D01*
X2250Y3708D01*
X2252Y3706D01*
X2253Y3704D01*
X2254Y3703D01*
X2255Y3702D01*
X2255Y3701D01*
X2259Y3697D01*
X2263Y3694D01*
X2268Y3691D01*
X2273Y3688D01*
X2277Y3686D01*
X2282Y3684D01*
X2286Y3682D01*
X2291Y3681D01*
X2295Y3680D01*
X2298Y3679D01*
X2302Y3679D01*
X2305Y3678D01*
X2307D01*
X2309Y3678D01*
X2310D01*
X2316Y3678D01*
X2322Y3679D01*
X2327Y3680D01*
X2332Y3682D01*
X2337Y3683D01*
X2341Y3685D01*
X2346Y3687D01*
X2349Y3690D01*
X2353Y3692D01*
X2356Y3694D01*
X2358Y3696D01*
X2360Y3698D01*
X2362Y3699D01*
X2364Y3700D01*
X2364Y3701D01*
X2364Y3701D01*
X2368Y3706D01*
X2371Y3710D01*
X2374Y3716D01*
X2377Y3721D01*
X2379Y3726D01*
X2381Y3731D01*
X2382Y3737D01*
X2383Y3742D01*
X2384Y3747D01*
X2385Y3751D01*
X2385Y3755D01*
X2386Y3758D01*
Y3761D01*
X2386Y3763D01*
Y3764D01*
Y3765D01*
X2386Y3774D01*
X2385Y3782D01*
X2384Y3790D01*
X2383Y3797D01*
X2381Y3804D01*
X2379Y3810D01*
X2377Y3815D01*
X2375Y3820D01*
X2373Y3824D01*
X2371Y3827D01*
X2369Y3830D01*
X2367Y3833D01*
X2366Y3834D01*
X2364Y3836D01*
X2364Y3836D01*
X2364Y3837D01*
X2359Y3841D01*
X2355Y3844D01*
X2350Y3847D01*
X2346Y3849D01*
X2341Y3852D01*
X2337Y3853D01*
X2332Y3855D01*
X2328Y3856D01*
X2324Y3857D01*
X2321Y3857D01*
X2317Y3858D01*
X2315Y3858D01*
X2312Y3859D01*
D02*
G37*
G36*
X6226Y98D02*
X6204D01*
X6193Y97D01*
X6183Y96D01*
X6174Y94D01*
X6168Y92D01*
X6163Y90D01*
X6159Y88D01*
X6157Y87D01*
X6156Y86D01*
X6151Y82D01*
X6147Y76D01*
X6145Y71D01*
X6143Y65D01*
X6142Y59D01*
X6141Y55D01*
X6141Y54D01*
Y53D01*
Y52D01*
Y51D01*
Y47D01*
X6142Y43D01*
X6144Y35D01*
X6147Y29D01*
X6150Y24D01*
X6153Y19D01*
X6156Y16D01*
X6158Y14D01*
X6159Y14D01*
X6159D01*
X6167Y10D01*
X6175Y7D01*
X6184Y4D01*
X6193Y3D01*
X6201Y2D01*
X6204Y2D01*
X6207D01*
X6210Y2D01*
X6226D01*
Y98D01*
D02*
G37*
G36*
X39013Y8031D02*
X38970D01*
Y7974D01*
X39015D01*
X39020Y7974D01*
X39023Y7974D01*
X39026Y7974D01*
X39028Y7975D01*
X39029Y7975D01*
X39030Y7975D01*
X39030D01*
X39033Y7976D01*
X39036Y7978D01*
X39038Y7979D01*
X39040Y7981D01*
X39041Y7982D01*
X39043Y7984D01*
X39043Y7984D01*
X39043Y7985D01*
X39045Y7988D01*
X39046Y7990D01*
X39047Y7993D01*
X39048Y7996D01*
X39048Y7998D01*
X39049Y8000D01*
Y8001D01*
Y8002D01*
Y8002D01*
X39048Y8007D01*
X39047Y8011D01*
X39046Y8015D01*
X39044Y8018D01*
X39043Y8020D01*
X39041Y8022D01*
X39040Y8023D01*
X39040Y8024D01*
X39038Y8025D01*
X39036Y8026D01*
X39032Y8028D01*
X39027Y8029D01*
X39022Y8030D01*
X39018Y8031D01*
X39016Y8031D01*
X39014D01*
X39013Y8031D01*
D02*
G37*
G36*
X40143Y8043D02*
X40141D01*
X40139Y8043D01*
X40136Y8043D01*
X40132Y8042D01*
X40128Y8040D01*
X40125Y8039D01*
X40122Y8037D01*
X40120Y8035D01*
X40119Y8034D01*
X40119Y8034D01*
X40118D01*
X40117Y8032D01*
X40116Y8030D01*
X40113Y8026D01*
X40112Y8022D01*
X40111Y8018D01*
X40110Y8014D01*
X40110Y8013D01*
Y8011D01*
X40110Y8010D01*
Y8010D01*
Y8009D01*
Y8009D01*
X40110Y8006D01*
X40110Y8003D01*
X40111Y7998D01*
X40113Y7993D01*
X40114Y7989D01*
X40115Y7987D01*
X40116Y7985D01*
X40117Y7984D01*
X40118Y7983D01*
X40118Y7982D01*
X40119Y7982D01*
X40119Y7982D01*
Y7981D01*
X40121Y7979D01*
X40123Y7978D01*
X40125Y7976D01*
X40127Y7975D01*
X40131Y7973D01*
X40134Y7972D01*
X40137Y7971D01*
X40138Y7971D01*
X40139Y7971D01*
X40141Y7970D01*
X40142D01*
X40144Y7971D01*
X40146Y7971D01*
X40151Y7972D01*
X40154Y7974D01*
X40158Y7975D01*
X40160Y7977D01*
X40162Y7979D01*
X40163Y7980D01*
X40164Y7980D01*
Y7980D01*
X40165Y7982D01*
X40167Y7984D01*
X40169Y7989D01*
X40170Y7993D01*
X40171Y7998D01*
X40172Y8001D01*
X40172Y8003D01*
Y8005D01*
X40173Y8006D01*
Y8006D01*
Y8007D01*
Y8007D01*
Y8010D01*
X40172Y8013D01*
X40171Y8019D01*
X40170Y8023D01*
X40168Y8027D01*
X40167Y8030D01*
X40166Y8031D01*
X40165Y8032D01*
X40164Y8033D01*
X40164Y8034D01*
X40164Y8034D01*
X40164Y8034D01*
X40162Y8036D01*
X40160Y8037D01*
X40157Y8039D01*
X40153Y8041D01*
X40149Y8042D01*
X40146Y8043D01*
X40145Y8043D01*
X40144D01*
X40143Y8043D01*
D02*
G37*
G36*
X405Y3760D02*
X353D01*
X346Y3760D01*
X339Y3759D01*
X334Y3759D01*
X329Y3758D01*
X325Y3757D01*
X323Y3757D01*
X321Y3756D01*
X321Y3756D01*
X317Y3754D01*
X313Y3753D01*
X310Y3750D01*
X308Y3748D01*
X306Y3746D01*
X304Y3744D01*
X303Y3743D01*
X303Y3743D01*
X301Y3740D01*
X299Y3736D01*
X298Y3732D01*
X297Y3729D01*
X297Y3726D01*
X296Y3724D01*
Y3722D01*
Y3721D01*
X297Y3718D01*
X297Y3714D01*
X298Y3711D01*
X299Y3708D01*
X300Y3706D01*
X300Y3704D01*
X301Y3703D01*
X301Y3703D01*
X303Y3700D01*
X304Y3697D01*
X306Y3695D01*
X308Y3693D01*
X310Y3692D01*
X311Y3691D01*
X312Y3690D01*
X312Y3690D01*
X315Y3689D01*
X318Y3687D01*
X320Y3686D01*
X323Y3685D01*
X326Y3685D01*
X327Y3684D01*
X329Y3684D01*
X329D01*
X332Y3684D01*
X335Y3683D01*
X341Y3683D01*
X405D01*
Y3760D01*
D02*
G37*
G36*
Y3854D02*
X352D01*
X348Y3854D01*
X345Y3853D01*
X342Y3853D01*
X339D01*
X336Y3853D01*
X334Y3852D01*
X331Y3852D01*
X328Y3851D01*
X327Y3851D01*
X326Y3851D01*
X323Y3849D01*
X320Y3847D01*
X317Y3846D01*
X315Y3844D01*
X313Y3842D01*
X312Y3841D01*
X311Y3839D01*
X311Y3839D01*
X309Y3836D01*
X308Y3832D01*
X307Y3829D01*
X306Y3826D01*
X306Y3824D01*
X306Y3821D01*
Y3820D01*
Y3820D01*
X306Y3815D01*
X306Y3811D01*
X307Y3808D01*
X309Y3805D01*
X310Y3803D01*
X311Y3801D01*
X311Y3800D01*
X311Y3800D01*
X314Y3797D01*
X317Y3795D01*
X319Y3793D01*
X322Y3791D01*
X325Y3790D01*
X327Y3789D01*
X328Y3789D01*
X329Y3789D01*
X332Y3788D01*
X336Y3787D01*
X341Y3787D01*
X346Y3787D01*
X350Y3786D01*
X405D01*
Y3854D01*
D02*
G37*
G36*
X3490Y3760D02*
X3439D01*
X3431Y3760D01*
X3425Y3759D01*
X3419Y3759D01*
X3414Y3758D01*
X3411Y3757D01*
X3408Y3757D01*
X3407Y3756D01*
X3406Y3756D01*
X3402Y3754D01*
X3398Y3753D01*
X3395Y3750D01*
X3393Y3748D01*
X3391Y3746D01*
X3389Y3744D01*
X3388Y3743D01*
X3388Y3743D01*
X3386Y3740D01*
X3384Y3736D01*
X3383Y3732D01*
X3382Y3729D01*
X3382Y3726D01*
X3382Y3724D01*
Y3722D01*
Y3721D01*
X3382Y3718D01*
X3382Y3714D01*
X3383Y3711D01*
X3384Y3708D01*
X3385Y3706D01*
X3385Y3704D01*
X3386Y3703D01*
X3386Y3703D01*
X3388Y3700D01*
X3390Y3697D01*
X3392Y3695D01*
X3393Y3693D01*
X3395Y3692D01*
X3396Y3691D01*
X3397Y3690D01*
X3398Y3690D01*
X3400Y3689D01*
X3403Y3687D01*
X3406Y3686D01*
X3409Y3685D01*
X3411Y3685D01*
X3413Y3684D01*
X3414Y3684D01*
X3414D01*
X3417Y3684D01*
X3420Y3683D01*
X3427Y3683D01*
X3490D01*
Y3760D01*
D02*
G37*
G36*
X39145Y8101D02*
X39144D01*
X39141Y8101D01*
X39138Y8100D01*
X39135Y8100D01*
X39132Y8099D01*
X39130Y8098D01*
X39129Y8097D01*
X39128Y8097D01*
X39127Y8097D01*
X39125Y8094D01*
X39122Y8092D01*
X39120Y8090D01*
X39118Y8088D01*
X39117Y8086D01*
X39116Y8084D01*
X39116Y8083D01*
X39115Y8083D01*
X39114Y8079D01*
X39113Y8076D01*
X39112Y8072D01*
X39112Y8069D01*
X39111Y8067D01*
X39111Y8065D01*
Y8063D01*
Y8063D01*
Y8063D01*
X39111Y8060D01*
X39112Y8057D01*
X39113Y8052D01*
X39114Y8048D01*
X39116Y8045D01*
X39117Y8042D01*
X39119Y8040D01*
X39119Y8039D01*
X39120Y8038D01*
X39120Y8038D01*
Y8038D01*
X39122Y8036D01*
X39124Y8035D01*
X39128Y8032D01*
X39132Y8031D01*
X39135Y8030D01*
X39138Y8029D01*
X39139Y8029D01*
X39141D01*
X39142Y8028D01*
X39145D01*
X39148Y8029D01*
X39152Y8030D01*
X39156Y8031D01*
X39159Y8033D01*
X39162Y8035D01*
X39163Y8036D01*
X39165Y8037D01*
X39165Y8038D01*
Y8038D01*
X39167Y8040D01*
X39168Y8042D01*
X39170Y8046D01*
X39172Y8050D01*
X39173Y8055D01*
X39174Y8058D01*
X39174Y8060D01*
Y8061D01*
X39174Y8062D01*
Y8063D01*
Y8064D01*
Y8064D01*
Y8067D01*
X39174Y8070D01*
X39173Y8076D01*
X39171Y8080D01*
X39170Y8084D01*
X39169Y8086D01*
X39168Y8087D01*
X39167Y8088D01*
X39167Y8089D01*
X39166Y8090D01*
X39165Y8091D01*
X39165Y8091D01*
X39165Y8091D01*
X39163Y8093D01*
X39162Y8095D01*
X39158Y8097D01*
X39154Y8099D01*
X39151Y8100D01*
X39148Y8101D01*
X39146Y8101D01*
X39145Y8101D01*
D02*
G37*
G36*
X41196Y8085D02*
X41166D01*
Y7987D01*
X41195D01*
X41198Y7987D01*
X41200D01*
X41202Y7988D01*
X41204Y7988D01*
X41206Y7988D01*
X41208Y7988D01*
X41209Y7989D01*
X41211Y7989D01*
X41212Y7989D01*
X41213Y7989D01*
X41213Y7989D01*
X41214Y7990D01*
X41214Y7990D01*
X41215Y7990D01*
X41216Y7991D01*
X41218Y7991D01*
X41221Y7994D01*
X41224Y7996D01*
X41226Y7998D01*
X41228Y8001D01*
X41229Y8002D01*
X41230Y8003D01*
X41230Y8004D01*
X41230Y8004D01*
Y8004D01*
X41232Y8006D01*
X41233Y8009D01*
X41234Y8014D01*
X41235Y8019D01*
X41236Y8024D01*
X41237Y8026D01*
X41237Y8028D01*
X41237Y8030D01*
Y8032D01*
X41237Y8033D01*
Y8034D01*
Y8035D01*
Y8035D01*
X41237Y8040D01*
X41237Y8045D01*
X41236Y8049D01*
X41236Y8051D01*
X41235Y8053D01*
X41235Y8054D01*
X41235Y8056D01*
X41234Y8057D01*
X41234Y8058D01*
X41234Y8059D01*
X41234Y8059D01*
X41234Y8059D01*
Y8060D01*
X41232Y8063D01*
X41231Y8066D01*
X41229Y8069D01*
X41228Y8072D01*
X41226Y8073D01*
X41225Y8075D01*
X41225Y8076D01*
X41224Y8076D01*
X41223Y8077D01*
X41221Y8079D01*
X41219Y8080D01*
X41217Y8081D01*
X41215Y8081D01*
X41214Y8082D01*
X41213Y8082D01*
X41213Y8082D01*
X41213D01*
X41210Y8083D01*
X41207Y8084D01*
X41203Y8084D01*
X41200Y8084D01*
X41197Y8084D01*
X41196Y8085D01*
D02*
G37*
G36*
X41067D02*
X41037D01*
Y7987D01*
X41067D01*
X41069Y7987D01*
X41071D01*
X41074Y7988D01*
X41076Y7988D01*
X41077Y7988D01*
X41079Y7988D01*
X41080Y7989D01*
X41082Y7989D01*
X41083Y7989D01*
X41084Y7989D01*
X41084Y7989D01*
X41085Y7990D01*
X41085Y7990D01*
X41086Y7990D01*
X41087Y7991D01*
X41089Y7991D01*
X41092Y7994D01*
X41095Y7996D01*
X41097Y7998D01*
X41099Y8001D01*
X41100Y8002D01*
X41101Y8003D01*
X41101Y8004D01*
X41102Y8004D01*
Y8004D01*
X41103Y8006D01*
X41104Y8009D01*
X41105Y8014D01*
X41107Y8019D01*
X41107Y8024D01*
X41108Y8026D01*
X41108Y8028D01*
X41108Y8030D01*
Y8032D01*
X41108Y8033D01*
Y8034D01*
Y8035D01*
Y8035D01*
X41108Y8040D01*
X41108Y8045D01*
X41107Y8049D01*
X41107Y8051D01*
X41107Y8053D01*
X41106Y8054D01*
X41106Y8056D01*
X41106Y8057D01*
X41105Y8058D01*
X41105Y8059D01*
X41105Y8059D01*
X41105Y8059D01*
Y8060D01*
X41103Y8063D01*
X41102Y8066D01*
X41100Y8069D01*
X41099Y8072D01*
X41097Y8073D01*
X41096Y8075D01*
X41096Y8076D01*
X41095Y8076D01*
X41094Y8077D01*
X41092Y8079D01*
X41090Y8080D01*
X41088Y8081D01*
X41087Y8081D01*
X41085Y8082D01*
X41084Y8082D01*
X41084Y8082D01*
X41084D01*
X41081Y8083D01*
X41078Y8084D01*
X41075Y8084D01*
X41071Y8084D01*
X41069Y8084D01*
X41067Y8085D01*
D02*
G37*
G36*
X36528Y8031D02*
X36485D01*
Y7974D01*
X36531D01*
X36535Y7974D01*
X36538Y7974D01*
X36541Y7974D01*
X36543Y7975D01*
X36544Y7975D01*
X36545Y7975D01*
X36545D01*
X36548Y7976D01*
X36551Y7978D01*
X36553Y7979D01*
X36555Y7981D01*
X36557Y7982D01*
X36558Y7984D01*
X36559Y7984D01*
X36559Y7985D01*
X36560Y7988D01*
X36562Y7990D01*
X36563Y7993D01*
X36563Y7996D01*
X36564Y7998D01*
X36564Y8000D01*
Y8001D01*
Y8002D01*
Y8002D01*
X36564Y8007D01*
X36562Y8011D01*
X36561Y8015D01*
X36560Y8018D01*
X36558Y8020D01*
X36557Y8022D01*
X36556Y8023D01*
X36555Y8024D01*
X36554Y8025D01*
X36551Y8026D01*
X36547Y8028D01*
X36542Y8029D01*
X36538Y8030D01*
X36533Y8031D01*
X36531Y8031D01*
X36530D01*
X36528Y8031D01*
D02*
G37*
G36*
X8580Y8368D02*
X8564D01*
Y8272D01*
X8586D01*
X8597Y8272D01*
X8607Y8274D01*
X8615Y8276D01*
X8622Y8277D01*
X8627Y8279D01*
X8631Y8282D01*
X8633Y8283D01*
X8633Y8283D01*
X8638Y8288D01*
X8642Y8293D01*
X8645Y8299D01*
X8647Y8305D01*
X8648Y8310D01*
X8648Y8314D01*
X8649Y8316D01*
Y8317D01*
Y8318D01*
Y8318D01*
Y8323D01*
X8648Y8327D01*
X8646Y8334D01*
X8643Y8341D01*
X8640Y8346D01*
X8636Y8350D01*
X8633Y8353D01*
X8631Y8355D01*
X8631Y8356D01*
X8631D01*
X8623Y8360D01*
X8614Y8363D01*
X8606Y8365D01*
X8597Y8366D01*
X8589Y8367D01*
X8585Y8368D01*
X8582D01*
X8580Y8368D01*
D02*
G37*
G36*
X37014Y8031D02*
X36971D01*
Y7974D01*
X37016D01*
X37020Y7974D01*
X37024Y7974D01*
X37027Y7974D01*
X37028Y7975D01*
X37030Y7975D01*
X37031Y7975D01*
X37031D01*
X37034Y7976D01*
X37036Y7978D01*
X37039Y7979D01*
X37041Y7981D01*
X37042Y7982D01*
X37043Y7984D01*
X37044Y7984D01*
X37044Y7985D01*
X37046Y7988D01*
X37047Y7990D01*
X37048Y7993D01*
X37049Y7996D01*
X37049Y7998D01*
X37049Y8000D01*
Y8001D01*
Y8002D01*
Y8002D01*
X37049Y8007D01*
X37048Y8011D01*
X37047Y8015D01*
X37045Y8018D01*
X37043Y8020D01*
X37042Y8022D01*
X37041Y8023D01*
X37041Y8024D01*
X37039Y8025D01*
X37037Y8026D01*
X37033Y8028D01*
X37028Y8029D01*
X37023Y8030D01*
X37019Y8031D01*
X37017Y8031D01*
X37015D01*
X37014Y8031D01*
D02*
G37*
G36*
X39643Y8021D02*
X39642D01*
X39638Y8020D01*
X39634Y8020D01*
X39631Y8018D01*
X39628Y8017D01*
X39626Y8016D01*
X39624Y8015D01*
X39623Y8014D01*
X39623Y8014D01*
X39621Y8011D01*
X39619Y8008D01*
X39617Y8004D01*
X39617Y8001D01*
X39616Y7999D01*
X39616Y7997D01*
X39616Y7996D01*
Y7995D01*
Y7995D01*
Y7995D01*
X39616Y7991D01*
X39617Y7988D01*
X39618Y7985D01*
X39619Y7983D01*
X39621Y7981D01*
X39622Y7979D01*
X39623Y7978D01*
X39623Y7978D01*
X39626Y7975D01*
X39629Y7974D01*
X39632Y7972D01*
X39635Y7971D01*
X39638Y7971D01*
X39640Y7971D01*
X39641Y7970D01*
X39642D01*
X39646Y7971D01*
X39649Y7972D01*
X39652Y7973D01*
X39655Y7974D01*
X39657Y7976D01*
X39659Y7977D01*
X39660Y7978D01*
X39660Y7978D01*
X39663Y7981D01*
X39665Y7984D01*
X39666Y7987D01*
X39667Y7990D01*
X39667Y7992D01*
X39668Y7994D01*
X39668Y7995D01*
Y7996D01*
Y7996D01*
Y7996D01*
X39668Y8000D01*
X39667Y8003D01*
X39665Y8006D01*
X39664Y8009D01*
X39663Y8011D01*
X39662Y8012D01*
X39661Y8013D01*
X39660Y8014D01*
X39658Y8016D01*
X39654Y8018D01*
X39651Y8019D01*
X39648Y8020D01*
X39646Y8020D01*
X39644Y8020D01*
X39643Y8021D01*
D02*
G37*
G36*
X39305Y6459D02*
X39303D01*
X39298Y6458D01*
X39294Y6458D01*
X39289Y6457D01*
X39286Y6456D01*
X39283Y6455D01*
X39281Y6454D01*
X39279Y6453D01*
X39279Y6453D01*
X39275Y6451D01*
X39272Y6448D01*
X39269Y6445D01*
X39267Y6443D01*
X39265Y6440D01*
X39263Y6438D01*
X39262Y6437D01*
X39262Y6436D01*
X39260Y6433D01*
X39259Y6429D01*
X39259Y6428D01*
Y6426D01*
X39258Y6426D01*
Y6425D01*
X39258Y6423D01*
X39257Y6420D01*
X39257Y6414D01*
Y6411D01*
Y6409D01*
Y6407D01*
Y6406D01*
Y6314D01*
X39257Y6304D01*
X39259Y6295D01*
X39261Y6287D01*
X39263Y6281D01*
X39265Y6276D01*
X39267Y6272D01*
X39268Y6271D01*
X39269Y6270D01*
X39273Y6265D01*
X39279Y6262D01*
X39284Y6259D01*
X39290Y6258D01*
X39295Y6257D01*
X39299Y6256D01*
X39301Y6256D01*
X39303D01*
X39312Y6256D01*
X39319Y6258D01*
X39325Y6260D01*
X39329Y6263D01*
X39333Y6265D01*
X39336Y6267D01*
X39338Y6269D01*
X39338Y6270D01*
X39342Y6275D01*
X39344Y6282D01*
X39346Y6290D01*
X39348Y6296D01*
X39349Y6302D01*
Y6305D01*
X39349Y6308D01*
Y6310D01*
Y6311D01*
Y6312D01*
Y6312D01*
Y6402D01*
X39349Y6412D01*
X39347Y6421D01*
X39345Y6428D01*
X39343Y6434D01*
X39341Y6438D01*
X39339Y6442D01*
X39338Y6443D01*
X39338Y6444D01*
X39333Y6449D01*
X39327Y6453D01*
X39322Y6455D01*
X39316Y6457D01*
X39311Y6458D01*
X39307Y6458D01*
X39305Y6459D01*
D02*
G37*
G36*
X40702Y8087D02*
X40671D01*
Y7989D01*
X40701D01*
X40703Y7990D01*
X40706D01*
X40708Y7990D01*
X40710Y7990D01*
X40712Y7990D01*
X40713Y7990D01*
X40715Y7991D01*
X40716Y7991D01*
X40717Y7991D01*
X40718Y7991D01*
X40719Y7991D01*
X40719Y7992D01*
X40720Y7992D01*
X40720Y7992D01*
X40722Y7993D01*
X40723Y7994D01*
X40726Y7996D01*
X40729Y7998D01*
X40731Y8001D01*
X40733Y8003D01*
X40735Y8005D01*
X40735Y8005D01*
X40736Y8006D01*
X40736Y8006D01*
Y8006D01*
X40737Y8009D01*
X40738Y8011D01*
X40740Y8016D01*
X40741Y8021D01*
X40742Y8026D01*
X40742Y8028D01*
X40742Y8030D01*
X40742Y8032D01*
Y8034D01*
X40743Y8035D01*
Y8036D01*
Y8037D01*
Y8037D01*
X40742Y8042D01*
X40742Y8047D01*
X40741Y8051D01*
X40741Y8053D01*
X40741Y8055D01*
X40741Y8056D01*
X40740Y8058D01*
X40740Y8059D01*
X40740Y8060D01*
X40739Y8061D01*
X40739Y8061D01*
X40739Y8062D01*
Y8062D01*
X40738Y8065D01*
X40736Y8069D01*
X40735Y8071D01*
X40733Y8074D01*
X40732Y8075D01*
X40731Y8077D01*
X40730Y8078D01*
X40730Y8078D01*
X40728Y8079D01*
X40726Y8081D01*
X40724Y8082D01*
X40722Y8083D01*
X40721Y8083D01*
X40719Y8084D01*
X40719Y8084D01*
X40718Y8084D01*
X40718D01*
X40716Y8085D01*
X40712Y8086D01*
X40709Y8086D01*
X40706Y8086D01*
X40703Y8087D01*
X40702Y8087D01*
D02*
G37*
G36*
X40636Y6458D02*
X40614D01*
X40603Y6457D01*
X40593Y6456D01*
X40584Y6454D01*
X40578Y6452D01*
X40573Y6450D01*
X40569Y6448D01*
X40567Y6447D01*
X40566Y6446D01*
X40561Y6442D01*
X40557Y6436D01*
X40555Y6431D01*
X40553Y6425D01*
X40552Y6419D01*
X40551Y6415D01*
X40551Y6414D01*
Y6413D01*
Y6412D01*
Y6411D01*
Y6407D01*
X40552Y6403D01*
X40554Y6395D01*
X40557Y6389D01*
X40560Y6384D01*
X40563Y6379D01*
X40566Y6376D01*
X40568Y6374D01*
X40569Y6374D01*
X40569D01*
X40577Y6370D01*
X40585Y6367D01*
X40594Y6364D01*
X40603Y6363D01*
X40611Y6362D01*
X40614Y6362D01*
X40617D01*
X40620Y6362D01*
X40636D01*
Y6458D01*
D02*
G37*
G36*
X39513Y8031D02*
X39470D01*
Y7974D01*
X39515D01*
X39519Y7974D01*
X39523Y7974D01*
X39525Y7974D01*
X39527Y7975D01*
X39529Y7975D01*
X39530Y7975D01*
X39530D01*
X39533Y7976D01*
X39535Y7978D01*
X39538Y7979D01*
X39540Y7981D01*
X39541Y7982D01*
X39542Y7984D01*
X39543Y7984D01*
X39543Y7985D01*
X39545Y7988D01*
X39546Y7990D01*
X39547Y7993D01*
X39548Y7996D01*
X39548Y7998D01*
X39548Y8000D01*
Y8001D01*
Y8002D01*
Y8002D01*
X39548Y8007D01*
X39547Y8011D01*
X39546Y8015D01*
X39544Y8018D01*
X39542Y8020D01*
X39541Y8022D01*
X39540Y8023D01*
X39540Y8024D01*
X39538Y8025D01*
X39536Y8026D01*
X39532Y8028D01*
X39527Y8029D01*
X39522Y8030D01*
X39518Y8031D01*
X39516Y8031D01*
X39514D01*
X39513Y8031D01*
D02*
G37*
G36*
X39643Y8101D02*
X39642D01*
X39638Y8101D01*
X39635Y8101D01*
X39633Y8100D01*
X39630Y8099D01*
X39628Y8098D01*
X39626Y8098D01*
X39625Y8097D01*
X39625Y8097D01*
X39622Y8095D01*
X39620Y8093D01*
X39618Y8091D01*
X39616Y8089D01*
X39615Y8088D01*
X39614Y8086D01*
X39613Y8086D01*
X39613Y8085D01*
X39612Y8082D01*
X39611Y8079D01*
X39610Y8076D01*
X39610Y8074D01*
X39609Y8072D01*
X39609Y8070D01*
Y8069D01*
Y8069D01*
X39609Y8066D01*
X39610Y8064D01*
X39611Y8059D01*
X39612Y8055D01*
X39614Y8052D01*
X39615Y8049D01*
X39617Y8047D01*
X39618Y8046D01*
X39618Y8046D01*
X39620Y8044D01*
X39622Y8043D01*
X39626Y8041D01*
X39629Y8039D01*
X39633Y8038D01*
X39636Y8037D01*
X39638Y8037D01*
X39639D01*
X39640Y8037D01*
X39644D01*
X39646Y8037D01*
X39651Y8038D01*
X39655Y8040D01*
X39658Y8041D01*
X39661Y8043D01*
X39663Y8045D01*
X39664Y8046D01*
X39665Y8046D01*
Y8046D01*
X39667Y8048D01*
X39668Y8050D01*
X39670Y8053D01*
X39672Y8057D01*
X39673Y8061D01*
X39674Y8065D01*
X39674Y8066D01*
Y8067D01*
X39674Y8068D01*
Y8069D01*
Y8069D01*
Y8069D01*
Y8072D01*
X39674Y8074D01*
X39673Y8079D01*
X39671Y8083D01*
X39670Y8086D01*
X39668Y8089D01*
X39667Y8091D01*
X39665Y8092D01*
X39665Y8092D01*
X39665Y8092D01*
X39663Y8094D01*
X39662Y8095D01*
X39658Y8098D01*
X39654Y8099D01*
X39650Y8100D01*
X39647Y8101D01*
X39645Y8101D01*
X39644D01*
X39643Y8101D01*
D02*
G37*
G36*
X9898Y8474D02*
X9896D01*
X9888Y8473D01*
X9881Y8472D01*
X9875Y8470D01*
X9870Y8467D01*
X9866Y8464D01*
X9864Y8462D01*
X9862Y8460D01*
X9861Y8460D01*
X9858Y8454D01*
X9855Y8448D01*
X9853Y8440D01*
X9852Y8433D01*
X9851Y8427D01*
Y8424D01*
X9851Y8422D01*
Y8420D01*
Y8418D01*
Y8418D01*
Y8417D01*
Y8327D01*
X9851Y8317D01*
X9852Y8309D01*
X9854Y8302D01*
X9856Y8296D01*
X9858Y8291D01*
X9860Y8288D01*
X9861Y8286D01*
X9862Y8285D01*
X9867Y8280D01*
X9872Y8277D01*
X9878Y8274D01*
X9884Y8272D01*
X9889Y8272D01*
X9893Y8271D01*
X9895Y8271D01*
X9897D01*
X9902Y8271D01*
X9906Y8272D01*
X9910Y8272D01*
X9914Y8274D01*
X9916Y8275D01*
X9919Y8276D01*
X9920Y8276D01*
X9921Y8277D01*
X9924Y8279D01*
X9928Y8282D01*
X9931Y8284D01*
X9933Y8287D01*
X9935Y8289D01*
X9936Y8292D01*
X9937Y8293D01*
X9938Y8293D01*
X9939Y8297D01*
X9941Y8301D01*
X9941Y8302D01*
Y8303D01*
X9941Y8304D01*
Y8304D01*
X9942Y8307D01*
X9942Y8310D01*
X9943Y8316D01*
Y8319D01*
Y8321D01*
Y8323D01*
Y8323D01*
Y8416D01*
X9942Y8426D01*
X9941Y8435D01*
X9939Y8443D01*
X9937Y8449D01*
X9935Y8453D01*
X9933Y8457D01*
X9931Y8459D01*
X9931Y8460D01*
X9926Y8464D01*
X9921Y8468D01*
X9915Y8470D01*
X9909Y8472D01*
X9904Y8473D01*
X9900Y8473D01*
X9898Y8474D01*
D02*
G37*
G36*
X5896Y3975D02*
X5843D01*
X5839Y3974D01*
X5836Y3974D01*
X5832Y3974D01*
X5830D01*
X5827Y3974D01*
X5825Y3973D01*
X5821Y3973D01*
X5819Y3972D01*
X5818Y3972D01*
X5817Y3972D01*
X5814Y3970D01*
X5810Y3968D01*
X5808Y3967D01*
X5806Y3965D01*
X5804Y3963D01*
X5803Y3961D01*
X5802Y3960D01*
X5802Y3960D01*
X5800Y3957D01*
X5799Y3953D01*
X5798Y3950D01*
X5797Y3947D01*
X5797Y3944D01*
X5796Y3942D01*
Y3941D01*
Y3940D01*
X5797Y3936D01*
X5797Y3932D01*
X5798Y3929D01*
X5799Y3926D01*
X5800Y3924D01*
X5801Y3922D01*
X5802Y3921D01*
X5802Y3921D01*
X5804Y3918D01*
X5807Y3916D01*
X5810Y3914D01*
X5813Y3912D01*
X5816Y3911D01*
X5818Y3910D01*
X5819Y3910D01*
X5819Y3910D01*
X5823Y3909D01*
X5827Y3908D01*
X5832Y3908D01*
X5837Y3908D01*
X5841Y3907D01*
X5896D01*
Y3975D01*
D02*
G37*
G36*
X20120Y8358D02*
X20104D01*
Y8262D01*
X20126D01*
X20137Y8262D01*
X20147Y8264D01*
X20155Y8266D01*
X20162Y8267D01*
X20167Y8269D01*
X20171Y8272D01*
X20173Y8273D01*
X20173Y8273D01*
X20178Y8278D01*
X20182Y8283D01*
X20185Y8289D01*
X20187Y8295D01*
X20188Y8300D01*
X20188Y8304D01*
X20189Y8306D01*
Y8307D01*
Y8308D01*
Y8308D01*
Y8313D01*
X20188Y8317D01*
X20186Y8324D01*
X20183Y8331D01*
X20180Y8336D01*
X20176Y8340D01*
X20173Y8343D01*
X20171Y8345D01*
X20171Y8346D01*
X20171D01*
X20163Y8350D01*
X20154Y8353D01*
X20146Y8355D01*
X20137Y8356D01*
X20129Y8357D01*
X20125Y8358D01*
X20122D01*
X20120Y8358D01*
D02*
G37*
G36*
X21438Y8464D02*
X21436D01*
X21428Y8463D01*
X21421Y8462D01*
X21415Y8460D01*
X21410Y8457D01*
X21406Y8454D01*
X21404Y8452D01*
X21402Y8450D01*
X21401Y8450D01*
X21398Y8444D01*
X21395Y8438D01*
X21393Y8430D01*
X21392Y8423D01*
X21391Y8417D01*
Y8414D01*
X21391Y8412D01*
Y8410D01*
Y8408D01*
Y8408D01*
Y8407D01*
Y8317D01*
X21391Y8307D01*
X21392Y8299D01*
X21394Y8292D01*
X21396Y8286D01*
X21398Y8281D01*
X21400Y8278D01*
X21401Y8276D01*
X21402Y8275D01*
X21407Y8270D01*
X21412Y8267D01*
X21418Y8264D01*
X21424Y8262D01*
X21429Y8262D01*
X21433Y8261D01*
X21435Y8261D01*
X21437D01*
X21442Y8261D01*
X21446Y8262D01*
X21450Y8262D01*
X21454Y8264D01*
X21456Y8265D01*
X21459Y8266D01*
X21460Y8266D01*
X21461Y8267D01*
X21464Y8269D01*
X21468Y8272D01*
X21471Y8274D01*
X21473Y8277D01*
X21475Y8279D01*
X21476Y8282D01*
X21477Y8283D01*
X21478Y8283D01*
X21479Y8287D01*
X21481Y8291D01*
X21481Y8292D01*
Y8293D01*
X21481Y8294D01*
Y8294D01*
X21482Y8297D01*
X21482Y8300D01*
X21483Y8306D01*
Y8309D01*
Y8311D01*
Y8313D01*
Y8313D01*
Y8406D01*
X21482Y8416D01*
X21481Y8425D01*
X21479Y8433D01*
X21477Y8439D01*
X21475Y8443D01*
X21473Y8447D01*
X21471Y8449D01*
X21471Y8450D01*
X21466Y8454D01*
X21461Y8458D01*
X21455Y8460D01*
X21449Y8462D01*
X21444Y8463D01*
X21440Y8463D01*
X21438Y8464D01*
D02*
G37*
G36*
X38512Y8030D02*
X38469D01*
Y7973D01*
X38515D01*
X38519Y7973D01*
X38522Y7974D01*
X38525Y7974D01*
X38527Y7974D01*
X38528Y7974D01*
X38529Y7975D01*
X38529D01*
X38532Y7976D01*
X38535Y7977D01*
X38537Y7979D01*
X38539Y7980D01*
X38541Y7982D01*
X38542Y7983D01*
X38543Y7984D01*
X38543Y7984D01*
X38544Y7987D01*
X38546Y7990D01*
X38547Y7993D01*
X38547Y7995D01*
X38548Y7998D01*
X38548Y8000D01*
Y8001D01*
Y8001D01*
Y8001D01*
X38548Y8006D01*
X38546Y8010D01*
X38545Y8014D01*
X38544Y8017D01*
X38542Y8020D01*
X38541Y8021D01*
X38540Y8023D01*
X38539Y8023D01*
X38538Y8024D01*
X38535Y8025D01*
X38531Y8027D01*
X38526Y8029D01*
X38522Y8029D01*
X38517Y8030D01*
X38515Y8030D01*
X38514D01*
X38512Y8030D01*
D02*
G37*
G36*
X38013Y8030D02*
X37970D01*
Y7973D01*
X38016D01*
X38020Y7973D01*
X38023Y7974D01*
X38026Y7974D01*
X38028Y7974D01*
X38029Y7974D01*
X38030Y7975D01*
X38030D01*
X38033Y7976D01*
X38036Y7977D01*
X38038Y7979D01*
X38040Y7980D01*
X38042Y7982D01*
X38043Y7983D01*
X38043Y7984D01*
X38044Y7984D01*
X38045Y7987D01*
X38047Y7990D01*
X38048Y7993D01*
X38048Y7995D01*
X38049Y7998D01*
X38049Y8000D01*
Y8001D01*
Y8001D01*
Y8001D01*
X38048Y8006D01*
X38047Y8010D01*
X38046Y8014D01*
X38045Y8017D01*
X38043Y8020D01*
X38042Y8021D01*
X38041Y8023D01*
X38040Y8023D01*
X38038Y8024D01*
X38036Y8025D01*
X38032Y8027D01*
X38027Y8029D01*
X38022Y8029D01*
X38018Y8030D01*
X38016Y8030D01*
X38015D01*
X38013Y8030D01*
D02*
G37*
G36*
X6329Y3975D02*
X6277D01*
X6272Y3974D01*
X6268D01*
X6265Y3974D01*
X6261Y3974D01*
X6258Y3973D01*
X6255Y3973D01*
X6253Y3972D01*
X6250Y3972D01*
X6249Y3972D01*
X6247Y3971D01*
X6246Y3971D01*
X6244Y3971D01*
X6244Y3970D01*
X6243Y3970D01*
X6240Y3969D01*
X6237Y3967D01*
X6232Y3963D01*
X6227Y3959D01*
X6223Y3955D01*
X6220Y3951D01*
X6217Y3948D01*
X6217Y3947D01*
X6216Y3946D01*
X6215Y3945D01*
Y3945D01*
X6213Y3941D01*
X6212Y3937D01*
X6209Y3928D01*
X6207Y3919D01*
X6205Y3911D01*
X6205Y3907D01*
X6204Y3903D01*
X6204Y3900D01*
Y3897D01*
X6204Y3894D01*
Y3892D01*
Y3891D01*
Y3891D01*
X6204Y3882D01*
X6205Y3873D01*
X6206Y3866D01*
X6206Y3863D01*
X6207Y3860D01*
X6207Y3857D01*
X6208Y3855D01*
X6208Y3853D01*
X6209Y3851D01*
X6209Y3850D01*
X6210Y3849D01*
X6210Y3848D01*
Y3848D01*
X6212Y3841D01*
X6215Y3836D01*
X6217Y3831D01*
X6220Y3827D01*
X6223Y3824D01*
X6224Y3821D01*
X6226Y3820D01*
X6226Y3819D01*
X6229Y3817D01*
X6233Y3814D01*
X6236Y3813D01*
X6239Y3811D01*
X6242Y3810D01*
X6244Y3809D01*
X6246Y3808D01*
X6246Y3808D01*
X6246D01*
X6251Y3807D01*
X6257Y3806D01*
X6263Y3805D01*
X6268Y3805D01*
X6273Y3804D01*
X6275Y3804D01*
X6329D01*
Y3975D01*
D02*
G37*
G36*
X37513Y8031D02*
X37470D01*
Y7974D01*
X37515D01*
X37520Y7974D01*
X37523Y7974D01*
X37526Y7974D01*
X37528Y7975D01*
X37529Y7975D01*
X37530Y7975D01*
X37530D01*
X37533Y7976D01*
X37536Y7978D01*
X37538Y7979D01*
X37540Y7981D01*
X37541Y7982D01*
X37543Y7984D01*
X37543Y7984D01*
X37543Y7985D01*
X37545Y7988D01*
X37546Y7990D01*
X37547Y7993D01*
X37548Y7996D01*
X37548Y7998D01*
X37549Y8000D01*
Y8001D01*
Y8002D01*
Y8002D01*
X37548Y8007D01*
X37547Y8011D01*
X37546Y8015D01*
X37544Y8018D01*
X37543Y8020D01*
X37541Y8022D01*
X37540Y8023D01*
X37540Y8024D01*
X37538Y8025D01*
X37536Y8026D01*
X37532Y8028D01*
X37527Y8029D01*
X37522Y8030D01*
X37518Y8031D01*
X37516Y8031D01*
X37514D01*
X37513Y8031D01*
D02*
G37*
G36*
X27765Y6469D02*
X27763D01*
X27758Y6468D01*
X27754Y6468D01*
X27749Y6467D01*
X27746Y6466D01*
X27743Y6465D01*
X27741Y6464D01*
X27739Y6463D01*
X27739Y6463D01*
X27735Y6461D01*
X27732Y6458D01*
X27729Y6455D01*
X27727Y6453D01*
X27725Y6450D01*
X27723Y6448D01*
X27722Y6447D01*
X27722Y6446D01*
X27720Y6443D01*
X27719Y6439D01*
X27719Y6438D01*
Y6436D01*
X27718Y6436D01*
Y6435D01*
X27718Y6433D01*
X27717Y6430D01*
X27717Y6424D01*
Y6421D01*
Y6419D01*
Y6417D01*
Y6416D01*
Y6324D01*
X27717Y6314D01*
X27719Y6305D01*
X27721Y6297D01*
X27723Y6291D01*
X27725Y6286D01*
X27727Y6282D01*
X27728Y6281D01*
X27729Y6280D01*
X27733Y6275D01*
X27739Y6272D01*
X27744Y6269D01*
X27750Y6268D01*
X27755Y6267D01*
X27759Y6266D01*
X27761Y6266D01*
X27763D01*
X27772Y6266D01*
X27779Y6268D01*
X27785Y6270D01*
X27789Y6273D01*
X27793Y6275D01*
X27796Y6277D01*
X27798Y6279D01*
X27798Y6280D01*
X27802Y6285D01*
X27804Y6292D01*
X27806Y6300D01*
X27808Y6306D01*
X27809Y6312D01*
Y6315D01*
X27809Y6318D01*
Y6320D01*
Y6321D01*
Y6322D01*
Y6322D01*
Y6412D01*
X27809Y6422D01*
X27807Y6431D01*
X27805Y6438D01*
X27803Y6444D01*
X27801Y6448D01*
X27799Y6452D01*
X27798Y6453D01*
X27798Y6454D01*
X27793Y6459D01*
X27787Y6463D01*
X27782Y6465D01*
X27776Y6467D01*
X27771Y6468D01*
X27767Y6468D01*
X27765Y6469D01*
D02*
G37*
G36*
X29096Y6468D02*
X29074D01*
X29063Y6467D01*
X29053Y6466D01*
X29044Y6464D01*
X29038Y6462D01*
X29033Y6460D01*
X29029Y6458D01*
X29027Y6457D01*
X29026Y6456D01*
X29021Y6452D01*
X29017Y6446D01*
X29015Y6441D01*
X29013Y6435D01*
X29012Y6429D01*
X29011Y6425D01*
X29011Y6424D01*
Y6423D01*
Y6422D01*
Y6421D01*
Y6417D01*
X29012Y6413D01*
X29014Y6405D01*
X29017Y6399D01*
X29020Y6394D01*
X29023Y6389D01*
X29026Y6386D01*
X29028Y6384D01*
X29029Y6384D01*
X29029D01*
X29037Y6380D01*
X29045Y6377D01*
X29054Y6374D01*
X29063Y6373D01*
X29071Y6372D01*
X29074Y6372D01*
X29077D01*
X29080Y6372D01*
X29096D01*
Y6468D01*
D02*
G37*
G36*
X5896Y3881D02*
X5844D01*
X5837Y3880D01*
X5830Y3880D01*
X5824Y3880D01*
X5820Y3879D01*
X5816Y3878D01*
X5814Y3878D01*
X5812Y3877D01*
X5811Y3877D01*
X5807Y3875D01*
X5804Y3873D01*
X5801Y3871D01*
X5798Y3869D01*
X5796Y3867D01*
X5795Y3865D01*
X5794Y3864D01*
X5794Y3864D01*
X5791Y3860D01*
X5790Y3857D01*
X5789Y3853D01*
X5788Y3850D01*
X5787Y3847D01*
X5787Y3844D01*
Y3843D01*
Y3842D01*
X5787Y3839D01*
X5788Y3835D01*
X5788Y3832D01*
X5789Y3829D01*
X5790Y3827D01*
X5791Y3825D01*
X5791Y3824D01*
X5792Y3823D01*
X5793Y3821D01*
X5795Y3818D01*
X5797Y3816D01*
X5799Y3814D01*
X5801Y3813D01*
X5802Y3812D01*
X5803Y3811D01*
X5803Y3811D01*
X5806Y3809D01*
X5809Y3808D01*
X5811Y3807D01*
X5814Y3806D01*
X5816Y3806D01*
X5818Y3805D01*
X5819Y3805D01*
X5820D01*
X5823Y3805D01*
X5825Y3804D01*
X5832Y3804D01*
X5896D01*
Y3881D01*
D02*
G37*
G36*
X38153Y8058D02*
X38102D01*
X38153Y7986D01*
Y8058D01*
D02*
G37*
%LPD*%
D107*
X17524Y13787D02*
X17598Y13192D01*
X15431Y14840D02*
X17524Y13787D01*
X9286Y12776D02*
X11063Y14304D01*
X9286Y12776D02*
X9359Y12180D01*
X17890Y10810D02*
X17963Y10214D01*
X16906Y8976D02*
X17963Y10214D01*
X16211Y8891D02*
X16906Y8976D01*
X11050Y8257D02*
X11745Y8342D01*
X9725Y9202D02*
X11050Y8257D01*
X9652Y9798D02*
X9725Y9202D01*
X21182Y9798D02*
X21255Y9202D01*
X22580Y8257D01*
X23275Y8342D01*
X27741Y8891D02*
X28436Y8976D01*
X29493Y10214D01*
X29420Y10810D02*
X29493Y10214D01*
X20816Y12776D02*
X20889Y12180D01*
X20816Y12776D02*
X22593Y14304D01*
X26961Y14840D02*
X29055Y13787D01*
X29128Y13192D01*
X8472Y1568D02*
X8545Y972D01*
X10639Y-80D01*
X15006Y456D02*
X16783Y1984D01*
X16710Y2580D02*
X16783Y1984D01*
X8106Y4546D02*
X8179Y3950D01*
X8106Y4546D02*
X9163Y5784D01*
X9858Y5869D01*
X14325Y6417D02*
X15019Y6503D01*
X16344Y5557D01*
X16418Y4962D01*
X27875Y5557D02*
X27948Y4962D01*
X26549Y6503D02*
X27875Y5557D01*
X25855Y6417D02*
X26549Y6503D01*
X20693Y5784D02*
X21388Y5869D01*
X19636Y4546D02*
X20693Y5784D01*
X19636Y4546D02*
X19709Y3950D01*
X28240Y2580D02*
X28313Y1984D01*
X26536Y456D02*
X28313Y1984D01*
X20075Y972D02*
X22169Y-80D01*
X20002Y1568D02*
X20075Y972D01*
X31542Y1558D02*
X31615Y962D01*
X33709Y-90D01*
X38076Y446D02*
X39853Y1974D01*
X39780Y2569D02*
X39853Y1974D01*
X31176Y4536D02*
X31249Y3940D01*
X31176Y4536D02*
X32233Y5774D01*
X32928Y5859D01*
X37395Y6407D02*
X38089Y6493D01*
X39415Y5547D01*
X39488Y4952D01*
X1120Y1192D02*
Y2806D01*
X4235Y1192D02*
Y2806D01*
X3465D02*
X4235D01*
X1120D02*
X1887D01*
X1769Y-195D02*
X3585D01*
X-2725Y14335D02*
Y18975D01*
X6275D01*
Y14335D02*
Y18975D01*
Y4475D02*
Y5335D01*
X5775Y4475D02*
X6275D01*
X-2725D02*
Y5335D01*
Y4475D02*
X-2225D01*
X-1355Y3505D02*
X0D01*
X-1355Y1005D02*
X0D01*
X4985Y1125D02*
X6340D01*
X4985Y3625D02*
X6340D01*
M02*
