M48
;Layer_Color=9474304
;FILE_FORMAT=2:4
INCH,LZ
;TYPE=PLATED
T1F00S00C0.0060
T2F00S00C0.0080
T3F00S00C0.0120
T4F00S00C0.0320
T5F00S00C0.0354
T6F00S00C0.0400
%
T01
X00037Y007729
X000626Y007729
X000626Y00824
X000626Y008496
X00037Y008241
X001138Y008241
X001138Y008497
Y008752
X001138Y009008
X000882Y009008
X000882Y009264
X001394Y009009
X00165Y009264
X001906
X001906Y008753
X002162Y008753
X002162Y008497
X001906Y00824
X00165Y008241
X001394Y008241
X001906Y007728
Y007473
X002422Y007734
X002418Y00824
X002674
X00293Y008241
X002926Y0085
X002673Y008496
X002418Y009264
X002929Y009264
X003236
X002929Y007729
T02
X-002015Y-000205
Y-000017
Y000171
Y00036
Y000548
Y000736
Y000925
X-000771Y00067
X-002035Y002515
X-002165Y002975
X-003149Y003035
X-003368
X-003598
X004215Y002875
X004275Y002375
Y001875
Y001395
X00381Y00173
X005785Y001875
Y002375
X00552Y00237
Y00286
Y003295
Y00346
X00547Y000275
X00595
X0049Y00049
X009255Y000445
X009055Y000055
X009015Y001525
X01081Y00062
X01201Y00064
X01219Y00269
X01035Y00338
X01504Y0012
X016065Y002775
X020905Y000875
X020665Y000485
X02159Y00148
X02363Y0006
Y0001
X02366Y00263
X02297Y00346
X02441Y00348
X027595Y002775
X02655Y00125
X02582Y00081
X03124Y00091
X03134Y00149
X030545Y002255
X03085Y-00001
X031438Y000017
X03207Y00023
X03252Y00115
X03239Y001345
X03303Y00161
X03347Y00195
X03388Y0011
X03387Y00009
X03516Y0006
X03505Y00109
X03518Y00195
X03449Y00305
X03314Y00294
X03333Y00366
X03187Y00345
X03764Y00168
X03809Y00126
X039055Y002765
X0406Y00345
X04081
X04077Y004455
X04147Y00464
X03975Y00498
X0391Y00565
X03994Y00637
X04089Y00636
X03757Y00584
X03719Y005425
X03721Y0067
X03515Y00809
X03532Y00899
X035585Y009945
X035861
X036138
X036408
X036688
X036968
X03628Y01074
X03627Y01183
X03654
X03678Y01265
Y013205
X03696Y01364
X03698Y01465
X03842Y01412
X03864Y013425
X038327Y01034
X039285Y010335
X039096Y009406
X038795Y00959
X034105Y008905
X03387Y00861
X03333Y00933
X03265Y00997
X033045Y011985
X03411Y01353
X03535Y01404
X035315Y012805
X035515Y012575
X033566Y00661
X033066Y0066
X032565
X03207
X03415Y00521
X03537Y00403
X02979Y00451
X02922
X02941Y00636
X02847
X02763Y00565
X02732Y00487
X026095Y005495
X025661Y005386
X025505Y00669
X02761Y00814
X02812
X02861Y00808
X029215Y010305
Y010585
X02745Y0109
X02692Y01157
X027355Y013385
X027505Y013455
X0254Y0126
Y01464
X02257Y0135
X021525Y011995
X021535Y009715
X02183Y00972
X02154Y00934
X02145Y00906
X023Y00925
X02342Y00914
X021525Y0066
X021025
X02053
X020355Y004875
X02178Y00367
X01769Y00452
X01601Y00495
X016075Y00816
X016575
X017075Y008149
X017555Y009505
X017445Y010075
X017635Y010425
X01986Y01023
X017715Y01337
X03052Y01154
X03141Y01023
X01591Y01272
X015825Y014505
X015515Y014775
X01305Y01223
X013145Y011398
X01187Y00914
X01134Y00935
X010555Y009365
X010275
X010005
X009805Y009815
X00836Y01022
X005635Y010225
Y010625
Y011125
Y011655
X00524Y01173
X005245Y011475
X005525Y012125
X005565Y01243
X005555Y012685
Y012935
X005565Y01318
Y013435
Y013685
X00527Y00981
X00513Y00963
X00497Y00945
X005635Y009515
Y009125
Y008625
X00563Y00795
X005635Y007625
Y006125
Y005625
Y005125
X006025Y004145
X00534Y003933
X00468Y00367
X00442
X00338Y00558
X00319Y0054
X00263Y00502
X00245Y00515
X00227Y00502
X00209Y00515
X001902Y00502
X00172Y00515
X00154Y00501
X00136Y00515
X00118Y00501
X000895Y005575
X00173Y0073
X00226Y00721
X00261
X0028Y00708
X00302
X00207Y00702
X00342Y006413
X003306Y008112
X00363Y00819
X00349Y00862
X00368Y009185
X00345Y00952
X003659Y009809
X00331Y01016
X002545Y010365
X00229Y010412
X002034
X001778
X00117Y011885
X00075Y01154
X00032Y01155
Y00939
X00387Y01092
X00687Y00795
X00682Y007125
Y00673
X00685Y006
X009Y0066
X009495
X009995
X008855Y004835
X01417Y00555
X014635Y005495
X01581Y00513
X014055Y006585
X009995Y012005
X01106Y01353
X-001225Y013795
X-00093Y01215
X-000341Y012209
X-000225Y011308
X00013Y01094
X00022Y010435
Y01016
Y009904
X00014Y00955
X-00009Y00971
X-0003Y009575
X-00043Y00914
X-00069Y00982
X-0017Y010221
X-002115Y009845
X-002214Y008746
X-00061Y00806
X-000659Y007538
X00028Y00859
X00024Y00503
X00002
X-000205
X-00043
X-001475Y0052
X-00125Y00566
X-00195Y00484
X-002135Y00502
X-003358Y01007
X-00335Y01153
X-001225Y010805
T03
X-003075Y003475
X-000155Y000795
X002436Y00061
X002445Y001545
X001365Y002605
X006185Y001035
X007875Y000895
X008185Y000485
X007715Y000115
X01025Y0002
X009285Y001255
X015515Y000765
X015915Y001545
X015075Y-000005
X019255Y000115
X019295Y001295
X018425Y003415
X017595Y003065
X016965Y002555
X02172Y0002
X026645Y-000065
X027075Y000805
X027501Y001515
X028595Y002515
X029139Y003061
X029875Y003245
X03063Y00152
X03085Y000925
X03207Y00065
X03232
X03733Y00074
X038588Y000831
X038985Y001531
X039215Y003395
X040561Y003069
X040138Y002511
X041418Y003241
X038188Y-000069
X03878Y00514
X04004Y00512
X03681Y0067
X035885Y008085
X035865Y009185
X035349Y009488
X036225Y011275
X036709Y010858
X037115Y012615
X038795Y012225
X039395Y010625
X038095Y009445
X038133Y008058
X041345Y008735
X039845Y013815
X033665Y013955
X034055Y014755
X033215Y013205
X032165Y012195
X032635Y011525
X031925Y008655
X03207Y00527
X031219Y00602
X03073Y003847
X028545Y005175
X028185Y004975
X02721Y00512
X026775Y006315
X023725Y008075
X022325Y008435
X022085Y009398
X020705Y009735
X020395Y009545
X020195Y008695
X017955Y008735
X018185Y008245
X017285Y009795
Y010805
X019175Y011335
X020005Y011685
X020635Y012195
X021685Y013205
X022125Y013975
X022515Y014755
X018225
Y014385
X017405Y014045
X017485Y013735
X016625Y014123
X017405Y006055
X017205Y005175
X016655Y004975
X016113Y00538
X019645Y006015
X020515Y005335
X02022Y00439
X01998
X029485Y008735
X029215Y009565
X031535Y009465
X031455Y011745
X030705Y011335
X029885Y013675
Y014635
X028265Y014385
X027995Y013995
X028345Y013415
X028625Y013185
X029175Y013165
X02743Y014615
X014623Y013445
X010595Y013955
X010985Y014755
X010145Y013205
X009095Y012195
X008465Y011685
X007635Y011455
X009015Y009505
X009335Y009695
X008665Y008695
X010785Y008435
X01214Y00809
X015275Y006315
X008075Y006215
X00845Y00452
X00869
X008625Y004125
X006528Y004276
X00672Y003723
X005555Y009935
X005525Y014125
X005515Y014615
X002515Y013005
X002605Y011558
X00196Y01094
X0016
X000325Y013605
X000886Y005316
X-001555Y006065
X-002015Y007315
X-003345Y004395
X-00331Y01195
X-00352Y01183
Y01207
X-00161Y01212
X-001225Y012125
X-000695Y011165
X-002035Y012985
T04
X007265Y000685
X018795Y003875
Y004465
Y005055
Y005645
Y006235
Y008515
Y009105
Y009695
Y010285
Y010875
X030335Y010645
Y010055
Y009465
Y008875
Y005875
Y005285
Y004695
Y004105
X007265
Y004695
Y005285
Y005875
Y006475
Y008285
Y008875
Y009465
Y010055
Y010645
Y011235
T05
X040536Y010074
Y010861
Y011648
Y012436
T06
X038905Y014505
X039905
M30
