%FSLAX24Y24*%
%MOIN*%
G70*
G01*
G75*
G04 Layer_Physical_Order=4*
G04 Layer_Color=16711680*
%ADD10C,0.0080*%
%ADD11C,0.0160*%
%ADD12C,0.0200*%
%ADD13C,0.0300*%
%ADD14C,0.0040*%
%ADD15C,0.0100*%
%ADD16C,0.0120*%
%ADD17C,0.0240*%
%ADD18C,0.0090*%
%ADD19R,0.0200X0.0200*%
%ADD20R,0.0200X0.0200*%
%ADD21C,0.0098*%
%ADD22C,0.0276*%
%ADD23R,0.0236X0.0413*%
%ADD24P,0.0283X4X90.0*%
%ADD25R,0.0940X0.0650*%
%ADD26R,0.0100X0.0270*%
%ADD27R,0.0550X0.0470*%
%ADD28R,0.0160X0.0440*%
G04:AMPARAMS|DCode=29|XSize=20mil|YSize=8mil|CornerRadius=3mil|HoleSize=0mil|Usage=FLASHONLY|Rotation=90.000|XOffset=0mil|YOffset=0mil|HoleType=Round|Shape=RoundedRectangle|*
%AMROUNDEDRECTD29*
21,1,0.0200,0.0020,0,0,90.0*
21,1,0.0140,0.0080,0,0,90.0*
1,1,0.0060,0.0010,0.0070*
1,1,0.0060,0.0010,-0.0070*
1,1,0.0060,-0.0010,-0.0070*
1,1,0.0060,-0.0010,0.0070*
%
%ADD29ROUNDEDRECTD29*%
G04:AMPARAMS|DCode=30|XSize=20mil|YSize=8mil|CornerRadius=3mil|HoleSize=0mil|Usage=FLASHONLY|Rotation=0.000|XOffset=0mil|YOffset=0mil|HoleType=Round|Shape=RoundedRectangle|*
%AMROUNDEDRECTD30*
21,1,0.0200,0.0020,0,0,0.0*
21,1,0.0140,0.0080,0,0,0.0*
1,1,0.0060,0.0070,-0.0010*
1,1,0.0060,-0.0070,-0.0010*
1,1,0.0060,-0.0070,0.0010*
1,1,0.0060,0.0070,0.0010*
%
%ADD30ROUNDEDRECTD30*%
%ADD31R,0.0360X0.0400*%
%ADD32R,0.0340X0.0310*%
%ADD33R,0.0320X0.0280*%
%ADD34R,0.0560X0.0560*%
%ADD35R,0.0480X0.0560*%
%ADD36R,0.0200X0.0400*%
G04:AMPARAMS|DCode=37|XSize=52mil|YSize=63mil|CornerRadius=5.2mil|HoleSize=0mil|Usage=FLASHONLY|Rotation=180.000|XOffset=0mil|YOffset=0mil|HoleType=Round|Shape=RoundedRectangle|*
%AMROUNDEDRECTD37*
21,1,0.0520,0.0526,0,0,180.0*
21,1,0.0416,0.0630,0,0,180.0*
1,1,0.0104,-0.0208,0.0263*
1,1,0.0104,0.0208,0.0263*
1,1,0.0104,0.0208,-0.0263*
1,1,0.0104,-0.0208,-0.0263*
%
%ADD37ROUNDEDRECTD37*%
%ADD38R,0.0400X0.0360*%
%ADD39R,0.0310X0.0340*%
%ADD40R,0.0400X0.0200*%
G04:AMPARAMS|DCode=41|XSize=52mil|YSize=63mil|CornerRadius=5.2mil|HoleSize=0mil|Usage=FLASHONLY|Rotation=315.000|XOffset=0mil|YOffset=0mil|HoleType=Round|Shape=RoundedRectangle|*
%AMROUNDEDRECTD41*
21,1,0.0520,0.0526,0,0,315.0*
21,1,0.0416,0.0630,0,0,315.0*
1,1,0.0104,-0.0039,-0.0333*
1,1,0.0104,-0.0333,-0.0039*
1,1,0.0104,0.0039,0.0333*
1,1,0.0104,0.0333,0.0039*
%
%ADD41ROUNDEDRECTD41*%
G04:AMPARAMS|DCode=42|XSize=52mil|YSize=63mil|CornerRadius=5.2mil|HoleSize=0mil|Usage=FLASHONLY|Rotation=270.000|XOffset=0mil|YOffset=0mil|HoleType=Round|Shape=RoundedRectangle|*
%AMROUNDEDRECTD42*
21,1,0.0520,0.0526,0,0,270.0*
21,1,0.0416,0.0630,0,0,270.0*
1,1,0.0104,-0.0263,-0.0208*
1,1,0.0104,-0.0263,0.0208*
1,1,0.0104,0.0263,0.0208*
1,1,0.0104,0.0263,-0.0208*
%
%ADD42ROUNDEDRECTD42*%
%ADD43R,0.0280X0.0320*%
%ADD44R,0.0100X0.0220*%
G04:AMPARAMS|DCode=45|XSize=22mil|YSize=10mil|CornerRadius=0mil|HoleSize=0mil|Usage=FLASHONLY|Rotation=45.000|XOffset=0mil|YOffset=0mil|HoleType=Round|Shape=Rectangle|*
%AMROTATEDRECTD45*
4,1,4,-0.0042,-0.0113,-0.0113,-0.0042,0.0042,0.0113,0.0113,0.0042,-0.0042,-0.0113,0.0*
%
%ADD45ROTATEDRECTD45*%

%ADD46R,0.1460X0.0480*%
%ADD47R,0.0560X0.0160*%
%ADD48R,0.0750X0.0910*%
%ADD49R,0.0750X0.0710*%
G04:AMPARAMS|DCode=50|XSize=8mil|YSize=28mil|CornerRadius=4mil|HoleSize=0mil|Usage=FLASHONLY|Rotation=270.000|XOffset=0mil|YOffset=0mil|HoleType=Round|Shape=RoundedRectangle|*
%AMROUNDEDRECTD50*
21,1,0.0080,0.0200,0,0,270.0*
21,1,0.0000,0.0280,0,0,270.0*
1,1,0.0080,-0.0100,0.0000*
1,1,0.0080,-0.0100,0.0000*
1,1,0.0080,0.0100,0.0000*
1,1,0.0080,0.0100,0.0000*
%
%ADD50ROUNDEDRECTD50*%
G04:AMPARAMS|DCode=51|XSize=8mil|YSize=28mil|CornerRadius=4mil|HoleSize=0mil|Usage=FLASHONLY|Rotation=180.000|XOffset=0mil|YOffset=0mil|HoleType=Round|Shape=RoundedRectangle|*
%AMROUNDEDRECTD51*
21,1,0.0080,0.0200,0,0,180.0*
21,1,0.0000,0.0280,0,0,180.0*
1,1,0.0080,0.0000,0.0100*
1,1,0.0080,0.0000,0.0100*
1,1,0.0080,0.0000,-0.0100*
1,1,0.0080,0.0000,-0.0100*
%
%ADD51ROUNDEDRECTD51*%
G04:AMPARAMS|DCode=52|XSize=182mil|YSize=182mil|CornerRadius=4.6mil|HoleSize=0mil|Usage=FLASHONLY|Rotation=180.000|XOffset=0mil|YOffset=0mil|HoleType=Round|Shape=RoundedRectangle|*
%AMROUNDEDRECTD52*
21,1,0.1820,0.1729,0,0,180.0*
21,1,0.1729,0.1820,0,0,180.0*
1,1,0.0091,-0.0865,0.0865*
1,1,0.0091,0.0865,0.0865*
1,1,0.0091,0.0865,-0.0865*
1,1,0.0091,-0.0865,-0.0865*
%
%ADD52ROUNDEDRECTD52*%
G04:AMPARAMS|DCode=53|XSize=182mil|YSize=182mil|CornerRadius=4.6mil|HoleSize=0mil|Usage=FLASHONLY|Rotation=135.000|XOffset=0mil|YOffset=0mil|HoleType=Round|Shape=RoundedRectangle|*
%AMROUNDEDRECTD53*
21,1,0.1820,0.1729,0,0,135.0*
21,1,0.1729,0.1820,0,0,135.0*
1,1,0.0091,0.0000,0.1223*
1,1,0.0091,0.1223,0.0000*
1,1,0.0091,0.0000,-0.1223*
1,1,0.0091,-0.1223,0.0000*
%
%ADD53ROUNDEDRECTD53*%
G04:AMPARAMS|DCode=54|XSize=8mil|YSize=28mil|CornerRadius=4mil|HoleSize=0mil|Usage=FLASHONLY|Rotation=135.000|XOffset=0mil|YOffset=0mil|HoleType=Round|Shape=RoundedRectangle|*
%AMROUNDEDRECTD54*
21,1,0.0080,0.0200,0,0,135.0*
21,1,0.0000,0.0280,0,0,135.0*
1,1,0.0080,0.0071,0.0071*
1,1,0.0080,0.0071,0.0071*
1,1,0.0080,-0.0071,-0.0071*
1,1,0.0080,-0.0071,-0.0071*
%
%ADD54ROUNDEDRECTD54*%
G04:AMPARAMS|DCode=55|XSize=8mil|YSize=28mil|CornerRadius=4mil|HoleSize=0mil|Usage=FLASHONLY|Rotation=225.000|XOffset=0mil|YOffset=0mil|HoleType=Round|Shape=RoundedRectangle|*
%AMROUNDEDRECTD55*
21,1,0.0080,0.0200,0,0,225.0*
21,1,0.0000,0.0280,0,0,225.0*
1,1,0.0080,-0.0071,0.0071*
1,1,0.0080,-0.0071,0.0071*
1,1,0.0080,0.0071,-0.0071*
1,1,0.0080,0.0071,-0.0071*
%
%ADD55ROUNDEDRECTD55*%
%ADD56P,0.0283X4X360.0*%
%ADD57R,0.0600X0.0950*%
%ADD58R,0.0240X0.0160*%
G04:AMPARAMS|DCode=59|XSize=14mil|YSize=14mil|CornerRadius=7mil|HoleSize=0mil|Usage=FLASHONLY|Rotation=0.000|XOffset=0mil|YOffset=0mil|HoleType=Round|Shape=RoundedRectangle|*
%AMROUNDEDRECTD59*
21,1,0.0140,0.0000,0,0,0.0*
21,1,0.0000,0.0140,0,0,0.0*
1,1,0.0140,0.0000,0.0000*
1,1,0.0140,0.0000,0.0000*
1,1,0.0140,0.0000,0.0000*
1,1,0.0140,0.0000,0.0000*
%
%ADD59ROUNDEDRECTD59*%
%ADD60R,0.0165X0.0400*%
%ADD61C,0.0236*%
%ADD62R,0.0120X0.0400*%
%ADD63R,0.0480X0.0400*%
%ADD64R,0.0400X0.0480*%
%ADD65R,0.0827X0.0206*%
%ADD66R,0.0394X0.0560*%
%ADD67R,0.0827X0.0354*%
%ADD68R,0.0560X0.0394*%
%ADD69R,0.0206X0.0827*%
%ADD70R,0.0354X0.0827*%
G04:AMPARAMS|DCode=71|XSize=100mil|YSize=35mil|CornerRadius=8.8mil|HoleSize=0mil|Usage=FLASHONLY|Rotation=180.000|XOffset=0mil|YOffset=0mil|HoleType=Round|Shape=RoundedRectangle|*
%AMROUNDEDRECTD71*
21,1,0.1000,0.0175,0,0,180.0*
21,1,0.0825,0.0350,0,0,180.0*
1,1,0.0175,-0.0413,0.0088*
1,1,0.0175,0.0413,0.0088*
1,1,0.0175,0.0413,-0.0088*
1,1,0.0175,-0.0413,-0.0088*
%
%ADD71ROUNDEDRECTD71*%
G04:AMPARAMS|DCode=72|XSize=100mil|YSize=35mil|CornerRadius=8.8mil|HoleSize=0mil|Usage=FLASHONLY|Rotation=90.000|XOffset=0mil|YOffset=0mil|HoleType=Round|Shape=RoundedRectangle|*
%AMROUNDEDRECTD72*
21,1,0.1000,0.0175,0,0,90.0*
21,1,0.0825,0.0350,0,0,90.0*
1,1,0.0175,0.0088,0.0413*
1,1,0.0175,0.0088,-0.0413*
1,1,0.0175,-0.0088,-0.0413*
1,1,0.0175,-0.0088,0.0413*
%
%ADD72ROUNDEDRECTD72*%
%ADD73R,0.0950X0.0300*%
%ADD74R,0.0512X0.0866*%
%ADD75R,0.0512X0.0551*%
%ADD76C,0.0160*%
%ADD77C,0.0630*%
%ADD78C,0.0360*%
%ADD79C,0.0070*%
%ADD80C,0.0060*%
%ADD81C,0.0400*%
%ADD82C,0.0280*%
%ADD83R,0.0520X0.0140*%
%ADD84R,0.0108X0.0250*%
%ADD85R,0.0247X0.0144*%
%ADD86R,0.0230X0.0158*%
%ADD87R,0.0095X0.0038*%
%ADD88R,0.0150X0.0200*%
%ADD89R,0.1410X0.0970*%
%ADD90R,0.0180X0.0170*%
%ADD91C,0.0551*%
%ADD92C,0.0660*%
%ADD93C,0.0160*%
%ADD94C,0.0240*%
%ADD95C,0.0140*%
%ADD96C,0.0480*%
%ADD97C,0.0210*%
%ADD98C,0.0410*%
%ADD99R,0.0250X0.0040*%
G04:AMPARAMS|DCode=100|XSize=700mil|YSize=700mil|CornerRadius=350mil|HoleSize=0mil|Usage=FLASHONLY|Rotation=277.000|XOffset=0mil|YOffset=0mil|HoleType=Round|Shape=RoundedRectangle|*
%AMROUNDEDRECTD100*
21,1,0.7000,0.0000,0,0,277.0*
21,1,0.0000,0.7000,0,0,277.0*
1,1,0.7000,0.0000,0.0000*
1,1,0.7000,0.0000,0.0000*
1,1,0.7000,0.0000,0.0000*
1,1,0.7000,0.0000,0.0000*
%
%ADD100ROUNDEDRECTD100*%
G04:AMPARAMS|DCode=101|XSize=200mil|YSize=110mil|CornerRadius=0mil|HoleSize=0mil|Usage=FLASHONLY|Rotation=277.000|XOffset=0mil|YOffset=0mil|HoleType=Round|Shape=Rectangle|*
%AMROTATEDRECTD101*
4,1,4,-0.0668,0.0926,0.0424,0.1060,0.0668,-0.0926,-0.0424,-0.1060,-0.0668,0.0926,0.0*
%
%ADD101ROTATEDRECTD101*%

%ADD102R,0.0600X0.1340*%
%ADD103R,0.0400X0.1380*%
%ADD104R,0.0750X0.0360*%
%ADD105R,0.0360X0.0750*%
%ADD106R,0.0250X0.0580*%
G36*
X-215Y11522D02*
X-224Y11479D01*
X-226Y11471D01*
X-288Y11458D01*
X-341Y11423D01*
X-376Y11370D01*
X-388Y11308D01*
X-376Y11245D01*
X-341Y11192D01*
X-288Y11157D01*
X-225Y11145D01*
X-163Y11157D01*
X-110Y11192D01*
X-74Y11245D01*
X-62Y11307D01*
X-54Y11309D01*
X-31Y11314D01*
X8Y11282D01*
Y11049D01*
X4Y11039D01*
X-21Y11002D01*
X-33Y10940D01*
X-21Y10878D01*
X15Y10825D01*
X64Y10791D01*
X50Y10744D01*
X-1035D01*
X-1067Y10782D01*
X-1062Y10805D01*
X-1074Y10867D01*
X-1110Y10920D01*
X-1163Y10956D01*
X-1225Y10968D01*
X-1288Y10956D01*
X-1341Y10920D01*
X-1376Y10867D01*
X-1388Y10805D01*
X-1384Y10782D01*
X-1416Y10744D01*
X-1764D01*
X-2092Y11072D01*
Y12664D01*
X-2101Y12710D01*
X-2127Y12750D01*
X-2127Y12750D01*
X-2126Y12752D01*
X-2141Y12764D01*
X-2257Y12879D01*
X-2256Y12880D01*
X-2263Y12885D01*
X-2281Y12903D01*
X-2293Y12934D01*
X-2293Y12935D01*
X-2293D01*
X-2295Y12947D01*
Y13175D01*
Y13298D01*
X-2227Y13312D01*
X-2217Y13311D01*
Y13312D01*
X-2005D01*
X-215Y11522D01*
D02*
G37*
G36*
X30265Y10368D02*
X30251Y10367D01*
X30173Y10334D01*
X30107Y10283D01*
X30055Y10216D01*
X30023Y10138D01*
X30012Y10055D01*
X30023Y9971D01*
X30055Y9893D01*
X30107Y9827D01*
X30161Y9785D01*
Y9735D01*
X30107Y9693D01*
X30055Y9626D01*
X30023Y9548D01*
X30012Y9465D01*
X30023Y9381D01*
X30055Y9303D01*
X30107Y9237D01*
X30161Y9195D01*
Y9145D01*
X30107Y9103D01*
X30055Y9036D01*
X30023Y8958D01*
X30012Y8875D01*
X30023Y8791D01*
X30055Y8713D01*
X30107Y8647D01*
X30173Y8595D01*
X30251Y8563D01*
X30265Y8561D01*
Y7932D01*
X28149D01*
X28145Y7974D01*
X28145D01*
X28144Y7982D01*
X28182Y7989D01*
X28235Y8025D01*
X28271Y8078D01*
X28283Y8140D01*
X28271Y8202D01*
X28235Y8255D01*
X28182Y8291D01*
X28120Y8303D01*
X28058Y8291D01*
X28005Y8255D01*
X27969Y8202D01*
X27957Y8140D01*
X27969Y8078D01*
X28005Y8025D01*
X28058Y7989D01*
X28096Y7982D01*
X28095Y7974D01*
X28095D01*
X28091Y7932D01*
X27639D01*
X27635Y7974D01*
X27635D01*
X27634Y7982D01*
X27672Y7989D01*
X27725Y8025D01*
X27761Y8078D01*
X27773Y8140D01*
X27761Y8202D01*
X27725Y8255D01*
X27672Y8291D01*
X27610Y8303D01*
X27548Y8291D01*
X27495Y8255D01*
X27459Y8202D01*
X27447Y8140D01*
X27459Y8078D01*
X27495Y8025D01*
X27548Y7989D01*
X27586Y7982D01*
X27585Y7974D01*
X27585D01*
X27581Y7932D01*
X25963D01*
X25957Y7981D01*
X26284Y8072D01*
X26614Y8199D01*
X26930Y8358D01*
X27229Y8547D01*
X27508Y8764D01*
X27764Y9008D01*
X27995Y9276D01*
X28199Y9565D01*
X28373Y9872D01*
X28517Y10196D01*
X28628Y10532D01*
X28706Y10877D01*
X28749Y11228D01*
X28758Y11581D01*
X28736Y11884D01*
X25161Y11445D01*
X21586Y11006D01*
X21638Y10707D01*
X21732Y10366D01*
X21859Y10036D01*
X21921Y9913D01*
X21899Y9881D01*
X21892Y9871D01*
X21830Y9883D01*
X21768Y9871D01*
X21715Y9835D01*
X21706Y9822D01*
X21656D01*
X21650Y9830D01*
X21597Y9866D01*
X21535Y9878D01*
X21472Y9866D01*
X21419Y9830D01*
X21384Y9777D01*
X21372Y9715D01*
X21384Y9652D01*
X21419Y9599D01*
X21472Y9564D01*
X21534Y9552D01*
Y9503D01*
X21534D01*
Y9502D01*
X21478Y9491D01*
X21425Y9455D01*
X21389Y9402D01*
X21377Y9340D01*
X21389Y9278D01*
X21425Y9225D01*
X21478Y9189D01*
X21540Y9177D01*
X21602Y9189D01*
X21655Y9225D01*
X21691Y9278D01*
X21703Y9340D01*
X21691Y9402D01*
X21655Y9455D01*
X21602Y9491D01*
X21541Y9503D01*
Y9552D01*
X21541D01*
Y9553D01*
X21597Y9564D01*
X21650Y9599D01*
X21659Y9613D01*
X21709D01*
X21715Y9605D01*
X21768Y9569D01*
X21830Y9557D01*
X21892Y9569D01*
X21913Y9583D01*
X21941Y9542D01*
X21897Y9476D01*
X21881Y9398D01*
X21897Y9320D01*
X21941Y9253D01*
X22007Y9209D01*
X22085Y9194D01*
X22163Y9209D01*
X22229Y9253D01*
X22255Y9293D01*
X22305Y9295D01*
X22424Y9142D01*
X22668Y8886D01*
X22936Y8655D01*
X23225Y8451D01*
X23532Y8276D01*
X23564Y8262D01*
X23578Y8214D01*
X23536Y8153D01*
X23521Y8075D01*
X23536Y7997D01*
X23550Y7976D01*
X23527Y7932D01*
X18865D01*
Y8201D01*
X18878Y8203D01*
X18956Y8235D01*
X19023Y8287D01*
X19074Y8353D01*
X19107Y8431D01*
X19118Y8515D01*
X19107Y8598D01*
X19074Y8676D01*
X19023Y8743D01*
X18969Y8785D01*
Y8835D01*
X19023Y8877D01*
X19074Y8943D01*
X19107Y9021D01*
X19118Y9105D01*
X19107Y9188D01*
X19074Y9266D01*
X19023Y9333D01*
X18969Y9375D01*
Y9425D01*
X19023Y9467D01*
X19074Y9533D01*
X19107Y9611D01*
X19118Y9695D01*
X19107Y9778D01*
X19074Y9856D01*
X19023Y9923D01*
X18969Y9965D01*
Y10015D01*
X19023Y10057D01*
X19074Y10123D01*
X19107Y10201D01*
X19118Y10285D01*
X19107Y10368D01*
X19074Y10446D01*
X19023Y10513D01*
X18956Y10564D01*
X18878Y10597D01*
X18865Y10598D01*
Y11513D01*
X20417Y12299D01*
X21590Y13473D01*
X22365Y15023D01*
X22853D01*
X22869Y14975D01*
X22850Y14961D01*
X22801Y14898D01*
X22771Y14824D01*
X22761Y14745D01*
X22771Y14666D01*
X22801Y14593D01*
X22850Y14530D01*
X22913Y14481D01*
X22986Y14451D01*
X23012Y14448D01*
X23025Y14399D01*
X22802Y14225D01*
X22546Y13982D01*
X22315Y13714D01*
X22111Y13425D01*
X21936Y13117D01*
X21793Y12794D01*
X21682Y12458D01*
X21604Y12113D01*
X21560Y11762D01*
X21551Y11408D01*
X21574Y11105D01*
X25149Y11544D01*
X28724Y11983D01*
X28672Y12283D01*
X28578Y12624D01*
X28451Y12954D01*
X28292Y13270D01*
X28103Y13569D01*
X27948Y13768D01*
X27974Y13810D01*
X27995Y13806D01*
X28067Y13821D01*
X28128Y13861D01*
X28169Y13923D01*
X28183Y13995D01*
X28169Y14067D01*
X28128Y14128D01*
X28067Y14169D01*
X27995Y14183D01*
X27923Y14169D01*
X27861Y14128D01*
X27821Y14067D01*
X27806Y13995D01*
X27803Y13994D01*
X27755Y13985D01*
X27642Y14104D01*
X27374Y14335D01*
X27085Y14539D01*
X26777Y14713D01*
X26454Y14857D01*
X26118Y14968D01*
X26096Y14973D01*
X26102Y15023D01*
X30265D01*
Y10368D01*
D02*
G37*
G36*
X34714Y6768D02*
X34386Y6678D01*
X34056Y6551D01*
X33740Y6392D01*
X33441Y6203D01*
X33162Y5985D01*
X32906Y5742D01*
X32675Y5474D01*
X32471Y5185D01*
X32296Y4877D01*
X32153Y4554D01*
X32042Y4218D01*
X31964Y3873D01*
X31935Y3638D01*
X31894Y3608D01*
X31870Y3613D01*
X31812Y3602D01*
X31771Y3631D01*
X31741Y3879D01*
X30971Y3785D01*
X30934Y3818D01*
Y3847D01*
X30918Y3925D01*
X30874Y3991D01*
X30808Y4035D01*
X30730Y4051D01*
X30690Y4043D01*
X30654Y4077D01*
X30658Y4105D01*
X30647Y4188D01*
X30614Y4266D01*
X30563Y4333D01*
X30496Y4384D01*
X30418Y4417D01*
X30405Y4418D01*
Y4971D01*
X30418Y4973D01*
X30496Y5005D01*
X30563Y5057D01*
X30614Y5123D01*
X30647Y5201D01*
X30658Y5285D01*
X30647Y5368D01*
X30614Y5446D01*
X30563Y5513D01*
X30509Y5555D01*
Y5605D01*
X30563Y5647D01*
X30614Y5713D01*
X30647Y5791D01*
X30658Y5875D01*
X30647Y5958D01*
X30614Y6036D01*
X30563Y6103D01*
X30496Y6154D01*
X30418Y6187D01*
X30405Y6188D01*
Y6818D01*
X33536D01*
X33541Y6768D01*
X33503Y6761D01*
X33450Y6725D01*
X33415Y6672D01*
X33403Y6610D01*
X33415Y6548D01*
X33450Y6495D01*
X33503Y6459D01*
X33566Y6447D01*
X33628Y6459D01*
X33681Y6495D01*
X33716Y6548D01*
X33729Y6610D01*
X33716Y6672D01*
X33681Y6725D01*
X33628Y6761D01*
X33591Y6768D01*
X33596Y6818D01*
X34707D01*
X34714Y6768D01*
D02*
G37*
G36*
X30265Y6188D02*
X30251Y6187D01*
X30173Y6154D01*
X30107Y6103D01*
X30055Y6036D01*
X30023Y5958D01*
X30012Y5875D01*
X30023Y5791D01*
X30055Y5713D01*
X30107Y5647D01*
X30161Y5605D01*
Y5555D01*
X30107Y5513D01*
X30055Y5446D01*
X30023Y5368D01*
X30012Y5285D01*
X30023Y5201D01*
X30055Y5123D01*
X30107Y5057D01*
X30173Y5005D01*
X30251Y4973D01*
X30265Y4971D01*
Y4418D01*
X30251Y4417D01*
X30173Y4384D01*
X30107Y4333D01*
X30055Y4266D01*
X30023Y4188D01*
X30012Y4105D01*
X30023Y4021D01*
X30055Y3943D01*
X30107Y3877D01*
X30173Y3825D01*
X30251Y3793D01*
X30265Y3791D01*
Y3247D01*
X28723Y2450D01*
X27539Y1277D01*
X26774Y-273D01*
X24874D01*
X24867Y-223D01*
X25104Y-158D01*
X25434Y-31D01*
X25750Y128D01*
X26049Y317D01*
X26328Y534D01*
X26584Y778D01*
X26815Y1046D01*
X27019Y1335D01*
X27193Y1642D01*
X27337Y1966D01*
X27448Y2302D01*
X27526Y2647D01*
X27569Y2998D01*
X27578Y3351D01*
X27556Y3654D01*
X23981Y3215D01*
X20406Y2776D01*
X20458Y2477D01*
X20552Y2136D01*
X20679Y1806D01*
X20838Y1490D01*
X21027Y1191D01*
X21244Y912D01*
X21488Y656D01*
X21725Y451D01*
X21713Y402D01*
X21642Y388D01*
X21576Y344D01*
X21532Y278D01*
X21516Y200D01*
X21532Y122D01*
X21576Y56D01*
X21642Y12D01*
X21720Y-4D01*
X21798Y12D01*
X21864Y56D01*
X21908Y122D01*
X21924Y200D01*
X21913Y257D01*
X21954Y284D01*
X22045Y221D01*
X22352Y46D01*
X22676Y-97D01*
X23012Y-208D01*
X23078Y-223D01*
X23072Y-273D01*
X20389D01*
X20379Y-224D01*
X20452Y-194D01*
X20515Y-145D01*
X20564Y-82D01*
X20594Y-9D01*
X20605Y70D01*
X20594Y149D01*
X20564Y222D01*
X20515Y285D01*
X20452Y334D01*
X20379Y364D01*
X20300Y375D01*
X20221Y364D01*
X20148Y334D01*
X20085Y285D01*
X20036Y222D01*
X20006Y149D01*
X19995Y70D01*
X20006Y-9D01*
X20036Y-82D01*
X20085Y-145D01*
X20148Y-194D01*
X20221Y-224D01*
X20211Y-273D01*
X18865D01*
Y3561D01*
X18878Y3563D01*
X18929Y3584D01*
X18972Y3559D01*
X19132Y2256D01*
Y1946D01*
X19131Y1945D01*
X19132D01*
Y1760D01*
X19131Y1756D01*
X19132D01*
Y1573D01*
X19131Y1568D01*
X19132D01*
Y1411D01*
X19106Y1373D01*
X19091Y1295D01*
X19106Y1217D01*
X19151Y1151D01*
X19217Y1106D01*
X19295Y1091D01*
X19373Y1106D01*
X19439Y1151D01*
X19483Y1217D01*
X19499Y1295D01*
X19483Y1373D01*
X19471Y1391D01*
X19472Y1397D01*
X19472D01*
X19472Y1402D01*
X19467Y1403D01*
X19475Y1445D01*
X19469Y1478D01*
X19471Y1497D01*
X19517Y1607D01*
X19536Y1632D01*
X20464Y1746D01*
X20201Y3889D01*
X19935Y3857D01*
X19881Y3957D01*
X19824Y4145D01*
X19818Y4203D01*
X19861Y4229D01*
X19902Y4202D01*
X19980Y4186D01*
X20058Y4202D01*
X20100Y4230D01*
X20142Y4202D01*
X20220Y4186D01*
X20298Y4202D01*
X20364Y4246D01*
X20408Y4312D01*
X20424Y4390D01*
X20408Y4468D01*
X20364Y4534D01*
X20298Y4578D01*
X20220Y4594D01*
X20142Y4578D01*
X20100Y4550D01*
X20058Y4578D01*
X19980Y4594D01*
X19902Y4578D01*
X19852Y4545D01*
X19808Y4569D01*
Y5926D01*
X19819Y5943D01*
X19833Y6015D01*
X19819Y6087D01*
X19778Y6148D01*
X19717Y6189D01*
X19645Y6203D01*
X19573Y6189D01*
X19511Y6148D01*
X19471Y6087D01*
X19456Y6015D01*
X19471Y5943D01*
X19482Y5926D01*
Y4340D01*
X19481D01*
X19482Y4327D01*
Y4277D01*
X19466Y4119D01*
X19412Y3941D01*
X19327Y3782D01*
X19142Y3760D01*
X19107Y3795D01*
X19118Y3875D01*
X19107Y3958D01*
X19074Y4036D01*
X19023Y4103D01*
X18956Y4154D01*
X18878Y4187D01*
X18865Y4188D01*
Y4741D01*
X18878Y4743D01*
X18956Y4775D01*
X19023Y4827D01*
X19074Y4893D01*
X19107Y4971D01*
X19118Y5055D01*
X19107Y5138D01*
X19074Y5216D01*
X19023Y5283D01*
X18969Y5325D01*
Y5375D01*
X19023Y5417D01*
X19074Y5483D01*
X19107Y5561D01*
X19118Y5645D01*
X19107Y5728D01*
X19074Y5806D01*
X19023Y5873D01*
X18969Y5915D01*
Y5965D01*
X19023Y6007D01*
X19074Y6073D01*
X19107Y6151D01*
X19118Y6235D01*
X19107Y6318D01*
X19074Y6396D01*
X19023Y6463D01*
X18956Y6514D01*
X18878Y6547D01*
X18865Y6548D01*
Y6818D01*
X23131D01*
X23138Y6768D01*
X22846Y6688D01*
X22516Y6561D01*
X22200Y6402D01*
X21901Y6213D01*
X21622Y5995D01*
X21366Y5752D01*
X21135Y5484D01*
X20931Y5195D01*
X20756Y4887D01*
X20613Y4564D01*
X20502Y4228D01*
X20424Y3883D01*
X20380Y3532D01*
X20371Y3178D01*
X20394Y2875D01*
X23969Y3314D01*
X27544Y3753D01*
X27492Y4053D01*
X27398Y4394D01*
X27291Y4672D01*
X27320Y4707D01*
X27382Y4719D01*
X27435Y4755D01*
X27441Y4763D01*
X27471Y4756D01*
D01*
X27490Y4752D01*
X27749Y2640D01*
X29000Y2794D01*
X28991Y2864D01*
X29034Y2891D01*
X29061Y2873D01*
X29139Y2857D01*
X29217Y2873D01*
X29283Y2917D01*
X29327Y2983D01*
X29343Y3061D01*
X29327Y3139D01*
X29283Y3205D01*
X29217Y3249D01*
X29139Y3265D01*
X29061Y3249D01*
X29029Y3228D01*
X28946D01*
X28736Y4938D01*
X28736D01*
X28708Y4963D01*
Y5059D01*
X28733Y5097D01*
X28749Y5175D01*
X28733Y5253D01*
X28689Y5319D01*
X28623Y5363D01*
X28545Y5379D01*
X28467Y5363D01*
X28401Y5319D01*
X28356Y5253D01*
X28341Y5175D01*
X28356Y5097D01*
X28367Y5081D01*
X28340Y5017D01*
X28290Y4952D01*
X28225Y4902D01*
X28149Y4871D01*
X28107Y4865D01*
X28107Y4865D01*
X28107Y4865D01*
X27508Y4787D01*
X27474Y4823D01*
X27483Y4870D01*
X27471Y4932D01*
X27435Y4985D01*
X27406Y5005D01*
X27398Y5042D01*
X27398D01*
X27398Y5042D01*
X27414Y5120D01*
X27398Y5198D01*
X27354Y5264D01*
X27288Y5309D01*
X27210Y5324D01*
X27132Y5309D01*
X27066Y5264D01*
X27042Y5229D01*
X26992Y5229D01*
X26923Y5339D01*
X26705Y5618D01*
X26462Y5874D01*
X26194Y6105D01*
X25905Y6309D01*
X25597Y6483D01*
X25577Y6493D01*
X25576Y6495D01*
X25572Y6542D01*
X25620Y6575D01*
X25656Y6628D01*
X25668Y6690D01*
X25656Y6752D01*
X25641Y6774D01*
X25665Y6818D01*
X30265D01*
Y6188D01*
D02*
G37*
G36*
X41703Y5372D02*
X41655Y5355D01*
X41636Y5381D01*
X41573Y5429D01*
X41499Y5460D01*
X41420Y5470D01*
X41342Y5460D01*
X41268Y5429D01*
X41205Y5381D01*
X41157Y5318D01*
X41126Y5244D01*
X41116Y5166D01*
X41126Y5087D01*
X41157Y5013D01*
X41205Y4950D01*
X41268Y4902D01*
X41342Y4871D01*
X41420Y4861D01*
X41499Y4871D01*
X41573Y4902D01*
X41636Y4950D01*
X41655Y4976D01*
X41703Y4959D01*
Y3224D01*
X40253Y2450D01*
X39079Y1277D01*
X38304Y-273D01*
X36450D01*
X36443Y-223D01*
X36644Y-168D01*
X36974Y-41D01*
X37290Y118D01*
X37589Y307D01*
X37868Y524D01*
X38124Y768D01*
X38355Y1036D01*
X38559Y1325D01*
X38733Y1632D01*
X38877Y1956D01*
X38988Y2292D01*
X39066Y2637D01*
X39109Y2988D01*
X39114Y3172D01*
X39153Y3203D01*
X39215Y3191D01*
X39221Y3187D01*
X39289Y2630D01*
X40540Y2784D01*
X40533Y2839D01*
X40561Y2865D01*
X40639Y2880D01*
X40705Y2924D01*
X40749Y2991D01*
X40765Y3069D01*
X40749Y3147D01*
X40705Y3213D01*
X40639Y3257D01*
X40561Y3273D01*
X40518Y3264D01*
X40501Y3276D01*
X40477Y3293D01*
Y3293D01*
X40477D01*
X40276Y4928D01*
X40276D01*
X40228Y4934D01*
X40203Y4956D01*
Y5004D01*
X40228Y5042D01*
X40244Y5120D01*
X40228Y5198D01*
X40184Y5264D01*
X40118Y5308D01*
X40040Y5324D01*
X39962Y5308D01*
X39896Y5264D01*
X39852Y5198D01*
X39836Y5120D01*
X39852Y5042D01*
X39860Y5030D01*
X39841Y4985D01*
X39798Y4929D01*
X39742Y4886D01*
X39677Y4859D01*
X39643Y4855D01*
Y4855D01*
X39226Y4799D01*
X39026Y4774D01*
X39168Y3619D01*
X39124Y3594D01*
X39098Y3614D01*
X39096Y3644D01*
X35521Y3205D01*
X31946Y2766D01*
X31998Y2467D01*
X32092Y2126D01*
X32219Y1796D01*
X32348Y1538D01*
X32328Y1496D01*
X32275Y1460D01*
X32239Y1407D01*
X32227Y1345D01*
X32239Y1283D01*
X32275Y1230D01*
X32328Y1194D01*
X32364Y1187D01*
X32357Y1150D01*
X32369Y1088D01*
X32405Y1035D01*
X32458Y999D01*
X32520Y987D01*
X32582Y999D01*
X32635Y1035D01*
X32680Y1036D01*
X32784Y902D01*
X33028Y646D01*
X33296Y415D01*
X33585Y211D01*
X33892Y36D01*
X34216Y-107D01*
X34552Y-218D01*
X34573Y-223D01*
X34568Y-273D01*
X30405D01*
Y1411D01*
X30453Y1425D01*
X30486Y1376D01*
X30552Y1332D01*
X30630Y1316D01*
X30708Y1332D01*
X30774Y1376D01*
X30883Y1485D01*
X30961Y1549D01*
X31067Y1605D01*
X31151Y1631D01*
X32004Y1736D01*
X31817Y3256D01*
X31854Y3290D01*
X31870Y3287D01*
X31875Y3288D01*
X31914Y3256D01*
X31911Y3168D01*
X31934Y2865D01*
X35509Y3304D01*
X39084Y3743D01*
X39032Y4043D01*
X38938Y4384D01*
X38811Y4714D01*
X38715Y4903D01*
X38746Y4943D01*
X38780Y4936D01*
X38858Y4952D01*
X38924Y4996D01*
X38968Y5062D01*
X38984Y5140D01*
X38968Y5218D01*
X38924Y5284D01*
X38858Y5328D01*
X38780Y5344D01*
X38702Y5328D01*
X38636Y5284D01*
X38592Y5218D01*
X38591Y5213D01*
X38542Y5204D01*
X38463Y5329D01*
X38245Y5608D01*
X38002Y5864D01*
X37734Y6095D01*
X37445Y6299D01*
X37137Y6473D01*
X36989Y6539D01*
X36975Y6587D01*
X36998Y6622D01*
X37014Y6700D01*
X36998Y6778D01*
X37020Y6818D01*
X41703D01*
Y5372D01*
D02*
G37*
G36*
X18735Y10600D02*
X18711Y10597D01*
X18633Y10564D01*
X18567Y10513D01*
X18515Y10446D01*
X18483Y10368D01*
X18472Y10285D01*
X18483Y10201D01*
X18515Y10123D01*
X18567Y10057D01*
X18621Y10015D01*
Y9965D01*
X18567Y9923D01*
X18515Y9856D01*
X18483Y9778D01*
X18472Y9695D01*
X18483Y9611D01*
X18515Y9533D01*
X18567Y9467D01*
X18621Y9425D01*
Y9375D01*
X18567Y9333D01*
X18515Y9266D01*
X18483Y9188D01*
X18472Y9105D01*
X18483Y9021D01*
X18515Y8943D01*
X18567Y8877D01*
X18621Y8835D01*
Y8785D01*
X18567Y8743D01*
X18515Y8676D01*
X18483Y8598D01*
X18472Y8515D01*
X18483Y8431D01*
X18515Y8353D01*
X18567Y8287D01*
X18633Y8235D01*
X18711Y8203D01*
X18735Y8200D01*
Y7932D01*
X14433D01*
X14427Y7981D01*
X14754Y8072D01*
X15084Y8199D01*
X15400Y8358D01*
X15699Y8547D01*
X15978Y8764D01*
X16234Y9008D01*
X16465Y9276D01*
X16669Y9565D01*
X16843Y9872D01*
X16987Y10196D01*
X17098Y10532D01*
X17176Y10877D01*
X17219Y11228D01*
X17228Y11581D01*
X17206Y11884D01*
X13631Y11445D01*
X10056Y11006D01*
X10108Y10707D01*
X10202Y10366D01*
X10329Y10036D01*
X10488Y9720D01*
X10583Y9569D01*
X10555Y9528D01*
X10555Y9528D01*
X10492Y9516D01*
X10439Y9480D01*
X10390D01*
X10337Y9516D01*
X10275Y9528D01*
X10212Y9516D01*
X10159Y9480D01*
X10120D01*
X10067Y9516D01*
X10005Y9528D01*
X9942Y9516D01*
X9889Y9480D01*
X9854Y9427D01*
X9842Y9365D01*
X9854Y9302D01*
X9889Y9249D01*
X9942Y9214D01*
X10005Y9202D01*
X10067Y9214D01*
X10120Y9249D01*
X10159D01*
X10212Y9214D01*
X10275Y9202D01*
X10337Y9214D01*
X10390Y9249D01*
X10439D01*
X10492Y9214D01*
X10555Y9202D01*
X10617Y9214D01*
X10670Y9249D01*
X10706Y9302D01*
X10707Y9309D01*
X10755Y9320D01*
X10894Y9142D01*
X11138Y8886D01*
X11406Y8655D01*
X11695Y8451D01*
X11947Y8308D01*
X11996Y8234D01*
X11952Y8168D01*
X11936Y8090D01*
X11952Y8012D01*
X11976Y7976D01*
X11952Y7932D01*
X7377D01*
X7368Y7981D01*
X7426Y8005D01*
X7493Y8057D01*
X7544Y8123D01*
X7577Y8201D01*
X7588Y8285D01*
X7577Y8368D01*
X7544Y8446D01*
X7493Y8513D01*
X7439Y8555D01*
Y8605D01*
X7493Y8647D01*
X7544Y8713D01*
X7577Y8791D01*
X7588Y8875D01*
X7577Y8958D01*
X7544Y9036D01*
X7493Y9103D01*
X7439Y9145D01*
Y9195D01*
X7493Y9237D01*
X7544Y9303D01*
X7577Y9381D01*
X7588Y9465D01*
X7577Y9548D01*
X7544Y9626D01*
X7493Y9693D01*
X7439Y9735D01*
Y9785D01*
X7493Y9827D01*
X7544Y9893D01*
X7577Y9971D01*
X7588Y10055D01*
X7577Y10138D01*
X7544Y10216D01*
X7493Y10283D01*
X7439Y10325D01*
Y10375D01*
X7493Y10417D01*
X7544Y10483D01*
X7577Y10561D01*
X7588Y10645D01*
X7577Y10728D01*
X7544Y10806D01*
X7493Y10873D01*
X7426Y10924D01*
X7348Y10957D01*
X7335Y10958D01*
Y11513D01*
X8877Y12299D01*
X10050Y13473D01*
X10825Y15023D01*
X11221D01*
X11238Y14975D01*
X11225Y14965D01*
X11176Y14902D01*
X11146Y14829D01*
X11135Y14750D01*
X11146Y14671D01*
X11176Y14598D01*
X11225Y14535D01*
X11288Y14486D01*
X11361Y14456D01*
X11440Y14445D01*
X11483Y14451D01*
X11502Y14405D01*
X11272Y14225D01*
X11016Y13982D01*
X10785Y13714D01*
X10581Y13425D01*
X10406Y13117D01*
X10263Y12794D01*
X10152Y12458D01*
X10074Y12113D01*
X10030Y11762D01*
X10022Y11408D01*
X10044Y11105D01*
X13619Y11544D01*
X17194Y11983D01*
X17142Y12283D01*
X17048Y12624D01*
X16921Y12954D01*
X16762Y13270D01*
X16573Y13569D01*
X16355Y13848D01*
X16112Y14104D01*
X15901Y14286D01*
X15887Y14354D01*
X15940Y14389D01*
X15976Y14442D01*
X15988Y14505D01*
X15976Y14567D01*
X15940Y14620D01*
X15887Y14656D01*
X15825Y14668D01*
X15762Y14656D01*
X15709Y14620D01*
X15674Y14567D01*
X15663Y14514D01*
X15617Y14495D01*
X15555Y14539D01*
X15512Y14563D01*
X15520Y14613D01*
X15577Y14624D01*
X15630Y14659D01*
X15666Y14712D01*
X15678Y14775D01*
X15666Y14837D01*
X15630Y14890D01*
X15577Y14926D01*
X15515Y14938D01*
X15452Y14926D01*
X15399Y14890D01*
X15364Y14837D01*
X15352Y14775D01*
X15364Y14712D01*
X15374Y14697D01*
X15340Y14661D01*
X15247Y14713D01*
X14924Y14857D01*
X14588Y14968D01*
X14566Y14973D01*
X14572Y15023D01*
X18735D01*
Y10600D01*
D02*
G37*
G36*
Y6550D02*
X18711Y6547D01*
X18633Y6514D01*
X18567Y6463D01*
X18515Y6396D01*
X18483Y6318D01*
X18472Y6235D01*
X18483Y6151D01*
X18515Y6073D01*
X18567Y6007D01*
X18621Y5965D01*
Y5915D01*
X18567Y5873D01*
X18515Y5806D01*
X18483Y5728D01*
X18472Y5645D01*
X18483Y5561D01*
X18515Y5483D01*
X18567Y5417D01*
X18621Y5375D01*
Y5325D01*
X18567Y5283D01*
X18515Y5216D01*
X18483Y5138D01*
X18472Y5055D01*
X18483Y4971D01*
X18515Y4893D01*
X18567Y4827D01*
X18633Y4775D01*
X18711Y4743D01*
X18735Y4740D01*
Y4190D01*
X18711Y4187D01*
X18633Y4154D01*
X18567Y4103D01*
X18515Y4036D01*
X18483Y3958D01*
X18472Y3875D01*
X18483Y3791D01*
X18515Y3713D01*
X18567Y3647D01*
X18633Y3595D01*
X18711Y3563D01*
X18735Y3560D01*
Y3246D01*
X17183Y2450D01*
X16009Y1277D01*
X15234Y-273D01*
X13344D01*
X13337Y-223D01*
X13574Y-158D01*
X13904Y-31D01*
X14220Y128D01*
X14519Y317D01*
X14798Y534D01*
X15054Y778D01*
X15285Y1046D01*
X15489Y1335D01*
X15663Y1642D01*
X15807Y1966D01*
X15918Y2302D01*
X15996Y2647D01*
X16039Y2998D01*
X16048Y3351D01*
X16026Y3654D01*
X12451Y3215D01*
X8876Y2776D01*
X8928Y2477D01*
X9022Y2136D01*
X9149Y1806D01*
X9308Y1490D01*
X9497Y1191D01*
X9714Y912D01*
X9958Y656D01*
X10207Y441D01*
X10194Y393D01*
X10172Y388D01*
X10106Y344D01*
X10062Y278D01*
X10046Y200D01*
X10062Y122D01*
X10106Y56D01*
X10172Y12D01*
X10250Y-4D01*
X10328Y12D01*
X10394Y56D01*
X10438Y122D01*
X10454Y200D01*
X10452Y208D01*
X10494Y235D01*
X10515Y221D01*
X10822Y46D01*
X11146Y-97D01*
X11482Y-208D01*
X11548Y-223D01*
X11542Y-273D01*
X8605D01*
X8589Y-226D01*
X8615Y-205D01*
X8664Y-142D01*
X8694Y-69D01*
X8705Y10D01*
X8694Y89D01*
X8664Y162D01*
X8615Y225D01*
X8552Y274D01*
X8479Y304D01*
X8400Y315D01*
X8363Y310D01*
X8337Y352D01*
X8373Y407D01*
X8389Y485D01*
X8373Y563D01*
X8339Y614D01*
X8338Y617D01*
Y1044D01*
X8351Y1205D01*
X8393Y1383D01*
X8463Y1552D01*
X8553Y1699D01*
X8934Y1746D01*
X8671Y3889D01*
X8400Y3856D01*
X8360Y3921D01*
X8292Y4086D01*
X8250Y4259D01*
X8240Y4387D01*
X8287Y4403D01*
X8306Y4376D01*
X8372Y4332D01*
X8450Y4316D01*
X8528Y4332D01*
X8570Y4360D01*
X8612Y4332D01*
X8690Y4316D01*
X8768Y4332D01*
X8834Y4376D01*
X8878Y4442D01*
X8894Y4520D01*
X8878Y4598D01*
X8857Y4630D01*
X8876Y4676D01*
X8917Y4684D01*
X8970Y4719D01*
X9006Y4772D01*
X9018Y4835D01*
X9006Y4897D01*
X8970Y4950D01*
X8917Y4986D01*
X8855Y4998D01*
X8792Y4986D01*
X8739Y4950D01*
X8704Y4897D01*
X8692Y4835D01*
X8704Y4772D01*
X8706Y4769D01*
X8687Y4723D01*
X8612Y4708D01*
X8570Y4680D01*
X8528Y4708D01*
X8450Y4724D01*
X8372Y4708D01*
X8306Y4664D01*
X8286Y4634D01*
X8238Y4649D01*
Y6099D01*
X8263Y6137D01*
X8279Y6215D01*
X8263Y6293D01*
X8219Y6359D01*
X8153Y6403D01*
X8075Y6419D01*
X7997Y6403D01*
X7931Y6359D01*
X7886Y6293D01*
X7871Y6215D01*
X7886Y6137D01*
X7912Y6099D01*
Y4436D01*
X7910D01*
X7912Y4419D01*
Y4187D01*
X7898Y4050D01*
X7852Y3897D01*
X7790Y3781D01*
X7420Y3736D01*
X7683Y1592D01*
X7683D01*
X7712Y1567D01*
Y1410D01*
X7712Y1409D01*
X7712D01*
Y1137D01*
X7711Y1129D01*
X7712D01*
Y1011D01*
X7686Y973D01*
X7671Y895D01*
X7686Y817D01*
X7731Y751D01*
X7797Y706D01*
X7804Y705D01*
X7812Y699D01*
X7875Y687D01*
X7937Y699D01*
X7946Y705D01*
X7953Y706D01*
X7968Y716D01*
X8012Y693D01*
Y586D01*
X7996Y563D01*
X7981Y485D01*
X7996Y407D01*
X8041Y341D01*
X8107Y296D01*
X8183Y281D01*
X8194Y233D01*
X8185Y225D01*
X8136Y162D01*
X8106Y89D01*
X8095Y10D01*
X8106Y-69D01*
X8136Y-142D01*
X8185Y-205D01*
X8211Y-226D01*
X8195Y-273D01*
X7335D01*
Y3791D01*
X7348Y3793D01*
X7426Y3825D01*
X7493Y3877D01*
X7544Y3943D01*
X7577Y4021D01*
X7588Y4105D01*
X7577Y4188D01*
X7544Y4266D01*
X7493Y4333D01*
X7439Y4375D01*
Y4425D01*
X7493Y4467D01*
X7544Y4533D01*
X7577Y4611D01*
X7588Y4695D01*
X7577Y4778D01*
X7544Y4856D01*
X7493Y4923D01*
X7439Y4965D01*
Y5015D01*
X7493Y5057D01*
X7544Y5123D01*
X7577Y5201D01*
X7588Y5285D01*
X7577Y5368D01*
X7544Y5446D01*
X7493Y5513D01*
X7439Y5555D01*
Y5605D01*
X7493Y5647D01*
X7544Y5713D01*
X7577Y5791D01*
X7588Y5875D01*
X7577Y5958D01*
X7544Y6036D01*
X7493Y6103D01*
X7432Y6150D01*
Y6200D01*
X7493Y6247D01*
X7544Y6313D01*
X7577Y6391D01*
X7588Y6475D01*
X7577Y6558D01*
X7544Y6636D01*
X7493Y6703D01*
X7426Y6754D01*
X7391Y6769D01*
X7401Y6818D01*
X11601D01*
X11608Y6768D01*
X11316Y6688D01*
X10986Y6561D01*
X10670Y6402D01*
X10371Y6213D01*
X10092Y5995D01*
X9836Y5752D01*
X9605Y5484D01*
X9401Y5195D01*
X9226Y4887D01*
X9083Y4564D01*
X8972Y4228D01*
X8894Y3883D01*
X8850Y3532D01*
X8842Y3178D01*
X8864Y2875D01*
X12439Y3314D01*
X16014Y3753D01*
X15962Y4053D01*
X15868Y4394D01*
X15741Y4724D01*
X15582Y5040D01*
X15393Y5339D01*
X15175Y5618D01*
X14932Y5874D01*
X14664Y6105D01*
X14375Y6309D01*
X14172Y6424D01*
X14170Y6469D01*
X14206Y6522D01*
X14218Y6585D01*
X14206Y6647D01*
X14170Y6700D01*
X14117Y6736D01*
X14055Y6748D01*
X13992Y6736D01*
X13939Y6700D01*
X13904Y6647D01*
X13895Y6602D01*
X13851Y6579D01*
X13744Y6627D01*
X13408Y6738D01*
X13274Y6768D01*
X13280Y6818D01*
X18735D01*
Y6550D01*
D02*
G37*
G36*
X7179Y10956D02*
X7103Y10924D01*
X7037Y10873D01*
X6985Y10806D01*
X6953Y10728D01*
X6942Y10645D01*
X6953Y10561D01*
X6985Y10483D01*
X7037Y10417D01*
X7091Y10375D01*
Y10325D01*
X7037Y10283D01*
X6985Y10216D01*
X6953Y10138D01*
X6942Y10055D01*
X6953Y9971D01*
X6985Y9893D01*
X7037Y9827D01*
X7091Y9785D01*
Y9735D01*
X7037Y9693D01*
X6985Y9626D01*
X6953Y9548D01*
X6942Y9465D01*
X6953Y9381D01*
X6985Y9303D01*
X7037Y9237D01*
X7091Y9195D01*
Y9145D01*
X7037Y9103D01*
X6985Y9036D01*
X6953Y8958D01*
X6942Y8875D01*
X6953Y8791D01*
X6985Y8713D01*
X7037Y8647D01*
X7091Y8605D01*
Y8555D01*
X7037Y8513D01*
X6985Y8446D01*
X6953Y8368D01*
X6942Y8285D01*
X6953Y8201D01*
X6985Y8123D01*
X6945Y8092D01*
X6932Y8101D01*
X6870Y8113D01*
X6808Y8101D01*
X6804Y8098D01*
X6760Y8122D01*
Y8175D01*
Y8675D01*
Y9175D01*
Y9675D01*
Y10175D01*
Y10675D01*
Y11175D01*
Y11675D01*
Y12175D01*
Y12675D01*
Y13175D01*
Y13655D01*
X6780D01*
Y13885D01*
X5830D01*
Y13655D01*
X5850D01*
Y13571D01*
X5781Y13558D01*
X5772Y13559D01*
Y13557D01*
X5725D01*
X5701Y13601D01*
X5716Y13622D01*
X5728Y13685D01*
X5716Y13747D01*
X5680Y13800D01*
X5627Y13836D01*
X5565Y13848D01*
X5502Y13836D01*
X5449Y13800D01*
X5414Y13747D01*
X5402Y13685D01*
X5414Y13622D01*
X5449Y13569D01*
Y13550D01*
X5414Y13497D01*
X5402Y13435D01*
X5414Y13372D01*
X5449Y13319D01*
Y13295D01*
X5414Y13242D01*
X5402Y13180D01*
X5414Y13117D01*
X5449Y13064D01*
X5449Y13064D01*
X5439Y13050D01*
X5439Y13050D01*
X5439D01*
X5404Y12997D01*
X5392Y12935D01*
X5404Y12872D01*
X5439Y12819D01*
Y12800D01*
X5404Y12747D01*
X5392Y12685D01*
X5404Y12622D01*
X5439Y12569D01*
X5439Y12569D01*
X5439D01*
X5449Y12545D01*
Y12545D01*
D01*
X5414Y12492D01*
X5402Y12430D01*
X5414Y12368D01*
X5449Y12315D01*
X5449Y12315D01*
X5449D01*
X5462Y12276D01*
X5409Y12240D01*
X5374Y12187D01*
X5362Y12125D01*
X5374Y12062D01*
X5409Y12009D01*
X5462Y11974D01*
X5476Y11929D01*
X5399Y11852D01*
X5349D01*
X5339Y11856D01*
X5302Y11881D01*
X5240Y11893D01*
X5178Y11881D01*
X5125Y11845D01*
X5089Y11792D01*
X5077Y11730D01*
X5089Y11668D01*
X5125Y11615D01*
X5125Y11615D01*
X5094Y11537D01*
X5094Y11537D01*
X5094Y11537D01*
X5082Y11475D01*
X5094Y11412D01*
X5129Y11359D01*
X5182Y11324D01*
X5245Y11312D01*
X5307Y11324D01*
X5344Y11348D01*
X5353Y11352D01*
X5678D01*
X5767Y11341D01*
X5850Y11306D01*
Y11175D01*
Y11111D01*
X5804Y11092D01*
X5793Y11102D01*
X5798Y11125D01*
X5786Y11187D01*
X5750Y11240D01*
X5697Y11276D01*
X5635Y11288D01*
X5572Y11276D01*
X5519Y11240D01*
X5484Y11187D01*
X5472Y11125D01*
X5484Y11062D01*
X5519Y11009D01*
X5527Y11005D01*
X5532Y10955D01*
X5065Y10488D01*
X2654D01*
X2644Y10492D01*
X2608Y10516D01*
X2545Y10529D01*
X2483Y10516D01*
X2434Y10484D01*
X2405Y10527D01*
X2352Y10563D01*
X2290Y10575D01*
X2227Y10563D01*
X2174Y10527D01*
X2149D01*
X2096Y10563D01*
X2034Y10575D01*
X1971Y10563D01*
X1918Y10527D01*
X1893D01*
X1840Y10563D01*
X1778Y10575D01*
X1715Y10563D01*
X1662Y10527D01*
X1627Y10474D01*
X1615Y10412D01*
X1627Y10349D01*
X1662Y10296D01*
X1715Y10261D01*
X1778Y10249D01*
X1840Y10261D01*
X1893Y10296D01*
X1918D01*
X1971Y10261D01*
X2034Y10249D01*
X2096Y10261D01*
X2149Y10296D01*
X2174D01*
X2227Y10261D01*
X2290Y10249D01*
X2352Y10261D01*
X2372Y10274D01*
X2421Y10264D01*
X2430Y10250D01*
X2483Y10215D01*
X2545Y10202D01*
X2608Y10215D01*
X2644Y10239D01*
X2654Y10243D01*
X3124D01*
X3156Y10204D01*
X3147Y10160D01*
X3159Y10098D01*
X3195Y10045D01*
X3248Y10009D01*
X3310Y9997D01*
X3372Y10009D01*
X3409Y10034D01*
X3419Y10038D01*
X5310D01*
X5325Y10041D01*
X5342Y10029D01*
X5345Y10026D01*
X5340Y9976D01*
X5320Y9963D01*
X5270Y9973D01*
X5208Y9961D01*
X5155Y9925D01*
X5119Y9872D01*
X5107Y9810D01*
X5107Y9810D01*
X5107Y9810D01*
X5090Y9785D01*
X5068Y9781D01*
X5015Y9745D01*
X4979Y9692D01*
X4967Y9630D01*
X4967Y9630D01*
X4967Y9630D01*
D01*
X4970Y9613D01*
X4908Y9601D01*
X4855Y9565D01*
X4819Y9512D01*
X4807Y9450D01*
X4819Y9388D01*
X4855Y9335D01*
X4908Y9299D01*
X4970Y9287D01*
X5032Y9299D01*
X5085Y9335D01*
X5121Y9388D01*
X5133Y9450D01*
X5133Y9450D01*
X5133Y9450D01*
D01*
X5130Y9467D01*
D01*
X5192Y9479D01*
X5245Y9515D01*
X5281Y9568D01*
X5293Y9630D01*
D01*
D01*
X5332Y9659D01*
X5332D01*
X5385Y9695D01*
X5421Y9748D01*
X5454Y9761D01*
X5477Y9746D01*
X5555Y9731D01*
X5850D01*
Y9675D01*
Y9175D01*
Y8675D01*
Y8175D01*
Y7675D01*
Y7175D01*
Y6675D01*
Y6215D01*
X5830D01*
Y6207D01*
X5782Y6193D01*
X5750Y6240D01*
X5697Y6276D01*
X5635Y6288D01*
X5572Y6276D01*
X5519Y6240D01*
X5484Y6187D01*
X5472Y6125D01*
X5484Y6062D01*
X5519Y6009D01*
X5572Y5974D01*
X5635Y5962D01*
X5697Y5974D01*
X5750Y6009D01*
X5782Y6057D01*
X5830Y6043D01*
Y5985D01*
X6780D01*
Y6215D01*
X6760D01*
Y6539D01*
X6798Y6571D01*
X6820Y6567D01*
X6882Y6579D01*
X6920Y6605D01*
X6959Y6573D01*
X6953Y6558D01*
X6942Y6475D01*
X6953Y6391D01*
X6985Y6313D01*
X7037Y6247D01*
X7098Y6200D01*
Y6150D01*
X7037Y6103D01*
X6985Y6036D01*
X6953Y5958D01*
X6942Y5875D01*
X6953Y5791D01*
X6985Y5713D01*
X7037Y5647D01*
X7091Y5605D01*
Y5555D01*
X7037Y5513D01*
X6985Y5446D01*
X6953Y5368D01*
X6942Y5285D01*
X6953Y5201D01*
X6985Y5123D01*
X7037Y5057D01*
X7091Y5015D01*
Y4965D01*
X7037Y4923D01*
X6985Y4856D01*
X6953Y4778D01*
X6942Y4695D01*
X6953Y4611D01*
X6985Y4533D01*
X7037Y4467D01*
X7091Y4425D01*
Y4375D01*
X7037Y4333D01*
X6985Y4266D01*
X6953Y4188D01*
X6942Y4105D01*
X6953Y4021D01*
X6985Y3943D01*
X7037Y3877D01*
X7103Y3825D01*
X7179Y3794D01*
Y-273D01*
X4375D01*
Y1145D01*
X5450D01*
Y1605D01*
D01*
Y1605D01*
X5450Y1605D01*
Y1645D01*
X5450D01*
Y2105D01*
D01*
Y2105D01*
X5450Y2105D01*
Y2145D01*
X5450D01*
Y2605D01*
D01*
Y2605D01*
X5450Y2605D01*
Y2645D01*
X5450D01*
Y3105D01*
X5450Y3105D01*
X5450D01*
X5451Y3110D01*
X5492Y3138D01*
X5520Y3132D01*
X5582Y3144D01*
X5635Y3180D01*
X5671Y3233D01*
X5683Y3295D01*
X5671Y3358D01*
X5657Y3378D01*
X5671Y3398D01*
X5683Y3460D01*
X5671Y3522D01*
X5635Y3575D01*
X5582Y3611D01*
X5520Y3623D01*
X5458Y3611D01*
X5449Y3605D01*
X4870D01*
X4838Y3643D01*
X4843Y3670D01*
X4831Y3732D01*
X4795Y3785D01*
X4742Y3821D01*
X4680Y3833D01*
X4618Y3821D01*
X4565Y3785D01*
X4535D01*
X4482Y3821D01*
X4420Y3833D01*
X4358Y3821D01*
X4305Y3785D01*
X4269Y3732D01*
X4257Y3670D01*
X4269Y3608D01*
X4305Y3555D01*
X4340Y3531D01*
Y3145D01*
X4340Y3145D01*
X4340Y3105D01*
X4340D01*
Y3065D01*
X4329Y3038D01*
X4281Y3023D01*
X4277Y3026D01*
X4215Y3038D01*
X4152Y3026D01*
X4099Y2990D01*
X4064Y2937D01*
X4052Y2875D01*
X4064Y2812D01*
X4099Y2759D01*
X4152Y2724D01*
X4215Y2712D01*
X4277Y2724D01*
X4281Y2726D01*
X4329Y2712D01*
X4340Y2685D01*
Y2645D01*
X4340Y2645D01*
X4340Y2605D01*
X4340D01*
Y2564D01*
X4301Y2533D01*
X4275Y2538D01*
X4212Y2526D01*
X4159Y2490D01*
X4124Y2437D01*
X4112Y2375D01*
X4124Y2312D01*
X4159Y2259D01*
X4212Y2224D01*
X4275Y2212D01*
X4301Y2217D01*
X4340Y2185D01*
Y2145D01*
X4340Y2145D01*
X4340Y2105D01*
X4340D01*
Y2064D01*
X4301Y2033D01*
X4275Y2038D01*
X4212Y2026D01*
X4159Y1990D01*
X4124Y1937D01*
X4112Y1875D01*
X4124Y1812D01*
X4159Y1759D01*
X4212Y1724D01*
X4275Y1712D01*
X4301Y1717D01*
X4340Y1685D01*
Y1645D01*
X4340Y1645D01*
X4340Y1605D01*
X4340D01*
Y1584D01*
X4301Y1553D01*
X4275Y1558D01*
X4212Y1546D01*
X4159Y1510D01*
X4124Y1457D01*
X4112Y1395D01*
X4124Y1332D01*
X4159Y1279D01*
X4212Y1244D01*
X4275Y1232D01*
X4301Y1237D01*
X4340Y1205D01*
Y1145D01*
X3615D01*
Y-273D01*
X1736D01*
Y1145D01*
X976D01*
Y-273D01*
X218D01*
X202Y-226D01*
X215Y-215D01*
X264Y-152D01*
X294Y-79D01*
X305Y0D01*
X294Y79D01*
X264Y152D01*
X215Y215D01*
X152Y264D01*
X79Y294D01*
X0Y305D01*
X-79Y294D01*
X-152Y264D01*
X-215Y215D01*
X-264Y152D01*
X-294Y79D01*
X-305Y0D01*
X-294Y-79D01*
X-264Y-152D01*
X-215Y-215D01*
X-202Y-226D01*
X-218Y-273D01*
X-2115D01*
Y2328D01*
X-2077Y2360D01*
X-2035Y2352D01*
X-2000Y2323D01*
Y2025D01*
X-2000Y2025D01*
X-2000Y1985D01*
X-2000D01*
Y1525D01*
X-2000Y1525D01*
X-2000Y1485D01*
X-2000D01*
Y1025D01*
X-890D01*
Y1485D01*
D01*
Y1485D01*
X-890Y1485D01*
Y1525D01*
X-890D01*
Y1985D01*
D01*
Y1985D01*
X-890Y1985D01*
Y2025D01*
X-890D01*
Y2485D01*
D01*
Y2485D01*
X-890Y2485D01*
Y2525D01*
X-890D01*
Y2727D01*
X-860Y2757D01*
X-857Y2759D01*
X-857Y2760D01*
X-748Y2869D01*
X-737Y2877D01*
X-739Y2878D01*
X-739Y2878D01*
X-712Y2918D01*
X-703Y2965D01*
Y3384D01*
X-657Y3403D01*
X-546Y3292D01*
X-547Y3291D01*
X-538Y3284D01*
X-462Y3209D01*
Y3040D01*
X-462Y3040D01*
X-462D01*
X-462Y3025D01*
X-482Y3005D01*
X-482Y2989D01*
X-482Y2989D01*
X-482D01*
Y2805D01*
X668D01*
Y2989D01*
X668Y2989D01*
D01*
D01*
X668Y2989D01*
X668Y3005D01*
X657Y3016D01*
X657Y3016D01*
X648Y3024D01*
X648Y3025D01*
X648Y3040D01*
X648Y3040D01*
X648D01*
Y3084D01*
X694Y3103D01*
X1142Y2655D01*
X1142Y2655D01*
X1141Y2655D01*
X1141Y2654D01*
X1156Y2631D01*
X1161Y2605D01*
X1161Y2605D01*
X1176Y2527D01*
X1221Y2461D01*
X1287Y2416D01*
X1365Y2401D01*
X1443Y2416D01*
X1509Y2461D01*
X1553Y2527D01*
X1569Y2605D01*
X1553Y2683D01*
X1509Y2749D01*
X1443Y2793D01*
X1365Y2809D01*
X1364Y2809D01*
X1338Y2814D01*
X1316Y2829D01*
X1315Y2828D01*
X1315Y2828D01*
X801Y3341D01*
X762Y3368D01*
X715Y3377D01*
X683D01*
X683Y3378D01*
X683D01*
Y3378D01*
X648Y3384D01*
Y3485D01*
X-221D01*
X-232Y3487D01*
Y3487D01*
X-233Y3487D01*
X-334Y3500D01*
X-428Y3539D01*
X-505Y3598D01*
X-509Y3602D01*
X-509Y3602D01*
D01*
X-509Y3602D01*
X-509Y3602D01*
X-749Y3841D01*
X-788Y3868D01*
X-835Y3877D01*
X-1173D01*
X-1276Y3984D01*
X-1256Y4030D01*
X5157D01*
X5188Y3991D01*
X5177Y3933D01*
X5189Y3871D01*
X5225Y3818D01*
X5278Y3783D01*
X5340Y3770D01*
X5402Y3783D01*
X5455Y3818D01*
X5491Y3871D01*
X5503Y3933D01*
X5491Y3996D01*
X5455Y4049D01*
X5402Y4084D01*
X5340Y4096D01*
X5323Y4093D01*
X5285Y4125D01*
Y4940D01*
X2817D01*
X2785Y4978D01*
X2793Y5020D01*
X2781Y5082D01*
X2745Y5135D01*
X2692Y5171D01*
X2630Y5183D01*
X2607Y5179D01*
X2601Y5212D01*
X2565Y5265D01*
X2512Y5301D01*
X2450Y5313D01*
X2388Y5301D01*
X2335Y5265D01*
X2299Y5212D01*
X2295Y5191D01*
X2245D01*
X2241Y5212D01*
X2205Y5265D01*
X2152Y5301D01*
X2090Y5313D01*
X2028Y5301D01*
X1975Y5265D01*
X1939Y5212D01*
X1938Y5207D01*
X1917Y5193D01*
X1871Y5212D01*
X1871Y5212D01*
X1835Y5265D01*
X1782Y5301D01*
X1720Y5313D01*
X1658Y5301D01*
X1605Y5265D01*
X1569Y5212D01*
X1565Y5191D01*
X1515D01*
X1511Y5212D01*
X1475Y5265D01*
X1422Y5301D01*
X1360Y5313D01*
X1298Y5301D01*
X1245Y5265D01*
X1209Y5212D01*
X1201Y5169D01*
X1180Y5173D01*
X1118Y5161D01*
X1065Y5125D01*
X1029Y5073D01*
X1017Y5010D01*
X1023Y4978D01*
X991Y4940D01*
X537D01*
X525Y4942D01*
D01*
X525D01*
X525D01*
Y4942D01*
X525Y4942D01*
X484Y4959D01*
X484Y4959D01*
X484Y4959D01*
D01*
X479Y4967D01*
X479D01*
X478Y4968D01*
X478D01*
X478Y4968D01*
X477Y4967D01*
X477Y4967D01*
D01*
D01*
X470Y4973D01*
X464Y4981D01*
X463Y4980D01*
X403Y5040D01*
X399Y5050D01*
X391Y5092D01*
X355Y5145D01*
X302Y5181D01*
X240Y5193D01*
X178Y5181D01*
X130Y5149D01*
X82Y5181D01*
X20Y5193D01*
X-42Y5181D01*
X-93Y5147D01*
X-143Y5181D01*
X-205Y5193D01*
X-268Y5181D01*
X-318Y5147D01*
X-368Y5181D01*
X-430Y5193D01*
X-492Y5181D01*
X-529Y5156D01*
X-539Y5152D01*
X-670D01*
X-717Y5143D01*
X-757Y5117D01*
X-791Y5082D01*
X-793Y5084D01*
X-805Y5069D01*
X-900Y4973D01*
X-900Y4974D01*
X-934Y4951D01*
X-975Y4943D01*
Y4942D01*
X-987Y4940D01*
X-1339D01*
X-1352Y5008D01*
X-1351Y5018D01*
X-1353D01*
Y5091D01*
X-1349Y5101D01*
X-1324Y5138D01*
X-1312Y5200D01*
X-1324Y5262D01*
X-1360Y5315D01*
X-1413Y5351D01*
X-1475Y5363D01*
X-1538Y5351D01*
X-1591Y5315D01*
X-1626Y5262D01*
X-1638Y5200D01*
X-1626Y5138D01*
X-1602Y5101D01*
X-1598Y5091D01*
Y5018D01*
X-1599D01*
X-1598Y5008D01*
X-1612Y4940D01*
X-1735D01*
Y4244D01*
X-1781Y4224D01*
X-1828Y4271D01*
Y4731D01*
X-1824Y4741D01*
X-1799Y4778D01*
X-1787Y4840D01*
X-1799Y4902D01*
X-1835Y4955D01*
X-1888Y4991D01*
X-1950Y5003D01*
X-1954Y5002D01*
X-1972Y5020D01*
X-1984Y5082D01*
X-2020Y5135D01*
X-2073Y5171D01*
X-2135Y5183D01*
X-2198Y5171D01*
X-2251Y5135D01*
X-2286Y5082D01*
X-2298Y5020D01*
X-2286Y4958D01*
X-2262Y4921D01*
X-2258Y4911D01*
Y4135D01*
X-2258Y4135D01*
X-2258D01*
X-2248Y4088D01*
X-2222Y4048D01*
X-1958Y3784D01*
Y3677D01*
X-1958D01*
X-1958Y3671D01*
Y3485D01*
X-2000D01*
Y3025D01*
X-2000Y3025D01*
X-2000Y2985D01*
X-2000D01*
Y2707D01*
X-2035Y2678D01*
X-2077Y2670D01*
X-2115Y2701D01*
Y2792D01*
X-2224Y2901D01*
X-2225D01*
X-2258Y2935D01*
X-2259Y2935D01*
X-2328D01*
X-2329Y2935D01*
X-2329Y2935D01*
X-3633D01*
Y11609D01*
X-3594Y11641D01*
X-3530Y11628D01*
X-3502Y11586D01*
X-3513Y11530D01*
X-3501Y11468D01*
X-3465Y11415D01*
X-3413Y11379D01*
X-3350Y11367D01*
X-3288Y11379D01*
X-3249Y11405D01*
X-3205Y11381D01*
Y11175D01*
Y10675D01*
Y10214D01*
X-3249Y10190D01*
X-3296Y10221D01*
X-3358Y10234D01*
X-3420Y10221D01*
X-3473Y10186D01*
X-3509Y10133D01*
X-3521Y10070D01*
X-3509Y10008D01*
X-3473Y9955D01*
X-3420Y9920D01*
X-3358Y9907D01*
X-3296Y9920D01*
X-3249Y9951D01*
X-3205Y9927D01*
Y9675D01*
Y9175D01*
Y8675D01*
Y8175D01*
Y7675D01*
Y7175D01*
Y6953D01*
X-3209Y6935D01*
X-3209D01*
X-3208Y6934D01*
X-3209Y6932D01*
X-3208Y6928D01*
X-3220Y6866D01*
X-3254Y6816D01*
X-3475Y6595D01*
X-3515Y6535D01*
X-3517Y6523D01*
X-3529Y6465D01*
Y4480D01*
X-3534Y4473D01*
X-3549Y4395D01*
X-3534Y4317D01*
X-3489Y4251D01*
X-3423Y4206D01*
X-3345Y4191D01*
X-3267Y4206D01*
X-3201Y4251D01*
X-3157Y4317D01*
X-3141Y4395D01*
X-3157Y4473D01*
X-3162Y4480D01*
Y5655D01*
X-2800D01*
Y5935D01*
X-2750D01*
Y5985D01*
X-2275D01*
Y6215D01*
X-2295D01*
Y6613D01*
X-2290Y6620D01*
X-2276Y6690D01*
X-2290Y6760D01*
X-2295Y6767D01*
Y7175D01*
Y7291D01*
X-2257Y7322D01*
X-2222Y7315D01*
X-2219Y7314D01*
X-2204Y7237D01*
X-2159Y7171D01*
X-2093Y7126D01*
X-2015Y7111D01*
X-1937Y7126D01*
X-1871Y7171D01*
X-1827Y7237D01*
X-1811Y7315D01*
X-1824Y7377D01*
X-1792Y7416D01*
X-768D01*
X-758Y7412D01*
X-721Y7388D01*
X-659Y7375D01*
X-596Y7388D01*
X-544Y7423D01*
X-508Y7476D01*
X-496Y7538D01*
X-508Y7601D01*
X-544Y7654D01*
X-596Y7689D01*
X-659Y7702D01*
X-721Y7689D01*
X-758Y7665D01*
X-768Y7661D01*
X-1967D01*
Y7662D01*
X-1983Y7661D01*
X-2160D01*
Y7661D01*
X-2167Y7661D01*
X-2295D01*
Y7675D01*
Y7798D01*
X-2227Y7812D01*
X-2217Y7811D01*
Y7812D01*
X-735D01*
X-688Y7822D01*
X-649Y7848D01*
X-600Y7897D01*
X-590Y7901D01*
X-548Y7909D01*
X-495Y7945D01*
X-459Y7998D01*
X-447Y8060D01*
X-459Y8122D01*
X-495Y8175D01*
X-548Y8211D01*
X-610Y8223D01*
X-672Y8211D01*
X-725Y8175D01*
X-761Y8122D01*
X-769Y8080D01*
X-773Y8070D01*
X-786Y8057D01*
X-2092D01*
Y8637D01*
X-2087Y8647D01*
X-2063Y8684D01*
X-2051Y8746D01*
X-2063Y8809D01*
X-2099Y8861D01*
X-2151Y8897D01*
X-2214Y8909D01*
X-2257Y8901D01*
X-2295Y8932D01*
Y9175D01*
Y9299D01*
X-2251Y9317D01*
X-2183Y9326D01*
Y9327D01*
X-1631D01*
X-1584Y9336D01*
X-1544Y9363D01*
X-1544Y9363D01*
X-1544Y9363D01*
X-869Y10038D01*
X64D01*
X88Y9994D01*
X69Y9966D01*
X57Y9904D01*
X67Y9853D01*
X26Y9825D01*
X25Y9825D01*
X-28Y9861D01*
X-90Y9873D01*
X-152Y9861D01*
X-205Y9825D01*
X-241Y9772D01*
X-249Y9728D01*
X-300Y9738D01*
X-362Y9726D01*
X-415Y9691D01*
X-451Y9638D01*
X-463Y9575D01*
X-451Y9513D01*
X-415Y9460D01*
X-362Y9424D01*
X-300Y9412D01*
X-238Y9424D01*
X-185Y9460D01*
X-149Y9513D01*
X-141Y9557D01*
X-90Y9547D01*
X-49Y9555D01*
X-23Y9550D01*
X-11Y9488D01*
X25Y9435D01*
X78Y9399D01*
X140Y9387D01*
X140Y9387D01*
X140Y9387D01*
D01*
X157Y9390D01*
D01*
X157Y9390D01*
X169Y9328D01*
X205Y9275D01*
X258Y9239D01*
X320Y9227D01*
X382Y9239D01*
X435Y9275D01*
X471Y9328D01*
X483Y9390D01*
X471Y9452D01*
X435Y9505D01*
X382Y9541D01*
X320Y9553D01*
X320Y9553D01*
X320Y9553D01*
D01*
X303Y9550D01*
X303D01*
X303Y9550D01*
X303Y9550D01*
X291Y9612D01*
X255Y9665D01*
X215Y9692D01*
X225Y9741D01*
X282Y9753D01*
X335Y9788D01*
X371Y9841D01*
X379Y9884D01*
X383Y9894D01*
X492Y10003D01*
X508Y10027D01*
X519Y10043D01*
X528Y10089D01*
Y10508D01*
X519Y10555D01*
X492Y10595D01*
X379Y10708D01*
X340Y10734D01*
X293Y10744D01*
X210D01*
X196Y10791D01*
X245Y10825D01*
X281Y10878D01*
X293Y10940D01*
X281Y11002D01*
X256Y11039D01*
X252Y11049D01*
Y11350D01*
X251Y11358D01*
X286Y11394D01*
X320Y11387D01*
X382Y11399D01*
X435Y11435D01*
X471Y11488D01*
X483Y11550D01*
X471Y11612D01*
X435Y11665D01*
X382Y11701D01*
X320Y11713D01*
X258Y11701D01*
X205Y11665D01*
X169Y11612D01*
X158Y11557D01*
X110Y11543D01*
X-1868Y13521D01*
X-1908Y13548D01*
X-1955Y13557D01*
X-2217D01*
Y13559D01*
X-2227Y13558D01*
X-2295Y13571D01*
Y13655D01*
X-2275D01*
Y13885D01*
X-3225D01*
Y13655D01*
X-3205D01*
Y13175D01*
Y12675D01*
Y12175D01*
Y12172D01*
X-3244Y12141D01*
X-3310Y12154D01*
X-3333Y12149D01*
X-3376Y12214D01*
X-3442Y12258D01*
X-3520Y12274D01*
X-3594Y12259D01*
X-3633Y12291D01*
Y15023D01*
X-3489D01*
X-3472Y14975D01*
X-3485Y14965D01*
X-3534Y14902D01*
X-3564Y14829D01*
X-3575Y14750D01*
X-3564Y14671D01*
X-3534Y14598D01*
X-3485Y14535D01*
X-3422Y14486D01*
X-3349Y14456D01*
X-3270Y14445D01*
X-3191Y14456D01*
X-3118Y14486D01*
X-3055Y14535D01*
X-3006Y14598D01*
X-2976Y14671D01*
X-2965Y14750D01*
X-2976Y14829D01*
X-3006Y14902D01*
X-3055Y14965D01*
X-3068Y14975D01*
X-3051Y15023D01*
X6521D01*
X6538Y14975D01*
X6525Y14965D01*
X6476Y14902D01*
X6446Y14829D01*
X6435Y14750D01*
X6446Y14671D01*
X6476Y14598D01*
X6525Y14535D01*
X6588Y14486D01*
X6661Y14456D01*
X6740Y14445D01*
X6819Y14456D01*
X6892Y14486D01*
X6955Y14535D01*
X7004Y14598D01*
X7034Y14671D01*
X7045Y14750D01*
X7034Y14829D01*
X7004Y14902D01*
X6955Y14965D01*
X6942Y14975D01*
X6959Y15023D01*
X7179D01*
Y10956D01*
D02*
G37*
G36*
X41218Y14975D02*
X41205Y14965D01*
X41157Y14902D01*
X41126Y14829D01*
X41116Y14750D01*
X41126Y14671D01*
X41157Y14598D01*
X41205Y14535D01*
X41268Y14486D01*
X41342Y14456D01*
X41420Y14445D01*
X41499Y14456D01*
X41573Y14486D01*
X41636Y14535D01*
X41655Y14560D01*
X41703Y14544D01*
Y7932D01*
X38343D01*
X38319Y7976D01*
X38322Y7980D01*
X38337Y8058D01*
X38322Y8136D01*
X38290Y8183D01*
X38314Y8227D01*
X38346D01*
X38363Y8202D01*
X38418Y8165D01*
X38484Y8152D01*
X38659D01*
X38724Y8165D01*
X38780Y8202D01*
X38796Y8227D01*
X38846D01*
X38863Y8202D01*
X38918Y8165D01*
X38984Y8152D01*
X39159D01*
X39224Y8165D01*
X39280Y8202D01*
X39296Y8227D01*
X39346D01*
X39363Y8202D01*
X39418Y8165D01*
X39484Y8152D01*
X39659D01*
X39724Y8165D01*
X39780Y8202D01*
X39796Y8227D01*
X39846D01*
X39863Y8202D01*
X39918Y8165D01*
X39984Y8152D01*
X40159D01*
X40224Y8165D01*
X40280Y8202D01*
X40284Y8209D01*
X40334D01*
X40349Y8187D01*
X40411Y8146D01*
X40484Y8131D01*
X40521D01*
Y8735D01*
Y9338D01*
X40484D01*
X40411Y9324D01*
X40349Y9282D01*
X40334Y9261D01*
X40284D01*
X40280Y9268D01*
X40224Y9305D01*
X40159Y9318D01*
X40057D01*
X39982Y9333D01*
X39914Y9378D01*
X39117Y10176D01*
X39077Y10202D01*
X39031Y10211D01*
X37408D01*
X37057Y10562D01*
Y10955D01*
X37048Y11002D01*
X37021Y11041D01*
X36727Y11335D01*
Y11577D01*
X36729D01*
X36727Y11588D01*
Y11765D01*
X36727Y11768D01*
X36730Y11770D01*
X36730D01*
X36711Y11866D01*
X36657Y11947D01*
X36655Y11945D01*
X36602Y11981D01*
X36540Y11993D01*
X36478Y11981D01*
X36425Y11945D01*
X36385D01*
X36332Y11981D01*
X36270Y11993D01*
X36208Y11981D01*
X36155Y11945D01*
X36119Y11892D01*
X36107Y11830D01*
X36119Y11768D01*
X36144Y11731D01*
X36148Y11721D01*
Y11570D01*
X36148Y11570D01*
X36148D01*
X36157Y11523D01*
X36183Y11483D01*
X36328Y11339D01*
Y10933D01*
X36289Y10901D01*
X36280Y10903D01*
X36218Y10891D01*
X36165Y10855D01*
X36129Y10802D01*
X36117Y10740D01*
X36129Y10678D01*
X36165Y10625D01*
X36218Y10589D01*
X36280Y10577D01*
X36342Y10589D01*
X36395Y10625D01*
X36396Y10626D01*
X36446Y10631D01*
X36931Y10145D01*
X36917Y10098D01*
X36906Y10095D01*
X36853Y10060D01*
X36804D01*
X36751Y10095D01*
X36688Y10108D01*
X36626Y10095D01*
X36573Y10060D01*
X36524D01*
X36471Y10095D01*
X36408Y10108D01*
X36346Y10095D01*
X36293Y10060D01*
X36254D01*
X36201Y10095D01*
X36138Y10108D01*
X36076Y10095D01*
X36023Y10060D01*
X35976D01*
X35924Y10095D01*
X35861Y10108D01*
X35799Y10095D01*
X35746Y10060D01*
X35700D01*
X35647Y10095D01*
X35585Y10108D01*
X35522Y10095D01*
X35469Y10060D01*
X35434Y10007D01*
X35422Y9945D01*
X35434Y9882D01*
X35469Y9829D01*
X35522Y9794D01*
X35565Y9785D01*
X35575Y9781D01*
X36081Y9276D01*
X36080Y9275D01*
X36088Y9269D01*
X36217Y9139D01*
X36216Y9138D01*
X36228Y9129D01*
X36313Y9043D01*
Y8322D01*
X36326Y8257D01*
X36363Y8202D01*
X36418Y8165D01*
X36484Y8152D01*
X36659D01*
X36724Y8165D01*
X36780Y8202D01*
X36796Y8227D01*
X36846D01*
X36863Y8202D01*
X36918Y8165D01*
X36984Y8152D01*
X37159D01*
X37224Y8165D01*
X37280Y8202D01*
X37296Y8227D01*
X37346D01*
X37363Y8202D01*
X37418Y8165D01*
X37484Y8152D01*
X37659D01*
X37724Y8165D01*
X37780Y8202D01*
X37796Y8227D01*
X37846D01*
X37863Y8202D01*
X37918Y8165D01*
D01*
X37945Y8136D01*
X37929Y8058D01*
X37945Y7980D01*
X37947Y7976D01*
X37924Y7932D01*
X36076D01*
X36053Y7976D01*
X36073Y8007D01*
X36089Y8085D01*
X36073Y8163D01*
X36029Y8229D01*
X35963Y8273D01*
X35885Y8289D01*
X35807Y8273D01*
X35741Y8229D01*
X35696Y8163D01*
X35681Y8085D01*
X35696Y8007D01*
X35717Y7976D01*
X35693Y7932D01*
X30405D01*
Y8561D01*
X30418Y8563D01*
X30496Y8595D01*
X30563Y8647D01*
X30614Y8713D01*
X30647Y8791D01*
X30658Y8875D01*
X30647Y8958D01*
X30614Y9036D01*
X30563Y9103D01*
X30509Y9145D01*
Y9195D01*
X30563Y9237D01*
X30614Y9303D01*
X30647Y9381D01*
X30658Y9465D01*
X30647Y9548D01*
X30614Y9626D01*
X30563Y9693D01*
X30509Y9735D01*
Y9785D01*
X30563Y9827D01*
X30614Y9893D01*
X30647Y9971D01*
X30658Y10055D01*
X30647Y10138D01*
X30614Y10216D01*
X30563Y10283D01*
X30496Y10334D01*
X30418Y10367D01*
X30405Y10368D01*
Y11372D01*
X30449Y11395D01*
X30458Y11389D01*
X30520Y11377D01*
X30582Y11389D01*
X30635Y11425D01*
X30671Y11478D01*
X30683Y11540D01*
X30671Y11602D01*
X30669Y11606D01*
X30681Y11654D01*
X31947Y12299D01*
X33120Y13473D01*
X33895Y15023D01*
X41202D01*
X41218Y14975D01*
D02*
G37*
%LPC*%
G36*
X31219Y6224D02*
X31141Y6208D01*
X31074Y6164D01*
X31030Y6098D01*
X31015Y6020D01*
X31030Y5942D01*
X31074Y5876D01*
X31141Y5832D01*
X31219Y5816D01*
X31297Y5832D01*
X31363Y5876D01*
X31407Y5942D01*
X31422Y6020D01*
X31407Y6098D01*
X31363Y6164D01*
X31297Y6208D01*
X31219Y6224D01*
D02*
G37*
G36*
X3490Y8783D02*
X3428Y8771D01*
X3375Y8735D01*
X3339Y8682D01*
X3327Y8620D01*
X3339Y8558D01*
X3375Y8505D01*
X3428Y8469D01*
X3490Y8457D01*
X3552Y8469D01*
X3605Y8505D01*
X3641Y8558D01*
X3653Y8620D01*
X3641Y8682D01*
X3605Y8735D01*
X3552Y8771D01*
X3490Y8783D01*
D02*
G37*
G36*
X3420Y6576D02*
X3358Y6564D01*
X3305Y6529D01*
X3269Y6476D01*
X3257Y6413D01*
X3269Y6351D01*
X3305Y6298D01*
X3358Y6263D01*
X3420Y6250D01*
X3482Y6263D01*
X3535Y6298D01*
X3571Y6351D01*
X3583Y6413D01*
X3571Y6476D01*
X3535Y6529D01*
X3482Y6564D01*
X3420Y6576D01*
D02*
G37*
G36*
X9995Y6763D02*
X9932Y6751D01*
X9879Y6715D01*
X9844Y6662D01*
X9832Y6600D01*
X9844Y6538D01*
X9879Y6485D01*
X9932Y6449D01*
X9995Y6437D01*
X10057Y6449D01*
X10110Y6485D01*
X10146Y6538D01*
X10158Y6600D01*
X10146Y6662D01*
X10110Y6715D01*
X10057Y6751D01*
X9995Y6763D01*
D02*
G37*
G36*
X9495D02*
X9432Y6751D01*
X9379Y6715D01*
X9344Y6662D01*
X9332Y6600D01*
X9344Y6538D01*
X9379Y6485D01*
X9432Y6449D01*
X9495Y6437D01*
X9557Y6449D01*
X9610Y6485D01*
X9646Y6538D01*
X9658Y6600D01*
X9646Y6662D01*
X9610Y6715D01*
X9557Y6751D01*
X9495Y6763D01*
D02*
G37*
G36*
X2162Y8649D02*
X2103Y8638D01*
X2053Y8605D01*
X2020Y8555D01*
X2009Y8497D01*
X2020Y8438D01*
X2053Y8388D01*
X2103Y8355D01*
X2162Y8344D01*
X2220Y8355D01*
X2270Y8388D01*
X2303Y8438D01*
X2315Y8497D01*
X2303Y8555D01*
X2270Y8605D01*
X2220Y8638D01*
X2162Y8649D01*
D02*
G37*
G36*
X-2275Y5885D02*
X-2700D01*
Y5655D01*
X-2275D01*
Y5885D01*
D02*
G37*
G36*
X280Y8753D02*
X218Y8741D01*
X165Y8705D01*
X129Y8652D01*
X117Y8590D01*
X129Y8528D01*
X165Y8475D01*
X218Y8439D01*
X280Y8427D01*
X342Y8439D01*
X395Y8475D01*
X431Y8528D01*
X443Y8590D01*
X431Y8652D01*
X395Y8705D01*
X342Y8741D01*
X280Y8753D01*
D02*
G37*
G36*
X6780Y5885D02*
X6355D01*
Y5655D01*
X6780D01*
Y5885D01*
D02*
G37*
G36*
X3380Y5743D02*
X3318Y5731D01*
X3265Y5695D01*
X3229Y5642D01*
X3217Y5580D01*
Y5580D01*
X3190Y5563D01*
X3190Y5563D01*
Y5563D01*
X3128Y5551D01*
X3075Y5515D01*
X3039Y5462D01*
X3027Y5400D01*
X3039Y5338D01*
X3075Y5285D01*
X3128Y5249D01*
X3190Y5237D01*
X3252Y5249D01*
X3305Y5285D01*
X3341Y5338D01*
X3353Y5400D01*
D01*
D01*
X3380Y5417D01*
X3380Y5417D01*
Y5417D01*
X3442Y5429D01*
X3495Y5465D01*
X3531Y5518D01*
X3543Y5580D01*
X3531Y5642D01*
X3495Y5695D01*
X3442Y5731D01*
X3380Y5743D01*
D02*
G37*
G36*
X6255Y5885D02*
X5830D01*
Y5707D01*
X5817Y5703D01*
X5817Y5703D01*
X5782Y5693D01*
D01*
X5750Y5740D01*
X5697Y5776D01*
X5635Y5788D01*
X5572Y5776D01*
X5519Y5740D01*
X5484Y5687D01*
X5472Y5625D01*
X5484Y5562D01*
X5519Y5509D01*
X5572Y5474D01*
X5635Y5462D01*
X5697Y5474D01*
X5750Y5509D01*
X5786Y5562D01*
X5798Y5625D01*
D01*
X5816Y5652D01*
X5829Y5655D01*
X5829Y5655D01*
X5830Y5655D01*
X5830Y5655D01*
X5830Y5655D01*
X6255D01*
Y5885D01*
D02*
G37*
G36*
X1906Y7881D02*
X1847Y7870D01*
X1798Y7837D01*
X1764Y7787D01*
X1753Y7728D01*
X1764Y7670D01*
X1798Y7620D01*
X1847Y7587D01*
X1906Y7575D01*
X1964Y7587D01*
X2014Y7620D01*
X2047Y7670D01*
X2059Y7728D01*
X2047Y7787D01*
X2014Y7837D01*
X1964Y7870D01*
X1906Y7881D01*
D02*
G37*
G36*
X5630Y8113D02*
X5568Y8101D01*
X5515Y8065D01*
X5479Y8012D01*
X5467Y7950D01*
X5479Y7888D01*
X5515Y7835D01*
X5537Y7820D01*
X5544Y7770D01*
X5519Y7740D01*
X5519Y7740D01*
X5519D01*
X5484Y7687D01*
X5472Y7625D01*
X5484Y7562D01*
X5519Y7509D01*
X5572Y7474D01*
X5635Y7462D01*
X5697Y7474D01*
X5750Y7509D01*
X5786Y7562D01*
X5798Y7625D01*
X5786Y7687D01*
X5750Y7740D01*
X5728Y7755D01*
X5721Y7804D01*
X5745Y7835D01*
X5745Y7835D01*
X5745D01*
X5781Y7888D01*
X5793Y7950D01*
X5781Y8012D01*
X5745Y8065D01*
X5692Y8101D01*
X5630Y8113D01*
D02*
G37*
G36*
X1730Y7463D02*
X1668Y7451D01*
X1615Y7415D01*
X1579Y7362D01*
X1567Y7300D01*
X1579Y7238D01*
X1615Y7185D01*
X1668Y7149D01*
X1730Y7137D01*
X1792Y7149D01*
X1845Y7185D01*
X1881Y7238D01*
X1893Y7300D01*
X1881Y7362D01*
X1845Y7415D01*
X1792Y7451D01*
X1730Y7463D01*
D02*
G37*
G36*
X16575Y8323D02*
X16512Y8311D01*
X16459Y8275D01*
X16424Y8222D01*
X16412Y8160D01*
X16424Y8098D01*
X16459Y8045D01*
X16512Y8009D01*
X16575Y7997D01*
X16637Y8009D01*
X16690Y8045D01*
X16726Y8098D01*
X16738Y8160D01*
X16726Y8222D01*
X16690Y8275D01*
X16637Y8311D01*
X16575Y8323D01*
D02*
G37*
G36*
X16075D02*
X16012Y8311D01*
X15959Y8275D01*
X15924Y8222D01*
X15912Y8160D01*
X15924Y8098D01*
X15959Y8045D01*
X16012Y8009D01*
X16075Y7997D01*
X16137Y8009D01*
X16190Y8045D01*
X16226Y8098D01*
X16238Y8160D01*
X16226Y8222D01*
X16190Y8275D01*
X16137Y8311D01*
X16075Y8323D01*
D02*
G37*
G36*
X2422Y7887D02*
X2363Y7875D01*
X2314Y7842D01*
X2281Y7792D01*
X2269Y7734D01*
X2281Y7675D01*
X2314Y7625D01*
X2363Y7592D01*
X2422Y7581D01*
X2480Y7592D01*
X2530Y7625D01*
X2563Y7675D01*
X2575Y7734D01*
X2563Y7792D01*
X2530Y7842D01*
X2480Y7875D01*
X2422Y7887D01*
D02*
G37*
G36*
X21525Y6763D02*
X21462Y6751D01*
X21409Y6715D01*
X21374Y6662D01*
X21362Y6600D01*
X21374Y6538D01*
X21409Y6485D01*
X21462Y6449D01*
X21525Y6437D01*
X21587Y6449D01*
X21640Y6485D01*
X21676Y6538D01*
X21688Y6600D01*
X21676Y6662D01*
X21640Y6715D01*
X21587Y6751D01*
X21525Y6763D01*
D02*
G37*
G36*
X40659Y9338D02*
X40621D01*
Y8735D01*
Y8131D01*
X40659D01*
X40732Y8146D01*
X40794Y8187D01*
X40808Y8209D01*
X40858D01*
X40863Y8202D01*
X40918Y8165D01*
X40984Y8152D01*
X41159D01*
X41224Y8165D01*
X41280Y8202D01*
X41317Y8257D01*
X41330Y8322D01*
Y8531D01*
X41345D01*
X41423Y8546D01*
X41489Y8591D01*
X41533Y8657D01*
X41549Y8735D01*
X41533Y8813D01*
X41489Y8879D01*
X41423Y8923D01*
X41345Y8939D01*
X41330D01*
Y9147D01*
X41317Y9213D01*
X41280Y9268D01*
X41224Y9305D01*
X41159Y9318D01*
X40984D01*
X40918Y9305D01*
X40863Y9268D01*
X40858Y9261D01*
X40808D01*
X40794Y9282D01*
X40732Y9324D01*
X40659Y9338D01*
D02*
G37*
G36*
X21025Y6763D02*
X20962Y6751D01*
X20909Y6715D01*
X20874Y6662D01*
X20862Y6600D01*
X20874Y6538D01*
X20909Y6485D01*
X20962Y6449D01*
X21025Y6437D01*
X21087Y6449D01*
X21140Y6485D01*
X21176Y6538D01*
X21188Y6600D01*
X21176Y6662D01*
X21140Y6715D01*
X21087Y6751D01*
X21025Y6763D01*
D02*
G37*
G36*
X1906Y8393D02*
X1847Y8382D01*
X1798Y8348D01*
X1765Y8299D01*
X1753Y8240D01*
X1765Y8182D01*
X1798Y8132D01*
X1847Y8099D01*
X1906Y8087D01*
X1964Y8099D01*
X2014Y8132D01*
X2047Y8182D01*
X2059Y8240D01*
X2047Y8299D01*
X2014Y8348D01*
X1964Y8382D01*
X1906Y8393D01*
D02*
G37*
G36*
X33066Y6763D02*
X33003Y6751D01*
X32950Y6715D01*
X32915Y6662D01*
X32902Y6600D01*
X32915Y6538D01*
X32950Y6485D01*
X33003Y6449D01*
X33066Y6437D01*
X33128Y6449D01*
X33181Y6485D01*
X33216Y6538D01*
X33229Y6600D01*
X33216Y6662D01*
X33181Y6715D01*
X33128Y6751D01*
X33066Y6763D01*
D02*
G37*
G36*
X32565D02*
X32503Y6751D01*
X32450Y6715D01*
X32415Y6662D01*
X32402Y6600D01*
X32415Y6538D01*
X32450Y6485D01*
X32503Y6449D01*
X32565Y6437D01*
X32628Y6449D01*
X32681Y6485D01*
X32716Y6538D01*
X32728Y6600D01*
X32716Y6662D01*
X32681Y6715D01*
X32628Y6751D01*
X32565Y6763D01*
D02*
G37*
G36*
X6383Y1325D02*
X5858D01*
Y1125D01*
X5959D01*
X5991Y1086D01*
X5981Y1035D01*
X5996Y957D01*
X6041Y891D01*
X6107Y846D01*
X6185Y831D01*
X6263Y846D01*
X6329Y891D01*
X6373Y957D01*
X6389Y1035D01*
X6379Y1086D01*
X6383Y1091D01*
Y1325D01*
D02*
G37*
G36*
X32320Y854D02*
X32242Y838D01*
X32195Y807D01*
X32148Y838D01*
X32070Y854D01*
X31992Y838D01*
X31926Y794D01*
X31882Y728D01*
X31866Y650D01*
X31882Y572D01*
X31926Y506D01*
X31992Y462D01*
X32070Y446D01*
X32148Y462D01*
X32195Y493D01*
X32242Y462D01*
X32320Y446D01*
X32398Y462D01*
X32464Y506D01*
X32508Y572D01*
X32524Y650D01*
X32508Y728D01*
X32464Y794D01*
X32398Y838D01*
X32320Y854D01*
D02*
G37*
G36*
X30850Y1129D02*
X30772Y1113D01*
X30706Y1069D01*
X30662Y1003D01*
X30646Y925D01*
X30662Y847D01*
X30706Y781D01*
X30772Y737D01*
X30850Y721D01*
X30928Y737D01*
X30994Y781D01*
X31038Y847D01*
X31054Y925D01*
X31038Y1003D01*
X30994Y1069D01*
X30928Y1113D01*
X30850Y1129D01*
D02*
G37*
G36*
X7008Y1325D02*
X6483D01*
Y1125D01*
X7008D01*
Y1325D01*
D02*
G37*
G36*
X668Y1205D02*
X143D01*
Y1005D01*
X668D01*
Y1205D01*
D02*
G37*
G36*
X43D02*
X-482D01*
Y1005D01*
X43D01*
Y1205D01*
D02*
G37*
G36*
X20905Y1038D02*
X20842Y1026D01*
X20789Y990D01*
X20754Y937D01*
X20742Y875D01*
X20754Y812D01*
X20789Y759D01*
X20842Y724D01*
X20905Y712D01*
X20967Y724D01*
X21020Y759D01*
X21056Y812D01*
X21068Y875D01*
X21056Y937D01*
X21020Y990D01*
X20967Y1026D01*
X20905Y1038D01*
D02*
G37*
G36*
X5470Y438D02*
X5408Y426D01*
X5355Y390D01*
X5319Y337D01*
X5307Y275D01*
X5319Y212D01*
X5355Y159D01*
X5408Y124D01*
X5470Y112D01*
X5532Y124D01*
X5585Y159D01*
X5621Y212D01*
X5633Y275D01*
X5621Y337D01*
X5585Y390D01*
X5532Y426D01*
X5470Y438D01*
D02*
G37*
G36*
X9055Y218D02*
X8992Y206D01*
X8939Y170D01*
X8904Y117D01*
X8892Y55D01*
X8904Y-8D01*
X8939Y-61D01*
X8992Y-96D01*
X9055Y-108D01*
X9117Y-96D01*
X9170Y-61D01*
X9206Y-8D01*
X9218Y55D01*
X9206Y117D01*
X9170Y170D01*
X9117Y206D01*
X9055Y218D01*
D02*
G37*
G36*
X31438Y180D02*
X31376Y168D01*
X31323Y132D01*
X31288Y79D01*
X31275Y17D01*
X31288Y-46D01*
X31323Y-99D01*
X31376Y-134D01*
X31438Y-146D01*
X31501Y-134D01*
X31554Y-99D01*
X31589Y-46D01*
X31602Y17D01*
X31589Y79D01*
X31554Y132D01*
X31501Y168D01*
X31438Y180D01*
D02*
G37*
G36*
X20665Y648D02*
X20602Y636D01*
X20549Y600D01*
X20514Y547D01*
X20502Y485D01*
X20514Y422D01*
X20549Y369D01*
X20602Y334D01*
X20665Y322D01*
X20727Y334D01*
X20780Y369D01*
X20816Y422D01*
X20828Y485D01*
X20816Y547D01*
X20780Y600D01*
X20727Y636D01*
X20665Y648D01*
D02*
G37*
G36*
X9255Y608D02*
X9192Y596D01*
X9139Y560D01*
X9104Y507D01*
X9092Y445D01*
X9104Y382D01*
X9139Y329D01*
X9192Y294D01*
X9255Y282D01*
X9317Y294D01*
X9370Y329D01*
X9406Y382D01*
X9418Y445D01*
X9406Y507D01*
X9370Y560D01*
X9317Y596D01*
X9255Y608D01*
D02*
G37*
G36*
X5950Y438D02*
X5888Y426D01*
X5835Y390D01*
X5799Y337D01*
X5787Y275D01*
X5799Y212D01*
X5835Y159D01*
X5888Y124D01*
X5950Y112D01*
X6012Y124D01*
X6065Y159D01*
X6101Y212D01*
X6113Y275D01*
X6101Y337D01*
X6065Y390D01*
X6012Y426D01*
X5950Y438D01*
D02*
G37*
G36*
X9015Y1688D02*
X8952Y1676D01*
X8899Y1640D01*
X8864Y1587D01*
X8852Y1525D01*
X8864Y1462D01*
X8899Y1409D01*
X8952Y1374D01*
X9015Y1362D01*
X9077Y1374D01*
X9130Y1409D01*
X9166Y1462D01*
X9178Y1525D01*
X9166Y1587D01*
X9130Y1640D01*
X9077Y1676D01*
X9015Y1688D01*
D02*
G37*
G36*
X20355Y5038D02*
X20292Y5026D01*
X20239Y4990D01*
X20204Y4937D01*
X20192Y4875D01*
X20204Y4812D01*
X20239Y4759D01*
X20292Y4724D01*
X20355Y4712D01*
X20417Y4724D01*
X20470Y4759D01*
X20506Y4812D01*
X20518Y4875D01*
X20506Y4937D01*
X20470Y4990D01*
X20417Y5026D01*
X20355Y5038D01*
D02*
G37*
G36*
X6025Y4308D02*
X5963Y4296D01*
X5910Y4260D01*
X5875Y4207D01*
X5862Y4145D01*
X5875Y4082D01*
X5910Y4030D01*
X5963Y3994D01*
X6025Y3982D01*
X6088Y3994D01*
X6141Y4030D01*
X6176Y4082D01*
X6188Y4145D01*
X6176Y4207D01*
X6141Y4260D01*
X6088Y4296D01*
X6025Y4308D01*
D02*
G37*
G36*
X6720Y3927D02*
X6642Y3912D01*
X6576Y3868D01*
X6532Y3801D01*
X6516Y3723D01*
X6532Y3645D01*
X6471Y3605D01*
X5878D01*
Y3160D01*
X5878Y3160D01*
X5878D01*
X5878Y3145D01*
X5858Y3125D01*
X5858Y3109D01*
X5858Y3109D01*
X5858D01*
Y2925D01*
X7008D01*
Y3109D01*
X7008Y3109D01*
D01*
D01*
X7008Y3109D01*
X7008Y3125D01*
X6997Y3136D01*
X6997Y3136D01*
X6988Y3144D01*
X6988Y3145D01*
X6988Y3160D01*
X6988Y3160D01*
X6988D01*
Y3605D01*
X6969D01*
X6909Y3645D01*
X6924Y3723D01*
X6909Y3801D01*
X6865Y3868D01*
X6798Y3912D01*
X6720Y3927D01*
D02*
G37*
G36*
X16113Y5584D02*
X16035Y5568D01*
X15969Y5524D01*
X15924Y5458D01*
X15909Y5380D01*
X15924Y5302D01*
X15882Y5274D01*
X15872Y5281D01*
X15810Y5293D01*
X15748Y5281D01*
X15695Y5245D01*
X15659Y5192D01*
X15647Y5130D01*
X15659Y5068D01*
X15695Y5015D01*
X15748Y4979D01*
X15810Y4967D01*
X15810Y4967D01*
X15810Y4967D01*
X15847Y4950D01*
D01*
D01*
X15859Y4888D01*
X15895Y4835D01*
X15948Y4799D01*
X15956Y4798D01*
X15956Y4784D01*
X15956Y4784D01*
X15956Y4784D01*
X16219Y2640D01*
X17470Y2794D01*
X17462Y2859D01*
X17504Y2885D01*
X17517Y2876D01*
X17595Y2861D01*
X17673Y2876D01*
X17739Y2921D01*
X17783Y2987D01*
X17799Y3065D01*
X17783Y3143D01*
X17739Y3209D01*
X17673Y3253D01*
X17628Y3262D01*
X17382Y3508D01*
X17303Y4152D01*
X17320Y4169D01*
X17356Y4222D01*
X17368Y4285D01*
X17368Y4285D01*
X17368Y4285D01*
Y4285D01*
Y5059D01*
X17393Y5097D01*
X17409Y5175D01*
X17393Y5253D01*
X17349Y5319D01*
X17283Y5363D01*
X17205Y5379D01*
X17127Y5363D01*
X17061Y5319D01*
X17016Y5253D01*
X17001Y5175D01*
X17016Y5097D01*
X17042Y5059D01*
Y4917D01*
X16163Y4809D01*
X16137Y4852D01*
X16161Y4888D01*
X16173Y4950D01*
X16161Y5012D01*
X16125Y5065D01*
X16072Y5101D01*
X16010Y5113D01*
X16010Y5113D01*
X16010Y5113D01*
X15973Y5130D01*
Y5130D01*
X15962Y5184D01*
X16004Y5212D01*
X16035Y5192D01*
X16113Y5176D01*
X16191Y5192D01*
X16257Y5236D01*
X16301Y5302D01*
X16317Y5380D01*
X16301Y5458D01*
X16257Y5524D01*
X16191Y5568D01*
X16113Y5584D01*
D02*
G37*
G36*
X895Y5738D02*
X832Y5726D01*
X779Y5690D01*
X744Y5637D01*
X732Y5575D01*
X744Y5512D01*
X768Y5477D01*
X742Y5460D01*
X698Y5394D01*
X682Y5316D01*
X698Y5238D01*
X742Y5172D01*
X808Y5128D01*
X886Y5112D01*
X964Y5128D01*
X1030Y5172D01*
X1075Y5238D01*
X1090Y5316D01*
X1075Y5394D01*
X1030Y5460D01*
X1017Y5469D01*
X1046Y5512D01*
X1058Y5575D01*
X1046Y5637D01*
X1010Y5690D01*
X957Y5726D01*
X895Y5738D01*
D02*
G37*
G36*
X5635Y5288D02*
X5572Y5276D01*
X5519Y5240D01*
X5484Y5187D01*
X5472Y5125D01*
X5484Y5062D01*
X5519Y5009D01*
X5572Y4974D01*
X5635Y4962D01*
X5697Y4974D01*
X5750Y5009D01*
X5786Y5062D01*
X5798Y5125D01*
X5786Y5187D01*
X5750Y5240D01*
X5697Y5276D01*
X5635Y5288D01*
D02*
G37*
G36*
X2581Y3458D02*
X2331D01*
Y2718D01*
X2581D01*
Y3458D01*
D02*
G37*
G36*
X3355Y3438D02*
X2795D01*
Y2226D01*
X2627Y2059D01*
X2581Y2078D01*
Y2618D01*
X2331D01*
Y1878D01*
X2381D01*
X2400Y1832D01*
X2279Y1711D01*
X2228Y1635D01*
X2210Y1545D01*
X2228Y1455D01*
X2279Y1379D01*
X2355Y1328D01*
X2445Y1310D01*
X2535Y1328D01*
X2611Y1379D01*
X3130Y1898D01*
X3355D01*
Y3438D01*
D02*
G37*
G36*
X668Y2205D02*
X-482D01*
Y2020D01*
X-482Y2020D01*
X-482D01*
X-482Y2005D01*
X-462Y1985D01*
X-462Y1969D01*
X-462Y1969D01*
X-462D01*
Y1540D01*
X-462Y1540D01*
X-462D01*
X-462Y1525D01*
X-482Y1505D01*
X-482Y1489D01*
X-482Y1489D01*
X-482D01*
Y1305D01*
X668D01*
Y1489D01*
X668Y1489D01*
D01*
D01*
X668Y1489D01*
X668Y1505D01*
X657Y1516D01*
X657Y1516D01*
X648Y1524D01*
X648Y1525D01*
X648Y1540D01*
X648Y1540D01*
X648D01*
Y1969D01*
D01*
D01*
D01*
X648Y1969D01*
D01*
X668Y2005D01*
X668Y2005D01*
X668Y2020D01*
X668Y2020D01*
X668D01*
Y2205D01*
D02*
G37*
G36*
X2231Y2618D02*
X1981D01*
Y1878D01*
X2231D01*
Y2618D01*
D02*
G37*
G36*
Y3458D02*
X1981D01*
Y2718D01*
X2231D01*
Y3458D01*
D02*
G37*
G36*
X7008Y2825D02*
X5858D01*
Y2625D01*
Y2563D01*
X5819Y2531D01*
X5785Y2538D01*
X5722Y2526D01*
X5669Y2490D01*
X5634Y2437D01*
X5622Y2375D01*
X5634Y2312D01*
X5669Y2259D01*
X5722Y2224D01*
X5785Y2212D01*
X5819Y2218D01*
X5858Y2187D01*
Y2140D01*
X5858Y2140D01*
X5858D01*
X5858Y2125D01*
X5876Y2106D01*
X5874Y2056D01*
X5839Y2027D01*
X5785Y2038D01*
X5722Y2026D01*
X5669Y1990D01*
X5634Y1937D01*
X5622Y1875D01*
X5634Y1812D01*
X5669Y1759D01*
X5722Y1724D01*
X5785Y1712D01*
X5839Y1722D01*
X5874Y1694D01*
X5876Y1644D01*
X5858Y1625D01*
X5858Y1609D01*
X5858Y1609D01*
X5858D01*
Y1425D01*
X7008D01*
Y1609D01*
X7008Y1609D01*
D01*
D01*
X7008Y1609D01*
X7008Y1625D01*
X6997Y1636D01*
X6997Y1636D01*
X6988Y1644D01*
X6988Y1645D01*
X6988Y1660D01*
X6988Y1660D01*
X6988D01*
Y2089D01*
D01*
D01*
D01*
X6988Y2089D01*
D01*
X7008Y2125D01*
X7008Y2125D01*
X7008Y2140D01*
X7008Y2140D01*
X7008D01*
Y2325D01*
X6433D01*
Y2425D01*
X7008D01*
Y2625D01*
Y2825D01*
D02*
G37*
G36*
X668Y2705D02*
X-482D01*
Y2505D01*
Y2305D01*
X668D01*
Y2505D01*
Y2705D01*
D02*
G37*
G36*
X29885Y13863D02*
X29813Y13849D01*
X29751Y13808D01*
X29711Y13747D01*
X29696Y13675D01*
X29711Y13603D01*
X29715Y13596D01*
X29711Y13557D01*
X29677Y13444D01*
X29621Y13340D01*
X29546Y13249D01*
X29455Y13174D01*
X29417Y13154D01*
X29353Y13217D01*
X29349Y13237D01*
X29308Y13298D01*
X29247Y13339D01*
X29175Y13353D01*
X29103Y13339D01*
X29041Y13298D01*
X29001Y13237D01*
X28986Y13165D01*
X29001Y13093D01*
X28982Y13053D01*
X28799Y13030D01*
X28773Y13073D01*
X28799Y13113D01*
X28813Y13185D01*
X28799Y13257D01*
X28758Y13318D01*
X28697Y13359D01*
X28625Y13373D01*
X28553Y13359D01*
X28491Y13318D01*
X28451Y13257D01*
X28436Y13185D01*
X28451Y13113D01*
X28491Y13051D01*
X28553Y13011D01*
X28625Y12996D01*
X28631Y12997D01*
X28671Y12968D01*
X28929Y10870D01*
X30180Y11024D01*
X30013Y12379D01*
X30036Y12412D01*
X30048Y12475D01*
X30048Y12475D01*
X30048Y12475D01*
Y12475D01*
Y12691D01*
X30048Y12694D01*
X30048D01*
Y12885D01*
X30048Y12891D01*
X30048D01*
Y13079D01*
X30049Y13087D01*
X30048D01*
Y13273D01*
X30049Y13283D01*
X30048D01*
Y13467D01*
X30049Y13479D01*
X30048D01*
Y13586D01*
X30059Y13603D01*
X30073Y13675D01*
X30059Y13747D01*
X30018Y13808D01*
X29957Y13849D01*
X29885Y13863D01*
D02*
G37*
G36*
X36780Y13368D02*
X36718Y13356D01*
X36665Y13320D01*
X36629Y13267D01*
X36617Y13205D01*
X36629Y13142D01*
X36665Y13089D01*
X36718Y13054D01*
X36780Y13042D01*
X36842Y13054D01*
X36895Y13089D01*
X36931Y13142D01*
X36943Y13205D01*
X36931Y13267D01*
X36895Y13320D01*
X36842Y13356D01*
X36780Y13368D01*
D02*
G37*
G36*
X37115Y12819D02*
X37037Y12803D01*
X36971Y12759D01*
X36960Y12743D01*
X36910D01*
X36895Y12765D01*
X36842Y12801D01*
X36780Y12813D01*
X36718Y12801D01*
X36665Y12765D01*
X36629Y12712D01*
X36617Y12650D01*
X36629Y12588D01*
X36665Y12535D01*
X36718Y12499D01*
X36780Y12487D01*
X36842Y12499D01*
X36895Y12535D01*
X36954Y12495D01*
X36971Y12471D01*
X37037Y12426D01*
X37115Y12411D01*
X37193Y12426D01*
X37259Y12471D01*
X37303Y12537D01*
X37319Y12615D01*
X37303Y12693D01*
X37259Y12759D01*
X37193Y12803D01*
X37115Y12819D01*
D02*
G37*
G36*
X-1225Y13958D02*
X-1288Y13946D01*
X-1341Y13910D01*
X-1376Y13857D01*
X-1388Y13795D01*
X-1376Y13732D01*
X-1341Y13679D01*
X-1288Y13644D01*
X-1225Y13632D01*
X-1163Y13644D01*
X-1110Y13679D01*
X-1074Y13732D01*
X-1062Y13795D01*
X-1074Y13857D01*
X-1110Y13910D01*
X-1163Y13946D01*
X-1225Y13958D01*
D02*
G37*
G36*
X325Y13809D02*
X247Y13793D01*
X181Y13749D01*
X136Y13683D01*
X121Y13605D01*
X136Y13527D01*
X181Y13461D01*
X247Y13416D01*
X325Y13401D01*
X403Y13416D01*
X469Y13461D01*
X513Y13527D01*
X529Y13605D01*
X513Y13683D01*
X469Y13749D01*
X403Y13793D01*
X325Y13809D01*
D02*
G37*
G36*
X38640Y13588D02*
X38578Y13576D01*
X38525Y13540D01*
X38489Y13487D01*
X38477Y13425D01*
X38489Y13362D01*
X38525Y13309D01*
X38578Y13274D01*
X38640Y13262D01*
X38702Y13274D01*
X38755Y13309D01*
X38791Y13362D01*
X38803Y13425D01*
X38791Y13487D01*
X38755Y13540D01*
X38702Y13576D01*
X38640Y13588D01*
D02*
G37*
G36*
X35315Y12968D02*
X35252Y12956D01*
X35199Y12920D01*
X35164Y12867D01*
X35152Y12805D01*
X35164Y12742D01*
X35199Y12689D01*
X35252Y12654D01*
X35315Y12642D01*
X35323Y12643D01*
X35358Y12608D01*
X35352Y12575D01*
X35364Y12512D01*
X35399Y12459D01*
X35452Y12424D01*
X35515Y12412D01*
X35577Y12424D01*
X35630Y12459D01*
X35666Y12512D01*
X35678Y12575D01*
X35666Y12637D01*
X35630Y12690D01*
X35577Y12726D01*
X35515Y12738D01*
X35507Y12736D01*
X35471Y12772D01*
X35478Y12805D01*
X35466Y12867D01*
X35430Y12920D01*
X35377Y12956D01*
X35315Y12968D01*
D02*
G37*
G36*
X9851Y12119D02*
X8600Y11966D01*
X8610Y11883D01*
X8568Y11857D01*
X8543Y11873D01*
X8465Y11889D01*
X8387Y11873D01*
X8321Y11829D01*
X8276Y11763D01*
X8261Y11685D01*
X8276Y11607D01*
X8321Y11541D01*
X8387Y11496D01*
X8465Y11481D01*
X8543Y11496D01*
X8581Y11522D01*
X8654D01*
X8852Y9916D01*
Y9621D01*
X8826Y9583D01*
X8811Y9505D01*
X8826Y9427D01*
X8871Y9361D01*
X8937Y9316D01*
X9015Y9301D01*
X9093Y9316D01*
X9159Y9361D01*
X9203Y9427D01*
X9219Y9505D01*
X9203Y9583D01*
X9178Y9621D01*
Y9861D01*
X9630Y9916D01*
X9654Y9877D01*
X9642Y9815D01*
X9654Y9752D01*
X9689Y9699D01*
X9742Y9664D01*
X9805Y9652D01*
X9867Y9664D01*
X9920Y9699D01*
X9956Y9752D01*
X9968Y9815D01*
X9956Y9877D01*
X9933Y9911D01*
X9954Y9956D01*
X10114Y9976D01*
X9851Y12119D01*
D02*
G37*
G36*
X21381D02*
X20130Y11966D01*
X20142Y11871D01*
X20099Y11844D01*
X20077Y11859D01*
X20005Y11873D01*
X19933Y11859D01*
X19871Y11818D01*
X19831Y11757D01*
X19816Y11685D01*
X19831Y11613D01*
X19871Y11551D01*
X19933Y11511D01*
X19952Y11507D01*
X20219Y11240D01*
X20282Y10724D01*
X20245Y10601D01*
X20234Y10485D01*
X20232Y10475D01*
Y10465D01*
X20231Y10461D01*
X20232D01*
Y10289D01*
X20231Y10285D01*
X20232D01*
Y10113D01*
X20231Y10108D01*
X20232D01*
Y9938D01*
X20231Y9932D01*
X20232D01*
Y9762D01*
X20231Y9755D01*
X20232D01*
Y9661D01*
X20206Y9623D01*
X20191Y9545D01*
X20206Y9467D01*
X20251Y9401D01*
X20317Y9356D01*
X20395Y9341D01*
X20473Y9356D01*
X20539Y9401D01*
X20583Y9467D01*
X20599Y9545D01*
X20583Y9623D01*
X20565Y9650D01*
X20572Y9703D01*
X20620Y9818D01*
X20647Y9853D01*
X21644Y9976D01*
X21381Y12119D01*
D02*
G37*
G36*
X1170Y12048D02*
X1108Y12036D01*
X1055Y12000D01*
X1019Y11947D01*
X1007Y11885D01*
X1019Y11822D01*
X1055Y11769D01*
X1108Y11734D01*
X1170Y11722D01*
X1232Y11734D01*
X1285Y11769D01*
X1321Y11822D01*
X1333Y11885D01*
X1321Y11947D01*
X1285Y12000D01*
X1232Y12036D01*
X1170Y12048D01*
D02*
G37*
G36*
X-1225Y12329D02*
X-1303Y12313D01*
X-1369Y12269D01*
X-1394Y12232D01*
X-1444D01*
X-1466Y12264D01*
X-1532Y12308D01*
X-1610Y12324D01*
X-1688Y12308D01*
X-1754Y12264D01*
X-1798Y12198D01*
X-1814Y12120D01*
X-1798Y12042D01*
X-1754Y11976D01*
X-1688Y11932D01*
X-1610Y11916D01*
X-1532Y11932D01*
X-1466Y11976D01*
X-1441Y12013D01*
X-1391D01*
X-1369Y11981D01*
X-1303Y11936D01*
X-1225Y11921D01*
X-1147Y11936D01*
X-1081Y11981D01*
X-1037Y12047D01*
X-1021Y12125D01*
X-1037Y12203D01*
X-1081Y12269D01*
X-1147Y12313D01*
X-1225Y12329D01*
D02*
G37*
G36*
X40536Y12795D02*
X40443Y12782D01*
X40356Y12747D01*
X40282Y12690D01*
X40225Y12615D01*
X40189Y12529D01*
X40177Y12436D01*
X40189Y12343D01*
X40225Y12257D01*
X40282Y12182D01*
X40356Y12125D01*
X40443Y12089D01*
X40536Y12077D01*
X40629Y12089D01*
X40715Y12125D01*
X40789Y12182D01*
X40846Y12257D01*
X40882Y12343D01*
X40894Y12436D01*
X40882Y12529D01*
X40846Y12615D01*
X40789Y12690D01*
X40715Y12747D01*
X40629Y12782D01*
X40536Y12795D01*
D02*
G37*
G36*
X38795Y12429D02*
X38717Y12413D01*
X38651Y12369D01*
X38606Y12303D01*
X38591Y12225D01*
X38606Y12147D01*
X38651Y12081D01*
X38717Y12036D01*
X38795Y12021D01*
X38873Y12036D01*
X38939Y12081D01*
X38983Y12147D01*
X38999Y12225D01*
X38983Y12303D01*
X38939Y12369D01*
X38873Y12413D01*
X38795Y12429D01*
D02*
G37*
G36*
X16625Y14327D02*
X16547Y14312D01*
X16480Y14268D01*
X16436Y14201D01*
X16421Y14123D01*
X16436Y14045D01*
X16480Y13979D01*
X16547Y13935D01*
X16625Y13919D01*
X16703Y13935D01*
X16769Y13979D01*
X16813Y14045D01*
X16829Y14123D01*
X16813Y14201D01*
X16769Y14268D01*
X16703Y14312D01*
X16625Y14327D01*
D02*
G37*
G36*
X18225Y14589D02*
X18147Y14573D01*
X18081Y14529D01*
X18036Y14463D01*
X18027Y14415D01*
X17826Y14208D01*
X17521D01*
X17483Y14233D01*
X17405Y14249D01*
X17327Y14233D01*
X17261Y14189D01*
X17216Y14123D01*
X17201Y14045D01*
X17216Y13967D01*
X17261Y13901D01*
X17327Y13856D01*
X17405Y13841D01*
X17483Y13856D01*
X17521Y13882D01*
X17588D01*
X17946Y13531D01*
X17941Y13479D01*
X17920Y13408D01*
X17870Y13411D01*
X17866Y13432D01*
X17830Y13485D01*
X17777Y13521D01*
X17715Y13533D01*
X17652Y13521D01*
X17599Y13485D01*
X17564Y13432D01*
X17552Y13370D01*
X17564Y13308D01*
X17599Y13255D01*
X17652Y13219D01*
X17715Y13207D01*
X17734Y13211D01*
X17748Y13199D01*
Y13149D01*
X17688Y13100D01*
X17644Y13076D01*
X17136Y13014D01*
X17399Y10870D01*
X18650Y11024D01*
X18386Y13168D01*
X18315Y13159D01*
X18278Y13192D01*
Y13345D01*
X18279Y13353D01*
X18278D01*
Y13582D01*
X18279Y13595D01*
X18279D01*
X18278Y13596D01*
X18278Y13597D01*
X18272Y13627D01*
X18266Y13657D01*
X18265Y13658D01*
X18265Y13659D01*
X18247Y13684D01*
X18230Y13710D01*
X18229Y13711D01*
X18229Y13711D01*
X18028Y13908D01*
X18028Y13908D01*
X18028Y13908D01*
X18012Y13931D01*
X18261Y14188D01*
X18303Y14196D01*
X18369Y14241D01*
X18413Y14307D01*
X18429Y14385D01*
X18413Y14463D01*
X18369Y14529D01*
X18303Y14573D01*
X18225Y14589D01*
D02*
G37*
G36*
X28265Y14573D02*
X28193Y14559D01*
X28131Y14518D01*
X28091Y14457D01*
X28076Y14385D01*
X28091Y14313D01*
X28131Y14251D01*
X28193Y14211D01*
X28265Y14196D01*
X28337Y14211D01*
X28398Y14251D01*
X28439Y14313D01*
X28453Y14385D01*
X28439Y14457D01*
X28398Y14518D01*
X28337Y14559D01*
X28265Y14573D01*
D02*
G37*
G36*
X39905Y14918D02*
X39798Y14904D01*
X39698Y14863D01*
X39612Y14797D01*
X39547Y14712D01*
X39505Y14612D01*
X39491Y14505D01*
X39505Y14398D01*
X39547Y14298D01*
X39612Y14212D01*
X39698Y14147D01*
X39798Y14105D01*
X39905Y14091D01*
X40012Y14105D01*
X40112Y14147D01*
X40197Y14212D01*
X40263Y14298D01*
X40304Y14398D01*
X40318Y14505D01*
X40304Y14612D01*
X40263Y14712D01*
X40197Y14797D01*
X40112Y14863D01*
X40012Y14904D01*
X39905Y14918D01*
D02*
G37*
G36*
X38955Y14932D02*
Y14555D01*
X39332D01*
X39324Y14617D01*
X39280Y14722D01*
X39211Y14811D01*
X39122Y14880D01*
X39017Y14924D01*
X38955Y14932D01*
D02*
G37*
G36*
X38855D02*
X38793Y14924D01*
X38688Y14880D01*
X38598Y14811D01*
X38529Y14722D01*
X38486Y14617D01*
X38478Y14555D01*
X38855D01*
Y14932D01*
D02*
G37*
G36*
X27430Y14819D02*
X27352Y14803D01*
X27286Y14759D01*
X27242Y14693D01*
X27226Y14615D01*
X27242Y14537D01*
X27286Y14471D01*
X27352Y14426D01*
X27430Y14411D01*
X27508Y14426D01*
X27574Y14471D01*
X27618Y14537D01*
X27634Y14615D01*
X27618Y14693D01*
X27574Y14759D01*
X27508Y14803D01*
X27430Y14819D01*
D02*
G37*
G36*
X39332Y14455D02*
X38955D01*
Y14078D01*
X39017Y14086D01*
X39122Y14129D01*
X39211Y14198D01*
X39280Y14288D01*
X39324Y14393D01*
X39332Y14455D01*
D02*
G37*
G36*
X-2275Y14215D02*
X-2700D01*
Y13985D01*
X-2275D01*
Y14215D01*
D02*
G37*
G36*
X-2800D02*
X-3225D01*
Y13985D01*
X-2800D01*
Y14215D01*
D02*
G37*
G36*
X5525Y14329D02*
X5447Y14313D01*
X5381Y14269D01*
X5336Y14203D01*
X5321Y14125D01*
X5336Y14047D01*
X5381Y13981D01*
X5447Y13936D01*
X5525Y13921D01*
X5603Y13936D01*
X5669Y13981D01*
X5713Y14047D01*
X5729Y14125D01*
X5713Y14203D01*
X5669Y14269D01*
X5603Y14313D01*
X5525Y14329D01*
D02*
G37*
G36*
X38855Y14455D02*
X38478D01*
X38486Y14393D01*
X38529Y14288D01*
X38598Y14198D01*
X38688Y14129D01*
X38793Y14086D01*
X38855Y14078D01*
Y14455D01*
D02*
G37*
G36*
X6780Y14215D02*
X6355D01*
Y13985D01*
X6780D01*
Y14215D01*
D02*
G37*
G36*
X6255D02*
X5830D01*
Y13985D01*
X6255D01*
Y14215D01*
D02*
G37*
G36*
X750Y11703D02*
X688Y11691D01*
X635Y11655D01*
X599Y11602D01*
X587Y11540D01*
X599Y11478D01*
X635Y11425D01*
X688Y11389D01*
X750Y11377D01*
X812Y11389D01*
X865Y11425D01*
X901Y11478D01*
X913Y11540D01*
X901Y11602D01*
X865Y11655D01*
X812Y11691D01*
X750Y11703D01*
D02*
G37*
G36*
X35349Y9692D02*
X35271Y9676D01*
X35205Y9632D01*
X35160Y9566D01*
X35145Y9488D01*
X35160Y9410D01*
X35205Y9344D01*
X35271Y9299D01*
X35349Y9284D01*
X35427Y9299D01*
X35493Y9344D01*
X35537Y9410D01*
X35553Y9488D01*
X35537Y9566D01*
X35493Y9632D01*
X35427Y9676D01*
X35349Y9692D01*
D02*
G37*
G36*
X2418Y9417D02*
X2359Y9405D01*
X2310Y9372D01*
X2276Y9323D01*
X2265Y9264D01*
X2276Y9206D01*
X2310Y9156D01*
X2359Y9123D01*
X2418Y9111D01*
X2476Y9123D01*
X2526Y9156D01*
X2559Y9206D01*
X2571Y9264D01*
X2559Y9323D01*
X2526Y9372D01*
X2476Y9405D01*
X2418Y9417D01*
D02*
G37*
G36*
X3680Y9348D02*
X3618Y9336D01*
X3565Y9301D01*
X3529Y9248D01*
X3517Y9185D01*
X3529Y9123D01*
X3565Y9070D01*
X3618Y9034D01*
X3680Y9022D01*
X3742Y9034D01*
X3795Y9070D01*
X3831Y9123D01*
X3843Y9185D01*
X3831Y9248D01*
X3795Y9301D01*
X3742Y9336D01*
X3680Y9348D01*
D02*
G37*
G36*
X1906Y9417D02*
X1848Y9405D01*
X1798Y9372D01*
X1758D01*
X1709Y9405D01*
X1650Y9417D01*
X1592Y9405D01*
X1542Y9372D01*
X1509Y9322D01*
X1497Y9264D01*
X1509Y9205D01*
X1542Y9156D01*
X1592Y9122D01*
X1650Y9111D01*
X1709Y9122D01*
X1758Y9156D01*
X1798D01*
X1848Y9122D01*
X1906Y9111D01*
X1965Y9122D01*
X2014Y9156D01*
X2047Y9205D01*
X2059Y9264D01*
X2047Y9322D01*
X2014Y9372D01*
X1965Y9405D01*
X1906Y9417D01*
D02*
G37*
G36*
X5635Y9678D02*
X5572Y9666D01*
X5519Y9630D01*
X5484Y9577D01*
X5472Y9515D01*
X5484Y9452D01*
X5519Y9399D01*
X5572Y9364D01*
X5635Y9352D01*
X5697Y9364D01*
X5750Y9399D01*
X5786Y9452D01*
X5798Y9515D01*
X5786Y9577D01*
X5750Y9630D01*
X5697Y9666D01*
X5635Y9678D01*
D02*
G37*
G36*
X17555Y9668D02*
X17492Y9656D01*
X17439Y9620D01*
X17404Y9567D01*
X17392Y9505D01*
X17404Y9442D01*
X17439Y9389D01*
X17492Y9354D01*
X17555Y9342D01*
X17617Y9354D01*
X17670Y9389D01*
X17706Y9442D01*
X17718Y9505D01*
X17706Y9567D01*
X17670Y9620D01*
X17617Y9656D01*
X17555Y9668D01*
D02*
G37*
G36*
X-430Y9303D02*
X-492Y9291D01*
X-545Y9255D01*
X-581Y9202D01*
X-593Y9140D01*
X-581Y9078D01*
X-545Y9025D01*
X-492Y8989D01*
X-430Y8977D01*
X-368Y8989D01*
X-315Y9025D01*
X-279Y9078D01*
X-267Y9140D01*
X-279Y9202D01*
X-315Y9255D01*
X-368Y9291D01*
X-430Y9303D01*
D02*
G37*
G36*
X29485Y8923D02*
X29413Y8909D01*
X29351Y8868D01*
X29311Y8807D01*
X29296Y8735D01*
X29311Y8663D01*
X29351Y8601D01*
X29413Y8561D01*
X29485Y8546D01*
X29557Y8561D01*
X29618Y8601D01*
X29659Y8663D01*
X29673Y8735D01*
X29659Y8807D01*
X29618Y8868D01*
X29557Y8909D01*
X29485Y8923D01*
D02*
G37*
G36*
X17955Y8939D02*
X17877Y8923D01*
X17811Y8879D01*
X17766Y8813D01*
X17751Y8735D01*
X17766Y8657D01*
X17811Y8591D01*
X17877Y8546D01*
X17955Y8531D01*
X18033Y8546D01*
X18099Y8591D01*
X18143Y8657D01*
X18159Y8735D01*
X18143Y8813D01*
X18099Y8879D01*
X18033Y8923D01*
X17955Y8939D01*
D02*
G37*
G36*
X5635Y8788D02*
X5572Y8776D01*
X5519Y8740D01*
X5484Y8687D01*
X5472Y8625D01*
X5484Y8562D01*
X5519Y8509D01*
X5572Y8474D01*
X5635Y8462D01*
X5697Y8474D01*
X5750Y8509D01*
X5786Y8562D01*
X5798Y8625D01*
X5786Y8687D01*
X5750Y8740D01*
X5697Y8776D01*
X5635Y8788D01*
D02*
G37*
G36*
Y9288D02*
X5572Y9276D01*
X5519Y9240D01*
X5484Y9187D01*
X5472Y9125D01*
X5484Y9062D01*
X5519Y9009D01*
X5572Y8974D01*
X5635Y8962D01*
X5697Y8974D01*
X5750Y9009D01*
X5786Y9062D01*
X5798Y9125D01*
X5786Y9187D01*
X5750Y9240D01*
X5697Y9276D01*
X5635Y9288D01*
D02*
G37*
G36*
X882Y9417D02*
X824Y9405D01*
X774Y9372D01*
X741Y9322D01*
X729Y9264D01*
X741Y9205D01*
X774Y9156D01*
X774Y9156D01*
Y9116D01*
X741Y9066D01*
X729Y9008D01*
X741Y8949D01*
X774Y8900D01*
X824Y8867D01*
X882Y8855D01*
X941Y8867D01*
X986Y8897D01*
X1012Y8883D01*
X1026Y8856D01*
X997Y8811D01*
X985Y8752D01*
X997Y8694D01*
X1030Y8644D01*
Y8605D01*
X997Y8555D01*
X985Y8497D01*
X997Y8438D01*
X1030Y8388D01*
Y8349D01*
X1029Y8349D01*
X996Y8299D01*
X985Y8241D01*
X996Y8182D01*
X1029Y8132D01*
X1079Y8099D01*
X1138Y8088D01*
X1196Y8099D01*
X1246Y8132D01*
X1246Y8133D01*
X1286D01*
X1335Y8099D01*
X1394Y8088D01*
X1452Y8099D01*
X1502Y8133D01*
X1535Y8182D01*
X1547Y8241D01*
X1535Y8299D01*
X1502Y8349D01*
X1452Y8382D01*
X1394Y8394D01*
X1335Y8382D01*
X1290Y8352D01*
X1263Y8366D01*
X1249Y8393D01*
X1279Y8438D01*
X1291Y8497D01*
X1279Y8555D01*
X1246Y8605D01*
Y8644D01*
X1279Y8694D01*
X1291Y8752D01*
X1279Y8811D01*
X1249Y8856D01*
X1263Y8883D01*
X1290Y8898D01*
X1335Y8867D01*
X1394Y8856D01*
X1453Y8867D01*
X1502Y8900D01*
X1535Y8950D01*
X1547Y9009D01*
X1535Y9067D01*
X1502Y9117D01*
X1453Y9150D01*
X1394Y9161D01*
X1335Y9150D01*
X1286Y9117D01*
X1285Y9116D01*
X1246D01*
X1197Y9149D01*
X1138Y9161D01*
X1080Y9149D01*
X1034Y9119D01*
X1007Y9133D01*
X993Y9160D01*
X1023Y9205D01*
X1035Y9264D01*
X1023Y9322D01*
X990Y9372D01*
X941Y9405D01*
X882Y9417D01*
D02*
G37*
G36*
X2926Y8652D02*
X2868Y8641D01*
X2818Y8608D01*
X2816Y8604D01*
X2782D01*
X2732Y8638D01*
X2673Y8649D01*
X2615Y8638D01*
X2565Y8604D01*
X2532Y8555D01*
X2520Y8496D01*
X2532Y8438D01*
X2563Y8392D01*
X2548Y8365D01*
X2522Y8351D01*
X2477Y8381D01*
X2418Y8393D01*
X2360Y8381D01*
X2310Y8348D01*
X2277Y8298D01*
X2265Y8240D01*
X2277Y8181D01*
X2310Y8132D01*
X2360Y8099D01*
X2418Y8087D01*
X2477Y8099D01*
X2527Y8132D01*
X2566D01*
X2616Y8099D01*
X2674Y8087D01*
X2733Y8099D01*
X2782Y8132D01*
X2783Y8133D01*
X2822D01*
X2871Y8100D01*
X2930Y8088D01*
Y8088D01*
Y8087D01*
D01*
D01*
D01*
X2941Y8083D01*
X2941Y8082D01*
X2941Y8082D01*
D01*
D01*
D01*
X2941Y8082D01*
D01*
D01*
D01*
D01*
D01*
D01*
D01*
D01*
D01*
X2941Y8082D01*
X2942Y8082D01*
X2945Y8082D01*
X3018Y8009D01*
Y7243D01*
X2958Y7231D01*
X2910Y7199D01*
X2862Y7231D01*
X2800Y7243D01*
X2768Y7237D01*
X2761Y7272D01*
X2725Y7325D01*
X2672Y7361D01*
X2610Y7373D01*
X2548Y7361D01*
X2495Y7325D01*
X2460Y7273D01*
X2410D01*
X2375Y7325D01*
X2322Y7361D01*
X2260Y7373D01*
X2198Y7361D01*
X2145Y7325D01*
X2109Y7272D01*
X2097Y7210D01*
X2070Y7183D01*
X2008Y7171D01*
X1955Y7135D01*
X1919Y7082D01*
X1907Y7020D01*
X1919Y6958D01*
X1955Y6905D01*
X2008Y6869D01*
X2070Y6857D01*
X2132Y6869D01*
X2185Y6905D01*
X2221Y6958D01*
X2233Y7020D01*
X2260Y7047D01*
X2322Y7059D01*
X2375Y7095D01*
X2410Y7146D01*
X2460D01*
X2495Y7095D01*
X2548Y7059D01*
X2610Y7047D01*
X2642Y7053D01*
X2649Y7018D01*
X2685Y6965D01*
X2738Y6929D01*
X2800Y6917D01*
X2862Y6929D01*
X2910Y6961D01*
X2958Y6929D01*
X3020Y6917D01*
X3082Y6929D01*
X3135Y6965D01*
X3171Y7018D01*
X3183Y7080D01*
X3183Y7083D01*
Y7083D01*
X3183Y7083D01*
X3183D01*
X3194Y7106D01*
D01*
D01*
D01*
X3194Y7106D01*
X3194Y7106D01*
X3192Y7108D01*
X3192Y7108D01*
X3214Y7141D01*
X3222Y7180D01*
Y7927D01*
X3261Y7958D01*
X3306Y7949D01*
X3369Y7962D01*
X3422Y7997D01*
X3457Y8050D01*
X3470Y8112D01*
X3457Y8175D01*
X3422Y8228D01*
X3369Y8263D01*
X3306Y8276D01*
X3244Y8263D01*
X3191Y8228D01*
X3171Y8198D01*
X3122Y8194D01*
X3089Y8226D01*
X3089Y8230D01*
X3089Y8230D01*
X3089D01*
X3086Y8235D01*
X3084Y8241D01*
X3083D01*
X3071Y8300D01*
X3038Y8349D01*
X3034Y8352D01*
Y8391D01*
X3068Y8441D01*
X3079Y8500D01*
X3068Y8558D01*
X3034Y8608D01*
X2985Y8641D01*
X2926Y8652D01*
D02*
G37*
G36*
X3659Y9972D02*
X3597Y9960D01*
X3544Y9924D01*
X3508Y9871D01*
X3496Y9809D01*
X3508Y9747D01*
X3530Y9714D01*
X3502Y9673D01*
X3450Y9683D01*
X3388Y9671D01*
X3335Y9635D01*
X3299Y9582D01*
X3287Y9520D01*
X3299Y9458D01*
X3304Y9451D01*
X3276Y9409D01*
X3236Y9417D01*
X3178Y9405D01*
X3128Y9372D01*
X3108Y9342D01*
X3058D01*
X3038Y9372D01*
X2988Y9405D01*
X2929Y9417D01*
X2871Y9405D01*
X2821Y9372D01*
X2788Y9322D01*
X2776Y9264D01*
X2788Y9205D01*
X2821Y9156D01*
X2871Y9123D01*
X2929Y9111D01*
X2988Y9123D01*
X3038Y9156D01*
X3058Y9186D01*
X3108D01*
X3128Y9156D01*
X3178Y9123D01*
X3236Y9111D01*
X3295Y9123D01*
X3345Y9156D01*
X3378Y9205D01*
X3389Y9264D01*
X3378Y9322D01*
X3377Y9324D01*
X3404Y9366D01*
X3450Y9357D01*
X3512Y9369D01*
X3565Y9405D01*
X3601Y9458D01*
X3613Y9520D01*
X3601Y9582D01*
X3579Y9615D01*
X3607Y9656D01*
X3659Y9646D01*
X3721Y9658D01*
X3774Y9694D01*
X3810Y9747D01*
X3822Y9809D01*
X3810Y9871D01*
X3774Y9924D01*
X3721Y9960D01*
X3659Y9972D01*
D02*
G37*
G36*
X1960Y11144D02*
X1882Y11128D01*
X1816Y11084D01*
X1805Y11068D01*
X1755D01*
X1744Y11084D01*
X1678Y11128D01*
X1600Y11144D01*
X1522Y11128D01*
X1456Y11084D01*
X1412Y11018D01*
X1396Y10940D01*
X1412Y10862D01*
X1456Y10796D01*
X1522Y10752D01*
X1600Y10736D01*
X1678Y10752D01*
X1744Y10796D01*
X1755Y10812D01*
X1805D01*
X1816Y10796D01*
X1882Y10752D01*
X1960Y10736D01*
X2038Y10752D01*
X2104Y10796D01*
X2148Y10862D01*
X2164Y10940D01*
X2148Y11018D01*
X2104Y11084D01*
X2038Y11128D01*
X1960Y11144D01*
D02*
G37*
G36*
X40536Y11220D02*
X40443Y11208D01*
X40356Y11172D01*
X40282Y11115D01*
X40225Y11040D01*
X40189Y10954D01*
X40177Y10861D01*
X40189Y10768D01*
X40225Y10682D01*
X40282Y10607D01*
X40356Y10551D01*
X40443Y10515D01*
X40535Y10502D01*
Y10496D01*
X40536D01*
Y10502D01*
X40629Y10515D01*
X40715Y10551D01*
X40789Y10607D01*
X40846Y10682D01*
X40882Y10768D01*
X40894Y10861D01*
X40882Y10954D01*
X40846Y11040D01*
X40789Y11115D01*
X40715Y11172D01*
X40629Y11208D01*
X40536Y11220D01*
D02*
G37*
G36*
X39395Y10829D02*
X39317Y10813D01*
X39251Y10769D01*
X39207Y10703D01*
X39191Y10625D01*
X39207Y10547D01*
X39251Y10481D01*
X39317Y10436D01*
X39395Y10421D01*
X39473Y10436D01*
X39539Y10481D01*
X39584Y10547D01*
X39599Y10625D01*
X39584Y10703D01*
X39539Y10769D01*
X39473Y10813D01*
X39395Y10829D01*
D02*
G37*
G36*
X2605Y11762D02*
X2527Y11747D01*
X2461Y11702D01*
X2417Y11636D01*
X2401Y11558D01*
X2417Y11480D01*
X2461Y11414D01*
X2527Y11370D01*
X2605Y11354D01*
X2683Y11370D01*
X2749Y11414D01*
X2793Y11480D01*
X2809Y11558D01*
X2793Y11636D01*
X2749Y11702D01*
X2683Y11747D01*
X2605Y11762D01*
D02*
G37*
G36*
X32635Y11729D02*
X32557Y11713D01*
X32491Y11669D01*
X32446Y11603D01*
X32431Y11525D01*
X32446Y11447D01*
X32491Y11381D01*
X32557Y11336D01*
X32635Y11321D01*
X32713Y11336D01*
X32779Y11381D01*
X32823Y11447D01*
X32839Y11525D01*
X32823Y11603D01*
X32779Y11669D01*
X32713Y11713D01*
X32635Y11729D01*
D02*
G37*
G36*
X40536Y12007D02*
X40443Y11995D01*
X40356Y11959D01*
X40282Y11902D01*
X40225Y11828D01*
X40189Y11741D01*
X40177Y11648D01*
X40189Y11556D01*
X40225Y11469D01*
X40282Y11395D01*
X40356Y11338D01*
X40443Y11302D01*
X40536Y11290D01*
X40629Y11302D01*
X40715Y11338D01*
X40789Y11395D01*
X40846Y11469D01*
X40882Y11556D01*
X40894Y11648D01*
X40882Y11741D01*
X40846Y11828D01*
X40789Y11902D01*
X40715Y11959D01*
X40629Y11995D01*
X40536Y12007D01*
D02*
G37*
G36*
X17635Y10588D02*
X17572Y10576D01*
X17519Y10540D01*
X17484Y10487D01*
X17472Y10425D01*
X17484Y10362D01*
X17519Y10309D01*
X17572Y10274D01*
X17635Y10262D01*
X17697Y10274D01*
X17750Y10309D01*
X17786Y10362D01*
X17798Y10425D01*
X17786Y10487D01*
X17750Y10540D01*
X17697Y10576D01*
X17635Y10588D01*
D02*
G37*
G36*
X17445Y10238D02*
X17382Y10226D01*
X17329Y10190D01*
X17294Y10137D01*
X17282Y10075D01*
X17294Y10012D01*
X17329Y9959D01*
X17382Y9924D01*
X17445Y9912D01*
X17507Y9924D01*
X17560Y9959D01*
X17596Y10012D01*
X17608Y10075D01*
X17596Y10137D01*
X17560Y10190D01*
X17507Y10226D01*
X17445Y10238D01*
D02*
G37*
G36*
X40908Y10024D02*
X40586D01*
Y9701D01*
X40634Y9708D01*
X40725Y9746D01*
X40804Y9806D01*
X40864Y9884D01*
X40902Y9976D01*
X40908Y10024D01*
D02*
G37*
G36*
X40486D02*
X40164D01*
X40170Y9976D01*
X40208Y9884D01*
X40268Y9806D01*
X40346Y9746D01*
X40438Y9708D01*
X40486Y9701D01*
Y10024D01*
D02*
G37*
G36*
X29215Y10748D02*
X29152Y10736D01*
X29099Y10700D01*
X29064Y10647D01*
X29052Y10585D01*
X29064Y10522D01*
X29099Y10469D01*
Y10420D01*
X29064Y10367D01*
X29052Y10305D01*
X29064Y10242D01*
X29099Y10189D01*
X29152Y10154D01*
X29215Y10142D01*
X29277Y10154D01*
X29330Y10189D01*
X29366Y10242D01*
X29378Y10305D01*
X29366Y10367D01*
X29330Y10420D01*
Y10469D01*
X29366Y10522D01*
X29378Y10585D01*
X29366Y10647D01*
X29330Y10700D01*
X29277Y10736D01*
X29215Y10748D01*
D02*
G37*
G36*
X40586Y10446D02*
Y10124D01*
X40908D01*
X40902Y10172D01*
X40864Y10263D01*
X40804Y10342D01*
X40725Y10402D01*
X40634Y10440D01*
X40586Y10446D01*
D02*
G37*
G36*
X40486D02*
X40438Y10440D01*
X40346Y10402D01*
X40268Y10342D01*
X40208Y10263D01*
X40170Y10172D01*
X40164Y10124D01*
X40486D01*
Y10446D01*
D02*
G37*
%LPD*%
D10*
X-1835Y3677D02*
G03*
X-1692Y3333I487J0D01*
G01*
X-1835Y3484D02*
G03*
X-1749Y3276I294J0D01*
G01*
X4538Y3480D02*
G03*
X4680Y3670I-56J190D01*
G01*
X4561Y3404D02*
G03*
X4680Y3563I-47J159D01*
G01*
X4304Y2875D02*
G03*
X4492Y2953I0J266D01*
G01*
Y2797D02*
G03*
X4304Y2875I-188J-188D01*
G01*
Y2375D02*
G03*
X4492Y2453I0J266D01*
G01*
Y2297D02*
G03*
X4304Y2375I-188J-188D01*
G01*
Y1875D02*
G03*
X4492Y1953I0J266D01*
G01*
Y1797D02*
G03*
X4304Y1875I-188J-188D01*
G01*
X4364Y1400D02*
G03*
X4492Y1453I0J181D01*
G01*
X4486Y1304D02*
G03*
X4280Y1400I-206J-174D01*
G01*
X-1109Y2864D02*
G03*
X-825Y2965I36J348D01*
G01*
X-1117Y2785D02*
G03*
X-944Y2846I22J212D01*
G01*
X-1835Y3677D02*
G03*
X-1692Y3333I487J0D01*
G01*
X-1835Y3484D02*
G03*
X-1749Y3276I294J0D01*
G01*
X-1827Y3349D02*
G03*
X-1788Y3498I-56J94D01*
G01*
X-1786Y3281D02*
G03*
X-1747Y3428I-56J93D01*
G01*
X-596Y3515D02*
G03*
X-232Y3365I363J363D01*
G01*
X-459Y3379D02*
G03*
X-232Y3285I227J227D01*
G01*
X683Y3255D02*
G03*
X495Y3177I0J-266D01*
G01*
Y3333D02*
G03*
X683Y3255I188J188D01*
G01*
X36167Y9362D02*
G03*
X36571Y9195I404J404D01*
G01*
X36304Y9226D02*
G03*
X36571Y9115I268J268D01*
G01*
X38505Y9345D02*
G03*
X38616Y9187I167J0D01*
G01*
X38505Y9232D02*
G03*
X38590Y9112I127J0D01*
G01*
X38476Y9155D02*
G03*
X38505Y9225I-70J70D01*
G01*
X39821Y9298D02*
G03*
X40071Y9195I250J250D01*
G01*
X39936Y9060D02*
G03*
X39849Y9271I-298J0D01*
G01*
X38838Y9291D02*
G03*
X39071Y9195I233J233D01*
G01*
X38936Y9060D02*
G03*
X38842Y9288I-322J0D01*
G01*
X37855Y9284D02*
G03*
X38071Y9195I216J216D01*
G01*
X37936Y9060D02*
G03*
X37835Y9305I-346J0D01*
G01*
X37389Y9270D02*
G03*
X37571Y9195I182J182D01*
G01*
X37436Y9060D02*
G03*
X37321Y9339I-395J0D01*
G01*
X37516Y9060D02*
G03*
X37457Y9202I-202J0D01*
G01*
X36872Y9277D02*
G03*
X37071Y9195I199J199D01*
G01*
X36936Y9060D02*
G03*
X36828Y9322I-371J0D01*
G01*
X-1475Y5018D02*
G03*
X-1376Y4779I338J0D01*
G01*
X-1574D02*
G03*
X-1475Y5018I-239J239D01*
G01*
Y4015D02*
G03*
X-1558Y4177I-200J0D01*
G01*
X-1393D02*
G03*
X-1475Y4015I118J-162D01*
G01*
X-704Y4996D02*
G03*
X-835Y4680I316J-316D01*
G01*
X-841Y4859D02*
G03*
X-915Y4680I179J-179D01*
G01*
X-975Y4820D02*
G03*
X-813Y4887I0J229D01*
G01*
X-236Y4919D02*
G03*
X-335Y4680I239J-239D01*
G01*
X-475Y4820D02*
G03*
X-237Y4919I0J338D01*
G01*
X25Y5018D02*
G03*
X124Y4779I338J0D01*
G01*
X-74D02*
G03*
X25Y5018I-239J239D01*
G01*
X397Y4873D02*
G03*
X525Y4820I127J127D01*
G01*
X405Y4753D02*
G03*
X390Y4880I-89J54D01*
G01*
X397Y4873D02*
G03*
X525Y4820I127J127D01*
G01*
X385Y4680D02*
G03*
X240Y5030I-494J0D01*
G01*
X465Y4680D02*
G03*
X376Y4894I-302J0D01*
G01*
X-2217Y13435D02*
G03*
X-2456Y13336I0J-338D01*
G01*
Y13534D02*
G03*
X-2217Y13435I239J239D01*
G01*
X-2214Y12664D02*
G03*
X-2550Y12795I-318J-318D01*
G01*
X-2343Y12793D02*
G03*
X-2553Y12875I-198J-198D01*
G01*
X-2415Y12935D02*
G03*
X-2366Y12815I169J0D01*
G01*
X-3184Y11696D02*
G03*
X-3085Y11935I-239J239D01*
G01*
X-2945Y11795D02*
G03*
X-3184Y11696I0J-338D01*
G01*
X-2217Y10435D02*
G03*
X-2456Y10336I0J-338D01*
G01*
Y10534D02*
G03*
X-2217Y10435I239J239D01*
G01*
X-2183Y9449D02*
G03*
X-2456Y9336I0J-387D01*
G01*
Y9534D02*
G03*
X-2252Y9449I205J205D01*
G01*
X-2217Y7935D02*
G03*
X-2456Y7836I0J-338D01*
G01*
Y8034D02*
G03*
X-2217Y7935I239J239D01*
G01*
X-1967Y7538D02*
G03*
X-2456Y7336I0J-692D01*
G01*
X-2160Y7538D02*
G03*
X-2513Y7392I0J-499D01*
G01*
X-2353Y7538D02*
G03*
X-2569Y7449I0J-306D01*
G01*
X5772Y10935D02*
G03*
X6011Y11034I0J338D01*
G01*
Y10836D02*
G03*
X5772Y10935I-239J-239D01*
G01*
Y10435D02*
G03*
X6011Y10534I0J338D01*
G01*
Y10336D02*
G03*
X5772Y10435I-239J-239D01*
G01*
Y13435D02*
G03*
X6011Y13534I0J338D01*
G01*
Y13336D02*
G03*
X5772Y13435I-239J-239D01*
G01*
Y12935D02*
G03*
X6011Y13034I0J338D01*
G01*
Y12836D02*
G03*
X5772Y12935I-239J-239D01*
G01*
Y12435D02*
G03*
X6011Y12534I0J338D01*
G01*
Y12336D02*
G03*
X5772Y12435I-239J-239D01*
G01*
Y11935D02*
G03*
X6011Y12034I0J338D01*
G01*
Y11836D02*
G03*
X5772Y11935I-239J-239D01*
G01*
X5868Y11475D02*
G03*
X6011Y11534I0J201D01*
G01*
Y11336D02*
G03*
X5675Y11475I-336J-336D01*
G01*
X6067Y11392D02*
G03*
X5868Y11475I-199J-199D01*
G01*
X37114Y9844D02*
G03*
X36968Y9905I-146J-146D01*
G01*
X130Y11037D02*
G03*
X158Y10968I97J0D01*
G01*
X102D02*
G03*
X130Y11037I-68J68D01*
G01*
X-1475Y5103D02*
G03*
X-1503Y5172I-97J0D01*
G01*
X-1447D02*
G03*
X-1475Y5103I68J-68D01*
G01*
X36270Y11733D02*
G03*
X36242Y11802I-97J0D01*
G01*
X36298D02*
G03*
X36270Y11733I68J-68D01*
G01*
X36605Y11577D02*
G03*
X36512Y11802I-318J0D01*
G01*
X36605Y11770D02*
G03*
X36568Y11858I-125J0D01*
G01*
X-755Y7538D02*
G03*
X-687Y7567I0J97D01*
G01*
Y7510D02*
G03*
X-755Y7538I-68J-68D01*
G01*
X1228Y2741D02*
G03*
X1365Y2685I137J137D01*
G01*
X1285Y2605D02*
G03*
X1228Y2741I-193J0D01*
G01*
X-1950Y4743D02*
G03*
X-1978Y4812I-97J0D01*
G01*
X-1922D02*
G03*
X-1950Y4743I68J-68D01*
G01*
X4311Y2875D02*
G03*
X4243Y2847I0J-97D01*
G01*
Y2903D02*
G03*
X4311Y2875I68J68D01*
G01*
X5661Y13435D02*
G03*
X5593Y13407I0J-97D01*
G01*
Y13463D02*
G03*
X5661Y13435I68J68D01*
G01*
X5651Y12935D02*
G03*
X5583Y12907I0J-97D01*
G01*
Y12963D02*
G03*
X5651Y12935I68J68D01*
G01*
X4388Y2352D02*
G03*
X4295Y2340I-32J-118D01*
G01*
Y2409D02*
G03*
X4388Y2397I61J106D01*
G01*
X4371Y2375D02*
G03*
X4303Y2347I0J-97D01*
G01*
Y2403D02*
G03*
X4371Y2375I68J68D01*
G01*
X5673Y12435D02*
G03*
X5593Y12402I0J-113D01*
G01*
Y12458D02*
G03*
X5650Y12435I57J57D01*
G01*
X4295Y1909D02*
G03*
X4388Y1897I61J106D01*
G01*
X4388Y1852D02*
G03*
X4295Y1840I-32J-118D01*
G01*
X4371Y1875D02*
G03*
X4303Y1847I0J-97D01*
G01*
Y1903D02*
G03*
X4371Y1875I68J68D01*
G01*
X5337Y11730D02*
G03*
X5268Y11702I0J-97D01*
G01*
Y11758D02*
G03*
X5337Y11730I68J68D01*
G01*
X5341Y11475D02*
G03*
X5273Y11447I0J-97D01*
G01*
Y11503D02*
G03*
X5341Y11475I68J68D01*
G01*
X4383Y1372D02*
G03*
X4295Y1360I-30J-113D01*
G01*
X4309Y1415D02*
G03*
X4356Y1379I66J38D01*
G01*
X4383Y1400D02*
G03*
X4303Y1367I0J-113D01*
G01*
Y1423D02*
G03*
X4360Y1400I57J57D01*
G01*
X-2214Y8650D02*
G03*
X-2242Y8718I-97J0D01*
G01*
X-2186D02*
G03*
X-2214Y8650I68J-68D01*
G01*
X-2135Y4923D02*
G03*
X-2163Y4992I-97J0D01*
G01*
X-2107D02*
G03*
X-2135Y4923I68J-68D01*
G01*
X35653Y9876D02*
G03*
X35585Y9905I-68J-68D01*
G01*
X35625Y9945D02*
G03*
X35653Y9876I97J0D01*
G01*
X35929Y9876D02*
G03*
X35861Y9905I-68J-68D01*
G01*
X35901Y9945D02*
G03*
X35929Y9876I97J0D01*
G01*
X36207Y9876D02*
G03*
X36138Y9905I-68J-68D01*
G01*
X36178Y9945D02*
G03*
X36207Y9876I97J0D01*
G01*
X36477Y9876D02*
G03*
X36408Y9905I-68J-68D01*
G01*
X36448Y9945D02*
G03*
X36477Y9876I97J0D01*
G01*
X36757Y9876D02*
G03*
X36688Y9905I-68J-68D01*
G01*
X36728Y9945D02*
G03*
X36757Y9876I97J0D01*
G01*
X2642Y10365D02*
G03*
X2574Y10337I0J-97D01*
G01*
Y10394D02*
G03*
X2642Y10365I68J68D01*
G01*
X3407Y10160D02*
G03*
X3338Y10132I0J-97D01*
G01*
Y10188D02*
G03*
X3407Y10160I68J68D01*
G01*
X4680Y3573D02*
G03*
X4652Y3642I-97J0D01*
G01*
X4708D02*
G03*
X4680Y3573I68J-68D01*
G01*
X4655Y3577D02*
G03*
X4645Y3650I-93J25D01*
G01*
X4700Y3635D02*
G03*
X4655Y3577I48J-84D01*
G01*
X-3282Y11598D02*
G03*
X-3310Y11530I68J-68D01*
G01*
X-3350Y11570D02*
G03*
X-3282Y11598I0J97D01*
G01*
X123Y10435D02*
G03*
X192Y10463I0J97D01*
G01*
Y10407D02*
G03*
X123Y10435I-68J-68D01*
G01*
Y10160D02*
G03*
X192Y10188I0J97D01*
G01*
Y10132D02*
G03*
X123Y10160I-68J-68D01*
G01*
X288Y9972D02*
G03*
X260Y9904I68J-68D01*
G01*
X220Y9944D02*
G03*
X288Y9972I0J97D01*
G01*
X-330Y4825D02*
G03*
X-245Y5030I-205J205D01*
G01*
X-527D02*
G03*
X-458Y5058I0J97D01*
G01*
Y5002D02*
G03*
X-527Y5030I-68J-68D01*
G01*
X308Y4962D02*
G03*
X240Y4990I-68J-68D01*
G01*
X280Y5030D02*
G03*
X308Y4962I97J0D01*
G01*
X288Y4946D02*
G03*
X230Y4991I-84J-48D01*
G01*
X279Y5020D02*
G03*
X288Y4946I93J-25D01*
G01*
X25Y4922D02*
G03*
X-8Y5002I-113J0D01*
G01*
X48D02*
G03*
X25Y4945I57J-57D01*
G01*
X47Y4934D02*
G03*
X0Y4995I-98J-26D01*
G01*
X55Y5010D02*
G03*
X46Y4941I79J-46D01*
G01*
X-2Y4917D02*
G03*
X-15Y5010I-119J32D01*
G01*
X-678Y7992D02*
G03*
X-650Y8060I-68J68D01*
G01*
X-610Y8020D02*
G03*
X-678Y7992I0J-97D01*
G01*
X37275Y9385D02*
X37571Y9088D01*
X36961Y9385D02*
X37275D01*
X36861Y9485D02*
X36961Y9385D01*
X37024Y9525D02*
X37615D01*
X36924Y9625D02*
X37024Y9525D01*
X37085Y9665D02*
X38185D01*
X36985Y9765D02*
X37085Y9665D01*
X37155Y9804D02*
X38326D01*
X37014Y9945D02*
X37155Y9804D01*
X37300Y9950D02*
X38810D01*
X36450Y10800D02*
X37300Y9950D01*
X37357Y10089D02*
X39031D01*
X36935Y10511D02*
X37357Y10089D01*
X36450Y10800D02*
Y11390D01*
X37615Y9525D02*
X38071Y9068D01*
X38185Y9665D02*
X38505Y9345D01*
X38326Y9804D02*
X39071Y9058D01*
X39031Y10089D02*
X40071Y9048D01*
X36270Y11570D02*
X36450Y11390D01*
X38810Y9950D02*
X39445Y9315D01*
X38505Y9125D02*
Y9345D01*
Y9125D02*
X38571Y9058D01*
X40071Y8735D02*
Y9048D01*
X36935Y10511D02*
Y10955D01*
X36605Y11285D02*
X36935Y10955D01*
X36605Y11285D02*
Y11765D01*
X36540Y11830D02*
X36605Y11765D01*
X39445Y8861D02*
X39571Y8735D01*
X39445Y8861D02*
Y9315D01*
X36270Y11570D02*
Y11830D01*
X39071Y8735D02*
Y9058D01*
X36968Y9945D02*
X37014D01*
X38571Y8735D02*
Y9058D01*
X36868Y9765D02*
X36985D01*
X36728Y9625D02*
X36924D01*
X36408Y9945D02*
X36728Y9625D01*
X35861Y9945D02*
X36460Y9346D01*
X36804D01*
X37071Y9078D01*
X36598Y9485D02*
X36861D01*
X36138Y9945D02*
X36598Y9485D01*
X36688Y9945D02*
X36868Y9765D01*
X38071Y8735D02*
Y9068D01*
X37571Y8735D02*
Y9088D01*
X37071Y8735D02*
Y9078D01*
X36571Y8735D02*
Y8958D01*
X35585Y9945D02*
X36571Y8958D01*
X-735Y7935D02*
X-610Y8060D01*
X-2505Y7935D02*
X-735D01*
X-2750D02*
X-2505D01*
X-2755D02*
X-2750D01*
X25Y4485D02*
Y5030D01*
X525Y4485D02*
Y4575D01*
X390Y4710D02*
X525Y4575D01*
X390Y4710D02*
Y4880D01*
X240Y5030D02*
X390Y4880D01*
X-205Y4950D02*
Y5030D01*
X-670D02*
X-430D01*
X-915Y4785D02*
X-670Y5030D01*
X-975Y4485D02*
Y4675D01*
X-465Y4690D02*
X-205Y4950D01*
X-2755Y10435D02*
X220D01*
X-2945Y11935D02*
X-2750D01*
X-3350Y11530D02*
X-2945Y11935D01*
X-2214Y7935D02*
Y8746D01*
X5240Y11730D02*
X5450D01*
X5655Y11935D01*
X4280Y1400D02*
X4895D01*
X4680Y3480D02*
Y3670D01*
Y3480D02*
X4785Y3375D01*
X2545Y10365D02*
X5115D01*
X5685Y10935D01*
X3310Y10160D02*
X5310D01*
X5585Y10435D01*
X-2485Y12935D02*
X-2214Y12664D01*
X-2755Y12935D02*
X-2485D01*
X5585Y10435D02*
X6295D01*
X-475Y4485D02*
Y4740D01*
X-2755Y13435D02*
X-2625Y13555D01*
X-2755Y13435D02*
X-1955D01*
X5685Y10935D02*
X6295D01*
X6255Y11475D02*
X6295Y11435D01*
X5245Y11475D02*
X6255D01*
X5655Y11935D02*
X6295D01*
X4785Y3375D02*
X4905D01*
X4275Y1875D02*
X4905D01*
X5555Y12935D02*
X6295D01*
X4275Y2375D02*
X4905D01*
X5565Y13435D02*
X6295D01*
X4215Y2875D02*
X4905D01*
X-1085Y2755D02*
X-1075Y2765D01*
X-1475Y4015D02*
Y4485D01*
Y4015D02*
X-1225Y3755D01*
X6025Y3285D02*
X6345D01*
X6435Y3375D01*
X-2750Y7435D02*
X-2555D01*
X-2451Y7538D01*
X-2755Y7435D02*
X-2655Y7535D01*
X-1950Y4220D02*
X-1285Y3555D01*
X-1950Y4220D02*
Y4840D01*
X-1475Y4485D02*
Y5200D01*
X-1075Y2765D02*
X-1025D01*
X-2135Y4135D02*
Y5020D01*
X5565Y12435D02*
X6295D01*
X-1955Y13435D02*
X130Y11350D01*
X-2214Y11021D02*
Y12664D01*
Y11021D02*
X-1814Y10621D01*
X293D01*
X406Y10508D01*
Y10089D02*
Y10508D01*
X220Y9904D02*
X406Y10089D01*
X130Y10940D02*
Y11350D01*
X-2451Y7538D02*
X-659D01*
X-1225Y3755D02*
X-835D01*
X-335Y3255D01*
X715D01*
X1365Y2605D01*
X-1285Y3555D02*
X-965D01*
X-1025Y2765D02*
X-825Y2965D01*
Y3415D01*
X-965Y3555D02*
X-825Y3415D01*
X-1235Y3255D02*
X-1085D01*
X-1835Y3305D02*
Y3835D01*
X-2135Y4135D02*
X-1835Y3835D01*
X-920Y10160D02*
X220D01*
X-2741Y9449D02*
X-1631D01*
X-920Y10160D01*
X-2755Y9435D02*
X-2741Y9449D01*
D11*
X6720Y3634D02*
G03*
X6807Y3424I296J0D01*
G01*
X40336Y3069D02*
G03*
X40170Y3000I0J-235D01*
G01*
X39665Y4691D02*
G03*
X40040Y5120I-58J429D01*
G01*
X39687Y4533D02*
G03*
X40040Y4937I-54J404D01*
G01*
X39708Y4374D02*
G03*
X40040Y4754I-51J380D01*
G01*
X19812Y1988D02*
G03*
X19295Y1380I100J-609D01*
G01*
X19786Y2146D02*
G03*
X19295Y1568I95J-578D01*
G01*
X19760Y2304D02*
G03*
X19295Y1756I90J-548D01*
G01*
X19734Y2462D02*
G03*
X19295Y1945I85J-517D01*
G01*
X19645Y4340D02*
G03*
X19984Y3520I1159J0D01*
G01*
X19645Y3953D02*
G03*
X19871Y3407I773J0D01*
G01*
X19320Y3520D02*
G03*
X19645Y4305I-785J785D01*
G01*
X19433Y3407D02*
G03*
X19645Y3918I-512J512D01*
G01*
X28128Y4702D02*
G03*
X28545Y5175I-60J473D01*
G01*
X28149Y4543D02*
G03*
X28545Y4993I-58J450D01*
G01*
X28169Y4384D02*
G03*
X28545Y4811I-55J427D01*
G01*
X8175Y1297D02*
G03*
X7899Y1962I-940J0D01*
G01*
X8175Y1683D02*
G03*
X8012Y2075I-554J0D01*
G01*
X8564Y1962D02*
G03*
X8175Y1022I940J-940D01*
G01*
X8451Y2075D02*
G03*
X8175Y1408I667J-667D01*
G01*
X8075Y4436D02*
G03*
X8454Y3520I1296J0D01*
G01*
X8075Y4050D02*
G03*
X8341Y3407I910J0D01*
G01*
X7790Y3520D02*
G03*
X8075Y4208I-688J688D01*
G01*
X7903Y3407D02*
G03*
X8075Y3822I-415J415D01*
G01*
X8470Y1889D02*
G03*
X7875Y850I610J-1039D01*
G01*
X8389Y2027D02*
G03*
X7875Y1129I527J-897D01*
G01*
X8308Y2165D02*
G03*
X7875Y1409I444J-756D01*
G01*
X8227Y2303D02*
G03*
X7875Y1688I361J-614D01*
G01*
X29274Y12926D02*
G03*
X29885Y13675I-153J749D01*
G01*
X29306Y12769D02*
G03*
X29885Y13479I-145J710D01*
G01*
X29338Y12612D02*
G03*
X29885Y13283I-137J670D01*
G01*
X29370Y12456D02*
G03*
X29885Y13087I-129J631D01*
G01*
X29402Y12299D02*
G03*
X29885Y12891I-121J592D01*
G01*
X29434Y12142D02*
G03*
X29885Y12694I-113J552D01*
G01*
X20972Y10216D02*
G03*
X20395Y9579I63J-637D01*
G01*
X20956Y10375D02*
G03*
X20395Y9755I61J-619D01*
G01*
X20941Y10534D02*
G03*
X20395Y9932I59J-602D01*
G01*
X20925Y10693D02*
G03*
X20395Y10108I57J-585D01*
G01*
X20909Y10853D02*
G03*
X20395Y10285I56J-568D01*
G01*
X20894Y11012D02*
G03*
X20395Y10461I54J-550D01*
G01*
X17654Y12898D02*
G03*
X18115Y13595I-296J697D01*
G01*
X17717Y12751D02*
G03*
X18115Y13353I-256J602D01*
G01*
X17779Y12604D02*
G03*
X18115Y13111I-216J507D01*
G01*
X6755Y3703D02*
G03*
X6737Y3570I152J-88D01*
G01*
X19312Y1445D02*
G03*
X19329Y1315I166J-44D01*
G01*
X8175Y606D02*
G03*
X8213Y513I131J0D01*
G01*
X30730Y3540D02*
X30830Y3440D01*
Y3148D02*
Y3440D01*
Y3148D02*
X31247Y2731D01*
X3075Y2175D02*
Y2675D01*
X17405Y14045D02*
X17895D01*
X18225Y14385D01*
X17655Y14045D02*
X18115Y13595D01*
X17405Y14045D02*
X17655D01*
X28545Y4085D02*
Y5175D01*
X28245Y3785D02*
X28545Y4085D01*
X17205Y4285D02*
Y5175D01*
X16705Y3785D02*
X17205Y4285D01*
X20395Y9545D02*
Y10475D01*
X20885Y10965D01*
X9015Y9505D02*
Y10625D01*
X9355Y10965D01*
X19645Y2805D02*
Y6015D01*
Y2805D02*
X19705Y2735D01*
X8075Y2835D02*
X8175Y2735D01*
X8075Y2835D02*
Y6215D01*
X29175Y13165D02*
X29425Y12915D01*
Y12015D02*
Y12915D01*
X8175Y505D02*
X8185Y485D01*
X8175Y505D02*
Y2735D01*
X18115Y12235D02*
Y13595D01*
X17895Y12015D02*
X18115Y12235D01*
X29885Y12475D02*
Y13675D01*
X29425Y12015D02*
X29885Y12475D01*
X20725Y10965D02*
X20885D01*
X19295Y1295D02*
Y2325D01*
X19705Y2735D01*
X16875Y3785D02*
X17595Y3065D01*
X16705Y3785D02*
X16875D01*
X7875Y895D02*
Y2435D01*
X8175Y2735D01*
X20005Y11685D02*
X20725Y10965D01*
X39783Y3779D02*
X40270Y3292D01*
X40040Y4036D02*
Y5120D01*
X39783Y3779D02*
X40040Y4036D01*
X31030Y1920D02*
Y2578D01*
X31247Y2731D02*
X31360Y2618D01*
X40319Y3069D02*
X40561D01*
X40270Y3020D02*
X40319Y3069D01*
X40270Y3020D02*
Y3292D01*
X6720Y3362D02*
Y3723D01*
X28245Y3605D02*
Y3785D01*
Y3605D02*
X28785Y3065D01*
X29135D01*
X8465Y11685D02*
X8875D01*
X9355Y11205D01*
Y10965D02*
Y11205D01*
D12*
X-3120Y6690D02*
G03*
X-3025Y6932I-230J230D01*
G01*
X-3131Y6679D02*
G03*
X-3025Y6935I-256J256D01*
G01*
X-3345Y4395D02*
Y6465D01*
X-3120Y6690D01*
X-2460D01*
D13*
X2445Y1545D02*
X3075Y2175D01*
D14*
X3015Y8156D02*
G03*
X2930Y8191I-85J-85D01*
G01*
X2980Y8241D02*
G03*
X3015Y8156I121J0D01*
G01*
X3120Y7180D02*
G03*
X3080Y7081I97J-97D01*
G01*
X3021Y7140D02*
G03*
X3120Y7180I2J137D01*
G01*
X3020Y7080D02*
X3120Y7180D01*
Y8051D01*
X2930Y8241D02*
X3120Y8051D01*
D17*
X30630Y1520D02*
G03*
X30875Y2232I-607J607D01*
G01*
X31302Y1854D02*
G03*
X30725Y1615I0J-815D01*
G01*
X41071Y8735D02*
X41345D01*
X30630Y1520D02*
X31030Y1920D01*
X30730Y3540D02*
Y3847D01*
X5555Y9935D02*
X6305D01*
D61*
X-3270Y14750D02*
D03*
X6740D02*
D03*
X0Y0D02*
D03*
X11440Y14750D02*
D03*
X8400Y10D02*
D03*
X20300Y70D02*
D03*
X41420Y5166D02*
D03*
Y14750D02*
D03*
X23065Y14745D02*
D03*
D72*
X37071Y8735D02*
D03*
X37571D02*
D03*
X38071D02*
D03*
X39071D02*
D03*
X39571D02*
D03*
X40071D02*
D03*
X41071D02*
D03*
X40571D02*
D03*
X38571D02*
D03*
X36571D02*
D03*
D73*
X93Y3255D02*
D03*
X-1445D02*
D03*
X93Y2755D02*
D03*
X-1445D02*
D03*
X93Y2255D02*
D03*
X-1445D02*
D03*
X93Y1755D02*
D03*
X-1445D02*
D03*
X93Y1255D02*
D03*
X-1445D02*
D03*
X4895Y1375D02*
D03*
X6433D02*
D03*
X4895Y1875D02*
D03*
X6433D02*
D03*
X4895Y2375D02*
D03*
X6433D02*
D03*
X4895Y2875D02*
D03*
X6433D02*
D03*
X4895Y3375D02*
D03*
X6433D02*
D03*
D91*
X40536Y10074D02*
D03*
Y10861D02*
D03*
Y11648D02*
D03*
Y12436D02*
D03*
D92*
X39905Y14505D02*
D03*
X38905D02*
D03*
D93*
X33045Y11985D02*
D03*
X21525Y11995D02*
D03*
X9995Y12005D02*
D03*
X16065Y2775D02*
D03*
X27595D02*
D03*
X-2165Y2975D02*
D03*
X34105Y8905D02*
D03*
X26095Y5495D02*
D03*
X14635D02*
D03*
X27355Y13385D02*
D03*
X27505Y13455D02*
D03*
X39285Y10335D02*
D03*
X35050Y1090D02*
D03*
X33030Y1610D02*
D03*
X31870Y3450D02*
D03*
X34490Y3050D02*
D03*
X30850Y-10D02*
D03*
X32070Y230D02*
D03*
X34150Y5210D02*
D03*
X31340Y1490D02*
D03*
X31438Y17D02*
D03*
X33330Y3660D02*
D03*
X33140Y2940D02*
D03*
X33880Y1100D02*
D03*
X35160Y600D02*
D03*
X35180Y1950D02*
D03*
X33470D02*
D03*
X3810Y1730D02*
D03*
X4900Y490D02*
D03*
X-1250Y5660D02*
D03*
X-690Y9820D02*
D03*
X3870Y10920D02*
D03*
X-610Y8060D02*
D03*
X-430Y9140D02*
D03*
X280Y8590D02*
D03*
X20Y5030D02*
D03*
X240D02*
D03*
X-430D02*
D03*
X-205D02*
D03*
X-90Y9710D02*
D03*
X140Y9550D02*
D03*
X320Y9390D02*
D03*
X220Y9904D02*
D03*
Y10160D02*
D03*
Y10435D02*
D03*
X750Y11540D02*
D03*
X-3350Y11530D02*
D03*
X-1700Y10221D02*
D03*
X320Y11550D02*
D03*
X-930Y12150D02*
D03*
X8360Y10220D02*
D03*
X13145Y11398D02*
D03*
X15910Y12720D02*
D03*
X17075Y8149D02*
D03*
X11870Y9140D02*
D03*
X11340Y9350D02*
D03*
X11060Y13530D02*
D03*
X13050Y12230D02*
D03*
X16575Y8160D02*
D03*
X16075D02*
D03*
X19860Y10230D02*
D03*
X21450Y9060D02*
D03*
X28610Y8080D02*
D03*
X27450Y10900D02*
D03*
X30520Y11540D02*
D03*
X25400Y12600D02*
D03*
Y14640D02*
D03*
X26920Y11570D02*
D03*
X22570Y13500D02*
D03*
X23000Y9250D02*
D03*
X23420Y9140D02*
D03*
X28120Y8140D02*
D03*
X27610D02*
D03*
X21535Y9715D02*
D03*
X32520Y1150D02*
D03*
X32390Y1345D02*
D03*
X4680Y3670D02*
D03*
X3310Y10160D02*
D03*
X2545Y10365D02*
D03*
X3659Y9809D02*
D03*
X5270Y9810D02*
D03*
X5130Y9630D02*
D03*
X4970Y9450D02*
D03*
X3450Y9520D02*
D03*
X3490Y8620D02*
D03*
X2800Y7080D02*
D03*
X17555Y9505D02*
D03*
X9805Y9815D02*
D03*
X39096Y9406D02*
D03*
X35315Y12805D02*
D03*
X38795Y9590D02*
D03*
X35515Y12575D02*
D03*
X5635Y6125D02*
D03*
X36688Y9945D02*
D03*
X36408D02*
D03*
X36138D02*
D03*
X35861D02*
D03*
X35585D02*
D03*
X36780Y12650D02*
D03*
X27320Y4870D02*
D03*
X20355Y4875D02*
D03*
X5635Y5625D02*
D03*
X20905Y875D02*
D03*
X15810Y5130D02*
D03*
X8855Y4835D02*
D03*
X16010Y4950D02*
D03*
X9015Y1525D02*
D03*
X5635Y5125D02*
D03*
X9255Y445D02*
D03*
X21540Y9340D02*
D03*
X21830Y9720D02*
D03*
X29215Y10585D02*
D03*
Y10305D02*
D03*
X5565Y13180D02*
D03*
X10275Y9365D02*
D03*
X17635Y10425D02*
D03*
X10555Y9365D02*
D03*
X17445Y10075D02*
D03*
X10005Y9365D02*
D03*
X17715Y13370D02*
D03*
X15825Y14505D02*
D03*
X5565Y13685D02*
D03*
X5635Y9125D02*
D03*
Y8625D02*
D03*
X5630Y7950D02*
D03*
X5635Y7625D02*
D03*
Y9515D02*
D03*
Y10225D02*
D03*
X5785Y1875D02*
D03*
Y2375D02*
D03*
X-341Y12209D02*
D03*
X5525Y12125D02*
D03*
X5635Y11655D02*
D03*
Y11125D02*
D03*
Y10625D02*
D03*
X-2135Y5020D02*
D03*
X6820Y7125D02*
D03*
Y6730D02*
D03*
X-225Y11308D02*
D03*
X1170Y11885D02*
D03*
X5340Y3933D02*
D03*
X6025Y4145D02*
D03*
X-2214Y8746D02*
D03*
X4275Y1395D02*
D03*
X5245Y11475D02*
D03*
X5240Y11730D02*
D03*
X4275Y1875D02*
D03*
X5565Y12430D02*
D03*
X4275Y2375D02*
D03*
X5555Y12935D02*
D03*
X5565Y13435D02*
D03*
X4215Y2875D02*
D03*
X9055Y55D02*
D03*
X20665Y485D02*
D03*
X36780Y13205D02*
D03*
X15515Y14775D02*
D03*
X-1950Y4840D02*
D03*
X25505Y6690D02*
D03*
X14055Y6585D02*
D03*
X5520Y3460D02*
D03*
X2260Y7210D02*
D03*
X2070Y7020D02*
D03*
X1540Y5010D02*
D03*
X1720Y5150D02*
D03*
X1902Y5020D02*
D03*
X2090Y5150D02*
D03*
X2270Y5020D02*
D03*
X2450Y5150D02*
D03*
X-659Y7538D02*
D03*
X1730Y7300D02*
D03*
X1360Y5150D02*
D03*
X1180Y5010D02*
D03*
X-300Y9575D02*
D03*
X3680Y9185D02*
D03*
X3420Y6413D02*
D03*
X33566Y6610D02*
D03*
X33066Y6600D02*
D03*
X32565D02*
D03*
X31240Y910D02*
D03*
X33870Y90D02*
D03*
X38090Y1260D02*
D03*
X41470Y4640D02*
D03*
X40600Y3450D02*
D03*
X40770Y4455D02*
D03*
X40890Y6360D02*
D03*
X39940Y6370D02*
D03*
X39750Y4980D02*
D03*
X39100Y5650D02*
D03*
X37570Y5840D02*
D03*
X37210Y6700D02*
D03*
X32070Y6600D02*
D03*
X37190Y5425D02*
D03*
X35370Y4030D02*
D03*
X37640Y1680D02*
D03*
X40810Y3450D02*
D03*
X21525Y6600D02*
D03*
X21025D02*
D03*
X24410Y3480D02*
D03*
X23660Y2630D02*
D03*
X23630Y600D02*
D03*
Y100D02*
D03*
X26550Y1250D02*
D03*
X29790Y4510D02*
D03*
X29410Y6360D02*
D03*
X28470D02*
D03*
X27630Y5650D02*
D03*
X29220Y4510D02*
D03*
X20530Y6600D02*
D03*
X21590Y1480D02*
D03*
X21780Y3670D02*
D03*
X25820Y810D02*
D03*
X22970Y3460D02*
D03*
X25661Y5386D02*
D03*
X9995Y6600D02*
D03*
X9495D02*
D03*
X14170Y5550D02*
D03*
X17690Y4520D02*
D03*
X15040Y1200D02*
D03*
X10810Y620D02*
D03*
X12190Y2690D02*
D03*
X9000Y6600D02*
D03*
X10350Y3380D02*
D03*
X36540Y11830D02*
D03*
X36270D02*
D03*
X36280Y10740D02*
D03*
X38640Y13425D02*
D03*
X31410Y10230D02*
D03*
X32650Y9970D02*
D03*
X33330Y9330D02*
D03*
X33870Y8610D02*
D03*
X35320Y8990D02*
D03*
X35150Y8090D02*
D03*
X38327Y10340D02*
D03*
X36980Y14650D02*
D03*
X36960Y13640D02*
D03*
X38420Y14120D02*
D03*
X34110Y13530D02*
D03*
X35350Y14040D02*
D03*
X2630Y5020D02*
D03*
X3190Y5400D02*
D03*
X3380Y5580D02*
D03*
X-1475Y5200D02*
D03*
X895Y5575D02*
D03*
X5950Y275D02*
D03*
X5470D02*
D03*
X5520Y3295D02*
D03*
X4420Y3670D02*
D03*
X3020Y7080D02*
D03*
X2610Y7210D02*
D03*
X5520Y2860D02*
D03*
Y2370D02*
D03*
X5555Y12685D02*
D03*
X1778Y10412D02*
D03*
X2034D02*
D03*
X2290D02*
D03*
X-3358Y10070D02*
D03*
X130Y10940D02*
D03*
X36968Y9945D02*
D03*
X6870Y7950D02*
D03*
X12010Y640D02*
D03*
X-771Y670D02*
D03*
X3306Y8112D02*
D03*
X3630Y8190D02*
D03*
X6850Y6000D02*
D03*
X-2035Y2515D02*
D03*
X-2015Y-205D02*
D03*
Y171D02*
D03*
Y548D02*
D03*
Y925D02*
D03*
Y736D02*
D03*
X-3598Y3035D02*
D03*
X-3149D02*
D03*
X-3368D02*
D03*
X-2015Y-17D02*
D03*
Y360D02*
D03*
X-1225Y10805D02*
D03*
X-2115Y9845D02*
D03*
X-1225Y13795D02*
D03*
X30545Y2255D02*
D03*
D94*
X14623Y13445D02*
D03*
X41345Y8735D02*
D03*
X38133Y8058D02*
D03*
X30850Y925D02*
D03*
X32320Y650D02*
D03*
X32070D02*
D03*
Y5270D02*
D03*
X18425Y3415D02*
D03*
X-3520Y11830D02*
D03*
X-3310Y11950D02*
D03*
X-3520Y12070D02*
D03*
X16625Y14123D02*
D03*
X27430Y14615D02*
D03*
X22085Y9398D02*
D03*
X29139Y3061D02*
D03*
X36810Y6700D02*
D03*
X5555Y9935D02*
D03*
X39395Y10625D02*
D03*
X38795Y12225D02*
D03*
X17285Y10805D02*
D03*
X15275Y6315D02*
D03*
X26775D02*
D03*
X28185Y4975D02*
D03*
X16655D02*
D03*
X22325Y8435D02*
D03*
X20705Y9735D02*
D03*
X10785Y8435D02*
D03*
X18185Y8245D02*
D03*
X9335Y9695D02*
D03*
X31455Y11745D02*
D03*
X33665Y13955D02*
D03*
X27075Y805D02*
D03*
X15515Y765D02*
D03*
X10595Y13955D02*
D03*
X35865Y9185D02*
D03*
X31535Y9465D02*
D03*
X36225Y11275D02*
D03*
X39055Y2765D02*
D03*
X31925Y8655D02*
D03*
X34055Y14755D02*
D03*
X32165Y12195D02*
D03*
X39845Y13815D02*
D03*
X33215Y13205D02*
D03*
X30705Y11335D02*
D03*
X26645Y-65D02*
D03*
X28595Y2515D02*
D03*
X20515Y5335D02*
D03*
X19255Y115D02*
D03*
X27501Y1515D02*
D03*
X29875Y3245D02*
D03*
X17405Y6055D02*
D03*
X15075Y-5D02*
D03*
X16965Y2555D02*
D03*
X8625Y4125D02*
D03*
X9285Y1255D02*
D03*
X7715Y115D02*
D03*
X15915Y1545D02*
D03*
X20195Y8695D02*
D03*
X8665D02*
D03*
X10985Y14755D02*
D03*
X9095Y12195D02*
D03*
X17285Y9795D02*
D03*
X17485Y13735D02*
D03*
X18225Y14755D02*
D03*
X10145Y13205D02*
D03*
X7635Y11455D02*
D03*
X6528Y4276D02*
D03*
X5515Y14615D02*
D03*
X2515Y13005D02*
D03*
X-3075Y3475D02*
D03*
X2436Y610D02*
D03*
X-695Y11165D02*
D03*
X-1555Y6065D02*
D03*
X-155Y795D02*
D03*
X-2035Y12985D02*
D03*
X-2015Y7315D02*
D03*
X-1225Y12125D02*
D03*
X6185Y1035D02*
D03*
X2445Y1545D02*
D03*
X-1610Y12120D02*
D03*
X20395Y9545D02*
D03*
X9015Y9505D02*
D03*
X18225Y14385D02*
D03*
X17205Y5175D02*
D03*
X8185Y485D02*
D03*
X28545Y5175D02*
D03*
X37115Y12615D02*
D03*
X38095Y9445D02*
D03*
X39215Y3395D02*
D03*
X35885Y8085D02*
D03*
X32635Y11525D02*
D03*
X19295Y1295D02*
D03*
X40561Y3069D02*
D03*
X17595Y3065D02*
D03*
X7875Y895D02*
D03*
X8075Y6215D02*
D03*
X23725Y8075D02*
D03*
X12140Y8090D02*
D03*
X8465Y11685D02*
D03*
X17405Y14045D02*
D03*
X17955Y8735D02*
D03*
X-3345Y4395D02*
D03*
X5525Y14125D02*
D03*
X325Y13605D02*
D03*
X1365Y2605D02*
D03*
X886Y5316D02*
D03*
X1600Y10940D02*
D03*
X1960D02*
D03*
X38780Y5140D02*
D03*
X31219Y6020D02*
D03*
X37330Y740D02*
D03*
X40040Y5120D02*
D03*
X30630Y1520D02*
D03*
X30730Y3847D02*
D03*
X27210Y5120D02*
D03*
X21720Y200D02*
D03*
X20220Y4390D02*
D03*
X19980D02*
D03*
X41418Y3241D02*
D03*
X38985Y1531D02*
D03*
X40138Y2511D02*
D03*
X38188Y-69D02*
D03*
X38588Y831D02*
D03*
X8450Y4520D02*
D03*
X8690D02*
D03*
X16113Y5380D02*
D03*
X10250Y200D02*
D03*
X36709Y10858D02*
D03*
X35349Y9488D02*
D03*
X6720Y3723D02*
D03*
X2605Y11558D02*
D03*
D95*
X2418Y9264D02*
D03*
X1138Y9008D02*
D03*
X882Y9008D02*
D03*
X882Y9264D02*
D03*
X2674Y8240D02*
D03*
X2418D02*
D03*
X1394Y8241D02*
D03*
X2162Y8497D02*
D03*
X2929Y9264D02*
D03*
X3236D02*
D03*
X2926Y8500D02*
D03*
X1906Y8753D02*
D03*
X2422Y7734D02*
D03*
X2673Y8496D02*
D03*
X1138Y8752D02*
D03*
Y8497D02*
D03*
X2162Y8753D02*
D03*
X370Y7729D02*
D03*
X626Y7729D02*
D03*
X626Y8240D02*
D03*
X370Y8241D02*
D03*
X1650Y9264D02*
D03*
X1906D02*
D03*
X1394Y9009D02*
D03*
X1906Y7473D02*
D03*
Y7728D02*
D03*
X1650Y8241D02*
D03*
X1906Y8240D02*
D03*
X1138Y8241D02*
D03*
X626Y8496D02*
D03*
X2930Y8241D02*
D03*
X2929Y7729D02*
D03*
D96*
X7265Y6475D02*
D03*
X18795Y6235D02*
D03*
X30335Y5875D02*
D03*
Y8875D02*
D03*
X18795Y8515D02*
D03*
X7265Y8285D02*
D03*
Y5875D02*
D03*
X18795Y5645D02*
D03*
X7265Y5285D02*
D03*
X18795Y9105D02*
D03*
X7265Y8875D02*
D03*
Y9465D02*
D03*
X18795Y10875D02*
D03*
X7265Y11235D02*
D03*
X30335Y10645D02*
D03*
Y4695D02*
D03*
X18795Y4465D02*
D03*
X7265Y685D02*
D03*
X30335Y5285D02*
D03*
X18795Y5055D02*
D03*
X30335Y9465D02*
D03*
X18795Y9695D02*
D03*
X7265Y10055D02*
D03*
X18795Y10285D02*
D03*
X30335Y10055D02*
D03*
Y4105D02*
D03*
X18795Y3875D02*
D03*
X7265Y4105D02*
D03*
Y4695D02*
D03*
Y10645D02*
D03*
D97*
X28625Y13185D02*
D03*
X27995Y13995D02*
D03*
X28345Y13415D02*
D03*
X22515Y14755D02*
D03*
X20635Y12195D02*
D03*
X29215Y9565D02*
D03*
X22125Y13975D02*
D03*
X29885Y14635D02*
D03*
X21685Y13205D02*
D03*
X19175Y11335D02*
D03*
X28265Y14385D02*
D03*
X29175Y13165D02*
D03*
X19645Y6015D02*
D03*
X29885Y13675D02*
D03*
X20005Y11685D02*
D03*
X29485Y8735D02*
D03*
D100*
X13625Y11495D02*
D03*
X25155D02*
D03*
X12445Y3265D02*
D03*
X23975D02*
D03*
X35515Y3255D02*
D03*
D101*
X17893Y12019D02*
D03*
X9357Y10971D02*
D03*
X20887D02*
D03*
X29423Y12019D02*
D03*
X8177Y2741D02*
D03*
X16713Y3789D02*
D03*
X28243D02*
D03*
X19707Y2741D02*
D03*
X31247Y2731D02*
D03*
X39783Y3779D02*
D03*
D102*
X3995Y395D02*
D03*
X1356D02*
D03*
D103*
X3075Y2668D02*
D03*
X2281D02*
D03*
D104*
X6305Y11435D02*
D03*
Y11935D02*
D03*
Y12435D02*
D03*
Y12935D02*
D03*
Y13435D02*
D03*
Y13935D02*
D03*
Y8435D02*
D03*
Y8935D02*
D03*
Y9435D02*
D03*
Y9935D02*
D03*
Y10435D02*
D03*
Y10935D02*
D03*
Y5935D02*
D03*
Y6435D02*
D03*
Y6935D02*
D03*
Y7435D02*
D03*
Y7935D02*
D03*
X-2750Y5935D02*
D03*
Y6435D02*
D03*
Y6935D02*
D03*
Y7435D02*
D03*
Y7935D02*
D03*
Y8435D02*
D03*
Y8935D02*
D03*
Y9435D02*
D03*
Y9935D02*
D03*
Y10435D02*
D03*
Y10935D02*
D03*
Y11435D02*
D03*
Y11935D02*
D03*
Y12435D02*
D03*
Y12935D02*
D03*
Y13435D02*
D03*
Y13935D02*
D03*
D105*
X5025Y4485D02*
D03*
X4525D02*
D03*
X4025D02*
D03*
X3525D02*
D03*
X3025D02*
D03*
X2525D02*
D03*
X2025D02*
D03*
X1525D02*
D03*
X1025D02*
D03*
X525D02*
D03*
X25D02*
D03*
X-475D02*
D03*
X-975D02*
D03*
X-1475D02*
D03*
D106*
X8020Y1235D02*
D03*
M02*
